<?xml version="1.0" encoding="UTF-8" standalone="no"?>
<!DOCTYPE svg PUBLIC "-//W3C//DTD SVG 1.1//EN" "http://www.w3.org/Graphics/SVG/1.1/DTD/svg11.dtd">
<svg width="100%" height="100%" viewBox="0 0 6615 6615" version="1.1" xmlns="http://www.w3.org/2000/svg" xmlns:xlink="http://www.w3.org/1999/xlink" xml:space="preserve" xmlns:serif="http://www.serif.com/" style="fill-rule:evenodd;clip-rule:evenodd;stroke-linejoin:round;stroke-miterlimit:2;">
    <g id="path">
        <path d="M3318.79,3258.37L3318.47,2163.22L3318.89,2257.85C3318.89,2257.85 3045.57,2260.6 3040.66,2096.95C3035.75,1933.31 3035.15,1883.8 3035.15,1883.8C3035.15,1883.8 3095.35,1819.52 3318.74,1823.09C3542.13,1826.65 3584.09,1874.95 3584.09,1874.95C3584.09,1874.95 3490.08,1784.9 3318.52,1788.84C3163.63,1792.4 3035.92,1852.64 3035.92,1852.64L3035.43,1119.18C3035.43,1119.18 2887.35,1212.19 2697.51,1171.99C2507.67,1131.79 2593.69,632.41 2832.75,642.377C3071.82,652.345 3309.71,781.956 3309.71,781.956C3309.71,781.956 3476.25,608.179 3744.11,614.069C4011.97,619.959 4062.53,1036.31 3820.31,1111.16C3706.36,1146.37 3598.61,1109.69 3598.61,1109.69C3598.61,1109.69 3672.14,1919.35 3555.29,2091.79C3438.44,2264.23 3318.78,2234.75 3318.78,2234.75L3318.78,3228.41L3326.65,3283.98L4100.81,2509.37L4034.2,2576.57C4034.2,2576.57 3838.99,2385.25 3951.23,2266.06C4063.48,2146.88 4098.06,2111.44 4098.06,2111.44C4098.06,2111.44 4186.07,2108.56 4341.52,2269.04C4496.96,2429.53 4492.48,2493.34 4492.48,2493.34C4492.48,2493.34 4489.68,2363.2 4365.58,2244.67C4253.54,2137.66 4120.64,2089.95 4120.64,2089.95L4638.93,1570.98C4638.93,1570.98 4468.45,1532.04 4362.64,1369.37C4256.82,1206.71 4670.76,914.417 4832.76,1090.51C4994.76,1266.61 5071.32,1526.46 5071.32,1526.46C5071.32,1526.46 5311.96,1521.35 5497.2,1714.92C5682.45,1908.49 5423.79,2238.64 5199.59,2120.3C5094.11,2064.62 5043.86,1962.49 5043.86,1962.49C5043.86,1962.49 4523.34,2587 4318.78,2626.31C4114.22,2665.62 4050.46,2560.17 4050.46,2560.17L3347.84,3262.79L3343.71,3295.62L4438.86,3295.3L4344.24,3295.71C4344.24,3295.71 4341.49,3022.39 4505.14,3017.49C4668.78,3012.58 4718.29,3011.97 4718.29,3011.97C4718.29,3011.97 4782.57,3072.17 4779,3295.56C4775.44,3518.96 4727.14,3560.91 4727.14,3560.91C4727.14,3560.91 4817.19,3466.91 4813.25,3295.35C4809.69,3140.45 4749.45,3012.74 4749.45,3012.74L5482.91,3012.26C5482.91,3012.26 5389.9,2864.18 5430.1,2674.34C5470.3,2484.49 5969.68,2570.51 5959.71,2809.58C5949.74,3048.65 5820.13,3286.53 5820.13,3286.53C5820.13,3286.53 5993.91,3453.07 5988.02,3720.94C5982.13,3988.8 5565.78,4039.36 5490.93,3797.14C5455.72,3683.18 5492.4,3575.43 5492.4,3575.43C5492.4,3575.43 4682.74,3648.97 4510.3,3532.12C4337.85,3415.27 4367.34,3295.61 4367.34,3295.61L3373.68,3295.61L3319.96,3320.66L4094.58,4094.82L4027.38,4028.21C4027.38,4028.21 4218.7,3833 4337.88,3945.24C4457.07,4057.49 4492.5,4092.07 4492.5,4092.07C4492.5,4092.07 4495.39,4180.09 4334.9,4335.52C4174.42,4490.97 4110.6,4486.49 4110.6,4486.49C4110.6,4486.49 4240.75,4483.69 4359.27,4359.59C4466.28,4247.55 4513.99,4114.65 4513.99,4114.65L5032.97,4632.94C5032.97,4632.94 5071.91,4462.46 5234.57,4356.65C5397.24,4250.83 5689.53,4664.77 5513.43,4826.77C5337.34,4988.77 5077.48,5065.33 5077.48,5065.33C5077.48,5065.33 5082.6,5305.97 4889.02,5491.21C4695.45,5676.46 4365.3,5417.8 4483.65,5193.61C4539.33,5088.12 4641.45,5037.87 4641.45,5037.87C4641.45,5037.87 4016.94,4517.35 3977.63,4312.79C3938.32,4108.23 4043.78,4044.47 4043.78,4044.47L3341.16,3341.85L3296.16,3297.2L3296.48,4392.35L3296.06,4297.72C3296.06,4297.72 3569.38,4294.97 3574.29,4458.62C3579.19,4622.26 3579.8,4671.77 3579.8,4671.77C3579.8,4671.77 3519.6,4736.05 3296.21,4732.48C3072.82,4728.92 3030.86,4680.62 3030.86,4680.62C3030.86,4680.62 3124.86,4770.67 3296.42,4766.73C3451.32,4763.17 3579.03,4702.93 3579.03,4702.93L3579.51,5436.39C3579.51,5436.39 3727.6,5343.38 3917.44,5383.58C4107.28,5423.78 4021.26,5923.16 3782.2,5913.19C3543.13,5903.23 3305.24,5773.61 3305.24,5773.61C3305.24,5773.61 3138.7,5947.39 2870.84,5941.5C2602.97,5935.61 2552.42,5519.26 2794.63,5444.41C2908.59,5409.2 3016.34,5445.88 3016.34,5445.88C3016.34,5445.88 2942.81,4636.22 3059.66,4463.78C3176.51,4291.34 3296.16,4320.82 3296.16,4320.82L3296.16,3327.16L3304.1,3313.09L2529.94,4087.7L2596.55,4020.5C2596.55,4020.5 2791.77,4211.82 2679.52,4331C2567.27,4450.19 2532.7,4485.62 2532.7,4485.62C2532.7,4485.62 2444.68,4488.51 2289.24,4328.03C2133.8,4167.54 2138.28,4103.72 2138.28,4103.72C2138.28,4103.72 2141.07,4233.87 2265.17,4352.39C2377.21,4459.4 2510.12,4507.11 2510.12,4507.11L1991.83,5026.09C1991.83,5026.09 2162.3,5065.03 2268.12,5227.7C2373.93,5390.36 1959.99,5682.65 1797.99,5506.56C1636,5330.46 1559.43,5070.6 1559.43,5070.6C1559.43,5070.6 1318.79,5075.72 1133.55,4882.15C948.305,4688.57 1206.96,4358.42 1431.16,4476.77C1536.64,4532.45 1586.89,4634.58 1586.89,4634.58C1586.89,4634.58 2107.41,4010.06 2311.97,3970.75C2516.53,3931.45 2580.3,4036.9 2580.3,4036.9L3282.92,3334.28L3308.65,3300.22L2213.5,3300.54L2308.12,3300.12C2308.12,3300.12 2310.87,3573.44 2147.23,3578.35C1983.58,3583.26 1934.07,3583.86 1934.07,3583.86C1934.07,3583.86 1869.79,3523.66 1873.36,3300.27C1876.93,3076.88 1925.22,3034.92 1925.22,3034.92C1925.22,3034.92 1835.17,3128.92 1839.11,3300.49C1842.67,3455.38 1902.91,3583.09 1902.91,3583.09L1169.45,3583.58C1169.45,3583.58 1262.46,3731.66 1222.26,3921.5C1182.06,4111.34 682.683,4025.32 692.65,3786.26C702.617,3547.19 832.228,3309.3 832.228,3309.3C832.228,3309.3 658.451,3142.76 664.341,2874.9C670.232,2607.03 1086.58,2556.48 1161.43,2798.7C1196.64,2912.65 1159.96,3020.4 1159.96,3020.4C1159.96,3020.4 1969.62,2946.87 2142.07,3063.72C2314.51,3180.57 2285.03,3300.22 2285.03,3300.22L3278.68,3300.23L3283.99,3251.22L2509.38,2477.06L2576.58,2543.68C2576.58,2543.68 2385.26,2738.89 2266.07,2626.64C2146.89,2514.4 2111.45,2479.82 2111.45,2479.82C2111.45,2479.82 2108.57,2391.8 2269.05,2236.36C2429.53,2080.92 2493.35,2085.4 2493.35,2085.4C2493.35,2085.4 2363.21,2088.2 2244.68,2212.29C2137.67,2324.34 2089.96,2457.24 2089.96,2457.24L1570.99,1938.95C1570.99,1938.95 1532.04,2109.42 1369.38,2215.24C1206.72,2321.05 914.426,1907.11 1090.52,1745.12C1266.61,1583.12 1526.47,1506.55 1526.47,1506.55C1526.47,1506.55 1521.36,1265.91 1714.93,1080.67C1908.5,895.428 2238.65,1154.08 2120.31,1378.28C2064.63,1483.76 1962.5,1534.01 1962.5,1534.01C1962.5,1534.01 2587.01,2054.54 2626.32,2259.1C2665.63,2463.66 2560.18,2527.42 2560.18,2527.42L3262.79,3230.04" style="fill:none;"/>
    </g>
</svg>
