<?xml version="1.0" encoding="UTF-8" standalone="no"?>
<!-- Created with Inkscape (http://www.inkscape.org/) -->

<svg
   width="540mm"
   height="540mm"
   viewBox="0 0 540 540"
   version="1.1"
   id="svg1"
   inkscape:version="1.4.2 (f4327f4, 2025-05-13)"
   sodipodi:docname="dither_wormhole.svg"
   xmlns:inkscape="http://www.inkscape.org/namespaces/inkscape"
   xmlns:sodipodi="http://sodipodi.sourceforge.net/DTD/sodipodi-0.dtd"
   xmlns="http://www.w3.org/2000/svg"
   xmlns:svg="http://www.w3.org/2000/svg">
  <sodipodi:namedview
     id="namedview1"
     pagecolor="#ffffff"
     bordercolor="#000000"
     borderopacity="0.25"
     inkscape:showpageshadow="2"
     inkscape:pageopacity="0.0"
     inkscape:pagecheckerboard="0"
     inkscape:deskcolor="#d1d1d1"
     inkscape:document-units="mm"
     inkscape:zoom="0.41"
     inkscape:cx="773.17073"
     inkscape:cy="1043.9024"
     inkscape:window-width="1920"
     inkscape:window-height="1112"
     inkscape:window-x="-8"
     inkscape:window-y="-8"
     inkscape:window-maximized="1"
     inkscape:current-layer="layer1" />
  <defs
     id="defs1" />
  <g
     inkscape:label="Layer 1"
     inkscape:groupmode="layer"
     id="layer1">
    <path
       d="m 268.71357,268.84451 v 0 l -0.49405,-0.12733 0.0355,-0.13242 0.0815,-0.16299 0.10187,-0.13754 0.0968,-0.0457 0.10188,-0.0254 0.17317,-0.0917 0.25467,-0.11206 0.20376,-0.0102 0.0865,0.10696 0.0968,0.10186 0.27505,0.0458 0.36165,0.0661 0.18335,0.16809 -0.0457,0.21392 0.0151,0.20376 0.28524,0.23938 0.33108,0.32088 0.0204,0.29034 -0.24447,0.19863 -0.11206,0.2445 0.16299,0.45333 0.12732,0.52462 -0.21902,0.27505 -0.41256,0.0408 -0.25976,0.20883 -0.0865,0.59086 -0.19863,0.57555 -0.41766,0.0865 -0.45842,-0.21902 -0.38711,0.10187 -0.43295,0.57045 -0.5297,0.41259 -0.45843,-0.22922 -0.34127,-0.48897 -0.47369,-0.0661 -0.76401,0.34127 -0.71818,0.0612 -0.28014,-0.55008 -0.0714,-0.67236 -0.49407,-0.28524 -0.94739,-0.0815 -0.66726,-0.37691 0.0968,-0.71819 0.27505,-0.69271 -0.40747,-0.53482 -0.88627,-0.59594 -0.34126,-0.72327 0.55518,-0.63669 0.59593,-0.53991 -0.18845,-0.76402 -0.52463,-1.04925 0.15283,-0.82514 0.93209,-0.26995 0.80477,-0.24449 0.16809,-0.90154 0.0714,-1.26317 0.64687,-0.60612 1.05435,0.28521 0.87098,0.11717 0.61631,-0.8659 0.73855,-1.12565 0.9372,-0.0968 0.84553,0.86589 0.77928,0.46349 1.06455,-0.58574 1.26829,-0.61631 0.87097,0.52464 0.32599,1.27844 0.56535,0.74366 1.37014,-0.0612 1.45165,0.13751 0.42786,1.02889 -0.36165,1.36503 0.26995,0.93722 1.39052,0.63667 1.18678,0.90155 -0.28015,1.19186 -1.02887,1.08492 -0.0763,1.02887 1.03907,1.3243 0.51952,1.42109 -1.0085,0.90663 -1.4771,0.49406 -0.46352,1.01363 0.32089,1.80308 -0.35144,1.48219 -1.4822,0.20884 -1.58407,-0.24449 -0.86589,0.86077 -0.62141,1.86423 -1.12564,1.03397 -1.49751,-0.69271 -1.32936,-0.94739 -1.24792,0.5399 -1.52803,1.4109 -1.52804,0.19864 -0.98813,-1.51274 -0.78949,-1.43637 -1.51276,0.0204 -2.12397,0.50934 -1.37524,-0.74364 -0.0612,-1.95589 -0.11206,-1.62991 -1.56368,-0.65706 -2.16983,-0.63669 -0.68252,-1.45164 1.0085,-1.83872 0.5552,-1.52295 -1.28356,-1.39054 -1.58916,-1.68083 0.33108,-1.6452 1.89986,-1.15112 1.09,-1.18168 -0.6163,-1.99665 -0.51445,-2.29206 1.31413,-1.19186 2.3277,-0.0763 1.44146,-0.69272 0.36162,-2.26659 0.76402,-2.23094 1.88969,-0.21901 2.14944,1.10019 1.60953,-0.14773 1.46184,-2.01191 1.82854,-1.4822 1.80818,0.97794 1.4058,2.03739 1.60955,0.42785 2.39392,-1.19187 2.3175,-0.25466 1.02892,1.98134 0.30049,2.48562 1.44147,1.0085 2.83705,0.0763 2.04757,1.05946 -0.23939,2.4041 -0.871,2.35828 1.07984,1.55861 2.57727,1.49237 1.07474,2.01192 -1.60444,2.04757 -1.81328,1.71649 0.4737,2.01702 1.59425,2.6537 -0.29031,2.25641 -2.61296,0.96267 -2.33283,0.75892 -0.37691,2.24623 0.0917,3.18339 -1.57389,1.66048 -2.90327,-0.5399 -2.38376,-0.28014 -1.37012,2.1036 -1.53822,2.85234 -2.29717,0.41257 -2.35318,-2.03228 -2.01702,-1.17152 -2.33279,1.46184 -2.79633,1.69612 -2.17491,-1.06963 -1.07472,-3.05608 -1.39053,-1.80819 -2.97966,0.34127 -3.26492,0.0152 -1.19186,-2.25642 0.56536,-3.2904 -0.63158,-2.15962 -3.0459,-1.10018 -2.76575,-1.68593 0.35655,-2.69446 2.11888,-2.66898 0.1579,-2.2462 -2.37356,-2.53147 -1.4109,-2.86253 1.95081,-2.16471 3.15287,-1.37015 0.93718,-2.10869 -0.98304,-3.53996 0.37183,-3.10701 3.0357,-0.7742 3.4228,0.23939 1.68086,-1.74197 0.84041,-3.75899 2.00682,-2.32261 3.18343,1.06453 2.91346,1.74197 2.33792,-1.11548 2.63839,-3.00514 2.92875,-0.74364 2.27169,2.75556 1.81328,2.78613 2.80649,-0.17829 3.87103,-1.3854 2.79122,1.09 0.53991,3.74368 0.43804,3.2038 2.90328,1.00851 4.11552,0.71819 1.61463,2.54163 -1.51275,3.67239 -0.88627,2.99496 2.44996,2.29205 3.22416,2.70463 -0.20883,3.06627 -3.27509,2.51618 -1.92534,2.3277 1.36504,3.38206 1.39561,3.96274 -2.05776,2.43977 -4.2123,0.59084 -2.58237,1.3956 -0.25977,3.93216 -0.85571,4.06968 -3.24962,0.82005 -4.05442,-1.55352 -2.85743,0.37182 -2.12905,3.63676 -2.8269,2.95929 -3.32603,-1.27336 -2.85233,-3.32604 -2.8116,-0.62649 -3.76917,2.39392 -3.8914,0.94739 -2.1749,-3.11721 -0.96267,-4.26831 -2.4907,-1.58916 -4.67581,0.3871 -3.67749,-1.3243 -0.11206,-4.04932 1.09,-4.19701 -1.88458,-2.46014 -4.47207,-1.9508 -2.23602,-3.08665 2.21056,-3.70804 2.80142,-3.1936 -0.9423,-3.17833 -3.06627,-3.9729 -0.051,-3.74369 4.04931,-2.10361 3.79972,-1.60953 0.34127,-3.57051 -0.74874,-5.05782 2.13416,-3.04079 4.78277,0.3005 3.98309,0.13754 1.86421,-3.42283 1.87949,-4.80313 3.53995,-1.19697 4.14099,2.78612 3.44319,1.67576 3.37186,-2.55183 4.04421,-3.20889 3.63676,1.16132 2.27678,4.62486 2.42957,2.76575 4.46696,-0.94738 5.0731,-0.67742 2.34809,3.20379 -0.2903,5.26154 1.19696,3.35659 4.75219,1.19189 4.60449,2.03228 0.0559,4.17665 -2.82178,4.52809 -0.0559,3.49922 3.94234,3.40242 2.75047,4.0748 -2.47032,3.67746 -4.63506,2.6537 -1.25809,3.28018 2.04247,5.09348 0.0917,4.78785 -4.35492,1.78272 -5.29721,0.19355 -2.35825,2.73519 -0.60612,5.6894 -2.51108,3.91689 -4.91521,-0.92701 -4.72166,-2.2004 -3.32602,1.83875 -3.3413,4.86426 -4.18686,1.75724 -3.88118,-3.60617 -3.16306,-3.95761 -4.02893,0.54501 -5.394,2.69952 -4.34981,-0.97285 -1.50256,-5.36852 -1.11039,-4.76748 -4.24284,-1.10528 -6.10708,-0.30051 -2.92366,-3.32604 1.51788,-5.613 0.94227,-4.60449 -3.7386,-2.93384 -5.15969,-3.31076 -0.39219,-4.45169 4.28869,-4.23265 2.59258,-3.67749 -2.36845,-4.55865 -2.75048,-5.43475 2.37865,-3.92197 5.96445,-1.59935 3.65202,-2.31242 -0.19356,-5.51622 0.43804,-5.98991 4.40076,-1.85403 6.08161,1.53312 4.10532,-0.80476 2.4194,-5.36852 3.44318,-4.76238 4.905,1.07471 4.63506,4.28361 4.06459,0.66215 4.849,-3.8965 5.31756,-2.12397 3.64691,3.87612 2.06286,5.93388 3.62656,2.02212 6.38721,-1.27336 5.4398,1.10017 0.95759,5.56717 -0.89646,6.12744 2.8116,3.23436 6.46361,1.95588 3.77427,3.84047 -2.32774,5.50604 -3.48901,4.94576 1.58407,4.23266 4.86425,4.94069 0.87608,5.16985 -5.15459,3.63163 -5.1393,2.81162 -0.0815,4.84387 1.88459,6.78959 -2.2717,4.63506 -6.58076,0.45332 -5.6181,0.33616 -2.0985,4.78787 -1.72161,6.88126 -4.55354,2.39394 -6.12744,-3.07137 -5.02726,-1.92021 -4.16137,3.82009 -4.93046,5.07817 -5.14951,-0.78438 -3.88122,-5.89315 -3.69275,-3.57562 -5.79128,1.85402 -6.75393,1.83366 -3.80482,-3.78444 -0.48897,-7.1818 -1.99665,-4.5077 -6.44322,-0.90156 -6.59605,-1.89477 -0.92192,-5.53151 3.07646,-6.58075 -0.24958,-4.77767 -5.6945,-3.9067 -4.47715,-4.97122 2.53655,-5.33285 5.8422,-4.32436 1.3956,-4.523 -3.45336,-6.38721 -1.05435,-6.40247 5.38889,-3.17325 7.11557,-1.0849 2.87781,-3.83539 -0.0865,-7.5587 2.57221,-5.73015 6.61132,0.3107 6.68771,2.25641 4.17664,-2.725 1.80309,-3.45337 1.80309,-3.45337 5.20043,-3.17324 5.71487,4.01366 4.82861,4.86935 5.15967,-1.12566 3.31075,-2.20546 3.31077,-2.20547 5.92879,0.39728 2.90329,6.73356 2.13924,6.24969 5.58753,0.9423 4.00856,-0.30561 4.01365,-0.3107 4.50773,3.7437 -0.50935,3.78444 -0.50935,3.78954 -0.66723,6.28533 5.14439,3.29549 3.64182,1.72668 3.64183,1.72668 1.42109,5.6894 -2.43469,3.11211 -2.42957,3.1121 -3.01024,5.21571 3.60107,5.51113 2.25641,3.30568 2.26151,3.30056 -2.27169,5.52131 -3.7488,1.52804 -3.7437,1.52804 -4.57392,3.47883 0.98812,6.99334 0.2394,3.92707 0.2394,3.93215 -5.25648,3.23944 -4.07475,-0.50933 -4.06969,-0.50936 -5.31758,1.4873 -2.31753,7.16139 -1.80817,3.39227 -1.80309,3.39733 -6.45343,-0.42784 -3.34132,-2.4143 -3.3413,-2.41431 -5.35833,-0.4635 -2.79122,2.82178 -2.79632,2.82687 -6.47889,3.70804 -5.34815,-4.22757 -1.79289,-3.69278 -1.78779,-3.68764 -4.86427,-2.25133 -3.95254,1.28356 -3.95252,1.27844 -7.21745,-0.40236 -2.21566,-6.86089 0.12735,-4.03913 0.12223,-4.03912 -3.89141,-3.84049 -4.23775,-0.74363 -4.24287,-0.74366 -5.57734,-4.21228 1.97118,-7.35498 1.89985,-3.45337 1.89987,-3.45847 -2.42959,-5.16985 -3.45846,-2.74539 -3.46357,-2.74027 -2.12398,-6.43814 2.93385,-2.7301 2.93384,-2.73011 6.25987,-4.35491 -0.42276,-6.05613 -1.72669,-4.14099 -1.73177,-4.141 1.96607,-6.33117 4.10533,-0.84042 4.10025,-0.84043 7.22254,-1.17659 2.04757,-6.19874 0.53482,-4.48226 0.52971,-4.48224 5.26665,-3.92198 4.10534,1.42617 4.10534,1.43127 6.72845,1.84384 4.6809,-5.24628 2.68935,-3.60617 2.68936,-3.61127 6.60623,-0.0356 2.91344,3.39226 2.91348,3.39223 5.16986,4.16138 6.91692,-3.03572 4.10024,-1.72669 4.10025,-1.72158 5.47039,3.96782 0.87608,4.47206 0.87099,4.47206 3.05098,5.55188 4.03403,0.12224 4.03912,0.12225 4.31415,0.62649 4.31417,0.63158 2.19528,6.65718 -1.42617,4.38037 -1.42616,4.37529 0.80478,6.04593 3.77932,2.01195 3.77936,2.01192 3.24964,2.73009 3.25473,2.73011 -2.13926,7.03407 -3.34132,3.16304 -3.3464,3.16305 -1.31411,5.83201 2.58238,3.68257 2.58748,3.68769 1.23262,3.92197 1.23262,3.91686 -3.02043,2.43468 -3.02042,2.43469 -4.39566,1.20714 -4.39057,1.20715 -3.22416,5.05272 0.61121,4.65032 0.61121,4.64525 -1.0849,3.82011 -1.07983,3.82009 -4.07986,0.3871 -4.08495,0.3871 -4.36511,-0.9321 -4.37019,-0.93719 -4.87955,3.75898 -1.7063,4.52808 -1.70121,4.523 -2.93893,2.46524 -2.93894,2.46524 -3.84048,-1.97116 -3.84555,-1.96608 -3.37698,-2.72501 -3.37698,-2.72501 -6.18855,1.89987 -3.73861,3.22416 -3.7386,3.21908 -7.42627,0.65196 -2.33791,-3.88123 -2.3379,-3.88123 -1.76743,-3.78443 -1.76743,-3.78445 -6.88638,-0.53991 -4.88462,1.00852 -4.88974,1.0085 -6.28534,-3.7386 0.006,-4.71656 0.0102,-4.72164 0.0153,-3.99329 0.0102,-3.99327 -6.60113,-3.38715 -4.75731,-1.54331 -4.75729,-1.54333 -2.84725,-6.69281 2.48562,-4.19702 2.48051,-4.19703 3.14268,-6.91692 -2.51109,-3.10193 -2.51617,-3.10192 -3.31076,-3.69785 -3.31585,-3.69274 1.70123,-7.15634 4.34472,-2.46016 4.34982,-2.45504 5.33287,-4.87445 -1.04926,-4.14609 -1.04417,-4.15118 -0.94737,-4.78784 -0.94739,-4.79296 5.74543,-4.91519 5.068,-0.006 h 5.06799 l 6.46871,-2.41431 0.91684,-4.46697 0.91172,-4.46188 1.64519,-4.47716 1.64009,-4.47715 3.92707,-0.34126 3.92196,-0.34126 4.46188,2.46014 4.46188,2.45505 6.67244,0.0457 2.9695,-3.78445 2.96948,-3.78954 3.6571,-2.83706 3.65202,-2.84215 3.59089,2.06285 3.59092,2.05775 2.74027,4.26323 2.74538,4.26324 6.1682,2.29716 4.57393,-2.1036 4.57901,-2.1087 4.45169,-0.3922 4.4568,-0.39729 1.92532,3.92197 1.93043,3.91687 0.42785,4.97632 0.43294,4.97631 5.07818,4.2938 5.21572,0.27505 5.2157,0.28014 3.78954,2.06285 3.78954,2.06286 -0.55518,4.56885 -0.55009,4.57392 -1.85402,4.51281 -1.84894,4.51281 3.42281,5.97974 4.57902,2.78613 4.57393,2.79121 1.89479,3.71822 1.88968,3.71315 -3.05609,3.75388 -3.06117,3.75389 -3.55015,3.10702 -3.55523,3.10192 1.13075,7.18687 2.70972,4.72675 2.71481,4.72673 -0.59084,4.01874 -0.58575,4.01366 -4.77766,1.67066 -4.77768,1.67064 -4.36511,1.19697 -4.36,1.20207 -0.87608,3.78954 -0.87607,3.78953 0.051,5.48566 0.0559,5.48568 -2.79122,2.86252 -2.79121,2.86253 -5.1495,-1.05944 -5.14442,-1.05434 -4.25304,-0.71818 -4.24796,-0.71309 -2.46522,3.37697 -2.46523,3.37696 -2.67407,4.77258 -2.66897,4.77257 -3.94744,0.65706 -3.94747,0.65196 -4.01872,-3.61126 -4.02385,-3.61127 -3.41769,-2.2564 -3.41774,-2.25131 -3.90158,2.22075 -3.89652,2.22075 -4.66561,2.74027 -4.66562,2.7403 -3.62655,-1.84384 -3.62655,-1.83873 -1.73177,-5.23609 -1.73688,-5.23609 -2.1698,-3.22925 -2.16982,-3.23436 -4.77768,0.37693 -4.78276,0.37691 -5.3023,-0.0457 -5.30739,-0.051 -1.91514,-3.73352 -1.91005,-3.7386 1.04925,-5.47038 1.05434,-5.47039 -1.58916,-7.28366 -4.73183,-1.8693 -4.73691,-1.86931 -4.37531,-2.74028 -4.37528,-2.74027 0.6265,-4.34475 0.62649,-4.33962 3.55524,-4.29888 3.55015,-4.29381 1.03397,-7.17158 -3.56034,-3.99839 -3.56033,-3.99837 -2.15962,-4.50262 -2.16472,-4.50262 3.13248,-3.39733 3.12738,-3.39226 5.11384,-2.08832 5.11385,-2.08324 3.38715,-6.35665 -1.37523,-5.40417 -1.38033,-5.40416 0.6265,-4.78276 0.6214,-4.77767 4.73183,-1.15112 4.73182,-1.15113 5.39399,0.50935 5.39399,0.51444 5.43981,-4.92538 1.35995,-5.59263 1.35997,-5.59263 3.07136,-3.48902 3.07135,-3.48902 4.84389,1.67574 4.84389,1.67575 4.44659,2.82686 4.4466,2.8269 3.55016,-1.42618 3.55013,-1.42617 3.94744,-4.36511 3.94744,-4.36 4.37021,-1.0798 4.37017,-1.07474 3.3719,4.18175 3.37696,4.18681 2.63329,4.33453 2.63844,4.33965 4.0544,-0.0457 4.05439,-0.0457 5.63849,-1.93043 5.63847,-1.93043 4.07985,1.62992 4.07987,1.62482 0.74363,5.55187 0.73857,5.55187 0.48897,4.82353 0.48897,4.8286 4.03912,1.60444 4.03402,1.60954 5.87278,1.09508 5.87277,1.1002 2.31243,3.67749 2.31242,3.68257 -2.26659,5.32267 -2.27168,5.32777 -1.48219,4.3702 -1.4822,4.36509 3.28529,3.31075 3.29036,3.31078 4.50773,3.86083 4.50771,3.86085 -0.32598,4.36 -0.32089,4.36001 -4.74711,3.55525 -4.75221,3.56034 -2.93892,3.23942 -2.93893,3.23945 1.72668,4.69109 1.73178,4.69108 1.88968,5.5315 1.88968,5.52641 -2.89818,3.40245 -2.89819,3.40242 -5.97974,0.75892 -5.97972,0.76402 -3.75898,1.79292 -3.75898,1.7929 -0.48897,5.30229 -0.48897,5.30231 -1.21225,5.58243 -1.21734,5.57736 -4.49752,1.10527 -4.49755,1.10529 -5.63335,-2.24622 -5.63339,-2.25131 -3.98818,0.30052 -3.99328,0.30558 -2.94913,4.79297 -2.94912,4.79805 -3.85574,3.98309 -3.85575,3.97799 -4.523,-1.75724 -4.523,-1.75215 -3.86086,-4.65034 -3.86084,-4.65034 -3.76408,-1.07472 -3.76407,-1.06963 -5.03233,3.07645 -5.03744,3.07646 -5.20553,1.23262 -5.20552,1.23263 -2.90327,-4.20211 -2.90329,-4.20721 -1.20715,-5.83711 -1.21224,-5.83711 -3.18342,-2.28698 -3.18341,-2.28697 -6.11217,0.40747 -6.10706,0.40748 -4.84389,-1.76743 -4.84388,-1.76742 -0.12225,-5.37872 -0.12224,-5.38377 1.57388,-5.60792 1.57898,-5.613 -2.27678,-3.32093 -2.27678,-3.31585 -5.73524,-2.59258 -5.73525,-2.59256 -2.90328,-4.03913 -2.89818,-4.03912 2.92874,-4.8388 2.92875,-4.83879 3.80992,-4.16645 3.80481,-4.16136 -1.0085,-4.10024 -1.0136,-4.10025 -3.85576,-5.11384 -3.86084,-5.11383 -0.051,-4.82352 -0.051,-4.82352 5.26665,-2.69443 5.27173,-2.68936 5.03745,-1.98646 5.03744,-1.98644 0.60612,-4.45679 0.60102,-4.45678 -0.88116,-6.3974 -0.88626,-6.39229 2.725,-3.86595 2.72501,-3.86595 6.12743,0.42787 6.13253,0.42785 5.1495,0.32598 5.1495,0.33108 2.44485,-4.15628 2.44996,-4.15117 2.39395,-5.98483 2.39392,-5.98991 4.45678,-1.49748 4.45679,-1.49749 5.22079,3.58072 5.21572,3.58071 4.33453,2.28186 4.32946,2.28697 4.20721,-3.01023 4.2021,-3.01024 5.02724,-3.93216 5.02724,-3.92706 4.5281,1.45163 4.52301,1.45164 2.80142,5.82693 2.7963,5.82183 2.93385,3.60108 2.92873,3.60617 5.43473,-1.02378 5.42964,-1.02889 6.21402,-0.78947 6.20894,-0.79459 2.87781,3.94744 2.8829,3.94743 -0.42276,6.52473 -0.42275,6.51965 1.30903,4.22757 1.3141,4.22758 5.66904,1.53314 5.66393,1.53312 5.56715,2.49071 5.56717,2.4958 0.0559,5.07818 0.051,5.08329 -3.52469,5.52131 -3.52466,5.52133 -0.26487,4.2683 -0.26485,4.26323 4.61976,4.11555 4.61469,4.11041 3.28528,4.90502 3.28528,4.90501 -2.99496,4.41605 -2.98985,4.41602 -5.67922,3.16304 -5.67922,3.16305 -1.68084,3.86084 -1.68084,3.86085 2.31753,6.02048 2.32262,6.02047 0.0917,5.6894 0.0968,5.68941 -5.20552,2.10868 -5.21062,2.1087 -6.38211,0.14263 -6.3872,0.1477 -2.91347,3.09683 -2.91855,3.09682 -0.77931,6.62153 -0.7793,6.62658 -2.9644,4.6045 -2.96948,4.60959 -5.80148,-1.12565 -5.80143,-1.12057 -5.59775,-2.71482 -5.59261,-2.70973 -3.93215,1.97119 -3.93726,1.97117 -3.91686,5.59261 -3.92197,5.58754 -4.87956,2.03739 -4.88462,2.04247 -4.51792,-4.24285 -4.52299,-4.24285 -3.66221,-4.74712 -3.65709,-4.74711 -4.61979,0.4635 -4.61978,0.46352 -6.21403,3.04589 -6.21403,3.04589 -5.01706,-1.13075 -5.02216,-1.13075 -1.71139,-6.2344 -1.71142,-6.23441 -1.18167,-5.61299 -1.18169,-5.613 -4.7573,-1.38544 -4.7573,-1.39052 -6.9373,-0.39219 -6.93731,-0.3871 -3.3413,-3.80483 -3.34642,-3.80991 1.78781,-6.44324 1.78272,-6.44832 1.22243,-5.31247 1.22244,-5.31759 -4.10534,-3.37697 -4.10534,-3.37697 -5.79127,-3.76916 -5.79127,-3.77427 -0.43805,-5.04253 -0.43804,-5.04764 4.9152,-4.79294 4.91521,-4.79295 3.09173,-4.14098 3.08664,-4.14099 -2.52128,-5.10365 -2.51615,-5.10876 -3.04591,-6.09688 -3.04589,-6.09687 2.67407,-4.39567 2.67917,-4.40074 6.75903,-1.75726 6.75903,-1.75724 4.2174,-2.49579 4.21738,-2.50091 -0.10696,-6.06631 -0.10697,-6.07142 0.51445,-6.64188 0.51444,-6.64696 4.905,-2.05778 4.89992,-2.05775 6.80996,1.77762 6.80997,1.77252 4.62486,-0.74364 4.62996,-0.74875 2.71991,-5.81672 2.72501,-5.82184 3.80991,-5.23099 3.80992,-5.23099 5.41435,1.19696 5.41946,1.19697 5.11383,4.81842 5.11383,4.81332 4.46189,0.89135 4.46697,0.89137 5.30229,-4.16137 5.30229,-4.16136 5.81167,-2.29716 5.81164,-2.30223 3.98818,4.25812 3.9882,4.25305 2.21056,6.58077 2.21057,6.58075 3.86593,2.3379 3.87104,2.3379 6.88636,-1.29883 6.88637,-1.30393 5.89314,1.21225 5.89824,1.20716 1.02378,6.05103 1.01869,6.05614 -1.05944,6.70809 -1.06453,6.7081 2.90327,3.57561 2.89819,3.57561 6.89147,2.14435 6.88635,2.14435 4.0544,4.14098 4.05441,4.141 -2.53655,5.93388 -2.53145,5.9339 -3.86593,5.33285 -3.86596,5.32777 1.54333,4.54336 1.53821,4.54338 5.12403,5.27683 5.12912,5.27683 0.92701,5.52642 0.92701,5.52641 -5.5315,3.86594 -5.53149,3.86595 -5.59774,2.95421 -5.6028,2.94911 -0.22411,5.0782 -0.22413,5.08326 1.94062,7.16652 1.9457,7.16651 -2.4092,4.91518 -2.40413,4.9101 -7.0035,0.45333 -6.99843,0.45841 -6.03067,0.24958 -6.03575,0.24959 -2.29205,4.93047 -2.29716,4.93048 -1.83875,7.19197 -1.84383,7.19706 -4.78787,2.51619 -4.78784,2.52125 -6.45854,-3.27508 -6.4534,-3.2751 -5.3023,-2.14946 -5.30741,-2.15453 -4.37019,3.85575 -4.3702,3.86085 -5.14948,5.26156 -5.1495,5.25644 -5.3787,-0.81495 -5.37869,-0.81495 -4.03913,-6.20384 -4.03402,-6.19876 -3.80483,-3.86595 -3.79972,-3.86594 -5.96444,1.8031 -5.96955,1.80308 -6.98315,1.8744 -6.98824,1.8693 -3.94742,-3.91688 -3.94745,-3.92197 -0.4635,-7.48738 -0.46351,-7.48231 -1.95079,-4.76749 -1.95589,-4.76747 -6.5502,-1.00341 -6.5502,-1.00852 -6.76922,-1.96607 -6.76921,-1.96608 -0.95248,-5.68941 -0.95248,-5.6843 3.23435,-6.79979 3.23434,-6.79469 -0.10697,-4.94575 -0.10696,-4.94574 -5.71485,-4.01875 -5.71997,-4.01876 -4.55866,-5.08328 -4.56374,-5.07817 2.59257,-5.45003 2.58748,-5.45 6.05104,-4.40585 6.04595,-4.40585 1.57388,-4.57392 1.57389,-4.57394 -3.41773,-6.45851 -3.41261,-6.45852 -1.05945,-6.49926 -1.05944,-6.49418 5.4653,-3.21906 5.47036,-3.21908 7.28878,-1.03907 7.29383,-1.04415 3.0306,-3.77936 3.03063,-3.77935 -0.0306,-7.56379 -0.0306,-7.56381 2.59766,-5.77599 2.59768,-5.77599 6.66734,0.32088 6.66735,0.32089 6.77941,2.36337 6.7794,2.36847 4.24796,-2.58748 4.24794,-2.59258 1.81837,-3.4228 1.81836,-3.42792 1.81837,-3.4228 1.81837,-3.4279 5.20552,-3.18343 5.20553,-3.1834 5.72505,4.02892 5.72506,4.03402 4.82352,4.98651 4.81843,4.98651 5.12402,-0.97285 5.12912,-0.97286 3.29037,-2.16473 3.29039,-2.16471 3.29038,-2.16473 3.29036,-2.15963 5.90334,0.37691 5.90333,0.38201 2.87271,6.7183 2.87782,6.71828 2.06284,6.3159 2.05777,6.31589 5.45002,1.04926 5.44491,1.05434 3.95253,-0.28523 3.95252,-0.28523 3.94744,-0.28524 3.95253,-0.28523 4.47207,3.69277 4.46697,3.68767 -1.02889,7.50267 -1.03397,7.50267 -0.76911,6.27006 -0.77421,6.27006 4.93558,3.30566 4.94065,3.30567 3.56034,1.70121 3.56032,1.70122 3.56035,1.70632 3.56033,1.70121 1.41089,5.59263 1.41089,5.58753 -2.40922,3.06118 -2.40919,3.05608 -2.40922,3.05608 -2.40921,3.05607 -3.08665,5.12404 -3.09173,5.12403 3.39225,5.37868 3.39226,5.38379 2.19019,3.22417 2.19017,3.22417 2.19529,3.22417 2.1902,3.21906 -2.20038,5.40417 -2.20037,5.39908 -3.68259,1.48221 -3.67746,1.47711 -3.67751,1.48217 -3.68256,1.48221 -4.58411,3.32093 -4.58924,3.32604 0.8557,6.73356 0.8557,6.73355 0.45333,7.61985 0.45332,7.61984 -5.09346,3.15284 -5.09347,3.15794 -3.97292,-0.51443 -3.96779,-0.51444 -3.96782,-0.51954 -3.97291,-0.51443 -5.23099,1.31411 -5.23607,1.31922 -2.29207,6.81505 -2.29715,6.82016 -3.48903,6.5451 -3.48903,6.5502 -6.22421,-0.3973 -6.21913,-0.3922 -3.22926,-2.36845 -3.22924,-2.36338 -3.22926,-2.36337 -3.22927,-2.36336 -5.17495,-0.60103 -5.17496,-0.60103 -5.36343,5.32776 -5.36851,5.32266 -6.21913,3.56545 -6.2242,3.56033 -5.12914,-4.04931 -5.1342,-4.04931 -1.70632,-3.5756 -1.70121,-3.57563 -1.70631,-3.5756 -1.70632,-3.58071 -4.58921,-2.29715 -4.58922,-2.29206 -3.75389,1.18168 -3.75388,1.18676 -3.75388,1.1868 -3.75388,1.18168 -6.89147,-0.3769 -6.89145,-0.37694 -2.1189,-6.5451 -2.11888,-6.54002 0.15282,-3.88122 0.1528,-3.88121 0.15281,-3.88122 0.1528,-3.88124 -3.58071,-3.75387 -3.58072,-3.7488 -3.99836,-0.72836 -3.99328,-0.72329 -3.99328,-0.72835 -3.99329,-0.72836 -5.30738,-3.98819 -5.30738,-3.9882 1.86928,-6.97804 1.86422,-6.98315 3.70295,-6.57566 3.70295,-6.57565 -2.14434,-4.91519 -2.14435,-4.9203 -3.23436,-2.59259 -3.23944,-2.59257 -3.23436,-2.59256 -3.23945,-2.59258 -2.0221,-6.07651 -2.02718,-6.07141 5.54168,-5.1495 5.54167,-5.1495 6.01031,-4.07986 6.01028,-4.07987 -0.25466,-5.64865 -0.25468,-5.65375 -1.59934,-3.87613 -1.60444,-3.88121 -1.59935,-3.87614 -1.59935,-3.87613 1.82345,-5.95426 1.81836,-5.95935 3.86087,-0.7793 3.85575,-0.7844 3.85575,-0.78439 3.86083,-0.78439 6.85583,-1.02379 6.8609,-1.01869 2.01193,-5.6894 2.01701,-5.68941 0.50424,-4.17154 0.50933,-4.17156 0.50937,-4.17664 0.50935,-4.17155 4.89991,-3.68259 4.89992,-3.68765 3.84047,1.34466 3.83537,1.34468 3.83539,1.33959 3.84047,1.34468 6.31589,1.84382 6.3159,1.84383 4.39057,-4.742 4.38548,-4.74712 2.50089,-3.34131 2.50089,-3.33622 2.50598,-3.34132 2.5009,-3.34131 6.13255,-0.0612 6.13251,-0.0661 2.70465,3.16813 2.70461,3.16305 2.70465,3.16812 2.70463,3.16814 4.77258,3.99837 4.77257,3.99836 6.36682,-2.68933 6.36685,-2.68936 3.78953,-1.58407 3.78446,-1.58408 3.78953,-1.58914 3.78955,-1.58407 5.06801,3.63672 5.06799,3.63674 0.79458,4.15118 0.79457,4.15118 0.79458,4.15627 0.79968,4.15116 2.7199,5.23609 2.71993,5.2361 7.34987,0.3056 7.34986,0.31069 3.96782,0.58067 3.9678,0.58065 3.96783,0.58065 3.96271,0.57556 2.04249,6.10707 2.04246,6.11217 -1.33449,4.03402 -1.33449,4.03401 -1.33449,4.03914 -1.33448,4.03402 0.59593,5.61299 0.60103,5.60791 3.41262,1.85402 3.41263,1.85912 3.41262,1.85912 3.41263,1.85401 2.97458,2.5009 2.97459,2.4958 2.97967,2.4958 2.97459,2.50089 -1.92533,6.43814 -1.93042,6.43814 -3.09174,2.89309 -3.09173,2.888 -3.09174,2.89309 -3.09174,2.89309 -1.35485,5.3074 -1.35996,5.30739 2.31243,3.35149 2.30735,3.34642 2.31245,3.35149 2.30732,3.35152 2.2615,7.14103 2.26659,7.14613 -5.48567,4.4415 -5.48566,4.4415 -4.02894,1.07983 -4.03401,1.0798 -4.03403,1.07981 -4.03402,1.07983 -3.05609,4.50262 -3.05608,4.50771 0.52464,4.18684 0.51952,4.18683 0.52464,4.18683 0.52461,4.19192 -1.95078,6.93731 -1.94572,6.9373 -7.38551,0.71819 -7.38553,0.71816 -3.97801,-0.88626 -3.98309,-0.88626 -3.98308,-0.88627 -3.97801,-0.88627 -4.48733,3.26493 -4.48225,3.25981 -1.54843,4.0544 -1.5484,4.0493 -1.54843,4.04932 -1.54841,4.05441 -5.2972,4.47714 -5.29211,4.47716 -3.46357,-1.77253 -3.46864,-1.77252 -3.46866,-1.77253 -3.46354,-1.77252 -3.05098,-2.50601 -3.0459,-2.51106 -3.04591,-2.50601 -3.04589,-2.50598 -5.56716,1.55862 -5.56206,1.56369 -3.35658,2.86254 -3.35661,2.86761 -3.3515,2.86762 -3.3566,2.86762 -6.67243,0.61632 -6.67755,0.61629 -2.0985,-3.48392 -2.09342,-3.48393 -2.0985,-3.48393 -2.09851,-3.48393 -3.1223,-6.89656 -3.12228,-6.89655 -6.09689,-0.60612 -6.09179,-0.60613 -4.35491,0.88627 -4.36001,0.88117 -4.36,0.88115 -4.35492,0.88628 -5.64357,-3.31075 -5.64355,-3.31076 0.0102,-4.22248 0.0102,-4.2174 0.006,-4.22247 0.0102,-4.21739 0.12734,-7.20727 0.12224,-7.20726 -5.76579,-3.09172 -5.76582,-3.09173 -4.21738,-1.38033 -4.22249,-1.37524 -4.21739,-1.38031 -4.21738,-1.38035 -2.57221,-5.94408 -2.5722,-5.93898 2.21565,-3.73861 2.21567,-3.7335 2.21565,-3.73861 2.22075,-3.73351 2.92876,-6.16819 2.92365,-6.16819 -4.32437,-5.51112 -4.32944,-5.50604 -2.92366,-3.27511 -2.92872,-3.27509 -2.92875,-3.27001 -2.92877,-3.2751 1.46184,-6.34646 1.46183,-6.35155 3.86593,-2.16981 3.86595,-2.16983 3.86594,-2.17491 3.86593,-2.16981 4.84898,-4.26323 4.85408,-4.25814 -1.73686,-7.27857 -1.73687,-7.27346 -0.83535,-4.22249 -0.83531,-4.22757 -0.83533,-4.2225 -0.83534,-4.22756 5.03745,-4.36002 5.03744,-4.36 4.48733,0.0102 4.48226,0.0102 4.48734,0.0102 4.48226,0.0153 5.79127,-2.01701 5.79127,-2.01192 0.83533,-3.87614 0.84043,-3.88122 0.83533,-3.87612 0.8404,-3.88123 1.44146,-3.93725 1.43635,-3.93726 1.44147,-3.93724 1.44145,-3.93216 6.87617,-0.63668 6.87619,-0.63159 3.92706,2.18509 3.92706,2.1851 3.92197,2.18509 3.92706,2.18511 5.88294,0.18846 5.88296,0.18845 2.60787,-3.26491 2.60786,-3.2649 2.60276,-3.26493 2.60784,-3.2649 3.19871,-2.4958 3.1936,-2.49071 3.19869,-2.49579 3.19361,-2.49581 6.28535,3.57052 6.28022,3.57053 2.39396,3.75897 2.39392,3.75899 2.38882,3.76406 2.39393,3.75898 5.33795,2.15454 5.34305,2.15453 3.97291,-1.7929 3.96781,-1.79799 3.97291,-1.7929 3.9729,-1.7929 3.88632,-0.35654 3.8863,-0.35654 3.88633,-0.35655 3.88631,-0.35654 3.37697,6.79978 3.37696,6.79978 0.34636,4.3651 0.34635,4.3651 0.35146,4.3651 0.34634,4.36511 4.30908,3.84046 4.30398,3.84048 4.49755,0.26486 4.49752,0.26486 4.49753,0.26485 4.49752,0.26486 6.60624,3.55525 6.60112,3.56033 -0.46858,3.95762 -0.46861,3.96272 -0.46861,3.96272 -0.46859,3.96272 -1.65028,3.92706 -1.64519,3.93217 -1.65028,3.92705 -1.64519,3.93215 2.81159,5.21572 2.81159,5.2208 3.93215,2.4143 3.92707,2.41431 3.92706,2.41939 3.92706,2.4143 3.31075,6.41777 3.31077,6.42287 -2.63334,3.24453 -2.6384,3.24455 -2.63332,3.23943 -2.63843,3.24455 -3.11719,2.67406 -3.12228,2.67408 -3.1223,2.67407 -3.11722,2.67406 0.82515,6.158 0.83023,6.16311 2.31243,4.06458 2.31244,4.05949 2.31244,4.0595 2.31242,4.06458 -0.96775,6.93221 -0.96776,6.93731 -4.11042,1.43635 -4.11044,1.44145 -4.10532,1.44144 -4.11043,1.43638 -3.79972,0.99831 -3.80483,0.99324 -3.79973,0.9983 -3.79972,0.99323 -1.60955,6.41266 -1.61462,6.40759 0.0356,4.69618 0.0356,4.69109 0.0356,4.69108 0.0356,4.69619 -4.7573,4.94574 -4.75729,4.95085 -4.41095,-0.90664 -4.41094,-0.91172 -4.41095,-0.90665 -4.41093,-0.91172 -7.34478,-1.33959 -7.33969,-1.33958 -4.25813,5.64357 -4.25814,5.64356 -2.28697,4.06967 -2.28697,4.06969 -2.28696,4.06966 -2.28187,4.0697 -6.73357,1.17148 -6.72847,1.16642 -3.43809,-3.09174 -3.43301,-3.09173 -3.43808,-3.09683 -3.433,-3.09172 -5.82692,-3.9831 -5.82691,-3.98308 -6.62152,3.6571 -6.62151,3.65711 -3.9678,2.3277 -3.96783,2.32771 -3.96779,2.32772 -3.97291,2.32772 -6.18348,-3.08156 -6.18856,-3.08153 -1.47201,-4.46697 -1.46691,-4.46698 -1.46691,-4.46696 -1.47202,-4.4619 -3.61128,-5.61809 -3.61126,-5.61809 -4.01874,0.27504 -4.01874,0.26996 -4.02386,0.26994 -4.01874,0.26996 -4.49754,-0.0356 -4.49752,-0.0355 -4.50263,-0.0356 -4.49752,-0.0355 -3.28019,-6.30062 -3.28529,-6.30571 0.91172,-4.64525 0.90664,-4.65033 0.91173,-4.65034 0.91173,-4.64523 -1.21733,-6.24459 -1.21735,-6.2395 -3.95253,-1.59936 -3.94743,-1.60444 -3.95253,-1.59935 -3.95253,-1.59935 -3.70294,-2.31242 -3.70296,-2.31244 -3.70804,-2.31244 -3.70296,-2.31242 1.00851,-7.32442 1.0085,-7.3193 3.03063,-3.63164 3.0255,-3.63164 3.03063,-3.62656 3.03061,-3.63164 1.02378,-6.05103 1.02889,-6.05104 -2.94912,-3.3617 -2.95421,-3.36168 -2.94912,-3.36169 -2.94912,-3.36168 -1.83873,-3.79464 -1.83366,-3.78954 -1.83363,-3.79463 -1.83366,-3.79463 2.61294,-2.85745 2.60786,-2.86251 2.61295,-2.86255 2.61295,-2.86251 4.33453,-1.74196 4.33455,-1.74197 4.33964,-1.74196 4.33454,-1.74706 2.98476,-5.26156 2.98478,-5.26664 -1.12057,-4.51282 -1.12565,-4.51282 -1.12056,-4.51279 -1.12566,-4.51282 0.50934,-4.01876 0.50935,-4.01873 0.50426,-4.01875 0.50935,-4.01874 3.95252,-0.97796 3.95253,-0.97794 3.95253,-0.98305 3.95254,-0.97794 4.54846,0.46351 4.54846,0.45841 4.55357,0.46351 4.54845,0.4635 4.64015,-3.99326 4.63505,-3.98819 1.15623,-4.64525 1.15112,-4.65033 1.15113,-4.64525 1.15112,-4.65032 2.55692,-2.93385 2.55692,-2.93383 2.55692,-2.93893 2.55692,-2.93384 4.04421,1.38544 4.04421,1.39051 4.03913,1.38542 4.04421,1.38541 3.72331,2.40921 3.72334,2.40412 3.72332,2.40921 3.72841,2.40922 5.9288,-2.22586 5.9339,-2.22075 3.28528,-3.61127 3.29037,-3.60617 3.28529,-3.61126 3.29039,-3.60618 7.27854,-1.84893 7.27857,-1.84382 2.81669,3.47374 2.81161,3.47373 2.81159,3.47375 2.8116,3.47375 2.17491,3.66221 2.18,3.66218 2.17491,3.66221 2.17491,3.66221 6.68263,0.0612 6.67753,0.0559 4.6707,-1.58406 4.67071,-1.58406 4.66563,-1.58407 4.6707,-1.58408 6.80486,2.64862 6.8049,2.64859 0.61629,4.60451 0.6214,4.60448 0.61632,4.5994 0.61631,4.60449 0.36164,4.04422 0.36162,4.04931 0.36164,4.04421 0.36164,4.04421 6.57057,2.74538 6.57567,2.75048 4.84388,0.91172 4.84898,0.91173 4.84389,0.91173 4.84899,0.91683 3.87612,6.05613 3.88121,6.06122 -1.87438,4.40585 -1.8795,4.40584 -1.87948,4.40586 -1.8744,4.40585 -1.28864,3.62654 -1.29374,3.62655 -1.28865,3.62654 -1.28865,3.62656 5.29212,5.48566 5.29211,5.48058 3.71314,3.18341 3.70804,3.18342 3.71314,3.17833 3.70805,3.18341 -0.46352,7.18688 -0.46859,7.18689 -3.92197,2.92875 -3.92199,2.93383 -3.92707,2.92874 -3.92196,2.93383 -4.98139,5.30231 -4.97633,5.30739 1.35997,3.83537 1.36504,3.83539 1.35996,3.83537 1.36506,3.83538 1.5535,4.54338 1.55858,4.54337 1.55351,4.54337 1.55861,4.54339 -4.70637,5.61808 -4.71144,5.6181 -4.9254,0.62139 -4.92027,0.61631 -4.92541,0.62143 -4.92536,0.61629 -6.28026,2.84215 -6.28022,2.83706 -0.43804,4.30399 -0.43804,4.30398 -0.43804,4.30398 -0.44314,4.30397 -0.98814,4.57394 -0.98304,4.57902 -0.98813,4.57393 -0.98812,4.57903 -7.33459,1.85912 -7.3397,1.86422 -4.61977,-1.86422 -4.62488,-1.85912 -4.61976,-1.86421 -4.62487,-1.85912 -6.57567,0.34636 -6.57566,0.34637 -2.4194,3.87104 -2.41938,3.86594 -2.41941,3.87103 -2.41941,3.86594 -3.14774,3.2649 -3.14268,3.26491 -3.14268,3.26492 -3.14266,3.25981 -3.69277,-1.4007 -3.69276,-1.40579 -3.69275,-1.40579 -3.68767,-1.4058 -3.15288,-3.82519 -3.14775,-3.82011 -3.14776,-3.82519 -3.15284,-3.8252 -6.10707,-1.90496 -6.11217,-1.90495 -4.08495,2.46016 -4.09006,2.46523 -4.08496,2.46014 -4.08498,2.46014 -4.24284,1.0238 -4.24286,1.02887 -4.24287,1.02379 -4.24285,1.02377 -2.37356,-3.39734 -2.37355,-3.40242 -2.36846,-3.39735 -2.37355,-3.39734 -0.96777,-4.78278 -0.96776,-4.78274 -0.96266,-4.77769 -0.96775,-4.78276 -5.07309,-3.84046 -5.0782,-3.84048 -4.93048,0.3056 -4.93048,0.30561 -4.93046,0.3056 -4.93557,0.30562 -3.94235,-1.416 -3.94743,-1.41598 -3.94744,-1.41599 -3.94743,-1.41598 -0.11716,-4.35491 -0.11715,-4.35491 -0.11715,-4.34981 -0.11715,-4.35492 1.31412,-4.57393 1.31921,-4.56885 1.31411,-4.56884 1.31922,-4.57392 -3.54506,-5.43983 -3.53997,-5.43983 -4.60958,-2.1036 -4.60959,-2.10359 -4.60958,-2.10361 -4.6147,-2.10359 -2.37354,-3.25984 -2.37357,-3.2598 -2.37355,-3.25983 -2.37864,-3.25982 2.35317,-3.91178 2.35319,-3.91177 2.35317,-3.9118 2.35319,-3.91177 3.12739,-3.36679 3.12739,-3.36678 3.13248,-3.36169 3.12739,-3.36678 -1.4771,-6.60622 -1.4822,-6.60113 -3.08665,-4.12062 -3.09173,-4.12061 -3.08664,-4.11552 -3.09174,-4.12062 -0.0714,-3.89651 -0.0714,-3.89649 -0.0763,-3.89651 -0.0714,-3.90159 4.23777,-2.17492 4.23774,-2.17492 4.23269,-2.1749 4.23776,-2.1749 4.11043,-1.57388 4.11042,-1.57388 4.11043,-1.57389 4.11044,-1.57388 1.09508,-7.08502 1.10019,-7.08502 -0.6978,-5.13421 -0.7029,-5.12911 -0.7029,-5.13421 -0.6978,-5.13422 4.32944,-6.25987 4.32944,-6.25988 4.9254,0.34127 4.92029,0.33617 4.92537,0.34127 4.92028,0.33614 4.17666,0.31582 4.17154,0.32088 4.17156,0.3158 4.17154,0.31579 1.99665,-3.27 1.99663,-3.26492 1.99156,-3.27 1.99663,-3.26492 1.92024,-4.79295 1.92024,-4.79294 1.92023,-4.79295 1.92023,-4.79296 7.12067,-2.47032 7.12576,-2.46525 4.18175,2.86761 4.18173,2.87274 4.18683,2.8676 4.18175,2.86763 3.47372,1.89988 3.47375,1.89985 3.47376,1.89985 3.47373,1.89477 3.36167,-2.33789 3.36172,-2.34299 3.36167,-2.33791 3.35661,-2.34299 4.01873,-3.14266 4.01364,-3.14268 4.01877,-3.14266 4.01364,-3.1427 7.25309,2.25133 7.248,2.25642 2.23095,4.6605 2.23603,4.66053 2.23603,4.66052 2.23095,4.66563 4.61976,5.88294 4.61978,5.88805 4.29889,-0.76402 4.29888,-0.76402 4.30398,-0.76402 4.29888,-0.76401 4.95086,-0.63668 4.95595,-0.6418 4.95084,-0.63668 4.95594,-0.63668 2.31752,3.11721 2.31754,3.1172 2.31753,3.11719 2.31243,3.11212 -0.34636,5.21061 -0.34635,5.21062 -0.34635,5.20553 -0.35145,5.21061 1.96608,6.82526 1.97115,6.82015 4.4568,1.24789 4.45677,1.2428 4.45679,1.2479 4.45679,1.2479 4.43641,1.97116 4.4364,1.97118 4.43641,1.97119 4.43133,1.97626 0.0763,4.02384 0.0763,4.02892 0.0763,4.02383 0.0714,4.02895 -2.82178,4.39057 -2.82178,4.39057 -2.82688,4.39565 -2.82178,4.39058 -0.57556,6.79467 -0.57556,6.79469 3.61126,3.26491 3.61127,3.25982 3.61128,3.25982 3.61127,3.25982 2.61804,3.88631 2.62312,3.88632 2.62314,3.88631 2.62313,3.88633 -2.33791,3.50429 -2.33789,3.50431 -2.33789,3.5043 -2.3379,3.50432 -4.52809,2.49579 -4.53319,2.4958 -4.5281,2.49579 -4.52808,2.5009 -2.8167,6.05104 -2.81159,6.05613 1.798,4.73693 1.79799,4.74202 1.798,4.73691 1.79798,4.74203 0.0968,4.50771 0.0968,4.50772 0.0968,4.50772 0.0968,4.50772 -4.09006,1.68083 -4.09514,1.68594 -4.09005,1.68084 -4.09005,1.68087 -5.0731,0.0917 -5.07309,0.0865 -5.0731,0.0918 -5.07309,0.0917 -4.70636,4.76239 -4.71147,4.76238 -0.63158,5.19024 -0.63159,5.19535 -0.63159,5.19025 -0.63159,5.19024 -2.32263,3.65711 -2.31752,3.65709 -2.32262,3.65712 -2.32262,3.65711 -4.55865,-0.86589 -4.56376,-0.8608 -4.56373,-0.86588 -4.56376,-0.86589 -4.42112,-2.18 -4.42114,-2.18001 -4.42113,-2.18 -4.42113,-2.18001 -6.2242,2.94913 -6.22422,2.9491 -3.08155,4.3651 -3.08154,4.3702 -3.08665,4.3651 -3.08154,4.3651 -3.83539,1.64009 -3.83029,1.63501 -3.83536,1.63501 -3.8354,1.64008 -3.55523,-3.31584 -3.55525,-3.31583 -3.55523,-3.31587 -3.55523,-3.31074 -2.86254,-3.78445 -2.86763,-3.78445 -2.86252,-3.77935 -2.86762,-3.78444 -7.20217,0.57555 -7.20726,0.58068 -4.85916,2.37353 -4.86426,2.36847 -4.86426,2.37355 -4.85916,2.37356 -3.95254,-0.8557 -3.94744,-0.8506 -3.95253,-0.85571 -3.95252,-0.85062 -1.34468,-4.87445 -1.34977,-4.87443 -1.34977,-4.87445 -1.34467,-4.87955 -0.89135,-4.44151 -0.88627,-4.44148 -0.88627,-4.44661 -0.89136,-4.44149 -3.66728,-1.14095 -3.66731,-1.13584 -3.6673,-1.14093 -3.67238,-1.14095 -5.41435,-0.31069 -5.41437,-0.30562 -5.41435,-0.31071 -5.41434,-0.31067 -2.64353,-2.95423 -2.64859,-2.94911 -2.6435,-2.95422 -2.64352,-2.94912 1.39052,-5.03744 1.39052,-5.03743 1.39052,-5.03744 1.39051,-5.03743 1.01359,-4.17665 1.0136,-4.17664 1.01361,-4.17665 1.01868,-4.17664 -3.13757,-2.65369 -3.13248,-2.6537 -3.1325,-2.6537 -3.13246,-2.65879 -4.51281,-2.93383 -4.51792,-2.93893 -4.5128,-2.93892 -4.51281,-2.93893 -0.38201,-3.93217 -0.38201,-3.92707 -0.382,-3.93215 -0.38203,-3.92707 3.8354,-3.73861 3.83027,-3.7386 3.83539,-3.73351 3.83537,-3.7386 2.47543,-3.21907 2.48052,-3.21398 2.47543,-3.21907 2.48051,-3.21907 -1.89986,-3.95763 -1.89477,-3.95761 -1.89478,-3.95763 -1.89985,-3.96272 -2.37356,-4.73691 -2.37355,-4.74203 -2.37357,-4.74201 -2.37865,-4.73694 2.04758,-3.43809 2.04248,-3.4381 2.04757,-3.43299 2.04757,-3.43809 5.26157,-1.35995 5.26663,-1.36506 5.26157,-1.35994 5.26154,-1.36506 3.34132,-1.89476 3.33621,-1.89476 3.34133,-1.89987 3.3362,-1.89478 -0.0356,-4.67069 -0.0408,-4.67072 -0.0356,-4.67071 -0.0408,-4.67071 0.38711,-5.15967 0.3871,-5.16478 0.3922,-5.15969 0.38711,-5.16476 3.77934,-1.62483 3.77426,-1.62482 3.77936,-1.62991 3.77936,-1.62481 5.28701,1.39051 5.29212,1.39053 5.29211,1.39051 5.29212,1.39561 7.2378,-1.0187 7.24292,-1.01359 2.12397,-4.45168 2.12397,-4.4568 2.12398,-4.45168 2.12907,-4.45169 2.93892,-4.0697 2.93893,-4.06457 2.93894,-4.06968 2.94404,-4.0646 4.18172,0.89137 4.18683,0.88627 4.18682,0.89135 4.18684,0.89136 3.95761,3.74879 3.95763,3.74878 3.95763,3.7488 3.95252,3.7539 6.89657,1.5382 6.89146,1.54332 4.08496,-3.16813 4.09006,-3.16815 4.08496,-3.16303 4.08495,-3.16814 4.49243,-1.80309 4.48734,-1.79799 4.49245,-1.80307 4.48734,-1.79801 3.08663,3.24964 3.08665,3.25473 3.09173,3.25473 3.08666,3.24962 1.69103,5.10874 1.69103,5.10367 1.69103,5.10874 1.69611,5.10364 5.87787,3.74882 5.87786,3.74368 5.28193,-0.96775 5.27682,-0.97285 5.27684,-0.97287 5.27683,-0.96775 4.55865,0.90155 4.55865,0.90664 4.55865,0.90663 4.55866,0.90664 0.80986,4.64015 0.80986,4.64015 0.80986,4.64016 0.80987,4.64012 -0.85062,5.18516 -0.8506,5.19025 -0.85061,5.19024 -0.8557,5.18515 4.31924,5.58244 4.31928,5.57733 5.26155,1.66048 5.26664,1.66047 5.26155,1.65537 5.26156,1.66048 3.14774,3.16813 3.14777,3.16305 3.14268,3.16814 3.14775,3.16812 -1.92023,4.54848 -1.92022,4.55357 -1.92025,4.54845 -1.92023,4.55356 -3.02043,4.10024 -3.01533,4.10023 -3.01534,4.10026 -3.02042,4.09515 2.20547,6.97294 2.20038,6.97296 3.90669,4.03912 3.90666,4.03913 3.90162,4.03912 3.90668,4.03402 0.74875,4.24285 0.75385,4.23777 0.74873,4.23776 0.74872,4.24287 -4.21739,2.96437 -4.22247,2.96951 -4.21741,2.96949 -4.22247,2.96949 -4.33964,2.23603 -4.33962,2.24112 -4.33964,2.24114 -4.33963,2.24112 -0.24449,3.85066 -0.23939,3.84556 -0.24449,3.85067 -0.2394,3.85066 1.47201,5.4704 1.47712,5.47036 1.47201,5.46529 1.47201,5.4704 -1.80309,3.77935 -1.8031,3.77933 -1.80307,3.78446 -1.80819,3.77936 -5.34303,0.35653 -5.34306,0.35655 -5.34305,0.35654 -5.33795,0.35655 -4.65033,0.14261 -4.65033,0.14262 -4.64525,0.14262 -4.65034,0.14261 -1.7929,3.69785 -1.7929,3.69786 -1.7929,3.70296 -1.7929,3.69786 -1.4058,5.48056 -1.4007,5.48058 -1.40579,5.48056 -1.40581,5.48058 -3.63164,1.96098 -3.63672,1.96608 -3.63165,1.96099 -3.63164,1.96098 -4.92029,-2.4958 -4.92029,-2.49071 -4.9203,-2.4907 -4.92028,-2.4907 -4.05948,-1.70632 -4.05442,-1.7114 -4.05948,-1.70631 -4.0544,-1.71142 -3.33113,2.86763 -3.33622,2.86762 -3.33113,2.86762 -3.33113,2.86763 -3.91688,4.00346 -3.91177,4.00346 -3.91687,4.00346 -3.9169,4.00348 -4.09514,-0.57557 -4.09513,-0.57556 -4.09515,-0.57556 -4.10024,-0.57557 -3.07137,-4.72163 -3.06628,-4.71655 -3.07134,-4.72164 -3.07137,-4.72166 -2.86761,-3.01023 -2.86763,-3.01024 -2.86762,-3.01024 -2.86763,-3.01025 -4.50773,1.30902 -4.5026,1.31412 -4.50772,1.30902 -4.50263,1.30902 -5.3074,1.43128 -5.3023,1.43126 -5.30738,1.43636 -5.3023,1.43125 -3.02044,-2.93892 -3.02041,-2.93892 -3.02043,-2.93894 -3.02043,-2.93892 -0.34125,-5.68942 -0.34637,-5.6894 -0.34635,-5.68431 -0.34635,-5.68939 -1.42617,-3.67241 -1.42619,-3.66729 -1.42616,-3.67238 -1.42617,-3.6673 -4.9152,-0.79966 -4.9152,-0.79969 -4.91517,-0.79457 -4.91521,-0.79969 -5.13931,-1.4771 -5.1393,-1.4771 -5.1444,-1.47709 -5.13932,-1.47712 -0.75893,-4.28871 -0.75891,-4.2836 -0.75893,-4.2887 -0.75894,-4.2887 2.46525,-5.14949 2.46524,-5.15459 2.46523,-5.15459 2.46524,-5.15459 v -7.52305 -7.52814 l -4.26833,-3.04591 -4.27341,-3.04588 -4.26833,-3.04079 -4.27342,-3.04591 -3.46866,-3.83536 -3.47374,-3.8354 -3.46865,-3.83538 -3.473747,-3.83537 1.915147,-4.11553 1.92023,-4.12061 1.92024,-4.12062 1.91514,-4.11551 4.59432,-3.32603 4.5994,-3.32604 4.5943,-3.32093 4.59431,-3.32605 2.53655,-6.866 2.53654,-6.86599 -2.53144,-4.85408 -2.53146,-4.85917 -2.53653,-4.85407 -2.53148,-4.85407 -0.83023,-4.90501 -0.83023,-4.9101 -0.83023,-4.9101 -0.82515,-4.91011 4.09006,-2.43975 4.09006,-2.44487 4.09004,-2.44487 4.09516,-2.44485 5.52131,-0.76402 5.52642,-0.76402 5.5213,-0.76403 5.52642,-0.76401 4.69108,-5.57737 4.68599,-5.58243 0.005,-5.66393 v -5.65884 -5.66393 -5.66393 l 1.93041,-4.3753 1.92535,-4.3702 1.93041,-4.37529 1.93042,-4.37528 4.9967,0.21393 5.00178,0.21393 5.00178,0.21393 4.9967,0.21392 5.11893,1.81835 5.11894,1.81838 5.11383,1.81838 5.11893,1.82343 6.43815,-3.73349 6.43305,-3.72843 2.7352,-5.11893 2.73518,-5.11383 2.7352,-5.11894 2.73519,-5.11384 3.90161,-2.42959 3.89648,-2.43467 3.90161,-2.429592 3.89649,-2.42958 4.29889,3.000052 4.2938,3.00006 4.29887,3.00004 4.2938,3.00006 3.61637,3.79463 3.61635,3.78955 3.61635,3.79462 3.61127,3.78954 3.8303,-0.64688 3.83029,-0.64686 3.82519,-0.64686 3.83029,-0.64689 4.92028,-3.22415 4.9254,-3.22417 4.92027,-3.22416 4.92029,-3.22926 4.43641,0.24448 4.4364,0.2445 4.43643,0.23938 4.43131,0.24449 2.16473,5.01708 2.1647,5.01196 2.15964,5.01707 2.16474,5.01197 1.51275,4.77765 1.51277,4.7777 1.50766,4.77766 1.51275,4.78276 4.02893,0.84552 4.02386,0.85061 4.02383,0.85062 4.02383,0.85059 5.89823,-0.42275 5.89824,-0.42274 5.89825,-0.42278 5.89822,-0.42275 3.37188,2.73009 3.37697,2.725 3.37697,2.72501 3.37696,2.7301 -0.76402,5.59771 -0.75892,5.60284 -0.76402,5.59771 -0.75892,5.60281 -0.63669,4.71655 -0.63161,4.71655 -0.63666,4.71655 -0.63159,4.71654 3.61635,2.49581 3.61127,2.49071 3.61636,2.49579 3.61639,2.49579 5.30736,2.53656 5.3125,2.54163 5.3074,2.53656 5.30737,2.53653 1.10019,4.16137 1.1002,4.15627 1.10019,4.15628 1.1002,4.15625 -3.58582,4.56376 -3.58579,4.55865 -3.59091,4.55865 -3.58578,4.56374 -2.37866,3.815 -2.37865,3.82011 -2.37356,3.8201 -2.37865,3.8201 2.46015,3.99838 2.45505,4.00346 2.46016,3.99837 2.45504,3.99837 3.27,4.79805 3.27001,4.79805 3.27,4.79804 3.26492,4.79296 -1.58916,4.03402 -1.58917,4.03402 -1.59425,4.02894 -1.58916,4.03402 -5.48058,2.20038 -5.47546,2.20547 -5.48058,2.20039 -5.48057,2.20547 -3.47885,2.43466 -3.48392,2.43467 -3.47884,2.43469 -3.48393,2.43469 0.58575,4.96614 0.58574,4.96612 0.58067,4.96612 0.58574,4.96614 0.35146,5.66903 0.34635,5.66903 0.35145,5.66392 0.35144,5.66903 -3.74878,2.37864 -3.74879,2.37866 -3.7488,2.37354 -3.74879,2.37867 -5.90333,-0.7742 -5.90333,-0.77423 -5.90841,-0.77421 -5.90333,-0.77929 -3.92707,0.91174 -3.92706,0.90662 -3.93217,0.90664 -3.92705,0.91175 -1.72668,5.00176 -1.72669,5.0018 -1.72669,5.00687 -1.72668,5.00179 -2.5773,4.87444 -2.57219,4.87445 -2.5773,4.87446 -2.57221,4.87443 -4.59939,-0.24957 -4.59941,-0.24958 -4.5943,-0.24958 -4.59939,-0.24959 -4.79295,-3.52467 -4.78787,-3.52467 -4.79296,-3.52978 -4.78786,-3.52468 -3.84046,-0.52462 -3.83539,-0.52973 -3.84047,-0.52972 -3.84047,-0.52972 -3.96781,3.89141 -3.96272,3.89141 -3.96781,3.8914 -3.96781,3.89141 -4.6045,2.66898 -4.60449,2.66389 -4.6045,2.66389 -4.59941,2.66387 -3.80481,-2.94912 -3.80481,-2.95421 -3.80483,-2.95421 -3.80481,-2.9542 -2.51108,-5.31759 -2.51617,-5.32266 -2.51618,-5.31759 -2.51107,-5.31757 -6.7132,-3.55015 -6.71319,-3.55525 -5.52133,1.7165 -5.5213,1.71649 -5.52132,1.71651 -5.52132,1.7165 -5.10874,-0.24958 -5.10367,-0.24959 -5.10363,-0.24957 -5.10877,-0.2445 -1.58914,-4.80314 -1.58918,-4.79804 -1.58915,-4.79804 -1.58917,-4.79805 0.25467,-5.76071 0.24959,-5.7556 0.25466,-5.76073 0.25468,-5.7556 -5.1444,-5.63338 -5.14441,-5.63339 -5.85748,-1.09 -5.85748,-1.08491 -5.85749,-1.09 -5.85749,-1.0849 -3.94743,-2.91855 -3.94744,-2.91856 -3.94236,-2.91347 -3.94743,-2.91855 1.34468,-5.13422 1.34468,-5.12913 1.34466,-5.1342 1.34468,-5.12912 2.77085,-4.85408 2.77594,-4.85917 2.77085,-4.85407 2.77594,-4.85408 -1.49239,-3.63165 -1.49747,-3.63163 -1.49238,-3.63162 -1.4924,-3.63166 -4.73692,-3.80992 -4.74202,-3.81499 -4.73693,-3.80992 -4.736924,-3.81501 -1.533133,-4.46697 -1.533135,-4.46697 -1.538226,-4.46697 -1.533132,-4.46697 4.049305,-3.78954 4.049307,-3.78954 4.049308,-3.78955 4.0493,-3.78952 4.47206,-2.98478 4.47207,-2.98478 4.47206,-2.98476 4.47207,-2.98477 -0.11205,-4.12062 -0.11206,-4.12061 -0.10695,-4.12572 -0.11207,-4.1206 -2.3379,-5.68432 -2.3379,-5.6843 -2.33791,-5.67922 -2.33789,-5.68431 1.29373,-4.39568 1.29375,-4.39564 1.29374,-4.39057 1.29374,-4.39567 5.64866,-1.16132 5.64356,-1.16129 5.64867,-1.16132 5.64355,-1.16132 5.07817,-0.70799 5.07819,-0.70798 5.07819,-0.708 5.07819,-0.70799 1.52805,-4.11041 1.52804,-4.11044 1.52803,-4.10534 1.52804,-4.11041 0.74873,-6.10707 0.74365,-6.10706 0.74875,-6.10707 0.74363,-6.10708 3.56035,-2.74537 3.56033,-2.74029 3.56541,-2.74539 3.56035,-2.74027 5.6181,1.95589 5.61809,1.95589 5.613,1.96098 5.61808,1.95589 4.65034,1.41598 4.64524,1.41599 4.65033,1.41598 4.64525,1.41598 3.22417,-3.39732 3.22415,-3.39735 3.22417,-3.39735 3.22418,-3.39733 3.65709,-4.88974 3.65203,-4.884635 3.6571,-4.889727 3.6571,-4.884634 4.47717,-0.10187 4.48225,-0.09677 4.48226,-0.101871 4.48225,-0.09677 3.95252,4.624866 3.95763,4.624871 3.95761,4.62996 3.95254,4.62486 3.47375,2.99497 3.47374,3.00005 3.47374,3.00006 3.47375,2.99495 4.62486,-1.89477 4.62995,-1.89985 4.62488,-1.8948 4.62997,-1.89985 5.5315,-2.32771 5.52641,-2.32771 5.53151,-2.32772 5.53151,-2.32771 3.71821,2.60785 3.72334,2.60785 3.71822,2.60786 3.72334,2.60786 1.1562,6.06123 1.16132,6.06629 1.15622,6.06124 1.16131,6.06632 1.93552,3.88122 1.93551,3.88125 1.93042,3.88119 1.93552,3.88123 5.3074,0.26995 5.31248,0.26995 5.30739,0.26488 5.31249,0.26996 5.79128,0.83021 5.79126,0.82516 5.79127,0.83023 5.79637,0.83023 1.52804,4.41604 1.52804,4.42113 1.52805,4.41604 1.52803,4.42113 -1.95589,5.88804 -1.95588,5.88805 -1.95589,5.88296 -1.95591,5.88803 0.35655,4.11553 0.35653,4.11553 0.35655,4.11042 0.35655,4.11552 4.9101,2.7148 4.9101,2.71484 4.91009,2.71481 4.91011,2.71991 4.35491,3.62147 4.35492,3.62144 4.35493,3.62656 4.36,3.62144 -1.35485,4.67582 -1.35488,4.67579 -1.35487,4.6758 -1.35485,4.67072 -4.51792,4.20719 -4.51789,4.20721 -4.5179,4.20211 -4.52301,4.20719 -1.06963,3.84558 -1.06962,3.84557 -1.07474,3.84557 -1.06962,3.85065 3.30565,4.84898 3.30568,4.84899 3.31075,4.84898 3.30566,4.85408 1.67575,5.19023 1.67575,5.19534 1.68083,5.19024 1.67577,5.19534 -3.93725,3.23944 -3.94236,3.23945 -3.93724,3.23944 -3.93725,3.23946 -5.88295,1.5484 -5.88296,1.55351 -5.88295,1.55351 -5.88296,1.5484 -2.28696,3.21908 -2.28696,3.21397 -2.28697,3.21398 -2.28697,3.21398 0.72837,6.04595 0.73346,6.04086 0.72836,6.04084 0.72836,6.04084 -1.38033,5.05783 -1.37523,5.05272 -1.38033,5.05271 -1.38033,5.05782 -5.32267,0.55009 -5.32777,0.5501 -5.32266,0.55009 -5.32778,0.55009 -5.78619,-1.31921 -5.79125,-1.3192 -5.79128,-1.3192 -5.79128,-1.3192 -3.28019,2.28186 -3.28528,2.28696 -3.28019,2.28188 -3.28529,2.28187 -2.24621,5.82692 -2.25131,5.83203 -2.24623,5.83201 -2.24621,5.83202 -3.81501,3.28019 -3.81501,3.2802 -3.80991,3.28529 -3.81501,3.28019 -5.00688,-2.52637 -5.00688,-2.53143 -5.00687,-2.53147 -5.00688,-2.53145 -4.41093,-3.67239 -4.41095,-3.67749 -4.41095,-3.67747 -4.40586,-3.67749 -4.01872,1.04417 -4.01366,1.03906 -4.01366,1.03907 -4.01873,1.04416 -4.83372,4.12062 -4.83879,4.11551 -4.83878,4.12062 -4.83879,4.12061 -4.82352,0.49916 -4.8286,0.49408 -4.82861,0.49405 -4.82351,0.49917 -3.04082,-5.00688 -3.0357,-5.00178 -3.0357,-5.00689 -3.04079,-5.00178 -2.22587,-5.03234 -2.23093,-5.03235 -2.23094,-5.02726 -2.22583,-5.03233 -4.34982,-0.50935 -4.34983,-0.50936 -4.34472,-0.50934 -4.34983,-0.50424 -6.27514,1.26317 -6.27007,1.26827 -6.27514,1.26828 -6.27006,1.26828 -4.10025,-2.3481 -4.10024,-2.34299 -4.10023,-2.34299 -4.10025,-2.34299 v -6.07142 l -0.006,-6.06634 v -6.06629 -6.07139 l 0.14261,-5.23099 0.14262,-5.23101 0.14771,-5.23099 0.14262,-5.23099 -4.07987,-2.26148 -4.07986,-2.26661 -4.07988,-2.26149 -4.07986,-2.2666 -6.0714,-1.98136 -6.06634,-1.98135 -6.06632,-1.98135 -6.071409,-1.98137 -1.899863,-4.25305 -1.904956,-4.25305 -1.899864,-4.25303 -1.904957,-4.25305 3.178326,-5.37361 3.183415,-5.37361 3.178326,-5.37361 3.178322,-5.37359 2.17491,-4.44151 2.18001,-4.4466 2.17491,-4.44658 2.18,-4.44152 -3.03571,-3.95762 -3.03061,-3.96272 -3.03571,-3.95762 -3.030613,-3.95763 -4.212293,-4.69618 -4.217392,-4.69617 -4.212298,-4.69618 -4.212294,-4.70127 0.993225,-4.56373 0.993226,-4.56885 0.993226,-4.56375 0.993225,-4.56884 5.546785,-3.11721 5.551879,-3.11719 5.551874,-3.12229 5.55189,-3.11721 3.55523,-3.03061 3.55525,-3.03061 3.55525,-3.03062 3.55523,-3.03061 -1.18678,-5.18516 -1.18678,-5.18515 -1.18677,-5.18005 -1.18169,-5.18516 -1.21733,-6.06121 -1.21225,-6.06632 -1.21224,-6.06631 -1.21225,-6.06123 3.56542,-3.16304 3.56544,-3.15796 3.56543,-3.15795 3.56541,-3.15795 6.43815,0.0204 6.43306,0.0204 6.43813,0.0204 6.43305,0.0204 4.20211,-1.37522 4.20212,-1.38035 4.2021,-1.38034 4.20719,-1.37523 1.23264,-5.50094 1.2326,-5.50094 1.23264,-5.50095 1.22751,-5.50094 2.04759,-5.65883 2.04756,-5.65375 2.04249,-5.65376 2.04756,-5.65884 4.89991,-0.499159 4.89483,-0.504254 4.89993,-0.504252 4.8999,-0.499161 5.6232,3.142673 5.62318,3.142673 5.62827,3.14267 5.62319,3.14267 4.22249,0.21901 4.22757,0.22411 4.22249,0.21902 4.22757,0.21902 3.72843,-4.60959 3.72332,-4.61468 3.72841,-4.614678 3.72843,-4.609588 4.56373,-3.601081 4.56377,-3.595987 4.56373,-3.595988 4.56374,-3.595987 4.49244,2.500892 4.49245,2.500892 4.49242,2.495799 4.49245,2.500892 3.41262,5.399076 3.41263,5.399075 3.41262,5.399073 3.41263,5.39907 3.78953,1.62483 3.78445,1.62481 3.78444,1.62481 3.78445,1.61974 5.64866,-2.52127 5.64864,-2.52128 5.64867,-2.51617 5.64355,-2.52126 5.56207,-0.545 5.56206,-0.5501 5.55697,-0.545 5.56207,-0.545 2.43468,4.81332 2.42958,4.80824 2.43468,4.81333 2.42958,4.81333 0.4737,6.25477 0.47369,6.25477 0.47369,6.25478 0.4737,6.25478 3.00513,2.79632 3.00515,2.80141 3.00515,2.7963 3.00515,2.80141 6.37702,0.39728 6.37701,0.3973 6.37194,0.3922 6.37702,0.39728 4.74202,2.506 4.742,2.50599 4.73692,2.50598 4.74202,2.50089 -0.63157,5.62319 -0.6316,5.62319 -0.63159,5.62317 -0.63667,5.62319 -2.38885,5.613 -2.38884,5.613 -2.38883,5.61301 -2.38883,5.613 1.91514,3.7386 1.91515,3.73352 1.91514,3.7335 1.91514,3.73862 5.55698,3.43299 5.56207,3.43809 5.55696,3.43809 5.56207,3.433 2.40411,4.55865 2.40412,4.55865 2.40411,4.55865 2.40921,4.55357 -3.71314,4.61467 -3.71313,4.6096 -3.71313,4.61467 -3.71314,4.61469 -4.49244,3.78954 -4.48736,3.79463 -4.49242,3.79462 -4.48735,3.79463 0.49916,4.35493 0.50425,4.35491 0.49916,4.35491 0.50425,4.36001 3.27001,5.75562 3.27,5.75561 3.27,5.76072 3.27,5.75562 -0.63157,4.94066 -0.63668,4.94575 -0.6367,4.94066 -0.63667,4.94067 -5.81165,2.05775 -5.80654,2.05776 -5.81165,2.05268 -5.81165,2.05776 -5.4449,1.37524 -5.44493,1.38032 -5.44493,1.37523 -5.4449,1.37524 -1.20716,4.48736 -1.20206,4.49243 -1.20714,4.48733 -1.20207,4.48736 0.0458,6.64697 0.051,6.64187 0.0457,6.64189 0.051,6.64699 -3.33621,3.55012 -3.33113,3.55525 -3.33114,3.55524 -3.33621,3.55015 -6.2395,-1.26828 -6.24458,-1.27336 -6.23951,-1.26827 -6.24458,-1.27338 -5.23099,-1.01358 -5.23608,-1.01362 -5.231,-1.01869 -5.23099,-1.01359 -3.04589,3.91178 -3.04079,3.91687 -3.0459,3.91179 -3.0408,3.91178 -3.22926,5.76581 -3.22925,5.7607 -3.22926,5.76581 -3.22926,5.76071 -4.74712,0.89645 -4.75221,0.89646 -4.74711,0.89135 -4.75219,0.89645 -4.85916,-4.36002 -4.86426,-4.3651 -4.85918,-4.36001 -4.86426,-4.36 -4.11552,-2.90837 -4.11552,-2.90328 -4.11553,-2.90836 -4.12062,-2.90837 -4.66053,2.50089 -4.6656,2.49579 -4.66561,2.50091 -4.66562,2.49578 -5.60281,3.31076 -5.6079,3.31075 -5.60792,3.30566 -5.6079,3.31076 -4.39566,-2.10359 -4.40075,-2.10361 -4.39568,-2.10361 -4.39566,-2.1036 -2.07813,-6.30571 -2.07814,-6.30571 -2.07813,-6.30572 -2.07814,-6.30571 -2.50088,-4.0544 -2.4958,-4.05439 -2.49579,-4.0544 -2.49582,-4.05439 -5.61809,0.31578 -5.61809,0.31579 -5.6181,0.31579 -5.61809,0.31581 -6.36684,-0.0204 -6.36682,-0.0204 -6.36683,-0.0253 -6.36685,-0.0204 -2.37865,-4.38548 -2.37864,-4.39057 -2.38374,-4.38549 -2.37866,-4.38544 1.28866,-6.5655 1.28865,-6.56039 1.28865,-6.56547 1.28864,-6.56548 -0.75383,-4.45678 -0.75383,-4.46188 -0.75385,-4.45678 -0.75892,-4.45679 -5.49076,-2.28696 -5.48566,-2.28697 -5.49076,-2.28187 -5.49076,-2.28697 -5.266647,-3.23435 -5.266641,-3.23436 -5.261551,-3.23434 -5.266648,-3.23434 0.621404,-5.13932 0.621405,-5.13421 0.616307,-5.13931 0.621405,-5.13931 4.288699,-5.11384 4.288697,-5.11893 4.288699,-5.11894 4.288701,-5.11385 0.855704,-4.26323 0.855698,-4.26322 0.855704,-4.26323 0.855704,-4.26323 -4.079866,-4.71656 -4.07987,-4.71655 -4.074772,-4.71655 -4.079869,-4.72164 -2.648603,-5.33797 -2.648603,-5.34304 -2.65369,-5.34304 -2.648609,-5.34305 3.585805,-4.04931 3.580704,-4.04929 3.5858,-4.04932 3.58071,-4.0493 6.132533,-2.43977 6.13763,-2.43976 6.13253,-2.43979 6.13764,-2.43466 2.22584,-3.63674 2.22584,-3.63166 2.22585,-3.63162 2.22585,-3.63165 -1.52804,-6.30063 -1.52294,-6.29551 -1.52804,-6.30062 -1.52805,-6.29553 0.64177,-5.69959 0.64178,-5.69449 0.63669,-5.6945 0.64178,-5.6945 5.48566,-1.44144 5.48057,-1.44146 5.48566,-1.44145 5.48567,-1.44145 6.42795,0.6927 6.42794,0.69272 6.43306,0.69272 6.42795,0.69271 3.34132,-2.66899 3.34132,-2.67406 3.33622,-2.66899 3.34131,-2.66897 1.63502,-6.46868 1.6299,-6.4738 1.63501,-6.46872 1.6299,-6.468697 3.53995,-4.217393 3.53996,-4.212294 3.53997,-4.212298 3.53995,-4.212298 5.64357,1.854021 5.64865,1.859118 5.64357,1.859117 5.64355,1.85911 5.24119,3.458464 5.24117,3.453371 5.23608,3.453372 5.24118,3.453367 4.16644,-1.395608 4.17156,-1.390515 4.16646,-1.395608 4.17155,-1.395609 4.59432,-5.022161 4.5943,-5.02216 4.5994,-5.022157 4.59429,-5.02216 5.10365,-1.415979 5.10877,-1.415987 5.10364,-1.415985 5.10367,-1.41598 3.95761,4.782764 3.95763,4.782763 3.95763,4.782769 3.95762,4.787857 3.01533,5.225895 3.02042,5.2259 3.01533,5.230991 3.02043,5.2259 4.6045,0.19355 4.5994,0.19864 4.60448,0.19355 4.60449,0.19356 6.51454,-2.21057 6.51457,-2.21056 6.51454,-2.20547 6.51454,-2.21057 4.8337,1.73178 4.8388,1.73688 4.8337,1.73177 4.83368,1.73688 0.91174,6.38212 0.91173,6.38211 0.91173,6.3872 0.91174,6.38212 0.41256,5.74542 0.41767,5.74544 0.41256,5.74542 0.41768,5.74544 4.45168,2.0221 4.45678,2.017 4.4517,2.02212 4.45169,2.01701 6.77431,1.26318 6.76922,1.25809 6.76923,1.26318 6.77431,1.26317 2.84214,4.15628 2.84724,4.15627 2.84725,4.15627 2.84726,4.15627 -2.57221,6.13253 -2.56711,6.13763 -2.56712,6.13253 -2.5671,6.13764 -1.94569,5.10364 -1.9457,5.10365 -1.94572,5.10367 -1.9457,5.10364 3.52467,3.84558 3.5247,3.84555 3.52467,3.85067 3.52468,3.84557 5.21062,4.42113 5.20551,4.42622 5.21063,4.42113 5.21061,4.42622 -0.15789,5.01198 -0.15791,5.01196 -0.163,5.01197 -0.15788,5.01198 -5.42963,4.10023 -5.43475,4.09515 -5.43471,4.09515 -5.43473,4.09514 -3.64184,3.65712 -3.64183,3.6622 -3.63671,3.65712 -3.64184,3.65709 1.74705,5.28193 1.74707,5.28193 1.74706,5.28192 1.74705,5.28702 2.23094,6.34137 2.22585,6.34135 2.22584,6.34137 2.23093,6.34648 -3.12738,3.99837 -3.12228,3.99835 -3.1274,3.99839 -3.1274,3.99837 -6.84561,0.87098 -6.84563,0.87608 -6.8507,0.87098 -6.84563,0.87609 -4.5179,1.84382 -4.51281,1.84384 -4.5179,1.84892 -4.51282,1.84382 -0.70799,5.8677 -0.70799,5.86766 -0.7029,5.86768 -0.70799,5.86768 -1.30902,6.42794 -1.30902,6.42796 -1.31412,6.42795 -1.30903,6.42796 -5.00686,1.45164 -5.00689,1.45163 -5.00688,1.44656 -5.00686,1.45164 -6.43815,-2.59767 -6.43304,-2.59768 -6.43815,-2.59256 -6.43304,-2.59767 -4.64016,0.0355 -4.64525,0.0408 -4.64013,0.0356 -4.64016,0.0355 -3.38206,5.24118 -3.38206,5.23608 -3.38207,5.2361 -3.38206,5.24116 -4.33962,4.64523 -4.33964,4.65034 -4.33964,4.64525 -4.33964,4.64525 -5.11892,-1.76743 -5.11893,-1.76744 -5.11385,-1.77253 -5.11894,-1.76742 -4.37528,-5.34814 -4.38038,-5.35324 -4.3753,-5.34814 -4.37527,-5.34814 -4.20212,-1.55352 -4.19701,-1.5535 -4.20211,-1.54841 -4.20212,-1.55351 -5.62319,3.30566 -5.62828,3.30057 -5.62318,3.30565 -5.62829,3.30567 -5.92371,1.5637 -5.92367,1.55859 -5.92883,1.5586 -5.92368,1.5637 -3.37188,-4.55357 -3.36678,-4.55356 -3.37189,-4.55356 -3.37186,-4.55355 -1.30392,-6.69281 -1.30394,-6.69282 -1.30902,-6.69282 -1.30392,-6.69281 -3.3617,-2.85234 -3.36678,-2.85744 -3.36167,-2.85234 -3.3617,-2.85234 -6.75394,0.36164 -6.75903,0.36672 -6.75394,0.36672 -6.75901,0.36165 -5.58755,-1.83874 -5.59262,-1.84384 -5.59263,-1.83873 -5.58754,-1.84384 -0.30561,-5.9339 -0.30051,-5.9288 -0.30052,-5.93387 -0.30561,-5.93389 1.91006,-6.38211 1.91514,-6.3872 1.91005,-6.38212 1.91006,-6.38721 -2.21057,-3.86085 -2.21566,-3.86086 -2.21057,-3.86085 -2.21057,-3.86594 -6.3108,-2.91345 -6.310807,-2.91857 -6.310802,-2.91855 -6.305712,-2.91856 -3.478841,-4.45168 -3.478835,-4.45679 -3.473747,-4.45678 -3.478835,-4.45679 3.096827,-5.39908 3.096826,-5.39397 3.096828,-5.39907 3.096827,-5.39908 4.466972,-4.65544 4.461879,-4.66051 4.466968,-4.66053 4.461876,-4.66051 -0.758926,-4.53319 -0.758928,-4.53318 -0.758922,-4.53319 -0.758927,-4.53319 -4.237764,-5.66903 -4.237767,-5.66393 -4.232669,-5.66903 -4.237764,-5.66903 -0.315796,-5.43983 -0.315796,-5.43472 -0.315793,-5.43983 -0.315796,-5.43982 5.725054,-3.06117 5.725059,-3.06117 5.725055,-3.06117 5.725059,-3.06119 5.832017,-2.0934 5.82693,-2.09851 5.83202,-2.09342 5.82694,-2.09851 0.97284,-4.73184 0.97286,-4.73691 0.97284,-4.73183 0.97287,-4.73693 -0.97287,-7.06465 -0.97794,-7.06972 -0.97286,-7.06463 -0.97794,-7.06974 2.8116,-4.48227 2.81159,-4.48731 2.8065,-4.48227 2.81159,-4.48733 6.72338,0.3769 6.72338,0.37691 6.71828,0.37183 6.72338,0.37694 5.87277,0.6061 5.86766,0.60611 5.86768,0.60614 5.87277,0.60612 2.86253,-4.26324 2.85742,-4.26831 2.86254,-4.26833 2.86251,-4.26833 2.61806,-6.631689 2.61294,-6.626597 2.61805,-6.631696 2.61295,-6.631694 4.8286,-1.945703 4.8286,-1.945703 4.83372,-1.945706 4.8286,-1.945708 5.75052,3.865942 5.75052,3.865944 5.75562,3.865938 5.75052,3.865943 4.80824,2.852342 4.80314,2.852341 4.80823,2.852342 4.80824,2.852342 4.60448,-2.969494 4.6096,-2.969487 4.60958,-2.969494 4.6096,-2.974583 5.51622,-4.39566 5.52131,-4.400756 5.51622,-4.400756 5.51623,-4.400756 5.04253,1.283552 5.03745,1.283554 5.04253,1.283556 5.04252,1.283552 3.09684,6.366835 3.09682,6.361737 3.09683,6.366835 3.09683,6.361741 3.06628,4.293793 3.06625,4.298883 3.07136,4.2938 3.06627,4.29379 5.78108,-0.85061 5.78109,-0.85571 5.78108,-0.8506 5.78109,-0.85062 6.8609,-0.98302 6.8558,-0.97796 6.8609,-0.98304 6.85581,-0.97794 3.36679,4.06968 3.36167,4.07478 3.3668,4.06965 3.36169,4.07481 -0.45842,7.14613 -0.45841,7.15122 -0.46351,7.15121 -0.45841,7.14615 1.11547,4.86935 1.11038,4.86936 1.11546,4.86426 1.11548,4.86935 5.92369,1.80818 5.92879,1.80818 5.92881,1.80818 5.92879,1.8082 6.21913,2.62822 6.21402,2.62312 6.21913,2.62314 6.21912,2.62314 0.36672,5.42963 0.36165,5.42965 0.36673,5.42453 0.36163,5.42964 -3.8914,6.04084 -3.89651,6.03577 -3.89141,6.04085 -3.89649,6.04085 -0.7131,4.70636 -0.71308,4.71147 -0.71819,4.70635 -0.71308,4.70636 4.7624,4.46189 4.7624,4.46187 4.76238,4.46189 4.76239,4.46187 3.78953,5.32268 3.78955,5.31758 3.78955,5.32266 3.78443,5.31759 -2.93383,4.84389 -2.93384,4.84387 -2.93384,4.8388 -2.93383,4.84389 -6.27006,3.41262 -6.27007,3.41771 -6.27515,3.41262 -6.27005,3.41263 -2.2513,4.02893 -2.24623,4.02385 -2.25132,4.02893 -2.25131,4.02384 2.33282,6.40248 2.3328,6.40759 2.32772,6.40247 2.3328,6.40249 0.33617,6.28025 0.34127,6.27516 0.33617,6.28026 0.34126,6.28023 -5.39399,2.46523 -5.39399,2.46014 -5.38888,2.46524 -5.39398,2.46015 -7.02897,0.0559 -7.02899,0.051 -7.02898,0.0559 -7.02899,0.051 -3.45337,2.98476 -3.45338,2.98987 -3.45336,2.98478 -3.45337,2.98477 -0.91684,6.99333 -0.9168,6.99332 -0.91685,6.98824 -0.91681,6.99333 -3.02551,5.2259 -3.02554,5.2208 -3.0255,5.22591 -3.02553,5.22589 -6.14272,-0.95757 -6.14272,-0.95758 -6.14271,-0.95248 -6.13763,-0.95756 -6.10198,-3.1274 -6.10197,-3.12738 -6.09688,-3.12739 -6.10197,-3.12739 -4.32436,1.65538 -4.32435,1.65028 -4.32436,1.65537 -4.32944,1.65538 -4.19701,5.88804 -4.19702,5.88807 -4.19702,5.88294 -4.19702,5.88804 -5.21572,2.53655 -5.21569,2.53147 -5.21572,2.53654 -5.21571,2.53655 -4.87445,-4.30908 -4.87953,-4.30398 -4.87447,-4.30398 -4.87443,-4.30908 -3.88631,-5.36341 -3.88123,-5.36852 -3.88123,-5.36851 -3.88631,-5.36851 -4.80313,0.0457 -4.80314,0.0408 -4.80315,0.0408 -4.80313,0.0408 -6.60115,3.21907 -6.60113,3.21399 -6.59604,3.21906 -6.60113,3.21398 -5.52642,-0.86589 -5.53148,-0.86588 -5.52642,-0.86591 -5.53152,-0.86588 -1.9457,-6.48907 -1.95079,-6.49419 -1.9457,-6.48906 -1.9508,-6.49417 -1.05944,-6.25988 -1.05435,-6.25477 -1.05945,-6.25987 -1.05943,-6.25478 -4.73183,-1.80818 -4.73693,-1.80309 -4.73183,-1.80308 -4.73693,-1.8031 -7.37534,-0.39219 -7.37533,-0.39219 -7.37535,-0.39219 -7.375339,-0.38711 -3.891408,-3.8201 -3.891408,-3.815 -3.891407,-3.81501 -3.891409,-3.8201 1.757243,-6.7947 1.752152,-6.79468 1.757247,-6.79469 1.752153,-6.79469 1.655378,-5.80145 1.650282,-5.80655 1.655379,-5.80656 1.655375,-5.80145 -3.921971,-3.70294 -3.921966,-3.70296 -3.927066,-3.69786 -3.921967,-3.70295 -6.203843,-3.96272 -6.208936,-3.95762 -6.208936,-3.96271 -6.203843,-3.96272 -0.886262,-5.30231 -0.886264,-5.3023 -0.886262,-5.30738 -0.891358,-5.3023 5.108747,-5.09347 5.103653,-5.09855 5.103655,-5.09349 5.103654,-5.09346 3.702951,-4.34473 3.708044,-4.33962 3.708044,-4.34473 3.702947,-4.34473 -2.251313,-5.2972 -2.256401,-5.29212 -2.251312,-5.2972 -2.256408,-5.29211 -3.3515,-6.45851 -3.351502,-6.45852 -3.356596,-6.45343 -3.351501,-6.45852 2.429581,-4.81331 2.424494,-4.81844 2.42958,-4.81332 2.429587,-4.81333 7.100294,-1.89476 7.100292,-1.88968 7.100293,-1.88967 7.100293,-1.89478 4.84898,-2.36336 4.84391,-2.36337 4.84896,-2.35827 4.8439,-2.36337 0.16807,-6.12746 0.16809,-6.12742 0.16809,-6.12236 0.17316,-6.12744 0.38712,-7.11555 0.38711,-7.12069 0.38709,-7.12067 0.3871,-7.11556 4.88464,-2.51109 4.88974,-2.505977 4.88972,-2.505988 4.88972,-2.505985 7.18178,1.869299 7.1818,1.869303 7.18179,1.874399 7.18178,1.869299 5.09857,-0.32088 5.09345,-0.3209 5.09857,-0.32089 5.09347,-0.32088 2.95929,-5.775995 2.95931,-5.770895 2.95932,-5.775994 2.95421,-5.775991 3.90668,-5.730152 3.9016,-5.730148 3.90669,-5.73015 3.90159,-5.730151 5.613,0.83533 5.613,0.830235 5.61299,0.835328 5.60792,0.830236 5.37871,5.124027 5.37868,5.124029 5.37872,5.12912 5.3787,5.124029 4.65034,1.482197 4.65032,1.482199 4.65543,1.482201 4.65034,1.487291 5.48056,-4.064589 5.47549,-4.059492 5.48057,-4.05949 5.47548,-4.064588 6.12743,-2.714819 6.12236,-2.714818 6.12743,-2.714819 6.12235,-2.71991 4.30398,4.059494 4.30399,4.054398 4.30397,4.059496 4.30398,4.0544 2.25639,7.0137 2.26152,7.008612 2.25641,7.013703 2.26149,7.008616 3.7386,2.92874 3.7386,2.92875 3.7386,2.92873 3.7386,2.92365 7.00862,-1.17659 7.00861,-1.17659 7.00351,-1.18167 7.00862,-1.1766 6.37194,0.96776 6.37192,0.96776 6.37192,0.96775 6.36683,0.96777 1.35997,6.04085 1.35487,6.04595 1.35486,6.04594 1.35486,6.04594 -1.27338,7.12066 -1.27335,7.12067 -1.27338,7.12578 -1.27846,7.12065 2.50598,4.00348 2.51108,4.00855 2.50599,4.00346 2.50599,4.00857 6.97296,2.27168 6.97804,2.27677 6.97806,2.2717 6.97295,2.27167 4.59941,4.14101 4.59939,4.13588 4.5943,4.13588 4.59941,4.13592 -2.28188,6.0816 -2.28187,6.08159 -2.28188,6.0816 -2.28187,6.08159 -4.29888,5.57736 -4.29378,5.57734 -4.29381,5.57735 -4.2938,5.57734 1.00343,4.71148 1.00849,4.71143 1.00343,4.71656 1.0085,4.71145 5.19533,5.41435 5.19535,5.41436 5.19532,5.41946 5.19534,5.41434 1.42108,5.7709 1.42107,5.77599 1.42108,5.77091 1.42108,5.7709 -5.42456,4.09004 -5.41943,4.08496 -5.42454,4.09007 -5.42455,4.08495 -6.12235,2.92874 -6.12234,2.93385 -6.12744,2.92875 -6.12235,2.92873 -0.74364,4.96613 -0.74876,4.96103 -0.74873,4.96613 -0.74874,4.96104 1.99154,7.34477 1.99156,7.33971 1.99153,7.33966 1.98646,7.3397 -2.07303,5.35833 -2.07304,5.35323 -2.07304,5.35832 -2.07814,5.35834 -7.03408,0.65704 -7.03408,0.65198 -7.03408,0.65196 -7.03917,0.65705 -6.48907,-0.0612 -6.49418,-0.0661 -6.48907,-0.0612 -6.49417,-0.0612 -2.66388,4.58922 -2.66898,4.5892 -2.66389,4.58923 -2.66898,4.58921 -1.83873,7.4059 -1.84384,7.411 -1.83874,7.41099 -1.84383,7.40589 -4.69617,3.06627 -4.69618,3.07136 -4.69618,3.06627 -4.69618,3.06627 -6.57566,-3.16814 -6.58076,-3.17323 -6.58076,-3.16813 -6.57566,-3.17324 -5.55188,-2.68935 -5.54679,-2.68425 -5.54678,-2.68936 -5.54679,-2.68934 -4.51281,3.41261 -4.50772,3.41263 -4.50772,3.41263 -4.51282,3.40753 -5.23607,5.50603 -5.23099,5.50095 -5.23609,5.50094 -5.23608,5.50094 -5.54678,-0.28522 -5.5468,-0.29034 -5.54168,-0.29032 -5.54678,-0.29034 -4.17155,-6.21911 -4.16646,-6.22422 -4.17154,-6.22422 -4.16648,-6.22422 -3.7284,-4.47715 -3.73353,-4.47716 -3.72839,-4.47716 -3.72844,-4.47206 -5.87275,1.38032 -5.87278,1.38543 -5.86768,1.38544 -5.87275,1.3854 -7.18689,2.09852 -7.19198,2.1036 -7.18687,2.09851 -7.18688,2.1036 -4.32946,-3.53487 -4.32944,-3.53486 -4.32946,-3.53487 -4.32943,-3.53488 -0.51954,-7.59943 -0.51954,-7.59946 -0.51443,-7.59945 -0.51954,-7.59945 -1.56369,-5.27684 -1.5637,-5.27173 -1.5637,-5.27684 -1.56878,-5.27173 -6.28534,-1.28865 -6.28533,-1.28866 -6.28025,-1.28864 -6.28535,-1.28863 -7.095193,-1.82348 -7.095198,-1.81837 -7.095199,-1.82345 -7.095199,-1.81837 -1.456732,-5.52133 -1.456733,-5.52639 -1.456733,-5.52133 -1.456732,-5.52132 1.650283,-3.46864 1.655377,-3.46357 1.650284,-3.46354 1.655377,-3.46357 1.650283,-3.46864 1.655378,-3.46358 1.650283,-3.46354 1.655378,-3.46866 0.509347,-5.19024 0.509343,-5.19025 0.514442,-5.19533 0.509347,-5.19024 -5.393979,-4.11552 -5.393982,-4.11044 -5.393981,-4.11041 -5.393982,-4.11044 -4.966132,-5.08837 -4.971222,-5.08837 -4.96613,-5.09347 -4.966132,-5.08837 2.083228,-5.53149 2.088322,-5.53153 2.088322,-5.5315 2.088321,-5.53149 3.117202,-2.23095 3.117202,-2.23093 3.117201,-2.23095 3.117201,-2.23094 3.117201,-2.23093 3.117205,-2.23604 3.117202,-2.23093 3.117198,-2.23094 2.246218,-4.47207 2.251314,-4.47206 2.246219,-4.46696 2.246218,-4.47207 -3.142669,-6.3872 -3.137575,-6.38212 -3.142665,-6.38212 -3.14267,-6.38721 -1.461826,-6.703 -1.46692,-6.70301 -1.466915,-6.70299 -1.46692,-6.7081 5.078184,-3.50432 5.07819,-3.50937 5.078182,-3.50941 5.07819,-3.50941 7.523047,-0.94737 7.52815,-0.94738 7.52815,-0.9474 7.52305,-0.95247 3.57052,-3.34132 3.57561,-3.33623 3.57052,-3.34131 3.57052,-3.3413 0.12224,-7.39572 0.12225,-7.39571 0.12224,-7.40081 0.12224,-7.39571 2.29716,-6.183474 2.29714,-6.183472 2.29717,-6.178374 2.29714,-6.183472 6.46363,-0.08657 6.4687,-0.09168 6.46868,-0.08657 6.46872,-0.08658 6.95257,2.628232 6.95769,2.628228 6.95257,2.628231 6.95259,2.628226 4.49752,-1.930422 4.49245,-1.925333 4.49755,-1.930422 4.49751,-1.930422 3.65711,-6.687726 3.65201,-6.68772 3.65711,-6.687722 3.6571,-6.687723 5.11386,-3.728416 5.11891,-3.723324 5.11386,-3.728419 5.11383,-3.728418 5.73526,3.616362 5.73015,3.616362 5.73014,3.616361 5.73524,3.621454 4.82862,5.363422 4.82859,5.368513 4.82863,5.363419 4.82349,5.368516 5.00689,-0.275045 5.00688,-0.27505 5.00687,-0.275044 5.00688,-0.27505 3.25983,-2.123973 3.25472,-2.118884 3.25982,-2.123978 3.25981,-2.123972 3.25982,-2.123978 3.25983,-2.123974 3.25981,-2.123977 3.25981,-2.123975 6.08161,-0.178272 6.08668,-0.183365 6.08669,-0.178271 6.0816,-0.183365 3.05099,6.392301 3.0459,6.387209 3.0459,6.3923 3.04589,6.3923 1.83364,6.697909 1.83366,6.697909 1.83363,6.702998 1.83366,6.69791 4.9967,1.59426 4.9916,1.58915 4.99668,1.59426 4.99668,1.58918 3.92197,-0.29544 3.91689,-0.29541 3.92196,-0.30052 3.92197,-0.29541 3.92196,-0.30053 3.92198,-0.29542 3.92197,-0.29543 3.92197,-0.3005 4.91519,3.24964 4.92029,3.24961 4.91521,3.24965 4.92029,3.24962 -0.77422,7.31422 -0.77931,7.31932 -0.77419,7.31421 -0.7742,7.31422 -1.22754,6.51454 -1.22243,6.51454 -1.22753,6.51965 -1.22242,6.51453 4.2836,3.53489 4.2836,3.53486 4.28871,3.53486 4.28358,3.53487 3.57563,1.66048 3.57051,1.66045 3.57563,1.65538 3.57051,1.66046 3.57562,1.66047 3.57051,1.65541 3.57562,1.66047 3.57052,1.65536 2.04248,5.39908 2.04248,5.39908 2.04248,5.39396 2.04249,5.39908 -4.55866,6.06123 -4.56375,6.06632 -4.56375,6.06632 -4.56374,6.06123 -3.6724,5.10365 -3.67238,5.10366 -3.67239,5.10364 -3.67749,5.10365 2.7352,5.25138 2.73518,5.25647 2.7352,5.25135 2.7352,5.25645 2.2615,3.18853 2.26658,3.18849 2.2615,3.18853 2.26151,3.1885 2.26658,3.18851 2.2615,3.18851 2.2666,3.18851 2.2615,3.18851 -1.52805,5.52641 -1.52803,5.52642 -1.52803,5.52639 -1.52805,5.52643 -3.58072,1.49748 -3.58579,1.50257 -3.5807,1.49748 -3.58581,1.50257 -3.58071,1.49748 -3.5858,1.50257 -3.5807,1.49748 -3.58071,1.50258 -5.1393,2.97967 -5.13421,2.97969 -5.13931,2.97967 -5.13423,2.98476 0.37692,6.30064 0.3769,6.3057 0.37693,6.30572 0.37692,6.30571 0.34125,3.83029 0.34128,3.83537 0.34636,3.83029 0.34125,3.83538 0.34126,3.83029 0.34636,3.83538 0.34126,3.83538 0.34635,3.83029 -4.54337,3.59089 -4.54336,3.59089 -4.54338,3.5909 -4.53829,3.5858 -3.91176,-0.48389 -3.91179,-0.48387 -3.91688,-0.48897 -3.91179,-0.48388 -3.91177,-0.48389 -3.91179,-0.48897 -3.91178,-0.48388 -3.91179,-0.48897 -5.56716,0.69272 -5.56207,0.6927 -5.56714,0.69272 -5.56715,0.69271 -2.47544,6.23949 -2.47034,6.23441 -2.47541,6.23441 -2.47542,6.23949 -3.25984,6.76921 -3.25471,6.76922 -3.25983,6.77432 -3.25981,6.76921 -5.9288,0.24957 -5.93389,0.25469 -5.9288,0.24958 -5.92878,0.24957 -3.19361,-2.34808 -3.1936,-2.35318 -3.18852,-2.34809 -3.1936,-2.35319 -3.19361,-2.35318 -3.19359,-2.34808 -3.19361,-2.35319 -3.18851,-2.34809 -5.1546,-1.36504 -5.15457,-1.35996 -5.1495,-1.35995 -5.15458,-1.35995 -5.22083,4.77765 -5.22589,4.77768 -5.2208,4.77767 -5.22588,4.78278 -6.11726,3.95253 -6.11726,3.94743 -6.12236,3.95253 -6.11723,3.95253 -5.17498,-3.34131 -5.16986,-3.34132 -5.16986,-3.34131 -5.17497,-3.34133 -1.66048,-3.58578 -1.65537,-3.58581 -1.66047,-3.5858 -1.66046,-3.58581 -1.66048,-3.58579 -1.65538,-3.58071 -1.66047,-3.5858 -1.66047,-3.5858 -4.16645,-2.98986 -4.17156,-2.98987 -4.16643,-2.98987 -4.16648,-2.98985 -7.13084,2.0221 -7.13086,2.02211 -7.13086,2.01701 -7.13594,2.0221 -7.01879,0.0865 -7.01881,0.0917 -7.01879,0.0865 -7.02389,0.0865 -2.47543,-5.93898 -2.47543,-5.93897 -2.47541,-5.93899 -2.47543,-5.94409 0.2343,-3.8914 0.2343,-3.89141 0.23939,-3.89649 0.2343,-3.89142 0.2343,-3.89141 0.2343,-3.8914 0.23939,-3.89651 0.23429,-3.89142 -2.83704,-4.16135 -2.83198,-4.16135 -2.83197,-4.16647 -2.83706,-4.16136 -3.769158,-0.76401 -3.769166,-0.76403 -3.769169,-0.76402 -3.764068,-0.76402 -3.769167,-0.76402 -3.769166,-0.76402 -3.769163,-0.76402 -3.769168,-0.76401 -5.709777,-3.59091 -5.704681,-3.5909 -5.709776,-3.59089 -5.704683,-3.59088 1.29374,-6.62151 1.288648,-6.61642 1.29374,-6.6215 1.29374,-6.62151 3.952531,-6.52473 3.957623,-6.51964 3.952531,-6.52473 3.957623,-6.51963 -1.26318,-4.90501 -1.258087,-4.91011 -1.258083,-4.905 -1.258085,-4.90501 -3.056084,-2.50089 -3.061173,-2.50598 -3.056079,-2.50598 -3.061174,-2.50091 -3.05608,-2.50601 -3.061174,-2.50598 -3.061174,-2.50088 -3.05608,-2.50599 -2.643509,-5.90841 -2.64351,-5.90332 -2.643509,-5.90843 -2.638415,-5.90843 4.894821,-5.08837 4.899915,-5.09346 4.899916,-5.08838 4.894821,-5.09346 6.295525,-3.87104 6.295526,-3.87103 6.295524,-3.87104 6.295525,-3.87102 0.529719,-5.18516 0.529723,-5.19025 0.524623,-5.19025 0.529724,-5.19022 -1.528042,-3.72333 -1.528037,-3.72333 -1.533133,-3.72333 -1.528043,-3.72332 -1.528038,-3.72333 -1.533137,-3.72331 -1.528038,-3.72333 -1.528042,-3.72332 1.130753,-6.12745 1.130747,-6.12743 1.130754,-6.12745 1.130747,-6.12743 7.151228,-1.78782 7.151228,-1.78271 7.151227,-1.7878 7.151228,-1.78271 7.069728,-0.6265 7.06973,-0.6265 7.06973,-0.6265 7.06974,-0.62649 2.47033,-4.88464 2.47033,-4.88463 2.47033,-4.87956 2.47034,-4.88463 0.46349,-4.03912 0.46352,-4.034022 0.4584,-4.034023 0.46352,-4.03403 0.4584,-4.034024 0.46351,-4.034023 0.4635,-4.039124 0.45841,-4.034024 4.33455,-4.212299 4.32944,-4.217386 4.33455,-4.217393 4.33452,-4.212297 3.64693,1.140937 3.64692,1.140936 3.65202,1.140937 3.64694,1.146031 3.64691,1.140936 3.65202,1.140937 3.64691,1.140939 3.64693,1.140936 6.32608,2.393929 6.32609,2.393928 6.32608,2.388835 6.32609,2.393929 4.38039,-3.820098 4.38036,-3.815008 4.3804,-3.820102 4.38547,-3.815005 2.37865,-3.290378 2.37863,-3.290382 2.37866,-3.290379 2.37865,-3.290378 2.37866,-3.285287 2.37864,-3.29038 2.37864,-3.29038 2.37866,-3.290379 5.87278,-0.855703 5.87274,-0.855701 5.8728,-0.855703 5.87275,-0.855702 2.62823,2.933837 2.62314,2.933836 2.62823,2.928745 2.62821,2.933837 2.62824,2.933836 2.62314,2.933836 2.62823,2.933837 2.62822,2.933837 4.48226,4.573934 4.48224,4.579026 4.47716,4.573934 4.48226,4.579026 5.89823,-1.899864 5.90333,-1.894767 5.89823,-1.899864 5.89823,-1.899864 3.66731,-1.650283 3.66219,-1.655377 3.6673,-1.655377 3.66729,-1.655376 3.66221,-1.650283 3.66731,-1.655378 3.66728,-1.655375 3.6622,-1.655379 5.231,2.77594 5.22589,2.770846 5.231,2.770847 5.22589,2.775939 0.80986,3.93725 0.81495,3.942342 0.80987,3.937248 0.81496,3.94235 0.80985,3.937248 0.80985,3.942342 0.81496,3.937248 0.80987,3.942344 2.11888,5.663932 2.11888,5.65883 2.1189,5.66395 2.11887,5.66394 6.56039,0.74366 6.56038,0.74874 6.56038,0.74363 6.56549,0.74367 3.92706,0.41764 3.92707,0.41767 3.92705,0.42276 3.92707,0.41766 3.92707,0.41766 3.92705,0.41768 3.93217,0.42275 3.92705,0.41766 2.61805,5.39398 2.61804,5.39399 2.61805,5.39398 2.61803,5.39907 -1.26318,3.87104 -1.26318,3.87612 -1.25809,3.87104 -1.26318,3.87613 -1.25809,3.87103 -1.26318,3.87614 -1.26318,3.87103 -1.25807,3.87613 -0.22921,5.70978 -0.22412,5.70977 -0.22921,5.70978 -0.22412,5.70977 5.95427,3.68768 5.95936,3.68257 5.95935,3.68257 5.95935,3.68258 3.07138,2.32262 3.07135,2.31754 3.07137,2.31752 3.07645,2.31752 3.07136,2.32262 3.07135,2.31754 3.07138,2.31752 3.07644,2.31752 -1.05942,6.07651 -1.05946,6.07142 -1.05944,6.0765 -1.05944,6.07141 -3.00006,2.78104 -3.00513,2.77593 -3.00006,2.77593 -3.00005,2.77594 -3.00006,2.78103 -3.00004,2.77597 -3.00006,2.77594 -3.00516,2.77593 -2.20545,4.97631 -2.20548,4.97121 -2.20546,4.97633 -2.20548,4.97122 3.93216,6.24459 3.93215,6.24969 3.93217,6.24459 3.93215,6.24459 2.71482,6.9373 2.71482,6.9373 2.7148,6.9424 2.71483,6.9373 -4.53318,4.53319 -4.5332,4.5281 -4.53317,4.53317 -4.53319,4.52809 -3.94235,0.99322 -3.94234,0.98814 -3.94745,0.98813 -3.94233,0.99324 -3.94234,0.98813 -3.94235,0.98814 -3.94234,0.99322 -3.94233,0.98812 -3.6877,3.7437 -3.69274,3.7488 -3.68767,3.74369 -3.68768,3.7437 0.36164,3.84047 0.36674,3.83539 0.36162,3.84048 0.36165,3.83537 0.36163,3.84047 0.36672,3.8354 0.36165,3.84046 0.36164,3.83538 -1.35996,7.04427 -1.35995,7.04427 -1.35996,7.04426 -1.35995,7.04427 -6.59096,1.23771 -6.58586,1.2428 -6.59094,1.2377 -6.58584,1.24282 -3.88633,-0.97794 -3.8863,-0.97287 -3.88123,-0.97284 -3.88631,-0.97795 -3.88123,-0.97285 -3.88632,-0.97285 -3.88122,-0.97796 -3.88631,-0.97283 -4.6809,2.23093 -4.68599,2.22585 -4.68089,2.22584 -4.686,2.23093 -1.49747,3.69786 -1.49239,3.70295 -1.49747,3.69786 -1.49749,3.70295 -1.49238,3.69786 -1.49748,3.70295 -1.49239,3.69785 -1.49748,3.70295 -4.78276,4.95085 -4.78786,4.95595 -4.78276,4.95085 -4.78786,4.95595 -6.47381,-2.7301 -6.47888,-2.72501 -6.47889,-2.725 -6.4738,-2.7301 -2.91854,-2.59768 -2.91348,-2.60276 -2.91855,-2.59767 -2.91347,-2.60276 -2.91855,-2.59766 -2.91346,-2.60276 -2.91856,-2.59768 -2.91347,-2.60275 -5.22078,0.50934 -5.22084,0.50427 -5.22078,0.50424 -5.22081,0.50934 -3.13249,2.63333 -3.13755,2.63331 -3.13251,2.63334 -3.13757,2.63332 -3.13247,2.63333 -3.13758,2.63331 -3.13248,2.63332 -3.13757,2.63334 -6.46362,1.38541 -6.46361,1.38032 -6.46361,1.38543 -6.46871,1.38542 -4.16645,-6.06122 -4.16135,-6.06123 -4.16646,-6.06122 -4.16646,-6.06632 -2.73517,-7.03918 -2.7352,-7.04426 -2.73521,-7.03917 -2.74028,-7.04426 -5.24118,-1.38543 -5.24627,-1.39051 -5.24625,-1.38542 -5.24628,-1.38544 -4.07987,0.83535 -4.07478,0.83022 -4.07477,0.83535 -4.07478,0.83021 -4.07986,0.83535 -4.07478,0.83532 -4.07477,0.83023 -4.07477,0.83533 -5.88296,-2.45505 -5.88295,-2.45505 -5.87785,-2.45506 -5.882965,-2.45505 -0.168082,-3.83029 -0.173181,-3.82519 -0.173173,-3.83028 -0.173181,-3.83028 -0.173175,-3.8252 -0.168088,-3.8303 -0.173179,-3.82519 -0.173175,-3.83029 0.64687,-7.21233 0.651964,-7.21236 0.64687,-7.21235 0.64687,-7.21235 -4.614683,-3.36168 -4.619771,-3.36169 -4.619777,-3.3617 -4.614682,-3.36168 -3.998371,-1.25299 -3.993278,-1.253 -3.998371,-1.25299 -3.99837,-1.25299 -3.993278,-1.253 -3.998373,-1.25299 -3.993277,-1.25299 -3.99837,-1.25299 -3.270008,-5.26155 -3.270005,-5.26665 -3.270005,-5.26155 -3.270005,-5.26155 1.904956,-3.48393 1.904956,-3.48394 1.899864,-3.47882 1.904956,-3.48393 1.904956,-3.47885 1.904956,-3.48393 1.904958,-3.48393 1.904957,-3.47884 3.519584,-5.9237 3.519587,-5.9237 3.519585,-5.92371 3.519585,-5.91859 -3.178323,-5.17496 -3.183416,-5.16989 -3.183418,-5.17497 -3.183416,-5.16986 -2.852342,-3.05098 -2.857434,-3.0459 -2.857434,-3.05098 -2.857435,-3.04588 -2.852342,-3.051 -2.857436,-3.0459 -2.857435,-3.05098 -2.857436,-3.0459 0.443133,-6.08669 0.443131,-6.08669 0.443133,-6.08669 0.44313,-6.0918 3.5094,-2.07813 3.509398,-2.08322 3.509399,-2.08323 3.509399,-2.08323 3.509398,-2.07813 3.509399,-2.08324 3.504304,-2.08322 3.5094,-2.08322 5.368515,-3.69787 5.363418,-3.70295 5.368516,-3.69785 5.363421,-3.70295 -0.916826,-6.41269 -0.91173,-6.41266 -0.916826,-6.41268 -0.916821,-6.41267 -0.937196,-4.01874 -0.942296,-4.02386 -0.942291,-4.01873 -0.94229,-4.01874 -0.942291,-4.02384 -0.937196,-4.01875 -0.942291,-4.02383 -0.942295,-4.01876 3.957626,-4.65032 3.957622,-4.65034 3.962718,-4.65033 3.957625,-4.65035 4.15627,-0.0458 4.161359,-0.0408 4.161363,-0.0458 4.161364,-0.0408 4.156274,-0.0458 4.16136,-0.0408 4.16137,-0.0458 4.15626,-0.0408 6.04084,-1.16641 6.04086,-1.1715 6.03576,-1.16641 6.04084,-1.16639 1.9508,-6.616412 1.94571,-6.616414 1.9508,-6.616415 1.94569,-6.616411 1.20717,-3.865943 1.20204,-3.860848 1.20717,-3.865943 1.20714,-3.865939 1.20206,-3.86594 1.20716,-3.865943 1.20715,-3.860847 1.20207,-3.865942 6.04083,-1.446545 6.04085,-1.446546 6.03577,-1.446543 6.04086,-1.451638 3.67747,2.037386 3.67749,2.037388 3.67746,2.037386 3.6775,2.037387 3.68257,2.032293 3.67749,2.037386 3.6775,2.037387 3.67747,2.037387 5.69959,1.166405 5.69959,1.171497 5.69959,1.166404 5.70469,1.166402 4.87444,-5.439822 4.87444,-5.439823 4.87445,-5.439822 4.87445,-5.439821 2.94403,-2.618041 2.94909,-2.61295 2.94404,-2.612948 2.94402,-2.618042 2.94911,-2.612949 2.94402,-2.612948 2.94912,-2.612948 2.94403,-2.618043 5.92881,2.419397 5.92879,2.414303 5.92879,2.419397 5.92881,2.414304 2.22583,3.570519 2.23095,3.575614 2.22584,3.570521 2.23093,3.570519 2.22585,3.575613 2.23094,3.570522 2.23094,3.575614 2.22584,3.570518 4.66053,3.020428 4.65542,3.025518 4.66052,3.025521 4.66053,3.020422 3.56033,-1.43126 3.56543,-1.431269 3.56542,-1.431261 3.56035,-1.431265 3.56541,-1.431263 3.56543,-1.436358 3.56034,-1.431264 3.56542,-1.431264 7.50268,-1.303927 7.50268,-1.298835 7.49759,-1.303926 7.50266,-1.298835 3.61637,5.597719 3.62146,5.597723 3.61634,5.602808 3.61638,5.597727 0.24957,4.171546 0.2445,4.166456 0.24956,4.171547 0.24451,4.17155 0.24446,4.166459 0.24961,4.17155 0.24446,4.17154 0.24959,4.16646 3.20889,4.32945 3.20378,4.32944 3.20888,4.32944 3.20889,4.32436 3.98818,0.35145 3.99328,0.35145 3.98818,0.35654 3.9882,0.35145 3.98818,0.35145 3.98819,0.35144 3.98817,0.35146 3.9882,0.35144 6.76411,2.81669 6.75904,2.81668 6.75902,2.81669 6.75904,2.81669 -0.1528,6.97806 -0.15791,6.97803 -0.15279,6.97806 -0.15281,6.97295 -1.7165,3.73353 -1.7114,3.72841 -1.71651,3.7335 -1.71649,3.72843 -1.71141,3.7284 -1.7165,3.73354 -1.7114,3.7284 -1.7165,3.73351 1.52805,5.11893 1.53312,5.11894 1.52805,5.12403 1.52804,5.11892 3.48393,2.22585 3.48903,2.23095 3.48392,2.22584 3.48902,2.22584 3.48394,2.23095 3.48902,2.22583 3.48393,2.22585 3.48903,2.23094 3.93725,5.81674 3.94234,5.81674 3.94235,5.81674 3.94233,5.81674 -4.15115,6.02555 -4.15119,6.02049 -4.15117,6.02557 -4.14609,6.02049 -3.15794,2.44995 -3.16305,2.44995 -3.15795,2.44996 -3.15795,2.44996 -3.15795,2.45505 -3.15795,2.44997 -3.15796,2.44996 -3.15793,2.44995 -0.3107,5.42454 -0.3158,5.41945 -0.3158,5.42454 -0.31579,5.42454 2.07303,3.69277 2.07814,3.68767 2.07305,3.69276 2.07812,3.69277 2.07304,3.68767 2.07305,3.69276 2.07813,3.69276 2.07305,3.69276 0.005,6.74885 v 6.74885 6.74884 l 0.005,6.74884 -3.52469,1.48729 -3.51958,1.49239 -3.52468,1.48728 -3.51958,1.4924 -3.5196,1.48729 -3.52467,1.49238 -3.51958,1.4873 -3.52469,1.49237 -3.78444,0.72837 -3.78954,0.72837 -3.78445,0.73347 -3.78955,0.72835 -3.78443,0.72837 -3.78955,0.72837 -3.78443,0.73346 -3.78954,0.72837 -2.28188,5.15968 -2.28188,5.16478 -2.28187,5.16477 -2.28188,5.16477 0.0612,4.28871 0.0559,4.29378 0.0559,4.29379 0.0559,4.2938 0.0559,4.2938 0.0559,4.29377 0.0559,4.29381 0.0559,4.28869 -3.72332,5.34815 -3.72842,5.34304 -3.72841,5.34305 -3.72842,5.34305 -3.93214,-0.61122 -3.93217,-0.61122 -3.93216,-0.61121 -3.93215,-0.61121 -3.93216,-0.61122 -3.93216,-0.61122 -3.93216,-0.61121 -3.93215,-0.61123 -7.12067,-1.95079 -7.11557,-1.9457 -7.12067,-1.94571 -7.11557,-1.9508 -4.23776,4.19194 -4.23777,4.19192 -4.23775,4.18682 -4.23269,4.19192 -2.04756,3.79463 -2.04758,3.79465 -2.04247,3.79972 -2.04758,3.79463 -2.04757,3.79972 -2.04249,3.79463 -2.04757,3.79463 -2.04758,3.79974 -5.98482,2.11887 -5.98992,2.11379 -5.98481,2.11889 -5.98484,2.11889 -3.15794,-2.64353 -3.15286,-2.6435 -3.15795,-2.63841 -3.15285,-2.64351 -3.15285,-2.64351 -3.15795,-2.63842 -3.15287,-2.6435 -3.15794,-2.64352 -5.31249,-4.56884 -5.31247,-4.57394 -5.31758,-4.56883 -5.31251,-4.56884 -5.87785,2.38374 -5.87786,2.38375 -5.87786,2.38374 -5.87787,2.38375 -3.63163,2.28187 -3.63674,2.28187 -3.63673,2.28186 -3.63674,2.28189 -3.63673,2.28186 -3.63164,2.28188 -3.63674,2.28188 -3.63674,2.28187 -6.01538,-1.79289 -6.01028,-1.798 -6.0154,-1.7929 -6.0103,-1.79799 -1.41598,-3.978 -1.41088,-3.97801 -1.41088,-3.978 -1.41599,-3.98309 -1.41089,-3.97799 -1.41089,-3.978 -1.41599,-3.97799 -1.4109,-3.97801 -2.78103,-6.01538 -2.78612,-6.01029 -2.78103,-6.0103 -2.78613,-6.01539 -6.75902,-0.19354 -6.75904,-0.19355 -6.76412,-0.19355 -6.75903,-0.19355 -4.23267,0.14771 -4.23268,0.1528 -4.23267,0.1477 -4.23267,0.15282 -4.23267,0.15281 -4.232667,0.14771 -4.232671,0.15278 -4.232671,0.14774 -3.80482,-5.02216 -3.804822,-5.02725 -3.799725,-5.02217 -3.80482,-5.02214 0.774209,-4.22759 0.779298,-4.22757 0.779304,-4.22249 0.774204,-4.22757 0.7793,-4.22249 0.774209,-4.22757 0.779297,-4.22759 0.774209,-4.22249 -0.152804,-6.24967 -0.157898,-6.24969 -0.157898,-6.24968 -0.157898,-6.24969 -6.443234,-3.19869 -6.443235,-3.19869 -6.443235,-3.19871 -6.448329,-3.19871 -3.636734,-1.98136 -3.64183,-1.98643 -3.636737,-1.98137 -3.641827,-1.98136 -3.636736,-1.98644 -3.641829,-1.98136 -3.636736,-1.98137 -3.636734,-1.98135 -0.122244,-6.42795 -0.122243,-6.42797 -0.122242,-6.42794 -0.122244,-6.42796 2.77594,-3.32602 2.781032,-3.32604 2.775941,-3.32604 2.781032,-3.32604 2.775939,-3.32603 2.775939,-3.32095 2.781034,-3.32603 2.775938,-3.32604 2.108697,-5.53659 2.103601,-5.53151 2.108694,-5.53659 2.103604,-5.53152 -4.680897,-6.0001 -4.680895,-6.00011 -4.680897,-5.995 -4.680896,-6.00011 -1.833649,-3.43809 -1.833646,-3.43299 -1.833153,-3.43803 -1.833648,-3.433 -1.83874,-3.4381 -1.833649,-3.43299 -1.833649,-3.43808 -1.832637,-3.43252"
       id="path1"
       style="vector-effect:non-scaling-stroke;fill:none;stroke:#000000;stroke-width:0.134764;stroke-dasharray:none;stroke-opacity:1;-inkscape-stroke:hairline" />
  </g>
</svg>
