<?xml version="1.0" encoding="UTF-8" standalone="no"?>
<!DOCTYPE svg PUBLIC "-//W3C//DTD SVG 1.1//EN" "http://www.w3.org/Graphics/SVG/1.1/DTD/svg11.dtd">
<svg width="100%" height="100%" viewBox="0 0 6615 6615" version="1.1" xmlns="http://www.w3.org/2000/svg" xmlns:xlink="http://www.w3.org/1999/xlink" xml:space="preserve" xmlns:serif="http://www.serif.com/" style="fill-rule:evenodd;clip-rule:evenodd;stroke-linejoin:round;stroke-miterlimit:2;">
    <path d="M3309.16,6493.4C3309.16,6493.4 3259.36,6424.01 3308.38,6255.46C3308.38,6255.46 3328.22,6037.6 3319.07,5864.96C3300.2,5508.7 3317.18,5725.62 3317.68,5593.14C3321.35,5609.1 3245.28,5789.59 3191.82,5749.97C3136.93,5709.3 3264.85,5574.76 3264.85,5574.76C3264.85,5574.76 3102.56,5692.95 3063.77,5627.01C3008.19,5532.54 3266.59,5540.6 3266.59,5540.6C3266.59,5540.6 3018.26,5557.63 3106.68,5445.49C3162.83,5374.29 3297.39,5513.91 3289.88,5500.88C3234.51,5404.78 3232.66,5342.35 3298.28,5338.56C3376.23,5334.05 3334.03,5497.91 3334.03,5497.91C3334.03,5497.91 3399.36,5310.36 3495.18,5381.32C3579.54,5443.79 3363.3,5539.63 3363.3,5539.63C3363.3,5539.63 3582.7,5501.58 3582.16,5574.52C3581.45,5670.57 3352.28,5572.14 3352.28,5572.14C3352.28,5572.14 3535.53,5670.28 3491.62,5742.39C3473.78,5771.7 3346.69,5775.13 3317.68,5593.14C3202.32,5576.44 3303,5469.17 3345.58,5511.42C3399.81,5565.22 3317.68,5593.14 3317.68,5593.14C3317.68,5593.14 3317.78,5717.95 3317.83,5728.95C3319.37,6082.43 3311.58,6215.44 3311.58,6215.44C3305.49,6333.93 3370.08,6502.91 3442.03,6252.32C3476.58,6321.12 3478.29,6378.9 3485.38,6380.82C3524.89,6391.49 3527.55,6308.2 3539.6,6270.7C3662.78,6398.49 3605.45,6299.4 3622.53,6257.88C3637.47,6221.54 3601.11,6369.65 3653.04,6367.96C3692.09,6366.68 3718.02,6235.07 3707.61,6222.45C3688.41,6199.17 3737.82,6412.02 3762.82,6358.78C3786.04,6309.31 3762.05,6226.48 3795.76,6269.52L3820.21,6335.95C3863.14,6301.13 3879.77,6137.25 3879.77,6137.25C3879.77,6137.25 3904.54,6273.73 3961.94,6295.57C3978.47,6301.86 4009.13,6128.46 4008.81,6115.16C4054.98,6281.86 4106.94,6246.37 4109.64,6234.19C4111.34,6226.52 4110.98,6195.34 4110.94,6191.96C4110.23,6130.63 4115.14,6124.21 4116.07,6109.27C4120.61,6120.83 4165.53,6235.26 4218.66,6225.77C4243.1,6221.4 4241.67,6138.86 4241.53,6131.07C4240.87,6093.06 4228.63,6033.91 4228.63,6033.91C4255.42,6094.94 4283.96,6170.34 4316.97,6157.38C4361.68,6139.83 4340.38,6013.65 4336.98,5985.37C4359.39,6036.19 4369.31,6089.36 4442.2,6128.38C4473.08,6144.91 4477.49,6122.94 4476.59,6033.73C4498.7,6054.09 4531.39,6094.18 4566.3,6092.96C4614.13,6091.3 4570.98,5949.91 4567.37,5938.06C4600.38,5994.98 4585.15,6013.31 4648.23,6031.92C4736.65,6058 4693.22,5859.73 4710.04,5859.15C4716.99,5858.9 4783.67,5974.95 4871.24,5919.16C4925.99,5884.27 4860.76,5775.8 4850.74,5754.85C4850.79,5754.91 4900.12,5860.16 4984.32,5859.18C5071.58,5858.17 4993.81,5725.38 4976.29,5690.43C4978.67,5693.71 5023.65,5773.63 5072.3,5794.85C5111.57,5811.97 5130.3,5785.9 5131.74,5768.76C5135.76,5721.03 5124.46,5723.23 5098.71,5656.43C5155.85,5709.72 5152.62,5715.9 5178.41,5720.64C5186.92,5722.21 5213.16,5717.93 5219.72,5704.42C5241.31,5659.98 5220.14,5659.72 5190.5,5590.29C5230.78,5624.8 5226.6,5635.77 5257.9,5633.51C5342.16,5627.45 5226.41,5507.38 5219.39,5486.6C5219.39,5486.6 5387,5548.67 5389.03,5526.11C5390.26,5512.41 5397.11,5516.21 5308.08,5379.27C5340.35,5450.06 5466.44,5468.39 5474.49,5460.01C5512.74,5420.2 5409.01,5288.48 5409.01,5288.48C5364.39,5221.45 5122.74,5045.25 5051.73,4938.38C4978.09,4827.54 5125.49,4712.78 5196.41,4701.02C5356.2,4674.53 5587.43,4586.31 5610.23,4585.05C5615.46,4584.76 5562.24,4632.3 5584.18,4644.65C5612.45,4660.57 5639.22,4595.66 5630.36,4591.61C5617.95,4585.94 5648.32,4671.67 5670.61,4663.53C5698.85,4653.24 5660.92,4574.67 5648.44,4583.65C5631.88,4595.56 5735.47,4598.89 5734.71,4571.49C5733.98,4545.3 5623.14,4547.47 5644.17,4567.21C5656.42,4578.7 5693.06,4497.24 5668.65,4483.78C5645.17,4470.83 5604.18,4569.53 5624.88,4562.43C5641.7,4556.66 5585.04,4504.79 5562.65,4523.26C5540.24,4541.75 5591.89,4565.67 5610.23,4585.05C5411.74,4640.19 5331.37,4667.03 5219.34,4696.9C5263.99,4710.86 5299.13,4736.48 5319,4756.84C5357.93,4796.71 5394.69,4832.78 5436.09,4848.9C5423.16,4819.14 5407.77,4769.37 5433.81,4760.96C5441.82,4758.37 5455.29,4756.1 5467.33,4783.64C5473.47,4797.67 5472.44,4828.44 5463.64,4826.07C5447.9,4821.84 5498.92,4744.41 5518.96,4756.61C5537.45,4767.87 5523.84,4833.41 5491.04,4831.04C5476.89,4830.02 5567.61,4795.03 5571.36,4822.88C5575.39,4852.83 5497.55,4880.45 5505.48,4855.91C5511.21,4838.15 5548.59,4871.12 5555.65,4882.88C5591.43,4942.47 5501.31,4931.81 5483.13,4899.49C5470.51,4877.04 5494.17,4877.67 5493.97,4895.21C5493.13,4966.76 5433.04,4981.33 5439.4,4896.19C5440.92,4875.78 5472.64,4864.65 5460.12,4879.75C5401.92,4949.94 5365.32,4893.36 5426.56,4855.64C5429.84,4853.62 5429.89,4859.27 5433.74,4859.27C5406.26,4844.2 5261.49,4663.13 5166.9,4713.96C5013.33,4796.49 5065.93,4897.85 5074.8,4941.56C4993.14,4824.08 4966.87,4641.61 5020.11,4565.11C5064.24,4501.69 5122.89,4490.21 5141.81,4486.75C5209.69,4474.32 5290.01,4508.32 5302.41,4513.57C5291.23,4499.17 5261.7,4467.35 5286.2,4456.06C5308.41,4445.84 5330.64,4500.8 5318.76,4504.94C5300.92,4511.17 5336.87,4444.91 5359.46,4457.88C5381.41,4470.47 5347.08,4528.21 5338.97,4510.79C5333.02,4497.99 5395.69,4507.22 5391.94,4523.8C5385.14,4553.94 5323.52,4534.99 5337.7,4528.66C5347.32,4524.36 5363.07,4577.39 5345.59,4581.7C5312.14,4589.96 5310.03,4523.45 5319.73,4529.24C5332.21,4536.68 5299.64,4575.85 5278.98,4563.01C5262.62,4552.85 5282.01,4526.48 5302.41,4513.57C5275.16,4505.81 5020.06,4427.51 4996.29,4614.56C5008.07,4553.18 5012.97,4538.44 4999.53,4468.39C4982.39,4379.09 4988.03,4330.81 4998.73,4323.93C5011.22,4315.89 4947.92,4347.61 4943.52,4318.64C4937.91,4281.64 5018.65,4299.05 5006.2,4304.76C4985.66,4314.17 4972.8,4250.18 4998.93,4243.95C5019.84,4238.96 5039.02,4307.38 5022.58,4300.77C5011.04,4296.13 5052.73,4256.22 5068.55,4269.37C5097.52,4293.46 5018.58,4329.76 5030.01,4308.31C5036.52,4296.08 5098.67,4317.47 5085.38,4336.99C5070.2,4359.29 5014.24,4326.54 5024.6,4324.32C5045.81,4319.77 5047.01,4369.75 5026.38,4372.4C5004.72,4375.19 5004.02,4344.1 5004.03,4326.12C4963.53,4379.84 5023.97,4515.47 5004.48,4578.74C5021.04,4555.41 5056.96,4489.98 5081.33,4471.65C5172.61,4403.04 5535.83,4291.65 5569.06,4290.43C5541.87,4281.01 5507.91,4252.13 5515.07,4240.23C5521.14,4230.14 5576.43,4268.44 5576.43,4268.44C5576.43,4268.44 5559.48,4199 5571.12,4197.49C5580.59,4196.27 5593.74,4268.69 5593.74,4268.69C5593.74,4268.69 5623.75,4204.92 5633.24,4210.87C5642.98,4216.97 5606.37,4275.2 5606.37,4275.2C5606.37,4275.2 5667.54,4253.23 5670.95,4264.57C5674.57,4276.59 5609.84,4291.14 5609.84,4291.14C5609.84,4291.14 5667.52,4326.41 5661.89,4333.72C5655.2,4342.4 5599.74,4303.58 5599.74,4303.58C5599.74,4303.58 5616.01,4364.43 5603.69,4365.49C5592.83,4366.42 5582.95,4307.55 5582.95,4307.55C5582.95,4307.55 5543.19,4352.02 5534.28,4345.15C5523.11,4336.53 5544.45,4308.44 5569.06,4290.43C5516.87,4304.23 5001.29,4406.12 4998.02,4644.13C4995.63,4818.12 5023.33,4863.91 5130.66,4997.68C5066.15,4942 4622.23,4614.03 4759.87,4340.02C4769.03,4321.79 4774.19,4228.76 4914.46,4130.23C4914.46,4130.23 5054.43,3820.51 5152.01,3763.34C5152.01,3763.34 5153.94,3756.83 5140.94,3757.49C5035.23,3762.87 5078.58,3691.53 5134.93,3712.11C5150.8,3717.9 5125.95,3733.38 5127.34,3705.34C5131.01,3631.27 5212.32,3656.34 5181.26,3714C5161.42,3750.82 5170.75,3709.41 5184.15,3704.45C5265.85,3674.24 5245.75,3743.14 5192.66,3748.43C5176.4,3750.05 5203.95,3734.83 5216.31,3742.18C5288.32,3784.96 5215.17,3830.34 5177.65,3779.89C5163.83,3761.29 5202.64,3772.07 5195.78,3786.62C5169.61,3842.18 5120.79,3822.45 5141.08,3769.34C5141.9,3767.19 5144.59,3769.2 5143.23,3769.65C5135.74,3772.14 5087.89,3818.03 5052.41,3875.68C4997.45,3964.94 4945.69,4084.42 4914.46,4130.23C5081.04,4148.95 5089.11,4110.76 5239.18,4205.64C5234.92,4214.19 5191.1,4204.57 5193.63,4223.38C5196.18,4242.23 5253.76,4229.04 5249.04,4223.69C5237.8,4210.95 5231.91,4264.81 5248.01,4272.23C5262.05,4278.69 5286.4,4228.53 5269.61,4231.82C5250.85,4235.5 5306.44,4262.86 5316.98,4248.3C5325.01,4237.21 5282.56,4191.07 5280.21,4207.39C5277.87,4223.65 5325.57,4191.02 5313.68,4174.15C5304.01,4160.44 5248.23,4192.45 5263.61,4194.75C5272.45,4196.08 5262.98,4153.51 5245.36,4154.94C5229.58,4156.21 5238.4,4201.37 5240.07,4204.08C5112.4,4117.26 5052.9,4151.68 4934.81,4124.99C5000.5,4113.63 5096.96,4064.91 5189.98,4019.64C5329.78,3951.62 5440.69,3920.9 5427.22,3913.7C5425.22,3912.62 5392.74,3893.8 5385.09,3874.56C5377.94,3856.56 5376.97,3835.53 5401.71,3826.24C5429.77,3815.7 5468.11,3887.84 5449.62,3897.42C5418.85,3913.38 5461.48,3795.32 5497.72,3813.38C5530.35,3829.64 5488.13,3893.31 5484.26,3904.77C5483.31,3907.57 5456.11,3903.66 5476.09,3891.97C5629.45,3802.22 5585.48,3996.26 5493.24,3930.13C5472.99,3915.61 5524.14,3912.55 5537.02,3943.19C5553.48,3982.38 5548.7,3996.59 5540.16,4003.88C5525.98,4015.99 5493.37,3998.45 5471.15,3966.64C5463.51,3955.7 5482.17,3948.29 5487.15,3957.06C5507.37,3992.63 5436.18,4019.1 5413.39,3994.88C5399.7,3980.35 5444.06,3886.52 5457.39,3938.19C5463.05,3960.11 5416.14,3931.68 5416.14,3931.68C5236.42,3967.61 5084.38,4096.85 5005.49,4104.35C5000.36,4104.83 4911.64,4127.36 4841.96,4183.76C4777.51,4235.93 4755.31,4356 4747.44,4372.57C4700.22,4260.18 4671.6,4193.43 4671.6,4193.43C4692.91,4205.59 4711.65,4217.11 4716.6,4199.36C4720.44,4185.6 4697.03,4185.42 4688.98,4182.1C4688.98,4182.1 4726.37,4167.18 4719.15,4152.8C4709.6,4133.8 4696.98,4148.84 4680.11,4166.81C4689.88,4142.38 4692.04,4124.92 4677.82,4122.74C4664.42,4120.68 4661.13,4163.64 4661.13,4163.64C4661.13,4163.64 4644.6,4127.25 4634.02,4131.7C4626.17,4135.01 4625.82,4145.48 4646.45,4174.94C4625.46,4163.65 4609.46,4171.46 4608.76,4183.45C4608.02,4196 4645.12,4196.09 4645.12,4196.09C4645.12,4196.09 4628.93,4224.75 4638.73,4228.6C4650.14,4233.08 4666.46,4194.7 4666.46,4194.7C4666.46,4194.7 4739.47,4336.61 4732.4,4401.68C4706.79,4637.44 4890.95,4768.98 5046.37,4915.43C4692.41,4672.83 4435.06,4521.99 4435.01,4300.45C4434.97,4084.44 4208.83,3909.09 4138.09,3756.89C4138.16,3757.45 4136.01,3757.57 4135.37,3759.17C4135.03,3760.01 4134.9,3759.94 4133.16,3770.65C4125.06,3820.74 4076.24,3806.31 4066.34,3798.7C4024.36,3766.46 4108.51,3721.7 4119.31,3746.22C4126.2,3761.88 4021.36,3719.23 4036.17,3699.6C4060.25,3667.66 4124.27,3698.41 4124.28,3722.7C4124.3,3752.81 4071.42,3653.05 4116.58,3646.34C4153.93,3640.78 4169.27,3707.25 4145.1,3710.97C4126.21,3713.87 4190.11,3647.58 4202.85,3679.25C4217.52,3715.72 4159.26,3746.84 4161.77,3724.53C4165.6,3690.36 4230.2,3734.21 4221.27,3766.26C4203.49,3830.03 4144.59,3761.08 4147.49,3748.63C4150.06,3737.66 4171.99,3758.49 4140.06,3764.61C4136.54,3765.28 4138.72,3762.37 4138.9,3762.71C4231.99,3933.62 4345.45,3992.22 4418.91,4198.93C4424,4213.23 4422.91,4128.63 4505.26,4056.27C4586.56,3984.82 4709.91,3938.96 4748.38,3931.26C4737.82,3919.36 4700.96,3910.75 4698.9,3897.86C4694.47,3870.16 4768.61,3891.83 4765.07,3904.5C4761.02,3919.02 4730.85,3871.49 4735.63,3855.41C4750.84,3804.33 4772.23,3839.75 4779.22,3859.11C4782.53,3868.26 4786.02,3904.73 4774.9,3898.6C4760.02,3890.4 4822.47,3852.7 4831.62,3864.05C4863.55,3903.64 4766.54,3915.24 4789.95,3911.18C4829.83,3904.26 4890.2,4014.5 4781.53,3945.17C4763.82,3933.87 4787.93,3915.84 4788.18,3924.6C4789.4,3967.57 4752.2,4038.27 4747.98,3942.4C4747.59,3933.45 4748.85,3933.87 4748.2,3933.99C4724.47,3938.36 4537.21,3996.16 4477.22,4084.81C4413.47,4179.01 4413.56,4164.58 4418.91,4198.93C4381.03,3998.45 4503.3,3800.04 4519.94,3776.42C4518.78,3777.96 4522.95,3778.08 4532.53,3801.09C4571.28,3894.1 4598.68,3801.41 4559.06,3767.61C4536.32,3748.22 4527.63,3783.76 4556.81,3775.76C4660.87,3747.23 4617.84,3649.06 4525.77,3725.33C4511.14,3737.45 4526.3,3754.48 4538.27,3741.54C4571.99,3705.08 4481.87,3577.48 4479.07,3719.93C4478.88,3729.54 4485.45,3750.07 4498.53,3738.43C4508.86,3729.25 4491.38,3720.47 4483.99,3719.79C4379.37,3710.27 4424.89,3770.82 4497.95,3768.88C4514.04,3768.45 4490.54,3748.26 4476.18,3765.02C4405.74,3847.26 4462.8,3821.08 4516.76,3779.97C4503.24,3804.78 4337.08,4074.24 4454.9,4367.14C4540.4,4579.72 4573.81,4574.68 4979.27,4881.46C4832.58,4785.72 4757.99,4730.38 4624.4,4681.41C4507.86,4638.68 4393.21,4647.74 4313.01,4496.99C4228.19,4337.58 4217.19,4251.39 4211.32,4198.55C4233.74,4226.75 4260.05,4240.05 4271.9,4229.32C4287.28,4215.39 4236.53,4164.54 4231.04,4183.34C4226.82,4197.75 4304.79,4194.2 4305.64,4176.97C4306.62,4157.21 4226.5,4148.3 4232.26,4164.35C4236.42,4175.95 4283.96,4119.06 4261.84,4101.58C4231.73,4077.79 4201.13,4162.94 4213.95,4160.16C4229.98,4156.68 4178.32,4099.98 4162.02,4112.63C4132.4,4135.61 4199.69,4189.95 4203.48,4176.27C4208.02,4159.87 4137.14,4171.17 4147.99,4200.57C4160.86,4235.44 4201.04,4196.94 4208.79,4197.11C4215.11,4248.94 4228.84,4367.86 4356.11,4560.35C4244.44,4490.67 4200.19,4444.27 4092.21,4370.14C3910.84,4245.61 3852.88,4138.23 3850.75,4127.46C3850.7,4130.74 3887.09,4184.84 3907.03,4167.57C3938.5,4140.3 3870.5,4109.99 3868,4114.61C3860.38,4128.67 3943.93,4116.15 3943.01,4097.86C3941.14,4060.66 3852.04,4082.36 3863.67,4097.45C3870.8,4106.69 3920.16,4040.93 3875.44,4022.72C3838.61,4007.72 3833.3,4091.91 3847.54,4090.06C3868.79,4087.29 3794.49,4021.3 3767.93,4060.18C3748.61,4088.47 3831.34,4127.41 3836.47,4104.75C3841.22,4083.76 3762.35,4121.57 3777.2,4146.78C3798.11,4182.26 3826.58,4152.82 3841.89,4130.21C3841.89,4130.21 3846.05,4125.54 3850.75,4127.46C3892.06,4287.88 4149.68,4382.95 4259.98,4505.37C4201.18,4514.77 4158.16,4500.02 4098.95,4488.74C3932.94,4457.1 3898.84,4466.24 3795.79,4496.98C3795.79,4496.98 3886.37,4547.61 3871.13,4571.73C3848.47,4607.61 3741.25,4548.43 3778.7,4531.16C3806.89,4518.16 3795.12,4661.21 3746.55,4654.96C3702,4649.23 3721.56,4513.1 3751.03,4538.22C3777.16,4560.5 3656.68,4604.66 3627.86,4549.41C3604.98,4505.53 3741.18,4481.45 3740.73,4499.63C3740.03,4528.55 3619.6,4455.13 3654.88,4414.03C3694.62,4367.72 3792.54,4478.31 3762.95,4485.07C3733.17,4491.87 3757.69,4367.94 3798.89,4386.82C3842.76,4406.93 3785.6,4474.88 3793.86,4489.38C3919,4439.29 4006.27,4480.74 4228.27,4508.29C4265.15,4512.87 4272.94,4515.67 4294.84,4525.37C4301.78,4528.45 4370.84,4573.57 4474.52,4636.85C4462.48,4639 4384.94,4661.43 4319.02,4741.95C4255.68,4819.31 4355.51,4910.19 4355.31,4910.43C4350.04,4916.65 4278.65,4877.12 4269.21,4910.83C4258.65,4948.52 4356.92,4952.97 4348.81,4936.86C4338.73,4916.87 4270.28,4983.55 4292.86,5003.9C4328.57,5036.11 4391.09,4962.82 4361.76,4950.7C4339.18,4941.37 4383.66,5054.94 4414.02,5039.2C4467.58,5011.41 4398.2,4928.94 4384.73,4944C4370.11,4960.37 4473.42,4975.22 4476.49,4937.42C4478.34,4914.77 4376.95,4898.49 4385.7,4919.03C4395.48,4941.98 4446.6,4887.47 4431.64,4858.94C4413.54,4824.41 4349.51,4873.11 4358.67,4908.92C4351.25,4883.53 4251.11,4833.36 4322.46,4736.41C4368.11,4674.37 4431.64,4642.02 4431.64,4642.02C4431.64,4642.02 4289.16,4636.64 4287.46,4632.93C4268.57,4629.6 4228.14,4637.51 4134.05,4656.87C3984.35,4687.68 4068.3,4890.27 4105.36,5048.73C4090.84,5049.77 4042.12,4985.76 4017.05,5013.8C3977.68,5057.86 4090.94,5100.67 4093.46,5076.74C4095.78,5054.61 3967.61,5114.54 3994.16,5153.77C4023.48,5197.1 4126.27,5116.5 4110.35,5102.89C4084.67,5080.93 4089.34,5220.56 4121.05,5218.77C4166.48,5216.2 4173.18,5101.93 4144.53,5106.55C4103.77,5113.11 4218.51,5162.53 4220.38,5128.67C4222.02,5098.95 4138.8,5051.07 4140.65,5074.28C4142.97,5103.4 4219.27,5039.05 4186.7,5002.77C4169.88,4984.03 4110.59,5035.81 4112.76,5045.88C4060.41,4905.2 4052.36,4716.99 4071.4,4694.28C3997.2,4734.16 3994.57,4743.38 3923.09,4787.39C3861.12,4825.55 3708.87,4974.15 3708.87,4974.15C3708.87,4974.15 3682.61,4877.79 3640.67,4888.21C3586.11,4901.76 3650.28,5038.98 3675.51,4999.78C3696.65,4966.93 3582.7,4943.23 3559.41,5010.64C3541.3,5063.05 3692.96,5070.79 3667.56,5041.32C3632.29,5000.41 3592.44,5125.46 3630.22,5139.86C3673.61,5156.39 3735.51,5062.34 3705.26,5058.16C3664.84,5052.58 3738.85,5165.81 3779.18,5128.06C3808.73,5100.41 3735.52,5002.61 3718.78,5020.65C3693.86,5047.51 3818.34,5073.18 3815.47,5006.33C3813.15,4952.23 3718.44,4975.23 3718.44,4975.23C3733.28,4930.12 3774.62,4911.75 3800.17,4888.3C3851.87,4840.86 3895.08,4813.92 3916.35,4791.67C4267.82,4424.15 4938.63,4806.06 5012.37,4916.49C4918.13,4883.83 4841.01,4873.95 4768.57,4882.28C4698.64,4890.32 4660.42,4976.93 4660.42,4976.93C4612.21,5067.36 4598.84,5179.98 4615.15,5311.49C4604.26,5299.69 4415.08,5289.91 4311.49,5401.4C4311.34,5400.36 4398.42,5363.26 4422.1,5387.58C4450.04,5416.29 4323.64,5462.58 4330.08,5432.88C4335.99,5405.61 4437.59,5509.77 4410.11,5536.69C4384.17,5562.11 4285.56,5471.2 4316.71,5463.23C4353.22,5453.89 4304.8,5582.09 4259.96,5570.2C4222.29,5560.21 4265.39,5438.41 4278.22,5457.15C4291.56,5476.62 4157.81,5486.89 4160.79,5433.39C4163.5,5384.69 4296.25,5411.01 4283.14,5425.24C4266.7,5443.07 4208.73,5315.74 4267.25,5307.97C4304.13,5303.07 4305.92,5409.91 4308.36,5399.52C4323.25,5336.14 4624.96,5270.39 4615.15,5311.49C4615.15,5311.49 4607.78,5211.65 4613.83,5159.13C4647.97,5204.32 4776.72,5187.19 4832.66,5232.13C4832.66,5232.13 4828.35,5183.31 4859.65,5187.18C4893.72,5191.39 4881.99,5246.2 4867.53,5228.27C4852.41,5209.52 4913.49,5205.28 4919.79,5228.89C4930,5267.12 4885.9,5281.25 4882.87,5256.09C4880.58,5237.06 4922.57,5280.68 4907.16,5301.06C4887.43,5327.15 4844.44,5279.35 4867.65,5278.07C4884.02,5277.16 4860.78,5326.94 4836.9,5316.22C4802.09,5300.59 4823.53,5258.29 4837.57,5270.95C4847.59,5279.98 4789.09,5300.68 4788.28,5263.28C4787.67,5234.93 4827.94,5239.3 4827.94,5239.3C4761.8,5173.03 4694.88,5214.05 4613.3,5166.27C4602.76,5381.3 4674.2,5573.83 4674.2,5573.83C4674.2,5573.83 4693.52,5513.09 4721.86,5526.47C4756.47,5542.8 4713.99,5597.3 4706.7,5581.67C4695.6,5557.88 4775.38,5566.97 4774.25,5595.31C4772.67,5634.75 4693.85,5619.83 4709.62,5604.03C4719.11,5594.52 4761.67,5652.53 4739.75,5668.77C4709.92,5690.87 4670.7,5621.46 4687.52,5619.36C4697.35,5618.14 4687.78,5692.34 4650.02,5673.87C4622.97,5660.64 4650.06,5592.35 4665.39,5610.95C4674.66,5622.21 4608,5654.48 4599.57,5613.24C4592.87,5580.47 4665.94,5583.82 4665.94,5583.82C4665.94,5583.82 4642.47,5545.9 4618.43,5343.36C4599.69,5185.51 4611.37,4967.15 4735.26,4896.29C4865.54,4821.77 5091.33,4962.67 5142.2,5008.51C5165.43,5029.44 5487.14,5327.23 5505.77,5341.58C5509.12,5344.15 5564.77,5352.21 5572.92,5305.32C5582.05,5252.78 5560.09,5216.6 5560,5216.37C5561.66,5218.6 5576.65,5269.81 5629.74,5267.03C5648.39,5266.05 5649.21,5265.61 5658.23,5249.8C5686.79,5199.69 5664.62,5197.55 5648.73,5142.26C5686.64,5161.81 5695.75,5189.39 5716.04,5152.09C5726.47,5132.9 5704.95,5058 5702.68,5050.09C5764.59,5057.23 5779.62,5084.7 5810.9,5030.77C5822.62,5010.57 5813.33,4977.84 5810.23,4972.62C5807.06,4967.27 5803.6,4961.45 5748.39,4925.41C5755.15,4929.61 5830.84,4976.65 5843.42,4954.56C5845.43,4951.04 5841.49,4925.23 5835.86,4912.22C5833.42,4906.56 5832.22,4907.85 5786.45,4853.07C5790.45,4855.85 5836.86,4854.5 5836.86,4854.5C5858.97,4861.66 5965.36,4908.56 5900.65,4771.99C5902.48,4772.19 5975.7,4799.54 5987.95,4744.26C5995.02,4712.4 5985.41,4714.02 5965.69,4687.55C6000.52,4664.97 6009.04,4670.1 6011.57,4645.37C6014.47,4616.94 5991.94,4578.62 5979.05,4585.64C5964.24,4593.7 6038.98,4609.08 6058.87,4556.82C6075.03,4514.39 5979.98,4452.49 5987.73,4449.82C6001.33,4459.84 6060.23,4515.01 6123.83,4431.13C6132.05,4420.29 6128.24,4412.51 6127.53,4411.05C6125.92,4407.77 6093.56,4390.67 6057.97,4367.78C6122.26,4383.9 6164.41,4360.28 6167.69,4350.47C6174.94,4328.8 6131.52,4291.45 6088.92,4259.93C6090.48,4259.72 6200.65,4304.78 6207.77,4248.64C6214.62,4194.7 6196.52,4200.12 6162.32,4157.23C6194.22,4154.13 6246.77,4154.97 6246.43,4125.22C6246.13,4099.89 6157.93,4007.67 6186.86,4006.66C6189.13,4006.58 6278.98,4019.71 6294.09,4000.51C6309.2,3981.32 6227.37,3964.92 6199.28,3900.69C6199.45,3900.62 6314.05,3895.32 6349.56,3857.53C6363.17,3843.05 6230.78,3827.84 6251.45,3807.48C6273.88,3785.39 6399.89,3772.81 6281.78,3714.76C6339.48,3696.84 6334.36,3713.92 6339.03,3705.72C6368.01,3654.87 6193.69,3642.15 6282.65,3621.11C6308.85,3614.92 6381.48,3614.24 6360.12,3589.75C6341,3567.82 6360.04,3588.73 6195.79,3545.06L6350.45,3512.67L6244.49,3461.81C6401.39,3478.93 6381.5,3376.47 6275.16,3370.56C6347.91,3347.02 6380.51,3321.46 6380.51,3321.46C6380.51,3321.46 6353.51,3292.19 6314.92,3285.21C6303.69,3215.1 6412.94,3213.01 6345.07,3183.37C6325.06,3167.05 6145.14,3240.68 5848.43,3256.31C5665.94,3265.92 5551.09,3039.82 5506.1,3020C5504.01,3084.63 5631,3288.66 5746.23,3314.12C5647.94,3303.99 5593.38,3306.8 5517.56,3264.84C5449.23,3227.03 5389.5,3084.08 5320.4,3018.14C5335.94,3195.62 5458.64,3328.84 5515.87,3348.18C5502.25,3345.33 5462.41,3349.89 5430.06,3330.12C5403.02,3313.59 5403.44,3314.12 5375.19,3298.13C5334.43,3275.05 5292.27,3256.96 5256.08,3216.58C5214.05,3169.67 5203.11,3058.57 5122.98,3016.71C5061.43,2984.55 5129.96,3134.57 5163.73,3225.09C5231.9,3407.84 5321.84,3381.49 5321.84,3381.49C5321.84,3381.49 5520.43,3342.15 5632.98,3334.84C5655.03,3333.41 5931.9,3277.2 5942.44,3273.48C6003.21,3252.04 6067.34,3249.56 6129,3232.19C6214.21,3208.21 6312.92,3201.1 6345.07,3183.37C6368.61,3170.38 6356.24,3164.12 6360.19,3115.92C6363.14,3079.94 6241.64,3056.47 6241.64,3056.47C6263.86,3061.85 6414.62,3013.41 6360.87,2956.35C6324.87,2918.13 6244.69,2904.1 6244.69,2904.1C6317.04,2888.88 6332.61,2850.59 6356.91,2799.53C6320.65,2755.86 6163.66,2772.57 6179.04,2761.52C6207.5,2741.07 6369.35,2722.33 6392.5,2663.61C6399.17,2646.69 6232.9,2651.35 6218.98,2651.74C6393.76,2603.79 6356.84,2550.9 6344.09,2548.2C6336.07,2546.5 6303.42,2547.01 6299.88,2547.07C6235.66,2548.09 6228.95,2543.1 6213.32,2542.23C6225.44,2537.54 6345.48,2491.11 6335.8,2436.9C6331.35,2411.96 6244.9,2413.82 6236.74,2413.99C6158.06,2415.68 6143.3,2428.1 6124.9,2436.22C6188.94,2408.57 6278.07,2370.48 6264.65,2336.83C6246.49,2291.25 6114.26,2313.61 6084.63,2317.22C6137.95,2294.09 6193.68,2283.7 6234.89,2209.07C6252.35,2177.47 6184.92,2145.8 6091.5,2147.15C6112.93,2124.47 6199.5,2118.16 6198.39,2082.52C6196.88,2033.68 6046.81,2033.16 6034.38,2036.91C6094.15,2002.93 6097.36,2004.51 6117.15,1940.01C6144.89,1849.58 5957.17,1934.02 5956.64,1916.85C5956.41,1909.76 6086.92,1855.22 6022.47,1770.59C5986.63,1723.52 5844.18,1756.46 5844.18,1756.46C5844.18,1756.46 5898.34,1676.26 5897.72,1590.28C5896.97,1485.3 5783.42,1555.42 5725.25,1553.96C5768.78,1529.92 5745.57,1419.92 5745.57,1419.92C5745.57,1419.92 5697.84,1397.74 5582.32,1438.14L5477.04,1497.47C5336.67,1540.66 5369.93,1563.4 5273.87,1633.42C5232.71,1663.43 5162.29,1677.96 5123.2,1747.08C5130.3,1748.51 5201.42,1843.63 5212.91,1851.09C5246.35,1872.76 5413.08,2007.49 5561.83,2125.04C5701.68,2235.56 5279.33,2032.52 5279.33,2032.52L5521.48,2241.87C5521.48,2241.87 5359.73,2273.01 5296.58,2208.13C5395.18,2377.67 5489.33,2347.72 5473.88,2375.56C5458.43,2403.41 5263.79,2334.68 5197.02,2312.02C5137.46,2291.81 5376.59,2491.61 5306.9,2506.15C5271.03,2513.63 5095.92,2458.44 5095.92,2458.44C5095.92,2458.44 5156.06,2554.81 5178.09,2598.95C5209.87,2662.67 5040.1,2599.48 4994.92,2582.83C4945.11,2564.47 5022.32,2788.96 4905.4,2651.21C4851.83,2588.09 4870.51,2788.53 4845.81,2734.68C4814.55,2666.54 4704.84,2535.65 4754,2706.28C4770.77,2764.47 4774.26,2731.33 4652.81,2645.25C4720.81,2753.31 4707.64,2779.52 4708.44,2810.59C4709.88,2866.26 4610,2765.25 4560.29,2725.35C4666.73,2900.92 4619.56,2798.36 4633.16,2872.11C4641.21,2915.76 4486.75,2796.16 4480.91,2789.69C4480.84,2846.25 4553.28,2951.06 4496.79,2940.94C4453.4,2933.17 4408.82,2897.37 4344.46,2854.24C4346.12,2857.01 4465.95,2977.12 4328.47,2991.27C4249.57,2999.4 4191.84,2885.7 4190.97,2918.01C4188.84,2997.73 4185.31,3050.78 4051.57,2960.93C4086.59,3075.09 4143.8,3155.63 3991.73,3091.42C3961.84,3078.8 3924.47,3034.18 3898.18,3074.98C3887.74,3091.18 3958.01,3174.72 3919.79,3200.45C3899.76,3213.93 3873.69,3217.91 3796.27,3169.14C3818.61,3255.17 3828.6,3259.2 3812.2,3270.75C3793.65,3283.82 3765.8,3267.02 3762.36,3264.94C3753.85,3259.81 3755.51,3258.82 3669.72,3182.17C3666.08,3263.4 3703.41,3266.75 3677.74,3278.55C3655.22,3288.89 3627.56,3259.7 3573.52,3218.06C3580.07,3268.59 3621.6,3309.05 3570.19,3308.99C3538.45,3308.95 3457.76,3265.8 3444.13,3260.28C3457.45,3329.69 3484.43,3357.82 3428.07,3328.07C3301.93,3261.49 3280.61,3354.17 3299.21,3295.52C3322.87,3220.91 3393.12,3243.94 3369.48,3168.63C3332.09,3049.51 3441.38,3103.77 3441.45,3103.78C3438.84,3095.91 3398.53,2994 3419.06,2992.58C3467.64,2989.21 3495.09,3011.79 3489.31,2964.15C3471.73,2819.25 3607.06,2937.16 3631.03,2885.97C3635.43,2876.58 3560.9,2775.09 3594.01,2757.85C3666.6,2720.05 3764.11,2795.33 3724.74,2722.65C3708.68,2693.01 3679.55,2621.98 3690.69,2583.15C3694.84,2568.65 3765.6,2579.67 3785.11,2579.18C3958.2,2574.87 3717.93,2407.63 3808.25,2395.23C3880.52,2385.3 3945.33,2432.12 3911.33,2366.84C3906.93,2358.4 3855.68,2298.33 3853.02,2238.82C3851.23,2198.73 3914.54,2205.82 3932.86,2203.93C3919.92,2163.97 3856.8,2090.61 3976.36,2101.67C4104.89,2113.56 4001.19,2016.56 4039.54,1971.4C4051.3,1957.56 4180.98,2005.21 4151.04,1922.56C4132.41,1871.13 4119.01,1778.62 4122.47,1748.97C4122.8,1746.09 4167.68,1754.14 4264.73,1770.49C4214.89,1706.23 4197.28,1521.13 4228.48,1556.5C4280.07,1615.02 4388.21,1688.97 4392.44,1652.67C4393.04,1647.57 4331.66,1531.51 4349.23,1525.14C4377.44,1514.92 4450.89,1566.52 4458.68,1572C4453.02,1564.1 4336.92,1315.99 4517.29,1417.05C4680.01,1508.22 4717.35,1619.89 4683.42,1550.09C4656.98,1495.69 4510.14,1271.85 4538.11,1283.82C4613.69,1316.18 4723.08,1349.84 4775.05,1454.76C4781.03,1466.85 4865.89,1520.19 4887.39,1537.92C4954.57,1593.29 5105.64,1460.33 5133.55,1409.25C5177.67,1328.47 5268.52,1298.37 5290.59,1262.79C5290.59,1262.79 5470.62,1143.42 5424.24,1123.87C5402.92,1114.87 5330.23,1134.93 5322.31,1137.11C5374.37,1116.51 5377.29,1121.4 5392.41,1102.3C5395.12,1098.87 5427.1,1058.46 5378.05,1050.37C5323.07,1041.29 5285.47,1071.8 5285.22,1071.9C5287.57,1070.18 5341.26,1054.64 5338.6,1000.43C5337.67,981.392 5337.21,980.552 5320.7,971.424C5268.36,942.491 5266.01,965.145 5208.04,981.633C5228.69,942.826 5257.62,933.391 5218.66,912.851C5198.61,902.286 5120.08,924.622 5111.79,926.981C5119.55,863.726 5148.4,848.241 5092.07,816.548C5070.98,804.685 5036.66,814.326 5031.18,817.512C5025.56,820.781 5019.45,824.336 4981.45,880.894C4985.87,873.976 5035.49,796.453 5012.43,783.703C5008.74,781.668 4981.71,785.821 4968.05,791.627C4962.11,794.151 4963.46,795.373 4905.88,842.366C4908.81,838.275 4942.54,791.228 4942.54,791.228C4950.14,768.612 4949.69,622.952 4821.52,726.135C4821.74,724.262 4850.73,649.357 4792.9,637.109C4759.57,630.049 4761.23,639.849 4733.41,660.119C4709.94,624.659 4715.35,615.924 4689.47,613.467C4659.7,610.642 4619.48,633.833 4626.76,646.961C4635.13,662.044 4651.59,585.646 4596.96,565.578C4552.61,549.286 4467.68,669.113 4467.68,669.113C4467.68,669.113 4566.85,574.47 4465.66,499.844C4454.34,491.503 4446.19,495.424 4444.65,496.164C4441.2,497.819 4442.74,499.044 4418.6,535.498C4398.07,460.101 4391.66,458.737 4381.4,455.435C4358.74,448.138 4362.31,460.763 4329.1,504.413C4328.88,502.822 4333.72,421.995 4274.97,414.988C4221.85,408.654 4217.48,379.603 4154.87,532.716C4154.87,532.716 4170.65,360.325 4130.84,380.806C4114.35,389.291 4048.57,472.006 4048.57,472.006C4048.57,472.006 4071.99,374.572 4019.07,345.318C3955.32,310.076 3942.95,387.637 3893.73,447.169C3893.66,446.995 3911.49,348.145 3869.83,314.544C3866.77,312.076 3816.68,273.388 3788.35,284.348C3761.91,294.572 3787.81,275.528 3731.41,348.556C3731.41,348.556 3690.62,448.267 3681.64,494.952C3661.79,598.149 3655.4,603.148 3623.66,717.774C3588.34,845.348 3556.9,1203.12 3521.19,1314.07C3439.65,1567.4 3535.27,1610.77 3573.87,1591.11C3618.96,1568.15 3542.76,1153.31 3542.76,1153.31C3542.76,1153.31 3278.52,1515.16 3334.85,1541.1C3395.99,1569.25 3543.23,1277.55 3542.76,1153.31C3549.54,1267.43 3677.34,1625.42 3743.57,1582.86C3803.93,1544.07 3621,1131.53 3542.08,1146.88C3499.87,1155.1 3113.17,1309.02 3162.17,1390.59C3202.44,1457.63 3487.86,1247.6 3530.24,1144.76C3573.3,1040.24 3611.86,749.113 3592.48,755.754C3532.64,776.269 3455.02,832.945 3420.88,881.261C3297.56,1055.79 3405.37,971.621 3433.85,952.089C3462.33,932.557 3571.34,792.172 3592.48,755.754C3625.79,698.377 3688.85,404.74 3691.22,363.638C3691.22,363.638 3715.64,288.272 3707.08,283.538C3653.97,254.183 3639.82,432.272 3618.22,341.52C3611.85,314.797 3582.11,243.935 3556.37,265.86C3533.31,285.498 3540.49,289.892 3493.98,457.841C3499.22,339.621 3504.62,307.271 3445.75,273.228C3383.79,237.402 3375.55,266.575 3354.85,334.051C3321.02,265.198 3313.06,262.941 3306.19,260.991C3267.88,250.125 3278.09,272.815 3266.63,310.168C3146.68,181.954 3160.73,325.33 3144.43,366.672C3130.17,402.856 3104.33,272.4 3054.08,273.808C3016.28,274.867 2983.76,392.887 2995.98,375.842C3013.24,351.756 2901,212.777 2877.11,265.775C2854.9,315.024 2902.69,382.062 2869.82,338.917L2802.35,262.853C2771.15,288.67 2776.65,390.302 2777.92,458.508C2777.92,458.508 2731.25,305.975 2689.81,289.725C2672.71,283.019 2677.31,450.508 2677.69,464.533C2629.33,288.497 2575.83,325.725 2573.09,338.565C2571.36,346.65 2571.86,379.537 2571.92,383.102C2572.9,447.797 2567.86,454.556 2566.96,470.309C2562.23,458.097 2515.37,337.208 2460.55,346.997C2435.33,351.501 2437.14,438.579 2437.32,446.8C2438.97,526.061 2451.52,540.918 2459.72,559.451C2431.8,494.955 2393.35,405.2 2359.32,418.734C2313.22,437.067 2335.73,570.251 2339.36,600.101C2316.01,546.4 2305.55,490.268 2230.12,448.805C2198.17,431.244 2193.7,454.408 2195,548.509C2172.08,526.941 2138.16,484.52 2102.13,485.659C2052.75,487.221 2097.87,636.537 2101.66,649.056C2067.34,588.876 2082.98,569.607 2017.77,549.717C1926.36,521.837 1960.46,707.231 1950.03,693.341C1856.2,568.398 1779.72,658.628 1779.72,658.628C1846.53,820.028 2054.82,1083.25 1908.35,1278.95C1894.01,1298.12 1750.2,1397.08 1674.02,1286.96C1516.69,1059.57 1763.85,958.269 1841.59,1089.57C1897.41,1183.84 1802.43,1238.17 1769.94,1211.01C1740.04,1186.02 1734.89,1180.01 1730.09,1145.08C1763.63,1271.73 1860.34,1205.49 1859.92,1160.53C1858.51,1011.55 1658.66,999.835 1628.85,1101.09C1601.07,1195.43 1667.7,1298.33 1713.77,1321.95C1777.44,1354.59 1844.03,1325.08 1844.03,1325.08C1844.03,1325.08 1942.15,1307.98 1968.55,1115.61C1972.5,1086.87 1956.17,1038.71 1956.17,1038.71C1956.17,1038.71 1983.49,1108.54 2094.04,1250.01C2162.16,1337.2 2312.51,1363.93 2346.98,1284.29C2384.52,1197.55 2369.93,960.755 2220.52,949.986C2065.27,938.796 2094.61,1292.25 2233.27,1199.61C2258.49,1182.76 2260.22,1125.9 2259.11,1123.12C2235.19,1063.14 2212.73,1049.39 2212.73,1049.39C2212.73,1049.39 2303.16,1126.5 2233.27,1199.61C2168.73,1267.12 2070.49,1131.56 2130.06,1008.32C2142.65,982.266 2201.05,909.501 2278.96,968.839C2399.47,1060.61 2366.77,1266.28 2346.24,1287.18C2262.44,1372.45 2160.9,1315.11 2081.85,1251.25C2102.98,1289.78 2200.46,1414.52 2262.01,1596.53C2319.3,1765.99 2200.63,1898.21 2077.77,1823.94C2020.47,1789.31 1990.01,1781.47 1968.81,1704.53C1942,1607.21 1998.68,1451.37 2110.99,1519.19C2195.26,1570.07 2202.11,1726.4 2097.01,1704.64C2034.58,1691.72 2052.52,1593.46 2084.51,1602.22C2084.51,1602.22 2029.07,1630.75 2065.16,1683.45C2119.44,1762.7 2246.52,1640.51 2118.91,1524.31C1988.47,1405.51 1837.89,1779.81 2134.46,1840.86C2212.67,1856.95 2325.18,1755.86 2248.15,1538.08C2248.15,1538.08 2319.28,1656.66 2388.83,1720C2481.93,1804.78 2596.16,1766.74 2647.49,1660.28C2698.8,1553.88 2642.86,1348.07 2504.18,1409.41C2395.08,1457.66 2414.69,1690.18 2487.83,1670.86C2601.78,1640.74 2596.79,1497.78 2509.45,1540.7C2549.31,1514.72 2610.77,1544.53 2556.64,1628.45C2535.43,1661.32 2450.72,1711.56 2430.74,1602.09C2418.07,1532.7 2426.22,1484.11 2476.22,1428.04C2524.07,1374.38 2597.32,1409.66 2604.12,1415.05C2618.37,1426.34 2692,1505.17 2664.88,1595.56C2598.47,1816.95 2470.39,1776.92 2378.18,1727.21C2552.12,1970.32 2445.47,2266.6 2343.26,2268.79C2140.99,2273.11 2170.68,1905.92 2355.45,1945.43C2414.36,1958.03 2405.5,2049.38 2372.38,2095.37C2368.88,2100.24 2281.75,2145.53 2293.55,2060.89C2288.66,2115.94 2318.28,2115.23 2348.72,2107.56C2421.46,2089.21 2426.04,1911.69 2305.49,1943.12C2141.95,1985.75 2208.23,2236.47 2279.29,2264.4C2339.47,2288.05 2441.26,2255.76 2462.97,2113.28C2482.42,1985.64 2495.65,1982.13 2444.43,1864.05C2448.08,1868.22 2453.46,1871.5 2496.25,1930.85C2504.14,1941.79 2506.77,1954.22 2583.87,2075.02C2585.24,2077.16 2629.53,2126.95 2642.91,2134.93C2707.46,2173.43 2883.55,2025.3 2772.71,1906.86C2732.75,1864.16 2568.23,1929.47 2662.76,2008.47C2721.64,2057.68 2742.31,1966.02 2719.99,1957.3C2733.55,1972.93 2733.38,2027.7 2691.22,2023.98C2656.81,2020.95 2597.65,1946.07 2675.77,1907.35C2715.63,1887.6 2748.74,1874.06 2785.11,1921.77C2858.52,2018.1 2712.28,2193.15 2622.24,2123.38C2611.1,2114.75 2529.01,2001.78 2496.82,1952.55C2581.83,2062.54 2584.59,2059.95 2623.23,2137.49C2682.68,2256.8 2787.64,2419.21 2641.98,2513.37C2536.8,2581.36 2407.57,2442.25 2472.7,2374.63C2503.58,2342.58 2531.98,2315.08 2574.79,2351.66C2624.82,2394.41 2572.75,2424.05 2566.39,2427.8C2657.52,2402.46 2529.18,2246.77 2456.74,2412.32C2437.8,2455.6 2511.43,2567.32 2641.98,2513.37C2717.34,2482.23 2709.07,2346.91 2690.71,2264.17C2732.29,2400.14 2850.39,2525.77 2927.7,2539.59C2976.56,2548.32 3046.48,2472.89 2985.45,2404.12C2965.82,2381.99 2928.67,2377.33 2915.23,2400.26C2897.11,2431.17 2913.24,2453.77 2951.06,2464.91C2919.74,2460.32 2869.86,2411.4 2940.74,2386.64C2998.99,2366.28 3039.42,2474.91 2990.67,2517.1C2987.32,2519.99 2931.99,2546 2911.95,2534.96C2878.67,2516.62 2813.73,2466.02 2778.81,2427.45C2750.53,2396.23 2704.43,2328.96 2703.66,2327.54C2652.47,2233.9 2677.36,2222.45 2620.86,2132.75C2571.37,2054.19 2502.83,1919.6 2472.57,1903.2C2443.82,1887.62 2359.18,1668.24 2212.92,1476.13C2153.6,1398.21 2074.3,1222.89 1981.99,1081.08C1929.65,1000.68 1848.54,833.679 1837.69,816.092C1818,784.171 1774.9,691.824 1760.86,673.44C1760.86,673.44 1772.64,796.488 1671.44,730.548C1595.96,681.36 1662.19,871.653 1680.43,908.586C1677.95,905.118 1631.18,820.628 1580.86,798.051C1540.24,779.825 1521,807.244 1519.59,825.324C1515.64,875.65 1527.3,873.384 1554.16,943.95C1494.94,887.508 1498.25,881.002 1471.59,875.889C1462.8,874.201 1435.72,878.604 1429,892.827C1406.89,939.618 1428.75,939.981 1459.64,1013.34C1417.91,976.779 1422.18,965.225 1389.87,967.472C1275.28,975.444 1405.52,1114.12 1405.52,1114.12C1405.52,1114.12 1267.24,1009.2 1265.24,1033C1264.03,1047.44 1334.98,1165.67 1334.98,1165.67C1334.98,1165.67 1266.03,1121.08 1216.24,1109.95C1189.45,1103.96 1175.21,1140.8 1166.94,1149.6C1127.61,1191.44 1158.1,1196.88 1188.72,1246.03C1185.63,1242.91 1112.73,1207.8 1114.8,1227.83C1119.26,1271.07 1135.88,1282.92 1149.01,1328.31C1154.15,1346.08 1098.97,1313.45 1064.68,1303.68C1061.02,1302.64 1050.75,1302.02 1057.43,1350.7C1058.08,1355.44 1083.51,1418.35 1083.51,1418.35C1083.51,1418.35 1064.99,1358.36 1010.18,1361.08C990.928,1362.04 962.067,1355.81 952.826,1372.45C923.535,1425.19 992.939,1432.51 1009.57,1490.89C970.346,1470.12 910.362,1461.35 889.567,1500.62C878.87,1520.82 952.884,1580.74 955.263,1589.1C891.31,1581.32 885.039,1580.91 821.321,1601.01C798.04,1608.35 851.693,1642.55 908.853,1680.8C873.15,1689.71 771.496,1671.84 777.357,1685.6C779.905,1691.58 820.126,1738.45 893.823,1774.81C893.823,1774.81 1129.88,1915.33 1264.02,2023.13C1234.8,1999.05 1151.11,1884.13 1190.11,1833.86C1212.05,1805.56 1260.72,1770.77 1312.24,1835.1C1364.81,1900.73 1359.53,1976.38 1358.82,1990.48C1363.35,1900.16 1356.28,1842.74 1442.68,1818.4C1563.4,1784.38 1566.12,1959.85 1410.58,2063.28C1429.06,2045.07 1559.73,1905.63 1646.02,2018.13C1673.28,2053.68 1674.68,2208.5 1418.47,2130.24C1451.57,2137.01 1506.19,2131.95 1543.87,2247.27C1554.38,2279.44 1505.67,2343.87 1459.13,2346.87C1439.77,2348.12 1353.51,2283.78 1341.18,2217.17C1340.3,2212.43 1335.78,2162.3 1337.61,2163.55C1350.64,2172.42 1300.2,2378.7 1196.16,2294.17C1155.13,2260.83 1139.06,2174.12 1265.86,2110.18C1184.67,2150.76 1091.48,2147.55 1077.71,2083.51C1055.15,1978.56 1278.47,2017.22 1267.27,2020.23C1244.95,2026.22 1360.46,1927.2 1412.29,2067.77C1444.64,2155.51 1315.49,2224.49 1268.57,2087.06C1262.92,2070.52 1266.31,2025.33 1267.27,2020.23C1164.95,1954.1 1102.41,1906.85 1101.76,1906.38C992.313,1827.59 795.616,1751.66 795.616,1751.66C772.753,1744.01 625.473,1744.57 729.715,1873.61C727.821,1873.39 652.104,1844.24 639.679,1902.5C632.517,1936.08 642.427,1934.41 662.904,1962.41C627.033,1986.09 618.205,1980.64 615.703,2006.72C612.826,2036.7 636.246,2077.21 649.525,2069.86C664.782,2061.42 587.546,2044.89 567.217,2099.93C550.713,2144.62 648.828,2203.24 648.828,2203.24C648.828,2203.24 538.297,2194.56 500.662,2232.25C490.638,2242.29 496.179,2251.87 496.927,2253.42C498.598,2256.89 499.837,2255.34 536.679,2279.63C460.43,2300.36 459.047,2306.82 455.701,2317.15C448.307,2339.99 461.075,2336.38 505.187,2369.82C503.578,2370.03 421.855,2365.21 414.731,2424.41C407.886,2481.27 426.552,2475.63 462.044,2521.01C429.113,2524.16 374.847,2523.06 375.324,2554.44C375.73,2581.16 435.932,2627.44 406.065,2628.38C403.72,2628.46 357.129,2612.14 327.514,2665.47C291.836,2729.72 314.905,2732.99 344.177,2800.87C344.001,2800.93 298.09,2801.36 264.086,2843.36C261.588,2846.44 246.883,2864.6 257.945,2893.14C268.264,2919.76 443.358,2948.74 495.127,2976.46C550.403,3006.06 652.209,3206.73 680.548,3240.67C899.117,3502.41 689.515,3080.11 567.955,3007.69C442.558,2932.99 909.569,3184.94 992.858,3268.64C1048.41,3324.46 947.469,3128.82 875.552,3094.92C803.376,3060.9 701.609,2991.17 595.464,3012.18C694.704,2968.89 765.416,2824.9 817.328,2742.9C868.925,2661.39 699.816,2799.4 664.849,2860.97C623.86,2933.14 557.984,2970.36 547.278,2995.48C815.85,2974.9 794.726,2968.08 878.787,2985.69C948.968,3000.4 961.373,2932.4 1000.9,2900.02C1044.5,2864.31 1173.61,2772.38 1146.39,2765.53C1080.02,2748.83 851.94,2956.41 772.172,2976.91C886.863,3014.78 980.963,3059.12 1019.56,3092.8C1078.28,3144.04 1172.04,3234.28 1215.65,3295.16C1239.63,3196.13 1071.59,3054.83 980.252,2996.32C999.469,3007.8 1190.03,3007.93 1258.57,3095.26C1341.93,3201.47 1519.72,3286.35 1537.7,3283.47C1485.08,3241.37 1338.42,3067.83 1320.91,3057.07C1295.05,3041.19 1173.64,3024.57 1131.77,3016.5C1239.95,3029.15 1502.75,2962.71 1556.28,2782.91C1364.59,2892.5 1174.98,2982.08 1141.42,2998.78C1112.74,3013.05 1185.79,3018.02 1211.01,3023.66C1505.72,3089.54 1679.27,2995.37 1837.72,2851.93C1862.59,2829.42 1387.42,2983.42 1414.27,3044.68C1427.76,3075.46 1594.01,3036.64 1713.98,3063.19C1723.3,3065.25 2000.9,2989.97 1996.97,2941.42C1993.75,2901.63 1599.35,3045.98 1578.15,3048.68C1530.83,3054.69 1771.21,3189.51 1895.33,3342.96C1934.66,3391.57 1813.63,3130.41 1721.14,3091.44C1648.39,3060.79 1573.12,3046.97 1489,3052.47C1595.41,3134.27 1632.91,3315.62 1718.29,3413.29C1731.71,3374.85 1683.58,3240.14 1659.79,3202.25C1623.96,3145.18 1579.77,3056.68 1567.08,3046.94C1590.31,3059.02 1639.29,3072.45 1748.65,3095.93C1817.55,3110.72 1819.5,3105.85 1881.27,3134.98C1899.42,3143.54 2077.39,3376.91 2177.25,3352.79C2202.02,3346.81 1968.83,3185.26 1968.83,3185.26C1968.83,3185.26 1904.64,3139.92 1924.51,3149.79C1955.76,3165.31 2069.45,3135.58 2131.83,3105.37C2194.21,3075.17 2282.76,2987.66 2273.57,2926.82C2267.99,2889.88 2154.96,3014.36 2101.48,3047.14C2052.98,3076.87 1969.94,3153.39 1969.94,3153.39C1969.94,3153.39 2063.57,3178.3 2096.76,3196.82C2219.07,3265.05 2372.84,3498.17 2428.39,3522.89C2459.18,3536.59 2428.4,3393.71 2341.33,3320.47C2274.58,3264.33 2128.12,3179.69 2102.37,3174.93C2121.85,3178.63 2255.69,3176.43 2347.66,3158.23C2354.46,3156.88 2578.39,3084.72 2556.09,3073.64C2395.03,2993.66 2223.21,3180.89 2102.37,3174.93C2009.92,3170.38 1974.63,3158.15 1884.03,3119.97C1710.05,3046.66 1569.19,3075.78 1358.05,3051.52C1211.46,3034.68 1210.87,3038.68 1198.17,3037.04C1036.37,3016.09 999.316,2999.68 980.252,2996.32C763.004,2958.03 682.935,3037.01 519.426,2984.3C398.499,2945.31 269.849,2930.67 265.056,2939.3C235.338,2992.81 431.767,3064.22 339.991,3086.04C312.966,3092.47 241.296,3122.48 263.447,3148.4C283.287,3171.61 382.635,3217.45 382.635,3217.45C360.282,3219.66 325.607,3201.21 238.082,3245.99C173.795,3278.89 264.044,3330.55 332.257,3351.35C262.615,3385.48 260.327,3393.5 258.351,3400.43C247.337,3439.02 270.287,3428.72 308.047,3440.24C178.324,3561.16 323.304,3546.91 365.094,3563.3C401.671,3577.64 269.747,3603.76 271.136,3654.38C272.18,3692.45 395.325,3710.73 374.264,3712.84C337.995,3716.47 198.744,3799.6 257.326,3795.6C488.487,3779.85 322.794,3849.09 253.362,3863.67C290.574,3907.22 458.302,3877.45 440.467,3884.05C419.583,3891.77 304.452,3916.05 280.202,3975.02C273.216,3992.01 448.325,3969.68 462.711,3969.21C281.872,4018.26 290.41,4062 329.546,4090.38C336.382,4095.33 371.555,4091.33 375.212,4091.25C441.565,4089.87 437.104,4064.02 790.247,4017.69C998.491,3990.37 1171.54,3920.58 1426.27,3889.83C1438.46,3888.36 1557.57,3861.13 1574.54,3916.51C1593.01,3976.82 1482.17,3978.35 1468.62,3979.03C1393.31,3982.84 1250.48,3928.7 1233.46,3924.06C1234.57,3922.39 1431.44,3716.48 1491.93,3766.77C1555.29,3819.44 1481.46,3851.28 1452.71,3862.04C1356.14,3898.17 1287.95,3880.2 1233.46,3924.06C1308.16,3957.51 1320.03,3959.06 1398.07,3983.41C1481.04,4009.3 1550.36,4043.11 1482.96,4087.57C1430.68,4122.04 1208.1,3967.47 1200.5,3925.77C1187.11,3852.32 1278.61,3758.38 1307.33,3726.61C1312.54,3720.86 1381.51,3663.45 1401.57,3707.04C1414.05,3734.16 1292.7,3881.01 1223.21,3918.81C1189.91,3936.92 1170.2,3952.33 748.152,4023.26C561.528,4054.63 327.861,4127.39 341.524,4161.03C360.031,4206.6 462.761,4208.11 493.396,4204.32C459.146,4218.89 367.698,4259.65 373.731,4280.95C379.764,4302.25 533.382,4316.83 533.382,4316.83C533.382,4316.83 433.907,4379.96 422.038,4413.9C409.95,4448.47 445.928,4465.6 542.439,4463.71C520.175,4486.56 476.454,4520.44 477.393,4556.15C478.68,4605.07 632.096,4559.4 644.958,4555.57C583.023,4589.97 563.361,4574.58 542.548,4639.33C513.374,4730.09 712.809,4652.6 713.262,4669.8C713.449,4676.91 602.709,4777.31 662.126,4866.32C699.272,4921.97 817.327,4854.05 840.102,4843.57C840.025,4843.62 725.642,4895.23 725.788,4981.38C725.94,5070.66 870.437,4989.65 908.429,4971.34C904.857,4973.82 817.911,5020.71 794.437,5070.72C775.487,5111.09 803.483,5129.97 822.016,5131.26C873.601,5134.86 871.352,5123.32 943.891,5096.25C885.63,5155.29 878.98,5152.06 873.566,5178.5C871.779,5187.23 876.122,5214.03 890.665,5220.6C938.51,5242.21 939.021,5220.55 1014.45,5189.47C976.689,5231.05 964.867,5226.9 966.966,5258.9C974.411,5372.41 1081.28,5273.72 1100.51,5264.32C1017.87,5301.1 1057.35,5390.1 1081.74,5391.93C1096.55,5393.04 1085.62,5414.27 1218.07,5326.74C1141.15,5360.53 1182.49,5383.14 1157.63,5414.5C1140.41,5436.22 1143.35,5470.52 1152.32,5478.66C1194.98,5517.37 1200.75,5487.12 1251.35,5456.46C1248.13,5459.54 1204.57,5480.26 1219.44,5493.92C1222.63,5496.84 1223.86,5492.93 1271.65,5512.26C1293.63,5521.15 1368.84,5500.64 1377.04,5498.4C1323.13,5519.35 1320.14,5514.46 1304.42,5533.68C1301.59,5537.14 1268.33,5577.81 1318.96,5585.64C1375.69,5594.42 1414.72,5563.63 1414.98,5563.53C1412.54,5565.26 1356.98,5581.15 1359.42,5635.45C1360.28,5654.52 1409.22,5612.1 1469.2,5595.25C1447.64,5634.25 1406.16,5684.77 1446.3,5705.12C1466.95,5715.59 1539.78,5667.64 1539.07,5669.6C1455.97,5899.55 1764.54,5535.61 1791.64,5488.56C1814.27,5449.28 1853.96,5397.96 1853.32,5394.22C1829.47,5289.66 1809.34,5187.57 1738.41,5093.02C1738.41,5093.02 1626.26,5030.93 1503.08,5079.71C1650.75,5026.34 1672.55,5081.42 1728.4,5072.4C1656.57,4904.21 1634.97,4871.64 1619.31,4862.06C1580.27,4838.16 1413.89,4821.7 1397.71,4818.8C1574.59,4822.58 1631.09,4862 1623.62,4846.91C1542.19,4682.53 1551.2,4664.85 1538.67,4655.85C1466.04,4603.68 1331.21,4599.77 1312.15,4599.22C1498.37,4601.12 1542.38,4655.53 1537.89,4637.75C1535.52,4628.36 1523.83,4386.92 1523.83,4386.92C1523.6,4512.59 1558.42,4733.69 1582.35,4721.82C1614.77,4629.04 1609.82,4596.34 1667.1,4532.56C1617.8,4591.05 1584.2,4722.32 1588.54,4740.72C1591.22,4752.07 1699.22,5015.02 1802.02,5184.72C1810.15,5198.15 1864.95,4995.79 1847.77,4954.72C1785.41,4805.59 1776.02,4812.54 1738.79,4787.16C1802.39,4806.68 1827.19,4914.26 1860,4961.47C1861.78,4949.04 1881.26,4807.82 1876.19,4786.34C1871.46,4766.33 1890.13,4845.37 1856.2,5052.88C1908.35,5000.9 1921.92,4988.48 1979.35,4950.8C1872.21,5031.77 1852.12,5057.05 1821.39,5188.33C1820.99,5190.07 1817.84,5203.51 1819.06,5210.31C1820.21,5216.77 1838.54,5252.09 1839.98,5255.52C1866.07,5317.89 1863.81,5324.57 1886.77,5370.86C2006.33,5087.77 2077.03,5049.16 2057.85,5007.24C2028.04,4942.14 1998.01,4738.03 1998.01,4738.03C1934.33,4736.55 1908.31,4592.53 1875.22,4539.19C1920.05,4582.95 1935.85,4725.61 1996.48,4723.22C1996.48,4723.22 2005.72,4715.47 1999.89,4637.54C1995.5,4578.81 2001.4,4578.03 2002.92,4543.21C2014.02,4487.98 2032.59,4451.97 2081.04,4332.29C2058.52,4270.94 2128.51,4159.71 2125.1,4085.73C2134.88,4175.94 2069.05,4222.65 2083.75,4309.59C2144.87,4253.11 2127.66,4180.91 2304.25,4149.95C2210.92,4169.87 2127.35,4162.47 2001.3,4527.93C1977.89,4440.21 2016.43,4394.03 1935.31,4272.2C1967.88,4214.05 1963.35,4181.59 1962.15,4123.59C1963.93,4180.93 1952.81,4228.25 1929.24,4263.27C1870.66,4252 1875.12,4185.92 1857.55,4153.99C1866.03,4277.72 1927.46,4252.77 1955.69,4311.64C1981.09,4364.6 1984.47,4403.1 1984.47,4403.1C1984.47,4403.1 1998.55,4682.03 2018.89,4818.8C2041.17,4714.61 2128.68,4598.48 2128.68,4598.48C2078.2,4664.84 2042.91,4751.74 2021.49,4827.46C2021.49,4827.46 2049.98,4950.3 2050.45,4949.48C2124.94,4820.81 2140.88,4695.6 2289.54,4578.01C2283.18,4544.23 2284.81,4503.89 2283.67,4473.85C2277.11,4301.72 2345.81,4258.51 2345.81,4258.51C2271.55,4333.26 2290.59,4553.99 2295.67,4570.53C2355.35,4529.72 2365.77,4527.68 2430.28,4494.65C2320.26,4553.85 2243,4612.32 2178.38,4706.43C2163.32,4728.36 2053.94,4955.5 2053.94,4955.5C2053.94,4955.5 2054.22,4991.63 2074.73,5017.74C2220.54,4878.47 2232.56,4860.14 2394.04,4752.3C2455.7,4711.12 2453.77,4707.58 2458.74,4704.74C2495.54,4683.76 2701.2,4635.88 2813.96,4612.33C2659.83,4640.48 2484.73,4676.21 2449.95,4713.51C2506.96,4658.54 2528.17,4634.78 2580.26,4540.38C2599.67,4505.2 2761.92,4449.95 2857.07,4391.61C2786.02,4428.99 2626.51,4492.99 2577.35,4533.02C2595.21,4453.28 2567.57,4370.75 2659.18,4280.24C2558.71,4365.36 2580.95,4526.19 2577.35,4533.02C2568.1,4550.57 2544.44,4664.65 2372.02,4776.43C2425.23,4790.38 2597.87,4789.15 2597.87,4789.15C2597.87,4789.15 2398.17,4799.1 2355.84,4787.08C2301.66,4820.68 2330.56,4801.21 2260.18,4858.5C2186.27,4918.66 2172.59,4930.85 2113.52,4991.75C2189.25,4967.51 2287.62,4992.22 2287.62,4992.22C2213.8,4989.26 2141.82,4987.72 2098.38,5008.31C2079,5013.67 1979.43,5189 1981.96,5198.9C1990.16,5230.94 2097.97,5205.04 2231.33,5124.16C2169.56,5163.16 2128.64,5190.68 2073.79,5205.32C2046.27,5212.67 2012.31,5211.67 1978.91,5243.3C1957.79,5263.31 1927.15,5354.84 1921.35,5365.67C2121.2,5292.55 2347.8,5315.89 2380.94,5280.34C2384.98,5276.01 2408.85,5142.02 2480.76,5034.66C2423.32,5115.97 2411.69,5249.36 2391.78,5278.78C2425.75,5297.62 2509.46,5276.62 2526.02,5255.7C2564.26,5207.41 2590.91,5173 2622.18,5133.03C2655.39,5090.59 2632.26,5036.01 2610.33,4960.88C2645.66,5026.66 2647.52,5107.07 2636.69,5122.82C2664.75,5079.99 2779.75,4986.76 2845.75,4965.05C2766.64,5007.34 2629.3,5132.14 2628.81,5139.47C2693.83,5119.31 2815.42,5072.52 2878.67,5113.03C2791,5093.31 2729.14,5107.38 2627.75,5149.52C2586.79,5166.55 2553.93,5237.27 2527.89,5266.13C2587.44,5286.33 2839.85,5295.48 2839.85,5295.48C2561.19,5297.45 2505.53,5252.78 2521.09,5297.39C2545.47,5367.3 2668.54,5395.34 2698.27,5460.95C2654.93,5388.47 2527.85,5375.08 2509.96,5280.61C2429.93,5306.55 2401.72,5291.37 2382.88,5294.98C2250.67,5320.24 2220.34,5315.07 2200.95,5321C2285.87,5382.51 2269.68,5395.24 2304.33,5427.3C2350.73,5470.25 2377.83,5476.91 2385.33,5481.27C2401.78,5458.02 2448.48,5444.21 2461.48,5388.38C2450.05,5461.66 2392.09,5487.94 2392.09,5487.94C2392.09,5487.94 2507.14,5554.34 2549.27,5558.83C2518.65,5557.68 2420.54,5502.57 2389.92,5501.42C2372.34,5566.74 2408.59,5669.14 2482.92,5715.88C2409.31,5675.52 2362.32,5568.5 2377.38,5497.91C2320.31,5524.35 2250.05,5589.44 2276.4,5656.5C2256.55,5559.03 2332.83,5522.79 2370.3,5480.57C2308.66,5448.64 2301.73,5426.47 2249.4,5376.7C2216.47,5345.39 2191.21,5328.32 2153.55,5329.07C2108.95,5329.95 2050.17,5349.35 1993.23,5357.26C2003.1,5362.93 2056.16,5394.37 2092.52,5460.42C2140.72,5456.25 2161.24,5502.76 2213.45,5495.08C2167.48,5501.3 2107.95,5461.99 2098.89,5471.03C2093.16,5476.74 2063.42,5569.13 2063.08,5660.77C2061.26,5612.87 2079.75,5520.55 2086.09,5470.38C2066.59,5429.71 2062.32,5429.65 2030.6,5401.45C2006.55,5380.08 1984.09,5374.12 1961,5379.7C1912.8,5391.34 1739.99,5624.39 1702.15,5705.56C1702.15,5705.56 1671.39,5838.09 1695.14,5850.73C1698.93,5852.75 1726.89,5848.44 1741.03,5842.54C1747.18,5839.98 1745.79,5838.76 1805.55,5791.34C1802.5,5795.46 1767.38,5842.79 1767.38,5842.79C1759.4,5865.5 1759.03,6011.44 1892.03,5907.32C1891.8,5909.2 1861.42,5984.42 1921.08,5996.36C1955.48,6003.24 1953.83,5993.43 1982.67,5972.96C2006.73,6008.36 2001.08,6017.14 2027.81,6019.45C2058.54,6022.11 2100.23,5998.65 2092.78,5985.53C2084.22,5970.47 2064.17,6076.5 2123.1,6066.91C2189.09,6056.17 2243.9,5995.31 2212.45,6121.44C2208.99,6135.31 2275.54,6111.91 2300.69,6075.25C2321.46,6150.68 2334.58,6172.78 2345.15,6176.03C2368.52,6183.22 2391.73,6161.99 2426.3,6118.07C2426.51,6119.66 2394.22,6209.27 2454.88,6215.95C2513.15,6222.37 2507.49,6203.91 2554.26,6168.45C2557.27,6201.06 2555.8,6254.85 2587.98,6254.17C2615.38,6253.6 2663.23,6193.65 2664.01,6223.24C2664.07,6225.56 2647.04,6271.84 2701.55,6300.84C2767.21,6335.79 2755.82,6246.9 2825.62,6217.46C2825.68,6217.63 2795.68,6297.59 2838.53,6331.02C2841.67,6333.47 2889.39,6350.08 2918.73,6338.94C2946.09,6328.54 3000.82,6221.35 3000.82,6221.35C3019.57,6280.2 3042.42,6366.18 3051.24,6370.88C3105.93,6399.98 3174.62,6149.01 3196.42,6239.81C3202.84,6266.55 3235.98,6368.15 3235.98,6368.15" style="fill:none;"/>
</svg>
