<?xml version="1.0" encoding="UTF-8" standalone="no"?>
<svg
   width="100%"
   height="100%"
   viewBox="0 0 5100 3300"
   version="1.1"
   xml:space="preserve"
   style="fill-rule:evenodd;clip-rule:evenodd;stroke-linejoin:round;stroke-miterlimit:2;"
   id="svg1"
   sodipodi:docname="field.svg"
   inkscape:version="1.4.2 (f4327f4, 2025-05-13)"
   xmlns:inkscape="http://www.inkscape.org/namespaces/inkscape"
   xmlns:sodipodi="http://sodipodi.sourceforge.net/DTD/sodipodi-0.dtd"
   xmlns="http://www.w3.org/2000/svg"
   xmlns:svg="http://www.w3.org/2000/svg"><defs
   id="defs1" /><sodipodi:namedview
   id="namedview1"
   pagecolor="#ffffff"
   bordercolor="#000000"
   borderopacity="0.25"
   inkscape:showpageshadow="2"
   inkscape:pageopacity="0.0"
   inkscape:pagecheckerboard="0"
   inkscape:deskcolor="#d1d1d1"
   inkscape:zoom="0.13151515"
   inkscape:cx="1935.1383"
   inkscape:cy="1771.659"
   inkscape:window-width="1920"
   inkscape:window-height="1112"
   inkscape:window-x="-8"
   inkscape:window-y="-8"
   inkscape:window-maximized="1"
   inkscape:current-layer="layer1" />
    
<g
   inkscape:groupmode="layer"
   id="layer1"
   inkscape:label="Layer 1"><path
     d="m 2775.23,6099.7 c 0,0 -32.9,-68.88 36.7,-209.47 0,0 51.68,-188.58 70.76,-341.91 39.37,-316.41 20.22,-122.89 41.47,-239.37 0.72,14.61 -94.55,161.46 -135.36,118.21 -41.9,-44.41 91.78,-142.69 91.78,-142.69 0,0 -161.35,78.49 -185.11,14.38 -34.06,-91.85 192,-44.16 192,-44.16 0,0 -221.14,-24.04 -125.74,-108.8 60.58,-53.83 157.04,90.16 152.47,77.51 -33.61,-93.25 -25.43,-148.47 32.9,-141.5 69.28,8.29 6.41,145.83 6.41,145.83 0,0 86.94,-154.75 160.09,-77.27 64.4,68.23 -140.89,118.57 -140.89,118.57 0,0 198.99,0.99 187.06,65.09 -15.72,84.4 -201.86,-38.22 -201.86,-38.22 0,0 145.79,115.15 95.83,171.7 -20.3,22.98 -132.64,6.03 -129.58,-158.65 -98.86,-32.83 6.57,-111.38 37.39,-67.52 39.25,55.86 -37.39,67.52 -37.39,67.52 0,0 -19.52,109.83 -21.2,119.51 -54.17,311.25 -81.93,427.06 -81.93,427.06 -23.97,103.29 6.31,262.13 108.97,52.94 19.59,65.96 12.01,117.08 17.95,119.88 33.09,15.59 48.51,-57.27 65,-88.37 88.3,131.78 53.43,35.59 74.97,1.75 18.86,-29.63 -36.4,94.98 9.55,101.64 34.56,5.01 78.05,-106.71 70.87,-119.45 -13.24,-23.5 -3.2,171.54 27.15,128.63 28.2,-39.89 20.11,-116.53 43.01,-73.37 l 11.07,62.3 c 43.23,-23.9 83.61,-165.47 83.61,-165.47 0,0 0.36,123.97 47.42,152.21 13.56,8.13 67.77,-139.62 69.57,-151.37 14.43,153.93 65.72,130.86 70.01,120.56 2.7,-6.48 7.28,-33.96 7.78,-36.94 9.01,-54.07 14.34,-58.96 17.5,-71.95 2.18,10.88 23.72,118.62 71.95,118.62 22.19,0 33.9,-72.85 35,-79.73 5.4,-33.55 3.92,-87.52 3.92,-87.52 13.98,57.92 27.24,128.74 58.31,122.52 42.1,-8.42 43.18,-122.78 44.63,-148.2 11.73,48.24 12.11,96.58 70.11,142.37 24.56,19.39 31.89,0.75 45.12,-77.88 16.25,21.39 38.71,61.8 69.61,66.21 42.34,6.05 26.6,-125.13 25.28,-136.12 20.1,55.27 3.82,69 56.39,95.28 73.69,36.85 66.64,-144.43 81.52,-142.3 6.15,0.88 46.58,113.46 132.39,78.13 53.65,-22.09 13.3,-127.78 7.78,-147.79 0.03,0.07 26.89,100.42 101.12,112.79 76.93,12.82 29.37,-116.24 19.45,-149.74 1.58,3.26 28.6,80.65 68.06,106.96 31.86,21.23 52.43,1.24 56.39,-13.62 11.03,-41.36 0.75,-41.2 -11.41,-104.02 41.9,55.86 38.08,60.79 60.03,69.02 7.24,2.71 31,3.08 38.89,-7.78 25.97,-35.71 7.4,-39.27 -7.78,-105.01 30.02,36.69 24.62,45.68 52.51,48.62 75.08,7.9 -7.89,-115.93 -10.8,-135.32 0,0 137.71,80.96 143.03,61.42 3.24,-11.86 8.67,-7.44 -48.15,-141.91 17.27,67.35 125.32,103.29 133.72,97.18 39.9,-29.02 -30.65,-161.21 -30.65,-161.21 -28.74,-65.98 -213.64,-258.98 -259.32,-364.17 -47.37,-109.09 100.33,-186.91 164.57,-186.11 144.74,1.8 362.02,-39.49 382.27,-37.02 4.65,0.57 -49.64,34.03 -32.27,48.35 22.37,18.45 56.11,-34.46 48.96,-39.41 -10.03,-6.94 3.22,73.26 24.11,69.61 26.46,-4.63 5.43,-79.71 -6.96,-73.77 -16.44,7.88 74.18,27.08 77.81,2.85 3.48,-23.15 -94.38,-38.66 -78.98,-17.99 8.97,12.04 54,-53.88 34.64,-69.56 -18.62,-15.09 -70.18,65.31 -50.86,62.32 15.7,-2.43 -25.99,-56.97 -48.59,-44.24 -22.63,12.75 19.06,41.91 32.14,61.84 -183.28,17.34 -258.2,28.32 -361.45,37 37.08,19.29 63.97,47.36 78.26,68.39 27.98,41.2 54.66,78.71 88.55,99.4 -6.7,-28.22 -12.42,-74.42 11.8,-77.73 7.46,-1.02 19.67,-0.9 25.93,25.22 3.2,13.31 -2.55,40.22 -9.91,36.76 -13.19,-6.2 43.86,-66.31 59.58,-52.43 14.5,12.81 -7.77,68.34 -36.25,61.1 -12.29,-3.12 73.02,-19.65 71.94,5.45 -1.16,26.97 -73.99,39.05 -63.15,18.7 7.83,-14.72 35.54,20.16 39.9,31.61 22.12,58.06 -55.49,34.52 -66.41,3.23 -7.57,-21.74 13.14,-17.47 10.21,-2.07 -11.98,62.82 -67.13,66.2 -48.16,-7.71 4.55,-17.72 34.2,-22.53 20.81,-11.21 -62.23,52.61 -85.54,-2.92 -25.74,-26.48 3.2,-1.27 2.36,3.71 5.75,4.32 -21.81,-17.58 -120.72,-199.64 -211.92,-169.78 -148.07,48.48 -117.72,145.93 -116.78,185.78 -53.39,-116.2 -47.84,-280.87 11.02,-339.81 48.79,-48.86 102.19,-49.75 119.38,-49.82 61.67,-0.27 126.99,42.26 137.07,48.82 -7.57,-14.42 -28.55,-47.06 -5.22,-53.14 21.14,-5.51 32.06,46.34 20.97,48.12 -16.68,2.68 25.35,-49.96 43.19,-35.01 17.33,14.52 -21.94,59.94 -26.34,43.34 -3.22,-12.2 50.46,5.77 44.56,19.76 -10.72,25.45 -61.96,-0.9 -48.48,-4.24 9.13,-2.27 14.67,46.86 -1.4,47.91 -30.72,2.01 -22.13,-56.84 -14.5,-50.23 9.81,8.51 -25,37.86 -41.16,23.32 -12.79,-11.52 8.4,-31.67 28.38,-39.83 -22.75,-11.1 -234.88,-120.07 -285.17,40.77 20,-52.16 26.63,-64.35 25.81,-128.1 -1.05,-81.27 11.5,-122.86 21.99,-127.24 12.25,-5.1 -48.42,12.86 -47.73,-13.32 0.87,-33.44 69.17,-5.43 57.32,-2.37 -19.55,5.05 -20.81,-53.26 3.16,-54.64 19.17,-1.11 25.3,62.11 11.87,53.71 -9.42,-5.9 33.53,-34.46 45.38,-20.41 21.7,25.75 -53.45,45.29 -40.03,28.21 7.65,-9.74 58.97,18.85 44.21,33.94 -16.85,17.22 -60.94,-20.38 -51.48,-20.7 19.38,-0.68 12.58,43.49 -5.98,42.58 -19.5,-0.95 -15.23,-28.41 -12.4,-44.23 -44.07,40.9 -12.2,169.73 -39.29,222.33 18.24,-17.92 60.11,-69.85 84.44,-82.14 91.07,-46.02 428.12,-86.97 457.54,-82.81 -22.44,-12.56 -47.78,-43.31 -39.61,-52.66 6.92,-7.92 49.55,34.47 49.55,34.47 0,0 -4,-63.77 6.48,-63.26 8.52,0.41 8.71,66.19 8.71,66.19 0,0 36.42,-51.39 43.83,-44.67 7.61,6.91 -33.74,52.39 -33.74,52.39 0,0 57.26,-9.72 58.48,0.79 1.3,11.15 -57.93,13.78 -57.93,13.78 0,0 45.2,40.09 39.1,45.63 -7.25,6.6 -49.94,-36.28 -49.94,-36.28 0,0 4.75,56.09 -6.25,55.09 -9.7,-0.88 -9.15,-54.23 -9.15,-54.23 0,0 -41.96,32.88 -48.72,25.43 -8.48,-9.34 14.71,-30.69 39.19,-42.67 -48.08,3.94 -517.66,12.58 -557.93,221.48 -29.44,152.71 -12.27,197.34 61.14,331.9 -48,-59.11 -387.01,-417.44 -222.88,-636.9 10.92,-14.59 30.08,-95.64 168.96,-160.29 0,0 171.79,-250.52 266.62,-285.49 0,0 2.73,-5.42 -8.82,-6.88 -93.84,-11.88 -44.49,-67.84 1.85,-40.88 13.04,7.59 -11.25,17.31 -5.62,-7.14 14.87,-64.6 82.46,-29.76 46.07,16.08 -23.23,29.29 -8.52,-5.68 4.05,-7.94 76.62,-13.75 48.12,43.72 0.57,40.03 -14.55,-1.13 12.07,-10.19 21.8,-1.78 56.62,48.96 -14.86,77.39 -39.94,27.11 -9.24,-18.54 23.21,-2.96 14.89,8.77 -31.75,44.77 -71.6,19.74 -45.41,-23.81 1.06,-1.76 3.11,0.43 1.85,0.62 -6.98,1.01 -56.29,33.87 -96.56,79.01 -62.37,69.91 -126.68,166.9 -161.35,202.3 143.61,42.65 156.71,10.31 273.82,117.37 -5.09,6.85 -42.13,-8.5 -42.85,8.45 -0.73,16.99 52,14.43 48.69,8.98 -7.89,-12.98 -21.53,33.49 -8.53,42.54 11.34,7.89 40.64,-32.41 25.35,-32.15 -17.08,0.28 27.53,33.09 39.09,21.93 8.8,-8.49 -21.29,-55.75 -25.92,-41.76 -4.62,13.94 42.47,-7.28 34.66,-23.99 -6.35,-13.59 -60.46,5.82 -47.29,10.26 7.58,2.55 5.93,-36.39 -9.79,-37.9 -14.09,-1.36 -13.43,39.76 -12.38,42.4 -98.68,-96.44 -156.43,-75.5 -256.12,-117.54 59.57,0.32 152.09,-27.39 241.03,-52.6 133.67,-37.89 236.07,-47.49 225.36,-55.94 -1.6,-1.26 -27.21,-22.92 -30.92,-41.06 -3.46,-16.96 -1.01,-35.61 22.21,-39.9 26.35,-4.86 48.74,64.63 30.97,70.16 -29.58,9.2 26.47,-87.97 55.51,-66.39 26.16,19.44 -20.99,68.82 -26.19,78.3 -1.27,2.31 -24.59,-5.41 -5.18,-12.55 149.02,-54.87 79.86,108.95 9.1,36.27 -15.53,-15.95 29.94,-10.61 36.46,18.37 8.33,37.07 1.89,48.82 -6.77,53.89 -14.38,8.42 -40.31,-12.13 -54.86,-43.61 -5.01,-10.83 12.57,-14.41 15.58,-5.91 12.2,34.47 -54.59,46.57 -70.84,21.68 -9.75,-14.93 44.01,-90.52 47.62,-42.96 1.53,20.17 -35.27,-12.21 -35.27,-12.21 -163.75,3.38 -317.81,93.2 -388.39,87.4 -4.59,-0.38 -86.19,5.5 -156.34,44.17 -64.9,35.78 -103.29,137.94 -112.81,151.28 -23.89,-106.31 -38.59,-169.53 -38.59,-169.53 16.84,14.05 31.52,27.13 38.66,12.28 5.54,-11.5 -15.03,-15.33 -21.59,-19.52 0,0 35.24,-7.25 31.15,-21.04 -5.41,-18.22 -18.89,-6.97 -36.55,6.19 12.43,-19.95 17.08,-34.98 4.92,-39.13 -11.48,-3.92 -21.12,33.36 -21.12,33.36 0,0 -8.82,-34.62 -18.83,-32.36 -7.43,1.68 -9.38,10.84 4.14,40 -16.69,-13.24 -31.99,-8.88 -34.5,1.56 -2.61,10.93 30.01,16.84 30.01,16.84 0,0 -18.75,22.67 -10.73,27.6 9.34,5.73 29.72,-25.47 29.72,-25.47 0,0 41.94,136.33 25.49,192.47 -59.57,203.41 81.78,348.09 195.51,501.35 -273.28,-269.06 -475.99,-442.21 -441.23,-637.14 33.9,-190.07 -137.5,-379.88 -175.82,-524.91 -0.02,0.5 -1.94,0.27 -2.75,1.58 -0.43,0.69 -0.54,0.6 -3.74,9.75 -15,42.8 -55.68,22.44 -63.2,14.19 -31.87,-34.97 49.2,-61.13 54.84,-37.86 3.61,14.86 -81.92,-39.13 -65.82,-54.08 26.21,-24.32 77.7,12.79 73.89,34.17 -4.71,26.49 -35.56,-69.59 5.22,-68.4 33.74,0.98 36.79,61.87 14.94,61.35 -17.07,-0.42 49.56,-48.7 55.79,-18.83 7.18,34.39 -48.97,52.62 -43.26,33.37 8.74,-29.46 58.68,19.28 45.79,46.07 -25.65,53.32 -66.64,-16.61 -62.13,-27.1 3.98,-9.25 20,12.53 -9.05,12.89 -3.2,0.04 -0.83,-2.18 -0.72,-1.85 55.04,165 145.66,234.39 177.81,427.8 2.22,13.39 14.56,-61.22 98.37,-111.95 82.75,-50.09 198.47,-71.06 233.53,-71.79 -7.43,-12.13 -38.5,-25.5 -38.29,-37.16 0.46,-25.07 62.28,5.65 57.18,16.24 -5.85,12.13 -24.93,-34.43 -18.19,-47.82 21.4,-42.55 34.65,-8.03 37.77,10.11 1.47,8.57 -1.19,41.2 -10.01,34.06 -11.8,-9.55 49.06,-32.91 55.33,-21.49 21.87,39.86 -65.3,34.82 -44.06,34.92 36.17,0.18 71.96,106.66 -12.75,28.58 -13.81,-12.72 10.23,-24.8 9.08,-17.04 -5.67,38 -49.51,94.35 -38.16,9.34 1.06,-7.94 2.1,-7.37 1.51,-7.36 -21.56,0.11 -195.38,21.55 -262.09,90.12 -70.88,72.86 -68.53,60.18 -69.22,91.24 -1.84,-182.34 136.91,-337.7 155.26,-355.87 -1.27,1.17 2.38,1.94 7.2,23.68 19.48,87.93 58.14,10.68 28.59,-25.28 -16.95,-20.64 -30.18,9.27 -3.25,6.81 96.02,-8.75 73.59,-101.89 -19.39,-49.25 -14.78,8.37 -4.11,25.74 8.45,16.23 35.4,-26.78 -23.84,-153.2 -48.69,-28.32 -1.67,8.43 0.88,27.52 14.22,19.34 10.52,-6.45 -3.47,-16.93 -9.86,-18.68 -90.55,-24.82 -60.01,35.61 4.56,45.38 14.22,2.15 -3.28,-19.31 -18.54,-6.81 -74.9,61.29 -20.59,47.22 33.35,19.53 -15.8,19.69 -204.31,230.68 -146.67,506.9 41.83,200.47 72,201.29 380.52,534.91 -114.02,-107.28 -170.94,-167.69 -280.77,-231.77 -95.81,-55.9 -198.1,-65.95 -244.98,-211.19 -49.57,-153.58 -45.71,-231.14 -42.57,-278.56 15.29,28.34 36.34,44.17 48.45,36.6 15.73,-9.85 -20.92,-62.56 -28.71,-46.89 -5.98,12.02 63.17,21.15 66.63,6.12 3.97,-17.22 -65.13,-37.66 -62.58,-22.63 1.84,10.86 52.6,-31.72 35.89,-50.58 -22.75,-25.67 -63.05,44.45 -51.33,44.01 14.64,-0.53 -21.89,-58.54 -38.23,-49.97 -29.67,15.56 21,73.95 26.48,62.51 6.57,-13.72 -57.56,-14.92 -52.63,12.66 5.84,32.71 47.24,5.14 54.02,6.51 -2.57,46.59 -9.18,153.38 72.55,342.74 -87.3,-78.85 -118.94,-126.63 -202.28,-208.82 -140,-138.07 -174.13,-241.65 -174.3,-251.46 -0.57,2.88 22.95,56.2 43.21,44.13 31.97,-19.05 -23.09,-56.39 -26.02,-52.73 -8.91,11.17 66.56,13.29 68.62,-2.95 4.2,-33.02 -77.59,-27.93 -69.73,-12.83 4.82,9.26 58.57,-40.84 22.09,-63.9 -30.04,-18.98 -47.94,54.26 -35.12,54.87 19.13,0.9 -35.87,-68.83 -65.34,-38.8 -21.45,21.86 45.21,69.12 53.29,49.98 7.48,-17.72 -67.85,3.16 -58.74,27.67 12.82,34.5 42.49,13.07 59.51,-4.41 0,0 4.39,-3.46 8.23,-1.03 11.13,147.64 222.84,271.76 300.65,396.81 -53.21,-0.98 -88.74,-20.71 -139.06,-39.94 -141.08,-53.93 -172.51,-51.24 -268,-40.38 0,0 71.73,58.78 54.54,77.61 -25.58,28 -110.6,-40.91 -74.94,-50.23 26.84,-7 -5.99,117.01 -47.73,103.88 -38.3,-12.04 0.29,-128.74 22.27,-102.01 19.5,23.71 -93.44,43.63 -110.11,-9.51 -13.24,-42.2 110.37,-41.99 107.12,-26.06 -5.17,25.33 -99.58,-58.18 -62.08,-88.81 42.24,-34.5 111,78.19 83.91,79.49 -27.26,1.31 13.78,-103.89 47.05,-80.8 35.44,24.59 -25.52,75.4 -20.53,89.45 117.96,-24.42 188.22,25.77 379.2,84.89 31.72,9.83 38.14,13.51 55.88,25.49 5.63,3.8 59.29,54.35 140.56,126.32 -10.93,-0.01 -82.67,7.54 -153.31,68.03 -67.88,58.12 5.67,153.77 5.46,153.94 -5.62,4.65 -62.22,-41.35 -75.82,-13.17 -15.2,31.5 70.55,50.86 65.94,35.41 -5.72,-19.17 -76.42,28.74 -59.76,50.2 26.37,33.94 92.88,-20.72 68.98,-35.99 -18.4,-11.76 2.9,95.16 32.07,86.08 51.49,-16.03 3.41,-99.5 -10.8,-88.36 -15.45,12.1 73.11,41.4 81.75,8.63 5.19,-19.65 -81.45,-49.9 -76.98,-30.46 4.99,21.73 58.53,-18.2 49.86,-45.65 -10.51,-33.22 -74.49,-0.43 -72.05,32.51 -2.54,-23.51 -82.76,-83.38 -4.76,-157.47 49.91,-47.41 110.88,-65.9 110.88,-65.9 0,0 -124.49,-27.12 -125.41,-30.65 -16.09,-5.89 -52.91,-5.28 -138.73,-3.03 -136.53,3.58 -94.5,195.02 -86.8,340.26 -12.94,-1.36 -45.74,-65.34 -72.2,-44.6 -41.56,32.58 51.36,88.04 57.33,67.38 5.53,-19.11 -116.65,13.48 -99.46,52.17 18.99,42.74 122.08,-12.03 110.21,-26.51 -19.14,-23.35 -36.96,100.23 -8.78,103.64 40.36,4.88 64.21,-94.61 38.28,-95.05 -36.89,-0.63 56.29,60.88 63.25,31.39 6.11,-25.9 -59.57,-81.1 -61.59,-60.39 -2.53,25.99 74.69,-18.64 51.74,-55.69 -11.85,-19.13 -72.14,17.12 -71.82,26.32 -23.95,-132 -1.47,-298.86 18.86,-315.85 -71.55,23.43 -75.32,31.13 -145.11,58.62 -60.51,23.84 -217.8,130.66 -217.8,130.66 0,0 -7.97,-88.91 -46.5,-86.33 -50.13,3.35 -15.23,134.16 13.12,103.64 23.76,-25.58 -72.76,-64.33 -103.84,-8.68 -24.16,43.26 108.04,73.9 90.32,43.98 -24.6,-41.54 -79.3,62.23 -48.33,80.83 35.57,21.36 104.81,-51.66 78.85,-60.09 -34.68,-11.26 12.64,99.99 54.05,73.12 30.35,-19.69 -18.7,-117.24 -36.26,-104 -26.14,19.72 79.34,61.86 87.31,2.59 6.46,-47.96 -80.47,-42.6 -80.47,-42.6 20.14,-37.36 59.39,-47.03 85.56,-63.65 52.93,-33.62 95.18,-50.54 117.39,-66.77 366.94,-268.14 897.08,173.29 944.61,282.03 -77.77,-43.53 -144.07,-64.35 -209.1,-68.4 -62.8,-3.92 -110.02,66.28 -110.02,66.28 -56.62,72 -86.08,168.98 -92.39,287.25 -7.73,-12.09 -172.62,-50.42 -281.26,31.4 0.02,-0.94 82.46,-19.89 99.47,5.22 20.07,29.65 -98.4,50.52 -88.07,25.4 9.48,-23.06 82.5,84.54 54.1,103.91 -26.82,18.29 -99.29,-77.19 -70.63,-79.31 33.58,-2.48 -29.15,102.71 -66.73,85.2 -31.57,-14.7 25.48,-115.09 33.83,-96.59 8.67,19.22 -110.61,7.24 -99.58,-39.36 10.03,-42.42 122.69,1.59 108.92,12.05 -17.27,13.11 -48.26,-108.03 4.44,-105.67 33.21,1.48 18.01,95.76 21.79,87.01 23.05,-53.43 298.81,-63.87 283.72,-29.26 0,0 9.2,-88.99 22.77,-134.26 22.94,45.13 138.9,50.29 181.05,98.61 0,0 3.88,-43.63 30.81,-35.3 29.31,9.05 10.38,55.43 0.48,37.39 -10.36,-18.88 44.04,-13.01 45.88,8.75 2.97,35.24 -38.05,40.75 -36.76,18.14 0.97,-17.11 31.06,27.87 14.3,43.38 -21.45,19.86 -51.76,-28.96 -31.14,-26.44 14.54,1.78 -13.72,41.93 -33.05,28.74 -28.17,-19.22 -2.66,-53.07 7.7,-39.73 7.4,9.53 -47.32,18.54 -42.15,-14.49 3.92,-25.04 38.65,-14.87 38.65,-14.87 -47.77,-68.7 -113.09,-43.12 -177.36,-97.97 -43.04,187.54 -10.45,368.16 -10.45,368.16 0,0 26.55,-50.41 49.38,-34.19 27.88,19.81 -18.06,61.08 -22.02,46.19 -6.03,-22.68 62.74,-2.15 57.29,22.61 -7.59,34.45 -74.59,8.94 -58.23,-2.48 9.84,-6.87 38.18,50.85 16.34,61.7 -29.72,14.76 -53.31,-52.48 -38.19,-51.68 8.84,0.46 -11.24,64.25 -41.56,42.06 -21.71,-15.88 12.85,-71.71 23.41,-52.94 6.39,11.36 -57.33,29.28 -58.27,-8.33 -0.74,-29.88 63.02,-15.45 63.02,-15.45 0,0 -14.69,-37.06 -4.02,-219.03 8.31,-141.84 52.89,-332.12 173.02,-375.01 126.32,-45.1 302.82,114.35 340.37,162.67 17.15,22.07 253.39,334.63 267.53,350.18 2.54,2.8 50.23,18.63 64.76,-21.35 16.29,-44.79 2.66,-80.07 2.61,-80.29 1.12,2.22 6.25,49.63 53.4,55.53 16.56,2.07 17.35,1.81 27.77,-10.68 33,-39.61 13.83,-44.97 8.54,-96.11 30.28,23.15 33.96,48.85 57.67,19.22 12.19,-15.25 5.03,-84.53 4.27,-91.84 53.34,16 62.25,42.54 98.25,0 13.47,-15.93 10.44,-46.19 8.54,-51.26 -1.95,-5.21 -4.08,-10.88 -46.99,-51.26 5.28,4.75 64.48,58.03 79.03,40.58 2.32,-2.79 2.9,-26.11 0,-38.45 -1.27,-5.36 -2.53,-4.41 -34.18,-59.8 3.08,3.08 44.12,9.18 44.12,9.18 18.33,9.78 104.56,67.75 69.08,-62.57 1.58,0.46 61.7,36.03 81.16,-10.68 11.22,-26.93 2.52,-27.01 -10.67,-53.4 34.18,-14.4 40.88,-8.54 46.98,-29.9 7.02,-24.57 -6.78,-61.82 -19.22,-57.67 -14.29,4.76 49.04,30.04 74.75,-12.81 20.88,-34.79 -53.01,-104.19 -45.77,-105.32 10.39,10.95 53.54,68.74 122.67,4.93 8.93,-8.24 6.8,-15.68 6.4,-17.09 -0.89,-3.13 -26.68,-23.26 -54.39,-48.99 54.03,24.28 94.82,10.12 99.25,2.01 9.78,-17.93 -22.56,-57.61 -55.08,-92.04 1.41,0.06 91.25,57.02 106.33,8.74 14.5,-46.38 -2.27,-44.46 -25.62,-87.57 28.55,2.29 74.65,11.28 79.02,-14.95 3.72,-22.33 -59.39,-117.33 -33.78,-113.67 2.01,0.29 78.99,25.95 95.3,11.44 16.31,-14.52 -53.1,-41.8 -67.72,-102.73 0.16,-0.03 101.8,13.31 138.99,-14.36 14.24,-10.6 -99.84,-44.79 -78.45,-59.45 23.2,-15.91 136.03,-7.19 41.25,-76.82 53.58,-6.7 46.38,7.52 51.78,1.04 33.49,-40.18 -117.88,-78.76 -36.31,-83.3 24.02,-1.33 88.03,9.48 73.09,-15.42 -13.38,-22.3 0.08,-0.91 -137.55,-65.15 l 141.15,-4.18 -85.23,-61.4 c 135.34,39.71 133.94,-53.56 41.32,-75.47 67.7,-9.28 100.39,-26.65 100.39,-26.65 0,0 -19.16,-30 -52,-42.2 1.13,-63.45 97.57,-48.13 42.52,-84.87 -15.04,-17.5 -184.9,19.01 -448.38,-13.86 -162.05,-20.21 -227.57,-237.2 -264.04,-261.7 -11.99,56.54 67.68,256.01 165.05,296.51 -84.88,-24.35 -133.32,-30.46 -193.43,-79.29 -54.17,-44 -84.26,-179.16 -134.7,-248.03 -14.2,158.59 72.81,295.09 120.12,321.09 -11.53,-4.64 -47.3,-6.89 -72.65,-29.37 -21.2,-18.79 -20.91,-18.25 -43.25,-36.77 -32.23,-26.71 -66.48,-49.25 -91.97,-90.46 -29.61,-47.88 -21.78,-147.35 -85.7,-196.77 -49.1,-37.97 -12.38,104.79 3.11,189.74 31.26,171.51 114.53,162.45 114.53,162.45 0,0 180.88,-3.4 281.05,7.85 19.62,2.21 272.03,-3.75 281.89,-5.37 56.83,-9.31 113.63,-1.42 170.61,-7.01 78.73,-7.72 166.69,1.54 197.76,-9.01 22.75,-7.73 12.85,-15.18 23.9,-56.97 8.25,-31.19 -94.96,-70.93 -94.96,-70.93 18.71,8.22 158.95,-10.71 120.62,-69.36 -25.66,-39.28 -93.99,-64.23 -93.99,-64.23 66.04,-2.02 85.75,-33.27 115.15,-74.37 -25.04,-44.12 -165.78,-54.08 -150.52,-61.39 28.26,-13.52 173.59,-4.59 203.18,-52.61 8.52,-13.84 -138.48,-35.86 -150.79,-37.71 161.3,-14.72 137.13,-67.06 126.34,-71.44 -6.79,-2.76 -35.6,-7.43 -38.72,-7.94 -56.66,-9.2 -61.78,-14.63 -75.4,-17.86 11.41,-2.22 124.31,-24.21 124.31,-73.42 0,-22.65 -76.34,-34.6 -83.55,-35.73 -69.49,-10.87 -84.42,-2.26 -101.89,1.99 60.69,-14.27 145.08,-33.78 138.57,-65.49 -8.82,-42.96 -128.66,-44.06 -155.3,-45.54 50.55,-11.98 101.2,-12.36 149.19,-71.55 20.32,-25.06 -34.03,-63.52 -116.42,-77.01 22.41,-16.59 99.56,-8.54 104.19,-40.07 6.34,-43.21 -125.6,-67.24 -137.12,-65.9 57.91,-20.51 60.49,-18.61 88.03,-72.26 38.61,-75.2 -139.8,-30.4 -137.57,-45.59 0.92,-6.27 124.3,-33.76 80.9,-118.35 -24.14,-47.04 -154.64,-40.44 -154.64,-40.44 0,0 60.25,-62.06 73.22,-137.8 15.82,-92.48 -95.09,-48.63 -146.03,-59.05 42.07,-14.32 38.94,-114.75 38.94,-114.75 0,0 -38.51,-27.01 -146.49,-9.62 l -101.93,35.66 c -130.28,15.95 -104.59,41.18 -200.1,87.7 -40.93,19.93 -105.17,21.65 -150.41,76.33 6.02,2.37 53.64,97.24 62.58,105.6 26.01,24.33 151.53,169.06 263.92,295.86 105.67,119.22 -233.99,-125.79 -233.99,-125.79 l 180.14,222.25 c 0,0 -147.2,1.98 -192.55,-65.03 60.1,164.66 147.64,153.1 129.67,175.18 -17.97,22.07 -178.41,-68.98 -233.59,-99.41 -49.22,-27.14 129.76,186.23 66.17,188.07 -32.73,0.94 -178.11,-75.13 -178.11,-75.13 0,0 37.77,94.24 50.21,136.54 17.95,61.06 -121.47,-21.22 -158.6,-42.97 -40.94,-23.97 -8.29,185.68 -89.5,46.11 -37.21,-63.95 -52.27,115.34 -65.54,64.08 -16.79,-64.87 -92.76,-197.27 -76.31,-39.42 5.61,53.83 13.89,25.22 -79.43,-69.6 42.85,105.77 27.14,126.76 22.96,154.22 -7.48,49.21 -79.48,-55.36 -116.94,-98.28 66.05,171.21 40.67,73.55 41.05,140.58 0.23,39.67 -116.87,-89.83 -120.99,-96.43 -8.95,49.74 38.31,153.34 -9.8,135.57 -36.95,-13.66 -70.54,-52.16 -120.39,-100.22 1.02,2.69 87.58,127.2 -35.59,118.05 -70.69,-5.25 -103.62,-114.35 -109.46,-86.06 -14.4,69.8 -25.83,115.93 -129.38,15.86 12.87,105.94 50.55,185.8 -73.14,105.41 -24.32,-15.8 -50.18,-60.93 -79.72,-29.16 -11.73,12.61 36.97,97.15 -0.7,113.79 -19.74,8.71 -43.3,8.12 -103.75,-46.96 6.14,79.2 14.29,84.32 -1.95,91.91 -18.37,8.58 -40.23,-10.58 -42.93,-12.95 -6.68,-5.85 -5.07,-6.46 -68.49,-87.38 -15.97,70.9 16.34,79.72 -8.09,86.06 -21.44,5.56 -41.18,-24.47 -82.19,-69.59 -2.17,45.48 28.01,87.6 -17.21,79.47 -27.92,-5.02 -92.13,-55.66 -103.25,-62.66 0.81,63.16 20.13,92.16 -24.78,57.13 -100.51,-78.41 -133.83,-0.21 -108.25,-48.9 32.53,-61.93 90.72,-30.62 81.76,-100.6 -14.18,-110.68 73.44,-45.77 73.5,-45.75 -1.06,-7.33 -20.52,-103.33 -2.23,-101.36 43.27,4.67 63.87,28.86 66.27,-13.97 7.3,-130.26 107.83,-5.25 136.96,-46.52 5.34,-7.57 -44.27,-108.58 -12.44,-118.54 69.8,-21.85 143.76,59.7 120.54,-10.44 -9.47,-28.6 -23.94,-95.67 -8.04,-128.09 5.93,-12.1 66.45,8.71 83.69,11.35 152.96,23.4 -32.15,-161.5 49.26,-158.22 65.13,2.63 114.79,54 95.14,-8.78 -2.54,-8.12 -38.2,-69.02 -31.19,-121.8 4.72,-35.55 59.31,-19.37 75.72,-18.15 -5.1,-37.19 -49.11,-111.66 54.34,-83.14 111.2,30.66 35.21,-70.99 76.05,-104.69 12.52,-10.33 119.12,51.97 105.76,-25.45 -8.31,-48.18 -5.57,-131.68 2.14,-157.23 0.74,-2.48 38.96,11.66 121.77,41.29 -33.75,-64.37 -20.16,-230 1.72,-193.97 36.2,59.59 119.72,141.65 129.14,110.37 1.33,-4.39 -34.43,-116.15 -17.98,-118.99 26.43,-4.56 82.94,52.38 88.93,58.42 -3.74,-7.84 -66.89,-244.38 75.91,-127.12 128.83,105.78 144.13,209.9 125.25,143.16 -14.72,-52.03 -108.74,-272.05 -86.01,-257.11 61.41,40.35 152.36,87.15 181.59,187.63 3.37,11.58 69.64,71.84 85.77,90.81 50.41,59.28 204.2,-33.97 236.77,-74.53 51.51,-64.14 136.17,-76.35 161.17,-104.19 0,0 177.13,-76.74 139.41,-101.23 -17.35,-11.26 -84.45,-5.04 -91.76,-4.36 49.04,-9.95 50.84,-5.18 67.14,-19.62 2.93,-2.59 37.41,-33.11 -4.48,-47.95 -46.93,-16.62 -84.81,4.32 -85.04,4.36 2.33,-1.14 52.01,-6.38 58.19,-54.49 2.17,-16.9 1.9,-17.71 -11.19,-28.33 -41.51,-33.69 -47.13,-14.12 -100.72,-8.72 24.26,-30.9 51.2,-34.66 20.15,-58.85 -15.98,-12.45 -88.58,-5.13 -96.24,-4.36 16.77,-54.44 44.58,-63.53 0,-100.27 -16.69,-13.75 -48.4,-10.66 -53.72,-8.71 -5.45,1.99 -11.39,4.16 -53.71,47.95 4.98,-5.39 60.81,-65.81 42.52,-80.65 -2.91,-2.37 -27.35,-2.96 -40.28,0 -5.62,1.29 -4.63,2.58 -62.67,34.88 3.22,-3.14 40.29,-39.24 40.29,-39.24 10.24,-18.7 32.72,-146.93 -96.24,-76.28 0.48,-1.62 37.76,-62.97 -11.19,-82.83 -28.22,-11.45 -28.3,-2.57 -55.95,10.9 -15.09,-34.89 -8.95,-41.73 -31.34,-47.95 -25.74,-7.17 -64.77,6.92 -60.42,19.61 4.99,14.59 31.47,-50.04 -13.43,-76.29 -36.46,-21.3 -130.01,70.79 -130.01,70.79 0,0 102.12,-67.69 24.82,-149.25 -8.64,-9.118 -16.44,-6.95 -17.91,-6.54 -3.29,0.92 -2.13,2.23 -29.09,30.51 -6.21,-69.558 -11.64,-71.766 -20.15,-76.282 -18.78,-9.982 -17.63,1.688 -53.71,34.874 0.07,-1.433 17.02,-71.789 -33.57,-87.185 -45.73,-13.919 -45.02,-40.166 -124.15,84.712 0,0 40.97,-149.198 2.73,-137.433 -15.84,4.875 -86.71,67.316 -86.71,67.316 0,0 35.91,-82.048 -6.05,-116.102 -50.55,-41.025 -73.62,25.273 -126.27,69.92 -0.03,-0.164 31.19,-84.335 -0.19,-120.446 -2.3,-2.652 -40.29,-44.561 -66.94,-39.37 -24.86,4.842 0.91,-7.845 -60.18,47.547 0,0 -51.55,81.322 -66.78,120.987 -33.67,87.68 -40.09,91.074 -86.01,186.942 -51.12,106.7 -134.99,416.54 -183.83,508.55 -111.54,210.08 -34.23,263.27 2.82,252.04 43.27,-13.12 41.41,-390.1 41.41,-390.1 0,0 -289.31,276.87 -243.83,308.53 49.37,34.38 224.72,-199.14 243.83,-308.53 -11.97,101.47 44.22,436.54 109.18,409.5 59.19,-24.65 -36.93,-416.36 -108.77,-415.26 -38.42,0.6 -402.8,75.27 -372.51,154.74 24.9,65.31 308.99,-74.64 362.43,-158.47 54.3,-85.19 133.96,-335.28 115.87,-332.48 -55.87,8.64 -133.06,46.32 -170.68,83.46 -135.92,134.18 -27.84,77.07 0.28,64.36 28.13,-12.71 146.08,-119.1 170.4,-147.82 38.32,-45.25 139.93,-293.702 148.47,-329.493 0,0 33.32,-62.474 26.53,-67.985 -42.1,-34.172 -82.53,120.296 -87.28,37.053 -1.4,-24.512 -16.43,-91.533 -42.53,-76.287 -23.37,13.656 -17.74,18.651 -85.04,159.113 23.18,-103.194 33.02,-130.807 -13.43,-170.011 -48.88,-41.257 -60.72,-16.884 -89.53,39.233 -18.94,-65.895 -25.59,-69.132 -31.33,-71.927 -31.99,-15.58 -26.57,5.988 -42.52,37.053 -85.38,-131.656 -95.55,-3.299 -116.38,30.515 -18.24,29.595 -20.47,-89.246 -64.91,-95.904 -33.41,-5.006 -80.57,93.724 -67.14,80.647 18.98,-18.479 -57.93,-158.396 -87.28,-115.521 -27.28,39.843 4.23,106.335 -17.91,63.21 l -47.4,-77.526 c -31.5,17.813 -42.63,108.097 -52.23,168.308 0,0 -17.1,-141.538 -51,-162.347 -13.99,-8.587 -36.26,139.501 -38.12,151.901 -14.89,-162.484 -67.81,-138.136 -72.24,-127.269 -2.79,6.843 -7.51,35.857 -8.03,39.002 -9.29,57.077 -14.79,62.231 -18.06,75.951 -2.24,-11.489 -24.48,-125.216 -74.24,-125.216 -22.9,0 -34.98,76.901 -36.12,84.161 -10.99,69.998 -2.29,85.042 2.01,102.636 -14.42,-61.133 -34.15,-146.145 -66.22,-139.585 -43.43,8.887 -44.55,129.607 -46.05,156.441 -12.1,-50.918 -12.49,-101.95 -72.33,-150.282 -25.35,-20.472 -32.92,-0.792 -46.57,82.206 -16.77,-22.577 -39.94,-65.231 -71.82,-69.89 -43.69,-6.385 -27.45,132.082 -26.09,143.69 -20.74,-58.342 -3.94,-72.837 -58.19,-100.583 -76.04,-38.893 -75.17,129.584 -82.16,115.724 -62.92,-124.674 -144.37,-57.301 -144.37,-57.301 33.42,152.506 175.31,416.823 15.7,566.003 -15.63,14.61 -157.68,79.08 -207.41,-29.77 -102.68,-224.79 130.67,-275.087 178.44,-147.34 34.29,91.71 -57.81,124.58 -82.12,95.58 -22.37,-26.68 -25.96,-32.78 -24.7,-64.26 9.61,116.69 105.1,73.61 111.79,33.99 22.17,-131.3 -151.81,-173.01 -193.95,-88.61 -39.26,78.64 3.19,179.65 40.01,207.67 50.89,38.72 114.11,23.22 114.11,23.22 0,0 89.01,0.38 142.46,-164.74 7.98,-24.66 1.18,-69.61 1.18,-69.61 0,0 13.06,65.74 88.1,207.58 46.23,87.42 174.3,134.56 217.14,69.9 46.65,-70.41 71.01,-281.05 -58.74,-314 -134.82,-34.24 -164.54,281.36 -28,221.63 24.84,-10.86 35.3,-60.62 34.76,-63.24 -11.63,-56.53 -29.23,-72.15 -29.23,-72.15 0,0 67.45,82.05 -5.53,135.39 -67.38,49.26 -132.5,-85.45 -60.74,-184.52 15.17,-20.95 77.97,-75.79 137.2,-11.34 91.59,99.68 30.52,275.5 9.17,290.66 -87.12,61.86 -167.44,-4.55 -226.95,-73.16 12.54,37.23 78.7,162.3 104.25,332.11 23.78,158.1 -101.39,255.79 -197.81,171.14 -44.97,-39.47 -70.54,-51.16 -77.1,-122.18 -8.3,-89.85 66.05,-218.05 154.2,-140.73 66.14,58 47.61,196.62 -41.43,160.97 -52.89,-21.18 -21.68,-104.82 5.1,-92.08 0,0 -53.26,16.39 -29.79,68.43 35.3,78.25 166.29,-9.29 72.29,-131.58 -96.1,-125.02 -287.37,180.65 -36.06,280.96 66.28,26.45 181.14,-44.82 147.59,-248.54 0,0 43.95,115.52 95.19,182.17 68.58,89.22 175.05,73.7 236.93,-11.9 61.85,-85.56 44.97,-275.43 -86.67,-243.25 -103.56,25.31 -122.83,232.98 -55.45,227.47 104.98,-8.6 123.05,-135.16 39.47,-111.13 39.14,-16.59 88.53,19.3 27.73,84.63 -23.82,25.59 -106.24,56.48 -106.63,-42.98 -0.24,-63.04 14.57,-104.51 67.36,-145.99 50.53,-39.69 109.42,2.86 114.56,8.67 10.76,12.17 63.16,93.1 25.1,168.37 -93.2,184.35 -199.6,129.01 -272.91,70.78 114.84,241.23 -25.54,485.16 -115.81,471.02 -178.62,-27.97 -94.81,-346.38 61.53,-282.58 49.84,20.33 27.7,99.31 -8.66,134.58 -3.85,3.73 -87.62,29.89 -63.94,-42.73 -12.95,47.67 13.23,51.7 41.21,49.73 66.88,-4.71 98.8,-160.18 -12.2,-151.47 -150.57,11.82 -131.65,242.83 -73.52,278.56 49.23,30.26 143.84,17.85 185.33,-104.1 37.17,-109.25 49.35,-110.26 22.85,-222.2 2.55,4.25 6.77,7.98 35.09,66.91 5.23,10.88 5.58,22.22 54.44,140.62 0.86,2.1 32.01,52.87 42.52,61.99 50.74,44.02 228.93,-58.64 150.02,-180.27 -28.44,-43.85 -183.44,-12.24 -112.69,72.12 44.07,52.55 76.66,-24.85 58.39,-36.02 9.48,15.87 0.72,64.04 -35.78,54.14 -29.8,-8.07 -70.08,-83.25 4.73,-105.04 38.16,-11.12 69.42,-17.83 93.92,29.86 49.45,96.29 -106.71,227.33 -174.96,151.8 -8.44,-9.34 -62.91,-121.64 -83.49,-170.01 57.5,110.13 60.33,108.29 82.14,182.58 33.56,114.31 100.39,273.7 -42.55,333.66 -103.21,43.3 -195.05,-99.4 -127.13,-148.66 32.21,-23.36 61.51,-43.08 93.42,-4.17 37.3,45.48 -13.16,63.37 -19.34,65.67 84.15,-7.97 -4.3,-165.13 -94.04,-30.85 -23.46,35.1 23.76,144.97 147.09,118.01 71.2,-15.55 85.17,-135.91 82.03,-211.6 15.21,126.16 99.37,255.26 165.21,279.57 41.61,15.36 114.98,-40.03 72.09,-110.12 -13.79,-22.56 -45.74,-32.49 -61.16,-14.43 -20.8,24.35 -10.16,46.76 21.36,62.51 -26.84,-8.96 -63.03,-59.84 3.21,-70.49 54.45,-8.76 72.95,93.17 23.44,122.63 -3.4,2.02 -56.17,16.22 -72.06,3.35 -26.4,-21.37 -75.58,-76.09 -100.25,-115.51 -19.97,-31.91 -49.95,-98.35 -50.41,-99.71 -30.33,-90.44 -6.63,-96.61 -42.24,-184.4 -31.2,-76.9 -70.36,-206.09 -94.4,-225.27 -22.84,-18.23 -62.84,-224.55 -161.33,-416.56 -39.95,-77.88 -82.16,-244.59 -141.1,-383.87 -33.41,-78.96 -78.53,-238.642 -85.31,-255.821 -12.31,-31.179 -35.72,-119.202 -45.18,-137.583 0,0 -8.97,110.114 -87.64,36.197 -58.68,-55.14 -30.31,122.697 -20.07,158.059 -1.63,-3.441 -29.51,-85.129 -70.23,-112.9 -32.87,-22.418 -54.1,-1.316 -58.19,14.369 -11.38,43.659 -0.76,43.498 11.78,109.806 -43.23,-58.965 -39.3,-64.17 -61.94,-72.857 -7.47,-2.866 -31.99,-3.247 -40.13,8.211 -26.8,37.696 -7.63,41.45 8.02,110.847 -30.97,-38.724 -25.4,-48.219 -54.17,-51.318 -102.07,-10.991 -9.27,131.49 -9.27,131.49 0,0 -105.18,-114.04 -110.67,-93.418 -3.34,12.517 40.51,127.688 40.51,127.688 0,0 -53.65,-50.06 -95.71,-67.69 -22.63,-9.47 -40.94,20.7 -49.6,27.15 -41.18,30.63 -15.21,40.21 4.01,88.26 -2.23,-3.23 -60.84,-45.57 -62.17,-27.62 -2.87,38.74 9.89,51.78 14.31,93.78 1.73,16.44 -41.69,-20.94 -70.32,-34.92 -3.06,-1.49 -12,-3.65 -13.77,40.23 -0.17,4.27 12.32,63.62 12.32,63.62 0,0 -6.87,-55.69 -55.51,-61.91 -17.09,-2.18 -41.5,-12.2 -52.25,0.99 -34.05,41.81 25.86,59.14 31.32,113.13 -31.25,-24.44 -82.64,-41.58 -107.11,-10.3 -12.58,16.09 43.12,80.45 43.9,88.17 -55.04,-16.89 -60.49,-18.23 -119.71,-10.56 -21.63,2.8 20.2,41.32 64.47,83.95 -32.8,2.23 -119.43,-29.46 -116.43,-16.44 1.3,5.67 29.32,53.22 88.44,96.8 0,0 185.6,160.73 286.67,276.65 -21.92,-25.78 -77.49,-140.04 -35.29,-178.15 23.75,-21.44 72.03,-44.41 107.26,20.29 35.93,66 19.4,131.73 16.56,144.02 18.18,-78.75 20.98,-130.38 100.81,-138.22 111.54,-10.97 86.37,143.85 -66.71,210.42 19.12,-13.13 155.98,-115.28 214.22,-2.74 18.4,35.57 -4.69,172 -217.8,62.89 28.05,11.16 76.91,15.28 91.93,122.67 4.2,29.96 -48.77,79 -90.19,74.32 -17.23,-1.95 -83.01,-72.11 -83.4,-132.65 -0.02,-4.31 3.88,-49.13 5.29,-47.74 10.07,9.85 -66.71,183.43 -144.96,92.7 -30.86,-35.78 -31.38,-114.59 90.22,-150.93 -77.79,22.95 -159.28,5.48 -161.33,-53.03 -3.36,-95.88 187.03,-26.78 176.7,-25.9 -20.57,1.77 96.61,-67.2 120.12,64.63 14.67,82.27 -109.78,122.67 -129.47,-5.62 -2.37,-15.44 7.71,-54.67 9.35,-59.01 -79.62,-74.25 -127.21,-125.65 -127.71,-126.17 -83.91,-86.52 -245.03,-184.23 -245.03,-184.23 -18.91,-10.32 -148.57,-32.97 -77.13,96.94 -1.64,-0.49 -63.67,-38.03 -83.75,11.27 -11.58,28.43 -2.6,28.51 11.02,56.37 -35.28,15.19 -42.19,9.02 -48.49,31.56 -7.24,25.93 7,65.25 19.84,60.88 14.75,-5.03 -50.6,-31.71 -77.14,13.52 -21.54,36.73 55.57,103.72 55.57,103.72 0,0 -95.88,-25 -134.906,2.25 -10.396,7.25 -7.026,16.55 -6.612,18.03 0.926,3.32 2.259,2.15 30.854,29.31 -70.336,6.26 -72.568,11.73 -77.135,20.29 -10.092,18.93 1.707,17.77 35.262,54.11 -1.449,-0.06 -72.587,-17.14 -88.155,33.82 -14.956,48.96 2.352,46.93 26.447,92.44 -29.465,-2.41 -77.033,-11.91 -81.544,15.78 -3.84,23.57 41.852,73.75 15.428,69.89 -2.075,-0.3 -40.5,-21.98 -74.932,20.29 -41.482,50.92 -21.701,57.43 -6.612,121.75 -0.165,0.03 -40.623,-6.81 -77.135,24.8 -2.682,2.32 -18.472,15.98 -13.223,42.83 4.896,25.05 154.38,78.06 195.57,110.58 43.979,34.73 102.016,227.29 121.616,261.6 151.167,264.63 33.117,-139.86 -62.453,-222.68 -98.582,-85.43 272.69,209.63 332.81,296.36 40.1,57.84 -17.96,-130.16 -75.91,-171.28 -58.15,-41.27 -136.72,-118.62 -233.404,-116.81 94.104,-22.49 178.934,-138.07 237.494,-202.07 58.19,-63.6 -112.26,31.25 -152.7,79.93 -47.395,57.06 -111.196,79.46 -124.561,99.88 239.511,24.09 222.001,14.77 293.181,43.47 59.43,23.97 81.03,-33.91 120.89,-56.19 43.97,-24.57 171.99,-85.16 149.13,-95.47 -55.78,-25.13 -289.04,121.68 -362.43,127.19 94.95,51.33 170.77,105.13 199.43,140.83 43.6,54.31 111.91,148.44 140.72,208.85 36.65,-83.36 -88.99,-234.09 -160.14,-299.91 15.1,13.12 182.72,43.17 229.3,130.77 56.65,106.56 199.73,209.17 215.99,209.46 -39.67,-45.31 -141.43,-221.04 -155.15,-233.26 -20.25,-18.03 -124.45,-51.73 -160.02,-65.41 93.19,28.12 334.82,10.96 410.16,-138.83 -185.85,66.31 -366.74,115.33 -398.88,124.75 -27.48,8.05 36.01,23.9 57.31,32.83 248.92,104.27 416.39,48.68 578.32,-52.63 25.42,-15.9 -416.81,44.94 -402.8,103.07 7.03,29.19 159.38,21.16 260.76,63.36 7.87,3.28 263.92,-19.34 268.09,-62.67 3.42,-35.51 -366.23,29.53 -385.31,28.57 -42.58,-2.15 147.72,154.24 232.81,308.76 26.96,48.95 -38.49,-199.86 -113.74,-248.67 -59.18,-38.4 -123.23,-62.39 -198.09,-70.76 80.76,88.68 85.26,254.14 145.02,353.49 17.85,-31.72 -3.33,-157.8 -18.3,-194.87 -22.56,-55.85 -47.54,-140.66 -57.16,-151.22 18.53,14.28 59.51,33.78 152.03,71.63 58.29,23.84 60.78,19.86 110.54,55.2 14.63,10.38 134.53,243.68 226.17,238.14 22.73,-1.37 -157.04,-180.15 -157.04,-180.15 0,0 -49.35,-49.98 -33.41,-38.17 25.05,18.56 129.74,10.27 189.36,-6.5 59.62,-16.78 151.28,-79.86 152.75,-134.84 0.89,-33.37 -118.1,58.39 -170.3,78.83 -47.34,18.54 -132.42,72.82 -132.42,72.82 0,0 78.46,36.62 104.75,58.13 96.89,79.26 195.54,308.53 240.52,339 24.94,16.9 20.31,-113.65 -44.79,-191.77 -49.9,-59.89 -165.44,-157.37 -187.35,-165.6 16.55,6.31 134.65,25.41 218.42,23.84 6.19,-0.11 214.53,-28.42 196.64,-41.67 -129.11,-95.68 -309.69,42.06 -415.06,17.83 -80.62,-18.53 -109.75,-34.84 -183.45,-82.66 -141.55,-91.84 -270.04,-88.35 -451.98,-142.87 -126.32,-37.85 -127.47,-34.43 -138.38,-37.87 -139.05,-43.86 -169.07,-64.11 -185.31,-70.06 -185.11,-67.83 -267.96,-10.91 -403.527,-82.99 -100.26,-53.3 -211.14,-86.4 -216.712,-79.56 -34.552,42.42 127.038,136.11 42.869,140.89 -24.784,1.41 -92.551,16.55 -77.135,42.84 13.807,23.54 94.006,79.48 94.006,79.48 -20.011,-1.57 -47.618,-23.25 -131.653,2.4 -61.724,18.84 9.556,78.48 66.297,107.5 -66.628,19.08 -69.901,25.78 -72.727,31.56 -15.754,32.23 6.055,26.77 37.465,42.84 -133.12,86.01 -3.336,96.25 30.854,117.24 29.925,18.36 -90.238,20.62 -96.97,65.38 -5.062,33.66 100.403,69.09 81.543,67.63 -32.477,-2.5 -168.043,48.76 -115.878,54.45 205.838,22.46 49.194,57.34 -14.18,59.26 25.895,44.17 178.13,44.33 161.403,47.33 -19.586,3.52 -124.686,6.79 -155.284,54.86 -8.815,13.85 148.744,21.72 161.474,23.57 -166.798,14.74 -166.159,54.57 -136.188,85.69 5.236,5.43 36.809,7.43 40.037,7.94 58.592,9.21 58.729,-14.24 376.684,0.49 187.492,8.68 350.702,-25.54 579.632,-12.56 10.95,0.62 120.02,-4.63 126.24,46.76 6.78,55.97 -90.97,39.9 -103,38.37 -66.85,-8.48 -184,-78.55 -198.25,-85.32 1.24,-1.28 206.79,-151.53 252.1,-97.78 47.47,56.3 -22.49,72.72 -49.47,77.66 -90.63,16.62 -147.8,-9.9 -202.63,20.12 60.47,41.18 70.66,44.41 135.49,78.09 68.93,35.81 124.6,76.45 58.32,104.98 -51.41,22.12 -222.93,-148.85 -223.07,-186.74 -0.24,-66.73 95.01,-135.01 125.27,-158.44 5.49,-4.25 75.18,-43.92 85.98,-2.41 6.72,25.82 -123.1,135.96 -190.18,158.3 -32.14,10.7 -51.9,21.16 -434.341,17.26 -169.109,-1.73 -386.109,25.58 -379.374,57.32 9.123,43 99.262,60.48 126.808,61.96 -32.42,7.43 -119.275,28.92 -117.313,48.61 1.961,19.69 134.816,56.66 134.816,56.66 0,0 -97.431,39.91 -113.206,67.91 -16.065,28.52 12.897,49.24 98.098,62.75 -23.177,16.6 -66.963,39.54 -71.746,71.1 -6.554,43.25 135.588,27.17 147.505,25.83 -59.891,20.52 -74.771,3.9 -103.253,57.6 -39.926,75.27 147.702,38.43 145.397,53.63 -0.952,6.29 -114.148,77.22 -75.859,164.88 23.936,54.8 138.466,13.58 160.148,7.94 -0.076,0.03 -108.813,27.47 -122.219,103.29 -13.893,78.59 125.956,30.01 162.256,19.87 -3.532,1.62 -87.389,29.21 -115.897,69.52 -23.013,32.54 -1.351,53.56 14.751,57.61 44.817,11.27 44.652,0.76 112.72,-11.66 -60.531,42.8 -65.873,38.9 -74.791,61.32 -2.942,7.4 -3.333,31.66 8.429,39.73 38.697,26.53 42.55,7.55 113.79,-7.95 -39.752,30.66 -49.499,25.15 -52.681,53.64 -11.282,101.03 98.242,31 116.632,25.75 -78.475,19.37 -57.727,103.88 -36.557,109.32 12.847,3.31 -0.097,20.27 130.177,-35.93 -72.98,17.64 -40.16,44.03 -66.96,67.71 -18.56,16.41 -21.37,47.05 -14.75,55.62 31.45,40.77 41.28,15.06 90.61,-3.97 -3.32,2.21 -44.9,13.59 -33.96,27.95 2.35,3.07 4.04,-0.18 43.05,24.34 17.94,11.27 87.33,5.04 94.89,4.36 -50.71,9.96 -52.57,5.19 -69.43,19.64 -3.03,2.59 -38.68,33.15 4.63,47.99 48.54,16.64 87.7,-4.32 87.95,-4.36 -2.42,1.14 -53.79,6.38 -60.18,54.54 -2.24,16.92 47.48,-12.71 102.89,-18.12 -25.09,30.93 -69.51,68.86 -37.4,93.08 16.52,12.46 88.13,-18.29 87.19,-16.68 -109.23,189.26 219.41,-82.47 250.65,-119.6 26.07,-31.01 69.05,-69.93 69.08,-73.32 -4.56,-95.74 -6.23,-188.73 -53.78,-283.06 0,0 -88.9,-72.25 -204.93,-48.69 138.3,-23.76 148.81,28.13 199.37,28.97 -36.77,-159.27 -50.66,-191.32 -62.92,-202.21 -30.6,-27.16 -174.39,-67.79 -188.17,-72.88 155.02,31.12 198.54,74.68 194.33,60.22 -45.8,-157.42 -35.11,-171.56 -44.71,-181.44 -55.71,-57.31 -173.71,-81.94 -190.39,-85.42 163.53,30.94 193.7,85.72 192.54,69.37 -0.61,-8.63 27.04,-222.9 27.04,-222.9 -19.95,110.53 -24.05,310.54 -1.14,303.85 43.11,-76.54 43.89,-106.09 104.3,-153.2 -52.56,43.71 -102.74,153.93 -101.81,170.8 0.56,10.41 54.27,258.74 118.05,424.2 5.05,13.1 85.04,-156.34 76.39,-195.17 -31.44,-141.02 -40.8,-136.38 -69.56,-164.55 52.89,27.16 57.81,125.72 79.26,172.4 3.51,-10.66 42.83,-131.84 41.75,-151.54 -1.02,-18.35 2.98,54.13 -59.46,231.38 54.05,-37.54 67.93,-46.34 124.38,-70.47 -106.98,54.41 -128.62,73.49 -176.28,184.17 -0.64,1.47 -5.51,12.8 -5.51,18.98 0,5.86 10.57,39.81 11.3,43.06 13.16,58.98 10.12,64.5 23.05,108.83 149.65,-230.28 217.92,-253.15 207.62,-293.05 -15.99,-61.96 -10.34,-246.26 -10.34,-246.26 -55.79,-11.31 -56.05,-142.12 -76.79,-194.25 32.57,45.55 24.05,173.55 77.77,180.97 0,0 9.34,-5.36 16.46,-74.85 5.36,-52.36 10.68,-52.11 17.48,-82.52 18.45,-46.85 40.44,-75.61 101.87,-173.3 -10.17,-57.52 68.87,-144.39 77.5,-210.01 -5.58,80.9 -70.83,111.66 -71.55,190.47 62.64,-40.1 58.84,-106.33 219.06,-105.82 -85.24,2.86 -157.59,-16.78 -325.9,284.96 -6.81,-80.85 34.35,-115.43 -17.88,-235.37 37.79,-46.04 38.91,-75.32 46.97,-126.54 -7.45,50.73 -24.67,90.62 -50.91,117.73 -49.76,-19.12 -35.45,-76.56 -45.89,-107.41 -11.99,110.19 45.97,97.89 61.57,154.12 14.02,50.59 10.94,85 10.94,85 0,0 -31.43,247.63 -35.02,371.16 35.96,-88.17 131.2,-176.6 131.2,-176.6 -54.83,50.46 -99.53,121.37 -130.28,184.63 0,0 5.77,112.55 6.31,111.91 85.75,-101.51 119.44,-209.17 268.7,-289.28 -0.29,-30.72 7.49,-65.95 11.2,-92.56 21.28,-152.48 88.5,-179.71 88.5,-179.71 -77.08,54.1 -95,251.31 -93.13,266.66 58.91,-26.53 68.4,-26.69 130.34,-45.62 -106.08,34.81 -183.25,74.11 -254.88,146.76 -16.69,16.93 -148.6,199.59 -148.6,199.59 0,0 -5.44,31.84 8.51,58.03 150.16,-99.62 163.61,-113.86 322.61,-183.37 60.72,-26.55 59.58,-29.97 64.4,-31.68 35.66,-12.68 224.11,-22.49 327.02,-25.5 -140.02,0.56 -299.68,4.47 -336.14,31.83 58.79,-39.41 81.19,-56.98 141.84,-131.85 22.6,-27.91 174.03,-51.03 266.89,-87.41 -68.37,21.73 -218.75,52.98 -268.29,80.47 28.24,-67.34 16.89,-144.31 111.71,-209.54 -101.77,59.09 -107.48,204.1 -111.71,209.54 -10.9,13.99 -49.63,110.65 -218.88,181.91 44.62,20.63 196.69,46.68 196.69,46.68 0,0 -177.25,-22.62 -212.6,-39.85 -52.94,21.04 -24.46,8.46 -95.38,47.8 -74.47,41.33 -88.42,49.9 -149.95,94.2 70.43,-9.43 153.08,27.77 153.08,27.77 -64.47,-14.2 -127.55,-26.87 -169.01,-15.58 -17.89,1.68 -133.02,140.29 -132.35,149.4 2.17,29.48 101.09,23.63 231.12,-26.58 -60.47,24.61 -100.8,42.39 -151.34,46.66 -25.37,2.14 -55.09,-4.08 -89.44,18.5 -21.73,14.29 -63.06,90.02 -69.87,98.63 187.31,-32.93 382.99,23.2 417.73,-2.86 4.24,-3.18 46.28,-117.32 126.41,-200.48 -63.3,62.52 -94.49,178.05 -116.63,200.81 26.93,21.91 103.87,16.59 121.73,0.78 41.23,-36.48 70.08,-62.57 103.86,-92.82 35.89,-32.13 24.11,-83.78 16.63,-153.33 20.74,63.43 9.74,134.47 -2.25,146.63 31.41,-33.28 147.22,-97.24 208.7,-105.97 -76.25,24.78 -216.67,113 -218.25,119.38 60.36,-7.53 174.68,-29.59 223.97,15.99 -74.03,-31.13 -130.67,-28.47 -226.49,-7.32 -38.7,8.55 -78.72,65.61 -106.17,86.91 49.21,27.13 269.83,74.84 269.83,74.84 -245.46,-42.05 -287.4,-90.09 -280.72,-48.4 10.47,65.34 114.33,109.34 130.18,171.75 -26.74,-70.59 -136.44,-102.34 -137.34,-188.26 -74.48,10.24 -96.91,-7.54 -114.05,-7.33 -120.28,1.45 -146.15,-7.86 -164.14,-5.69 65.05,67.46 48.8,76.12 74.24,109.77 34.08,45.08 56.87,55.2 62.79,60.22 18.12,-17.88 61.37,-22.69 81.59,-69.77 -21.58,62.68 -76.7,76.69 -76.7,76.69 0,0 90.79,76.5 127.15,87.08 -26.76,-5.83 -104.42,-69.73 -131.17,-75.56 -25.73,54.71 -9.92,150.51 48.13,203.31 -58.42,-47.08 -82.95,-148.62 -58.61,-208.37 -54.36,14.3 -126.4,60.53 -113.75,123.67 -2.16,-88.87 70.65,-108.77 110.24,-140.04 -49.21,-37.77 -51.82,-58.37 -90.04,-110.38 -24.05,-32.72 -43.59,-51.71 -76.84,-56.97 -39.37,-6.23 -94.13,1.6 -145.47,-0.38 7.79,6.54 49.54,42.54 71.14,106.36 43.06,3.9 53.81,48.05 100.94,49.49 -41.41,-1.74 -87.61,-45.68 -97,-39.16 -5.94,4.13 -46.62,80.74 -61.31,161.32 5.92,-42.43 36.7,-120.75 50.15,-163.89 -10.77,-38.85 -14.51,-39.58 -37.99,-69.37 -17.8,-22.58 -36.62,-31.35 -57.81,-30.07 -44.24,2.67 -232.87,180.56 -278.92,246.03 0,0 -47.88,111.78 -28.97,126.63 3.02,2.38 28.29,2.97 41.66,0 5.81,-1.29 4.78,-2.57 64.8,-34.9 -3.33,3.14 -41.66,39.27 -41.66,39.27 -10.59,18.72 -33.84,147.07 99.52,76.36 -0.5,1.61 -39.04,63.02 11.57,82.9 29.18,11.46 29.27,2.57 57.86,-10.91 15.6,34.93 9.26,41.77 32.41,48 26.62,7.17 66.98,-6.93 62.48,-19.63 -5.16,-14.6 -39.45,75.53 13.89,76.36 59.75,0.92 117.53,-44.02 70.04,62.02 -5.22,11.66 57.01,1.52 84.89,-26.78 6.42,69.63 14.49,91.14 23.28,95.66 19.43,9.99 43.18,-5.04 80.5,-38.25 -0.07,1.43 -42.55,75.2 9.76,90.61 50.26,14.81 48.18,-2.33 94.89,-26.18 -2.47,29.17 -12.22,76.26 16.2,80.72 24.2,3.81 75.71,-41.43 71.75,-15.27 -0.31,2.06 -22.56,40.09 20.83,74.18 52.27,41.07 56.22,-38.93 122.25,-53.87 0.03,0.16 -38.93,65.8 -6.48,101.94 2.38,2.66 41.75,24.77 69.31,19.57 25.71,-4.84 90.69,-90.56 90.69,-90.56 7.26,54.72 13.85,133.97 20.87,139.48 43.54,34.21 143.41,-175.82 148.31,-92.5 1.45,24.53 14.64,119.13 14.64,119.13"
     style="fill-rule:evenodd;clip-rule:evenodd;stroke-linejoin:round;stroke-miterlimit:2;vector-effect:non-scaling-stroke;-inkscape-stroke:hairline;stroke-width:0.89371861;stroke-dasharray:none;stroke:#000000;stroke-opacity:1;fill:none"
     id="path1-8"
     transform="matrix(1.10156,-0.196714,0.19669,1.10143,-1446.7387,-375.88635)" /></g></svg>
