<?xml version="1.0" encoding="UTF-8" standalone="no"?>
<svg
   width="100%"
   height="100%"
   viewBox="0 0 5100 3300"
   version="1.1"
   xml:space="preserve"
   style="fill-rule:evenodd;clip-rule:evenodd;stroke-linejoin:round;stroke-miterlimit:2;"
   id="svg1"
   sodipodi:docname="flowers.svg"
   inkscape:version="1.4.2 (f4327f4, 2025-05-13)"
   xmlns:inkscape="http://www.inkscape.org/namespaces/inkscape"
   xmlns:sodipodi="http://sodipodi.sourceforge.net/DTD/sodipodi-0.dtd"
   xmlns="http://www.w3.org/2000/svg"
   xmlns:svg="http://www.w3.org/2000/svg"><defs
   id="defs1" /><sodipodi:namedview
   id="namedview1"
   pagecolor="#ffffff"
   bordercolor="#000000"
   borderopacity="0.25"
   inkscape:showpageshadow="2"
   inkscape:pageopacity="0.0"
   inkscape:pagecheckerboard="0"
   inkscape:deskcolor="#d1d1d1"
   inkscape:zoom="0.13151515"
   inkscape:cx="87.442397"
   inkscape:cy="2068.2028"
   inkscape:window-width="1920"
   inkscape:window-height="1112"
   inkscape:window-x="-8"
   inkscape:window-y="-8"
   inkscape:window-maximized="1"
   inkscape:current-layer="g1" />
    <g
   transform="matrix(-0.654603,-0.472867,0.485193,-0.671667,3402.7,4271.25)"
   id="g1">
        <path
   d="m 6483.4237,1783.2914 c -0.01,19.2883 -0.1925,42.8922 15.1552,55.4742 2.2793,1.864 116.5914,103.7762 132.8001,120.6839 93.8587,97.921 311.8761,461.7762 361.7484,510.1389 48.3425,46.8837 69.3834,99.481 63.913,99.7241 -11.0118,0.4761 18.9339,-41.5551 27.2105,-99.7645 16.7761,-118.1209 12.4606,-145.0072 39.1037,-122.6492 51.6451,43.338 45.6883,60.5699 43.6926,93.4229 -4.1029,67.7423 -49.8723,99.1365 -77.954,120.9574 77.7919,-30.9991 93.1902,-169.5429 129.5282,-173.281 28.7908,-2.9682 38.9414,93.9092 10.8699,117.1889 -25.5491,21.1726 -90.07,50.5001 -111.9315,80.5268 -2.4313,-3.0493 -2.6239,11.6803 -5.045,8.6209 -6.8077,-8.55 45.3136,-36.5505 54.9781,-39.6403 50.6118,-16.2188 35.872,-31.0599 123.1561,-94.8411 42.9532,-31.3841 14.5067,155.9987 -88.1149,143.1937 -74.4893,-9.2897 -101.0919,22.6719 -89.5533,2.3603 5.7541,-10.1507 16.6038,-14.0914 30.4218,-14.2332 31.7083,-0.314 117.6754,14.8513 155.1278,25.701 103.7055,30.0268 -16.0367,115.9031 -109.0342,62.3123 -42.9228,-24.7285 -68.8771,-8.7021 -94.2741,-50.7333 62.2922,6.1188 146.5776,89.979 141.5326,138.6773 -12.6835,122.4598 -142.5559,-21.072 -158.5721,-114.4554 -4.974,-28.9934 33.6534,44.8575 36.4494,108.4579 3.3531,76.2537 -9.4722,160.6422 -60.9754,82.2917 -15.0234,-22.8549 -19.1668,-51.839 -16.4923,-92.6049 5.4401,-82.8681 -2.5325,-71.0864 8.4286,-92.9073 23.9484,-47.7043 -22.4087,149.3354 -75.695,191.246 -50.9866,40.1075 -112.0126,49.9442 -38.6577,-82.5348 48.3628,-87.3665 89.0974,-110.9704 94.5578,-145.0491 7.7295,-48.302 44.7463,-57.9765 60.7828,-43.2469 6.4937,5.9669 14.1016,15.8745 11.4272,27.9499 -2.9278,13.2405 -23.057,39.4581 -53.0736,33.9066 -2.3806,-0.4457 -11.184,-2.9176 -12.4503,-4.9234 l -8.4792,-6.2302 c -0.3141,2.7149 3.2012,90.8097 -105.4278,123.6026 -70.731,21.3555 -144.7238,5.5819 -111.192,-19.5929 95.9356,-72.028 125.6584,-110.3515 212.3043,-136.7817 -84.5996,117.0169 -256.6047,-18.5694 -252.2587,-23.28 50.5713,-54.6942 117.9288,-26.1466 228.3103,-28.6994 12.8657,-0.3039 57.1054,16.1176 49.9533,24.5867 -49.0112,58.0474 -223.8934,-103.9183 -202.4167,-127.745 41.4032,-45.9314 202.133,95.1959 216.5892,107.8893 27.8993,24.5056 -52.4556,2.7352 -72.8885,-186.6129 -4.0522,-37.5535 94.4767,1.3779 88.1957,140.1041 -4.7716,105.5491 -36.49,31.769 -38.9821,29.6315 -49.6089,-42.477 -45.0197,-71.7742 -161.8542,-228.1883 -15.1147,-20.2407 -83.0292,-129.9229 -90.08,-141.3197 -127.4816,-205.9115 -266.2385,-334.9429 -275.3761,-374.5326 l -7.0812,-25.944 c -9.2795,-0.2533 76.4648,-17.8802 68.4718,-12.2578 5.2375,-17.1508 38.6681,-81.4384 53.5903,-101.1725 29.6518,-39.215 109.6623,-87.2434 137.0145,-91.6198 186.0764,-29.7327 437.2815,-15.6816 481.7949,-191.85 7.8207,20.6357 52.0604,77.3763 -105.4988,196.5509 -114.2008,86.3823 -387.9766,119.7011 -411.1652,132.1311 -68.5934,36.7734 -72.8077,25.3463 -144.0248,56.6492 109.5711,-29.1755 141.0666,-0.7597 159.109,7.3042 121.1299,54.1978 166.636,34.5854 371.8588,88.8137 91.7213,24.232 233.9529,157.6197 208.3532,213.1851 -15.1249,32.8327 -2.5732,-31.0599 -74.9553,-66.4254 -12.582,-6.1491 -27.2509,-13.3114 -171.7113,-33.7345 -145.7977,-20.6054 -140.54,-37.6347 -275.3662,-96.2191 -14.7196,-6.3923 -174.2541,-75.7149 -184.1819,-79.5949 -3.8091,-1.4892 -63.285,-24.7487 -36.3886,-35.7908 123.2269,-50.5811 226.2335,26.8458 378.6058,-36.3578 156.303,-64.8245 360.2292,-7.0201 566.8198,-7.9215 218.725,-0.9622 290.3068,141.1677 296.0609,137.1358 47.0561,-33.0049 22.9151,-58.7058 -18.0524,-83.2113 -22.6011,-13.5242 -34.4842,-16.8672 -21.355,-26.2074 57.3892,-40.8155 57.3182,-53.0125 -22.5605,-118.3337 -17.0293,-13.9193 61.9478,-37.2091 7.8613,-69.5962 -21.3752,-12.805 -80.4258,42.1325 -84.2045,62.8391 -11.2347,61.6843 -81.975,85.7339 -87.962,89.5936 -32.5992,21.0206 53.4169,0.3445 135.099,70.6598 9.3909,-3.4342 98.691,-63.6696 95.0846,-84.0419 -2.6239,-14.8006 -100.8487,-124.554 -136.2041,-77.032 -99.0852,133.205 -140.5179,97.7181 -232.7153,105.2044 117.1989,3.2823 124.2901,-28.5778 254.6781,38.3438 120.7145,61.9579 130.0041,131.6957 126.6408,148.2083 -23.604,0.699 -38.8402,-8.4893 -71.8047,-18.7313 -18.3159,-5.6831 -44.0777,-20.0886 -70.4372,-19.5213 -300.5893,6.4427 -225.0969,-216.1936 -221.2575,-228.9074 24.1714,-80.061 171.436,-120.0862 218.938,-124.0878 33.9067,-2.8466 123.0345,-24.5257 55.5655,27.8082 -66.0912,51.2601 -53.6206,105.0933 -111.6378,144.7742 -104.3015,71.3384 -459.8301,-34.5249 -619.5166,20.7567 -169.1282,58.5436 -370.1368,5.7741 -495.9572,45.4954 l -29.4695,5.8654 c -6.9495,-7.6282 -4.5992,-15.307 -3.6267,-28.7096 23.0572,-317.4477 107.2215,-797.79259 232.7074,-724.5899 22.7328,13.2607 -29.6215,110.0267 -76.6067,160.3648 -41.1398,44.0775 -109.7637,198.9618 -110.7969,57.2166 -0.861,-119.4987 150.0631,-763.75502 -12.7031,-674.97422 -55.9708,30.5272 15.8944,452.90487 85.7643,292.22297 31.0702,-71.47527 196.1665,-284.91177 104.1617,-305.90067 -9.9178,-2.262 -111.9215,106.6187 -134.6341,360.31023 -91.316,-47.98393 -102.9253,-411.23373 -183.9387,-294.22413 -80.517,116.305 43.8141,200.22467 58.4425,209.80808 108.1022,70.82503 104.05,97.24523 223.5894,23.362 166.7172,-103.04468 148.1988,-215.09748 115.994,-210.79008 -23.0671,3.0847 -232.0992,239.23726 -217.2378,283.81224 9.4719,28.41585 -62.8395,291.99978 -29.8852,371.28058 6.6557,15.996 -6.0479,56.923 -37.2296,219.0709 -11.802,61.35 -32.3873,273.451 -32.3873,273.451 -74.4791,-194.5957 -505.2972,-324.1342 -539.6395,-333.9101 -229.0092,-65.1997 -356.3087,38.8095 -379.2137,53.1542 -78.197,-72.9596 -2.5223,-153.5472 -27.2508,-209.5077 -66.9926,-151.6325 -310.5106,8.8335 -203.4808,120.086 5.8556,6.0783 89.1078,44.9995 96.9691,48.6769 117.4322,54.9072 136.9435,41.2615 146.3952,34.6564 -151.7036,7.1722 -207.1171,-122.3557 -279.9969,-54.0867 -102.1361,95.6922 41.09,210.9262 121.8097,197.5845 106.5623,-17.6269 78.9468,-81.8236 162.7864,-143.4471 -32.3871,48.5248 -42.7202,39.1946 -78.3085,86.2607 -13.5545,17.9309 -128.7379,47.3801 -39.9952,186.3292 70.2749,110.0469 226.2841,16.8572 199.6107,-24.9207 -65.5035,-102.5707 -84.7919,-147.6614 -80.0103,-203.541 5.5009,-64.2372 21.5374,-50.2166 22.4188,-51.2803 -59.8509,89.543 42.5883,245.9876 78.288,237.2957 111.344,-27.0988 203.197,-205.3744 106.8158,-237.174 -43.6116,-14.3853 -57.1561,-35.3655 -193.4918,-1.1956 56.1734,-23.3911 143.1536,-36.8848 158.7242,-136.5987 23.675,-151.6527 -154.0032,-247.4362 -214.31,-16.5331 -20.9093,80.0305 -12.6227,156.2621 58.0879,159.8686 -20.4432,0.5369 -16.8672,7.6586 -126.499,66.7799 -12.3693,6.6658 -151.1978,60.2051 -116.5105,165.8859 -25.1038,-20.9497 -24.8403,-2.2489 -23.6652,-0.7496 17.4855,22.1552 21.3555,-39.7923 0.6079,-28.5172 -6.6356,3.6064 11.4983,14.6182 14.73,-5.0956 3.0189,-18.3766 -11.1336,-17.5054 -11.9238,-13.514 -3.7585,19.2377 5.9669,16.0669 26.5218,19.4707 -37.3211,21.983 3.647,27.6966 11.0725,21.6488 53.0736,-43.2063 -22.4489,-17.4345 -20.4937,-18.245 27.9397,-11.5892 -4.7918,-60.8232 -8.9657,-28.6184 -4.0928,31.5867 43.8751,-28.9427 12.3696,-33.0557 -18.4277,-2.4111 -19.2281,13.7774 -10.1813,13.8686 16.3,0.1621 -2.1275,-30.128 -13.0686,-12.3491 -12.947,21.0208 53.8234,21.811 49.7004,-12.3287 -2.2895,-19.0148 -27.6561,34.9501 0.071,30.28 29.5099,-4.9741 17.3737,-59.4658 -1.8843,-30.8777 -12.5112,18.559 31.9615,35.2844 30.3306,-3.7786 -0.1013,-2.2693 -0.8003,-19.0959 -14.8006,-25.1843 -9.0668,-3.9306 -27.1597,21.7298 -28.8818,24.1712 -0.6281,-0.9826 -12.8049,-20.2305 -12.3086,-8.2665 0.2127,5.0146 32.7518,36.6723 46.7216,-40.8763 -3.4646,16.0568 -14.1218,25.7921 2.7859,23.8977 20.0684,-2.259 13.048,-38.1006 1.5702,-19.7847 -19.1769,30.5939 55.0692,37.5131 32.3567,16.0365 -12.2072,-11.5386 -26.1163,29.4188 1.398,19.2276 40.5016,-15.0133 4.4575,-71.4298 -1.2764,-44.8475 -2.3098,10.7382 23.1178,-6.21 8.8946,-16.2087 -16.1176,-11.3259 -25.8834,26.8659 2.1172,22.1452 31.4247,-5.2983 8.6109,-42.5277 1.0334,-32.5999 -10.8903,14.2738 28.973,62.1403 32.8733,14.2941 0.8408,-10.3432 -9.1579,-16.3809 -10.0089,-10.5762 -2.1984,15.1349 24.9412,40.1774 38.8503,-0.2026 6.1188,-17.7384 -38.7389,-8.9046 -18.2247,7.3953 28.8414,22.9049 32.5492,-51.3715 63.9334,-58.1792 3.2721,-0.7091 107.8286,-23.4013 41.6261,-5.4198 13.3925,-13.4532 35.6795,-67.0432 219.0004,-52.587 377.1571,29.7434 650.487,322.6047 663.92,345.0436 l -27.9703,59.2832 c -0.4153,1.8032 -0.4761,1.4082 -0.78,3.3329 -1.084,7.0913 -10.8194,70.366 -36.723,82.2692 -44.9996,20.6863 -131.7671,142.3225 -148.3811,161.3373 -63.2243,72.3819 -82.4418,60.3875 -111.9215,150.3762 -22.2567,67.9347 -59.2126,79.2098 -102.6522,244.9235 -7.0002,26.6937 9.8468,64.6018 8.7324,70.1533 -5.0754,25.5591 -24.1409,-15.1045 -63.4876,-25.4578 -21.4664,-5.6427 -20.8282,-5.3793 -42.6593,-7.8511 -60.7626,-6.8787 -16.148,37.7156 -43.6624,92.4098 4.4878,-4.9032 10.1203,-5.9466 10.252,-21.3145 0.041,-4.2548 -5.9871,-3.6672 -3.4038,-0.2532 40.5421,53.6711 42.011,55.2514 37.7765,68.4514 -10.4749,-28.1424 -19.6227,-24.5866 -23.1177,-54.2485 -3.6672,-31.1005 -67.3069,15.54 -72.5848,19.1464 27.7676,-8.2259 26.7444,-12.9568 68.2186,-15.2158 -15.9758,45.8807 18.0929,68.8667 30.7864,94.8817 2.3401,4.8018 -13.8585,1.3575 -31.7185,-47.1876 -6.1593,-16.7456 10.6978,-39.4885 0.1216,-45.6984 -30.4319,-17.9107 -16.2189,13.3519 -12.2782,101.0207 -10.2317,-76.2721 -3.1606,-76.4038 5.7339,-100.7067 -17.5865,13.4431 -17.9512,13.9902 -22.4998,35.4768 -2.2084,10.4141 -30.5332,39.225 -33.5723,42.3148 0.7091,-12.349 -4.2447,-16.1479 6.058,-19.1465 0.3242,-0.091 13.7977,-0.5673 14.5879,-9.0667 2.6947,-28.7806 13.0886,-32.4073 19.1466,-41.3424 -13.3925,16.5228 -15.0843,17.1205 -16.9382,17.779 -29.3986,10.3431 -28.2437,11.8627 -52.5974,31.5562 4.0826,-4.9538 4.8626,-12.0248 8.9453,-16.9786 8.7729,-10.6369 29.0946,0.3951 50.3585,-33.1265 -9.7252,16.5835 -12.4909,15.0336 -44.5335,17.6674 -16.5127,1.3575 -15.0134,6.1189 -58.1489,21.9425 11.5588,-9.249 29.1352,-28.9223 35.72,-26.5619 24.9412,8.9249 63.6801,-5.0449 65.767,-6.5949 11.6703,-8.6514 -93.7371,-59.2632 -96.442,-60.5092 -30.4927,-14.0205 -52.263,-20.0684 -76.5052,-11.7818 l -16.4418,5.5515 c 2.4009,-7.4864 37.2903,-5.7034 45.3136,-7.618 46.8737,-11.2246 199.7422,148.9885 169.6448,-22.3477 33.8356,85.0553 -21.7198,83.1406 -15.8138,81.6007 31.2829,-8.1752 29.7532,0.8105 59.1214,13.5343 37.1991,16.1277 91.3363,27.4232 99.4609,29.115 58.2502,12.1566 52.7493,24.6474 66.1924,81.0742 23.533,98.8554 -14.4157,93.3645 -28.0514,127.5962 -51.7768,130.0563 -163.9109,-0.092 -157.4881,-68.8383 7.9626,-85.1785 8.1855,-85.1785 -14.608,-167.0729 34.4131,152.6874 22.4489,289.857 8.2257,293.8788 -8.3779,2.3706 -189.2269,9.6544 -172.2988,-100.4359 20.2407,-131.6373 76.3837,-111.8727 146.75,-200.98 -15.8441,57.3686 -207.5732,74.0229 -139.8208,214.616 -9.5632,-6.0075 -106.7447,-67.0957 -112.5697,-84.7535 -47.6941,-144.5924 -0.7394,-144.1061 45.9418,-189.3689 -56.0519,25.0627 -65.7467,19.0351 -80.2941,69.1807 l 0.4964,0.4559 c -2.5326,-16.7456 -39.5898,-62.1706 64.7743,-108.7806 35.0109,-15.6313 214.2795,5.9771 229.9818,9.1783 -97.4247,-24.6879 -179.4004,7.7598 -208.6166,-50.703 -30.3407,-60.7016 124.6148,-1.6917 198.1011,2.6037 85.6227,5.0045 129.7409,29.0947 148.5126,87.6588 -79.9698,-67.2358 -107.859,-42.0313 -111.1818,-42.6593 -96.442,-18.1438 153.1725,123.9258 175.7229,192.2961 34.2915,103.9409 66.6686,28.4469 66.7192,22.8548 0.6687,-74.4491 -48.2918,-98.438 -84.103,-132.0508 -31.1613,-29.2568 -77.0827,-46.4684 -48.7173,-127.755 50.4498,-144.5715 167.4771,-431.3743 180.4542,-296.7306 3.0999,32.1236 -0.6383,58.2399 31.303,94.8716 50.4699,57.8854 15.1956,114.2612 46.4481,87.6587 2.0059,-1.712 55.2618,-47.0457 32.8329,-3.4443 -11.5791,22.4997 -23.9789,44.6043 -34.7273,67.489 -7.6485,16.2998 39.9444,2.6238 43.2875,1.6614 8.8236,-2.5326 60.023,27.5244 -53.3877,100.5952 43.5813,-10.7078 46.7522,-9.0464 71.2679,-46.3771 28.8718,37.4928 26.4202,38.05 59.7191,71.4096 -10.6877,-32.4073 -11.6298,-30.8067 -29.3682,-61.2285 l 45.4554,8.3678 c -25.235,-33.9775 -19.3694,-45.9618 -94.7603,-99.2784 43.8244,6.9293 43.0038,7.1218 86.6661,17.7486 -43.3584,-46.4886 -42.4567,-46.6102 -93.9296,-84.9641 l 38.5059,-0.3748 c -44.9084,-30.3001 -44.6348,-30.8066 -97.84,-41.2816 29.9962,36.733 30.0975,35.3452 67.0028,63.599 -54.1574,-29.7532 -107.1295,-128.292 -118.4756,-176.4521 -16.4113,-69.6772 62.7583,-123.1456 113.9172,-206.7926 l -59.3342,32.3161 22.5606,-10.7788 c -43.3584,-4.6094 -43.8244,-12.3288 -68.9277,0.8712 -14.9728,7.8713 -64.6729,51.2701 -73.9828,52.7795 -35.0616,5.673 38.4755,-52.1616 31.911,-54.9678 -52.03,-22.2768 -101.0717,93.3418 -98.995,84.4676 0,0 13.3622,-55.9606 14.8919,-60.5699 -72.99,26.3593 -24.5158,62.2718 -57.3183,92.268 -7.304,6.6759 -13.3013,-7.3041 5.2679,-68.6034 -25.3059,42.8315 -54.3398,-0.4153 -78.886,78.4805 42.0416,-93.1798 29.2873,-59.6581 -31.4955,-74.4689 -4.4068,-15.3679 186.3195,5.7036 89.9889,-63.8521 19.3999,0.091 71.8858,27.332 91.2856,27.4232 -10.2824,-12.0958 -19.2377,-37.1179 -29.5303,-49.2238 24.222,6.8684 48.4439,13.7369 72.6557,20.6155 -8.0739,-13.1291 -16.158,-26.2581 -24.2421,-39.3771 52.5163,35.8618 53.2659,35.6086 58.4628,33.8763 9.0769,-3.029 -5.7135,-12.0451 -14.7803,-34.8386 -13.048,-32.7923 4.2346,7.5269 28.5679,33.4507 14.1421,15.0741 18.7819,-2.3401 39.9748,4.9234 86.4534,29.6114 218.5446,-110.7862 212.1929,-164.6193"
   style="clip-rule:evenodd;vector-effect:non-scaling-stroke;fill:none;fill-opacity:1;fill-rule:evenodd;stroke:#000000;stroke-width:1.22251;stroke-linejoin:round;stroke-miterlimit:2;stroke-dasharray:none;stroke-opacity:1;-inkscape-stroke:hairline"
   id="path1-8" />
    </g>
</svg>
