<?xml version="1.0" encoding="UTF-8" standalone="no"?>
<svg
   width="6615"
   height="6615"
   viewBox="0 0 6615 6615"
   version="1.1"
   xml:space="preserve"
   style="clip-rule:evenodd;fill-rule:evenodd;stroke-linejoin:round;stroke-miterlimit:2"
   id="svg2"
   sodipodi:docname="flowers.svg"
   inkscape:version="1.4.2 (f4327f4, 2025-05-13)"
   xmlns:inkscape="http://www.inkscape.org/namespaces/inkscape"
   xmlns:sodipodi="http://sodipodi.sourceforge.net/DTD/sodipodi-0.dtd"
   xmlns="http://www.w3.org/2000/svg"
   xmlns:svg="http://www.w3.org/2000/svg"><defs
   id="defs2" /><sodipodi:namedview
   id="namedview2"
   pagecolor="#ffffff"
   bordercolor="#000000"
   borderopacity="0.25"
   inkscape:showpageshadow="2"
   inkscape:pageopacity="0.0"
   inkscape:pagecheckerboard="0"
   inkscape:deskcolor="#d1d1d1"
   inkscape:zoom="0.15519399"
   inkscape:cx="2860.9355"
   inkscape:cy="2796.5"
   inkscape:window-width="1920"
   inkscape:window-height="1112"
   inkscape:window-x="-8"
   inkscape:window-y="-8"
   inkscape:window-maximized="1"
   inkscape:current-layer="svg2" />
    <g
   transform="translate(-70.697388,207.12771)"
   id="g2"
   style="vector-effect:non-scaling-stroke;stroke:#000000;stroke-width:1;stroke-dasharray:none;stroke-opacity:1;-inkscape-stroke:hairline">
        <g
   transform="matrix(-1.91365,-1.38237,1.4184,-1.96353,5539.53,10501.3)"
   id="g1"
   style="vector-effect:non-scaling-stroke;stroke:#000000;stroke-width:0.418185;stroke-dasharray:none;stroke-opacity:1;-inkscape-stroke:hairline">
            <g
   id="path"
   style="vector-effect:non-scaling-stroke;stroke:#000000;stroke-width:0.418185;stroke-dasharray:none;stroke-opacity:1;-inkscape-stroke:hairline">
                <path
   d="m 2542.03,1879.19 c -0.01,19.04 -0.19,42.34 14.96,54.76 2.25,1.84 115.09,102.44 131.09,119.13 92.65,96.66 307.86,455.83 357.09,503.57 47.72,46.28 68.49,98.2 63.09,98.44 -10.87,0.47 18.69,-41.02 26.86,-98.48 16.56,-116.6 12.3,-143.14 38.6,-121.07 50.98,42.78 45.1,59.79 43.13,92.22 -4.05,66.87 -49.23,97.86 -76.95,119.4 76.79,-30.6 91.99,-167.36 127.86,-171.05 28.42,-2.93 38.44,92.7 10.73,115.68 -25.22,20.9 -88.91,49.85 -110.49,79.49 -2.4,-3.01 -2.59,11.53 -4.98,8.51 -6.72,-8.44 44.73,-36.08 54.27,-39.13 49.96,-16.01 35.41,-30.66 121.57,-93.62 42.4,-30.98 14.32,153.99 -86.98,141.35 -73.53,-9.17 -99.79,22.38 -88.4,2.33 5.68,-10.02 16.39,-13.91 30.03,-14.05 31.3,-0.31 116.16,14.66 153.13,25.37 102.37,29.64 -15.83,114.41 -107.63,61.51 -42.37,-24.41 -67.99,-8.59 -93.06,-50.08 61.49,6.04 144.69,88.82 139.71,136.89 -12.52,120.88 -140.72,-20.8 -156.53,-112.98 -4.91,-28.62 33.22,44.28 35.98,107.06 3.31,75.27 -9.35,158.57 -60.19,81.23 -14.83,-22.56 -18.92,-51.17 -16.28,-91.41 5.37,-81.8 -2.5,-70.17 8.32,-91.71 23.64,-47.09 -22.12,147.41 -74.72,188.78 -50.33,39.59 -110.57,49.3 -38.16,-81.47 47.74,-86.24 87.95,-109.54 93.34,-143.18 7.63,-47.68 44.17,-57.23 60,-42.69 6.41,5.89 13.92,15.67 11.28,27.59 -2.89,13.07 -22.76,38.95 -52.39,33.47 -2.35,-0.44 -11.04,-2.88 -12.29,-4.86 l -8.37,-6.15 c -0.31,2.68 3.16,89.64 -104.07,122.01 -69.82,21.08 -142.86,5.51 -109.76,-19.34 94.7,-71.1 124.04,-108.93 209.57,-135.02 -83.51,115.51 -253.3,-18.33 -249.01,-22.98 49.92,-53.99 116.41,-25.81 225.37,-28.33 12.7,-0.3 56.37,15.91 49.31,24.27 -48.38,57.3 -221.01,-102.58 -199.81,-126.1 40.87,-45.34 199.53,93.97 213.8,106.5 27.54,24.19 -51.78,2.7 -71.95,-184.21 -4,-37.07 93.26,1.36 87.06,138.3 -4.71,104.19 -36.02,31.36 -38.48,29.25 -48.97,-41.93 -44.44,-70.85 -159.77,-225.25 -14.92,-19.98 -81.96,-128.25 -88.92,-139.5 -125.84,-203.26 -262.81,-330.63 -271.83,-369.71 l -6.99,-25.61 c -9.16,-0.25 75.48,-17.65 67.59,-12.1 5.17,-16.93 38.17,-80.39 52.9,-99.87 29.27,-38.71 108.25,-86.12 135.25,-90.44 183.68,-29.35 431.65,-15.48 475.59,-189.38 7.72,20.37 51.39,76.38 -104.14,194.02 -112.73,85.27 -382.98,118.16 -405.87,130.43 -67.71,36.3 -71.87,25.02 -142.17,55.92 108.16,-28.8 139.25,-0.75 157.06,7.21 119.57,53.5 164.49,34.14 367.07,87.67 90.54,23.92 230.94,155.59 205.67,210.44 -14.93,32.41 -2.54,-30.66 -73.99,-65.57 -12.42,-6.07 -26.9,-13.14 -169.5,-33.3 -143.92,-20.34 -138.73,-37.15 -271.82,-94.98 -14.53,-6.31 -172.01,-74.74 -181.81,-78.57 -3.76,-1.47 -62.47,-24.43 -35.92,-35.33 121.64,-49.93 223.32,26.5 373.73,-35.89 154.29,-63.99 355.59,-6.93 559.52,-7.82 215.91,-0.95 286.57,139.35 292.25,135.37 46.45,-32.58 22.62,-57.95 -17.82,-82.14 -22.31,-13.35 -34.04,-16.65 -21.08,-25.87 56.65,-40.29 56.58,-52.33 -22.27,-116.81 -16.81,-13.74 61.15,-36.73 7.76,-68.7 -21.1,-12.64 -79.39,41.59 -83.12,62.03 -11.09,60.89 -80.92,84.63 -86.83,88.44 -32.18,20.75 52.73,0.34 133.36,69.75 9.27,-3.39 97.42,-62.85 93.86,-82.96 -2.59,-14.61 -99.55,-122.95 -134.45,-76.04 -97.81,131.49 -138.71,96.46 -229.72,103.85 115.69,3.24 122.69,-28.21 251.4,37.85 119.16,61.16 128.33,130 125.01,146.3 -23.3,0.69 -38.34,-8.38 -70.88,-18.49 -18.08,-5.61 -43.51,-19.83 -69.53,-19.27 -296.72,6.36 -222.2,-213.41 -218.41,-225.96 23.86,-79.03 169.23,-118.54 216.12,-122.49 33.47,-2.81 121.45,-24.21 54.85,27.45 -65.24,50.6 -52.93,103.74 -110.2,142.91 -102.96,70.42 -453.91,-34.08 -611.54,20.49 -166.95,57.79 -365.37,5.7 -489.57,44.91 l -29.09,5.79 c -6.86,-7.53 -4.54,-15.11 -3.58,-28.34 22.76,-313.36 105.84,-787.52 229.71,-715.26 22.44,13.09 -29.24,108.61 -75.62,158.3 -40.61,43.51 -108.35,196.4 -109.37,56.48 -0.85,-117.96 148.13,-753.925 -12.54,-666.285 -55.25,30.135 15.69,447.075 84.66,288.462 30.67,-70.555 193.64,-281.245 102.82,-301.964 -9.79,-2.233 -110.48,105.248 -132.9,355.673 -90.14,-47.366 -101.6,-405.942 -181.57,-290.436 -79.48,114.808 43.25,197.647 57.69,207.107 106.71,69.913 102.71,95.993 220.71,23.061 164.57,-101.718 146.29,-212.328 114.5,-208.076 -22.77,3.045 -229.11,236.157 -214.44,280.158 9.35,28.05 -62.03,288.24 -29.5,366.5 6.57,15.79 -5.97,56.19 -36.75,216.25 -11.65,60.56 -31.97,269.93 -31.97,269.93 -73.52,-192.09 -498.79,-319.96 -532.69,-329.61 -226.06,-64.36 -351.72,38.31 -374.33,52.47 -77.19,-72.02 -2.49,-151.57 -26.9,-206.81 -66.13,-149.68 -306.51,8.72 -200.86,118.54 5.78,6 87.96,44.42 95.72,48.05 115.92,54.2 135.18,40.73 144.51,34.21 -149.75,7.08 -204.45,-120.78 -276.39,-53.39 -100.82,94.46 40.56,208.21 120.24,195.04 105.19,-17.4 77.93,-80.77 160.69,-141.6 -31.97,47.9 -42.17,38.69 -77.3,85.15 -13.38,17.7 -127.08,46.77 -39.48,183.93 69.37,108.63 223.37,16.64 197.04,-24.6 -64.66,-101.25 -83.7,-145.76 -78.98,-200.92 5.43,-63.41 21.26,-49.57 22.13,-50.62 -59.08,88.39 42.04,242.82 77.28,234.24 109.91,-26.75 200.58,-202.73 105.44,-234.12 -43.05,-14.2 -56.42,-34.91 -191,-1.18 55.45,-23.09 141.31,-36.41 156.68,-134.84 23.37,-149.7 -152.02,-244.25 -211.55,-16.32 -20.64,79 -12.46,154.25 57.34,157.81 -20.18,0.53 -16.65,7.56 -124.87,65.92 -12.21,6.58 -149.25,59.43 -115.01,163.75 -24.78,-20.68 -24.52,-2.22 -23.36,-0.74 17.26,21.87 21.08,-39.28 0.6,-28.15 -6.55,3.56 11.35,14.43 14.54,-5.03 2.98,-18.14 -10.99,-17.28 -11.77,-13.34 -3.71,18.99 5.89,15.86 26.18,19.22 -36.84,21.7 3.6,27.34 10.93,21.37 52.39,-42.65 -22.16,-17.21 -20.23,-18.01 27.58,-11.44 -4.73,-60.04 -8.85,-28.25 -4.04,31.18 43.31,-28.57 12.21,-32.63 -18.19,-2.38 -18.98,13.6 -10.05,13.69 16.09,0.16 -2.1,-29.74 -12.9,-12.19 -12.78,20.75 53.13,21.53 49.06,-12.17 -2.26,-18.77 -27.3,34.5 0.07,29.89 29.13,-4.91 17.15,-58.7 -1.86,-30.48 -12.35,18.32 31.55,34.83 29.94,-3.73 -0.1,-2.24 -0.79,-18.85 -14.61,-24.86 -8.95,-3.88 -26.81,21.45 -28.51,23.86 -0.62,-0.97 -12.64,-19.97 -12.15,-8.16 0.21,4.95 32.33,36.2 46.12,-40.35 -3.42,15.85 -13.94,25.46 2.75,23.59 19.81,-2.23 12.88,-37.61 1.55,-19.53 -18.93,30.2 54.36,37.03 31.94,15.83 -12.05,-11.39 -25.78,29.04 1.38,18.98 39.98,-14.82 4.4,-70.51 -1.26,-44.27 -2.28,10.6 22.82,-6.13 8.78,-16 -15.91,-11.18 -25.55,26.52 2.09,21.86 31.02,-5.23 8.5,-41.98 1.02,-32.18 -10.75,14.09 28.6,61.34 32.45,14.11 0.83,-10.21 -9.04,-16.17 -9.88,-10.44 -2.17,14.94 24.62,39.66 38.35,-0.2 6.04,-17.51 -38.24,-8.79 -17.99,7.3 28.47,22.61 32.13,-50.71 63.11,-57.43 3.23,-0.7 106.44,-23.1 41.09,-5.35 13.22,-13.28 35.22,-66.18 216.18,-51.91 372.3,29.36 642.11,318.45 655.37,340.6 l -27.61,58.52 c -0.41,1.78 -0.47,1.39 -0.77,3.29 -1.07,7 -10.68,69.46 -36.25,81.21 -44.42,20.42 -130.07,140.49 -146.47,159.26 -62.41,71.45 -81.38,59.61 -110.48,148.44 -21.97,67.06 -58.45,78.19 -101.33,241.77 -6.91,26.35 9.72,63.77 8.62,69.25 -5.01,25.23 -23.83,-14.91 -62.67,-25.13 -21.19,-5.57 -20.56,-5.31 -42.11,-7.75 -59.98,-6.79 -15.94,37.23 -43.1,91.22 4.43,-4.84 9.99,-5.87 10.12,-21.04 0.04,-4.2 -5.91,-3.62 -3.36,-0.25 40.02,52.98 41.47,54.54 37.29,67.57 -10.34,-27.78 -19.37,-24.27 -22.82,-53.55 -3.62,-30.7 -66.44,15.34 -71.65,18.9 27.41,-8.12 26.4,-12.79 67.34,-15.02 -15.77,45.29 17.86,67.98 30.39,93.66 2.31,4.74 -13.68,1.34 -31.31,-46.58 -6.08,-16.53 10.56,-38.98 0.12,-45.11 -30.04,-17.68 -16.01,13.18 -12.12,99.72 -10.1,-75.29 -3.12,-75.42 5.66,-99.41 -17.36,13.27 -17.72,13.81 -22.21,35.02 -2.18,10.28 -30.14,38.72 -33.14,41.77 0.7,-12.19 -4.19,-15.94 5.98,-18.9 0.32,-0.09 13.62,-0.56 14.4,-8.95 2.66,-28.41 12.92,-31.99 18.9,-40.81 -13.22,16.31 -14.89,16.9 -16.72,17.55 -29.02,10.21 -27.88,11.71 -51.92,31.15 4.03,-4.89 4.8,-11.87 8.83,-16.76 8.66,-10.5 28.72,0.39 49.71,-32.7 -9.6,16.37 -12.33,14.84 -43.96,17.44 -16.3,1.34 -14.82,6.04 -57.4,21.66 11.41,-9.13 28.76,-28.55 35.26,-26.22 24.62,8.81 62.86,-4.98 64.92,-6.51 11.52,-8.54 -92.53,-58.5 -95.2,-59.73 -30.1,-13.84 -51.59,-19.81 -75.52,-11.63 l -16.23,5.48 c 2.37,-7.39 36.81,-5.63 44.73,-7.52 46.27,-11.08 197.17,147.07 167.46,-22.06 33.4,83.96 -21.44,82.07 -15.61,80.55 30.88,-8.07 29.37,0.8 58.36,13.36 36.72,15.92 90.16,27.07 98.18,28.74 57.5,12 52.07,24.33 65.34,80.03 23.23,97.58 -14.23,92.16 -27.69,125.95 -51.11,128.38 -161.8,-0.09 -155.46,-67.95 7.86,-84.08 8.08,-84.08 -14.42,-164.92 33.97,150.72 22.16,286.12 8.12,290.09 -8.27,2.34 -186.79,9.53 -170.08,-99.14 19.98,-129.94 75.4,-110.43 144.86,-198.39 -15.64,56.63 -204.9,73.07 -138.02,211.85 -9.44,-5.93 -105.37,-66.23 -111.12,-83.66 -47.08,-142.73 -0.73,-142.25 45.35,-186.93 -55.33,24.74 -64.9,18.79 -79.26,68.29 l 0.49,0.45 c -2.5,-16.53 -39.08,-61.37 63.94,-107.38 34.56,-15.43 211.52,5.9 227.02,9.06 -96.17,-24.37 -177.09,7.66 -205.93,-50.05 -29.95,-59.92 123.01,-1.67 195.55,2.57 84.52,4.94 128.07,28.72 146.6,86.53 -78.94,-66.37 -106.47,-41.49 -109.75,-42.11 -95.2,-17.91 151.2,122.33 173.46,189.82 33.85,102.6 65.81,28.08 65.86,22.56 0.66,-73.49 -47.67,-97.17 -83.02,-130.35 -30.76,-28.88 -76.09,-45.87 -48.09,-126.11 49.8,-142.71 165.32,-425.82 178.13,-292.91 3.06,31.71 -0.63,57.49 30.9,93.65 49.82,57.14 15,112.79 45.85,86.53 1.98,-1.69 54.55,-46.44 32.41,-3.4 -11.43,22.21 -23.67,44.03 -34.28,66.62 -7.55,16.09 39.43,2.59 42.73,1.64 8.71,-2.5 59.25,27.17 -52.7,99.3 43.02,-10.57 46.15,-8.93 70.35,-45.78 28.5,37.01 26.08,37.56 58.95,70.49 -10.55,-31.99 -11.48,-30.41 -28.99,-60.44 l 44.87,8.26 c -24.91,-33.54 -19.12,-45.37 -93.54,-98 43.26,6.84 42.45,7.03 85.55,17.52 -42.8,-45.89 -41.91,-46.01 -92.72,-83.87 l 38.01,-0.37 c -44.33,-29.91 -44.06,-30.41 -96.58,-40.75 29.61,36.26 29.71,34.89 66.14,62.78 -53.46,-29.37 -105.75,-126.64 -116.95,-174.18 -16.2,-68.78 61.95,-121.56 112.45,-204.13 l -58.57,31.9 22.27,-10.64 c -42.8,-4.55 -43.26,-12.17 -68.04,0.86 -14.78,7.77 -63.84,50.61 -73.03,52.1 -34.61,5.6 37.98,-51.49 31.5,-54.26 -51.36,-21.99 -99.77,92.14 -97.72,83.38 0,0 13.19,-55.24 14.7,-59.79 -72.05,26.02 -24.2,61.47 -56.58,91.08 -7.21,6.59 -13.13,-7.21 5.2,-67.72 -24.98,42.28 -53.64,-0.41 -77.87,77.47 41.5,-91.98 28.91,-58.89 -31.09,-73.51 -4.35,-15.17 183.92,5.63 88.83,-63.03 19.15,0.09 70.96,26.98 90.11,27.07 -10.15,-11.94 -18.99,-36.64 -29.15,-48.59 23.91,6.78 47.82,13.56 71.72,20.35 -7.97,-12.96 -15.95,-25.92 -23.93,-38.87 51.84,35.4 52.58,35.15 57.71,33.44 8.96,-2.99 -5.64,-11.89 -14.59,-34.39 -12.88,-32.37 4.18,7.43 28.2,33.02 13.96,14.88 18.54,-2.31 39.46,4.86 85.34,29.23 215.73,-109.36 209.46,-162.5"
   style="vector-effect:non-scaling-stroke;fill:none;stroke:#000000;stroke-width:0.418185;stroke-dasharray:none;stroke-opacity:1;-inkscape-stroke:hairline"
   id="path1" />
            </g>
        </g>
    </g>
</svg>
