<?xml version="1.0" encoding="UTF-8" standalone="no"?>
<svg
   width="100%"
   height="100%"
   viewBox="0 0 5100 3300"
   version="1.1"
   xml:space="preserve"
   style="fill-rule:evenodd;clip-rule:evenodd;stroke-linejoin:round;stroke-miterlimit:2;"
   id="svg1"
   sodipodi:docname="flowers1.svg"
   inkscape:version="1.4.2 (f4327f4, 2025-05-13)"
   xmlns:inkscape="http://www.inkscape.org/namespaces/inkscape"
   xmlns:sodipodi="http://sodipodi.sourceforge.net/DTD/sodipodi-0.dtd"
   xmlns="http://www.w3.org/2000/svg"
   xmlns:svg="http://www.w3.org/2000/svg"><defs
   id="defs1" /><sodipodi:namedview
   id="namedview1"
   pagecolor="#ffffff"
   bordercolor="#000000"
   borderopacity="0.25"
   inkscape:showpageshadow="2"
   inkscape:pageopacity="0.0"
   inkscape:pagecheckerboard="0"
   inkscape:deskcolor="#d1d1d1"
   inkscape:zoom="0.2630303"
   inkscape:cx="2549.1359"
   inkscape:cy="1650"
   inkscape:window-width="1920"
   inkscape:window-height="1112"
   inkscape:window-x="-8"
   inkscape:window-y="-8"
   inkscape:window-maximized="1"
   inkscape:current-layer="svg1" />
    <g
   transform="matrix(-0.654603,-0.472867,0.485193,-0.671667,3402.7,4271.25)"
   id="g1">
        <path
   d="M0.0,0.0c-0.018,19.032 -0.199,42.338 14.955,54.753c2.252,1.844 115.091,102.442 131.09,119.133c92.647,96.66 307.863,455.826 357.092,503.567c47.723,46.281 59.326,94.534 53.93,94.769c-10.872,0.473 27.848,-37.345 36.014,-94.805c16.57,-116.597 12.301,-143.139 38.6,-121.071c50.983,42.778 45.107,59.785 43.139,92.218c-4.056,66.874 -49.23,97.861 -76.955,119.397c76.789,-30.594 91.996,-167.356 127.865,-171.049c28.413,-2.925 38.44,92.707 10.727,115.68c-25.221,20.907 -88.912,49.855 -110.495,79.494c-2.399,-3.015 -2.581,11.525 -4.98,8.51c-6.715,-8.441 44.735,-36.081 54.272,-39.136c49.963,-16.005 35.409,-30.657 121.576,-93.617c42.393,-30.976 14.32,153.989 -86.983,141.355c-73.533,-9.17 -99.792,22.379 -88.402,2.322c5.686,-10.013 16.393,-13.905 30.034,-14.041c31.3,-0.311 116.153,14.656 153.126,25.363c102.372,29.646 -15.833,114.408 -107.63,61.512c-42.367,-24.413 -67.992,-8.593 -93.058,-50.084c61.488,6.049 144.693,88.822 139.713,136.899c-12.52,120.878 -140.725,-20.803 -156.538,-112.986c-4.909,-28.618 33.227,44.279 35.985,107.062c3.307,75.266 -9.349,158.565 -60.195,81.23c-14.83,-22.556 -18.917,-51.168 -16.275,-91.409c5.37,-81.804 -2.498,-70.176 8.315,-91.71c23.646,-47.092 -22.114,147.412 -74.711,188.781c-50.331,39.587 -110.573,49.299 -38.17,-81.477c40.487,-73.127 66.331,-83.836 93.075,-131.073c-8.465,155.447 -273.681,141.739 -215.332,97.929c94.699,-71.102 124.043,-108.935 209.573,-135.025c-83.509,115.515 -253.305,-18.327 -249.008,-22.975c49.913,-53.992 116.408,-25.81 225.367,-28.333c12.702,-0.294 56.366,15.916 49.306,24.276c-48.379,57.291 -221.006,-102.585 -199.803,-126.105c40.871,-45.338 199.522,93.972 213.793,106.502c27.541,24.185 -51.779,2.701 -71.95,-184.211c-4,-37.073 93.264,1.365 87.069,138.302c-2.296,50.748 -21.693,42.361 -45.704,87.189c-28.385,52.994 33.871,92.837 83.018,14.384c22.834,-36.451 -27.058,-51.292 -44.957,-46.243c-0.29,0.081 -28.386,-23.976 -30.84,-26.078c-48.974,-41.934 -44.437,-70.856 -159.77,-225.249c-14.926,-19.981 -81.959,-128.255 -88.923,-139.504c-125.838,-203.258 -262.809,-330.629 -271.824,-369.709l-6.998,-25.609c-9.153,-0.256 75.486,-17.654 67.598,-12.102c5.167,-16.935 38.162,-80.391 52.894,-99.872c29.269,-38.707 108.252,-86.121 135.252,-90.436c183.683,-29.352 431.644,-15.484 475.589,-189.38c7.724,20.37 51.387,76.375 -104.136,194.018c-112.731,85.273 -382.989,118.16 -405.879,130.432c-67.706,36.301 -71.863,25.021 -142.163,55.922c108.161,-28.809 139.251,-0.757 157.059,7.209c119.574,53.491 164.486,34.133 367.07,87.665c90.54,23.924 230.942,155.587 205.67,210.44c-14.934,32.413 -2.543,-30.66 -73.994,-65.567c-12.421,-6.068 -26.897,-13.14 -169.495,-33.299c-143.922,-20.345 -138.73,-37.15 -271.819,-94.979c-14.533,-6.315 -172.012,-74.741 -181.811,-78.573c-3.758,-1.469 -62.472,-24.427 -35.92,-35.327c121.643,-49.936 223.314,26.491 373.729,-35.893c154.29,-63.992 355.592,-6.929 559.517,-7.825c215.913,-0.949 286.574,139.354 292.253,135.371c46.447,-32.581 22.614,-57.95 -17.817,-82.138c-22.318,-13.352 -34.045,-16.649 -21.087,-25.864c56.651,-40.291 56.581,-52.34 -22.27,-116.811c-16.81,-13.745 61.154,-36.735 7.76,-68.707c-21.099,-12.634 -79.389,41.595 -83.113,62.038c-11.09,60.882 -80.924,84.624 -86.829,88.432c-32.188,20.756 52.725,0.347 133.354,69.753c9.268,-3.389 97.422,-62.846 93.857,-82.957c-2.59,-14.613 -99.547,-122.951 -134.442,-76.043c-97.815,131.489 -138.716,96.457 -229.72,103.849c115.687,3.242 122.683,-28.206 251.395,37.855c119.165,61.161 128.329,129.998 125.007,146.295c-23.295,0.693 -38.341,-8.383 -70.879,-18.488c-18.075,-5.614 -43.508,-19.829 -69.529,-19.271c-296.717,6.357 -222.2,-213.414 -218.41,-225.964c23.862,-79.024 169.229,-118.534 216.126,-122.481c33.468,-2.816 121.441,-24.214 54.844,27.441c-65.241,50.603 -52.926,103.744 -110.2,142.914c-102.962,70.418 -453.907,-34.076 -611.535,20.488c-166.95,57.791 -365.372,5.703 -489.573,44.913l-29.087,5.788c-6.868,-7.526 -4.541,-15.112 -3.58,-28.338c22.753,-313.365 105.834,-787.521 229.71,-715.26c22.438,13.089 -29.244,108.61 -75.624,158.303c-40.609,43.51 -108.352,196.397 -109.368,56.476c-0.856,-117.956 148.131,-753.925 -12.542,-666.285c-55.248,30.135 15.694,447.08 84.658,288.462c30.676,-70.555 193.643,-281.245 102.823,-301.964c-9.787,-2.233 -110.482,105.248 -132.903,355.673c-90.132,-47.366 -101.598,-405.942 -181.564,-290.436c-79.482,114.808 43.245,197.647 57.685,207.107c106.709,69.913 102.712,95.995 220.711,23.061c164.566,-101.718 146.29,-212.328 114.499,-208.076c-22.764,3.045 -229.108,236.157 -214.442,280.156c9.351,28.051 -62.023,288.243 -29.493,366.502c6.563,15.787 -5.974,56.193 -36.754,216.25c-11.646,60.561 -31.97,269.927 -31.97,269.927c-73.523,-192.089 -352.061,-234.76 -385.962,-244.411c-226.059,-64.355 -351.723,38.316 -374.333,52.475c-77.18,-72.021 -2.489,-151.577 -26.893,-206.812c-66.135,-149.685 -306.51,8.722 -200.86,118.535c5.775,6.002 87.962,44.428 95.722,48.056c115.913,54.195 135.175,40.725 144.502,34.203c-149.746,7.089 -204.45,-120.776 -276.382,-53.384c-100.823,94.459 40.558,208.209 120.232,195.035c105.193,-17.394 77.934,-80.767 160.696,-141.593c-31.971,47.893 -42.169,38.689 -77.299,85.142c-13.388,17.703 -127.079,46.773 -39.486,183.933c69.372,108.628 223.375,16.638 197.04,-24.6c-64.661,-101.251 -83.695,-145.762 -78.976,-200.922c5.424,-63.406 21.259,-49.564 22.126,-50.62c-59.081,88.394 42.042,242.821 77.284,234.245c109.905,-26.747 200.575,-202.732 105.442,-234.115c-43.057,-14.205 -56.427,-34.916 -191.003,-1.184c55.45,-23.087 141.311,-36.416 156.679,-134.838c23.376,-149.7 -152.014,-244.257 -211.55,-16.322c-20.634,79.002 -12.456,154.247 57.34,157.811c-20.181,0.524 -16.651,7.554 -124.866,65.915c-12.211,6.586 -149.249,59.428 -115.011,163.755c-24.779,-20.685 -24.522,-2.219 -23.356,-0.742c17.255,21.87 21.075,-39.286 0.595,-28.154c-6.553,3.561 11.352,14.433 14.543,-5.031c2.974,-18.138 -10.997,-17.279 -11.769,-13.332c-3.714,18.981 5.883,15.856 26.178,19.22c-36.842,21.697 3.593,27.338 10.924,21.37c52.39,-42.651 -22.157,-17.211 -20.226,-18.013c27.582,-11.442 -4.73,-60.037 -8.851,-28.246c-4.04,31.17 43.305,-28.571 12.211,-32.638c-18.186,-2.379 -18.984,13.607 -10.051,13.694c16.091,0.157 -2.098,-29.743 -12.902,-12.194c-12.774,20.749 53.129,21.533 49.064,-12.165c-2.265,-18.769 -27.304,34.498 0.067,29.885c29.129,-4.91 17.15,-58.693 -1.863,-30.477c-12.345,18.321 31.551,34.83 29.941,-3.731c-0.093,-2.243 -0.786,-18.845 -14.61,-24.854c-8.948,-3.89 -26.807,21.442 -28.511,23.859c-0.618,-0.977 -12.636,-19.976 -12.143,-8.164c0.207,4.954 32.326,36.204 46.116,-40.353c-3.416,15.85 -13.935,25.467 2.755,23.589c19.81,-2.23 12.876,-37.602 1.546,-19.525c-18.925,30.195 54.363,37.025 31.937,15.828c-12.052,-11.391 -25.778,29.044 1.383,18.979c39.986,-14.819 4.398,-70.51 -1.258,-44.264c-2.284,10.6 22.816,-6.135 8.774,-16.006c-15.906,-11.181 -25.548,26.518 2.093,21.859c31.022,-5.229 8.498,-41.979 1.017,-32.173c-10.746,14.087 28.604,61.333 32.456,14.109c0.833,-10.211 -9.045,-16.174 -9.878,-10.44c-2.17,14.94 24.613,39.66 38.35,-0.201c6.035,-17.51 -38.246,-8.796 -17.989,7.295c28.464,22.612 32.13,-50.706 63.107,-57.428c3.224,-0.7 106.439,-23.099 41.086,-5.346c13.219,-13.285 35.227,-66.186 216.181,-51.913c372.298,29.364 495.385,233.254 508.641,255.399l-27.605,58.526c-0.417,1.78 -0.477,1.385 -0.77,3.288c-1.075,6.994 -10.679,69.462 -36.25,81.213c-44.422,20.416 -130.078,140.488 -146.472,159.255c-62.411,71.447 -81.379,59.61 -110.484,148.444c-21.97,67.056 -58.451,78.184 -101.332,241.768c-6.906,26.346 9.719,63.768 8.628,69.252c-5.017,25.225 -23.838,-14.914 -62.675,-25.131c-21.193,-5.575 -20.561,-5.315 -42.111,-7.754c-59.981,-6.789 -15.943,37.227 -43.102,91.219c4.432,-4.836 9.992,-5.871 10.128,-21.036c0.038,-4.2 -5.912,-3.623 -3.367,-0.255c40.025,52.98 41.472,54.541 37.296,67.573c-10.343,-27.78 -19.37,-24.267 -22.823,-53.55c-3.619,-30.697 -66.435,15.338 -71.652,18.898c27.414,-8.121 26.399,-12.787 67.339,-15.019c-15.771,45.293 17.861,67.982 30.391,93.66c2.314,4.742 -13.675,1.338 -31.308,-46.576c-6.082,-16.527 10.561,-38.979 0.124,-45.117c-30.041,-17.671 -16.01,13.181 -12.125,99.721c-10.103,-75.288 -3.119,-75.412 5.665,-99.403c-17.367,13.266 -17.727,13.812 -22.213,35.018c-2.176,10.282 -30.144,38.72 -33.14,41.766c0.694,-12.191 -4.188,-15.934 5.982,-18.895c0.314,-0.091 13.615,-0.561 14.399,-8.949c2.655,-28.411 12.918,-31.99 18.896,-40.81c-13.217,16.312 -14.887,16.9 -16.722,17.545c-29.019,10.215 -27.872,11.714 -51.918,31.156c4.034,-4.891 4.799,-11.871 8.833,-16.762c8.66,-10.501 28.717,0.385 49.707,-32.704c-9.601,16.371 -12.326,14.843 -43.955,17.443c-16.303,1.341 -14.82,6.043 -57.408,21.658c11.42,-9.132 28.762,-28.55 35.269,-26.221c24.621,8.814 62.853,-4.98 64.913,-6.506c11.525,-8.539 -92.53,-58.499 -95.201,-59.728c-30.099,-13.848 -51.581,-19.811 -75.513,-11.634l-16.236,5.484c2.37,-7.397 36.812,-5.631 44.729,-7.527c46.273,-11.079 197.177,147.07 167.469,-22.054c33.399,83.96 -21.45,82.068 -15.618,80.545c30.88,-8.066 29.37,0.8 58.364,13.366c36.717,15.915 90.154,27.064 98.178,28.738c57.501,11.996 52.076,24.332 65.338,80.024c23.238,97.586 -14.232,92.168 -27.683,125.953c-51.111,128.386 -161.805,-0.093 -155.463,-67.953c7.858,-84.078 8.082,-84.073 -14.426,-164.916c33.971,150.718 22.168,286.118 8.122,290.093c-8.264,2.339 -186.785,9.526 -170.078,-99.143c19.976,-129.936 75.401,-110.435 144.857,-198.389c-15.634,56.632 -204.895,73.072 -138.017,211.852c-9.436,-5.931 -105.373,-66.231 -111.122,-83.66c-47.081,-142.732 -0.726,-142.256 45.35,-186.929c-55.331,24.739 -64.901,18.789 -79.256,68.289l0.494,0.447c-2.502,-16.534 -39.084,-61.37 63.931,-107.376c34.569,-15.439 211.524,5.893 227.029,9.059c-96.18,-24.37 -177.094,7.652 -205.937,-50.056c-29.946,-59.913 123.013,-1.664 195.554,2.573c84.517,4.937 128.065,28.721 146.598,86.534c-78.943,-66.374 -106.47,-41.498 -109.754,-42.115c-95.197,-17.905 151.208,122.334 173.468,189.817c33.845,102.606 65.803,28.085 65.853,22.56c0.66,-73.487 -47.671,-97.162 -83.019,-130.348c-30.757,-28.876 -76.085,-45.868 -48.086,-126.104c49.801,-142.712 165.322,-425.827 178.131,-292.917c3.057,31.713 -0.636,57.495 30.892,93.653c49.821,57.137 15.008,112.793 45.851,86.534c1.985,-1.69 54.557,-46.447 32.411,-3.4c-11.425,22.206 -23.669,44.03 -34.274,66.619c-7.554,16.09 39.428,2.589 42.727,1.64c8.712,-2.503 59.251,27.168 -52.699,99.299c43.022,-10.571 46.144,-8.933 70.352,-45.782c28.496,37.014 26.078,37.556 58.947,70.489c-10.553,-31.993 -11.484,-30.409 -28.988,-60.436l44.864,8.255c-24.906,-33.542 -19.115,-45.364 -93.536,-97.994c43.262,6.84 42.455,7.024 85.549,17.517c-42.802,-45.886 -41.91,-46.013 -92.724,-83.87l38.019,-0.375c-44.331,-29.902 -44.061,-30.406 -96.582,-40.747c29.608,36.264 29.708,34.888 66.139,62.781c-53.458,-29.367 -105.747,-126.639 -116.948,-174.183c-16.203,-68.779 61.943,-121.556 112.445,-204.124l-58.572,31.896l22.276,-10.637c-42.806,-4.552 -43.263,-12.175 -68.039,0.854c-14.779,7.772 -63.842,50.614 -73.031,52.102c-34.615,5.603 37.973,-51.484 31.496,-54.258c-51.358,-21.987 -99.769,92.137 -97.72,83.379c0,0 13.188,-55.236 14.7,-59.789c-72.048,26.021 -24.202,61.474 -56.581,91.08c-7.211,6.593 -13.13,-7.212 5.205,-67.718c-24.978,42.279 -53.642,-0.414 -77.872,77.47c41.504,-91.981 28.913,-58.892 -31.091,-73.511c-4.354,-15.17 183.923,5.629 88.832,-63.028c19.149,0.089 70.962,26.979 90.11,27.068c-10.152,-11.941 -18.995,-36.644 -29.148,-48.586c23.907,6.78 47.815,13.56 71.722,20.34c-7.977,-12.956 -15.954,-25.912 -23.931,-38.867c51.839,35.4 52.577,35.153 57.707,33.44c8.959,-2.993 -5.638,-11.887 -14.587,-34.383c-12.88,-32.38 4.174,7.421 28.199,33.018c13.959,14.873 18.54,-2.313 39.46,4.854c85.34,29.236 215.727,-109.361 209.462,-162.496"
   style="fill:none;stroke:#000000;stroke-opacity:1;stroke-width:1.22250943;stroke-dasharray:none;vector-effect:non-scaling-stroke;-inkscape-stroke:hairline"
   id="path1" />
    </g>
</svg>
