<?xml version="1.0" encoding="UTF-8" standalone="no"?>
<!DOCTYPE svg PUBLIC "-//W3C//DTD SVG 1.1//EN" "http://www.w3.org/Graphics/SVG/1.1/DTD/svg11.dtd">
<svg width="100%" height="100%" viewBox="0 0 6615 6615" version="1.1" xmlns="http://www.w3.org/2000/svg" xmlns:xlink="http://www.w3.org/1999/xlink" xml:space="preserve" xmlns:serif="http://www.serif.com/" style="fill-rule:evenodd;clip-rule:evenodd;stroke-linejoin:round;stroke-miterlimit:2;">
    <path d="M3340.41,3297.38C3367.45,3260.04 3400.85,3214.53 3389.46,3169.2C3387.76,3162.47 3314.52,2808.95 3307.58,2754.07C3267.39,2436.2 3364.98,1433.46 3338.49,1271.66C3312.81,1114.82 3346.72,984.16 3357.38,991.157C3378.86,1005.26 3263.44,1045.86 3166.32,1147.4C2969.22,1353.43 2939.75,1411.45 2920.72,1331.77C2883.83,1177.29 2919.2,1152.02 2968.97,1091.06C3071.59,965.357 3201.99,966.959 3285.59,963.001C3095.25,916.921 2872.16,1164.44 2798.28,1122.1C2739.76,1088.57 2856.22,886.932 2941.84,880.134C3019.76,873.948 3182.7,905.151 3266.04,876.789C3266.35,886.025 3287.33,857.727 3287.64,866.963C3288.52,892.82 3150.86,875.969 3128.27,868.784C3009.96,831.143 3017.03,880.032 2762.83,884.542C2637.77,886.761 2953.85,562.384 3129.78,727.229C3257.49,846.884 3352.49,821.237 3302.25,844.875C3277.16,856.674 3251.15,849.516 3224.86,830.925C3164.52,788.267 3023.37,641.582 2967.8,569.447C2813.95,369.723 3160.38,366.692 3261.02,597.452C3307.47,703.954 3378.94,708.313 3368.06,824.434C3258.97,727.556 3217.15,450.01 3294.88,362.493C3490.29,142.452 3534.67,597.874 3434.18,800.738C3402.98,863.717 3433.39,667.863 3517.17,540.773C3617.6,388.414 3759.97,242.352 3747.58,464.488C3743.96,529.277 3711.2,591.109 3649.07,666.471C3522.76,819.673 3554.31,807.717 3503.07,835.052C3391.03,894.831 3754.48,576.174 3913.81,567.652C4066.28,559.497 4195.34,623.704 3871.29,780.398C3657.6,883.726 3547.6,873.892 3489.59,932.487C3407.35,1015.56 3323.89,983.802 3314.22,933.378C3310.29,912.936 3309.8,883.372 3331.75,863.603C3355.83,841.927 3430.54,818.595 3479.49,870.32C3483.36,874.411 3496.53,891.22 3496.11,896.836L3503.41,920.48C3507.8,915.646 3624.51,740.107 3875.61,824.775C4039.12,879.907 4156.82,1011.44 4058.23,1014.48C3776.16,1023.19 3666.35,1056.91 3465.66,989.902C3789.32,878.524 3924.41,1376.05 3909.59,1379.24C3737.49,1416.25 3650.22,1269 3438.13,1123.33C3413.41,1106.35 3352.84,1014.16 3378.21,1007.5C3552.05,961.886 3655.63,1514.44 3581.69,1531.32C3439.18,1563.84 3333.17,1070.99 3323.63,1026.65C3305.23,941.094 3426.55,1092.93 3200.03,1487.82C3155.11,1566.14 3023.5,1356.21 3229.58,1095.9C3386.38,897.842 3343,1084.14 3344.72,1091.66C3378.96,1241.7 3329.25,1292.21 3330.97,1754.8C3331.19,1814.67 3305.89,2119.93 3303.26,2151.65C3255.77,2724.7 3337.22,3164.15 3299.04,3253.34L3276.11,3313.3C3293.26,3326.46 3106.62,3243.62 3129.59,3243.62C3095.68,3269.73 2942.53,3348.71 2886.71,3366.6C2775.79,3402.14 2557.4,3386.06 2499.61,3357.21C2106.47,3160.92 1651.63,2790.92 1320.88,3071.62C1334.99,3020.95 1330.87,2850.62 1795.36,2834.62C2132.03,2823.01 2695.86,3132.04 2757.07,3139.58C2938.12,3161.9 2930.08,3189.79 3108.44,3226.3C2860.59,3133.35 2840.89,3035.29 2818.11,2995.03C2665.16,2724.7 2551.76,2700.63 2240.01,2315.47C2100.68,2143.34 2018.75,1690.73 2144.92,1617.95C2219.47,1574.95 2106.3,1681.67 2193.52,1848.99C2208.68,1878.07 2226.35,1911.97 2470.64,2148.67C2717.2,2387.58 2683.43,2413.39 2856.09,2710.92C2874.94,2743.41 3079.24,3095.46 3092.56,3116.53C3097.67,3124.61 3177.46,3250.85 3111.19,3235.55C2807.58,3165.45 2721.42,2874.83 2345.09,2789.4C1959.07,2701.76 1654.79,2311.45 1263.28,2031.31C848.748,1734.7 912.534,1361.53 896.019,1361.5C760.922,1361.27 770.547,1444.03 813.608,1547.41C837.379,1604.48 855.143,1627.16 817.275,1627.34C651.717,1628.14 634.761,1651.9 694.208,1887.49C706.882,1937.72 525.076,1875.09 581.904,2011.67C604.36,2065.64 792.825,2039.74 828.947,2004.75C936.525,1900.54 1103.84,1950.45 1120.54,1951.14C1211.58,1954.88 1020.14,1877.57 964.285,1629.84C941.743,1623.68 688.713,1618.56 667.008,1662.98C651.237,1695.25 683.114,2042.01 816.425,1998.14C1190.11,1875.17 1218.69,2000.5 1403.33,2111.79C1186.54,1945.5 1128.55,1997.58 975.939,1689.94C834.65,1405.12 914.751,1257.28 944.225,1229.88C989.786,1260.72 1005.71,1299.34 1053.64,1364.16C1080.27,1400.17 1108.77,1463.24 1159.36,1498.11C1736.19,1895.8 1281.87,2224.32 1256.81,2243.72C1099.06,2365.9 764.838,2242.53 669.496,2185.45C601.456,2144.72 402.755,2065.12 603.465,2055.76C800.09,2046.58 851.897,1925.22 1017.06,1927.48C1313.97,1931.54 1837.35,2621.85 2216.38,2732.61C2617.84,2849.93 2923.67,3226.49 3216.96,3321.2L3280.83,3350.04C3283.3,3374.31 3268.09,3385.99 3247.49,3410.63C2759.47,3994.48 1927.94,4810.65 1793.38,4497.52C1769,4440.81 2003.39,4324.69 2162.63,4291.23C2302.06,4261.93 2648.55,4055.38 2452.03,4331.52C2286.36,4564.32 1099.19,5607.11 1530.97,5657.13C1679.44,5674.34 2135.08,4757.58 1778.12,4973.7C1619.34,5069.83 1008.64,5258.25 1153.05,5424.48C1168.61,5442.39 1513.75,5370.55 1911.87,4909.82C2017.16,5127.43 1530.5,5847.35 1847.36,5731.09C2162.3,5615.54 2044.95,5283.23 2030.73,5244.69C1925.69,4959.9 1970.34,4914.21 1641.08,4894.31C1181.88,4866.54 1059.96,5108.99 1126.83,5144.59C1174.71,5170.08 1900.23,4997.6 1934.57,4890.93C1956.46,4822.93 2462.1,4410.7 2510.86,4212.06C2520.69,4171.99 2601.99,4109.98 2887.92,3838.26C2996.11,3735.44 3331.97,3352.44 3331.97,3352.44C3200.2,3831.25 3832.65,4670.2 3883.83,4736.01C4225.15,5174.87 4611.25,5146.99 4674.6,5150.44C4720.15,5398.55 4464.37,5451.51 4432.73,5593.7C4346.97,5979.03 5031.65,6000.29 4985.23,5638.62C4982.69,5618.85 4879.92,5429.78 4870.22,5411.93C4725.27,5145.28 4669.3,5145.11 4642.2,5145.02C4938.82,5338.11 4862.14,5664.79 5095.38,5631.9C5422.3,5585.8 5313.09,5167.01 5141.94,5082.74C4915.96,4971.48 4878.24,5133.6 4633.59,5138.62C4762.7,5088.78 4769.16,5120.95 4902.28,5078.3C4953,5062.05 5211.8,5162.13 5238.73,4771.73C5260.05,4462.53 4834.87,4430.27 4826.77,4547.65C4806.89,4835.84 4780.19,4949.55 4692.91,5051.34C4592.6,5168.34 4581.93,5119.27 4578.77,5120.15C4817.21,5028.25 4842.74,4585.24 4763.13,4553.36C4514.88,4453.95 4091.75,4674.16 4229.28,4867.3C4291.53,4954.71 4287.74,5013.86 4593.12,5133.66C4454.26,5102.34 4271.05,5009.82 4102.03,5181.83C3844.97,5443.45 4046.48,5871.57 4483.72,5506.31C4635.26,5379.72 4726.34,5220.67 4597.83,5117.18C4637.19,5144.05 4640.41,5125.37 4930.27,5160.37C4962.98,5164.32 5300.17,5250 5382.63,4997.82C5400.71,5072.69 5426.41,5036.07 5426.28,5031.56C5424.28,4964.77 5330.22,5079.57 5385.2,5086.02C5402.79,5088.08 5383.95,5041.99 5350.24,5075.79C5318.82,5107.3 5346.77,5124.92 5353.85,5118.24C5387.88,5086.11 5365.08,5078.97 5331.01,5044.31C5432.29,5052.64 5362.91,4985.67 5340.42,4987.25C5179.67,4998.58 5358.41,5051.68 5353.58,5050.58C5284.56,5034.92 5277.47,5175.01 5330.45,5118.28C5382.39,5062.66 5207.05,5114.51 5260.79,5165.48C5292.22,5195.3 5316.42,5165.01 5299.45,5152.49C5268.88,5129.94 5261.27,5213.79 5306.84,5194.27C5360.72,5171.18 5235.71,5078.54 5195.69,5150.33C5173.4,5190.32 5296.88,5120.34 5237.95,5091.56C5175.25,5060.93 5121.89,5183.1 5198.29,5153.98C5247.9,5135.07 5187.32,5041.97 5135.7,5119.91C5132.7,5124.44 5110.48,5158 5128.41,5188.91C5140.01,5208.92 5210.12,5183.86 5216.81,5181.47C5216.61,5184.25 5212.66,5238.17 5228.47,5214.29C5235.1,5204.28 5217.96,5098.52 5082.98,5229.78C5112,5203.38 5145.77,5199.03 5111.17,5179.65C5070.1,5156.64 5033.19,5235.68 5080.52,5215.85C5159.56,5182.72 5029,5068 5041.85,5140.62C5048.75,5179.65 5132.38,5119.23 5066.12,5101.45C4968.58,5075.27 4957.69,5233.81 5005.74,5190.1C5025.15,5172.44 4953.38,5170.6 4966.25,5209.4C4980.83,5253.34 5052.75,5192.65 4993.25,5163.58C4926.47,5130.97 4917.45,5234.26 4945.67,5225.35C4986.22,5212.55 4977.93,5065.38 4903.57,5152.78C4887.5,5171.68 4897.94,5197.04 4907.67,5186.94C4933.01,5160.6 4916.82,5075.04 4833.99,5134.32C4797.61,5160.36 4894.71,5204.46 4878.77,5144.86C4856.37,5061.11 4745.36,5200.01 4676.55,5170.39C4669.39,5167.3 4440.09,5068.6 4590.34,5124.09C4546.2,5131.9 4429.05,5205.35 4103.01,4927.18C3432.21,4354.87 3325.92,3414.25 3331.97,3352.44L3467.81,3275.68C3471.13,3272.76 3470.68,3273.62 3473.94,3270.29C3485.92,3258.05 3592.9,3148.66 3658.5,3160.94C3772.47,3182.26 4106.7,3064.9 4164.69,3050.71C4385.46,2996.7 4404.97,3046.16 4586.67,2911.97C4723.82,2810.67 4809.42,2839.25 5123.51,2577.33C5174.09,2535.14 5195.35,2438.68 5205.22,2429.42C5250.6,2386.83 5229.69,2491.66 5289.51,2565.41C5322.16,2605.65 5321.32,2604.27 5359.1,2638.85C5464.25,2735.09 5442.41,2587.79 5570.97,2519.32C5555.63,2522.69 5543.52,2517.03 5521.75,2546.62C5515.72,2554.82 5527.92,2561.91 5527.83,2551.78C5526.38,2392.42 5525.83,2387.36 5552.31,2367.54C5532.69,2436.38 5554.95,2441.96 5520.03,2504.23C5483.41,2569.51 5668.91,2565.96 5683.95,2566.18C5619.97,2544.23 5615.29,2554.79 5533.78,2502.58C5628.21,2435.45 5596.03,2344.41 5608.47,2276.67C5610.77,2264.16 5636.54,2292.94 5602.32,2411.4C5590.52,2452.26 5526.82,2473.33 5538.09,2499.81C5570.51,2576.04 5587.42,2496.07 5702.74,2320.77C5615.28,2482.57 5601.74,2473.16 5550.9,2508.12C5602.95,2506.08 5604.41,2505.51 5643.08,2470.07C5661.83,2452.89 5755.68,2435.71 5765.74,2433.87C5747.12,2456.85 5751.15,2470.95 5727.49,2462.7C5726.76,2462.45 5700.64,2444.98 5687.24,2460.37C5641.86,2512.49 5617.15,2505.33 5593.2,2514.38C5641.62,2500.62 5645.66,2501.78 5650.08,2503.05C5720.1,2523.1 5720.03,2518.58 5793.63,2513.64C5778.97,2517.67 5767.61,2530.31 5752.95,2534.34C5721.48,2542.99 5698.54,2493.89 5611.44,2529.84C5653.03,2510.97 5656.08,2517.74 5720.3,2556.36C5753.4,2576.26 5757.23,2564.98 5860.87,2593.19C5826.07,2595.33 5765.34,2609.49 5756.19,2595.92C5721.57,2544.58 5628.85,2518.81 5622.74,2518.96C5588.57,2519.8 5716.84,2761.74 5720.2,2767.84C5758.16,2836.64 5790.81,2878.04 5848.21,2895.07L5887.06,2906.75C5872.03,2918 5808.62,2866.92 5790.78,2859.7C5686.52,2817.48 5622.06,2298.35 5439.02,2671.5C5494.2,2460.47 5596.48,2540 5583.16,2534.93C5512.62,2508.08 5528.09,2492.76 5490.43,2428.01C5442.74,2346 5356.29,2250.24 5343.31,2235.86C5250.29,2132.82 5278.17,2116.1 5331.78,1988.41C5425.73,1764.67 5489.75,1827.11 5563.41,1779.37C5843.32,1597.93 5872.92,2003.22 5764.53,2127.7C5630.23,2281.93 5629.81,2281.61 5558.22,2471.46C5706.99,2128.56 5921.63,1879.02 5954.14,1890.63C5973.27,1897.46 6325.1,2130.13 6138.99,2320.41C5916.46,2547.93 5838.06,2433.02 5580.39,2509.7C5690.63,2420.12 6076.13,2649.47 6144.99,2284.52C6154.64,2309.21 6252.7,2560.23 6238.98,2602.4C6126.63,2947.74 6038.59,2882.72 5887.06,2906.75C6028.03,2934.66 6037.9,2959.57 6135.59,2882.22L6135.27,2880.66C6116.61,2916.58 6123.02,3055.19 5860.63,3003.12C5772.58,2985.65 5464.2,2699.15 5439.02,2671.5C5588.51,2852.3 5788.77,2901.28 5762.12,3054.46C5734.44,3213.5 5524.35,2887.68 5391.55,2779.08C5236.81,2652.55 5187.21,2545.66 5233.75,2406.52C5290.67,2645.97 5378.64,2635.18 5384.04,2640.93C5540.82,2807.69 5268.2,2191.7 5321.32,2028.43C5402.09,1780.17 5235.23,1882.31 5227.3,1893.09C5121.81,2036.48 5180.71,2149.77 5201.28,2263.8C5219.19,2363.02 5281.82,2459.04 5114.44,2577.88C4816.72,2789.26 4194.08,3185.47 4358.08,2906.79C4397.22,2840.3 4440.85,2794.78 4431.81,2680.2C4417.51,2499.14 4563.07,2437.98 4466.8,2446.9C4460.61,2447.47 4296.52,2462.68 4399.96,2408.77C4453.32,2380.96 4507.7,2355.04 4560.04,2325.34C4597.32,2304.19 4488.26,2265.76 4480.6,2263.06C4460.38,2255.93 4405.75,2127.81 4722.29,2140.93C4624.97,2102.22 4621.32,2094.68 4522.73,2133.57C4520.7,2021.5 4526.09,2023.78 4509.9,1913.68C4484.72,1991.09 4488.75,1989.26 4479.65,2072.42L4405.51,1994.19C4405.6,2094.48 4377.74,2109.69 4445.51,2315.91C4372.42,2242.67 4374.23,2243.43 4306.65,2163.25C4323.47,2312.52 4321.58,2311.54 4365.13,2456.11C4365.13,2456.11 4291.84,2404.29 4291.84,2404.29C4334.26,2524.29 4333.03,2524.91 4418.87,2617.81C4413.64,2505.68 4411.5,2508.24 4381.35,2403.11C4441.99,2534.67 4404.09,2797.95 4358.08,2906.79C4291.54,3064.24 4067.13,3059.84 3853.38,3152.16L4010.7,3170.49L3952.99,3160.59C4028.45,3228.7 4018.51,3244.3 4084.4,3252.96C4123.71,3258.13 4278.36,3241.84 4298.06,3251.62C4372.25,3288.47 4152.37,3300.21 4160.83,3314.61C4227.92,3428.78 4482.44,3271.62 4466.09,3285.98C4466.09,3285.98 4362.51,3376.21 4353.16,3383.06C4527.94,3431.56 4486.67,3295.81 4590.62,3282.44C4613.77,3279.46 4605.52,3314.75 4484.61,3408.21C4592.38,3359.72 4586.67,3483.17 4743.51,3363.74C4533.62,3486.97 4604.65,3439.41 4698.74,3551.06C4685.56,3586.87 4354.76,3285.76 4439.35,3552.02C4402.83,3525.37 4341.82,3400.95 4305.3,3374.3C4307.79,3411.79 4289.68,3472.51 4292.17,3510C4256.03,3463.64 4219.9,3417.28 4183.77,3370.92C4180.66,3407.38 4177.55,3443.85 4174.44,3480.31C4125.44,3339.14 4123.68,3338.61 4111.44,3334.88C4090.05,3328.37 4105.36,3366.01 4090.58,3422.56C4069.3,3503.94 4093.12,3402.22 4083.45,3318.74C4077.83,3270.24 4044.69,3297.66 4014.82,3254.66C3892.98,3079.29 3446.88,3171.18 3383.5,3284.18" style="fill:none;"/>
</svg>
