<?xml version="1.0" encoding="UTF-8" standalone="no"?>
<svg
   width="100%"
   height="100%"
   viewBox="0 0 5100 3300"
   version="1.1"
   xml:space="preserve"
   style="fill-rule:evenodd;clip-rule:evenodd;stroke-linejoin:round;stroke-miterlimit:2;"
   id="svg1"
   sodipodi:docname="hand_eye.svg"
   inkscape:version="1.4.2 (f4327f4, 2025-05-13)"
   xmlns:inkscape="http://www.inkscape.org/namespaces/inkscape"
   xmlns:sodipodi="http://sodipodi.sourceforge.net/DTD/sodipodi-0.dtd"
   xmlns="http://www.w3.org/2000/svg"
   xmlns:svg="http://www.w3.org/2000/svg"><defs
   id="defs1" /><sodipodi:namedview
   id="namedview1"
   pagecolor="#ffffff"
   bordercolor="#000000"
   borderopacity="0.25"
   inkscape:showpageshadow="2"
   inkscape:pageopacity="0.0"
   inkscape:pagecheckerboard="0"
   inkscape:deskcolor="#d1d1d1"
   inkscape:zoom="0.13151515"
   inkscape:cx="1767.8572"
   inkscape:cy="2577.6498"
   inkscape:window-width="1920"
   inkscape:window-height="1112"
   inkscape:window-x="-8"
   inkscape:window-y="-8"
   inkscape:window-maximized="1"
   inkscape:current-layer="g1" />
    <g
   transform="matrix(-0.654603,-0.472867,0.485193,-0.671667,3402.7,4271.25)"
   id="g1">
        <path
   d="m 5971.2981,450.26087 c 4.5333,27.03123 -8.5642,90.64395 51.5864,186.51669 136.4607,217.50111 147.8635,261.33251 211.4051,339.95239 27.3452,33.82755 102.9398,72.41485 91.8323,111.45795 -1.8029,6.3401 -3.0822,10.8256 -82.26,18.375 -29.4505,2.8093 -28.6076,5.107 -53.2417,17.7201 -30.5337,15.6275 -59.7034,-3.4204 -82.0016,74.3773 16.7248,-36.8513 24.4262,-31.1833 50.5544,-62.7438 25.9538,-31.3395 211.4639,-87.244 532.5345,56.5534 71.7048,32.1149 215.045,147.6864 350.0393,176.9098 42.5398,9.2072 96.9108,40.4119 139.0931,54.5079 37.3062,12.4639 56.0561,17.5176 114.0092,30.0626 0.4119,0.092 48.8462,0.8587 44.4637,52.1605 -4.7028,55.0719 -91.0032,67.7397 -150.754,70.7709 -118.7168,6.0244 -284.7637,-47.4204 -361.0321,-64.2728 -28.9837,-6.4063 -29.4035,-6.3882 -50.8838,-24.0267 -12.5427,-10.3025 -9.6776,-12.3601 -7.6373,-28.1533 -23.6009,22.1952 -24.4961,20.8595 -51.6859,38.9493 23.5646,-9.6457 27.1908,-16.1593 45.5115,1.5064 18.7215,18.0544 99.0294,166.2238 194.6976,300.8907 1.2603,1.7724 0.2051,1.9255 8.7663,25.5543 -6.987,-2.4068 -56.6466,-19.507 -89.8951,21.6572 -27.8726,34.506 -48.8899,44.995 -44.7113,127.6737 -5.4842,-62.5806 3.0079,-67.316 36.3919,-123.2333 22.9354,-38.4135 83.7842,-38.5866 108.2123,-22.422 14.7727,9.7733 5.1507,16.7382 116.8371,185.3666 -48.9073,-13.86 -77.4976,-6.6084 -107.2773,37.0747 -33.5316,49.1867 -25.5091,52.3102 -24.899,74.1126 -16.3673,-50.8654 76.0913,-127.1752 90.8176,-126.1812 58.1384,3.9265 46.1562,26.3491 156.696,195.8078 -97.9532,-33.7341 -133.6428,87.5651 -137.4322,100.4383 14.8828,-46.6042 10.4592,-49.7229 46.7323,-83.8289 57.7039,-54.2588 93.1412,-23.185 134.1834,49.829 8.1688,14.5268 89.1138,183.0862 10.9409,224.2966 -36.6906,19.3433 -31.3645,-9.9224 -84.1049,-46.8834 -44.2322,-31.0051 -149.7008,-204.4678 -161.1226,-223.2554 -5.8734,-9.661 -88.5331,-127.9698 -113.6849,-153.3792 -40.8356,-41.2542 -106.9322,-121.9607 -140.4787,-102.9862 -68.4281,38.7095 -69.2844,65.7132 -86.2662,92.6846 2.7206,-9.5765 21.6402,-76.068 80.7748,-96.0751 18.2947,-6.19 41.6113,8.2187 25.8224,-2.8454 175.8275,169.5432 179.7876,175.4224 169.7553,201.6124 -4.3919,11.4759 -42.0756,14.2071 -65.9145,52.0658 -8.9879,14.2721 -13.4687,20.0171 -33.8365,78.3753 -10.9444,-85.1953 98.1522,-164.6553 135.1014,-119.9596 4.1191,4.9809 105.1735,162.4589 115.4954,193.77 -4.9637,0.2509 -57.0611,-10.8775 -97.8166,112.0799 8.0806,-77.6813 83.7263,-125.7912 93.0415,-119.2587 62.9758,44.1348 52.4833,53.135 92.6969,117.2268 72.3847,115.372 84.8028,170.7466 3.3091,204.2109 -9.6379,3.958 -35.8096,14.7047 -112.2506,-65.2701 -32.9373,-34.4643 -28.7499,-41.8299 -46.3191,-66.414 -57.5457,-80.528 -66.0238,-73.4203 -109.1799,-129.6757 -116.3221,-151.6383 -109.0958,-156.1765 -261.1291,-357.5798 -113.3516,11.03 -123.1428,28.0361 -149.0417,82.3899 56.2253,-74.0389 128.8814,-107.156 156.3407,-66.4991 13.5437,20.0575 30.5525,26.7243 62.6234,76.4445 36.3601,56.3796 36.9624,55.4873 74.744,110.8952 -7.1163,-2.3332 -38.036,-12.4879 -91.8664,18.7894 -22.399,13.0112 -32.3818,34.1533 -47.2142,70.9965 16.5014,-30.7733 13.0645,-33.1932 40.4149,-56.0448 14.5253,-12.1401 61.1378,-73.1264 107.8732,-19.3097 82.0002,94.4307 95.1485,122.6475 132.8569,177.4362 -30.1273,-9.1977 -44.7794,-17.1594 -117.2243,36.6534 -3.1256,2.3226 -6.1495,4.5664 -21.8075,42.9449 4.0731,-7.9039 30.5647,-59.2808 76.6395,-81.5477 5.2045,-2.5193 27.5028,-13.2971 71.2676,13.7236 8.207,5.0692 37.6519,42.9462 40.693,46.865 7.1978,9.2547 47.7723,61.4589 68.6684,128.8239 11.3918,36.7329 -48.9942,122.2876 -104.496,72.1159 -140.9388,-127.4037 -139.6427,-174.1448 -268.7696,-336.4793 -86.5356,-108.7861 -168.4033,-268.7052 -203.866,-252.9321 -7.0835,3.154 -68.8557,6.9317 -96.2372,19.9123 -27.0906,12.8449 -34.4839,28.1396 -68.0448,57.9887 46.5715,-43.7847 91.6595,-97.9909 181.7467,-68.4098 25.8689,8.4952 27.1669,27.6797 77.6415,126.8664 7.435,14.6097 -17.8479,6.5288 -29.701,12.1965 -102.313,48.8791 -100.1921,75.7932 -103.4592,81.5509 7.2734,-10.4458 68.8249,-98.7983 134.0305,-88.555 2.5717,0.4041 46.4124,44.5441 47.7128,46.2826 46.5207,61.9874 63.2287,84.4891 63.2287,84.4891 0,0 16.5671,37.8481 18.059,41.2615 -26.5514,-8.0551 -44.5959,-0.7113 -79.5306,15.326 -39.0541,17.9314 -39.7094,17.4155 -67.8294,49.2103 69.1503,-78.4608 134.3459,-79.9651 147.36,-64.5363 67.8344,80.4255 99.6122,240.3615 20.8525,235.0116 -55.5459,-3.7743 -82.3031,-69.4819 -150.0986,-144.0197 -27.8854,-30.6662 -45.6559,-36.976 -71.4339,-70.2418 -38.7956,-50.0683 -113.8062,-155.2077 -133.7876,-174.4739 -32.7583,-31.5894 -18.3873,-48.2118 -81.5129,-74.4267 -16.2023,-6.7315 -77.9416,-32.373 -159.581,-147.8326 -10.4815,-14.8296 26.8701,-38.8999 27.4547,-52.7431 1.3055,-31.032 20.2478,-44.1365 42.5801,-45.4153 204.7455,-11.7591 237.0599,-26.1366 255.8581,-34.4968 2.0039,-0.8903 95.2578,-29.9426 165.3819,-121.289 5.7115,-7.4382 50.299,-78.0484 54.862,-117.5084 4.5567,-39.3806 -41.7297,-127.4019 12.211,-170.0087 4.1839,-3.304 8.9111,-5.9151 13.095,-9.2191 -58.2309,46.3037 -65.4023,119.0082 -74.5025,131.3357 -1.2874,1.7449 -3.9918,5.4123 5.7776,26.2767 16.0602,34.2906 18.6504,33.8952 37.6489,39.0282 -4.9386,-1.7963 -43.1937,-15.7084 -51.1515,-40.4444 -0.1021,-0.3213 -0.7799,-2.4287 0.6818,-4.1227 12.0023,-13.8792 -43.6405,41.8716 -30.6821,54.3678 19.3688,18.6798 38.1544,25.0383 41.9183,26.3144 -50.0351,-19.3917 -49.389,-21.7777 -50.0079,-25.4703 -0.3664,-2.159 -9.0777,-2.8663 -7.9553,26.2309 0.3908,10.0923 0.7262,13.9787 28.1024,53.0346 -2.3709,-1.91 -26.7309,-21.5686 -29.2345,-24.3218 -9.3001,-10.2262 -6.291,-11.4253 -7.8117,-25.3072 -21.3476,33.7921 -27.1851,49.8011 -8.236,101.3641 -22.8893,-25.4063 -19.7753,-27.6565 -17.8701,-55.0459 -29.4004,29.7069 -43.4739,25.2234 -45.908,59.4554 -1.5006,21.1317 2.5371,20.3359 9.958,40.3211 -14.4343,-20.9628 -17.1669,-20.1432 -16.23,-28.6202 0.271,-2.4921 0.5924,-5.3722 7.3293,-30.4853 -65.1485,41.7894 -78.807,52.6254 -66.8102,93.6564 -1.6786,-34.482 -4.3515,-37.5439 23.033,-64.0796 -5.7795,1.3513 -47.4025,12.6552 -51.8409,14.5195 -35.3029,14.8279 -27.2113,23.0312 -43.4565,57.2957 12.8692,-44.1341 11.1448,-45.8921 29.313,-61.1055 -102.7081,26.9426 -90.4202,75.6901 -91.0474,80.2947 -10.9687,-36.3139 -6.0091,-37.4349 14.994,-68.8102 -48.8428,6.4938 -68.3821,40.3482 -92.7807,71.3848 13.1915,-27.4427 10.12,-29.2815 26.2722,-45.1976 5.3444,-5.2602 17.0351,-34.7917 16.0905,-40.4523 -4.9406,-29.462 -11.0415,-33.6028 -64.7027,-30.3201 26.9731,-6.9281 27.0189,-6.602 54.1969,-2.3359 15.7218,2.4732 -6.2543,-16.4584 20.0434,-46.8778 6.7288,-7.7786 -16.8879,-15.0202 -20.8712,-18.0731 -14.1525,-10.8575 -15.7571,-8.7161 -32.8689,-2.347 29.7846,0.523 29.121,2.2853 57.8698,11.3201 -3.9321,-36.8098 43.2476,-42.4738 24.9582,-57.4961 -1.2434,-1.0211 -1.4576,0.2109 -18.0037,-9.1696 -29.2715,-16.5999 -31.2332,-9.217 -37.862,-10.0201 50.5326,16.8211 53.3806,20.7195 65.5519,8.7335 16.0277,-15.788 15.3295,-16.0656 32.5344,-30.3694 -71.9422,-57.4005 -71.6613,-65.7221 -80.693,-85.007 -81.3663,-173.7384 6.5387,67.0767 65.2454,86.3535 2.7579,0.9032 61.0989,-35.9029 78.2694,-50.7493 -20.18,-6.9032 -25.7264,-7.7108 -30.995,-60.2031 6.565,31.7414 6.4958,31.7843 24.7456,58.7513 26.3857,-10.8743 25.9003,-11.0009 53.6919,-17.8173 -1.502,-6.1645 -14.7029,-8.1341 3.6731,-35.4338 -4.732,20.0299 -4.7881,19.8901 -0.4381,39.7825 33.6288,-16.0142 33.9942,-13.8083 70.1197,-23.1962 -10.2724,-9.4087 -10.637,-9.4123 -12.0423,-23.3868 2.2677,10.9679 3.1523,10.4723 11.0289,28.8474 18.8493,-15.3751 26.5131,-14.4565 65.774,-22.912 -0.4944,-0.6465 -8.3598,-5.4995 -8.2021,-14.1795 0.5212,-28.1843 2.587,26.7826 12.461,25.2083 5.9858,-0.953 -4.8379,-6.0708 3.7723,-18.435 9.7464,-13.9851 60.3282,-45.3632 65.9167,-48.8293 -43.7493,26.3886 -59.0056,45.1145 -150.6141,53.8465 -129.973,12.3936 -242.3282,-95.4803 -271.9239,-113.1818 15.7498,17.3191 17.7739,14.1827 38.2823,26.4516 19.9453,11.9254 15.9506,57.467 172.9489,82.1272 16.1486,2.5368 126.5247,11.289 185.305,-18.8012 1.5772,-0.8096 1.4206,-0.8208 19.1831,-11.0827 -4.1464,7.1807 -69.7195,194.8033 -99.8796,230.0408 -14.0818,-22.7605 -24.7446,-56.5086 -87.1828,-60.7212 -41.2563,-2.785 -104.2284,98.3226 -39.7651,131.1531 6.7915,3.4638 81.2655,-6.4057 116.6876,-64.336 -78.3676,82.8742 -118.4751,91.3881 -206.8368,102.3154 -18.8239,2.3302 -55.7878,3.6873 -60.6462,3.864 -13.845,0.5073 -52.387,27.6302 -56.7353,32.6574 -16.0489,18.5609 -12.7633,20.7925 -34.7297,43.8723 -17.5884,18.4769 -10.4884,27.3437 -35.3929,33.9489 -4.4633,1.1821 -25.3533,31.2692 -31.4515,38.442 -29.3159,-39.6158 -25.2643,-42.1617 -57.8528,-79.2133 -52.5581,-59.7434 -54.9612,-74.0793 -53.8297,-67.342 0.1578,0.9413 -96.5073,-76.215 -149.6575,-197.6697 -58.4891,-133.6602 -62.2695,-183.4246 -63.5389,-200.1372 -2.1219,-27.908 35.0711,-112.2484 109.2946,-146.3245 21.9633,-10.0852 27.5736,-20.5976 75.8728,-8.6628 -14.5297,1.4405 -13.7564,6.4699 -28.4424,4.8577 -51.1013,-5.614 -98.0664,60.6277 -144.6938,59.0165 -95.1142,-3.2897 -160.2713,-179.4601 -345.1158,-369.7094 -61.8607,-63.6654 -58.7039,-66.67424 -131.4822,-117.68666"
   style="clip-rule:evenodd;vector-effect:non-scaling-stroke;fill:none;fill-rule:evenodd;stroke:#000000;stroke-width:0.474775;stroke-linejoin:round;stroke-miterlimit:2;stroke-dasharray:none;stroke-opacity:1;-inkscape-stroke:hairline"
   id="path1-8" />
    </g>
</svg>
