<?xml version="1.0" encoding="UTF-8" standalone="no"?>
<!DOCTYPE svg PUBLIC "-//W3C//DTD SVG 1.1//EN" "http://www.w3.org/Graphics/SVG/1.1/DTD/svg11.dtd">
<svg width="100%" height="100%" viewBox="0 0 6615 6615" version="1.1" xmlns="http://www.w3.org/2000/svg" xmlns:xlink="http://www.w3.org/1999/xlink" xml:space="preserve" xmlns:serif="http://www.serif.com/" style="fill-rule:evenodd;clip-rule:evenodd;stroke-linejoin:round;stroke-miterlimit:2;">
    <path d="M2440.69,6487.32C2469.49,6429.71 2581.42,6326.03 2601.69,6062.54C2647.67,5464.78 2686.85,5365.93 2677.05,5130.78C2672.84,5029.6 2585.53,4854.58 2659.93,4795.07C2672.01,4785.4 2680.56,4778.56 2838.06,4870.43C2896.64,4904.6 2898.24,4899.09 2961.38,4908.11C3039.62,4919.29 3067.59,4994.76 3216.14,4876.38C3134.33,4924.18 3127.82,4903.04 3035.82,4928.13C2944.45,4953.05 2522.82,4810.65 2124.33,4105.64C2035.34,3948.18 1928.18,3535.51 1717.62,3298.63C1651.27,3223.99 1593.23,3091.53 1534.27,3008.05C1482.13,2934.22 1454.25,2899.42 1363.86,2797.73C1363.21,2797.01 1274.29,2730.54 1353.07,2638.63C1437.64,2539.96 1615.42,2631.63 1730.61,2706.05C1959.46,2853.89 2194.36,3178.61 2312.84,3313.09C2357.86,3364.2 2358.67,3364.73 2374.29,3427.18C2383.4,3463.65 2375.25,3463.72 2349.71,3491.09C2456.89,3442.01 3080.33,3872.61 3074.68,3969.74C3101.83,3877.02 2458.46,3450.45 2416.89,3422.27C2366.92,3388.39 2461.81,2972.49 2469.51,2587.39C2469.61,2582.32 2471.78,2583.44 2488.42,2526.91C2498.08,2540.87 2566.79,2640.11 2685.24,2606.27C2784.54,2577.9 2838.04,2586.1 2944.13,2422.89C2868.14,2549.54 2845.84,2547.18 2706.82,2608.96C2611.31,2651.41 2498.03,2570.08 2474.9,2506.49C2460.91,2468.03 2488.39,2467.66 2513.09,1996.32C2584.87,2088.38 2647.97,2112.93 2763.45,2069.62C2893.48,2020.86 2882.87,2004.13 2911.77,1961.76C2872.12,2080.68 2595.28,2102.07 2569.29,2080.41C2466.68,1994.9 2519.82,1968.24 2547.8,1496.85C2683.33,1692.62 2916.67,1509.29 2941.43,1489.83C2849.61,1558.7 2853.54,1570.58 2739.18,1586.91C2557.26,1612.9 2534.22,1506.11 2558.5,1311.85C2563.33,1273.19 2637.52,846.671 2839.51,873.016C2934.31,885.382 2912.04,923.967 2938.73,1071.84C2960.92,1194.73 2935.29,1662.52 2930.64,1713.66C2928.25,1739.96 2918.9,2076.42 2930.64,2158.61C2949.71,2292.06 2961.37,2534.62 3049.82,2543.46C3230.25,2561.5 3269.03,2511.18 3337.72,2482.56C3319.47,2497.16 3192.76,2598.52 3055.35,2557.3C3012.84,2544.55 2989.36,2485.78 3003.45,2528.06C2910.26,1968.9 2911.01,1952.37 2965.7,1915.91C2989.67,1899.93 3063.44,1945.3 3159.86,1905.12C3196.21,1889.98 3212.45,1885.04 3330.66,1801.13C3233.66,1978.23 2921.56,1983.28 2914.46,1848.49C2913.67,1833.47 2942.79,1397.65 2966.72,1324.11C2976.29,1330.3 3057.75,1421.43 3302.79,1241.73C3180.8,1378.97 2966.18,1370.5 2965.7,1344.21C2962.26,1154.29 2936.91,1172.29 2950.46,996.146C2974.85,679.072 3032.49,557.04 3229.98,602.615C3253.33,608.003 3316.75,622.64 3348.63,877.679C3362.37,987.578 3344.45,996.003 3343.24,1066.45C3339.26,1297.18 3364.8,1295.01 3367.51,1460.17C3374.81,1905.34 3355.13,1904.3 3360.25,2492.26C3586.02,2623.37 3627.64,2604.09 3750.6,2535.23C3544.18,2600.91 3363.6,2566.53 3368.57,2452.18C3371.02,2395.77 3348.6,2360.23 3357.49,2222.41C3367.58,2066.14 3365.23,2067.03 3371.34,1910.7C3381.34,1924.7 3424.8,1985.55 3567.89,1998.18C3627.41,2003.43 3675.08,1976.53 3753.36,1926.2C3680.33,1962.72 3683.39,1971.94 3601.11,1978.8C3557.4,1982.44 3386.82,2036.14 3374.11,1870.84C3351.79,1580.78 3366.22,1509.34 3371.61,1354.29C3414.91,1412.26 3431.18,1447.1 3639.86,1441.75C3648.88,1441.52 3657.58,1441.29 3739.52,1389.15C3721.06,1398.75 3601.11,1461.12 3484.84,1441.75C3471.7,1439.56 3415.43,1430.18 3371.34,1319.94C3363.07,1299.26 3360.53,1187.54 3360.26,1175.99C3359.64,1148.68 3356.14,994.71 3410.09,838.256C3439.51,752.948 3669.51,670.893 3703.53,841.024C3789.94,1273.04 3723.16,1360.39 3739.52,1843.15C3750.49,2166.66 3682.37,2581.38 3769.97,2598.9C3787.48,2602.4 3907.44,2678.1 3976.19,2690.1C4044.21,2701.97 4079,2682.74 4182.45,2670.88C4035.65,2691.85 3877.23,2734.67 3750.6,2557.38C3714.23,2506.47 3738.24,2468.15 3781.05,2211.34C3787.35,2173.5 3823.2,2222.83 3853.02,2227.95C4110.41,2272.07 4143.53,2217.93 4157.54,2211.34C4129.64,2221.48 3893.62,2307.3 3786.58,2200.26C3782.36,2196.04 3761.7,2053.07 3761.67,2048.01C3760.61,1867.4 3760.55,1802.09 3760.55,1802.09C3760.55,1802.09 3781.88,1707.71 3783.82,1699.2C3822.06,1750.19 3865.69,1760.4 3952.68,1776.71C4049.93,1794.95 4050.43,1796.81 4146.46,1773.94C3909.94,1830.71 3786.74,1746.07 3783.82,1699.2C3768.54,1454.85 3929.74,1107.31 4068.7,1223.22C4166.69,1304.96 4125.92,1466.12 4149.23,1699.2C4158.82,1795.08 4183.13,1830.96 4185.22,1928.97C4188.36,2076.47 4182.94,2377.57 4193.52,2441.11C4210.89,2545.29 4161.29,2557.69 4242.47,2692.39C4263.31,2726.96 4332.89,2890.58 4325.57,3220.25C4324.62,3262.59 4220.01,3296.2 4220.01,3296.2C4220.01,3296.2 4111.72,3333.03 4056.35,3346.87C4041.34,3350.62 3848.97,3345.37 3822.55,3327.76C3813.28,3321.58 3742.74,3274.55 3704.56,3253.73C3525.35,3155.98 3439.1,3118.38 3179.4,3171.18C3324.98,3108.29 3476.92,3189.43 3484.78,3205.15C3559.33,3354.24 3303.11,3462.47 3230.29,3401.79C3120.1,3309.97 3146.76,3231.32 3151.94,3169.03C3091.5,3176.23 2722.12,3384.86 2710.89,3398.77C2703.99,3407.33 3107.67,3628.85 3369.58,3606.56C3743.57,3574.73 3845.53,3455.78 3873.44,3423.22L3996.03,3360.31C3958.96,3349.34 3896.63,3354.83 3913.81,3351.96C3965.73,3343.31 3973.09,3306.85 4035.39,3272.24C3947.32,3298.66 3864.4,3336.97 3764.71,3283.81C3846.94,3252.18 3857.7,3256.7 3887.33,3172.76C3879.82,3180.69 3835.53,3290.11 3607.61,3203.63C3662.31,3199.01 3690.1,3163.06 3774.78,3096.21C3697.42,3139.72 3672.58,3196.5 3586.57,3177.38C3575.76,3174.98 3482.87,3140.67 3470.27,3135.49C3557.68,3121.66 3594.84,3073.08 3639.2,3005.1C3604.99,3099.41 3526.8,3140.89 3348.21,3133.12C3395.31,3094.29 3399.87,3089.22 3403.81,3084.84C3417.22,3069.94 3442.47,3020.59 3444.51,2961.25C3430.78,3009.31 3407.93,3060.47 3376.05,3098.72C3324.38,3160.72 3304.41,3133.28 3208.88,3150.46C3250.14,3100.81 3274.3,3042.36 3266.76,2963.2C3230.96,3086.93 3182.78,3167.95 3096.6,3203.71C3112.88,3175.22 3120.13,3176.96 3116.93,3144.99C3116.07,3136.39 3093.29,3017.85 3091.52,3011.03C3088.59,3122.22 3088.46,3178.45 3075.29,3198.2C3037.31,3255.18 3022.09,3242.14 3024.39,3237.53C3028.33,3229.66 3027.48,3190.46 2961.22,3086.34C2966.47,3093.83 2997.93,3166.68 3008.2,3228.28C3015.07,3269.49 2834.92,3301.1 2876.33,3290.75C2881.38,3289.48 2883.02,3284.55 2883.27,3283.81C2902.55,3225.97 2850.64,3148.1 2843.94,3138.05C2872.17,3173.34 2877.52,3176.07 2860.13,3262.98C2849.56,3315.86 2839.48,3319.22 2834.68,3320.82C2800.8,3332.11 2828.65,3314.14 2729.22,3204.78C2741.53,3204.09 2753.27,3371.42 2753.27,3371.42L2625.98,3286.1L2714.39,3371.52C2758.09,3399.07 2682.16,3511.04 2682.16,3511.04C2682.16,3511.04 2726.25,3463.41 2763.62,3449.83C2796.64,3437.82 2819.94,3460.36 2832.37,3466.57C2852.88,3476.83 2781.03,3584.38 2820.8,3531.35C2833.05,3515.02 2825.12,3495.21 2825.1,3493.32C2909.68,3529.89 2922.65,3541.92 2978.85,3537.91C2968.18,3583.51 2928.42,3621.68 2917.53,3645.63C2934.17,3617.11 2975.57,3578.68 2969.44,3546.95C3049.49,3577.54 3047.12,3582.24 3131.65,3596.84C3112.35,3640.6 3087.93,3681.52 3051.55,3713.35C3123.28,3685.98 3125.98,3623.24 3131.67,3609.47C3192.7,3633.78 3191.97,3632.88 3255.96,3647.57C3252.74,3723.46 3252.55,3723.45 3221.04,3792.78C3283.54,3685.64 3274.34,3676.66 3246.35,3636.41C3298.69,3631.15 3460.46,3638.16 3461.64,3644.71C3483.91,3767.47 3451.05,3826.1 3451.05,3826.1C3451.05,3826.1 3485.71,3832.52 3431.1,3626.55C3482.76,3622.37 3481.85,3620.91 3533.36,3612.32C3572.48,3605.8 3572.4,3617.06 3643.12,3716.94C3631.91,3706.52 3618.1,3717.95 3586.57,3647.03C3568.76,3606.94 3566.66,3609 3565.75,3605.38C3552.46,3552.21 3647.92,3604.73 3691.3,3529.27C3732.27,3585.08 3728.61,3587.56 3783.22,3628.52C3742.66,3617.7 3736.72,3619.63 3725.38,3579.93C3722.19,3568.76 3688.28,3523.27 3711.5,3517.47C3729.84,3512.89 3743.87,3506.55 3754.8,3499.57C3797.94,3472.01 3792.7,3434.41 3813.3,3455C3857.91,3499.61 3857.54,3500.3 3917.2,3523.29C3671.9,3428.59 4079.73,3353.04 4193.87,3307.21C4193.87,3307.21 4300.52,3261.82 4321.74,3256.33C4321.64,3371.2 4310.61,3370.61 4320.14,3484.97C4335.51,3669.4 4320.23,3699.96 4327.41,3685.59C4328.41,3683.59 4401.75,3960.4 4333.25,4263.25C4257.86,4596.54 4196.36,4696.48 4175.7,4730.05C4141.21,4786.09 3955.97,4896.96 3771.15,4862.3C3716.46,4852.05 3691.56,4864.56 3618.27,4776.99C3647.24,4793.74 3652.73,4783.11 3677.79,4805.9C3765,4885.19 3943.48,4821.94 4027.89,4887.59C4200.06,5021.5 4078.52,5444.77 4159.95,6055.52C4187.2,6259.9 4177.19,6261.4 4242.17,6456.32" style="fill:none;"/>
</svg>
