<?xml version="1.0" encoding="UTF-8" standalone="no"?>
<svg
   width="100%"
   height="100%"
   viewBox="0 0 6615 6615"
   version="1.1"
   xml:space="preserve"
   style="fill-rule:evenodd;clip-rule:evenodd;stroke-linejoin:round;stroke-miterlimit:2;"
   id="svg1"
   sodipodi:docname="hand_eye_2.svg"
   inkscape:version="1.4.2 (f4327f4, 2025-05-13)"
   xmlns:inkscape="http://www.inkscape.org/namespaces/inkscape"
   xmlns:sodipodi="http://sodipodi.sourceforge.net/DTD/sodipodi-0.dtd"
   xmlns="http://www.w3.org/2000/svg"
   xmlns:svg="http://www.w3.org/2000/svg"><defs
   id="defs1" /><sodipodi:namedview
   id="namedview1"
   pagecolor="#ffffff"
   bordercolor="#000000"
   borderopacity="0.25"
   inkscape:showpageshadow="2"
   inkscape:pageopacity="0.0"
   inkscape:pagecheckerboard="0"
   inkscape:deskcolor="#d1d1d1"
   inkscape:zoom="0.13121693"
   inkscape:cx="3307.5"
   inkscape:cy="3307.5"
   inkscape:window-width="1920"
   inkscape:window-height="1112"
   inkscape:window-x="-8"
   inkscape:window-y="-8"
   inkscape:window-maximized="1"
   inkscape:current-layer="svg1" />
    <g
   id="path">
    </g>
    <g
   transform="matrix(1.10222,0,0,1.10222,-335.061,-669.711)"
   id="g1">
        <g
   id="Layer1">
            <path
   d="M2518.33,6493.3C2544.46,6441.03 2646.01,6346.96 2664.4,6107.91C2706.12,5565.59 2741.66,5475.9 2732.78,5262.56C2728.95,5170.76 2649.74,5011.98 2717.24,4957.98C2728.2,4949.21 2735.96,4943.01 2878.85,5026.36C2932,5057.36 2933.45,5052.36 2990.73,5060.54C3061.72,5070.69 3087.09,5139.15 3221.87,5031.75C3147.64,5075.12 3141.74,5055.94 3058.27,5078.71C2975.37,5101.31 2592.84,4972.12 2231.31,4332.49C2150.57,4189.64 2053.35,3815.23 1862.32,3600.32C1802.12,3532.6 1749.46,3412.43 1695.97,3336.69C1648.66,3269.71 1623.37,3238.14 1541.36,3145.88C1540.78,3145.22 1460.1,3084.92 1531.58,3001.53C1608.31,2912.01 1769.6,2995.18 1874.1,3062.69C2081.73,3196.82 2294.84,3491.43 2402.34,3613.44C2443.19,3659.81 2443.92,3660.29 2458.09,3716.95C2466.36,3750.04 2458.96,3750.11 2435.79,3774.94C2503.3,3765.29 2503.14,3768.69 2571.57,3770.51C2519.8,3758.5 2505.55,3765.35 2496.74,3712.49C2487.74,3658.47 2537.49,3304.43 2544.48,2955.04C2544.57,2950.44 2546.54,2951.46 2561.63,2900.17C2570.4,2912.84 2632.74,3002.88 2740.21,2972.17C2830.3,2946.43 2878.83,2953.88 2975.08,2805.8C2906.14,2920.71 2885.91,2918.56 2759.78,2974.62C2673.13,3013.13 2570.35,2939.34 2549.37,2881.64C2536.68,2846.75 2561.6,2846.42 2584.02,2418.79C2649.14,2502.31 2706.39,2524.58 2811.16,2485.29C2929.13,2441.05 2919.51,2425.88 2945.72,2387.43C2909.76,2495.33 2658.58,2514.73 2635,2495.08C2541.91,2417.5 2590.12,2393.31 2615.51,1965.64C2738.47,2143.25 2950.17,1976.92 2972.64,1959.27C2889.33,2021.75 2892.89,2032.53 2789.14,2047.35C2624.09,2070.93 2603.18,1974.04 2625.22,1797.79C2629.6,1762.72 2703.75,1372.64 2887,1396.55C2973.01,1407.77 2927.47,1451.9 2970.19,1580.04C3006.01,1687.52 2967.07,2115.94 2962.85,2162.34C2960.68,2186.2 2952.2,2491.46 2962.85,2566.03C2980.14,2687.1 2990.72,2907.16 3070.97,2915.19C3234.67,2931.56 3269.85,2885.9 3332.17,2859.93C3315.62,2873.18 3200.66,2965.14 3075.99,2927.74C3037.42,2916.17 3016.12,2862.86 3028.91,2901.22C2944.36,2393.91 2945.03,2378.92 2994.66,2345.84C3016.4,2331.34 3083.33,2372.5 3170.81,2336.05C3203.79,2322.31 3218.52,2317.83 3325.76,2241.7C3237.77,2402.37 2954.61,2406.96 2948.17,2284.67C2947.45,2271.04 2973.86,1875.64 2995.58,1808.92C3004.26,1814.53 3078.17,1897.21 3300.48,1734.18C3189.81,1858.69 3002.2,1849.79 2994.66,1827.15C2943.65,1674.14 2972.58,1671.35 2984.87,1511.54C3007,1223.87 3055.25,1112.98 3234.42,1154.33C3255.61,1159.22 3313.15,1172.5 3342.08,1403.89C3354.54,1503.6 3338.28,1511.24 3337.18,1575.15C3333.57,1784.49 3356.74,1782.52 3359.2,1932.36C3365.82,2336.25 3347.97,2335.3 3352.61,2868.74C3557.45,2987.68 3595.2,2970.19 3706.76,2907.72C3519.49,2967.31 3355.65,2936.12 3360.16,2832.37C3362.39,2781.19 3342.05,2748.95 3350.11,2623.91C3359.26,2482.13 3357.13,2482.94 3362.67,2341.11C3371.75,2353.81 3411.18,2409.02 3540.99,2420.47C3595,2425.24 3638.24,2400.83 3709.27,2355.17C3643.01,2388.3 3645.78,2396.67 3571.13,2402.89C3531.48,2406.2 3376.72,2454.92 3365.18,2304.94C3344.94,2041.78 3358.03,1976.97 3362.92,1836.3C3402.21,1888.89 3416.96,1920.5 3606.3,1915.64C3614.47,1915.43 3622.37,1915.23 3696.71,1867.92C3679.97,1876.63 3571.13,1933.23 3465.65,1915.64C3453.73,1913.66 3402.68,1905.15 3362.67,1805.13C3355.17,1786.37 3352.86,1685.01 3352.63,1674.53C3352.06,1649.76 3348.89,1510.07 3397.83,1368.12C3424.52,1290.72 3633.19,1216.28 3664.06,1370.63C3742.45,1762.58 3681.87,1841.84 3696.71,2279.82C3706.66,2573.33 3644.86,2949.59 3724.34,2965.49C3740.22,2968.66 3849.06,3037.34 3911.43,3048.23C3973.14,3059 4004.71,3041.55 4098.57,3030.79C3965.37,3049.81 3821.65,3088.66 3706.76,2927.81C3673.77,2881.62 3695.55,2846.86 3734.39,2613.86C3740.11,2579.54 3772.63,2624.3 3799.69,2628.93C4033.21,2668.97 4063.26,2619.84 4075.96,2613.86C4050.65,2623.07 3836.52,2700.93 3739.41,2603.82C3735.58,2599.99 3716.83,2470.27 3716.81,2465.68C3715.84,2301.83 3715.79,2242.57 3715.79,2242.57C3715.79,2242.57 3735.15,2156.94 3736.9,2149.22C3771.59,2195.48 3811.18,2204.75 3890.1,2219.55C3978.33,2236.09 3978.79,2237.78 4065.91,2217.03C3851.33,2268.53 3739.56,2191.75 3736.9,2149.22C3723.04,1927.53 3869.29,1612.23 3995.36,1717.38C4084.27,1791.54 4047.28,1937.76 4068.43,2149.22C4077.12,2236.21 4099.19,2268.76 4101.08,2357.68C4103.92,2491.51 4099,2764.68 4108.61,2822.33C4124.36,2916.85 4079.37,2928.1 4153.02,3050.3C4171.92,3081.67 4243.95,3201.19 4237.31,3500.28C4236.45,3538.69 4143.42,3534.84 4125.14,3558.07C4084.17,3610.15 4035.87,3609.75 3996.63,3584.77C3636.83,3355.81 3564.4,3341.33 3522.27,3332.9C3517.78,3332 3324.3,3268.7 3091.98,3341.3C3073.06,3347.21 2909.69,3415.04 2852.7,3477.73C2795.82,3540.29 2763.87,3748.88 2619.72,3756.89C2608.54,3757.51 2597.31,3756.27 2586.13,3756.89C2742.13,3747.71 2845.05,3630.7 2875.79,3620.46C2880.14,3619.01 2889.28,3615.96 2898.88,3567.98C2914.65,3489.12 2909.79,3486.65 2884.18,3454.64C2890.26,3463.76 2937.36,3534.4 2919.87,3586.87C2919.64,3587.55 2918.15,3592.02 2913.57,3593.17C2876,3602.56 3039.44,3573.89 3033.21,3536.5C3023.9,3480.61 3000.18,3446.74 2995.43,3439.95C3055.54,3534.41 3051.47,3537.75 3047.9,3544.89C3045.82,3549.07 3059.62,3560.9 3094.08,3509.21C3106.03,3491.28 3110.32,3484.15 3112.97,3383.27C3114.58,3389.46 3131.08,3453.12 3131.86,3460.93C3134.76,3489.94 3128.19,3488.35 3113.41,3514.21C3191.61,3481.76 3221.45,3461.18 3253.93,3348.93C3260.77,3420.74 3252.71,3420.84 3215.28,3465.89C3301.95,3450.31 3320.07,3475.2 3366.94,3418.96C3395.87,3384.24 3388.07,3380.7 3400.53,3337.1C3398.67,3390.93 3404.3,3392.84 3392.13,3406.36C3388.56,3410.34 3384.42,3414.93 3341.69,3450.16C3503.71,3457.21 3540.27,3455.1 3571.31,3369.53C3531.06,3431.21 3531.74,3439.76 3452.43,3452.31C3463.86,3457.01 3548.14,3488.14 3557.95,3490.32C3635.98,3507.66 3632.59,3483.62 3702.78,3444.14C3625.95,3504.8 3626.66,3509.94 3577.03,3514.13C3783.81,3592.59 3824,3493.32 3830.81,3486.12C3803.93,3562.28 3794.17,3558.18 3719.57,3586.87C3810.01,3635.11 3885.24,3600.35 3965.14,3576.38C3908.62,3607.78 3911.5,3614.7 3864.39,3622.56C3848.81,3625.15 3792.21,3661.99 3786.73,3672.93C3758.25,3729.9 3763.36,3744.49 3857.91,3804.15C3803.79,3783.29 3804.12,3782.67 3763.64,3742.2C3740.23,3718.78 3753.62,3778.28 3671.29,3798.87C3650.23,3804.13 3680.99,3845.41 3683.89,3855.54C3694.18,3891.55 3699.56,3889.8 3736.36,3899.62C3686.81,3862.45 3690.13,3860.21 3652.96,3809.58C3613.6,3878.03 3527,3830.38 3539.06,3878.63C3539.88,3881.91 3541.78,3880.04 3557.95,3916.41C3586.55,3980.76 3599.08,3970.38 3609.25,3979.84C3545.09,3889.22 3545.16,3879.01 3509.67,3884.92C3462.93,3892.71 3463.76,3894.04 3416.89,3897.83C3466.44,4084.7 3455.57,4098.75 3446.7,4143.1C3366.79,4542.65 3519.48,4019.13 3444.61,3914.31C3441.09,3909.39 3296.77,3902.01 3249.28,3906.78C3274.67,3943.29 3283.01,3951.44 3226.31,4048.64C3254.9,3985.75 3255.07,3985.76 3258,3916.9C3199.94,3903.58 3200.6,3904.39 3145.24,3882.34C3140.07,3894.83 3159.86,3914.31 3094.78,3939.15C3127.78,3910.27 3127.7,3910.58 3145.22,3870.88C3068.53,3857.63 3070.67,3853.37 2998.05,3825.62C3003.61,3854.4 3004.22,3854.85 2989.13,3880.73C2999.01,3859 2996.9,3858.78 3006.58,3817.41C2955.6,3821.05 2943.83,3810.13 2867.09,3776.95C2867.11,3778.67 2874.31,3796.64 2863.2,3811.46C2827.11,3859.57 2892.3,3761.99 2873.69,3752.69C2862.41,3747.05 2874.26,3769.08 2844.3,3779.98C2810.4,3792.3 2685.94,3784.98 2672.19,3784.17C2778.9,3791.8 2828.01,3777.99 2993.33,3874.43C3227.89,4011.25 3282.5,4334.62 3310.27,4401.27C3305.36,4352.14 3298.03,4355.1 3278.79,4308.91C3260.07,4264 3323.7,4190.1 3089.88,3956.29C3065.83,3932.24 2890.72,3782.71 2754.05,3763.18C2750.38,3762.66 2750.63,3762.87 2707.87,3758.99C2723.83,3751.62 3068.76,3506.97 3163.62,3482.75C3158.92,3539.26 3134.73,3610.61 3234.71,3693.92C3300.77,3748.97 3533.23,3650.78 3465.59,3515.51C3458.47,3501.25 3320.61,3427.64 3188.53,3484.7C3424.16,3436.79 3502.4,3470.9 3664.99,3559.59C3699.63,3578.48 3763.63,3621.14 3772.04,3626.75C3796.01,3642.73 3894.86,3642.75 3908.47,3639.35C3958.71,3626.79 3955.96,3618.93 4021.82,3605.76C4074.55,3595.22 4073.66,3571.24 4123.89,3590.14C4132.89,3593.53 4205.69,3566.93 4224.93,3561.95C4224.85,3666.16 4214.84,3665.63 4223.48,3769.39C4237.43,3936.71 4223.57,3964.43 4230.08,3951.4C4230.99,3949.58 4297.53,4200.72 4235.38,4475.49C4166.98,4777.87 4111.18,4868.54 4092.44,4898.99C4061.15,4949.84 3893.09,5050.42 3725.41,5018.98C3675.79,5009.68 3653.2,5021.03 3586.7,4941.58C3612.99,4956.78 3617.97,4947.14 3640.71,4967.81C3719.83,5039.74 3881.75,4982.36 3958.33,5041.92C4114.54,5163.42 4004.27,5547.44 4078.15,6101.54C4102.88,6286.97 4093.8,6288.33 4152.74,6465.17"
   style="fill:none;stroke:#000000;stroke-opacity:1;stroke-width:0.90725989;stroke-dasharray:none;vector-effect:non-scaling-stroke;-inkscape-stroke:hairline"
   id="path1" />
        </g>
    </g>
</svg>
