<?xml version="1.0" encoding="UTF-8" standalone="no"?>
<!-- Created with Inkscape (http://www.inkscape.org/) -->

<svg
   width="546mm"
   height="546mm"
   viewBox="0 0 546 546"
   version="1.1"
   id="svg1"
   inkscape:version="1.4.2 (f4327f4, 2025-05-13)"
   sodipodi:docname="hilbert_d5.svg"
   xmlns:inkscape="http://www.inkscape.org/namespaces/inkscape"
   xmlns:sodipodi="http://sodipodi.sourceforge.net/DTD/sodipodi-0.dtd"
   xmlns="http://www.w3.org/2000/svg"
   xmlns:svg="http://www.w3.org/2000/svg">
  <sodipodi:namedview
     id="namedview1"
     pagecolor="#ffffff"
     bordercolor="#000000"
     borderopacity="0.25"
     inkscape:showpageshadow="2"
     inkscape:pageopacity="0.0"
     inkscape:pagecheckerboard="0"
     inkscape:deskcolor="#d1d1d1"
     inkscape:document-units="mm"
     inkscape:zoom="0.41"
     inkscape:cx="773.17073"
     inkscape:cy="1043.9024"
     inkscape:window-width="1920"
     inkscape:window-height="1112"
     inkscape:window-x="-8"
     inkscape:window-y="-8"
     inkscape:window-maximized="1"
     inkscape:current-layer="layer1" />
  <defs
     id="defs1" />
  <g
     inkscape:label="Layer 1"
     inkscape:groupmode="layer"
     id="layer1">
    <path
       inkscape:connector-curvature="0"
       id="path4427"
       d="m 94.392215,451.92459 -3e-6,-11.53753 11.537538,0 0,11.53754 23.07506,-10e-6 1e-5,-11.53753 -11.53751,0 -1e-5,-11.53753 11.53751,0 1e-5,-11.53754 -23.07508,0 0,11.53754 -11.537524,0 -1e-6,-23.07507 11.537535,0 v -11.53755 l -11.537535,0 -10e-7,-23.07507 11.537536,0 0,11.53752 11.53754,0 0,-11.53752 11.53752,1e-5 0,23.07506 -11.53752,0 -1e-5,11.53753 34.61262,0 1e-5,-11.53753 -11.53756,0 -1e-5,-23.07507 h 11.53757 v 11.53752 h 11.53752 v -11.53752 l 11.53752,0 0,23.07507 h -11.53752 l -1e-5,11.53753 h 11.53754 l -10e-6,23.07508 -11.53752,0 0,-11.53755 -23.07509,0 v 11.53755 l 11.53757,0 -1e-5,11.53753 -11.53755,0 -1e-5,11.53753 23.07509,0 -1e-5,-11.53753 11.53754,0 -10e-6,11.53753 23.07509,0 -1e-5,-11.53753 -11.53751,0 1e-5,-23.07508 h 11.53751 v 11.53755 h 11.53752 v -11.53755 h 11.53755 l 10e-6,23.07508 h -11.53757 v 11.53754 l 23.0751,-1e-5 v -11.53752 l 11.53753,-1e-5 v 11.53754 l 23.07507,-1e-5 v -11.53752 l -11.53752,-1e-5 v -11.53752 l 11.53752,-1e-5 v -11.53755 h -23.07507 v 11.53755 h -11.53753 v -34.61261 l 11.53753,0 v 11.53753 h 23.07508 l -1e-5,-11.53753 -11.53752,0 v -11.53755 l 11.53752,0 v -11.53752 h -23.07507 v 11.53752 h -11.53752 v -11.53752 h -23.0751 v 11.53752 h 11.53756 l 1e-5,23.07508 -11.53756,0 -1e-5,-11.53753 -11.53751,0 1e-5,11.53753 h -11.53754 l 1e-5,-23.07508 h 11.53752 v -11.53752 h -11.53752 l -1e-5,-11.53753 h 11.53754 l -1e-5,-11.53756 -11.53753,0 1e-5,-23.07504 11.53752,0 v 11.53751 l 11.53752,1e-5 -1e-5,-11.53752 11.53756,0 v 23.07504 l -11.53755,0 v 11.53756 h 23.07508 v -11.53756 l 11.53753,0 1e-5,11.53756 h 23.07507 l -1e-5,-11.53756 -11.53752,0 v -11.53752 l 11.53752,-1e-5 v -11.53751 h -23.07507 v 11.53751 l -11.53753,1e-5 v -34.61261 l 11.53753,0 1e-5,11.53753 23.07506,0 v -11.53753 l -11.53752,0 0,-11.53751 11.53752,10e-6 v -11.53757 l -23.07507,0 1e-5,11.53756 h -11.53754 l 1e-5,-11.53756 h -23.0751 l 1e-5,11.53756 11.53755,10e-6 0,23.07503 -11.53755,0 v -11.53753 l -11.53752,0 1e-5,11.53753 h -11.53754 v -23.07504 h 11.53754 l -1e-5,-11.53756 h -23.07508 v 11.53757 l -11.53753,-10e-6 -10e-6,-11.53756 h -23.07506 l -1e-5,11.53756 h 11.53756 l 0,11.53751 h -11.53756 v 11.53753 l 23.07508,0 v -11.53753 l 11.53753,0 v 23.07509 h -11.53754 l 10e-6,11.53752 11.53753,-1e-5 -1e-5,23.07509 h -11.53752 v -11.53756 l -11.53752,0 v 11.53756 h -11.53756 v -23.07508 h 11.53756 l 0,-11.53751 -34.61262,-1e-5 1e-5,11.53752 11.53753,-1e-5 -1e-5,23.07509 h -11.53752 v -11.53756 h -11.53755 l 0,11.53756 -11.537528,0 -4e-6,-23.07509 11.537532,1e-5 -1e-5,-11.53752 H 94.392228 v -23.07509 l 11.537532,0 v 11.53753 l 23.07508,0 v -11.53753 l -11.53753,0 v -11.53751 l 11.53753,10e-6 v -11.53757 h -23.07509 l 1e-5,11.53756 -11.537532,10e-6 v -23.0751 l 11.537532,0 V 255.7865 H 94.392235 l -7e-6,-23.07508 h 11.537522 l 1e-5,11.53753 h 11.53755 l -1e-5,-11.53753 h 11.53754 v 23.07509 l -11.53753,-1e-5 v 11.53752 h 23.07505 V 255.7865 h 11.53756 v 11.53752 l 23.07505,0 -1e-5,-11.53752 -11.53752,0 v -11.53753 l 11.53753,-1e-5 v -11.53752 l -23.07505,-1e-5 v 11.53754 h -11.53756 l 0,-34.61263 h 11.53756 v 11.53757 l 23.07505,-1e-5 v -11.53756 l -11.53753,0 v -11.53753 l 11.53753,0 v -11.5375 l -23.07505,-1e-5 v 11.53751 H 140.54236 V 186.5613 h -23.07505 l 0,11.53751 11.53753,0 0,23.07509 -11.53753,1e-5 v -11.53757 l -11.53755,0 v 11.53757 l -11.537532,-1e-5 -10e-7,-23.07509 11.537533,0 0,-11.53751 -11.537534,0 v -23.0751 l 11.537534,0 -1e-5,11.53753 23.07509,0 -1e-5,-11.53753 -11.53752,0 0,-11.53751 11.53752,0 0,-11.53755 -23.07507,0 v 11.53755 l -11.537535,1e-5 10e-7,-23.0751 11.537534,-1e-5 0,-11.53751 -11.537529,0 -2e-6,-23.075089 11.537521,2e-6 1e-5,11.537537 h 11.53755 l -1e-5,-11.537537 11.53754,-3e-6 0,23.07509 -11.53753,0 0,11.53751 34.61261,0 0,-11.53751 h -11.53756 l 0,-23.075086 11.53755,0 10e-6,11.537536 11.53752,0 -10e-6,-11.537537 11.53754,-3e-6 0,23.07509 -11.53753,0 0,11.53751 11.53753,1e-5 v 23.0751 l -11.53753,-1e-5 v -11.53755 l -23.07507,0 v 11.53755 l 11.53755,0 v 11.53752 l -11.53756,0 1e-5,11.53753 23.07506,0 10e-6,-11.53753 11.53753,0 v 11.53753 h 11.53756 l -1e-5,-11.53753 11.53754,0 -1e-5,11.53753 h 23.07507 l 1e-5,-11.53753 h -11.53756 v -11.53752 l 11.53755,1e-5 v -11.53755 l -23.07509,-1e-5 v 11.53755 h -11.53751 v -23.0751 h 11.53751 v -11.53751 l -11.53751,0 1e-5,-23.075092 11.53751,10e-7 -1e-5,11.537541 11.53752,0 1e-5,-11.537541 11.53755,0 10e-6,23.075091 -11.53757,0 v 11.53751 l 34.61263,0 v -11.53751 h -11.53754 l 1e-5,-23.075091 11.53753,7e-6 0,11.537534 h 11.53755 l 0,-11.537534 11.53751,-7e-6 10e-6,23.075091 h -11.53752 l 0,11.53751 11.53752,0 v 23.0751 h -11.53752 v -11.53755 l -23.07508,1e-5 v 11.53755 l 11.53753,-1e-5 v 11.53752 l -11.53754,0 1e-5,11.53753 23.07507,0 1e-5,-11.53753 11.53752,0 v 23.07509 l -11.53752,0 v 11.53754 l 11.53752,0 -10e-6,23.07506 -11.53751,1e-5 v -11.53757 h -11.53755 v 11.53757 l -11.53753,-1e-5 0,-23.07507 11.53753,1e-5 V 186.5613 h -23.07506 l 0,11.53754 -11.53757,0 V 186.5613 l -23.07504,0 0,11.53754 11.53753,-1e-5 -1e-5,11.53751 h -11.53752 l -1e-5,11.53756 23.07506,0 -1e-5,-11.53756 h 11.53757 v 34.61263 h -11.53757 v -11.53754 h -23.07504 l -1e-5,11.53753 h 11.53754 l -1e-5,11.53754 -11.53752,0 v 11.53752 l 23.07504,0 0,-11.53752 h 11.53757 v 11.53752 l 23.07506,0 V 255.7865 l -11.53754,0 1e-5,-23.07508 11.53753,0 v 11.53753 h 11.53755 v -11.53753 l 11.53751,0 10e-6,23.07508 -11.53752,0 0,11.53752 h 34.6126 V 255.7865 h -11.53756 l 10e-6,-23.07508 h 11.53756 l -1e-5,11.53753 11.53751,0 1e-5,-11.53753 h 11.53752 l 1e-5,23.07508 h -11.53754 v 11.53752 l 23.0751,0 v -11.53751 l 11.53751,-1e-5 v 11.53752 h 23.07506 V 255.7865 l -11.53754,0 v -11.53753 l 11.53754,0 v -11.53754 l -23.07505,0 v 11.53754 h -11.53752 v -34.61263 l 11.53752,0 v 11.53757 l 23.07507,-1e-5 -1e-5,-11.53756 H 348.218 l -1e-5,-11.53753 11.53754,0 -1e-5,-11.53751 h -23.07506 v 11.53751 l -11.53751,0 -10e-6,-11.53751 -23.07508,0 v 11.53751 l 11.53752,0 v 23.07509 l -11.53752,1e-5 v -11.53757 l -11.53753,0 0,11.53757 -11.53754,-1e-5 -1e-5,-23.07509 h 11.53755 V 186.5613 h -11.53755 v -23.0751 h 11.53755 v 11.53753 l 23.07505,0 0,-11.53752 -11.53752,-1e-5 v -11.53751 l 11.53752,1e-5 v -11.53755 l -23.07505,-1e-5 v 11.53755 h -11.53755 l 0,-23.0751 h 11.53755 v -11.53751 h -11.53755 l 1e-5,-23.075091 11.53754,7e-6 0,11.537534 h 11.53753 l 0,-11.537534 11.53752,-7e-6 v 23.075091 l -11.53752,0 v 11.53751 h 34.6126 v -11.53751 l -11.53752,0 10e-6,-23.075091 11.53751,7e-6 0,11.537534 11.53754,0 -1e-5,-11.537541 11.53754,0 -1e-5,23.075091 -11.53752,0 v 11.53751 h 11.53752 v 23.0751 l -11.53752,0 v -11.53755 l -23.07506,0 v 11.53755 l 11.53752,0 v 11.53752 h -11.53752 l 10e-6,11.53753 23.07504,0 1e-5,-11.53753 11.53752,0 1e-5,11.53753 h 11.53755 l -10e-6,-11.53753 h 11.53752 l 1e-5,11.53753 23.07509,0 -10e-6,-11.53753 h -11.53755 v -11.53752 h 11.53755 v -11.53755 h -23.07509 v 11.53755 h -11.53752 v -23.0751 l 11.53752,0 v -11.53751 h -11.53752 l 10e-6,-23.075091 11.53751,7e-6 v 11.537534 l 11.53754,0 -1e-5,-11.537541 11.53757,0 -10e-6,23.075091 h -11.53755 v 11.53751 l 34.61259,0 v -11.53751 h -11.5375 V 94.260996 l 11.5375,0 v 11.537534 h 11.53757 l -10e-6,-11.537541 11.53754,0 -10e-6,23.075091 h -11.53752 v 11.53751 h 11.53752 v 23.0751 h -11.53752 v -11.53755 h -23.07507 v 11.53755 l 11.5375,0 v 11.53752 l -11.5375,0 -10e-6,11.53753 h 23.07507 l 10e-6,-11.53753 h 11.53752 l 10e-6,23.0751 -11.53753,-1e-5 v 11.53754 l 11.53753,-1e-5 v 23.07507 l -11.53754,0 10e-6,-11.53756 -11.53757,0 v 11.53757 h -11.5375 v -23.07507 h 11.5375 l 0,-11.53754 -23.07503,1e-5 v 11.53752 h -11.53757 v -11.53752 l -23.07505,-1e-5 v 11.53754 h 11.53752 l 0,11.5375 -11.53752,0 10e-6,11.53756 23.07504,0 1e-5,-11.53756 h 11.53755 l 10e-6,34.61262 h -11.53757 v -11.53752 l -23.07505,-1e-5 v 11.53754 h 11.53752 v 11.53753 h -11.53752 v 11.53752 h 23.07506 V 255.7865 h 11.53755 v 11.53752 l 23.07504,0 V 255.7865 l -11.5375,0 -10e-6,-23.07508 11.53752,0 -10e-6,11.53753 h 11.53757 l -10e-6,-11.53753 h 11.53754 l -10e-6,23.07508 h -11.53752 v 11.53752 h 11.53752 l 0,23.07509 h -11.53752 l -10e-6,-11.53756 h -23.07507 l 10e-6,11.53756 h 11.5375 v 11.53751 h -11.5375 v 11.53753 l 23.07507,0 -10e-6,-11.53753 h 11.53754 v 23.07509 h -11.53754 v 11.53751 h 11.53754 l -10e-6,23.07509 -11.53752,0 -10e-6,-11.53756 -11.53756,0 v 11.53756 l -11.5375,0 0,-23.07508 h 11.5375 v -11.53751 l -34.6126,-1e-5 v 11.53751 l 11.53757,0 -10e-6,23.07509 h -11.53755 l -1e-5,-11.53756 -11.53753,0 v 11.53756 h -11.53752 v -23.07508 l 11.53752,0 1e-5,-11.53752 h -11.53752 v -23.07509 l 11.53751,0 v 11.53753 h 23.07509 l 10e-6,-11.53753 h -11.53757 v -11.5375 l 11.53757,0 v -11.53757 l -23.07509,0 -1e-5,11.53756 h -11.53752 l 10e-6,-11.53756 -23.07509,0 1e-5,11.53756 h 11.53752 v 23.07504 l -11.53752,0 -1e-5,-11.53753 -11.53753,0 v 11.53753 h -11.53752 l 0,-23.07504 h 11.53752 l 1e-5,-11.53756 -23.07509,0 v 11.53757 l -11.53752,-10e-6 v -11.53756 l -23.07507,0 -1e-5,11.53756 h 11.53755 v 11.53751 h -11.53755 l 0,11.53753 h 23.07508 v -11.53753 l 11.53752,0 v 34.6126 l -11.53752,1e-5 v -11.53751 l -23.07507,-1e-5 -1e-5,11.53752 h 11.53755 l 0,11.53752 h -11.53755 l 0,11.53756 23.07508,0 v -11.53756 l 11.53752,0 10e-6,11.53756 h 23.07507 v -11.53756 l -11.53751,0 0,-23.07504 h 11.53752 l -1e-5,11.53752 11.53753,-1e-5 v -11.53751 h 11.53754 v 23.07504 h -11.53754 l 1e-5,11.53756 h 11.53752 l 1e-5,11.53753 h -11.53754 v 11.53752 l 11.53754,0 -1e-5,23.07508 H 348.218 l -1e-5,-11.53753 h -11.53752 l -1e-5,11.53753 h -11.53752 l 10e-6,-23.07508 h 11.53752 l 0,-11.53752 h -23.07509 v 11.53752 l -11.53752,0 v -11.53751 l -23.07507,-1e-5 v 11.53752 l 11.53755,0 v 11.53755 h -11.53755 l -1e-5,11.53753 h 23.07508 v -11.53753 l 11.53752,0 0,34.61261 -11.53752,1e-5 v -11.53755 l -23.07507,-1e-5 v 11.53755 h 11.53755 l -1e-5,11.53753 h -11.53755 v 11.53754 l 23.07508,0 v -11.53754 l 11.53752,1e-5 0,11.53752 23.07508,1e-5 v -11.53754 h -11.53752 l 10e-6,-23.07508 11.53752,0 v 11.53755 h 11.53752 v -11.53755 l 11.53754,0 -1e-5,23.07508 H 348.218 l -1e-5,11.53753 h 23.07509 l -10e-6,-11.53753 h 11.53752 v 11.53754 l 23.0751,-1e-5 -10e-6,-11.53753 h -11.53755 l -1e-5,-11.53753 h 11.53757 V 417.31197 H 382.8306 v 11.53755 h -11.53752 l -10e-6,-23.07508 h 11.53752 v -11.53753 l -11.53751,0 v -23.07507 h 11.53752 v 11.53752 h 11.53752 v -11.53752 h 11.53757 v 23.07507 h -11.53757 l 1e-5,11.53753 34.61259,0 v -11.53753 h -11.5375 l -10e-6,-23.07507 h 11.53752 l -10e-6,11.53752 11.53756,0 v -11.53752 h 11.53754 v 23.07507 h -11.53754 l 10e-6,11.53753 h 11.53752 l 10e-6,23.07508 h -11.53754 v -11.53755 h -23.07507 v 11.53755 h 11.53752 l -10e-6,11.53753 -11.5375,0 v 11.53754 l 23.07506,-1e-5 10e-6,-11.53753 h 11.53752 l 10e-6,11.53753"
       style="display:inline;fill:none;stroke:#ff0000;stroke-width:2.16329;stroke-linecap:round;stroke-miterlimit:4;stroke-dasharray:none" />
  </g>
</svg>
