<?xml version="1.0" encoding="UTF-8" standalone="no"?>
<!DOCTYPE svg PUBLIC "-//W3C//DTD SVG 1.1//EN" "http://www.w3.org/Graphics/SVG/1.1/DTD/svg11.dtd">
<svg width="100%" height="100%" viewBox="0 0 6615 6615" version="1.1" xmlns="http://www.w3.org/2000/svg" xmlns:xlink="http://www.w3.org/1999/xlink" xml:space="preserve" xmlns:serif="http://www.serif.com/" style="fill-rule:evenodd;clip-rule:evenodd;stroke-linejoin:round;stroke-miterlimit:2;">
    <g id="path">
        <path d="M5313.51,5639.12C5268.73,5549.56 5064.64,5277.43 5041.73,5246.89C4610.41,4671.8 4596.66,4373.95 4309.77,4169.02C4126.55,4038.15 4173.32,3952.06 4001.78,3806.66C3665.44,3521.58 3371.5,3390.17 3316.48,3320.61C3028.99,2957.13 3378.62,2698.05 5217.77,1894.74C5259.79,1876.39 5795.84,1648.88 5810.81,1802.98C5844.84,2153.17 4336.97,2664.43 4257.46,2540.22C4211.93,2469.07 4858.69,2265.06 5486.23,2172.32C5505.11,2169.53 5640.45,2199.93 5389.29,2387.08C4964.46,2703.65 3933.32,2850.27 4185.9,2692.4C4522.2,2482.22 5382.91,2436.47 5085.59,2760.82C5073.33,2774.2 4778.74,2939.46 4627.19,2959.23C4583.47,2964.93 4213.56,2996.72 4087.11,2920.85C3759.35,2724.19 4916.99,2815.07 4743.5,3092.64C4678.97,3195.91 3962.9,3258.44 3902.9,3018.43C3867.78,2877.96 4594.92,3262.21 4410.49,3405.65C4293.52,3496.63 3966.76,3366.9 3868.61,3272.62C3827.06,3232.71 3818.21,3197.91 3868.32,3186.6C4035.02,3148.95 4478.6,3804.06 3982.53,3546.71C3852.43,3479.21 3634.09,3109.45 3845.72,3307.32C3965.3,3419.12 3978.36,3592.88 3894.84,3581.89C3740.47,3561.58 3653.17,3401.08 3652.71,3383.21C3649.48,3257.17 3825.76,3365.73 4196.72,3836.56C4481.44,4197.93 4369.91,4489.1 4557.07,4890.16C4670.89,5134.05 4850.16,5451.87 4900.68,5472.92C5002.39,5515.3 5047.5,5477.34 5002.39,5376.71C4983.47,5334.5 4816.91,4962.95 4722.01,4870.92C4481.67,4637.87 4205.1,4404.52 4127.39,4423.76C4049.68,4443.01 4114.07,4788.27 4227.9,4978.74C4347.52,5178.88 4457.94,5302.76 4596.69,5421.18C4691.76,5502.3 4727.19,5448.95 4727.5,5439.94C4735.65,5203.82 4342.76,4613.8 4202.27,4567.47C4102.05,4534.41 3827.73,4255.12 3828.36,4481.29C3828.87,4665.6 3883.77,4647.88 4139.55,5145.22C4171.07,5206.51 4337.51,5412.34 4356.07,5322.97C4437.28,4931.97 4021.35,4469.48 3787.7,4399.45C3651.65,4358.68 3488.21,4322.87 3338.62,4271.02C3338.62,4271.02 3297.59,4296.59 3281.6,4318.4C3131.94,4522.47 3568.75,4601.44 3562.59,4471.44C3559.8,4412.73 3412.85,4417.03 3412.85,4417.03C3481.4,4399.75 3662.96,4470.98 3491.67,4532.81C3427.65,4555.92 3163.66,4473.19 3300.84,4296.41C3350.81,4232.01 3189.49,4265 3023.87,4083.75C2903.39,3951.9 2691.2,3895.56 2498.99,3220.54C2405.11,2890.86 2230.26,2605.24 2001.4,2490.11C1638.27,2307.42 976.584,2369.22 757.823,2348.33C1137.27,2269.9 1080.38,2265.17 1541.85,2273.13C1748.95,2276.7 1790.13,2292.06 2425.43,2105.37C3066.93,1916.87 2949.65,2683.74 3366.39,2754.81C3391.83,2759.15 3493.93,2803.94 4144.95,2393.2C4188.37,2365.81 4577.23,2159 4619.62,2120.46C4851.62,1909.56 5185.82,1550.2 4827.35,1685.9C4773.56,1706.26 4559,1766.62 4182.12,2115.93C4126.73,2167.26 3997.53,2347.41 4148.15,2285.79C4217.99,2257.22 4234.2,2272 4907.97,1723.52C5128.61,1543.91 5287.04,1300.57 5104.04,1312.77C4892.95,1326.85 4070.86,2031.37 3894.89,2248.73C3517.09,2715.43 3507.45,2695.64 3163.58,2861.64C3018.63,2931.62 2768.4,3015.78 2850.07,3485.34C2883.31,3676.52 3141.77,3927.96 3147.49,3567.5C3148.67,3493.04 3137.64,3099.89 2845.85,2695.87C2635,2403.93 2162.96,2469.66 2318.42,2284.53C2386.07,2203.98 2618.73,2338.52 2387.73,2421.68C2294.92,2455.09 1747.03,2343.36 2003.53,2222.11C2895.83,1800.3 2922.68,2296.15 3119.65,2602.51C3181.36,2698.49 3283.03,2760.35 3436.62,2758.93C3637.05,2757.08 3930.8,2507.86 4199.65,2365.63C4120.73,2499.21 3954.68,2645.89 3810.65,2759.15C3780.53,2782.83 3402.21,3419.83 3743.56,3947.38C3928.22,4232.76 4086.86,4249.57 4511.1,4572.8C4520.34,4579.84 4611.97,4667.67 4657.05,4715.37C4719.06,4781 4751.57,4856.87 4883.2,4966.56C4918.59,4996.06 5259.44,5427.33 5414.16,5798.67" style="fill:none;"/>
    </g>
</svg>
