<?xml version="1.0" encoding="UTF-8" standalone="no"?>
<svg
   width="100%"
   height="100%"
   viewBox="0 0 6615 6615"
   version="1.1"
   xml:space="preserve"
   style="fill-rule:evenodd;clip-rule:evenodd;stroke-linecap:round;stroke-linejoin:round;stroke-miterlimit:1.5"
   id="svg9"
   sodipodi:docname="luna_logo.svg"
   inkscape:version="1.4.2 (f4327f4, 2025-05-13)"
   xmlns:inkscape="http://www.inkscape.org/namespaces/inkscape"
   xmlns:sodipodi="http://sodipodi.sourceforge.net/DTD/sodipodi-0.dtd"
   xmlns="http://www.w3.org/2000/svg"
   xmlns:svg="http://www.w3.org/2000/svg"
   xmlns:inkstitch="http://inkstitch.org/namespace"><sodipodi:namedview
   id="namedview9"
   pagecolor="#ffffff"
   bordercolor="#000000"
   borderopacity="0.25"
   inkscape:showpageshadow="2"
   inkscape:pageopacity="0.0"
   inkscape:pagecheckerboard="0"
   inkscape:deskcolor="#d1d1d1"
   inkscape:zoom="0.12532124"
   inkscape:cx="1811.345"
   inkscape:cy="2689.0892"
   inkscape:window-width="2400"
   inkscape:window-height="1262"
   inkscape:window-x="4792"
   inkscape:window-y="882"
   inkscape:window-maximized="1"
   inkscape:current-layer="svg9" /><metadata
   id="metadata9"><inkstitch:min_stitch_len_mm>0.1</inkstitch:min_stitch_len_mm><inkstitch:collapse_len_mm>3</inkstitch:collapse_len_mm><inkstitch:inkstitch_svg_version>3</inkstitch:inkstitch_svg_version></metadata><defs
   id="defs9">
  
  
  
  
  
  
  
  
    
  
    
  
    
  
    
    
  
    
    
    
  
    
  
    
  
    
    
  
        
    </defs>
    
    
<path
   d="m 287.57922,2316.0671 c 71.54642,50.4009 247.58831,311.2766 480.40178,-54.0128 65.81983,-103.2727 -157.27663,-53.8411 -121.8593,81.8655 63.30237,242.5545 363.1618,424.2784 402.9534,606.5998 18.7014,85.6892 16.0304,261.3622 -87.68667,255.8887 -37.75638,-1.9926 -83.02397,-55.2434 -78.48681,-118.8121 9.69752,-135.8973 235.13258,-212.3875 270.77508,-243.5758 164.5926,-144.0262 19.8983,-425.33 16.0135,-425.073"
   id="path5330-1-1-1-1-1-1-1-1-1-1-1"
   sodipodi:nodetypes="cssssssc"
   inkstitch:ties="3"
   inkstitch:bean_stitch_repeats="1"
   inkstitch:running_stitch_length_mm="2"
   style="clip-rule:evenodd;fill:none;fill-rule:evenodd;stroke:#000000;stroke-width:2.96418;stroke-linecap:round;stroke-linejoin:round;stroke-miterlimit:4;stroke-dasharray:5.92837, 5.92837;stroke-opacity:1"
   inkstitch:min_stitch_length_mm=".5"
   inkstitch:min_jump_stitch_length_mm="3" /><path
   d="m 1169.6904,2418.9481 c -7.8522,-79.0627 -28.3788,-133.9747 -51.8261,-203.3035 l 118.4527,225.786 c 60.2357,73.3628 115.427,174.7574 95.3318,-128.1143 -8.7476,-131.8518 -53.9989,-219.1546 -95.1381,-294.7244 45.0996,81.8916 91.4366,184.4511 137.3031,251.601 136.1616,164.3164 92.5591,-155.4766 70.9649,-255.0875"
   id="path2227-1-1-1-1-1-1-1-1-1-1-1-1-1-1-1"
   sodipodi:nodetypes="cccsccc"
   inkstitch:ties="3"
   inkstitch:bean_stitch_repeats="1"
   inkstitch:running_stitch_length_mm="2"
   style="clip-rule:evenodd;fill:none;fill-rule:evenodd;stroke:#000000;stroke-width:2.96418;stroke-linecap:round;stroke-linejoin:round;stroke-miterlimit:4;stroke-dasharray:5.92837, 5.92837;stroke-opacity:1"
   inkstitch:min_stitch_length_mm=".5"
   inkstitch:min_jump_stitch_length_mm="3" /><path
   d="m 1444.7786,2015.1052 -3.0022,-167.0813 c -5.2646,-117.6049 28.5635,-149.0122 87.7563,-41.3911 41.8158,76.0291 62.3432,181.5815 91.0755,275.484 l -53.7576,-195.133 c -22.3372,-441.1813 114.3707,-319.4044 146.6507,-158.4236 40.1517,200.2346 122.9823,188.7264 122.7477,58.8493 l 20.6115,-192.2426"
   id="path1192-1-1-1-1-1-1-1-1-1-1-1-1"
   sodipodi:nodetypes="ccsccscc"
   inkstitch:ties="3"
   inkstitch:bean_stitch_repeats="1"
   inkstitch:running_stitch_length_mm="2"
   style="clip-rule:evenodd;fill:none;fill-rule:evenodd;stroke:#000000;stroke-width:2.96418;stroke-linecap:round;stroke-linejoin:round;stroke-miterlimit:4;stroke-dasharray:5.92837, 5.92837;stroke-opacity:1"
   inkstitch:min_stitch_length_mm=".5"
   inkstitch:min_jump_stitch_length_mm="3" /><path
   d="m 1856.8603,1595.1664 c -13.1222,-196.8981 77.5751,-359.2208 145.6482,-327.7281"
   id="path3928-1-1-1-1-1-1-1-1"
   sodipodi:nodetypes="cc"
   inkstitch:ties="3"
   inkstitch:running_stitch_length_mm="2"
   style="clip-rule:evenodd;fill:none;fill-rule:evenodd;stroke:#000000;stroke-width:2.96418;stroke-linecap:round;stroke-linejoin:round;stroke-miterlimit:4;stroke-dasharray:5.92837, 5.92837;stroke-opacity:1"
   inkstitch:min_stitch_length_mm=".5"
   inkstitch:min_jump_stitch_length_mm="3" /><path
   d="m 2002.5085,1267.4383 c -75.5581,-32.8551 -164.8697,155.3628 -145.6482,327.7281 7.5526,81.3349 22.2577,93.4617 48.219,112.3828 76.9433,56.0774 144.2082,-43.7991 122.9773,-209.8179 l -25.5483,-230.2913 25.5483,230.2913 c 107.3775,295.2871 163.7159,-127.641 165.498,-188.6117"
   id="path3930-1-1-1-1-1-1-1-1"
   sodipodi:nodetypes="ccscccc"
   inkstitch:bean_stitch_repeats="1"
   inkstitch:ties="3"
   inkstitch:running_stitch_length_mm="2"
   style="clip-rule:evenodd;fill:none;fill-rule:evenodd;stroke:#000000;stroke-width:2.96418;stroke-linecap:round;stroke-linejoin:round;stroke-miterlimit:4;stroke-dasharray:5.92837, 5.92837;stroke-opacity:1"
   inkstitch:min_stitch_length_mm=".5"
   inkstitch:min_jump_stitch_length_mm="3" /><path
   d="m 2534.0776,1136.3681 19.6391,-586.75506 c 3.182,-114.37569 -273.1284,61.27773 -189.8895,125.66176"
   id="path9927-1-1-1-1-1-1"
   sodipodi:nodetypes="ccc"
   inkstitch:ties="3"
   inkstitch:running_stitch_length_mm="2"
   style="clip-rule:evenodd;fill:none;fill-rule:evenodd;stroke:#000000;stroke-width:2.96418;stroke-linecap:round;stroke-linejoin:round;stroke-miterlimit:4;stroke-dasharray:5.92837, 5.92837;stroke-opacity:1"
   inkstitch:min_stitch_length_mm=".5"
   inkstitch:min_jump_stitch_length_mm="3" /><path
   d="m 2363.8272,675.2748 c -83.2389,-64.38403 193.0715,-240.03745 189.8895,-125.66176 l -25.8161,781.44406 c 1.5106,-77.1983 3.7631,-146.6918 6.6686,-209.4078 19.3276,-417.22692 67.5417,-534.54616 118.3078,-625.36086 65.2361,-127.74799 127.6957,-139.03171 188.1923,-67.92101 90.831,235.90256 -52.1599,406.64678 -148.777,435.47139 252.4716,-181.5671 323.2666,6.11743 315.6329,66.55556 -38.7612,306.87122 -472.9531,422.57572 -416.9397,255.57992"
   id="path9915-1-1-1-1-1-1"
   sodipodi:nodetypes="cccscccsc"
   inkstitch:ties="3"
   inkstitch:bean_stitch_repeats="1"
   inkstitch:running_stitch_length_mm="2"
   style="clip-rule:evenodd;fill:none;fill-rule:evenodd;stroke:#000000;stroke-width:2.96418;stroke-linecap:round;stroke-linejoin:round;stroke-miterlimit:4;stroke-dasharray:5.92837, 5.92837;stroke-opacity:1"
   inkstitch:min_stitch_length_mm=".5"
   inkstitch:min_jump_stitch_length_mm="3" /><path
   d="m 2590.9855,1185.9743 c -56.0285,166.9753 367.4907,53.2156 416.0603,-243.17919"
   id="path9923-1-1-1-1-1-1"
   inkstitch:ties="3"
   sodipodi:nodetypes="cc"
   inkstitch:running_stitch_length_mm="2"
   style="clip-rule:evenodd;fill:none;fill-rule:evenodd;stroke:#000000;stroke-width:2.96418;stroke-linecap:round;stroke-linejoin:round;stroke-miterlimit:4;stroke-dasharray:5.92837, 5.92837;stroke-opacity:1"
   inkstitch:min_stitch_length_mm=".5"
   inkstitch:min_jump_stitch_length_mm="3" /><path
   d="m 3007.0464,942.79695 c 43.054,-63.07298 166.1779,-165.55418 192.0041,-233.80246 l -53.7976,255.15422 c -1.8183,99.89779 -24.539,216.04169 147.5827,-17.77538 74.9317,-101.78894 96.1292,-200.01767 113.0595,-286.58382 -17.973,94.21332 -47.788,204.27762 -56.1266,288.47372 -3.1743,224.72327 158.1896,-43.17192 204.0068,-131.7801"
   id="path2227-1-1-1-1-1-1-1-1-1-1-1-1-1-1-1-1"
   sodipodi:nodetypes="cccsccc"
   inkstitch:ties="3"
   inkstitch:bean_stitch_repeats="1"
   inkstitch:running_stitch_length_mm="2"
   style="clip-rule:evenodd;fill:none;fill-rule:evenodd;stroke:#000000;stroke-width:2.96418;stroke-linecap:round;stroke-linejoin:round;stroke-miterlimit:4;stroke-dasharray:5.92837, 5.92837;stroke-opacity:1"
   inkstitch:min_stitch_length_mm=".5"
   inkstitch:min_jump_stitch_length_mm="3" /><path
   d="m 3553.7747,816.48098 c 55.9815,-62.98845 102.9174,-130.5739 146.175,-213.51184 -3.8945,33.84459 -40.3826,82.93685 13.3818,89.80916 49.0144,-19.50732 56.2151,6.03427 33.0216,64.32172 -22.9103,59.85006 -57.415,127.66016 -85.5385,194.2648 -10.3946,76.08988 65.5126,52.03328 110.4303,-1.79006 l 117.4402,-140.72417"
   id="path3391-1-1-1-1"
   sodipodi:nodetypes="cccccsc"
   inkstitch:ties="3"
   inkstitch:bean_stitch_repeats="1"
   inkstitch:running_stitch_length_mm="2"
   style="clip-rule:evenodd;fill:none;fill-rule:evenodd;stroke:#000000;stroke-width:2.96418;stroke-linecap:round;stroke-linejoin:round;stroke-miterlimit:4;stroke-dasharray:5.92837, 5.92837;stroke-opacity:1"
   inkstitch:min_stitch_length_mm=".5"
   inkstitch:min_jump_stitch_length_mm="3" /><path
   d="M 3888.6853,808.85127 4000.2454,698.6547 c 76.4952,-80.27983 119.6166,-71.36532 84.6362,48.94317 -24.7128,84.99099 -83.1908,170.65709 -128.4712,255.88853 l 97.9258,-171.98885 c 285.2964,-303.38986 290.6244,-107.18561 202.0647,24.30423 -110.1542,163.55322 -42.0211,364.38622 314.3804,540.59062 14.6053,17.7559 242.2525,105.1511 224.5323,94.5438"
   id="path1192-1-1-1-1-1-1-1-1-1-1-1-1-1"
   sodipodi:nodetypes="ccsccscc"
   inkstitch:ties="3"
   inkstitch:bean_stitch_repeats="1"
   inkstitch:running_stitch_length_mm="2"
   style="clip-rule:evenodd;fill:none;fill-rule:evenodd;stroke:#000000;stroke-width:2.96418;stroke-linecap:round;stroke-linejoin:round;stroke-miterlimit:4;stroke-dasharray:5.92837, 5.92837;stroke-opacity:1"
   inkstitch:min_stitch_length_mm=".5"
   inkstitch:min_jump_stitch_length_mm="3" /><path
   d="m 4826.9004,1511.5778 c 0,0 -672.5704,-274.5192 -1112.4626,-222.5568 -1594.4318,-2.1643 -2244.7325,1396.4583 -2244.7325,1396.4583 0,0 522.7471,-604.7752 1313.1717,-609.1058 790.4374,-4.3435 1422.4379,578.2386 1422.4379,578.2386 0,0 -632.0005,-582.5693 -1422.4379,-578.2386 -790.4246,4.3435 -1301.8365,580.436 -1301.8365,580.436 0,0 750.9433,-1405.6021 2233.3973,-1367.7885 1334.1641,-16.3771 1945.5572,824.8839 2223.8665,1476.5643 71.0925,411.1077 647.2128,1533.9158 -689.5257,2771.4687 -1771.0513,1369.5818 -3158.5111,-75.7929 -3158.5111,-75.7929 0,0 1209.7019,387.8055 1765.9795,-96.0839 0,0 -0.2442,-183.9179 78.049,-265.9818 78.2932,-82.0512 344.3384,-304.3152 355.8922,-669.9663 12.4149,-392.4317 -438.4908,-610.121 -508.7387,-727.8839 -70.248,-117.75 -20.7557,-199.3128 -20.7557,-199.3128 0,0 -188.8573,-0.4626 -282.5983,-109.6286 -93.7411,-109.1658 -67.6777,-197.7836 -67.6777,-197.7836 0,0 -63.3979,-44.3989 -84.4106,-69.1748 -21.0255,-24.7631 -11.5281,-71.2566 -11.5281,-71.2566 0,0 -51.3944,0.167 -89.9883,-34.8766 -38.5812,-35.0435 -36.2806,-78.2216 -36.2806,-78.2216 0,0 -60.8405,26.1638 -85.8115,-1.0408 -24.9712,-27.2177 -14.9596,-72.696 -14.9596,-72.696 0,0 -328.8135,50.2459 -340.0716,-39.4384 -11.271,-89.6973 204.3309,-251.0109 458.9893,-242.0926 656.4831,22.9769 1141.2533,394.051 1141.2533,394.051 0,0 -138.9409,-125.7946 -142.2952,-325.2617 -3.3544,-199.4799 210.7053,100.3889 220.1,249.4174 0,0 50.0578,-230.2057 229.4947,-270.7623 179.424,-40.5564 -97.3268,315.7394 -129.996,338.999 0,0 599.2154,-439.2593 1044.402,-390.7483 445.1865,48.5239 576.1206,202.2171 561.8937,279.0509 -14.2398,76.8338 -315.1391,63.5847 -315.1391,63.5847 0,0 -10.5256,79.0312 -57.5504,115.09 -47.0119,36.0588 -112.5689,-7.916 -112.5689,-7.916 0,0 46.8834,82.8222 -13.7514,131.2305 -60.6478,48.4082 -114.831,4.1122 -114.831,4.1122 0,0 53.1808,208.3981 -115.7304,316.4589 -168.9113,108.0736 -265.4927,49.1407 -265.4927,49.1407 0,0 69.4255,96.0968 -48.4127,235.8086 -117.8253,139.7117 -543.2972,246.7959 -527.4253,687.9956 15.8848,441.187 265.6725,464.0739 342.7448,625.8887 77.0723,161.8149 -28.788,125.0877 16.0648,244.5085 44.8656,119.4206 140.0461,136.2549 105.9118,293.8932 -34.1216,157.6256 -178.3446,199.9812 -209.4588,323.5397 -31.1142,123.5457 24.5984,210.6599 24.5984,210.6599 0,0 -110.8854,-163.7423 -96.7613,-263.4244 14.1113,-99.6823 -96.3114,-159.3218 -89.3457,-261.8954 0,0 -67.3821,47.4573 -25.7165,166.5439 0,0 -110.1913,-68.5323 -98.2263,-151.997 11.965,-83.4518 186.7109,-81.6142 152.0754,-232.8786 -34.6357,-151.2644 -289.8597,-237.6463 -283.4209,-364.9957 6.426,-127.3367 159.3367,-178.9062 84.0123,-309.0699 0,0 4.4724,95.0045 -88.1762,132.7595 -92.6359,37.7552 -179.0258,31.2142 -126.8602,178.0966 52.1783,146.8695 160.1592,174.8197 73.6279,303.3385 -86.5311,128.5189 -149.9933,124.7537 -149.9933,124.7537 0,0 50.7903,-35.4163 73.9492,-180.7567 0,0 -26.8603,84.6856 -111.8107,141.331 -84.9376,56.6454 55.4684,163.4468 13.3145,264.8767 -42.154,101.4298 -141.7554,63.0836 -118.8921,238.2116 22.8762,175.1152 -78.1133,211.2254 -78.1133,211.2254 0,0 103.6756,-77.0908 -71.5845,-287.1596 -175.2601,-210.0688 -41.9997,-498.3464 -41.9997,-498.3464 0,0 -171.6717,213.2785 -840.9831,243.0931 -402.9955,17.9514 -966.65,-162.5254 -966.65,-162.5254 0,0 -1709.43095,140.7508 -1229.23971,670.0899"
   style="clip-rule:evenodd;fill:none;fill-opacity:1;fill-rule:evenodd;stroke:#000000;stroke-width:4.91659;stroke-linecap:round;stroke-linejoin:round;stroke-miterlimit:2;stroke-dasharray:none;stroke-opacity:1"
   id="path1"
   sodipodi:nodetypes="ccsccsccccccsccccsccccccccsccccccccccccccsccccccccccsccccccccscccccc" /></svg>
