<?xml version="1.0" encoding="UTF-8" standalone="no"?>
<svg
   width="100%"
   height="100%"
   viewBox="0 0 6615 6615"
   version="1.1"
   xml:space="preserve"
   style="fill-rule:evenodd;clip-rule:evenodd;stroke-linecap:round;stroke-linejoin:round;stroke-miterlimit:1.5"
   id="svg9"
   sodipodi:docname="luna_logo.svg"
   inkscape:version="1.4.2 (f4327f4, 2025-05-13)"
   xmlns:inkscape="http://www.inkscape.org/namespaces/inkscape"
   xmlns:sodipodi="http://sodipodi.sourceforge.net/DTD/sodipodi-0.dtd"
   xmlns="http://www.w3.org/2000/svg"
   xmlns:svg="http://www.w3.org/2000/svg"
   xmlns:inkstitch="http://inkstitch.org/namespace"><sodipodi:namedview
   id="namedview9"
   pagecolor="#ffffff"
   bordercolor="#000000"
   borderopacity="0.25"
   inkscape:showpageshadow="2"
   inkscape:pageopacity="0.0"
   inkscape:pagecheckerboard="0"
   inkscape:deskcolor="#d1d1d1"
   inkscape:zoom="0.177231"
   inkscape:cx="3041.2288"
   inkscape:cy="3176.6453"
   inkscape:window-width="1920"
   inkscape:window-height="1112"
   inkscape:window-x="-8"
   inkscape:window-y="-8"
   inkscape:window-maximized="1"
   inkscape:current-layer="svg9" /><metadata
   id="metadata9"><inkstitch:min_stitch_len_mm>0.1</inkstitch:min_stitch_len_mm><inkstitch:collapse_len_mm>3</inkstitch:collapse_len_mm><inkstitch:inkstitch_svg_version>3</inkstitch:inkstitch_svg_version></metadata><defs
   id="defs9">
  
  
  
  
  
  
  
  
    
  
    
  
    
  
    
    
  
    
    
    
  
    
  
    
  
    
    
  
        
    </defs>
    
    
<path
   d="m 287.4033,2086.6501 c 63.05403,44.4184 218.20017,274.3288 423.37924,-47.6016 58.00717,-91.0145 -138.60827,-47.4503 -107.3949,72.1482 55.78853,213.7639 320.05534,373.9176 355.12381,534.5979 16.4816,75.5181 14.12758,230.3391 -77.27848,225.5153 -33.27479,-1.7561 -73.16923,-48.6861 -69.17062,-104.7094 8.54645,-119.7666 207.22295,-187.1776 238.63475,-214.6639 145.0558,-126.9307 17.5364,-374.8444 14.1127,-374.6179"
   id="path5330-1-1-1-1-1-1-1-1-1-1-1"
   sodipodi:nodetypes="cssssssc"
   inkstitch:ties="3"
   inkstitch:bean_stitch_repeats="1"
   inkstitch:running_stitch_length_mm="2"
   style="fill-rule:evenodd;clip-rule:evenodd;stroke-linecap:round;stroke-linejoin:round;stroke-miterlimit:4;fill:none;stroke:#000000;stroke-width:2.61234;stroke-dasharray:5.22469, 5.22469;stroke-opacity:1"
   inkstitch:min_stitch_length_mm=".5"
   inkstitch:min_jump_stitch_length_mm="3" /><path
   d="m 1064.81,2177.3193 c -6.9202,-69.6781 -25.0103,-118.0722 -45.6745,-179.1718 l 104.3927,198.9857 c 53.0858,64.6548 101.7261,154.0141 84.0161,-112.9074 -7.7093,-116.2013 -47.5893,-193.1415 -83.8454,-259.7413 39.7464,72.1712 80.5833,162.5572 121.0055,221.7365 119.9996,144.8125 81.5726,-137.0219 62.5416,-224.8092"
   id="path2227-1-1-1-1-1-1-1-1-1-1-1-1-1-1-1"
   sodipodi:nodetypes="cccsccc"
   inkstitch:ties="3"
   inkstitch:bean_stitch_repeats="1"
   inkstitch:running_stitch_length_mm="2"
   style="fill-rule:evenodd;clip-rule:evenodd;stroke-linecap:round;stroke-linejoin:round;stroke-miterlimit:4;fill:none;stroke:#000000;stroke-width:2.61234;stroke-dasharray:5.22469, 5.22469;stroke-opacity:1"
   inkstitch:min_stitch_length_mm=".5"
   inkstitch:min_jump_stitch_length_mm="3" /><path
   d="M 1307.2459,1821.4116 1304.6,1674.1625 c -4.6397,-103.6455 25.1731,-131.3248 77.3399,-36.4781 36.8523,67.0046 54.9432,160.0282 80.265,242.7847 l -47.3767,-171.9712 c -19.6858,-388.8141 100.7952,-281.4918 129.2436,-139.6191 35.3858,176.4673 108.3846,166.3251 108.1779,51.8641 l 18.1649,-169.4239"
   id="path1192-1-1-1-1-1-1-1-1-1-1-1-1"
   sodipodi:nodetypes="ccsccscc"
   inkstitch:ties="3"
   inkstitch:bean_stitch_repeats="1"
   inkstitch:running_stitch_length_mm="2"
   style="fill-rule:evenodd;clip-rule:evenodd;stroke-linecap:round;stroke-linejoin:round;stroke-miterlimit:4;fill:none;stroke:#000000;stroke-width:2.61234;stroke-dasharray:5.22469, 5.22469;stroke-opacity:1"
   inkstitch:min_stitch_length_mm=".5"
   inkstitch:min_jump_stitch_length_mm="3" /><path
   d="m 1670.4145,1451.3186 c -11.5647,-173.5268 68.3671,-316.5822 128.3601,-288.8276"
   id="path3928-1-1-1-1-1-1-1-1"
   sodipodi:nodetypes="cc"
   inkstitch:ties="3"
   inkstitch:running_stitch_length_mm="2"
   style="fill-rule:evenodd;clip-rule:evenodd;stroke-linecap:round;stroke-linejoin:round;stroke-miterlimit:4;fill:none;stroke:#000000;stroke-width:2.61234;stroke-dasharray:5.22469, 5.22469;stroke-opacity:1"
   inkstitch:min_stitch_length_mm=".5"
   inkstitch:min_jump_stitch_length_mm="3" /><path
   d="m 1798.7746,1162.491 c -66.5896,-28.9553 -145.3001,136.9216 -128.3601,288.8276 6.6561,71.6806 19.6157,82.368 42.4955,99.0432 67.8103,49.4211 127.091,-38.6003 108.3802,-184.913 l -22.5158,-202.9563 22.5158,202.9563 c 94.632,260.2372 144.2832,-112.4903 145.8538,-166.224"
   id="path3930-1-1-1-1-1-1-1-1"
   sodipodi:nodetypes="ccscccc"
   inkstitch:bean_stitch_repeats="1"
   inkstitch:ties="3"
   inkstitch:running_stitch_length_mm="2"
   style="fill-rule:evenodd;clip-rule:evenodd;stroke-linecap:round;stroke-linejoin:round;stroke-miterlimit:4;fill:none;stroke:#000000;stroke-width:2.61234;stroke-dasharray:5.22469, 5.22469;stroke-opacity:1"
   inkstitch:min_stitch_length_mm=".5"
   inkstitch:min_jump_stitch_length_mm="3" /><path
   d="m 2267.2477,1046.9785 17.308,-517.10861 C 2287.36,429.07032 2043.847,583.8741 2117.2056,640.6159"
   id="path9927-1-1-1-1-1-1"
   sodipodi:nodetypes="ccc"
   inkstitch:ties="3"
   inkstitch:running_stitch_length_mm="2"
   style="fill-rule:evenodd;clip-rule:evenodd;stroke-linecap:round;stroke-linejoin:round;stroke-miterlimit:4;fill:none;stroke:#000000;stroke-width:2.61234;stroke-dasharray:5.22469, 5.22469;stroke-opacity:1"
   inkstitch:min_stitch_length_mm=".5"
   inkstitch:min_jump_stitch_length_mm="3" /><path
   d="M 2117.2056,640.6159 C 2043.847,583.8741 2287.36,429.07032 2284.5557,529.86989 l -22.7518,688.68851 c 1.3313,-68.035 3.3164,-129.2798 5.877,-184.5516 17.0335,-367.70307 59.5247,-471.0968 104.265,-551.13201 57.4927,-112.58461 112.5385,-122.52898 165.8543,-59.85895 80.0496,207.90149 -45.9686,358.37878 -131.1175,383.78198 222.5038,-160.01552 284.8956,5.3913 278.168,58.65557 -34.1603,270.44631 -416.8147,372.41701 -367.4499,225.24321"
   id="path9915-1-1-1-1-1-1"
   sodipodi:nodetypes="cccscccsc"
   inkstitch:ties="3"
   inkstitch:bean_stitch_repeats="1"
   inkstitch:running_stitch_length_mm="2"
   style="fill-rule:evenodd;clip-rule:evenodd;stroke-linecap:round;stroke-linejoin:round;stroke-miterlimit:4;fill:none;stroke:#000000;stroke-width:2.61234;stroke-dasharray:5.22469, 5.22469;stroke-opacity:1"
   inkstitch:min_stitch_length_mm=".5"
   inkstitch:min_jump_stitch_length_mm="3" /><path
   d="m 2317.4008,1090.6966 c -49.3781,147.1557 323.8704,46.899 366.6749,-214.31441"
   id="path9923-1-1-1-1-1-1"
   inkstitch:ties="3"
   sodipodi:nodetypes="cc"
   inkstitch:running_stitch_length_mm="2"
   style="fill-rule:evenodd;clip-rule:evenodd;stroke-linecap:round;stroke-linejoin:round;stroke-miterlimit:4;fill:none;stroke:#000000;stroke-width:2.61234;stroke-dasharray:5.22469, 5.22469;stroke-opacity:1"
   inkstitch:min_stitch_length_mm=".5"
   inkstitch:min_jump_stitch_length_mm="3" /><path
   d="m 2684.0762,876.38381 c 37.9436,-55.58637 146.453,-145.9033 169.2137,-206.05067 l -47.412,224.86802 c -1.6024,88.04014 -21.6262,190.39804 130.065,-15.66548 66.0375,-89.70684 84.7189,-176.27605 99.6396,-252.56701 -15.8396,83.03043 -42.1156,180.03036 -49.4645,254.23258 -2.7975,198.04915 139.4129,-38.04751 179.7917,-116.13811"
   id="path2227-1-1-1-1-1-1-1-1-1-1-1-1-1-1-1-1"
   sodipodi:nodetypes="cccsccc"
   inkstitch:ties="3"
   inkstitch:bean_stitch_repeats="1"
   inkstitch:running_stitch_length_mm="2"
   style="fill-rule:evenodd;clip-rule:evenodd;stroke-linecap:round;stroke-linejoin:round;stroke-miterlimit:4;fill:none;stroke:#000000;stroke-width:2.61234;stroke-dasharray:5.22469, 5.22469;stroke-opacity:1"
   inkstitch:min_stitch_length_mm=".5"
   inkstitch:min_jump_stitch_length_mm="3" /><path
   d="m 3165.9092,765.06124 c 49.3366,-55.51187 90.7013,-115.07509 128.8244,-188.16849 -3.4323,29.82731 -35.5893,73.09244 11.7934,79.14902 43.1965,-17.19184 49.5425,5.31802 29.102,56.68689 -20.1909,52.746 -50.6,112.5072 -75.3853,171.20603 -9.1608,67.05818 57.7364,45.85702 97.3225,-1.57758 l 103.5003,-124.02055"
   id="path3391-1-1-1-1"
   sodipodi:nodetypes="cccccsc"
   inkstitch:ties="3"
   inkstitch:bean_stitch_repeats="1"
   inkstitch:running_stitch_length_mm="2"
   style="fill-rule:evenodd;clip-rule:evenodd;stroke-linecap:round;stroke-linejoin:round;stroke-miterlimit:4;fill:none;stroke:#000000;stroke-width:2.61234;stroke-dasharray:5.22469, 5.22469;stroke-opacity:1"
   inkstitch:min_stitch_length_mm=".5"
   inkstitch:min_jump_stitch_length_mm="3" /><path
   d="m 3461.0667,758.33716 98.3182,-97.1165 c 67.4154,-70.75081 105.4184,-62.89443 74.5901,43.13373 -21.7795,74.90276 -73.3163,150.4005 -113.222,225.51517 l 86.3022,-151.57418 c 251.4324,-267.37821 256.128,-94.46293 178.0801,21.41938 -97.0791,144.13984 -37.0333,321.13444 277.0642,476.42384 12.8717,15.6483 213.4977,92.6699 197.8809,83.3216"
   id="path1192-1-1-1-1-1-1-1-1-1-1-1-1-1"
   sodipodi:nodetypes="ccsccscc"
   inkstitch:ties="3"
   inkstitch:bean_stitch_repeats="1"
   inkstitch:running_stitch_length_mm="2"
   style="clip-rule:evenodd;fill:none;fill-rule:evenodd;stroke:#000000;stroke-width:2.61234;stroke-linecap:round;stroke-linejoin:round;stroke-miterlimit:4;stroke-dasharray:5.22469, 5.22469;stroke-opacity:1"
   inkstitch:min_stitch_length_mm=".5"
   inkstitch:min_jump_stitch_length_mm="3" /><path
   d="m 4287.9179,1377.6517 c 0,0 -592.7379,-241.9344 -980.4159,-196.1398 -1405.1766,-1.9074 -1978.2882,1230.702 -1978.2882,1230.702 0,0 460.6983,-532.9898 1157.3014,-536.8064 696.6144,-3.8279 1253.5979,509.6031 1253.5979,509.6031 0,0 -556.9835,-513.4197 -1253.5979,-509.6031 -696.6031,3.828 -1147.3116,511.5397 -1147.3116,511.5397 0,0 661.8081,-1238.7605 1968.2984,-1205.4353 1175.802,-14.4332 1714.6242,726.9721 1959.8988,1301.2996 62.654,362.3102 570.3902,1351.8437 -607.6806,2442.502 -1560.8318,1207.0157 -2783.6034,-66.7964 -2783.6034,-66.7964 0,0 1066.1132,341.7739 1556.3619,-84.679 0,0 -0.2152,-162.0873 68.7848,-234.4104 69,-72.3119 303.4663,-268.1937 313.6487,-590.4429 10.9412,-345.851 -386.443,-537.7011 -448.3527,-641.4858 -61.9097,-103.7734 -18.292,-175.6549 -18.292,-175.6549 0,0 -166.4404,-0.4077 -249.0546,-96.6159 -82.6142,-96.2081 -59.6445,-174.3072 -59.6445,-174.3072 0,0 -55.8727,-39.1288 -74.3913,-60.9639 -18.5298,-21.8238 -10.1597,-62.7986 -10.1597,-62.7986 0,0 -45.294,0.1472 -79.3069,-30.7368 -34.0017,-30.884 -31.9742,-68.9369 -31.9742,-68.9369 0,0 -53.6189,23.0582 -75.6259,-0.9173 -22.0071,-23.987 -13.1839,-64.0671 -13.1839,-64.0671 0,0 -289.7841,44.2818 -299.7059,-34.7572 -9.9332,-79.0504 180.0773,-221.2165 404.5084,-213.3568 578.5601,20.2496 1005.7892,347.2781 1005.7892,347.2781 0,0 -122.4489,-110.8631 -125.4051,-286.6539 -2.9562,-175.8021 185.6951,88.473 193.9747,219.8121 0,0 44.116,-202.8808 202.2542,-238.6234 158.1268,-35.7425 -85.7743,278.2619 -114.5658,298.7606 0,0 528.09,-387.1203 920.434,-344.3674 392.3439,42.7642 507.7365,178.2144 495.1983,245.9282 -12.5496,67.7138 -277.7329,56.0374 -277.7329,56.0374 0,0 -9.2762,69.6504 -50.7193,101.4291 -41.4317,31.7787 -99.2072,-6.9764 -99.2072,-6.9764 0,0 41.3184,72.9914 -12.1192,115.6537 -53.449,42.6623 -101.2008,3.6241 -101.2008,3.6241 0,0 46.8684,183.6618 -101.9935,278.896 -148.8619,95.2455 -233.9793,43.3078 -233.9793,43.3078 0,0 61.1848,84.6904 -42.6663,207.8187 -103.8397,123.1283 -478.8091,217.5018 -464.8211,606.3322 13.9993,388.8191 234.1378,408.9894 302.0618,551.5972 67.924,142.6078 -25.371,110.2401 14.1579,215.4859 39.5402,105.2457 123.423,120.0818 93.3403,259.0088 -30.0714,138.9158 -157.1755,176.2439 -184.5965,285.1363 -27.421,108.8811 21.6786,185.6551 21.6786,185.6551 0,0 -97.7235,-144.3065 -85.2759,-232.1566 12.4363,-87.8502 -84.8795,-140.4107 -78.7406,-230.809 0,0 -59.384,41.8242 -22.664,146.7755 0,0 -97.1119,-60.3977 -86.5671,-133.9553 10.5448,-73.5463 164.5488,-71.9268 134.0244,-205.2365 -30.5245,-133.3097 -255.454,-209.4382 -249.7795,-321.6716 5.6632,-112.2221 140.4238,-157.6704 74.0402,-272.384 0,0 3.9416,83.7277 -77.7099,117.0013 -81.6402,33.2737 -157.7758,27.5091 -111.8022,156.9569 45.9849,129.4365 141.1487,154.069 64.8885,267.333 -76.2601,113.264 -132.1895,109.9457 -132.1895,109.9457 0,0 44.7616,-31.2125 65.1716,-159.3013 0,0 -23.672,74.6336 -98.539,124.5553 -74.8557,49.9218 48.8844,144.0461 11.7341,233.4365 -37.1504,89.3903 -124.9294,55.5957 -104.7799,209.9365 20.1609,154.3294 -68.8414,186.1534 -68.8414,186.1534 0,0 91.3695,-67.9403 -63.0876,-253.0744 -154.4572,-185.1342 -37.0145,-439.1939 -37.0145,-439.1939 0,0 -151.2946,187.9628 -741.1604,214.2385 -355.1609,15.8206 -851.9109,-143.234 -851.9109,-143.234 0,0 -1506.52561,124.044 -1083.33192,590.5518"
   style="clip-rule:evenodd;fill:none;fill-opacity:1;fill-rule:evenodd;stroke:#000000;stroke-width:4.333;stroke-linecap:round;stroke-linejoin:round;stroke-miterlimit:2;stroke-dasharray:none;stroke-opacity:1"
   id="path1"
   sodipodi:nodetypes="ccsccsccccccsccccsccccccccsccccccccccccccsccccccccccsccccccccscccccc" /></svg>
