<?xml version="1.0" encoding="UTF-8" standalone="no"?>
<!DOCTYPE svg PUBLIC "-//W3C//DTD SVG 1.1//EN" "http://www.w3.org/Graphics/SVG/1.1/DTD/svg11.dtd">
<svg width="100%" height="100%" viewBox="0 0 6615 6615" version="1.1" xmlns="http://www.w3.org/2000/svg" xmlns:xlink="http://www.w3.org/1999/xlink" xml:space="preserve" xmlns:serif="http://www.serif.com/" style="fill-rule:evenodd;clip-rule:evenodd;stroke-linejoin:round;stroke-miterlimit:2;">
    <g id="path">
        <path d="M1020.1,954.919C1020.1,954.919 1214.18,1060.84 1283.3,1199.56C1352.42,1338.28 1465.36,1536.87 1339.46,1480.53C1202,1419.01 1516.41,1319.01 1556.95,1424.58C1628.12,1609.87 1442.56,1714.2 1269.81,1637.38C1097.06,1560.56 1151.43,1307.16 1296.94,1235.46C1442.45,1163.75 1750.75,1197.15 1751.19,1381.21C1751.77,1632.07 1606.42,1876.68 1399.44,1829.32C1184.96,1780.24 951.467,1630.23 985.861,1415.87C1020.26,1201.5 1181.91,1118.69 1330.63,1031.62C1483.35,942.217 1849.27,932.369 1902.15,879.444C1965.82,815.711 1795.04,759.208 1736.86,840.673C1678.68,922.138 1745.38,1013.53 1818.38,1040.86C1909.56,1075 2051.11,1019.18 2056.89,906.478C2066.42,720.616 1933.38,635.848 1787.97,664.401C1640.88,693.286 1494.28,859.541 1610.39,1039.14C1768.12,1283.1 1939.88,1090.28 2085.46,1190.73C2236.68,1295.09 2538.04,1944.33 2406.51,1919.47C2095.41,1860.66 2571.11,1628.66 2539.32,1892.24C2521.39,2040.87 2329.2,2129.49 2209.86,1933.11C2082.07,1722.82 2286.89,1520.44 2426.69,1534.34C2566.48,1548.23 2793.57,1644.74 2737.74,1898.18C2681.91,2151.62 2439.77,2267.63 2323.81,2247.2C2207.85,2226.76 1929.9,2062.3 1980.77,1780.39C2031.63,1498.47 2424.7,1205.65 2740.44,1456.67C3050.84,1703.45 3002.87,2066.75 2736.13,2311.93C2502.31,2526.86 2064.97,2434.88 1932.41,2212.61C1799.84,1990.34 1700.98,1670.71 2085.5,1319.25C2470.03,967.783 3005.8,1336.91 3086.27,1570.19C3166.74,1803.48 3202.57,2125.23 2724.78,2501.32C2581.38,2614.19 2763.17,2802.16 2695.91,2931.07C2628.64,3059.99 2455.58,3020.78 2466.26,2902.11C2485.01,2693.83 2704.98,2678.87 2830.16,2830.2C2955.34,2981.52 2788.91,3197.56 2621.04,3199.69C2453.17,3201.81 2205.05,3038.59 2266.14,2855.21C2327.24,2671.84 2593.17,2485.59 2797.68,2589.07C3002.2,2692.55 3122.35,2981.36 2992.33,3169.39C2862.3,3357.43 2541.85,3416.87 2371.31,3339.51C2242.56,3281.11 2077.98,3369.79 1987.92,3413.66C1927.81,3442.95 1916.79,3621.28 1812.39,3546.45C1666.66,3442 1965.75,3269.91 2060.08,3509.27C2137.89,3706.72 1923.25,3802.86 1767.25,3744.86C1572.14,3672.32 1500.26,3297.13 1788.47,3225.94C2076.67,3154.75 2251.31,3373.97 2247.26,3565.78C2243.2,3757.6 1998.58,4058.29 1687.59,3890.56C1310.32,3687.08 1418,3253.51 1584.65,3132.96C1736.09,3023.41 1828.38,2630.51 1918.62,2678.28C1998.63,2720.62 1870.58,2914.41 1769.97,2820.36C1645.71,2704.2 1758.68,2465.31 1942.23,2515.49C2125.77,2565.67 2149.54,2815.91 2045.36,2903.77C1680.29,3211.64 1002.54,2397.24 906.264,2467.3C835.236,2518.99 966.897,2752.1 1075.88,2621.85C1184.86,2491.6 1146.49,2311.47 947.651,2281.44C748.813,2251.4 577.912,2577.53 783.046,2740.92C975.824,2894.46 1220.19,2863.88 1312.69,2689.92C1434.23,2461.36 1315.81,2078.54 942.912,2068.91C691.865,2062.43 413.681,2348.1 542.006,2651.04C648.397,2902.2 950.413,3054.8 1211.69,3009.94C1519.83,2957.03 1627.31,2494.29 1529.61,2277.15C1406.32,2003.17 888.121,1725.92 562.385,1974.74C236.649,2223.55 250.724,2688.12 495.607,2942.23C750.47,3206.69 354.991,3446.03 268.982,3411.73C157.818,3367.4 264.392,3192.14 369.151,3265.82C454.13,3325.6 488.168,3445.07 374.116,3525.71C260.063,3606.36 49.306,3530.93 57.688,3355.95C66.668,3168.49 217.893,3068.49 359.202,3104.67C534.69,3149.61 546.727,3334.34 644.933,3442.17C748.666,3556.07 945.088,3707.78 981.599,3788.06C1009.47,3849.33 976.226,4039.84 836.587,3939.24C653.024,3806.99 884.706,3615.95 1014.46,3637.08C1144.21,3658.21 1296.74,3871.22 1155.38,4030.48C1014.01,4189.74 768.683,4240.23 636.839,4047.03C520.896,3877.12 603.599,3728.15 678.617,3612.88C730.013,3533.9 815.61,3491.1 908.138,3481.03C1011.56,3469.78 1123.63,3499.4 1206.3,3565.08C1387.66,3709.18 1349.96,3925.56 1341.67,4106.49C1331.55,4327.32 1312.86,5135.82 1145.59,4890.03C1101.44,4825.16 1361.5,4679.88 1382.94,4848.57C1404.38,5017.26 1289.6,5147.04 1123.48,5063.34C957.363,4979.63 981.577,4613.07 1215.78,4588.59C1435.87,4565.58 1608,4724.96 1596.11,4921.22C1580.49,5179.08 1308.4,5434.72 1019.02,5238.65C824.203,5106.65 747.276,4715.23 989.029,4531.88C1189.46,4379.87 1492.54,4417.45 1670.81,4598.03C1881.06,4811 1743.59,5257.22 1565.94,5385.5C1341.77,5547.36 814.432,5495.78 683.701,5109.18C552.97,4722.57 784.149,4341.38 1091.76,4262.72C1411.9,4180.85 1889.11,4373.18 1975.11,4820.91C2068.84,5308.92 2109.46,5984.2 1928.02,5813.89C1797.2,5691.09 2155.61,5565.18 2175.71,5776.71C2195.82,5988.24 2038.89,6070.3 1882.88,6012.3C1687.77,5939.76 1615.89,5564.57 1904.1,5493.38C2192.3,5422.19 2366.94,5641.4 2362.89,5833.22C2358.83,6025.04 2114.21,6325.73 1803.23,6158C1425.95,5954.52 1507.7,5548.61 1700.28,5400.4C1892.87,5252.18 2148.69,5337.95 2368.61,5417.25C2478.07,5456.71 2592.7,5492.35 2672.63,5397.73C2785.86,5263.7 2810.9,4983.27 2715.43,5054.66C2588.7,5149.42 2933.13,5265.63 2917.45,5078.97C2898.85,4857.55 2682.81,4863.56 2598.02,4960.55C2513.24,5057.53 2529.04,5314.39 2733.27,5347.11C2937.5,5379.82 3153.31,5265.11 3134.08,5036.19C3117.17,4834.88 2963.44,4773.38 2836.19,4732.66C2651.56,4673.6 2450.95,4833.38 2409.31,5025.56C2361.1,5248.09 2472.53,5493.62 2687.24,5508.47C2901.95,5523.33 3072.74,5976.57 3038.92,6041.56C2972.9,6168.41 2836.98,6127.53 2843.32,6002.98C2849.65,5878.44 2995.18,5802.7 3096.77,5880.72C3198.36,5958.73 3226.8,6078.52 3164.2,6186.2C3099.15,6298.1 2973.6,6346.12 2855.28,6286.57C2758.22,6237.73 2598.76,6033.75 2761.2,5812.26C2855.75,5683.34 3019,5687.17 3151.74,5756.8C3310.78,5840.23 3441.44,6011.67 3355.94,6220.1C3270.43,6428.52 3001.89,6548.93 2800.28,6448.26C2566.04,6331.28 2504,6044.09 2561.18,5890.23C2618.37,5736.37 2879.18,5395.14 3228.21,5631.3C3589.96,5876.08 4045.27,6354.69 3928.51,6385.88C3760.77,6430.7 3846.3,6112.15 3975.16,6160.02C4134.32,6219.15 4121.15,6483.22 3932.42,6507.89C3743.68,6532.56 3604.11,6332.64 3688.89,6189.54C3773.66,6046.44 3706.77,5615.47 3711.27,5477.61C3715.76,5339.76 3888.22,5316.1 3928.76,5421.66C3999.93,5606.95 3814.37,5711.28 3641.62,5634.46C3468.87,5557.64 3523.24,5304.25 3668.75,5232.54C3814.26,5160.84 4099.23,5196.6 4123,5378.3C4146.76,5560 3993.09,5829.43 3771.25,5826.41C3549.41,5823.39 3323.28,5627.32 3357.67,5412.95C3392.07,5198.59 3764.34,4697.75 3828.26,4779.47C3908,4881.41 3764.08,5022.25 3680.61,4862.41C3597.14,4702.58 3755.98,4629.77 3840.17,4640.77C3976.6,4658.59 4096.97,4903.91 3923.5,5027.84C3750.03,5151.77 3592.21,5044.72 3558.61,4982.56C3525.01,4920.4 3437.6,4276.37 3394.79,4377.57C3330.37,4529.88 3098.67,4403.01 3227.84,4270.65C3381.06,4113.64 3539.47,4252.34 3542.13,4378.81C3544.78,4505.28 3371.38,4691.01 3197.48,4589.12C3023.57,4487.23 2933.7,4265.91 3092.11,4103.58C3231.41,3960.83 3385.5,4009.45 3506.64,4057.47C3682.41,4127.13 3732.52,4373.32 3642.91,4545.47C3539.15,4744.81 3301.09,4862.53 3130.55,4740.54C2960.01,4618.54 2354.83,4441.6 2359.32,4303.74C2363.82,4165.88 2536.27,4142.22 2576.82,4247.78C2647.98,4433.07 2462.42,4537.41 2289.67,4460.59C2116.92,4383.76 2171.29,4130.37 2316.8,4058.67C2462.31,3986.96 2747.28,4022.73 2771.05,4204.42C2794.82,4386.12 2641.14,4655.55 2419.3,4652.53C2197.47,4649.51 1971.33,4453.44 2005.72,4239.07C2040.12,4024.71 2278.49,3836.09 2515.7,3875.76C2752.91,3915.43 3020.23,3708.68 3054.74,3659.98C3089.24,3611.28 3144.89,3543.63 3203.14,3612.02C3261.38,3680.41 3206.28,3767.68 3141.39,3798.01C3060.33,3835.9 2927.62,3797.16 2915.22,3696.58C2894.78,3530.7 3010.85,3444.07 3145.36,3458.06C3281.42,3472.21 3425.72,3609.56 3331.09,3779.86C3202.56,4011.18 3020.09,3955.89 2928.52,3909.58C2781.35,3835.14 2701.07,3637.85 2856.41,3457.69C3011.74,3277.52 3277.47,3278.23 3419.49,3425.94C3538.68,3549.91 4207.87,3952.73 4203.23,3793.61C4197.7,3603.61 4372.81,3594.76 4389.4,3747.35C4406,3899.93 4316.42,4048.92 4098.52,3947.98C3865.2,3839.89 3930.16,3551.01 4061.59,3484.09C4193.01,3417.16 4448.86,3371.78 4544.73,3620.39C4640.6,3868.99 4493.21,4104.91 4379.09,4152.8C4264.96,4200.69 3925.27,4216.53 3808.7,3946.34C3692.14,3676.14 3871.55,3203.62 4294.21,3240.62C4709.71,3276.99 4875.46,3615.28 4780.33,3975.74C4696.93,4291.72 4257.99,4459.54 4013.59,4343.88C3769.18,4228.22 3498.77,4010.15 3637.04,3492.22C3775.32,2974.29 4497.11,2949.73 4664.66,3142.86C4822.22,3324.47 5183.37,3693.28 4880.92,4204.35C4560.76,4745.36 4498.15,5003.81 4437.4,4877.46C4355.25,4706.57 4647.05,4710.85 4648.51,4830.68C4650.99,5035.93 4482.48,5098.61 4373.79,5002.06C4224.88,4869.79 4253.25,4598.5 4484.23,4590.05C4715.21,4581.59 4797.02,4736.67 4776.84,4932.18C4749.91,5193.09 4329.25,5328.48 4187.61,5053.44C4027.94,4743.41 4194.67,4463.19 4401.61,4435.82C4593.13,4410.48 5025.97,4443.34 4872.89,5099.91C4872.89,5099.91 4804.61,5860.87 4719.62,5809.08C4589.11,5729.55 4794.4,5583.18 4888.3,5676.57C4982.2,5769.96 4939.19,5942.53 4805.79,5970.28C4672.39,5998.03 4557.67,5936.42 4516.85,5809.01C4474.43,5676.59 4525.2,5539.98 4655.84,5485.48C4763,5440.76 5036.79,5454.94 5096.96,5744.55C5131.99,5913.13 5013.61,6043.82 4864.83,6102.97C4686.56,6173.84 4458.82,6159.17 4354.6,5941.67C4250.38,5724.18 4345.02,5419.45 4566.99,5326.01C4824.89,5217.45 5611.9,5085.36 5505.85,5238.71C5440.06,5333.83 5335.05,5114.39 5474.27,5052.81C5531.14,5027.65 5601.29,5048.1 5629,5129.03C5659.01,5216.67 5650.27,5331.05 5550.09,5364.17C5449.9,5397.3 5338.6,5381.83 5282.93,5250.63C5227.27,5119.44 5268.03,5005.95 5393.87,4933.11C5520.33,4859.91 5701.28,4946.33 5749.37,5066.57C5797.47,5186.82 5812.82,5292.36 5714.16,5404.5C5615.8,5516.28 5430.03,5546.31 5304.2,5485.15C5146.48,5408.48 5065.43,5255.94 5086.53,5119.85C5105.99,4994.41 5189.56,4428.85 5244.89,4455.72C5294.08,4479.62 5311.1,4592.89 5220.22,4617.04C5129.34,4641.19 5073.83,4550.11 5075.9,4475.36C5078.49,4381.99 5176.55,4274.38 5275.99,4307.87C5439.97,4363.1 5466.39,4511.33 5390.54,4631.74C5313.81,4753.56 5118.53,4827.8 5004.19,4662.2C4848.87,4437.26 4985.58,4290.22 5071.48,4224.76C5209.52,4119.56 5430.7,4132.52 5525.86,4359.74C5621.03,4586.96 5778.55,4438.03 5809.28,4576.48C5840.02,4714.92 6057.16,4627.54 6008.88,4508.04C5969.72,4411.11 5857.25,4350.74 5746.82,4444.54C5636.39,4538.34 5659.74,4762.31 5839.13,4793.55C6031.32,4827.02 6165.43,4700.92 6169.65,4554.17C6173.87,4407.41 6064.8,4312.19 5923.98,4294.13C5783.17,4276.07 5960.76,3353.83 5911.34,3498.86C5852.33,3672.02 5645.64,3606.75 5682.24,3463.6C5718.84,3320.45 5848.49,3216.2 6007.96,3380.39C6178.72,3556.21 6023.87,3794.85 5884.68,3811.06C5745.5,3827.26 5503.11,3782.25 5501.64,3525.91C5500.17,3269.56 5710.38,3106.35 5827.8,3101.5C5945.22,3096.65 6252.11,3196.44 6264.68,3479.21C6277.26,3761.97 5959.03,4127.75 5596.28,3952.45C5239.66,3780.11 5206.33,3419.44 5412.05,3126.39C5592.38,2869.5 6038.49,2865.6 6216.55,3051.96C6394.6,3238.32 6561.28,3525.76 6264.29,3946.3C5967.3,4366.84 5364.28,4124.21 5234.52,3916.18C5104.77,3708.15 4921.5,3252.09 5399.65,2886.49C5877.81,2520.89 5849.25,2529.2 5890.18,2381.22C5935.25,2218.23 5712.31,2178.87 5688.02,2348.55C5663.74,2518.24 5845.1,2651.15 5984.72,2528.38C6124.34,2405.61 6087.54,2116.63 5893.92,2100.16C5700.3,2083.7 5480.16,2146.31 5553.12,2476.51C5621.15,2784.4 6017.05,2773.16 6121.38,2631.55C6225.71,2489.95 6275.61,2205.54 6116.88,2052.76C5967.97,1909.42 5699.93,1859.78 5517.27,2042.45C5334.6,2225.13 4992.79,2293.32 5008.32,2476.21C5023.55,2655.71 4757.73,2701.41 4758.24,2488.88C4758.76,2276.35 4922.88,2210.08 5072.48,2283.15C5259.59,2374.52 5294.71,2755.04 5001.02,2797.59C4707.34,2840.14 4554.83,2604.78 4577.47,2414.24C4600.12,2223.71 4872.71,1948.44 5165.88,2145.94C5521.55,2385.55 5400.82,2781.56 5194.81,2910.17C4988.8,3038.78 4641.42,3006.53 4517.76,2807.15C4394.09,2607.76 3624.74,2953.77 3569.04,2927.7C3489.2,2890.33 3481.08,2805.99 3567.72,2769.29C3654.37,2732.58 3722.01,2814.93 3730.36,2889.21C3740.78,2982 3658.63,3102.34 3555.49,3083.19C3385.41,3051.62 3338.61,2908.6 3396.99,2778.72C3456.04,2647.32 3639.12,2546.33 3775.39,2694.15C3960.51,2894.95 3845.56,3059.77 3769.6,3136.66C3647.52,3260.25 3426.66,3278.56 3300.8,3067.04C3174.94,2855.52 3249.84,2644.52 3442.37,2549.04C3603.94,2468.91 4087.29,2201.89 3964.35,2133.61C3841.41,2065.32 3935.03,1853.57 4071.55,1937.31C4208.07,2021.06 4236.95,2180.55 4079,2251.6C3921.06,2322.65 3665.47,2089.41 3783.34,1905.39C3894.11,1732.45 4111.2,1701.58 4248.66,1825.68C4429.27,1988.74 4459.46,2336.23 4147.36,2430.42C3937.24,2493.84 3604.69,2319.21 3610.08,2036.23C3614.55,1801.62 3818.02,1604.24 4054.27,1581.4C4332.9,1554.46 4581.36,1916.6 4572.66,2120.75C4561.67,2378.34 4217.8,2729.9 3857.58,2597.08C3497.37,2464.25 3351.1,2072.51 3471.69,1803.45C3597.2,1523.41 4051.5,1267.12 4401.46,1516.37C4751.42,1765.61 5305.68,1283.8 5268.52,1482.18C5235.34,1659.3 4932.96,1473.24 5078.26,1318.74C5223.55,1164.24 5387.94,1229.28 5446.77,1385.82C5520.35,1581.59 5286.39,1883.09 5044.08,1711.31C4801.77,1539.53 4851.5,1262.73 4997.87,1139.54C5144.24,1016.35 5529.91,1004 5608.16,1350.34C5703.08,1770.5 5345.37,1975.68 5108.06,1927.14C4870.74,1878.6 4665.38,1615.5 4711.53,1384.84C4757.68,1154.18 4910.96,681.612 4978.24,755.347C5069.82,855.699 4892.04,981.914 4810.18,870.952C4709.08,733.907 4863.4,519.67 5034.72,602.69C5206.04,685.709 5214.36,930.072 5065.76,1003.5C4917.17,1076.93 4005.14,749.192 4024.55,838.18C4071.57,1053.76 4287.01,742.047 4162.95,662.568C4038.89,583.089 3847.35,670.672 3838.57,821.713C3829.79,972.754 3920.82,1082.33 4074.88,1096.25C4234.99,1110.71 4383.7,1023.26 4423.82,868.858C4456.73,742.199 4392.71,449.108 4048.21,452.783C3847.69,454.922 3717.57,614.161 3675.26,789.324C3624.56,999.195 3681.13,1242.31 3950.12,1303.46C4219.11,1364.62 4554.08,1189.72 4623.2,927.161C4703.5,622.107 4480.23,365.307 4286.52,314.469C4092.82,263.631 3669.47,242.269 3483.59,720.923C3297.71,1199.58 3385.22,1158.11 3413.12,1158.09C3554.1,1157.99 3489.16,1383.25 3366.07,1349.08C3266.22,1321.36 3194.94,1222.48 3276.27,1111.87C3357.6,1001.26 3581.39,1003.11 3630.77,1166.56C3683.68,1341.68 3572.86,1477.09 3428.24,1493.96C3283.61,1510.84 3178.24,1418.2 3145.86,1289.32C3113.49,1160.44 2630.68,719.088 2764.13,593.671C2895.1,470.582 3094.54,652.789 2928.04,783.837C2761.55,914.885 2608.66,825.928 2573.66,662.284C2529.88,457.622 2805.78,194.45 3019.91,400.663C3234.04,606.876 3155.01,829.524 2992.09,929.445C2829.16,1029.37 2470.4,1004.36 2444.28,650.077C2412.6,220.268 2761.16,94.033 2988.6,177.596C3216.03,261.16 3380.11,552.159 3300.37,773.396C3220.62,994.633 2879.98,1259.79 2502.82,1024.22C2125.66,788.643 2364.3,230.5 2367.02,171.572" style="fill:none;"/>
    </g>
</svg>
