<?xml version="1.0" encoding="UTF-8" standalone="no"?>
<!-- Created with Inkscape (http://www.inkscape.org/) -->

<svg
   width="210mm"
   height="297mm"
   viewBox="0 0 210 297"
   version="1.1"
   id="svg1"
   xml:space="preserve"
   inkscape:version="1.4.2 (f4327f4, 2025-05-13)"
   sodipodi:docname="maze2.svg"
   xmlns:inkscape="http://www.inkscape.org/namespaces/inkscape"
   xmlns:sodipodi="http://sodipodi.sourceforge.net/DTD/sodipodi-0.dtd"
   xmlns="http://www.w3.org/2000/svg"
   xmlns:svg="http://www.w3.org/2000/svg"><sodipodi:namedview
     id="namedview1"
     pagecolor="#ffffff"
     bordercolor="#000000"
     borderopacity="0.25"
     inkscape:showpageshadow="2"
     inkscape:pageopacity="0.0"
     inkscape:pagecheckerboard="0"
     inkscape:deskcolor="#d1d1d1"
     inkscape:document-units="mm"
     inkscape:zoom="8.7484425"
     inkscape:cx="213.0665"
     inkscape:cy="747.90456"
     inkscape:window-width="1920"
     inkscape:window-height="1112"
     inkscape:window-x="-8"
     inkscape:window-y="-8"
     inkscape:window-maximized="1"
     inkscape:current-layer="layer1" /><defs
     id="defs1" /><g
     inkscape:label="Layer 1"
     inkscape:groupmode="layer"
     id="layer1"><path
       style="vector-effect:non-scaling-stroke;fill:none;stroke:#000000;stroke-width:0.264583;stroke-dasharray:none;stroke-opacity:1;-inkscape-stroke:hairline"
       d="M 45.468749,199.3 V 142.0177 84.73541 h 57.282291 57.28229 V 142.0177 199.3 H 102.75104 45.468749 M 79.6,186.6 v -8.46667 h 1.98437 1.98438 v 8.46667 8.46666 h 2.24896 2.24896 v -12.7 -12.7 H 92.3 96.53333 V 165.43333 161.2 h 1.98438 1.98437 v 4.23333 4.23333 H 102.75104 105 v -6.48229 -6.48229 h -8.46667 -8.46666 v -4.23333 -4.23334 h -2.24896 -2.24896 v 4.23334 4.23333 h -8.46667 -8.46666 v 2.24896 2.24896 h 4.23333 4.23333 v 4.23333 4.23333 H 77.35104 79.6 V 165.43333 161.2 h 6.21771 6.21771 v 1.98437 1.98438 h -4.23334 -4.23333 v 4.23333 4.23333 h -4.23333 -4.23334 v 4.23334 4.23333 h -4.23333 -4.23333 v 2.24896 2.24896 h 4.23333 4.23333 v 1.98437 1.98438 h -6.21771 -6.2177 v -4.23334 -4.23333 h -4.23334 -4.233331 v -1.98438 -1.98437 h 8.466671 8.46666 v -6.48229 -6.48229 H 66.9 62.66667 v -6.21771 -6.21771 H 71.13333 79.6 V 148.5 144.26666 h 6.21771 6.21771 V 148.5 152.73333 H 98.51771 105 V 148.5 144.26666 h 6.21771 6.21771 v 1.98438 1.98437 h -4.23334 -4.23333 v 12.7 12.7 h -8.46667 -8.46666 v 10.71563 10.71562 h 10.71562 10.71563 V 190.83333 186.6 h 1.98437 1.98438 v 4.23333 4.23333 H 136.61771 155.8 v -6.48229 -6.48229 h -2.24896 -2.24896 v 4.23333 4.23334 h -6.21771 -6.2177 V 188.58437 186.6 h 4.23333 4.23333 v -4.23334 -4.23333 h 4.23334 4.23333 v -31.88229 -31.8823 h -8.46667 -8.46666 v -4.23333 -4.23333 H 134.63333 130.4 v -6.21771 -6.21771 h 10.45104 10.45104 v 6.21771 6.21771 h -1.98437 -1.98438 v -4.23334 -4.23333 h -6.48229 -6.48229 v 2.24896 2.24896 h 4.23333 4.23334 v 4.23333 4.23333 H 149.31771 155.8 V 99.68437 88.96874 h -14.94896 -14.94896 v 14.94896 14.94896 h 2.24896 2.24896 v -4.23333 -4.23334 h 1.98437 1.98438 v 4.23334 4.23333 h 8.46667 8.46666 v 10.45104 10.45105 h -4.23333 -4.23333 v 4.23333 4.23333 h -1.98438 -1.98437 v -4.23333 -4.23333 h -2.24896 -2.24896 v 6.48229 6.48229 h 6.48229 6.48229 V 148.5 144.26666 h 1.98438 1.98437 v 10.45104 10.45105 h -1.98437 -1.98438 v -4.23334 -4.23333 H 138.86667 130.4 V 146.25104 135.8 h 8.46667 8.46666 v -6.4823 -6.48229 h -14.94896 -14.94895 v 4.23333 4.23334 h -1.98438 -1.98437 v -6.21771 -6.21771 H 117.7 121.93333 V 103.9177 88.96874 H 90.05104 58.16875 v 2.24896 2.24896 h 16.93333 16.93334 v 4.23333 4.23334 h 2.24895 2.24896 v -4.23334 -4.23333 h 6.21771 6.21771 v 1.98437 1.98438 h -4.23333 -4.23334 v 4.23333 4.23334 h -6.21771 -6.2177 v -4.23334 -4.23333 H 71.13333 54.199999 v -4.23333 -4.23334 h -2.248958 -2.248959 v 6.48229 6.4823 H 66.63542 83.56875 v 4.23333 4.23333 H 94.28437 105 v -4.23333 -4.23333 h 4.23333 4.23334 v -4.23334 -4.23333 h 1.98437 1.98438 v 10.45104 10.45104 h -1.98438 -1.98437 v -4.23333 -4.23333 h -2.24896 -2.24896 V 120.85103 135.8 h 6.48229 6.48229 v -4.23334 -4.23333 h 10.45104 10.45105 v 1.98437 1.98438 h -8.46667 -8.46667 V 146.25104 161.2 h 8.46667 8.46667 v 4.23333 4.23333 h 4.23333 4.23333 v 1.98438 1.98437 h -4.23333 -4.23333 v 4.23334 4.23333 h -4.23334 -4.23333 v 4.23333 4.23334 h -6.21771 -6.21771 v -4.23334 -4.23333 h -6.48229 -6.48229 v 4.23333 4.23334 h -6.21771 -6.21771 v -6.21771 -6.21771 h 1.98438 1.98437 V 182.36666 186.6 H 102.75104 105 v -4.23334 -4.23333 h 4.23333 4.23334 v -12.7 -12.7 h 1.98437 1.98438 v 8.46667 8.46666 h 4.23333 4.23333 v 1.98438 1.98437 h -4.23333 -4.23333 v 2.24896 2.24896 h 4.23333 4.23333 v 4.23333 4.23334 h 2.24896 2.24896 v -4.23334 -4.23333 h 4.23333 4.23334 v -6.48229 -6.48229 h -2.24896 -2.24896 v 4.23333 4.23333 H 132.38437 130.4 v -4.23333 -4.23333 h -4.23333 -4.23334 v -12.7 -12.7 h -10.71562 -10.71563 v 4.23333 4.23333 h -1.98437 -1.98438 v -4.23333 -4.23333 H 85.81771 75.10208 v 4.23333 4.23333 h -8.46666 -8.46667 v 10.71563 10.71562 h 4.23333 4.23334 v 1.98438 1.98437 h -6.21771 -6.217711 v -23.15104 -23.15104 h 8.466671 8.46666 v -6.4823 -6.48229 h -8.46666 -8.466671 v -1.98437 -1.98438 H 64.65104 75.10208 v 4.23334 4.23333 h 8.46667 8.46667 v 4.23333 4.23334 h 4.23333 4.23333 v 1.98437 1.98438 h -6.21771 -6.2177 v -4.23334 -4.23333 h -6.4823 -6.48229 v 4.23333 4.23334 h -4.23333 -4.23333 v 4.23333 4.23334 h -1.98438 -1.98437 v -4.23334 -4.23333 h -2.24896 -2.24896 v 6.48229 6.48229 h 6.48229 6.48229 V 140.03333 135.8 H 75.36667 79.6 v -4.23334 -4.23333 h 1.98437 1.98438 V 131.56666 135.8 H 94.28437 105 v -10.71563 -10.71563 h -2.24896 -2.24896 v 4.23334 4.23333 h -1.98437 -1.98438 v -4.23333 -4.23334 H 88.06667 79.6 v -4.23333 -4.23333 H 64.65104 49.702082 v 6.48229 6.48229 h 8.466668 8.46667 v 1.98437 1.98438 H 58.16875 49.702082 V 154.7177 186.6 h 4.233334 4.233334 v 1.98437 1.98438 h -4.233334 -4.233334 v 2.24895 2.24896 H 64.65104 79.6 Z"
       id="path1"
       sodipodi:nodetypes="cccccccccccccccccccccccccccccccccccccccccccccccccccccccccccccccccccccccccccccccccccccccccccccccccccccccccccccccccccccccccccccccccccccccccccccccccccccccccccccccccccccccccccccccccccccccccccccccccccccccccccccccccccccccccccccccccccccccccccccccccccccccccccccccccccccccccccccccccccccccccccccccccccccccccccccccccccccccccccccccccccccccccccccccccccccccccccccccccccccccccccccccccccccccccccccccccccccccccccccccccccccccccccccccccccccccccccccccccccccccccccccccccccccccccccccccccccccccccccccccccccccc" /></g></svg>
