<?xml version="1.0" encoding="UTF-8" standalone="no"?>
<!DOCTYPE svg PUBLIC "-//W3C//DTD SVG 1.1//EN" "http://www.w3.org/Graphics/SVG/1.1/DTD/svg11.dtd">
<svg width="100%" height="100%" viewBox="0 0 6615 6615" version="1.1" xmlns="http://www.w3.org/2000/svg" xmlns:xlink="http://www.w3.org/1999/xlink" xml:space="preserve" xmlns:serif="http://www.serif.com/" style="fill-rule:evenodd;clip-rule:evenodd;stroke-linejoin:round;stroke-miterlimit:2;">
    <g id="path">
        <path d="M3275.96,3291.55C3125.01,3202.38 2960.59,3093.53 2818.99,3024.53C2621.1,2928.1 1878.41,2449.47 1623.85,2327.99C1477.92,2258.35 1245.33,2067.99 966.305,2215.56C704.277,2354.14 507.59,2830.98 512.036,2924.53C520.344,2881.73 614.241,2639.09 890.696,2472.19C1102.05,2344.6 1199.22,2305.19 1445.49,2322.59C1445.29,2322.65 1329.33,2334.33 1066.36,2637.79C931.383,2793.55 901.312,3000.56 901.312,3000.56C901.312,3000.56 1059.07,2687.08 1417.5,2502.75C1565.86,2426.45 1676.56,2472.61 1761.92,2495.46C1662.76,2531.73 1686.33,2533.1 1507.28,2659.54C1263.76,2831.5 1273.56,3013.9 1273.56,3013.9C1273.56,3013.9 1622.73,2735.56 1721.33,2673.56C1767.5,2644.53 1960.53,2515.81 2396.85,2779.18C2654.55,2934.72 2967.22,3087.9 3165.72,3210.34L3281.11,3315.86C3225.24,3313.75 3015.12,3413.09 2867.83,3533.11C2685.91,3681.34 2297.82,3766.34 2271.27,3772.35C2121.47,3806.23 2052.54,3872.4 1934.9,3893.54C1212.02,4023.44 590.087,5184.85 770.046,4812.75C779.388,4793.43 788.009,4775.61 925.778,4594.4C803.722,4667.37 739.266,4723.68 777.991,4665.31C833.649,4581.41 975.37,4524.73 975.729,4524.53C964.845,4527.27 772.211,4575.77 835.529,4529.76C852.026,4517.77 874.632,4501.35 1076.82,4447.58C1060.96,4449.14 886.303,4466.24 878.173,4461.32C839.886,4438.12 887.988,4437.42 1072.88,4346.81C1063.65,4350.15 878.904,4416.98 950.224,4346.28C977.774,4318.97 980.152,4294.48 1266.01,4257.12C1218.39,4239.39 1170.77,4221.66 1123.15,4203.93C1338.69,4174.1 1339.48,4178.34 1355.47,4168.44C1388.14,4148.22 1345.8,4151.4 1240.32,4122.68C1103.79,4085.5 1399.76,4100.12 1441.96,4091.43C1537.39,4071.78 1399.66,4093.57 1328.33,4029.61C1311.18,4014.23 1334.65,4005.08 1614.66,3998.73C1394.54,3922.23 1375.04,3915.64 1391.66,3905.77C1415.56,3891.57 1417.47,3893.97 1739.18,3907.29C1725.33,3903.57 1486.61,3839.43 1570.05,3848.14C1857.51,3878.15 1873.33,3890.94 1870.77,3866.97C1870.63,3865.72 1727.45,3778.96 1714.95,3771.38C1971.67,3797.04 1972.34,3802.9 1992.29,3793.04C2007.17,3785.68 2003.83,3767.83 1832.24,3660.92C1988.99,3740.15 1987.11,3740.08 2151.39,3801.17C1989.01,3797.25 1969.41,3787.34 1980.54,3807.59C1997.87,3839.11 2128.27,3824.34 2141.09,3822.89C2043.32,3848.01 2040.17,3836.13 1955.34,3893.63C1950.68,3896.78 1967.27,3885.54 2008.11,3847.13C1928.06,3900.48 1931.85,3901.5 1863.03,3967.69L1908.54,3910.95C1799.28,3991.27 1794.34,3983.17 1709.17,4091.14C1830.24,3802.12 1591.22,4155.47 1584.73,4165.06C1614.72,4049.24 1609.02,4042.38 1599.86,4045.39C1568.72,4055.62 1494.84,4269.85 1487.81,4290.22C1521.37,3938.12 1366.99,4372.92 1366.26,4372.92C1363.38,4372.9 1364.89,4246.12 1345.01,4222.43C1329.43,4203.85 1322.57,4227.29 1257.6,4512.62C1258.99,4450.79 1259.03,4452.91 1244.97,4394.29C1179.49,4579.58 1184.77,4581.91 1163.75,4602.74C1158.69,4607.76 1119.38,4501.99 1116.04,4493.02C1106.3,4624.46 1118.6,4631.37 1093.46,4649.16C1091.75,4650.37 1070.03,4510.59 1048.78,4516.09C1033.66,4519.99 1039.22,4526.44 1028.95,4710.21C1015.99,4666.83 1003.04,4623.45 990.089,4580.08C985.506,4626.3 980.924,4672.52 976.342,4718.74C1006.27,4404.73 1295.49,4270.66 1585.28,4039.49C1819.69,3852.5 2106.8,3804.72 2282.98,3766.56C2651.42,3686.76 2937.53,3528.19 2969.91,3484.01C2946.78,3515.86 2771.88,3706.05 2714.99,3752.82C2522.38,3911.2 2511.09,3927.05 2307.03,4061.43C2153.89,4162.28 2141.36,4168.82 1988.76,4267.58C1870.28,4344.24 1626.21,4611.98 1619.22,4628.09C1504.12,4893.46 1494.08,4891.53 1464.95,5179.37C1445.54,5109.35 1457.35,5109.43 1477.79,4913.67C1458.17,4949.6 1438.54,4985.53 1418.92,5021.47C1453.74,4938.65 1468.21,4938.49 1451.55,4904.79C1446.36,4894.3 1443.06,4904.07 1322.75,4974.32C1333.22,4964.48 1449.23,4855.46 1451.79,4849.31C1455.44,4840.55 1446.8,4848.65 1336.32,4876.55C1314.02,4882.18 1694.85,4611.47 1363.23,4733.57C1544.59,4634.92 1553.98,4637.68 1550.62,4620.49C1549.13,4612.88 1416.13,4635.41 1404.53,4637.38C1512.54,4596.53 1508.2,4589.81 1615.19,4547.76C1475.98,4545.59 1472.65,4556.37 1445.86,4535.34C1429.81,4522.75 1450.88,4524.75 1685.71,4448.78C1628.78,4444.15 1571.85,4439.52 1514.93,4434.89C1539.04,4431.95 1758.5,4405.18 1814.48,4385.09C1842.99,4374.87 1780.12,4362.27 1776.62,4361.57C1479.89,4302.1 1878.32,4351.03 1973.99,4305.48C2029.59,4279.01 1961.99,4280.71 1845.78,4240.67C1650.67,4173.46 1895.74,4201.55 2100.1,4183.37C2034.39,4159.16 1877.12,4102.95 1919.48,4080.37C1953.22,4062.4 2186.97,4114.18 2188.01,4113.67C2201.92,4106.79 2201.82,4068.05 2002.82,4055.91C2135.57,4084.24 2237.74,4109.03 2258.1,4113.98C2234.71,4120.69 2211.31,4127.4 2187.92,4134.11C2251.56,4138.45 2252.34,4142.35 2256.53,4138.79C2271.75,4125.86 2282.38,4108.1 2297.61,4095.16C2248.75,4172.22 2254.52,4172.73 2234.09,4262.81C2242.54,4221.47 2250.99,4180.14 2259.45,4138.8C2171.88,4341.86 2170.76,4341.06 2163.58,4358.87C2168.68,4305.36 2173.78,4251.84 2178.88,4198.32C2173.42,4207.33 2153.25,4196 2077.18,4415.44C2083.1,4299.07 2088.71,4298.54 2083.57,4289.9C2077.71,4280.04 2077.33,4292.57 2020.63,4418.69C2036.6,4277.21 2028.09,4264.48 2020.85,4273.56C2005.11,4293.33 1993.47,4307.93 1943.59,4579.86C1918.56,4422.59 1947.05,4393.47 1888.93,4389.8C1871.36,4388.69 1877.87,4399.11 1828.14,4601.26C1847.82,4443.06 1853.9,4434.91 1840.55,4434.85C1822.49,4434.77 1831.22,4445.51 1798.69,4656.62C1781.21,4513.28 1793.14,4505.68 1767.3,4490.02C1747.01,4477.73 1758.22,4499.93 1764.68,4786.5C1702.83,4605.08 1698.82,4588.73 1693.79,4603.59C1689.41,4616.56 1691.86,4615.36 1717.62,4832.95C1704.75,4800.51 1704.99,4803.05 1613.47,4607.62C1611.49,4736.5 1610.16,4734.35 1635.73,4858.87C1617.83,4794.56 1617.61,4795.81 1582.22,4740.36C1605.45,4886.66 1606.77,4884.26 1646.93,5027.78C1584.99,4919.62 1587.12,4921.3 1533.81,4808.41C1528.74,4842.87 1523.67,4877.34 1518.6,4911.8C1526.86,4529.3 1988.03,4289.04 2502.77,3926.68C2823.37,3700.98 2979.93,3425.93 3192.41,3346.27L3300.78,3322.25C3299.29,3330.03 3331.1,3357.06 3331.1,3357.06C3331.1,3357.06 3464,3699.92 3362.92,4164C3301.82,4444.54 3003.24,4764.25 2885.09,4687.45C2710.71,4574.1 3069.54,4410.35 3313.17,4163.3C3317.05,4159.36 3404.46,4071.41 3402.62,4120.26C3393.99,4350.11 3336.56,4533.85 3330.74,4556.59C3285.58,4733.03 3261.54,4814.62 3169.3,5059.3C3131.41,5159.82 2763.39,5458.83 2685.79,5446.46C2518.89,5419.84 2989.43,5058.19 3152.5,5026.01C3282.8,5000.3 3180.69,5164.39 3534.5,5403.26C3637.51,5472.81 3539.93,5580.19 3484.37,5578.93C3257.73,5573.8 3251.31,5275.21 3238.14,5118.7C3133.58,5228.61 3058.93,5511.36 2916.59,5641.43C2783.25,5763.28 2705.84,5496.16 2950.05,5293.03C3173.67,5107.05 3169.76,5102.97 3190.21,5088.15C3201.72,5079.8 3214.65,5088.15 3230.62,5261.26C3241.78,5382.16 3312.7,5549.68 3304.5,5640.38C3297.09,5722.44 3220.01,5772.2 3203.54,5772.23C3032.04,5772.53 3063.54,5482.89 3094.16,5370.44C3271.26,4720.07 3308.96,4610.87 3330.74,4556.59C3466.02,4219.34 3390.7,3331.37 3322.85,3317.12C3322.85,3317.12 3428.06,3361.93 3538.64,3419.83C3696.94,3502.72 3774.5,3523.68 4235.04,3812.41C4266.66,3832.23 4513.3,3973.17 4621.68,4098.95C4841.35,4353.89 4950.32,4511.89 5055.07,4735.48C5055.71,4732.51 5039.02,4673.06 4989.31,4430.53C4919.36,4089.19 4962.4,3946 4962.4,3946C4962.4,3946 5079.78,4140.9 5122.8,4218.96C5229.31,4412.24 5166.38,4509.52 5152.34,4559.05C5136.39,4615.31 5101.84,4684.78 5102.58,4705.25C5135.76,4644.85 5111.57,4563.16 5238.41,4458.68C5412.93,4314.92 5444.62,4342.22 5590.48,4096.35C5607.77,4164.57 5641.03,4236.1 5498.33,4450.25C5437.62,4541.36 5256.3,4619.78 5187.03,4720.28C5233.31,4689.68 5228.95,4684.93 5273.76,4652.23C5371.96,4580.59 5557.26,4602.28 5557.27,4602.28C5822.38,4600.49 5829.28,4610.99 5914.26,4552.1C5912.82,4554.57 5825.67,4733.35 5660.63,4780.79C5565.3,4808.19 5265.32,4760.13 5201.01,4785.21C5341.65,4740.63 5745.87,5202.53 5745.87,5202.53C5745.87,5202.53 5515.45,5249.3 5356.6,5067.94C5205.95,4895.94 5213.01,4903.5 5152.87,4843.19C5199.4,4885.67 5250.52,5009.33 5215.91,5279.09C5193.88,5450.78 4953.86,5615.46 4953.86,5615.46C4953.86,5615.46 4981.77,5463.09 5007.06,5233.42C5021.86,5099.03 5081.9,4864.79 5081.9,4864.79C5081.9,4864.79 5045.15,4945.93 5025.92,4972.99C4974.4,5045.48 4854.52,5184.51 4633.89,5274.5C4559.05,5305.03 4535.61,5297.32 4488.97,5363.06C4541.15,5148.19 4614.72,5094.62 4629.99,5073.74C4782.21,4865.53 4962.41,4849.1 5012.73,4826.46C4999.79,4835.42 4940.07,4876.8 4819.17,4861.81C4572.59,4831.23 4484.98,4693.6 4309.83,4603.91C4324.97,4599.79 4486.61,4508.89 4798.2,4606.27C4916.65,4643.28 5061.75,4727.6 5055.07,4735.48C5051.4,4739.82 4993.7,4789.99 5012.73,4826.46C5068.7,4933.73 5236.27,4791.5 5163.71,4730.14C5119.83,4693.04 5068.7,4732.36 5055.07,4735.48C5024.94,4742.39 4975.32,4469.16 4621.68,4098.95C4416.24,3883.87 3716.17,3507.86 3545.91,3423.44C3338.99,3320.83 3325.44,3303.64 3325.44,3303.64C3939.47,3034.89 3934.14,2901.57 4835.04,2878.54C5465.27,2862.44 5642.85,2981.1 5929.11,3084.41C5939.22,3075.73 6142.01,3062.54 5988.17,2952.88C5849.18,2853.8 5891.01,3333.97 6000.88,3224.11C6082.21,3142.79 5742.56,2984.96 5759.92,3150.59C5774.91,3293.65 5878.86,3173.62 5857.23,3068.64C5854.35,3054.68 5824.28,2908.8 5763.63,2916.99C5685.99,2927.47 5760.94,3061.74 5829.15,2972.22C5965.49,2793.29 5623.82,2693.87 5644.55,2865.03C5653.93,2942.45 5759.24,2938.82 5719.64,2836.48C5693.21,2768.2 5534.6,2822.39 5592.32,2995.61C5612.9,3057.37 5720.9,3070.36 5684.06,3012.46C5675.27,2998.65 5612.93,2994.93 5598.87,3021.82C5526.39,3160.46 5511.34,3183.89 5604.11,3233C5701.85,3284.74 5771.25,3079.92 5691.38,3093.21C5676.56,3095.67 5641.93,3143.19 5627.11,3145.65C5561.22,2971.04 5511.71,3021.03 5506.2,3033.04C5471.69,3108.32 5595.5,3116.18 5597.94,3002.16C5601.61,2830.14 5455.29,2846.01 5487.49,2910.42C5531.1,2997.65 5640.38,2794.46 5489.65,2752.06C5334.71,2708.47 5421.9,2992.19 5458.47,2889.82C5492.64,2794.16 5273.65,2805.43 5344.26,2958.15C5381.87,3039.47 5523.48,2929.65 5423.83,2926.32C5246.17,2920.39 5198.27,3166.35 5425.69,3140.69C5544.35,3127.3 5401.28,3005.88 5369.53,3075.16C5330.16,3161.03 5523.89,3246.53 5505.26,3045.21C5489.92,2879.38 5126.88,2918.95 5231,2950.65C5327.96,2980.17 5402.45,2805.41 5241.31,2753.14C5132.49,2717.84 5190.03,2891.37 5246.92,2855.17C5249.15,2853.75 5267.08,2813.6 5239.43,2793.39C5133.81,2716.19 4965.32,2867.54 5157.05,2957.2C5209.69,2981.81 5279.37,2949.62 5229.13,2911.33C5162.55,2860.6 5127.11,2980.56 5095.26,3044.25C5034.49,3165.76 5337.82,3168.28 5247.84,3049.88C5197.19,2983.22 5132.11,3073.01 5210.39,3154.71C5318.72,3267.77 5293.13,3019.44 5128.03,2904.77C5023.31,2832.04 4944.24,2902.56 5024.12,2982.46C5124.3,3082.66 5061.51,2948.9 5058.76,2945.96C4987.24,2869.49 4827.31,2914.72 4900.56,2933.78C5062.53,2975.9 5098.9,2702.36 4944.57,2759.67C4885.7,2781.53 4948.38,2877.75 4956.73,2840.17C4977.26,2747.86 4755.36,2729.98 4810.7,2892.58C4852.68,3015.9 5008.2,3049.63 4959.54,2946.89C4922.04,2867.72 4783.4,3022.37 4895.41,3130.39C4978.43,3210.45 5121.05,3006.75 4963.28,3009.6C4902.06,3010.71 4913.52,3129.81 4932.38,3077C4946.16,3038.43 4891.78,2990.7 4885.58,2985.26C4853.96,2957.51 4850.82,2976.39 4814.01,2996.82C4676.43,2955.85 4907.53,2886.81 4810.7,2892.58C4632.42,2903.22 4543.32,2886.23 4173.38,2999.7C3809.63,3111.26 3577.25,3294.6 3326.62,3272.62L3308.23,3115.28C3321.46,2873.45 3278.43,2504.4 3296.36,2317.47C3301.76,2261.27 3335.37,2148.68 3546.34,1830.46C3552.14,1821.7 3748.2,1787.54 3748.2,1787.54C3842.45,1769.99 3990.54,1809.57 4002.14,1807.7C4024.58,1804.08 3997.09,1965.03 3962.4,1991.49C3946.76,2003.42 3882.43,1957.06 3805.41,2055.79C3855.42,2021.22 3858.61,2030.87 3910.39,2018.47C3905.51,2024.45 3849.33,2093.33 3857.46,2099.19C3864.27,2104.1 3859.46,2088.79 3949.21,2048.28C3925.84,2079.3 3932.59,2081.63 3917.86,2137.58C4032.6,2068.64 3953,1944.38 4053.24,1822.33C4083.66,1830.9 4256.49,1879.61 4427.65,1948.56C4342.5,2002.72 4338.89,1998.9 4258.01,2098.54C4369.91,2065.33 4373.54,2038.33 4372.21,2048.23C4368.23,2077.85 4348.19,2101.29 4316.96,2187.51C4370.08,2146.68 4365.97,2143.67 4395.26,2083.2C4404.95,2163.29 4417.87,2160.69 4413.3,2240.18C4420.01,2218.86 4491.28,1992.15 4460.38,1964.74C4459.15,1963.65 4305.69,1876.17 4208.16,1841.99C4128.15,1813.95 4021.1,1801.56 3972.08,1795.07C3745.74,1765.13 3693.6,1799.61 3546.34,1830.46C3644.89,1732.04 3643.54,1732.58 4014.19,1409.94C4490.28,995.505 5083.43,1112.16 5181.1,1256.17C5214.2,1304.97 5174.05,1384.79 5162.49,1385.59C5054.41,1393.08 4919.12,1495.65 4919.12,1495.65C4919.12,1495.65 4965.12,1507.35 5033.56,1496.65C4995.21,1572.73 4997.59,1577.27 4998.55,1609.51C5045.57,1574.49 5076.59,1590.11 5091.65,1532.4C5083.46,1587.07 5084.59,1656.94 5084.59,1656.94C5179.02,1641.37 5183.22,1380.52 5162.49,1385.59C5249.68,1300.17 5174.35,1139.13 4800.94,1118.91C4816.79,1144.57 4814.26,1144.71 4813.64,1147.1C4808.97,1165.28 4800.51,1295.78 4767.15,1307.66C4765.1,1308.39 4786.3,1371.87 4756.1,1422.59C4710.98,1498.38 4696.18,1503.66 4684.35,1508.72C4692.05,1497.48 4686.78,1492.53 4701.48,1397.54C4673.61,1434.84 4654.56,1428.15 4610.9,1449.01C4621.03,1434.07 4629.59,1433.23 4642.8,1421.28C4646.25,1418.16 4650.35,1414.45 4665.16,1367.64C4667.19,1361.24 4547.14,1376.07 4553.18,1363.8C4575.95,1317.52 4752.22,1268.17 4767.15,1307.66C4792.82,1308.19 4835.03,1155.88 4800.94,1118.91C4800.94,1118.91 4431.73,1141.09 4150.34,1304.45C4198.86,1245.73 4354.55,1432.57 4323.57,1484.06C4276.52,1458.92 4164.95,1590.31 4152.38,1667.82C4199.07,1631.2 4198.85,1635.03 4249.56,1605.38C4247.07,1660.42 4261.77,1643.06 4268.23,1699.57C4268.23,1699.57 4295.75,1685.51 4338.39,1616.17C4338.58,1656.35 4414.25,1732.01 4394.91,1721.18C4492.11,1639.36 4344.14,1480.32 4323.57,1484.06C4357.14,1463.09 4245.8,1272.72 4153.62,1305.06C4089.48,1327.56 3747.18,1642.59 3747.18,1642.59C3464.04,1834.1 3288.72,2303.38 3297.1,2284.41C3354.29,2155.02 3352.6,1692.89 3316.91,1674.26C3205.37,1616.01 2850.74,1640.97 2829.26,1656.58C2744.62,1718.1 2781.79,1894.63 2781.79,1894.63C2843.66,1938.11 2861.01,2004.07 2852.63,2083.04C2852.63,2083.04 2844.41,2059.91 2797.5,1992.45C2793.89,1987.27 2765.63,1999.8 2743.91,2071.45C2734.24,2038.85 2752.95,2024.22 2744.4,1967.27C2739.76,1974.29 2699,1969.38 2647.02,2051.17C2630.01,1968.57 2740.69,1872.08 2781.79,1894.63C2745.45,1891.6 2776.95,1663.77 2829.26,1656.58C2807.95,1662.7 2630.08,1711.93 2470.16,1879.02C2345.68,2009.07 2467.99,2044.18 2441.93,2182.99C2431.67,2237.64 2399.84,2275.45 2399.84,2275.45L2392.37,2170.3C2392.37,2170.3 2378.61,2135.37 2313.32,2216.08C2328.35,2173.3 2307.18,2127.54 2322.85,2115.48C2322.85,2115.48 2280.06,2125.53 2183.76,2191.39C2212.04,2156.33 2220.26,2088.22 2401.29,1987.63C2401.29,1987.63 2396.2,1993.58 2396.2,1993.58C2425.43,1936.63 2621.31,1594.26 3128.09,1639.35C3135.09,1639.97 3282.15,1660.19 3299.32,1666.55C3309.19,1670.21 3265.77,1537.03 3265.77,1537.03L3132.78,1248.01C3083.63,1169.67 2813.08,1278.27 2815.98,1319.47C2811.87,1316.39 2710.51,1390.7 2722.95,1447.39C2749.75,1425.28 2783.8,1405.09 2810.6,1382.98C2804.85,1413.22 2799.11,1443.46 2793.37,1473.71C2834.41,1402.46 2832.88,1400.25 2839.77,1398.71C2842.62,1398.07 2864.01,1472.9 2866.17,1480.73C2910.39,1368.79 2866.21,1326.11 2815.98,1319.47C2807.54,1268.82 3093.05,1176.92 3132.78,1248.01C3092.9,1139.73 2988.52,1066.68 2863.32,1005C2833.04,965.654 2452.24,1066.43 2438.73,1188.51C2461.05,1230.5 2465.89,1217.25 2473.97,1268.68C2481.74,1318.11 2455.41,1383.59 2455.41,1383.59C2455.41,1383.59 2421.98,1278.17 2420.48,1274.06C2360.21,1353.62 2355.02,1361.75 2353.2,1353.62C2352.42,1350.11 2351.95,1367.1 2379.27,1251.02C2316.14,1319.57 2314.57,1280.99 2247.87,1317.31C2222.88,1272.35 2406.12,1159.35 2438.73,1188.51C2404.02,1139.94 2759.55,951.947 2863.32,1005C2695.5,912.491 2400.08,895.445 2312.12,929.871C2030.07,1040.26 1935.88,1246.83 1935.56,1237.11C1935.56,1237.11 1799.77,1325.59 1753.26,1447.06C1748.75,1458.84 1758.98,1432.12 1876.91,1349.04C1861.72,1396.48 1861.86,1395.97 1858.26,1445.58C1921.59,1394.4 1925.9,1377.87 1934.3,1366.92C1947.89,1418.56 1978.73,1505.83 1978.73,1505.83C1978.73,1505.83 1993.28,1472.72 1985.06,1375.17C1983.82,1360.35 1935.56,1237.11 1935.56,1237.11C1935.56,1237.11 2079.89,1015.35 2312.12,929.871C2450.85,878.81 2679.1,930.935 2863.32,1005C2993.96,1057.52 3108.29,1150.39 3132.78,1248.01C3132.78,1248.01 3248.29,1469.71 3246.51,1491.48C3246.51,1491.48 3264.43,1527.14 3316.91,1674.26C3353.36,1375.81 3463.76,763.583 3281.42,474.759C3155.88,275.907 2849.95,297.362 2797.47,529.456C2805.57,503.23 2592.32,626.418 2569.26,751.802C2566.38,767.461 2553.02,744.105 2705.03,665.54C2697.65,704.526 2697.47,763.728 2690.09,802.713C2694.83,795.598 2761.34,701.649 2761.34,701.649C2761.34,701.649 2746.79,729.126 2786.64,828.802C2851.38,823.307 2835.78,525.354 2797.47,529.456C2822.22,378.198 3084.41,229.405 3267.75,454.899C3340.4,544.258 3321.74,568.962 3352.87,658.554C3255.71,528.396 3070.22,673.756 3092.44,674.087C3092.44,674.087 3012.38,671.419 2940.61,817.057C2983.89,779.907 3000.28,750.584 3053.38,735.89C3047.7,766.893 3051.23,807.72 3045.55,838.723C3066.67,815.276 3078.58,782.003 3099.7,758.556C3108.85,809.284 3136.55,795.692 3140.66,868.733C3204.98,738.425 3092.44,674.087 3092.44,674.087C3146.21,595.872 3317.12,575.744 3352.87,658.554C3407.21,748.576 3341.66,1632.39 3316,1683.19C3303.14,1708.66 3381.77,1916.37 3334.96,2103.22C3347.61,2061.26 3384.83,1888.55 3508.76,1471.39C3612.81,1121.1 3614.81,1120.74 3614.81,1120.74C3613.85,987.639 3956.92,916.304 3956.48,1041.92C3956.48,1041.92 3819.12,1161.7 3796.33,1207.11C3849.6,1158.52 3848.91,1160.71 3905.5,1116.74C3898.21,1185.4 3902.22,1183.77 3895.36,1250.84C3940.49,1203.74 3948.31,1210.86 3974.42,1151.72C3975.2,1156.2 4004.8,1326.87 4016.71,1189.66C4023.04,1116.74 3956.48,1041.92 3956.48,1041.92C3929.95,935.167 3678.29,944.008 3614.81,1120.74C3614.43,1041.75 3954.67,418.631 4296.61,657.074C4286.95,644.206 4193.54,703.87 4187.96,710.391C4169,732.539 4158.29,729.185 4114.16,822.489C4186.44,764.496 4154.07,792.841 4227.62,755.521C4218.25,783.424 4225.15,819.411 4215.78,847.315C4223.07,842.478 4220.47,842.337 4302.99,781.332C4303.69,783.333 4303.08,781.384 4330.54,874.846C4356.13,744.468 4386.14,736.953 4294.62,655.694C4205.43,576.497 3792.43,490.361 3508.76,1471.39C3351.64,2014.72 3292.94,2070.61 3296.4,2360.61C3297.74,2473.43 3312.57,2729.07 3305.83,3294.94" style="fill:none;"/>
    </g>
</svg>
