<?xml version="1.0" encoding="UTF-8" standalone="no"?>
<!DOCTYPE svg PUBLIC "-//W3C//DTD SVG 1.1//EN" "http://www.w3.org/Graphics/SVG/1.1/DTD/svg11.dtd">
<svg width="100%" height="100%" viewBox="0 0 6615 6615" version="1.1" xmlns="http://www.w3.org/2000/svg" xmlns:xlink="http://www.w3.org/1999/xlink" xml:space="preserve" xmlns:serif="http://www.serif.com/" style="fill-rule:evenodd;clip-rule:evenodd;stroke-linejoin:round;stroke-miterlimit:2;">
    <g id="path">
        <path d="M3305.83,3294.94C3312.57,2729.07 3297.74,2473.43 3296.4,2360.61C3292.94,2070.61 3351.64,2014.72 3508.76,1471.39C3792.43,490.361 4205.43,576.497 4294.62,655.694C4386.14,736.953 4356.13,744.468 4330.54,874.846C4303.08,781.384 4303.69,783.333 4302.99,781.332C4220.47,842.337 4223.07,842.478 4215.78,847.315C4225.15,819.411 4218.25,783.424 4227.62,755.521C4154.07,792.841 4186.44,764.496 4114.16,822.489C4158.29,729.185 4169,732.539 4187.96,710.391C4193.54,703.87 4286.95,644.206 4296.61,657.074C3954.67,418.631 3614.43,1041.75 3614.81,1120.74C3678.29,944.008 3929.95,935.167 3956.48,1041.92C3956.48,1041.92 4023.04,1116.74 4016.71,1189.66C4004.8,1326.87 3975.2,1156.2 3974.42,1151.72C3948.31,1210.86 3940.49,1203.74 3895.36,1250.84C3902.22,1183.77 3898.21,1185.4 3905.5,1116.74C3848.91,1160.71 3849.6,1158.52 3796.33,1207.11C3819.12,1161.7 3956.48,1041.92 3956.48,1041.92C3956.92,916.304 3613.85,987.639 3614.81,1120.74C3614.81,1120.74 3612.81,1121.1 3508.76,1471.39C3384.83,1888.55 3347.61,2061.26 3334.96,2103.22C3381.77,1916.37 3303.14,1708.66 3316,1683.19C3341.66,1632.39 3407.21,748.576 3352.87,658.554C3317.12,575.744 3146.21,595.872 3092.44,674.087C3092.44,674.087 3204.98,738.425 3140.66,868.733C3136.55,795.692 3108.85,809.284 3099.7,758.556C3078.58,782.003 3066.67,815.276 3045.55,838.723C3051.23,807.72 3047.7,766.893 3053.38,735.89C3000.28,750.584 2983.89,779.907 2940.61,817.057C3012.38,671.419 3092.44,674.087 3092.44,674.087C3070.22,673.756 3255.71,528.396 3352.87,658.554C3321.74,568.962 3340.4,544.258 3267.75,454.899C3084.41,229.405 2822.22,378.198 2797.47,529.456C2835.78,525.354 2851.38,823.307 2786.64,828.802C2746.79,729.126 2761.34,701.649 2761.34,701.649C2761.34,701.649 2694.83,795.598 2690.09,802.713C2697.47,763.728 2697.65,704.526 2705.03,665.54C2553.02,744.105 2566.38,767.461 2569.26,751.802C2592.32,626.418 2805.57,503.23 2797.47,529.456C2849.95,297.362 3155.88,275.907 3281.42,474.759C3463.76,763.583 3353.36,1375.81 3316.91,1674.26C3264.43,1527.14 3246.51,1491.48 3246.51,1491.48C3248.29,1469.71 3132.78,1248.01 3132.78,1248.01C3108.29,1150.39 2993.96,1057.52 2863.32,1005C2679.1,930.935 2450.85,878.81 2312.12,929.871C2079.89,1015.35 1935.56,1237.11 1935.56,1237.11C1935.56,1237.11 1983.82,1360.35 1985.06,1375.17C1993.28,1472.72 1978.73,1505.83 1978.73,1505.83C1978.73,1505.83 1947.89,1418.56 1934.3,1366.92C1925.9,1377.87 1921.59,1394.4 1858.26,1445.58C1861.86,1395.97 1861.72,1396.48 1876.91,1349.04C1758.98,1432.12 1748.75,1458.84 1753.26,1447.06C1799.77,1325.59 1935.56,1237.11 1935.56,1237.11C1935.88,1246.83 2030.07,1040.26 2312.12,929.871C2400.08,895.445 2695.5,912.491 2863.32,1005C2759.55,951.947 2404.02,1139.94 2438.73,1188.51C2406.12,1159.35 2222.88,1272.35 2247.87,1317.31C2314.57,1280.99 2316.14,1319.57 2379.27,1251.02C2351.95,1367.1 2352.42,1350.11 2353.2,1353.62C2355.02,1361.75 2360.21,1353.62 2420.48,1274.06C2421.98,1278.17 2455.41,1383.59 2455.41,1383.59C2455.41,1383.59 2481.74,1318.11 2473.97,1268.68C2465.89,1217.25 2461.05,1230.5 2438.73,1188.51C2452.24,1066.43 2833.04,965.654 2863.32,1005C2988.52,1066.68 3092.9,1139.73 3132.78,1248.01C3093.05,1176.92 2807.54,1268.82 2815.98,1319.47C2866.21,1326.11 2910.39,1368.79 2866.17,1480.73C2864.01,1472.9 2842.62,1398.07 2839.77,1398.71C2832.88,1400.25 2834.41,1402.46 2793.37,1473.71C2799.11,1443.46 2804.85,1413.22 2810.6,1382.98C2783.8,1405.09 2749.75,1425.28 2722.95,1447.39C2710.51,1390.7 2811.87,1316.39 2815.98,1319.47C2813.08,1278.27 3083.63,1169.67 3132.78,1248.01L3265.77,1537.03C3265.77,1537.03 3309.19,1670.21 3299.32,1666.55C3282.15,1660.19 3135.09,1639.97 3128.09,1639.35C2621.31,1594.26 2425.43,1936.63 2396.2,1993.58C2396.2,1993.58 2401.29,1987.63 2401.29,1987.63C2220.26,2088.22 2212.04,2156.33 2183.76,2191.39C2280.06,2125.53 2322.85,2115.48 2322.85,2115.48C2307.18,2127.54 2328.35,2173.3 2313.32,2216.08C2378.61,2135.37 2392.37,2170.3 2392.37,2170.3L2399.84,2275.45C2399.84,2275.45 2431.67,2237.64 2441.93,2182.99C2467.99,2044.18 2345.68,2009.07 2470.16,1879.02C2630.08,1711.93 2807.95,1662.7 2829.26,1656.58C2776.95,1663.77 2745.45,1891.6 2781.79,1894.63C2740.69,1872.08 2630.01,1968.57 2647.02,2051.17C2699,1969.38 2739.76,1974.29 2744.4,1967.27C2752.95,2024.22 2734.24,2038.85 2743.91,2071.45C2765.63,1999.8 2793.89,1987.27 2797.5,1992.45C2844.41,2059.91 2852.63,2083.04 2852.63,2083.04C2861.01,2004.07 2843.66,1938.11 2781.79,1894.63C2781.79,1894.63 2744.62,1718.1 2829.26,1656.58C2850.74,1640.97 3205.37,1616.01 3316.91,1674.26C3352.6,1692.89 3354.29,2155.02 3297.1,2284.41C3288.72,2303.38 3464.04,1834.1 3747.18,1642.59C3747.18,1642.59 4089.48,1327.56 4153.62,1305.06C4245.8,1272.72 4357.14,1463.09 4323.57,1484.06C4344.14,1480.32 4492.11,1639.36 4394.91,1721.18C4414.25,1732.01 4338.58,1656.35 4338.39,1616.17C4295.75,1685.51 4268.23,1699.57 4268.23,1699.57C4261.77,1643.06 4247.07,1660.42 4249.56,1605.38C4198.85,1635.03 4199.07,1631.2 4152.38,1667.82C4164.95,1590.31 4276.52,1458.92 4323.57,1484.06C4354.55,1432.57 4198.86,1245.73 4150.34,1304.45C4431.73,1141.09 4800.94,1118.91 4800.94,1118.91C4835.03,1155.88 4792.82,1308.19 4767.15,1307.66C4752.22,1268.17 4575.95,1317.52 4553.18,1363.8C4547.14,1376.07 4667.19,1361.24 4665.16,1367.64C4650.35,1414.45 4646.25,1418.16 4642.8,1421.28C4629.59,1433.23 4621.03,1434.07 4610.9,1449.01C4654.56,1428.15 4673.61,1434.84 4701.48,1397.54C4686.78,1492.53 4692.05,1497.48 4684.35,1508.72C4696.18,1503.66 4710.98,1498.38 4756.1,1422.59C4786.3,1371.87 4765.1,1308.39 4767.15,1307.66C4800.51,1295.78 4808.97,1165.28 4813.64,1147.1C4814.26,1144.71 4816.79,1144.57 4800.94,1118.91C5174.35,1139.13 5249.68,1300.17 5162.49,1385.59C5183.22,1380.52 5179.02,1641.37 5084.59,1656.94C5084.59,1656.94 5083.46,1587.07 5091.65,1532.4C5076.59,1590.11 5045.57,1574.49 4998.55,1609.51C4997.59,1577.27 4995.21,1572.73 5033.56,1496.65C4965.12,1507.35 4919.12,1495.65 4919.12,1495.65C4919.12,1495.65 5054.41,1393.08 5162.49,1385.59C5174.05,1384.79 5214.2,1304.97 5181.1,1256.17C5083.43,1112.16 4490.28,995.505 4014.19,1409.94C3643.54,1732.58 3644.89,1732.04 3546.34,1830.46C3693.6,1799.61 3745.74,1765.13 3972.08,1795.07C4021.1,1801.56 4128.15,1813.95 4208.16,1841.99C4305.69,1876.17 4459.15,1963.65 4460.38,1964.74C4491.28,1992.15 4420.01,2218.86 4413.3,2240.18C4417.87,2160.69 4404.95,2163.29 4395.26,2083.2C4365.97,2143.67 4370.08,2146.68 4316.96,2187.51C4348.19,2101.29 4368.23,2077.85 4372.21,2048.23C4373.54,2038.33 4369.91,2065.33 4258.01,2098.54C4338.89,1998.9 4342.5,2002.72 4427.65,1948.56C4256.49,1879.61 4083.66,1830.9 4053.24,1822.33C3953,1944.38 4032.6,2068.64 3917.86,2137.58C3932.59,2081.63 3925.84,2079.3 3949.21,2048.28C3859.46,2088.79 3864.27,2104.1 3857.46,2099.19C3849.33,2093.33 3905.51,2024.45 3910.39,2018.47C3858.61,2030.87 3855.42,2021.22 3805.41,2055.79C3882.43,1957.06 3946.76,2003.42 3962.4,1991.49C3997.09,1965.03 4024.58,1804.08 4002.14,1807.7C3990.54,1809.57 3842.45,1769.99 3748.2,1787.54C3748.2,1787.54 3552.14,1821.7 3546.34,1830.46C3335.37,2148.68 3301.76,2261.27 3296.36,2317.47C3278.43,2504.4 3321.46,2873.45 3308.23,3115.28L3326.62,3272.62C3577.25,3294.6 3758.27,3051.69 4122.02,2940.12C4491.96,2826.66 4562.1,2856.89 4740.38,2846.26C4645.98,2894.57 4719.91,2993.52 4759.19,3009.9C4798.47,3026.28 4950.28,3004.99 4925.96,2944.19C4915.47,2917.96 4805.3,2881.34 4808.1,2954.57C4813.38,3092.71 5120.89,3128.09 5141.71,2982.53C5149.95,2924.84 5013.75,2912.01 5018.02,3005.92C5020.56,3061.71 5142.5,3145.02 5301.47,3075.87C5415.65,3026.21 5278.19,2823.48 5239.98,2893.52C5210.1,2948.29 5271.39,3087.7 5463.28,3010.53C5494.34,2998.04 5513.82,2959.37 5490.24,2909.07C5477.54,2881.97 5442.22,2898.29 5426.62,2952.9C5376.94,3126.76 5487.7,3167.18 5569.42,3097.12C5639.16,3037.35 5593.37,2971.75 5560.94,3012.29C5527.86,3053.63 5589.96,3189.95 5734.85,3112.68C5847.99,3052.34 5772.66,2943.01 5683.95,2943.01C5648.66,2943.01 5600.98,3031.16 5683.95,2943.01C5749.99,2872.84 5816.75,2785.71 5736.27,2851.1C5683.38,2894.08 5788.73,3100.51 5911.59,3067.43C5975.07,3050.34 5970.86,3018.99 5958.25,3017.95C5895.91,3012.75 5860.39,3143.05 5966.74,3153.68C6036.87,3160.7 6134.51,3054.75 6048.74,2952.9C6022.71,2921.99 5903.86,2879.77 5897.45,2924.62C5893.39,2953.07 5966.74,2952.23 5966.74,2877.97C5966.74,2800 5735.58,2749.57 5746.16,2876.55C5746.31,2878.33 5749.06,2911.31 5758.89,2894.93C5853.59,2737.11 5507.14,2659.21 5518.52,2835.55C5521.9,2887.85 5631.05,2911.65 5618.91,2818.58C5609.62,2747.37 5512.74,2742.76 5501.55,2742.23C5481.07,2741.25 5382.86,2721.26 5378.54,2786.06C5376.55,2815.9 5422.98,2879.18 5435.1,2839.79C5444.69,2808.64 5470.36,2754.83 5430.86,2698.4C5366.65,2606.67 5137.15,2769.15 5196.15,2904.83C5215.93,2950.35 5311.51,2970.17 5283.81,2883.62C5238.8,2742.96 5011.22,2807.57 5087.27,2883.62C5117.59,2913.94 5217.15,2887.01 5126.86,2764.85C5064.59,2680.6 4927.83,2703.42 4934.57,2804.44C4937.8,2852.89 5030.48,2808.07 4982.64,2732.33C4910.93,2618.78 4745.31,2783.53 4842.66,2861C4891.18,2899.61 4944.3,2867.55 4894.98,2842.62C4883.66,2836.9 4921.98,2670.1 4804.4,2705.6C4698.24,2737.65 4740.38,2846.26 4740.38,2846.26C4734,2828.13 4250.98,2869.32 4122.02,2940.12C3854.32,3087.09 3753.87,3179.23 3325.44,3303.64C3325.44,3303.64 3338.99,3320.83 3545.91,3423.44C3716.17,3507.86 4416.24,3883.87 4621.68,4098.95C4975.32,4469.16 5024.94,4742.39 5055.07,4735.48C5068.7,4732.36 5119.83,4693.04 5163.71,4730.14C5236.27,4791.5 5068.7,4933.73 5012.73,4826.46C4993.7,4789.99 5051.4,4739.82 5055.07,4735.48C5061.75,4727.6 4916.65,4643.28 4798.2,4606.27C4486.61,4508.89 4324.97,4599.79 4309.83,4603.91C4484.98,4693.6 4572.59,4831.23 4819.17,4861.81C4940.07,4876.8 4999.79,4835.42 5012.73,4826.46C4962.41,4849.1 4782.21,4865.53 4629.99,5073.74C4614.72,5094.62 4541.15,5148.19 4488.97,5363.06C4535.61,5297.32 4559.05,5305.03 4633.89,5274.5C4854.52,5184.51 4974.4,5045.48 5025.92,4972.99C5045.15,4945.93 5081.9,4864.79 5081.9,4864.79C5081.9,4864.79 5021.86,5099.03 5007.06,5233.42C4981.77,5463.09 4953.86,5615.46 4953.86,5615.46C4953.86,5615.46 5193.88,5450.78 5215.91,5279.09C5250.52,5009.33 5199.4,4885.67 5152.87,4843.19C5213.01,4903.5 5205.95,4895.94 5356.6,5067.94C5515.45,5249.3 5745.87,5202.53 5745.87,5202.53C5745.87,5202.53 5341.65,4740.63 5201.01,4785.21C5265.32,4760.13 5565.3,4808.19 5660.63,4780.79C5825.67,4733.35 5912.82,4554.57 5914.26,4552.1C5829.28,4610.99 5822.38,4600.49 5557.27,4602.28C5557.26,4602.28 5371.96,4580.59 5273.76,4652.23C5228.95,4684.93 5233.31,4689.68 5187.03,4720.28C5256.3,4619.78 5437.62,4541.36 5498.33,4450.25C5641.03,4236.1 5607.77,4164.57 5590.48,4096.35C5444.62,4342.22 5412.93,4314.92 5238.41,4458.68C5111.57,4563.16 5135.76,4644.85 5102.58,4705.25C5101.84,4684.78 5136.39,4615.31 5152.34,4559.05C5166.38,4509.52 5229.31,4412.24 5122.8,4218.96C5079.78,4140.9 4962.4,3946 4962.4,3946C4962.4,3946 4919.36,4089.19 4989.31,4430.53C5039.02,4673.06 5055.71,4732.51 5055.07,4735.48C4950.32,4511.89 4841.35,4353.89 4621.68,4098.95C4513.3,3973.17 4266.66,3832.23 4235.04,3812.41C3774.5,3523.68 3696.94,3502.72 3538.64,3419.83C3428.06,3361.93 3322.85,3317.12 3322.85,3317.12C3390.7,3331.37 3466.02,4219.34 3330.74,4556.59C3308.96,4610.87 3271.26,4720.07 3094.16,5370.44C3063.54,5482.89 3032.04,5772.53 3203.54,5772.23C3220.01,5772.2 3297.09,5722.44 3304.5,5640.38C3312.7,5549.68 3241.78,5382.16 3230.62,5261.26C3214.65,5088.15 3201.72,5079.8 3190.21,5088.15C3169.76,5102.97 3173.67,5107.05 2950.05,5293.03C2705.84,5496.16 2783.25,5763.28 2916.59,5641.43C3058.93,5511.36 3133.58,5228.61 3238.14,5118.7C3251.31,5275.21 3257.73,5573.8 3484.37,5578.93C3539.93,5580.19 3637.51,5472.81 3534.5,5403.26C3180.69,5164.39 3282.8,5000.3 3152.5,5026.01C2989.43,5058.19 2518.89,5419.84 2685.79,5446.46C2763.39,5458.83 3131.41,5159.82 3169.3,5059.3C3261.54,4814.62 3285.58,4733.03 3330.74,4556.59C3336.56,4533.85 3393.99,4350.11 3402.62,4120.26C3404.46,4071.41 3317.05,4159.36 3313.17,4163.3C3069.54,4410.35 2710.71,4574.1 2885.09,4687.45C3003.24,4764.25 3301.82,4444.54 3362.92,4164C3464,3699.92 3331.1,3357.06 3331.1,3357.06C3331.1,3357.06 3299.29,3330.03 3300.78,3322.25L3191.98,3370.89C2979.51,3450.55 2279.89,4091.63 2279.89,4091.63C2231.03,4168.68 2340.7,4238.7 2320.27,4328.78C2328.73,4287.44 2208.3,4242.3 2216.76,4200.96C2214.52,4360.54 2237.05,4393.05 2220.34,4410.64C2220.34,4410.64 2173.78,4251.84 2178.88,4198.32C2173.42,4207.33 2130.87,4434.95 2130.87,4434.95C2130.87,4434.95 2088.71,4298.54 2083.57,4289.9C2077.71,4280.04 2079.91,4498.48 2079.91,4498.48L2009.82,4349.67C2009.82,4349.67 2029.86,4273.65 1979.97,4545.58C1954.94,4388.32 1947.05,4393.47 1888.93,4389.8C1871.36,4388.69 1914.82,4613.57 1914.82,4613.57C1914.82,4613.57 1853.9,4434.91 1840.55,4434.85C1822.49,4434.77 1867.94,4449.74 1835.41,4660.85C1817.93,4517.51 1793.14,4505.68 1767.3,4490.02C1747.01,4477.73 1785.28,4768.7 1785.28,4768.7C1785.28,4768.7 1698.82,4588.73 1693.79,4603.59C1689.41,4616.56 1691.86,4615.36 1717.62,4832.95C1704.75,4800.51 1704.99,4803.05 1613.47,4607.62C1611.49,4736.5 1648.81,4780.58 1674.38,4905.1C1656.48,4840.78 1617.61,4795.81 1582.22,4740.36C1605.45,4886.66 1584.35,4831.07 1624.51,4974.6C1562.57,4866.44 1587.12,4921.3 1533.81,4808.41C1528.74,4842.87 1540.4,5099.77 1540.4,5099.77L1477.79,4913.67C1477.79,4913.67 1435.3,5036.26 1415.67,5072.2C1450.5,4989.38 1468.21,4938.49 1451.55,4904.79C1446.36,4894.3 1443.06,4904.07 1322.75,4974.32C1333.22,4964.48 1449.23,4855.46 1451.79,4849.31C1455.44,4840.55 1446.8,4848.65 1336.32,4876.55C1314.02,4882.18 1694.85,4611.47 1363.23,4733.57C1544.59,4634.92 1553.98,4637.68 1550.62,4620.49C1549.13,4612.88 1416.13,4635.41 1404.53,4637.38C1512.54,4596.53 1508.2,4589.81 1615.19,4547.76C1475.98,4545.59 1472.65,4556.37 1445.86,4535.34C1429.81,4522.75 1450.88,4524.75 1685.71,4448.78C1628.78,4444.15 1571.85,4439.52 1514.93,4434.89C1539.04,4431.95 1763.26,4375.97 1819.24,4355.89C1847.75,4345.66 1625.28,4318.93 1625.28,4318.93C1625.28,4318.93 1785.55,4318.46 1881.22,4272.91C1936.82,4246.44 1770.63,4211.08 1770.63,4211.08C1770.63,4211.08 1895.74,4201.55 2100.1,4183.37C2034.39,4159.16 1877.12,4102.95 1919.48,4080.37C1953.22,4062.4 2182.66,4107.88 2182.66,4107.88L2004.44,4004.4L2278.78,4045.94C2278.78,4045.94 2492.86,3881.91 2685.48,3723.53C2742.36,3676.76 3118.39,3402.68 3118.39,3402.68C3121.35,3416.28 2060.97,3724.03 2066.27,3731.54C2050.8,3804.89 2183.9,3825.53 2174.52,3928.14L2090.63,3805.83C2067,3870.75 2042.6,3936.05 2048.82,3986.24L1983.32,3848.79C1952.46,3925.29 1935.18,3992.42 1950.74,4036.89L1868.26,3941.21C1824.74,4036.26 1810.41,4143.47 1810.41,4143.47L1738.53,4007.2L1641.32,4267.49C1641.32,4267.49 1598.25,4082.78 1589.09,4085.79C1557.95,4096.02 1560.29,4321.34 1553.27,4341.71C1564.37,4225.24 1455.28,4196.94 1455.28,4196.94C1455.28,4196.94 1419.32,4459.23 1418.83,4459.23C1415.95,4459.22 1339.18,4305.99 1339.18,4305.99C1339.18,4305.99 1305.07,4394.1 1295.9,4580.73C1297.29,4518.9 1221.13,4396.9 1221.13,4396.9C1221.13,4396.9 1237.07,4669.85 1216.05,4690.69C1210.99,4695.7 1131.59,4487.67 1128.25,4478.7C1118.5,4610.14 1124.32,4718.69 1099.18,4736.48C1097.47,4737.69 1070.03,4510.59 1048.78,4516.09C1033.66,4519.99 1015.21,4564.17 1004.93,4747.94C991.976,4704.56 1003.04,4623.45 990.089,4580.08C985.506,4626.3 869.195,4798.3 869.195,4798.3C869.195,4798.3 871.146,4725.09 925.778,4594.4C820.013,4641.99 756.491,4618.53 756.491,4618.53C756.491,4618.53 975.37,4524.73 975.729,4524.53C964.845,4527.27 832.998,4503.25 832.998,4503.25C832.998,4503.25 874.632,4501.35 1076.82,4447.58C1060.96,4449.14 902.594,4395.17 902.594,4395.17L1115.37,4346.95L972.657,4311.66C972.657,4311.66 980.152,4294.48 1266.01,4257.12C1218.39,4239.39 1170.77,4221.66 1123.15,4203.93C1338.69,4174.1 1339.48,4178.34 1355.47,4168.44C1388.14,4148.22 1345.8,4151.4 1240.32,4122.68C1103.79,4085.5 1399.76,4100.12 1441.96,4091.43C1537.39,4071.78 1322.21,4006.84 1322.21,4006.84C1322.21,4006.84 1349.25,3991.24 1629.26,3984.9C1409.14,3908.39 1391.66,3905.77 1391.66,3905.77C1391.66,3905.77 1417.47,3893.97 1739.18,3907.29C1725.33,3903.57 1575.75,3781.58 1575.75,3781.58C1575.75,3781.58 1873.33,3890.94 1870.77,3866.97C1870.63,3865.72 1764.59,3698.29 1764.59,3698.29C1764.59,3698.29 1972.34,3802.9 1992.29,3793.04C2007.17,3785.68 1908.04,3602.03 1920.37,3591.78C1932.7,3581.53 1907.97,3687.12 2066.27,3731.54C2066.27,3731.54 3193.64,3390.92 3281.11,3315.86L3165.72,3210.34C2967.22,3087.9 2654.55,2934.72 2396.85,2779.18C1960.53,2515.81 1767.5,2644.53 1721.33,2673.56C1622.73,2735.56 1273.56,3013.9 1273.56,3013.9C1273.56,3013.9 1263.76,2831.5 1507.28,2659.54C1686.33,2533.1 1662.76,2531.73 1761.92,2495.46C1676.56,2472.61 1565.86,2426.45 1417.5,2502.75C1059.07,2687.08 901.312,3000.56 901.312,3000.56C901.312,3000.56 931.383,2793.55 1066.36,2637.79C1329.33,2334.33 1445.29,2322.65 1445.49,2322.59C1199.22,2305.19 1102.05,2344.6 890.696,2472.19C614.241,2639.09 520.344,2881.73 512.036,2924.53C507.59,2830.98 704.277,2354.14 966.305,2215.56C1245.33,2067.99 1477.92,2258.35 1623.85,2327.99C1878.41,2449.47 2621.1,2928.1 2818.99,3024.53C2960.59,3093.53 3125.01,3202.38 3275.96,3291.55" style="fill:none;"/>
    </g>
</svg>
