<?xml version="1.0" encoding="UTF-8" standalone="no"?>
<!DOCTYPE svg PUBLIC "-//W3C//DTD SVG 1.1//EN" "http://www.w3.org/Graphics/SVG/1.1/DTD/svg11.dtd">
<svg width="100%" height="100%" viewBox="0 0 6615 6615" version="1.1" xmlns="http://www.w3.org/2000/svg" xmlns:xlink="http://www.w3.org/1999/xlink" xml:space="preserve" xmlns:serif="http://www.serif.com/" style="fill-rule:evenodd;clip-rule:evenodd;stroke-linejoin:round;stroke-miterlimit:2;">
    <path d="M3388.66,5531.7C3421.56,5522.79 3479.27,5393.01 3637.62,5496.79C3830.14,5622.96 3889.55,5491.79 3889.55,5491.79C3877.28,5487.52 3852.64,5499.26 3712.42,5446.56C3669,5430.24 3570.57,5385.08 3543.51,5377.72C3874.58,5254.55 3881.01,5290.03 4196.84,5132.73C4189.75,5101.72 4030.35,4721.91 4015.43,4686.36C3949.41,4529.05 3952.19,4529.49 3876.44,4376.8C3871.58,4401.71 3842.73,4549.46 3835.29,4690.87C3815.78,5061.18 3673.7,5213.76 3845.03,5143.48C4033.63,5066.12 4425.39,4907.98 4526.36,4852.84C4411.41,4795.48 4253.74,4852.96 3964.28,4543.55C4144.04,4962.54 4159.8,4981.15 4206.67,5111.25C4220.98,5150.96 4241.2,5135.75 4715.84,4920.67C4752.79,5033.48 4742.87,5092.12 4818.62,5191.3C4739.86,5282.39 4425.37,5465.69 4292.93,5492.88C4166.84,5518.76 4019.79,5524.27 3889.55,5491.79C4075.98,5201.84 4136.1,5606.51 4294.83,5293.62C4352.39,5180.15 4491.36,5418.52 4565.12,5173.46C4611.9,5018.03 4744.33,5084.54 4779.02,4986.75C4855.32,4771.59 4975.35,5013.05 4976.72,4785.02C4978.08,4559.98 5157.23,4789.54 5139.89,4530.27C5126.11,4324.2 5339.48,4598.62 5277.59,4308.8C5239.93,4132.47 5435.1,4338.49 5389.54,4041.06C5373.01,3933.12 5430.48,3985.93 5444.61,3990.37C5571.66,4030.26 5618.81,4149.94 5486.66,4363.51C5626.34,4132.93 5826.56,4218.6 5897.28,4353.08C5732.25,4119.51 5862.49,4081.66 6041.88,3994.78C5858.17,4031.77 5749.32,3961.86 5736.41,3760.35C5674.64,3919.99 5683.4,4087.66 5444.61,3990.37C5415.84,3978.64 5414.09,3954.85 5435.91,3933.95C5495.11,3877.27 5591.15,3882.86 5468.38,3712.71C5311.85,3495.78 5676.28,3561.22 5491.66,3353.21C5333.8,3175.35 5700.73,3101.22 5474.64,2959.14C5254.96,2821.09 5615.66,2687.76 5393.89,2596.47C5188.6,2511.97 5321.86,2340.55 5263.74,2295.59C5160.84,2216 5237.46,2184.23 5167.19,2118.74C5103.31,2059.19 5136.27,2043.88 5124.91,1988.67C5124.42,1986.29 5061.05,2041.51 5044.62,2062.86C5022.65,2091.4 4982.22,2121.12 4946.32,2138C4906.23,2156.85 4830.8,2177.52 4808.8,2189.61C4799.06,2194.95 4811.5,2215.96 4821.78,2220.08C4868.52,2238.84 4996.08,2290.64 5060.1,2301.54C5098.77,2308.13 5185.01,2293.88 5211.42,2291.48C5310.98,2282.43 5305.31,2346.2 5365.62,2434.78C5472.05,2591.09 5465.74,2632.51 5625.03,2793.02C5692.18,2860.68 5928.79,3080.3 5954.85,2988.7C5989.91,2865.48 5907.62,2657.51 5907.62,2657.51C5907.62,2657.51 5754.71,2311.9 5796.7,2259.73C5858.91,2182.43 5845.07,2007.87 5846.88,1986.34C5852.83,1915.77 5827.31,1794.67 5777.35,1869.25C5747.16,1914.31 5687.51,2005.56 5669.91,2002.91C5641.82,1998.68 5583.29,1913.4 5543.15,1851.12C5498.93,1782.51 5453.73,1678.81 5424.41,1599.62C5398.29,1529.05 5374.93,1452.57 5367.25,1375.98C5358.3,1286.57 5385.9,1088.49 5370.67,1063.16C5355.43,1037.83 5318.71,1161.12 5290.98,1214.57C5257.07,1279.91 5260.18,1311.69 5177.65,1267.7C5119.53,1236.72 4899.78,1083.24 4887.12,1100.24C4880.52,1109.11 5103.02,1321.84 5172.37,1431.01C5201.6,1477.02 5179.27,1571.62 5177.08,1625.68C5176.44,1641.56 5117.43,1636.91 5112.5,1651.49C5106.67,1668.75 5150.87,1706.38 5158.25,1864.09C5160.17,1905.08 5124.91,1988.67 5124.91,1988.67C5124.91,1988.67 5124.37,1829.32 4973.33,1860.34C4824.26,1890.94 4764.17,1889.5 4783.1,1696.69C4807.96,1443.39 4568.14,1754.58 4516.98,1486.05C4468.12,1229.56 4234.4,1545.14 4171.27,1283.36C4139.81,1152.93 3973.21,1225.18 3967.09,1150.34C3962.75,1097.21 4038.18,1122.14 4068.56,1121.02C4129.61,1118.75 4193.59,1099.82 4231.77,1068.84C4141.99,886.401 3984.59,932.617 3962.2,937.694C3853.86,962.253 3842.51,809.133 3839.79,794.54C3833.65,930.831 3828.86,940.912 3737.83,1026.8C3743.78,1023.06 3843.84,968.319 3901,1003.3C3927.49,1019.51 3941.01,1041.33 3955.23,1069.24C3975.73,1109.45 3962.7,1144.41 3940.81,1160.08C3918.91,1175.76 3812.1,1267.26 3697.3,1140.9C3528.77,955.424 3539.5,1287.97 3328.76,1123.68C3123.32,963.521 3170.87,1290.69 2907.08,1133.81C2776.05,1055.87 2644.46,1170.22 2644.46,1170.22C2656.87,1174.09 2681.11,1161.53 2823,1209.55C2866.94,1224.41 2966.82,1266.28 2994.1,1272.74C2667.31,1406.84 2659.7,1371.59 2349.28,1539.3C2357.39,1570.05 2529.32,1944.36 2545.41,1979.38C2616.62,2134.42 2613.82,2134.07 2694.6,2284.16C2698.63,2259.1 2722.56,2110.47 2725.3,1968.9C2732.49,1598.14 2869.43,1440.93 2700.53,1516.86C2514.61,1600.44 2128.31,1771.51 2029.23,1829.97C2146.02,1883.48 2301.7,1820.8 2601.28,2120.42C2407.7,1707.63 2391.33,1689.56 2340.16,1561.09C2324.54,1521.88 2304.84,1537.75 1837.6,1768.47C1796.92,1656.95 1804.89,1598.01 1725.89,1501.4C1801.58,1407.75 2109.81,1214.1 2241.27,1182.53C2366.43,1152.48 2513.22,1142.09 2644.46,1170.22C2485.51,1366.74 2391.91,1160.15 2287.57,1390.4C2216.91,1546.33 2032.03,1371.81 2012.48,1500.63C1980.88,1708.91 1815.3,1610.11 1772.27,1704.53C1722.34,1814.08 1545.36,1710.45 1606.29,1895.53C1691.62,2154.72 1342.24,1900.78 1436.57,2146.44C1525.43,2377.86 1197.95,2182.96 1296.49,2398.67C1403.97,2633.96 1109.86,2412.81 1192.13,2679.85C1205.96,2724.75 1153.96,2730.75 1140.86,2724.18C1016.67,2661.91 935.184,2616.02 1050.17,2412.31C881.82,2596.87 827.003,2527.21 718.809,2393.14C822.431,2548.97 785.198,2662.54 581.399,2702.45C719.658,2692.15 850.098,2701.94 842.637,2929.21C889.309,2731.95 959.8,2646.87 1140.86,2724.18C1169.43,2736.38 1172.54,2758.66 1151.42,2780.28C1094.14,2838.89 964.454,2872.86 1107.85,3004.55C1295.39,3176.77 929.414,3241.77 1106.71,3364.24C1339.6,3525.11 909.17,3669.56 1148.34,3750.03C1366.08,3823.28 1038.21,3989.46 1237.13,4113.91C1410.29,4222.24 1317.61,4367.3 1377.19,4410.3C1482.68,4486.43 1407.16,4520.72 1479.56,4583.85C1545.39,4641.24 1512.96,4657.64 1526.14,4712.44C1526.71,4714.81 1588.22,4657.51 1603.93,4635.63C1624.94,4606.37 1664.35,4575.33 1699.68,4557.26C1739.12,4537.09 1813.81,4513.93 1835.41,4501.12C1844.96,4495.45 1831.83,4474.87 1821.42,4471.09C1774.08,4453.89 1644.87,4406.36 1580.52,4397.59C1541.66,4392.29 1455.94,4409.4 1429.62,4412.67C1330.41,4425.02 1333.96,4361.1 1270.75,4274.57C1159.18,4121.89 1164.11,4080.28 999.579,3925.15C930.221,3859.75 686.449,3648.12 663.444,3740.52C632.494,3864.85 721.644,4069.96 721.644,4069.96C721.644,4069.96 885.95,4410.31 845.719,4463.85C786.112,4543.17 805.744,4717.17 804.647,4738.75C801.049,4809.48 830.575,4929.66 878.034,4853.46C906.702,4807.43 963.294,4714.24 980.968,4716.31C1009.18,4719.6 1070.51,4802.89 1112.7,4863.8C1159.17,4930.91 1207.8,5033.06 1239.73,5111.23C1268.18,5180.88 1294.07,5256.55 1304.28,5332.84C1316.2,5421.91 1295.19,5620.8 1311.26,5645.6C1327.33,5670.41 1359.93,5545.97 1385.88,5491.63C1417.6,5425.2 1413.43,5393.54 1497.37,5434.76C1556.49,5463.79 1781.22,5609.9 1793.31,5592.48C1799.61,5583.4 1570.17,5378.18 1497.23,5271.37C1466.49,5226.36 1485.66,5131.07 1486.06,5076.96C1486.17,5061.07 1545.3,5063.76 1549.74,5049.03C1555,5031.58 1509.57,4995.44 1496.96,4838.06C1493.68,4797.15 1526.14,4712.44 1526.14,4712.44C1526.14,4712.44 1599.97,4848.5 1681.9,4835.67C1864,4807.16 1875.78,4847.66 1922.69,5028.88C1979.46,5248.18 2163.53,4928.57 2199.73,5215.85C2226.35,5427.06 2388.17,5121.74 2467.8,5379.76C2505.12,5500.7 2700.68,5343.5 2707.22,5512C2709.29,5565.27 2641.05,5542.39 2610.73,5544.53C2549.79,5548.83 2486.47,5569.87 2449.34,5602.1C2545.13,5781.45 2700.91,5730.04 2723.12,5724.22C2830.58,5696.07 2847.01,5848.73 2850.22,5863.23C2851.83,5726.81 2856.28,5716.57 2944.4,5627.71C2938.58,5631.65 2840.39,5689.68 2782.1,5656.61C2755.09,5641.29 2740.86,5619.94 2725.71,5592.52C2703.89,5553.01 2715.75,5517.64 2737.11,5501.24C2758.47,5484.85 2871.39,5392.92 2962.41,5521.99C3032.68,5621.65 3094.83,5384.9 3195.84,5521.83C3264.52,5614.93 3286.43,5606.29 3350.7,5536.84" style="fill:none;"/>
</svg>
