<?xml version="1.0" encoding="UTF-8" standalone="no"?>
<svg
   width="100%"
   height="100%"
   viewBox="0 0 1792 1903"
   version="1.1"
   xml:space="preserve"
   style="fill-rule:evenodd;clip-rule:evenodd;stroke-linejoin:round;stroke-miterlimit:2;"
   id="svg1"
   sodipodi:docname="ocean.svg"
   inkscape:version="1.4.2 (f4327f4, 2025-05-13)"
   xmlns:inkscape="http://www.inkscape.org/namespaces/inkscape"
   xmlns:sodipodi="http://sodipodi.sourceforge.net/DTD/sodipodi-0.dtd"
   xmlns="http://www.w3.org/2000/svg"
   xmlns:svg="http://www.w3.org/2000/svg"><defs
   id="defs1" /><sodipodi:namedview
   id="namedview1"
   pagecolor="#ffffff"
   bordercolor="#000000"
   borderopacity="0.25"
   inkscape:showpageshadow="2"
   inkscape:pageopacity="0.0"
   inkscape:pagecheckerboard="0"
   inkscape:deskcolor="#d1d1d1"
   inkscape:zoom="0.22806096"
   inkscape:cx="24.11636"
   inkscape:cy="263.08756"
   inkscape:window-width="1920"
   inkscape:window-height="1112"
   inkscape:window-x="-8"
   inkscape:window-y="-8"
   inkscape:window-maximized="1"
   inkscape:current-layer="layer1" />
    
<g
   inkscape:groupmode="layer"
   id="layer1"
   inkscape:label="Layer 1"><path
     d="m 34.571612,732.9593 c 10.8146,-2.92814 29.7823,-45.58734 81.831998,-11.4768 63.2834,41.47443 82.8111,-1.64042 82.8111,-1.64042 -4.033,-1.40481 -12.1341,2.45472 -58.2238,-14.86963 -14.2712,-5.36386 -46.626998,-20.20694 -55.519798,-22.62766 108.823198,-40.48642 110.936598,-28.82298 214.748498,-80.52888 -2.3301,-10.19322 -54.7254,-135.03767 -59.6291,-146.71948 -21.7019,-51.71235 -20.7866,-51.56407 -45.6839,-101.75636 -1.5997,8.1907 -11.0806,56.75522 -13.5284,103.23562 -6.4105,121.72286 -53.1135,171.87489 3.2009,148.77587 61.9936,-25.42913 190.7683,-77.41022 223.9555,-95.53351 -37.7831,-18.85528 -89.6105,0.0367 -184.7584,-101.66565 59.0888,137.72145 64.2704,143.83761 79.6775,186.60213 4.7021,13.05247 11.3474,8.05488 167.3638,-62.63972 12.1463,37.07905 8.8839,56.35582 33.7834,88.95391 -25.8872,29.94289 -129.2599,90.19213 -172.7939,99.12915 -41.4474,8.50944 -89.7823,10.31842 -132.5923,-0.35579 61.281,-95.30947 81.0394,37.70855 133.2143,-65.14042 18.9196,-37.29515 64.6027,41.05526 88.8469,-39.49729 15.377,-51.08972 58.9083,-29.22734 70.3085,-61.37254 25.0815,-70.72149 64.5347,8.64585 64.9857,-66.30676 0.4463,-73.97111 59.3348,1.4834 53.6336,-83.73806 -4.5311,-67.73555 65.6077,22.46735 45.2606,-72.79908 -12.3785,-57.95997 51.7753,9.75959 36.8008,-88.00691 -5.4345,-35.479 13.4556,-18.12019 18.1003,-16.66184 41.7631,13.11377 57.2597,52.45366 13.8229,122.65411 45.9114,-75.79303 111.7269,-47.6328 134.9717,-3.43051 -54.2477,-76.77311 -11.4382,-89.21382 47.5299,-117.77376 -60.384,12.16038 -96.165,-10.82114 -100.4083,-77.05771 -20.3037,52.47476 -17.4244,107.58728 -95.9162,75.60787 -9.4576,-3.85327 -10.0327,-11.67305 -2.8579,-18.54267 19.4591,-18.63143 51.0258,-16.79584 10.6703,-72.7241 -51.4519,-71.306542 68.3398,-49.793573 7.654,-118.16756 -51.8895,-58.46321 68.7206,-82.83162 -5.5944,-129.53231 -72.2108,-45.37863 46.3539,-89.20248 -26.5447,-119.21108 -67.4777,-27.77211 -23.6743,-84.12021 -42.7786,-98.89715 -33.8232,-26.16515 -8.6388,-36.60579 -31.7359,-58.13381 -21.0003,-19.57421 -10.1654,-24.60622 -13.8994,-42.75094 -0.1614,-0.78507 -20.9923,17.36826 -26.3918,24.38211 -7.2222,9.3831 -20.5089,19.15229 -32.3123,24.70158 -13.1763,6.1935 -37.9686,12.98925 -45.2036,16.96307 -3.1984,1.75553 0.8904,8.66156 4.2683,10.01539 15.3642,6.1678 57.2947,23.19096 78.338,26.77677 12.7095,2.16611 41.0552,-2.51789 49.7383,-3.30796 32.7269,-2.97282 30.862,17.9898 50.686,47.1023 34.9845,51.37947 32.9108,64.99703 85.2695,117.75585 22.0717,22.24098 99.8446,94.42813 108.4109,64.32168 11.5255,-40.5038 -15.5224,-108.86344 -15.5224,-108.86344 0,0 -50.2627,-113.60354 -36.4616,-130.75196 20.4483,-25.40855 15.8989,-82.78792 16.4954,-89.86656 1.9534,-23.19414 -6.4342,-63.00041 -22.8577,-38.48267 -9.9207,14.80921 -29.5293,44.80411 -35.3132,43.93351 -9.2325,-1.39064 -28.472,-29.42092 -41.6654,-49.89486 -14.5354,-22.55114 -29.3932,-56.64156 -39.0301,-82.67063 -8.5859,-23.19471 -16.2664,-48.33408 -18.7887,-73.50902 -2.9438,-29.39045 6.1305,-94.50119 1.1229,-102.826 -5.0087,-8.32228 -17.0799,32.20127 -26.196,49.76889 -11.1453,21.47849 -10.1235,31.92573 -37.2495,17.46747 -19.1044,-10.18392 -91.3351,-60.63622 -95.4968,-55.04611 -2.17,2.91335 70.9638,72.84007 93.7606,108.72443 9.6072,15.12368 2.2678,46.21799 1.5484,63.98865 -0.2109,5.2189 -19.6078,3.69057 -21.2265,8.48189 -1.9164,5.67308 12.6124,18.0424 15.0363,69.88515 0.6301,13.47304 -10.959,40.95047 -10.959,40.95047 0,0 -0.1764,-52.38109 -49.8242,-42.18735 -48.9975,10.06046 -68.7502,9.58848 -62.5292,-53.78958 8.1714,-83.25852 -70.6585,19.02949 -87.4731,-69.2372 -16.0603,-84.31024 -92.8878,19.42219 -113.6372,-66.62659 -10.3398,-42.87381 -65.1024,-19.12228 -67.1128,-43.72081 -1.4267,-17.46352 23.3694,-9.27012 33.3535,-9.64047 20.0657,-0.74606 41.0967,-6.96813 53.6451,-17.15007 -29.5074,-59.96777 -81.2484,-44.77749 -88.6089,-43.10887 -35.6076,8.07217 -39.3401,-42.25686 -40.2336,-47.05529 -2.0205,44.80004 -3.5949,48.11437 -33.5145,76.34621 1.9535,-1.23352 34.8449,-19.22405 53.6356,-7.72526 8.7058,5.3279 13.1485,12.50035 17.8241,21.67347 6.7401,13.21646 2.4556,24.70819 -4.7419,29.86135 -7.1941,5.15165 -42.3029,35.22967 -80.0423,-6.30441 -55.395598,-60.96864 -51.868998,48.34144 -121.139498,-5.66305 -67.5265,-52.64441 -51.8973,54.89823 -138.604402,3.3291 -43.0722,-25.61419 -86.3236,11.97215 -86.3236,11.97215 4.0775,1.26975 12.0465,-2.8579 58.6851,12.92507 14.4412,4.88681 47.2722,18.64767 56.2415,20.77141 -107.4177,44.07627 -109.9186,32.4928 -211.9569,87.61715 2.6689,10.11048 59.1816,133.14503 64.4708,144.65914 23.4065,50.96087 22.4867,50.84401 49.0381,100.18014 1.3253,-8.23721 9.1895,-57.0911 10.092,-103.62787 2.3657,-121.86818 47.3767,-173.54305 -8.1407,-148.58654 -61.1132,27.47405 -188.0913,83.70405 -220.6581,102.91998 38.3886,17.5904 89.5584,-3.0142 188.0314,95.47339 -63.6291,-135.68458 -69.0121,-141.62545 -85.829,-183.85461 -5.1347,-12.88933 -11.6088,-7.67217 -165.1914,68.16653 -13.3717,-36.65529 -10.7527,-56.03031 -36.7195,-87.78502 24.878,-30.78437 126.1933,-94.43558 169.4059,-104.81277 41.1412,-9.88089 89.3889,-13.29505 132.5308,-4.046 -52.2501,64.59501 -83.0126,-3.31226 -117.3108,72.37214 -23.228,51.25437 -83.9984,-6.11136 -90.4229,36.23458 -10.3875,68.4594 -64.8173,35.98284 -78.9614,67.01926 -16.41,36.01218 -74.5832,1.9473 -54.5545,62.78521 28.047,85.19464 -86.79531,1.72387 -55.78891,82.47131 29.21051,76.06839 -78.43215,12.00552 -46.04387,82.90858 35.33009,77.34185 -61.34618,4.64937 -34.30382,92.42495 4.54507,14.7617 -12.54727,16.73358 -16.8513,14.574 -40.82362,-20.46914 -67.6079,-35.5559 -29.80969,-102.51282 -55.33889,60.66381 -73.35747,37.76554 -108.91954,-6.30099 34.05987,51.22278 21.82081,88.55104 -45.16826,101.66868 45.44744,-3.38527 88.32344,-0.16485 85.86976,74.53623 15.34057,-64.83955 38.51192,-92.80666 98.02773,-67.3911 9.39085,4.01094 10.41311,11.33159 3.46981,18.43726 -18.82868,19.26678 -61.45561,30.43401 -14.32106,73.71935 61.6429,56.61098 -58.65199,77.9767 -0.37385,118.23099 76.55316,52.878091 -64.93173,100.35831 13.6851,126.80959 71.56855,24.07829 -36.20338,78.70437 29.18198,119.60923 56.91858,35.60715 26.45617,83.28779 46.03958,97.42135 34.67424,25.02812 9.85055,36.29672 33.65104,57.04719 21.6373,18.86734 10.9754,24.25546 15.3093,42.26877 0.1888,0.77902 20.4058,-18.05666 25.5688,-25.24834 6.9073,-9.617 19.8622,-19.82189 31.4738,-25.75983 12.963,-6.62821 37.5166,-14.24336 44.6157,-18.45357 3.1364,-1.86203 -1.1774,-8.6281 -4.5992,-9.87086 -15.5608,-5.65401 -58.0341,-21.27581 -79.1838,-24.15904 -12.7753,-1.74297 -40.9507,3.88182 -49.60027,4.95696 -32.61041,4.05975 -31.44424,-16.95204 -52.2243,-45.39301 -36.67135,-50.18845 -35.05132,-63.86477 -89.13249,-114.8573 -22.79916,-21.49597 -102.92628,-91.0604 -110.48863,-60.68434 -10.17356,40.86201 19.13124,108.28671 19.13124,108.28671 0,0 54.00696,111.87174 40.78252,129.47044 -19.59235,26.07391 -13.14015,83.26885 -13.50109,90.36099 -1.18189,23.24822 8.52297,62.75283 24.12303,37.70559 9.42273,-15.13042 28.02602,-45.7629 33.83565,-45.0812 9.27228,1.08041 29.43358,28.45742 43.30028,48.48041 15.27609,22.05727 31.25809,55.63278 41.75376,81.32973 9.35038,22.89654 17.86228,47.7675 21.22023,72.84586 3.91916,29.27399 -2.98848,94.65138 2.29246,102.80306 5.28209,8.15523 16.00019,-32.74735 24.5292,-50.60899 10.42444,-21.83796 9.05674,-32.24447 36.64781,-18.69386 19.4311,9.54269 93.2993,57.56775 97.2737,51.84291 2.0713,-2.98448 -73.3454,-70.44268 -97.3213,-105.55113 -10.105,-14.79522 -3.8009,-46.11541 -3.6727,-63.90254 0.039,-5.22258 19.4755,-4.33827 20.9339,-9.18256 1.7255,-5.73348 -13.2049,-17.61324 -17.351,-69.3462 -1.0778,-13.44411 9.5927,-41.28989 9.5927,-41.28989 0,0 24.2669,44.72437 51.1993,40.50581 59.857,-9.37134 63.7291,3.94107 79.1478,63.51052 18.658,72.08182 79.1636,-32.9735 91.065,61.45741 8.7486,69.42233 61.939,-30.9359 88.1126,53.87488 12.2692,39.7565 76.5493,-11.91545 78.6995,43.46992 0.6795,17.50822 -21.7505,9.98876 -31.7191,10.69087 -20.0277,1.41253 -40.844,8.33099 -53.046,18.92477 31.483,58.95352 82.6896,42.05064 89.9918,40.14058 35.3225,-9.25211 40.7204,40.92671 41.7757,45.69072 0.5291,-44.83978 1.9936,-48.20595 30.9594,-77.41367 -1.9126,1.2942 -34.1885,20.36846 -53.349,9.50087 -8.8783,-5.03716 -13.5573,-12.05646 -18.5348,-21.06915 -7.1732,-12.98673 -3.274,-24.61309 3.7462,-30.00282 7.0225,-5.38871 44.1375,-35.6083 74.0557,6.82225 23.099002,32.75507 43.527602,-45.06221 76.729102,-0.057 22.5764,30.60451 29.7785,27.76663 50.9032,4.93514"
     style="clip-rule:evenodd;vector-effect:non-scaling-stroke;fill:none;fill-rule:evenodd;stroke:#000000;stroke-width:0.328702;stroke-linejoin:round;stroke-miterlimit:2;stroke-dasharray:none;stroke-opacity:1;-inkscape-stroke:hairline"
     id="path1-8" /></g></svg>
