<?xml version="1.0" encoding="UTF-8" standalone="no"?>
<svg
   width="100%"
   height="100%"
   viewBox="0 0 1792 1903"
   version="1.1"
   xml:space="preserve"
   style="fill-rule:evenodd;clip-rule:evenodd;stroke-linejoin:round;stroke-miterlimit:2;"
   id="svg1"
   sodipodi:docname="ocean3.svg"
   inkscape:version="1.4.2 (f4327f4, 2025-05-13)"
   xmlns:inkscape="http://www.inkscape.org/namespaces/inkscape"
   xmlns:sodipodi="http://sodipodi.sourceforge.net/DTD/sodipodi-0.dtd"
   xmlns="http://www.w3.org/2000/svg"
   xmlns:svg="http://www.w3.org/2000/svg"><defs
   id="defs1" /><sodipodi:namedview
   id="namedview1"
   pagecolor="#ffffff"
   bordercolor="#000000"
   borderopacity="0.25"
   inkscape:showpageshadow="2"
   inkscape:pageopacity="0.0"
   inkscape:pagecheckerboard="0"
   inkscape:deskcolor="#d1d1d1"
   inkscape:zoom="0.45612191"
   inkscape:cx="895.59389"
   inkscape:cy="951.5"
   inkscape:window-width="1920"
   inkscape:window-height="1112"
   inkscape:window-x="-8"
   inkscape:window-y="-8"
   inkscape:window-maximized="1"
   inkscape:current-layer="layer1" />
    
<g
   inkscape:groupmode="layer"
   id="layer1"
   inkscape:label="Layer 1"><path
     d="M0.0,100.0c2.719,11.843 38.438,48.75 8.994,89.157c-32.006,43.921 -1.706,89.806 -1.706,89.806c1.692,-4.311 -2.149,-13.252 18.561,-62.468c6.413,-15.239 23.86,-49.675 26.858,-59.209c39.291,119.625 26.565,121.425 78.226,236.093c11.143,-2.096 148.631,-53.62 161.497,-58.441c56.948,-21.341 56.75,-20.355 112.185,-45.224c-8.806,-2.076 -61.034,-14.395 -111.299,-19.003c-131.631,-12.068 -184.01,-64.786 -161.349,-2.791c24.946,68.247 75.856,209.977 94.098,246.702c22.022,-40.149 3.731,-97.105 117.942,-195.929c-151.725,58.233 -158.571,63.591 -205.56,78.487c-14.341,4.546 -9.205,11.958 60.838,183.995c-40.691,11.602 -61.442,7.255 -97.816,32.864c-31.355,-29.31 -92.295,-143.863 -100.147,-191.413c-7.475,-45.27 -7.402,-97.723 5.966,-143.663c65.792,61.555 -6.357,92.046 64.982,147.093c31.328,24.174 -2.17,77.318 36.278,86.073c32.789,7.466 33.862,72.914 66.328,90.635c37.67,20.561 30.347,55.931 63.651,63.909c53.835,12.894 28.573,56.51 80.534,60.278c52.071,3.775 13,56.512 90.397,62.772c57.665,4.664 16.345,40.16 97.292,44.318c16.727,0.86 16.233,14.945 13.819,19.578c-15.55,29.85 -26.428,80.442 -107.313,43.504c65.26,48.03 9.665,68.507 -8.402,99.067c66.359,-37.736 84.896,-28.741 113.363,36.359c-10.636,-65.946 -6,-78.837 53.876,-89.694c-60.895,-11.428 -56.474,-48.273 -51.524,-89.236c1.329,-10.995 13.071,-10.381 20.214,-2.317c19.37,21.87 51.18,37.344 79.247,21.032c35.055,-20.375 68.659,41.645 111.914,15.461c50.93,-30.831 70.659,43.031 146.053,-6.028c72.457,-47.148 84.078,35.472 139.761,-26.937c42.043,-47.121 92.152,-22.114 108.969,-42.193c29.774,-35.552 40.028,-7.822 64.329,-31.944c22.095,-21.933 27.09,-9.981 46.911,-13.262c0.858,-0.142 -17.937,-23.479 -25.312,-29.626c-9.862,-8.22 -19.889,-23.029 -25.406,-36.052c-6.158,-14.54 -12.478,-41.691 -16.479,-49.697c-1.768,-3.541 -9.423,0.6 -11.034,4.202c-7.329,16.39 -27.542,61.11 -32.312,83.762c-2.882,13.681 1.003,44.595 1.492,54.037c1.845,35.588 -20.791,32.686 -53.174,52.942c-57.147,35.748 -71.815,32.928 -131.189,87.445c-25.029,22.981 -106.525,104.22 -74.262,114.77c43.406,14.193 118.619,-12.241 118.619,-12.241c0,0 125.219,-49.684 143.221,-34.008c26.673,23.227 89.04,20.711 96.684,21.655c25.053,3.093 68.54,-4.321 42.665,-23.149c-15.63,-11.373 -47.31,-33.884 -46.122,-40.114c1.896,-9.946 33.08,-29.615 55.819,-43.051c25.049,-14.801 62.614,-29.468 91.226,-38.815c25.494,-8.328 53.061,-15.592 80.447,-17.266c31.97,-1.954 102.143,10.618 111.375,5.542c9.231,-5.076 -34.173,-19.861 -52.827,-30.479c-22.805,-12.981 -34.169,-12.314 -17.36,-41.099c11.839,-20.274 69.548,-96.423 63.666,-101.167c-3.067,-2.474 -81.915,73.834 -121.76,97.027c-16.792,9.774 -50.178,0.512 -69.404,-1.015c-5.648,-0.449 -3.174,-21.403 -8.299,-23.358c-6.067,-2.316 -20.083,12.907 -76.361,13.353c-14.625,0.116 -43.913,-13.598 -43.913,-13.598c0,-0 45.329,-22.758 47.81,-52.217c2.723,-32.343 21.889,-64.731 60.918,-65.494c57.119,-1.117 47.134,-108.312 94.498,-109.899c44.739,-1.5 23.217,-99.413 61.187,-102.31c47.689,-3.638 23.461,-69.741 50.203,-70.884c18.984,-0.812 9.061,25.711 9.043,36.547c-0.036,21.774 5.822,44.826 16.327,58.853c66.224,-29.453 51.939,-86.158 50.441,-94.204c-7.249,-38.927 47.447,-40.851 52.682,-41.62c-48.46,-4.072 -51.984,-5.918 -81.317,-39.528c1.251,2.17 19.363,38.568 6.113,58.444c-6.14,9.21 -14.099,13.723 -24.236,18.405c-14.605,6.745 -26.878,1.62 -32.159,-6.395c-5.28,-8.015 -8.67,-67.305 4.721,-80.695c42.055,-42.055 -15.414,-118.417 18.429,-167.324c41.052,-59.323 -34.229,-86.224 -6.143,-127.587c30.529,-44.96 -2.688,-86.275 -2.688,-86.275c-1.548,4.365 2.588,13.173 -16.476,63.049c-5.904,15.444 -22.197,50.44 -24.876,60.069c-43.243,-118.254 -30.584,-120.476 -86.025,-233.365c-11.068,2.466 -146.768,58.527 -159.467,63.773c-56.208,23.221 -56.042,22.229 -110.621,48.925c8.87,1.783 61.479,12.36 111.868,15.296c131.96,7.69 186.062,58.639 161.354,-2.57c-27.199,-67.38 -82.789,-207.341 -102.241,-243.44c-20.676,40.858 -0.503,97.176 -111.369,199.739c149.708,-63.241 156.371,-68.824 202.84,-85.272c14.182,-5.02 8.802,-12.257 -66.915,-181.872c40.282,-12.947 61.166,-9.293 96.669,-36.096c32.312,28.254 97.023,140.719 106.45,187.981c8.974,44.997 10.644,97.424 -1.191,143.783c-67.8,-59.337 3.297,-92.207 -69.831,-144.854c-32.114,-23.12 -0.4,-77.347 -39.118,-84.82c-33.018,-6.373 -36.265,-71.749 -69.301,-88.382c-38.332,-19.299 -32.189,-54.893 -65.739,-61.76c-54.234,-11.099 -30.434,-55.53 -82.492,-57.57c-52.167,-2.044 -14.87,-56.049 -92.432,-59.735c-57.788,-2.746 -17.67,-39.594 -98.71,-41.062c-16.747,-0.303 -16.72,-14.397 -14.462,-19.108c14.551,-30.35 30.051,-29.478 71.688,-15.521c-35.85,-39.414 -13.523,-58.046 3.519,-89.188c-36.582,32.439 -68.055,9.643 -82.298,-25.388c1.727,16.651 16.981,69.927 -44.041,70.326c32.888,4.834 54.719,18.666 51.132,59.771c-0.962,11.033 -12.719,10.809 -20.125,2.987c-20.086,-21.215 -52.393,-35.624 -79.902,-18.388c-34.36,21.528 -70.004,-39.342 -112.366,-11.735c-49.878,32.505 -72.049,-40.661 -145.772,10.875c-70.851,49.529 -85.21,-32.66 -138.79,31.564c-40.454,48.491 -91.366,25.163 -107.507,45.79c-28.577,36.52 -39.746,9.147 -63.232,34.063c-21.354,22.654 -26.744,10.874 -46.445,14.812c-0.853,0.171 18.707,22.87 26.282,28.769c10.13,7.888 20.643,22.355 26.589,35.189c6.638,14.326 13.856,41.253 18.121,49.122c1.885,3.479 9.398,-0.913 10.889,-4.567c6.78,-16.624 25.496,-61.991 29.512,-84.789c2.425,-13.769 -2.484,-44.537 -3.287,-53.957c-3.025,-35.508 19.695,-33.358 51.386,-54.679c55.929,-37.626 70.682,-35.296 128.213,-91.754c24.252,-23.8 103.005,-107.701 70.409,-117.173c-43.854,-12.744 -118.147,16.173 -118.147,16.173c-0,0 -123.5,53.817 -142.013,38.747c-27.429,-22.329 -89.678,-17.743 -97.35,-18.432c-25.142,-2.259 -68.358,6.595 -41.872,24.553c15.999,10.848 48.409,32.294 47.429,38.561c-1.565,10.003 -32.078,30.697 -54.358,44.881c-24.544,15.625 -61.601,31.531 -89.887,41.823c-25.204,9.17 -52.513,17.346 -79.829,19.929c-31.888,3.015 -102.44,-7.22 -111.497,-1.84c-9.058,5.379 34.813,18.715 53.81,28.708c23.223,12.216 34.558,11.171 18.715,40.5c-11.159,20.655 -66.307,98.679 -60.271,103.225c3.148,2.371 79.418,-76.514 118.471,-101.017c16.458,-10.327 50.133,-2.179 69.399,-1.291c5.66,0.26 3.883,21.285 9.07,23.07c6.141,2.113 19.643,-13.568 75.875,-15.883c14.614,-0.601 44.341,12.132 44.341,12.132c-0,0 -44.548,24.251 -46.049,53.776c-1.647,32.416 -19.728,65.422 -58.709,67.482c-57.051,3.014 -43.511,109.817 -90.796,112.977c-44.665,2.985 -28.233,65.013 -55.16,91.94c-31.904,31.905 9.691,83.453 -50.416,83.453c-19.001,0 -9.91,-23.991 -10.252,-34.821c-0.687,-21.764 -7.307,-44.609 -18.273,-58.279c-65.209,31.636 -49.049,87.835 -47.284,95.828c8.538,38.664 -46.064,42.404 -51.271,43.346c48.569,2.461 52.153,4.189 82.585,36.806c-1.322,-2.127 -20.633,-37.904 -8.05,-58.209c5.831,-9.409 13.635,-14.184 23.611,-19.2c14.373,-7.226 26.809,-2.512 32.353,5.323c5.544,7.835 12.854,50.955 -0.537,64.346c-30.735,30.736 6.655,67.531 -16.551,90.736c-17.359,17.36 -22.032,35.453 1.819,59.305"
     style="fill-rule:evenodd;clip-rule:evenodd;stroke-linejoin:round;stroke-miterlimit:2;fill:none;stroke:#000000;stroke-opacity:1;vector-effect:non-scaling-stroke;-inkscape-stroke:hairline;stroke-width:1;stroke-dasharray:none"
     id="path1" /></g></svg>
