<?xml version="1.0" encoding="UTF-8" standalone="no"?>
<!-- Created with Inkscape (http://www.inkscape.org/) -->

<svg
   width="540mm"
   height="540mm"
   viewBox="0 0 540 540"
   version="1.1"
   id="svg1"
   inkscape:version="1.4.2 (f4327f4, 2025-05-13)"
   sodipodi:docname="pentagon_fractal.svg"
   xmlns:inkscape="http://www.inkscape.org/namespaces/inkscape"
   xmlns:sodipodi="http://sodipodi.sourceforge.net/DTD/sodipodi-0.dtd"
   xmlns="http://www.w3.org/2000/svg"
   xmlns:svg="http://www.w3.org/2000/svg">
  <sodipodi:namedview
     id="namedview1"
     pagecolor="#ffffff"
     bordercolor="#000000"
     borderopacity="0.25"
     inkscape:showpageshadow="2"
     inkscape:pageopacity="0.0"
     inkscape:pagecheckerboard="0"
     inkscape:deskcolor="#d1d1d1"
     inkscape:document-units="mm"
     inkscape:zoom="0.28991378"
     inkscape:cx="262.1469"
     inkscape:cy="952.00718"
     inkscape:window-width="1920"
     inkscape:window-height="1112"
     inkscape:window-x="-8"
     inkscape:window-y="-8"
     inkscape:window-maximized="1"
     inkscape:current-layer="layer1" />
  <defs
     id="defs1" />
  <g
     inkscape:label="Layer 1"
     inkscape:groupmode="layer"
     id="layer1">
    <path
       id="path2"
       style="vector-effect:non-scaling-stroke;fill:none;stroke:#000000;stroke-width:0.253938;stroke-dasharray:none;stroke-opacity:1;-inkscape-stroke:hairline"
       d="m 500.3382,178.60128 -10.93626,20.65191 v 0 l -23.0206,-4.01917 -10.93629,20.65188 v 0 l 16.26166,16.78278 v 0 l 20.9865,-10.27958 v 0 l 16.26165,16.78279 v 0 l -10.93625,20.65192 v 0 l -23.02065,-4.01916 v 0 l -3.29125,-23.13597 v 0 l -23.02064,-4.01915 v 0 l -10.93627,20.65191 v 0 l 16.26164,16.78278 v 0 l -10.93623,20.65194 v 0 l -23.02065,-4.01922 v 0 l -3.29125,-23.13591 v 0 l 20.98649,-10.27959 v 0 l -3.29127,-23.13589 v 0 l -23.02062,-4.01921 v 0 l -10.93625,20.65191 v 0 l -23.02064,-4.0192 v 0 l -10.93624,20.65193 v 0 l 16.26165,16.78279 v 0 l -10.93627,20.65188 v 0 l -23.0206,-4.01918 v 0 l -3.29128,-23.13593 v 0 l -23.02064,-4.0192 v 0 l -10.93625,20.65192 v 0 l 16.26166,16.78279 v 0 l 20.98651,-10.27958 v 0 l 16.26164,16.78278 v 0 l -10.93626,20.65191 v 0 l -23.0206,-4.01918 v 0 l -10.93627,20.65188 v 0 l 16.26164,16.78279 v 0 l 20.98651,-10.27958 v 0 l 16.26167,16.78278 v 0 l -10.93625,20.65193 v 0 l 16.26165,16.7828 v 0 l 20.98649,-10.27961 v 0 l -3.29126,-23.13589 v 0 L 417.735,363.93946 v 0 l 16.26167,16.78279 v 0 l -10.93627,20.65192 v 0 l -23.02062,-4.0192 v 0 l -10.93625,20.65192 v 0 l 16.26166,16.78279 v 0 l 20.98652,-10.27958 v 0 l 16.26164,16.78278 v 0 l -10.93626,20.65191 v 0 l -23.02064,-4.01918 v 0 l -3.29126,-23.13593 v 0 l -23.02064,-4.01919 v 0 l -10.93625,20.65188 v 0 l 16.26166,16.7828 v 0 l -10.93625,20.65193 v 0 l -23.02063,-4.0192 v 0 l -3.29128,-23.13592 v 0 l 20.9865,-10.27961 v 0 l -3.29129,-23.13589 v 0 l -23.02058,-4.01919 v 0 l -10.93629,20.65189 v 0 l -23.02061,-4.01919 v 0 l -3.29128,-23.13591 v 0 l 20.98652,-10.27958 v 0 l 16.26166,16.78279 v 0 l 20.98646,-10.27961 v 0 l -3.29125,-23.1359 v 0 L 339.771,386.83259 v 0 l -3.29129,-23.13594 v 0 l -23.02061,-4.01917 v 0 l -10.93625,20.65188 v 0 l -23.02061,-4.01918 v 0 l -3.29128,-23.13592 v 0 l 20.98648,-10.27958 v 0 l -3.29127,-23.13591 v 0 l -23.02064,-4.01921 v 0 l -10.93623,20.65191 v 0 l 16.26166,16.78279 v 0 l -10.93626,20.65192 v 0 l -23.02063,-4.0192 v 0 l -3.29129,-23.13593 v 0 l -23.02061,-4.01918 v 0 l -10.93627,20.65189 v 0 l 16.26167,16.78278 v 0 l -10.93625,20.65192 v 0 l -23.02063,-4.0192 v 0 l -10.93626,20.65193 v 0 L 192.6361,434.154 v 0 l 20.98651,-10.27961 v 0 l 16.26166,16.78279 v 0 l -10.93629,20.65191 v 0 l -23.02061,-4.01916 v 0 L 192.6361,434.154 v 0 l -23.02066,-4.0192 v 0 l -10.93625,20.6519 v 0 l 16.26167,16.78279 v 0 l -10.93622,20.65192 v 0 l -23.02063,-4.01923 v 0 l -3.29132,-23.13592 v 0 l 20.9865,-10.27956 v 0 l -3.29126,-23.13593 v 0 l -23.02061,-4.01918 v 0 l -10.93628,20.65189 v 0 l -23.020582,-4.0192 v 0 l -3.2913,-23.1359 v 0 l 20.986492,-10.27959 v 0 l 16.26167,16.7828 v 0 l 20.98646,-10.2796 v 0 l -3.29125,-23.1359 v 0 l -23.02064,-4.01919 v 0 l -3.29128,-23.13595 v 0 l 20.98653,-10.27958 v 0 l 16.26165,16.78278 v 0 l -10.93626,20.65194 v 0 l 16.26163,16.78276 v 0 l 20.98653,-10.27959 v 0 l -3.29125,-23.1359 v 0 l 20.98646,-10.2796 v 0 l -3.29124,-23.1359 v 0 l -23.02064,-4.01921 v 0 l -3.2913,-23.13593 v 0 l 20.9865,-10.27957 v 0 l 16.26166,16.7828 v 0 l 20.98653,-10.27959 v 0 l -3.2913,-23.1359 v 0 l -23.02064,-4.01924 v 0 l -10.93625,20.65193 v 0 l -23.02062,-4.0192 v 0 l -3.29126,-23.1359 v 0 l 20.98648,-10.27963 v 0 l -3.29127,-23.13587 v 0 l -23.02062,-4.01922 v 0 l -10.93625,20.65192 v 0 l -23.02063,-4.01921 v 0 l -3.29129,-23.13591 v 0 l -23.0206,-4.01919 v 0 l -10.936238,20.65192 v 0 l 16.261618,16.78275 v 0 l -10.936241,20.65193 v 0 l -23.020635,-4.0192 v 0 l -3.291259,-23.1359 v 0 l 20.986517,-10.27958 v 0 L 90.255608,225.1369 v 0 L 67.23495,221.11767 v 0 L 56.298703,241.7696 v 0 l -23.020635,-4.01921 v 0 l -3.291258,-23.1359 v 0 l 20.986483,-10.2796 v 0 l 16.261657,16.78278 v 0 l 20.986495,-10.27956 v 0 L 84.93016,187.70218 v 0 L 61.909553,183.683 v 0 l -3.291291,-23.13593 v 0 l 20.986516,-10.27959 v 0 l 16.261662,16.78281 v 0 l -10.93628,20.65189 v 0 l 16.26166,16.78279 v 0 l 20.98655,-10.27956 v 0 l -3.29133,-23.13593 v 0 l 20.9865,-10.27959 v 0 l 16.26171,16.78284 v 0 L 145.199,198.22465 v 0 l -23.02064,-4.01925 v 0 l -10.93624,20.65196 v 0 l 16.26163,16.78277 v 0 l 20.98652,-10.2796 v 0 l 16.26165,16.7828 v 0 l 20.98649,-10.27957 v 0 l -3.29127,-23.13593 v 0 l 20.98652,-10.27958 v 0 l 16.26164,16.7828 v 0 l -10.93627,20.65187 v 0 l 16.26166,16.78281 v 0 l 20.9865,-10.27959 v 0 l -3.29127,-23.13591 v 0 l -23.02061,-4.01918 v 0 l -3.29128,-23.13592 v 0 l 20.98651,-10.2796 v 0 l 16.26165,16.7828 v 0 l 20.98647,-10.2796 v 0 l -3.29125,-23.13589 v 0 l -23.02064,-4.01922 v 0 l -3.2913,-23.13592 v 0 l 20.98651,-10.27958 v 0 l -3.29126,-23.1359 v 0 L 239.7101,96.593071 v 0 l -10.93625,20.651879 v 0 l -23.02065,-4.01924 v 0 l -3.29132,-23.135884 v 0 L 223.4484,79.810247 v 0 l 16.2617,16.782824 v 0 l 20.98653,-10.279565 v 0 l -3.29134,-23.135957 v 0 l -23.02064,-4.01923 v 0 l -3.29127,-23.1359 v 0 l 20.98649,-10.279607 v 0 l 16.26165,16.782793 v 0 l -10.93623,20.651944 v 0 l 16.26169,16.782815 v 0 l 20.9865,-10.279607 v 0 l -3.29124,-23.135929 v 0 l 20.98652,-10.279574 v 0 l 16.26162,16.782753 v 0 l -10.93625,20.651921 v 0 l -23.02065,-4.019171 v 0 l -10.93625,20.651921 v 0 l 16.26166,16.782732 v 0 l 20.9865,-10.279542 v 0 l 16.26165,16.782732 v 0 l -10.93626,20.65191 v 0 l -23.02061,-4.01917 v 0 l -3.29128,-23.13593 v 0 l -23.02064,-4.01918 v 0 l -10.93627,20.65189 v 0 l 16.26166,16.78279 v 0 l -10.93624,20.65193 v 0 l 16.26166,16.78279 v 0 l 20.98648,-10.27961 v 0 l 16.26166,16.78279 v 0 l -10.93623,20.65193 v 0 l -23.02065,-4.01921 v 0 l -10.93624,20.6519 v 0 l 16.26166,16.78279 v 0 l 20.98651,-10.27956 v 0 l -3.29128,-23.13592 v 0 l 20.98649,-10.2796 v 0 l 16.26167,16.78282 v 0 l -10.93629,20.65187 v 0 l 16.26167,16.7828 v 0 l 20.9865,-10.27958 v 0 l -3.29127,-23.13593 v 0 l 20.9865,-10.27958 v 0 l 16.26167,16.7828 v 0 l 20.9865,-10.27959 v 0 l -3.29127,-23.13597 v 0 l -23.02065,-4.01916 v 0 l -3.29124,-23.13592 v 0 l 20.98649,-10.27962 v 0 l 16.26165,16.78279 v 0 l -10.93625,20.65191 v 0 l 16.26167,16.78281 v 0 l 20.98652,-10.27957 -3.2913,-23.13593 v 0 l 20.98624,-10.27987 16.26193,16.78306 v 0"
       sodipodi:nodetypes="cccccccccccccccccccccccccccccccccccccccccccccccccccccccccccccccccccccccccccccccccccccccccccccccccccccccccccccccccccccccccccccccccccccccccccccccccccccccccccccccccccccccccccccccccccccccccccccccccccccccccccccccccccccccccccccccccccccccccccccccccccccccccccccccccccccccccccccccccccccccccccccccccccccccccccccccccccccccccccccccccccccccccccccccccccccccccccccccccccccccccccccccccccccccccccccccccccccccccccccccccccccccccccccccccccccccccccccccccccccccccccccccccccccccccccccccccccccccccccccccccccccccc" />
  </g>
</svg>
