<?xml version="1.0" encoding="UTF-8" standalone="no"?>
<!-- Created with Inkscape (http://www.inkscape.org/) -->

<svg
   width="546mm"
   height="546mm"
   viewBox="0 0 546 546"
   version="1.1"
   id="svg1"
   inkscape:version="1.4.2 (f4327f4, 2025-05-13)"
   sodipodi:docname="pentagon_fractal.svg"
   xmlns:inkscape="http://www.inkscape.org/namespaces/inkscape"
   xmlns:sodipodi="http://sodipodi.sourceforge.net/DTD/sodipodi-0.dtd"
   xmlns="http://www.w3.org/2000/svg"
   xmlns:svg="http://www.w3.org/2000/svg">
  <sodipodi:namedview
     id="namedview1"
     pagecolor="#ffffff"
     bordercolor="#000000"
     borderopacity="0.25"
     inkscape:showpageshadow="2"
     inkscape:pageopacity="0.0"
     inkscape:pagecheckerboard="0"
     inkscape:deskcolor="#d1d1d1"
     inkscape:document-units="mm"
     inkscape:zoom="2.3193102"
     inkscape:cx="1406.2371"
     inkscape:cy="422.10826"
     inkscape:window-width="1920"
     inkscape:window-height="1112"
     inkscape:window-x="-8"
     inkscape:window-y="-8"
     inkscape:window-maximized="1"
     inkscape:current-layer="layer1" />
  <defs
     id="defs1" />
  <g
     inkscape:label="Layer 1"
     inkscape:groupmode="layer"
     id="layer1">
    <path
       id="path2"
       style="vector-effect:non-scaling-stroke;fill:none;stroke:#000000;stroke-width:0.26458333;stroke-opacity:1;-inkscape-stroke:hairline;stroke-dasharray:none"
       d="m 369.35186,36.211532 7.52406,23.156748 v 0 l -19.69827,14.31166 7.52404,23.156752 v 0 h 24.34845 v 0 l 7.52409,-23.156752 v 0 h 24.34845 v 0 l 7.52409,23.156752 v 0 l -19.6983,14.311708 v 0 L 389.05014,96.836692 v 0 L 369.35186,111.1484 v 0 l 7.52406,23.15675 v 0 h 24.34845 v 0 l 7.5241,23.15675 v 0 l -19.69833,14.31167 v 0 L 369.35186,157.4619 v 0 l 7.52406,-23.15675 v 0 l -19.69827,-14.31164 v 0 l -19.69832,14.31164 v 0 l 7.52408,23.15675 v 0 l -19.69832,14.31167 v 0 l 7.5241,23.15675 v 0 h 24.34846 v 0 l 7.52404,23.15673 v 0 l -19.69828,14.31166 v 0 l -19.69832,-14.31166 v 0 l -19.69831,14.31166 v 0 l 7.52409,23.15676 v 0 h 24.34846 v 0 l 7.52408,-23.15676 v 0 h 24.34845 v 0 l 7.52406,23.15676 v 0 l -19.69827,14.31165 v 0 l 7.52404,23.15675 v 0 h 24.34845 v 0 l 7.52409,-23.15675 v 0 h 24.34845 v 0 l 7.52409,23.15675 v 0 h 24.34846 v 0 l 7.52406,-23.15675 v 0 l -19.69828,-14.31165 v 0 l 7.52405,-23.15676 v 0 h 24.34846 v 0 l 7.52407,23.15676 v 0 l -19.6983,14.31165 v 0 l 7.52409,23.15675 v 0 h 24.34845 v 0 l 7.5241,-23.15675 v 0 h 24.34845 v 0 l 7.52406,23.15675 v 0 l -19.6983,14.31167 v 0 l -19.69831,-14.31167 v 0 l -19.69831,14.31167 v 0 l 7.52407,23.15673 v 0 h 24.34846 v 0 l 7.52409,23.15676 v 0 l -19.69831,14.31166 v 0 l -19.69831,-14.31166 v 0 l 7.52407,-23.15676 v 0 l -19.6983,-14.31164 v 0 l -19.69828,14.31164 v 0 l 7.52405,23.15676 v 0 l -19.69829,14.31166 v 0 l -19.6983,-14.31166 v 0 l 7.5241,-23.15676 v 0 h 24.34844 v 0 l 7.52405,-23.15673 v 0 l -19.69829,-14.31167 v 0 l -19.6983,14.31167 v 0 l -19.69833,-14.31167 v 0 l -19.69828,14.31167 v 0 l 7.52406,23.15673 v 0 l -19.69827,14.31165 v 0 l -19.69832,-14.31165 v 0 l 7.52408,-23.15673 v 0 l -19.69832,-14.31167 v 0 l -19.69831,14.31167 v 0 l 7.52409,23.15673 v 0 h 24.34846 v 0 l 7.52408,23.15676 v 0 l -19.69832,14.31166 v 0 l -19.69831,-14.31166 v 0 l -19.69828,14.31166 v 0 l 7.52404,23.15673 v 0 H 317.781 v 0 l 7.52409,23.15675 v 0 l -19.69831,14.31166 v 0 l 7.52409,23.15677 v 0 h 24.34846 v 0 l 7.52408,-23.15677 v 0 h 24.34845 v 0 l 7.52406,23.15677 v 0 l -19.69827,14.31168 v 0 L 337.47933,451.7426 v 0 L 317.781,466.05428 v 0 l 7.52409,23.15673 v 0 h 24.34846 v 0 l 7.5241,23.15674 v 0 l -19.69832,14.31163 v 0 L 317.781,512.36775 v 0 l 7.52409,-23.15674 v 0 l -19.69831,-14.31167 v 0 l -19.69828,14.31167 v 0 l 7.52404,23.15674 v 0 l -19.69827,14.31163 v 0 l -19.69831,-14.31163 v 0 l 7.52407,-23.15674 v 0 h 24.34847 v 0 l 7.52404,-23.15673 v 0 L 273.73427,451.7426 v 0 l -19.69831,14.31168 v 0 L 234.33762,451.7426 v 0 l 7.5241,-23.15677 v 0 h 24.34845 v 0 l 7.5241,23.15677 v 0 h 24.34841 v 0 l 7.5241,-23.15677 v 0 L 285.9085,414.27417 v 0 l 7.52404,-23.15675 v 0 l -19.69827,-14.31166 v 0 l -19.69831,14.31166 v 0 l -19.69834,-14.31166 v 0 l 7.5241,-23.15673 v 0 h 24.34845 v 0 l 7.5241,-23.15676 v 0 l -19.69831,-14.31164 v 0 l -19.69834,14.31164 v 0 l 7.5241,23.15676 v 0 l -19.69832,14.31166 v 0 l -19.69828,-14.31166 v 0 l 7.52405,-23.15676 v 0 L 190.2909,316.18063 v 0 l -19.69832,14.31164 v 0 l 7.52408,23.15676 v 0 l -19.69832,14.31166 v 0 l -19.69831,-14.31166 v 0 l -19.69828,14.31166 v 0 l 7.5241,23.15673 v 0 h 24.3484 v 0 l 7.52409,23.15675 v 0 l -19.69831,14.31166 v 0 l -19.69828,-14.31166 v 0 l 7.5241,-23.15675 v 0 l -19.69836,-14.31166 v 0 l -19.698353,14.31166 v 0 l 7.524091,23.15675 v 0 l -19.69832,14.31166 v 0 L 55.276631,414.27417 v 0 l 7.524049,-23.15675 v 0 h 24.348457 v 0 l 7.524091,-23.15673 v 0 l -19.69832,-14.31166 v 0 l -19.698277,14.31166 v 0 L 35.578304,353.64903 v 0 l 7.524091,-23.15676 v 0 h 24.348464 v 0 l 7.524049,23.15676 v 0 h 24.348458 v 0 l 7.524124,-23.15676 v 0 L 87.149137,316.18063 v 0 l 7.524091,-23.15676 v 0 h 24.348522 v 0 l 7.5241,23.15676 v 0 l -19.69836,14.31164 v 0 l 7.52412,23.15676 v 0 h 24.34842 v 0 l 7.52409,-23.15676 v 0 h 24.34846 v 0 l 7.52408,-23.15673 v 0 l -19.69832,-14.31167 v 0 l 7.5241,-23.15675 v 0 h 24.34846 v 0 l 7.52404,23.15675 v 0 h 24.34846 v 0 l 7.52408,-23.15675 v 0 l -19.69831,-14.31165 v 0 l -19.69827,14.31165 v 0 l -19.69832,-14.31165 v 0 l 7.52408,-23.15676 v 0 h 24.34846 v 0 l 7.52405,-23.15673 v 0 L 190.2909,194.93032 v 0 l -19.69832,14.31166 v 0 l -19.69833,-14.31166 v 0 l 7.52409,-23.15675 v 0 L 138.72003,157.4619 v 0 l -19.69828,14.31167 v 0 l 7.5241,23.15675 v 0 l -19.69836,14.31166 v 0 L 87.149137,194.93032 v 0 l 7.524091,-23.15675 v 0 h 24.348522 v 0 l 7.5241,-23.15676 v 0 l -19.69836,-14.31166 v 0 l -19.698353,14.31166 v 0 L 67.450859,134.30515 v 0 l 7.524049,-23.15675 v 0 h 24.348458 v 0 l 7.524124,23.15675 v 0 h 24.34849 v 0 l 7.52405,-23.15675 v 0 L 119.02175,96.836692 v 0 l 7.5241,-23.156752 v 0 h 24.3484 v 0 l 7.52409,23.156752 v 0 L 138.72003,111.1484 v 0 l 7.52409,23.15675 v 0 h 24.34846 v 0 l 7.52408,-23.15675 v 0 h 24.34846 v 0 l 7.52405,23.15675 v 0 l -19.69827,14.31166 v 0 l -19.69832,-14.31166 v 0 l -19.69833,14.31166 v 0 l 7.52409,23.15676 v 0 h 24.34846 v 0 l 7.5241,23.15675 v 0 h 24.34845 v 0 l 7.52405,-23.15675 v 0 h 24.34846 v 0 l 7.5241,23.15675 v 0 l -19.69834,14.31166 v 0 l 7.5241,23.15673 v 0 h 24.34845 v 0 l 7.5241,-23.15673 v 0 l -19.69831,-14.31166 v 0 l 7.52407,-23.15675 v 0 h 24.34847 v 0 l 7.52404,23.15675 v 0 H 317.781 v 0 l 7.52409,-23.15675 v 0 L 305.60678,157.4619 v 0 l 7.52409,-23.15675 v 0 h 24.34846 v 0 l 7.52408,-23.15675 v 0 L 325.30509,96.836692 v 0 L 305.60678,111.1484 v 0 L 285.9085,96.836692 v 0 l 7.52404,-23.156752 v 0 H 317.781 v 0 l 7.52409,23.156752 v 0 h 24.34846 v 0 l 7.5241,-23.156752 -19.69832,-14.31166 v 0 L 345.003,36.211532 h 24.34886 v 0"
       sodipodi:nodetypes="cccccccccccccccccccccccccccccccccccccccccccccccccccccccccccccccccccccccccccccccccccccccccccccccccccccccccccccccccccccccccccccccccccccccccccccccccccccccccccccccccccccccccccccccccccccccccccccccccccccccccccccccccccccccccccccccccccccccccccccccccccccccccccccccccccccccccccccccccccccccccccccccccccccccccccccccccccccccccccccccccccccccccccccccccccccccccccccccccccccccccccccccccccccccccccccccccccccccccccccccccccccccccccccccccccccccccccccccccccccccccccccccccccccccccccccccccccccccccccccccccccccccc" />
  </g>
</svg>
