<?xml version="1.0" encoding="UTF-8" standalone="no"?>
<!DOCTYPE svg PUBLIC "-//W3C//DTD SVG 1.1//EN" "http://www.w3.org/Graphics/SVG/1.1/DTD/svg11.dtd">
<svg width="100%" height="100%" viewBox="0 0 6615 6615" version="1.1" xmlns="http://www.w3.org/2000/svg" xmlns:xlink="http://www.w3.org/1999/xlink" xml:space="preserve" xmlns:serif="http://www.serif.com/" style="fill-rule:evenodd;clip-rule:evenodd;stroke-linejoin:round;stroke-miterlimit:2;">
    <path d="M6541.28,3536.91C6535.37,3554.63 6451.89,3591.02 6443.57,3594.64C6419.89,3604.97 6418.94,3611.46 6223.59,3585.21C6318.75,3696.28 6329.83,3681.9 6468.27,3727.17C6324.76,3823.98 6316.74,3813.05 6161.55,3798.95C6202.66,3855.48 6225.66,3903.8 6499.09,3972.16C6365.93,4091.04 6332.39,4088.94 6129.44,4080.66C6288.42,4205.26 6278.06,4215.85 6439.13,4338.56C6267.06,4353.21 6267.26,4354.83 6099.37,4316.36C6244.76,4391.02 6242.49,4395.25 6348.08,4518.44C6351.59,4522.53 6374.06,4548.74 6319.15,4579.25C6252.27,4616.4 6251.26,4643.05 6150.89,4609.4C6158.68,4740.65 6188.5,4793.66 6204.08,4831.51C6094.55,4807.17 6083.77,4856.42 5987.23,4800.53C6043.5,4839.48 6032.65,4851.18 6015.99,4917.81C5996.54,4995.61 6012.81,4995.53 6048.36,5066.63C5921.89,5056.48 5929.61,5029.78 5914.2,5004.11C5956.79,5070.35 5944.24,5075.25 5927.48,5152.37C5916.33,5203.67 5905.88,5202.1 5903.14,5322.75C5897.01,5298.24 5909.22,5239.19 5816.84,5203.26C5693.43,5155.27 5687.21,5093.07 5688.49,5105.9C5698.33,5204.28 5688.97,5205.17 5712.84,5300.62C5715.45,5311.09 5693.48,5321.88 5777.01,5455.52C5757.97,5422.88 5749.96,5398.84 5703.98,5409.05C5549.94,5443.28 5542.94,5350 5535.5,5305.77C5469.9,5474.8 5536.43,5587.33 5515.9,5674.59C5513.94,5682.88 5509.43,5740.5 5500.4,5718.85C5447.35,5591.52 5381.06,5644.99 5318.95,5528.55C5229.63,5361.06 5209.69,5562.28 5237.08,5617.06C5345.99,5834.89 5251.06,5932.09 5265.85,5902.51C5273.68,5886.85 5205.23,5969.85 5195.04,5929.07C5190.04,5909.07 5139.81,5801.77 5113.16,5789.66C5074.12,5771.91 5078.49,5767.08 5051.2,5734.34C5031.42,5710.6 5021.21,5761.47 5048.99,5798.51C5073.93,5831.76 5047.44,5871.38 5046.78,5895.87C5043.43,6019.86 5065.25,6047.99 5004.73,6117.15C4995.85,6127.31 4975.79,6158.01 4956.05,6148.14C4949.41,6144.82 4949.41,6153.2 4949.41,6152.56C4949.41,5901.91 4882.2,5919.68 4856.48,5833.91C4855.5,5830.68 4857.28,5831.11 4852.05,5791.87C4847.04,5754.3 4839.34,5757.95 4816.64,5727.7C4836.08,5795.73 4797.19,5791.23 4792.3,5844.98C4788.06,5891.67 4809.19,5917.46 4772.39,6013.15C4746.93,6079.35 4759.93,6082.43 4732.56,6148.14C4737.35,6102.57 4775.42,6001.47 4624.13,5789.66C4616.45,5778.91 4590.85,5743.07 4562.06,5636.66C4554.51,5655.86 4550.74,5654.51 4551.11,5674.59C4554.11,5840.11 4554.04,5841.54 4553.32,5856.04C4549.41,5934.27 4536.11,5932.36 4540.04,6010.94C4531.97,5918.15 4531.36,5918.91 4500.21,5831.7C4458.54,5715.03 4451.8,5717.65 4360.92,5632.72C4299.17,5642.87 4300.45,5643.83 4270.93,5646.12C4251.98,5676.62 4233.02,5707.12 4214.07,5737.62C4172.5,5615.24 4091.18,5470.31 3986.95,5375.55C3937.54,5499.06 3929.52,5495.58 3858.1,5556.48C3863.68,5372.69 3852.16,5373.82 3793.68,5198.39C3770.32,5128.31 3762.27,5130.69 3680.7,5039.72C3697.26,5025.08 3765.64,5054.2 3886.06,4905.31C3899.71,4888.44 3896.88,4888.5 3945.26,4776.34C4028.82,4937.28 4029.93,4936.23 4072.78,5263.49C4148.62,5107.35 4146.66,5110.14 4186.06,4940.24C4256.1,5142.75 4251.94,5141.67 4304.94,5349.23C4484.17,5008.72 4436.25,4922.15 4452.68,4951.83C4685.49,5372.39 4565.28,5495.21 4611.25,5556.5C4633.78,5586.55 4664.99,5555.48 4700.37,5095.59C4815.08,5241.62 4817.82,5241.76 4860.73,5435.99C4957.82,5875.45 4838.04,4881.04 4890.33,4898.97C5107.61,4973.47 5179.13,5228.87 5249.75,5222.45C5324.89,5215.62 5133.51,5036.37 5175.75,4746.74C5343.32,4862.08 5334.14,4873.11 5524.48,4944.04C5325.88,4594.31 5312.46,4561.78 5344.89,4569.15C5418.87,4585.96 5806.2,4733.75 5776.2,4636.8C5751.06,4555.59 5541.52,4246.6 5541.52,4199.15C5541.52,4156.23 5845.08,4265.86 5936.88,4165.33C5952.29,4148.45 5949.98,4136.68 5752.65,3946.96C5774.71,3949.84 6057.78,3986.78 6023.56,3884.13C6012.99,3852.41 5772.24,3736.99 5749.42,3726.05C6061,3687.03 6055.2,3635.71 6040.48,3615.62C5978.05,3530.49 5863.16,3480.58 5845.43,3472.87C5975.48,3314.87 6072.78,3238.06 6095.07,3220.46C5883.17,3236.49 5885.58,3248.86 5867.22,3249.67C5841.93,3250.8 5771.94,3246.04 5764.26,3253.71C5729.48,3288.49 5491.84,3372.96 5542.65,3430.55C5553.62,3442.97 5714.91,3559.9 5681.44,3585C5663.91,3598.14 5657.88,3602.67 5410.59,3544.71C5568.24,3641.99 5654.16,3683.16 5674.72,3755.12C5694.44,3824.15 5350.59,3687.89 5323.86,3677.29C5475.49,3815.45 5553.23,3858.59 5464.31,4133.42C5455.19,4030.04 5456.84,3928.39 5247.18,3905.1C5204.97,3900.41 5317.2,3981.54 5334.48,4088.65C5345.9,4159.46 5310.78,4351.17 5267.33,4281.16C5128.95,4058.21 5066.11,4129.06 5072.58,4146.85C5078.61,4163.44 5133.74,4222.16 5153.17,4261.01C5162.96,4280.6 5167.75,4290.17 5193.46,4531.86C5065.75,4450 5071.44,4442.92 4938.28,4370.69C4886.65,4342.69 4887.1,4345.89 4839.78,4312.49C4855.93,4337.22 4940.3,4432.63 4949.47,4560.96C4975.19,4921.05 4768.72,4439.69 4727.86,4435.61C4626.21,4425.44 4735.88,4632.06 4745.77,4708.7C4768.59,4885.57 4696.63,4674.83 4501.78,4437.85C4502.75,4459.17 4511.22,4645.62 4486.11,4704.22C4461.61,4761.39 4465.84,4761.75 4458.4,4823.13C4405.74,4721.71 4398.93,4726.84 4347.33,4623.64C4311.62,4552.22 4334.93,4439.82 4318.23,4480.38C4268.22,4601.81 4325.03,4893.19 4268.98,4773.61C4220.49,4670.17 4190.98,4479.17 4141.39,4491.57C4118.53,4497.28 4155.94,4627.87 4057.76,4641.55C4164.12,4317.12 4156.26,4313.36 4195.7,4255.54C4229.62,4323.28 4228.13,4321.73 4260.58,4392.02C4284.7,4247.27 4282.85,4248.73 4330.68,4109.62C4468.37,4321.65 4488.74,4302.64 4529.43,4324.69C4486.44,4147.37 4509.65,4138.62 4584.6,4088.65C4647.87,4167.74 4645.26,4169.05 4723.39,4234.15C4710.14,4211.74 4668.54,4167.82 4645.99,3965.25C4742.55,4022.73 4746.5,4047.09 4853.22,4001.35C4946.21,3961.49 4948.93,3979.98 5050.2,3987.92C4954.26,3863.46 4947.41,3871.79 4828.59,3770.79C4740.16,3695.62 5043.44,3861.17 5052.44,3840.18C5072.07,3794.36 4914.32,3768.86 5006.23,3478.97C5103.58,3534.6 5097.83,3553.77 5211.37,3558.14C5202.21,3531.38 5149.41,3407.53 5137.5,3307.43C5123.73,3191.77 5196.74,3304.07 5344.1,3321.29C5339.2,3310.03 5294.44,3302.67 5349.92,3261.43C5415.82,3212.46 5518.07,3244.12 5604.16,3256.42C5621.38,3241.03 5628.59,3221.98 5718.25,3181.23C5718.89,3180.93 5828.29,3116.18 5832.17,3113.97C5713.13,3119.83 5629.63,3195.76 5435.27,3113.74C5555.3,3027.38 5616.57,2909.49 5635.97,2870.68C5719.32,2703.99 5692.15,2675.95 5706.77,2671.08C5724.37,2665.21 5759.8,2837.33 5770.59,2907.44C5864.95,2801.28 5856.8,2796.02 5900.9,2633.18C5943.52,2775.26 5963.82,2766.42 6004.11,2907.44C6028.22,2991.82 6026.62,2990 6045.63,3077.53C6107.89,3034.43 6109.96,3038.18 6153.09,2975.89C6178.76,3095.69 6175.66,3138.21 6189.93,3259.34C6220.9,3182.91 6231.9,3115.52 6255.73,3117.72C6327.14,3124.32 6365.48,3370.79 6365.48,3370.79C6365.48,3370.79 6437.29,3200.79 6571.81,3326.91C6538.1,3229.98 6478.89,3238.9 6364.31,3109.37C6438.44,3106.15 6499.3,3104.07 6610.26,3145.81C6581.4,3115.47 6525.95,3055.39 6439.69,3016.57C6369.64,2985.06 6366.72,2987.56 6320.82,2926.36C6485.8,2920.6 6537.56,2925.8 6578.76,2837.87C6558.9,2837.01 6452.93,2832.4 6341.34,2764.59C6400.28,2725.23 6403.01,2729.68 6450.47,2678.1C6494.69,2630.03 6505.11,2639.69 6538.18,2584.08C6470.43,2615.76 6361.35,2677.18 6215.47,2609.11C6121.66,2565.33 6127.5,2556.83 6047.15,2492.47C6057.06,2491.69 6141.46,2516.06 6245.69,2456.5C6353.2,2395.06 6193.83,2456.76 6084.64,2396.1C5999.89,2349.02 5995.51,2364.88 5907.48,2339.73C5897.79,2336.96 5903.48,2328.67 5794.75,2283.37C5888.69,2240.31 5888.16,2226.11 5988.01,2247.13C5745.01,2171.19 5748.77,2144.14 5492.93,2150.43C5628.52,2082.62 5630.48,2092.26 5769.03,2031.07C5751.68,2027.58 5666.98,1980.08 5233.24,2066.23C5406.17,1927.09 5410.21,1935.23 5468.62,1916.97C5373.85,1912.67 5371.35,1902.48 5259.25,1949.18C5070.17,2027.97 5069.62,2021.33 4983.76,2043.9C5085.84,1982.39 5092.62,1988.01 5154.57,1884.76C4987.95,1978.49 4974.57,1960.32 4786.54,1969.87C4792.47,1965.64 4860.65,1916.97 4860.65,1916.97C4865.55,1912.07 4863.02,1911.05 4892.86,1836.45C4710.53,1927.61 4653.66,1869.39 4598.94,1864.63C4699.57,1807.76 4698.32,1807.96 4800.25,1751.9C4686.38,1767.08 4556.53,1830.64 4474.12,1820.34C4462.46,1818.88 4464.89,1815.57 4329.18,1796.18C4380.18,1766.66 4431.18,1737.13 4482.18,1707.61C4327.6,1756.42 4326.72,1743.11 4166,1761.2C4180.72,1748.73 4276.84,1667.34 4350.96,1606.49C4106.32,1733.98 4100.36,1713.84 4059.42,1719.69C3972.08,1732.16 3872.02,1779.16 3950.71,1739.82C4033.98,1698.18 4002.3,1655.39 4171.27,1543.39C3864.19,1695.58 3804.63,1640.19 3660.82,1772.03C3681.32,1752.55 3926.34,1533.52 3809.79,1562.66C3796.22,1566.05 3806.3,1584.91 3656.79,1647.21C3427.91,1742.58 3435.73,1757.48 3399.11,1800.21C3427.91,1713.82 3435.13,1718.67 3483.66,1643.19C3345.32,1733.41 3335.63,1722.9 3194.2,1888.33C3184.4,1839.33 3185.67,1834.84 3140.49,1812.25C3110.39,1797.2 3082.06,1714.87 3070.81,1702.75C2927.05,1547.93 2993.4,1491.08 2818.62,1370.92C2790.1,1351.31 2716.05,1224.52 2533.25,1473.79C2497.96,1521.91 2524.13,1552.76 2427.07,1656.29C2186.18,1913.24 2407.85,2087.65 2443.66,2223.72C2464.2,2301.77 2471.98,2364.01 2473.52,2376.36C2473.96,2379.89 2477.5,2408.21 2493.43,2416.17C2522.55,2430.74 2268.64,2529.97 2154.9,2974.11C2116.03,3125.89 2109.32,3273.91 2109.32,3273.91C2109.32,3273.91 2170.56,3241.95 2195.62,3202.5C2226.77,3153.46 2242.93,3131.11 2231.85,3050.09C2226.71,3012.55 2205.22,2818.34 2205.22,2818.34C2205.22,2818.34 2145.74,3018.25 2140.01,3107.35C2126.55,3316.63 2030.41,3435.09 2030.41,3435.09C2030.41,3435.09 1976.51,3494.38 1892.83,3564.29C1868.01,3585.03 1868.99,3585.46 1634,3859.62C1584.45,3917.42 1297.28,4186.39 1305.49,4334.13C1305.71,4338.14 1373.24,4420 1377.15,4426.51C1397.95,4461.18 1418.75,4438.7 1500.71,4520.66C1553.33,4573.28 1566.24,4551.94 1765.49,4665.8C1796.49,4683.51 1801.23,4663.46 1834.14,4677.56C1903.16,4707.15 1974.71,4664.22 1985.16,4657.95C1894.28,4652.9 1743.5,4669.28 1743.5,4669.28C1743.5,4669.28 1925.62,4574.67 1784.36,4562.9C1734.5,4558.74 1742.44,4618.85 1707.72,4633.67C1682.44,4644.46 1688.68,4641.53 1624.28,4593.23C1574.85,4556.16 1579.47,4549.99 1522.29,4524.58C1519.73,4523.44 1519.58,4537.53 1522.29,4524.58C1534.11,4467.96 1503.42,4353.84 1408.05,4411.06C1362.38,4438.47 1720.11,4662.08 1743.5,4669.28C1764.58,4675.76 1938.85,4729.38 2018.92,4659.32C2060.93,4622.56 2022.65,4297.84 2022.65,4297.84C2022.65,4297.84 1994.52,4187.82 1648.86,4050.81C1590.15,4027.54 1522.49,4068.94 1446.31,4065.3C1548.36,4072.99 1579.33,4036.56 1666.44,4058.84C1788.34,4090.02 1781.9,4134.09 1899.46,4178.17C2082.38,4246.77 2040.62,4469.49 2035.51,4496.73C2026.67,4543.85 2025.46,4670 2081.97,4636.09C2114.43,4616.61 2119.25,4628.65 2519.98,4456.91C2614.12,4416.56 2809.24,4398.66 2964.62,4287.68C3084.86,4201.8 3286.4,4093.41 3415.91,3982.39C3588.98,3834.05 3646.31,3868.45 3664.78,3879.53C3761.16,3937.36 4088.77,3802.28 4195.7,3935.94C4247.74,4000.99 4258.34,3985.54 4335.07,4018.9C4266.3,4025.45 4256.53,4011.29 4135.97,4118.44C4005.18,4234.7 4055.44,4270.06 3950.15,4410.45C3777.7,4640.39 3571.29,5177.55 3432.5,5316.34C3418.51,5330.32 3425.64,5336.12 3273.22,5505.48C3188.01,5600.16 3194.19,5611.02 3050.9,5664.76C2974.12,5693.55 2846.31,5762.69 2765.53,5641.53C2738.78,5601.4 2726.19,5602.49 2721.49,5553.65C2712.74,5462.69 2700.42,5469.07 2667.21,5424.76C2691.95,5439.88 2730.61,5505.47 2781.27,5433.07C2799.71,5406.7 2794.31,5373.49 2783.26,5357.21C2756.42,5317.67 2728.4,5303.11 2728.4,5303.11C2728.4,5303.11 2766.03,5340.34 2820.19,5354.81C2836.61,5309.14 2836.92,5309.45 2854.73,5284.69C2857.73,5280.51 2862.12,5273.57 2855.12,5266.56C2846.97,5258.42 2859.94,5219.57 2758.24,5176.28C2836.85,5172.23 2866.63,5201 2908.21,5103.97C2933.52,5044.91 2862.82,4992.98 2855.12,4984.51C2866.28,4985.37 2901.53,4984.9 2960.07,4926.35C2972.06,4914.37 2880.14,4824.98 2884.99,4815.28C2897.12,4791.02 2955.7,4791.19 2974.58,4775.46C3011.74,4744.49 3007.98,4741.72 3025.3,4696.67C2983.85,4664.67 2983.22,4671.16 3005.48,4606.18C3005.48,4606.18 2937.66,4551.31 2937.66,4551.31C2997.34,4527.44 2996.06,4527.07 3047.19,4488.72C3000.4,4478.15 2998.97,4478.82 3002.95,4431.12C3004.23,4415.65 2997.07,4363.47 2998.29,4356.81L2978.05,4323.85C2989.08,4286.88 3000.79,4284.01 3081.23,4243.28C3042.32,4304.76 3101.33,4309.66 3094.75,4441.34C3093.58,4464.67 3130.17,4446.87 3096.81,4713.78C3089.13,4775.17 3032.28,4938.97 3026.1,5019.95C3022.78,5063.42 2988.14,5144.74 2910,5315C2799.83,5555.08 2819.91,5640.4 2812.77,5608.86C2801.66,5559.76 2927.35,5348.73 3010.89,5080.8C3028.42,5024.57 3029.73,4978.2 3044.71,4921.26C3056.81,4875.3 3095.76,4772.82 3098.18,4695.29C3101.82,4578.72 3111.24,4569.76 3097.95,4453.48C3083.91,4330.66 3027.58,4288.43 3081.86,4240.93C3082.86,4240.05 3190.17,4172.01 3199.6,4166.03C3313.69,4093.68 3555.84,3932.82 3588.14,3911.29C3667.3,3858.51 3675.51,3880.96 3780.92,3892.8C3830.45,3898.37 3841.02,3880.48 3965.63,3876.22C4072.1,3872.58 4237.07,3893.42 4222.25,3982.39C4220.64,3992.03 4206.32,3979.41 4132.65,4065.35C4045.64,4166.86 4040.88,4162 3980.01,4281.04C3938.72,4361.8 4001.34,4287.31 3878.27,4321.91C3825.16,4336.85 3696.2,4280.35 3677.69,4300.98C3659.17,4321.61 3704.52,4383.23 3725.78,4463.67C3760.49,4506.87 3646.24,4554.61 3563.25,4522.56C3563.25,4522.56 3652.74,4640.2 3622.91,4699.87C3611.93,4721.83 3466.67,4685.38 3466.67,4685.38C3566.45,4810.19 3531.58,4836.54 3366.6,4798.43C3366.6,4798.43 3475.16,4929.74 3454.14,4951.44C3433.19,4973.05 3323.17,4882.96 3303.41,4937.95C3323.05,4953.66 3359.75,4986.17 3372.02,5013.43C3388.81,5050.74 3375.77,5048.62 3367.78,5085.27C3301.81,5030.73 3272.32,5042.55 3233.4,5041.26C3254.52,5055.11 3299.43,5129.28 3299.43,5129.28C3299.43,5129.28 3343.05,5136.67 3305.7,5210.92C3298.57,5225.1 3158.24,5204.26 3158.24,5204.26C3158.24,5204.26 3212.28,5264.23 3221.62,5284.95C3235.2,5315.07 3184.07,5319.48 3203.45,5367.93C3143.73,5373.72 3094.84,5301.51 3094.84,5301.51C3108.13,5304.15 3226.71,5463.2 3045.98,5424.61C3036.93,5422.68 3127.9,5487.76 3059.33,5570.03L2987.62,5513.07C2991.14,5584.6 3050.9,5664.76 3050.9,5664.76C3242.14,5595.69 3388.71,5369.58 3554.49,5136.47C3554.49,5136.47 3731.64,4804.18 3764.2,4728.21C3767.55,4720.39 3900.98,4482.42 3900.98,4482.42C3900.98,4482.42 3962.06,4415.37 3978.32,4369.87C4002.23,4302.94 3956.23,4348.33 4036.42,4214.67C4049.54,4192.81 4123.53,4069.5 4285.29,4015.58C4347.19,3994.94 4382.77,4029.57 4383.18,4029.68C4370.34,4010.41 4383.18,4029.68 4383.18,4029.68C4383.18,4029.68 4567.16,3979.45 4603.85,3906.08C4654.85,3804.06 4590.74,3806.24 4411.39,3411.65C4341.49,3257.88 4043.82,3224.84 3996.6,3252.38C3920.81,3296.59 3943.7,3321.46 3814.1,3421.61C3687.88,3519.14 3670.12,3541.75 3545.57,3495.21C3563.22,3475.32 3773.21,3238.75 3545.32,3162.78C3495.36,3146.13 3464.32,3090.95 3349.54,3119.65C3165.69,3165.61 3175.13,3530.45 3369.45,3368.52C3452.76,3299.1 3313.24,3283.62 3299.77,3189.33C3289.58,3118.03 3237.28,3172.48 3163.72,3205.92C3115.98,3227.62 2920.72,3388.83 3097.36,3600.8C3253.09,3787.67 3529.22,3546.33 3581.82,3501.25C3377.54,3647.16 3378.02,3708.29 3133.86,3647.25C3062.67,3629.45 3071.3,3672.96 2735.66,3819.8C2547.97,3901.92 2680.58,3816.36 2497.25,3908.75C2526.66,3857.43 2422.33,3914.23 2728.77,3651.57C2919.24,3488.31 2866.27,3493.66 2964.62,3414.97C3089.71,3314.91 3020.31,3163.37 3057.54,3076.51C3089.2,3002.62 3077.77,2855.45 3233.4,2767.91C3324.03,2716.93 3372.31,2763.82 3372.6,2763.89C3121.42,3056.15 3103.81,3099.96 3110.94,3221.19C3456.66,2907.91 3532.57,3219.02 3671.41,3172.74C3744.65,3148.33 3901.02,3001.05 4019.83,3159.47C4044.37,3192.19 4229.25,3288.76 4318.48,3259.01C4399.67,3231.95 4623.57,3243.97 4710.03,3361.88C4809.59,3497.64 4831.78,3468.71 4902.94,3473.83C4801.17,3439.79 4799.78,3435.16 4746.53,3341.97C4732.89,3318.09 4624.99,3190.53 4710.96,3176.2C4884.92,3147.21 4907.48,3198.22 4923.78,3215.61C4950.41,3244.01 4983.73,3241.68 4984.22,3241.89C4900.59,3130.39 4839.24,3091.35 4823.94,3081.61C4761.88,3042.12 4745.85,3060.32 4710.96,2994.9C4827.56,3061.54 4833.82,3043.49 4897.51,3057.96C4939.84,3067.59 4936.6,3077.11 5051.42,3096.55C4876.89,2946.56 4886.93,2890.52 4884.27,2821.44C5000.36,2885.92 5003.27,2877.77 5131.36,2910.83C5088.4,2867.88 5088.76,2869.02 5039.39,2832C4973.16,2782.32 4990.66,2764.19 4921.82,2720.05C4929.33,2714.15 4842.59,2611.21 4839.2,2616.67C4816.57,2653.01 4733.49,2549.83 4497.81,2432.94C4285.68,2327.73 4285.76,2473.34 4195.7,2366.4C4158.21,2321.88 4145.34,2335.3 4089.52,2263.53C4079.26,2250.34 3843.14,2130.18 3751.05,2183.9C3598.64,2272.81 3196.16,2361.68 2685.89,2920.55C2357.25,3280.49 2312.87,3307.65 2308.94,3313.76C2635.01,2988.92 2648.66,2989.97 2729.03,2744.68C2776.92,2598.5 2802.59,2569.72 2967.94,2409.54C3202.07,2182.73 3205.2,2178.09 3200.22,2150.71C3154.6,1899.77 2637.45,2377.02 2480.16,2429.45C2863.78,2210.23 2997.83,2103.14 3067.49,2064.44C3089.59,2052.16 3112.01,2039.7 3292.46,1842.46C3293.62,1868.32 3295.37,1868.02 3310.04,2165.56C3393.75,2120.96 3401.1,2135.44 3472.32,2074.39C3574.52,1986.79 3627.21,1997.63 3751.05,1991.44C3678.11,2035.2 3679.34,2035.06 3610.46,2083.95C3836.18,2092.01 3893.99,2067.79 4056.33,2090.98C4141.55,2103.16 4130.64,2053.47 4215.61,2044.53C4377.89,2027.45 4563.05,2078.49 4646.19,2116.22C4405.86,2167.09 4231.68,2196.97 4391.48,2256.9C4452.19,2279.66 4631.97,2290.45 4646.13,2272.49C4871.51,1986.48 5581.26,2117.19 5634.05,2398.41C5647.15,2468.2 5670.76,2507.43 5685.76,2570.9C5708.43,2666.8 5648.97,2982.82 5441.89,3007.84C5286.42,3026.62 5240.42,2966.97 5153.56,2920.2C5235.39,3024.95 5459.3,3032.05 5581.61,2948.14C5661.03,2893.65 5736.45,2589.28 5643.12,2418.09C5627.52,2389.48 5625.96,2321.59 5511.34,2239.73C5107.37,1951.24 4646.13,2272.49 4646.13,2272.49C4858.23,2060.91 5599.91,2012.97 5680.87,2548.71C5897.48,2599.59 5957.68,2434.07 6093.24,2530.91C6266.1,2654.37 6340.2,2598.49 6395.77,2577.85C6467.19,2551.31 6466.14,2489.93 6493.2,2453.85" style="fill:none;"/>
</svg>
