<?xml version="1.0" encoding="UTF-8" standalone="no"?>
<svg
   width="100%"
   height="100%"
   viewBox="0 0 5100 3300"
   version="1.1"
   xml:space="preserve"
   style="fill-rule:evenodd;clip-rule:evenodd;stroke-linejoin:round;stroke-miterlimit:2;"
   id="svg1"
   sodipodi:docname="possum.svg"
   inkscape:version="1.4.2 (f4327f4, 2025-05-13)"
   xmlns:inkscape="http://www.inkscape.org/namespaces/inkscape"
   xmlns:sodipodi="http://sodipodi.sourceforge.net/DTD/sodipodi-0.dtd"
   xmlns="http://www.w3.org/2000/svg"
   xmlns:svg="http://www.w3.org/2000/svg"><defs
   id="defs1" /><sodipodi:namedview
   id="namedview1"
   pagecolor="#ffffff"
   bordercolor="#000000"
   borderopacity="0.25"
   inkscape:showpageshadow="2"
   inkscape:pageopacity="0.0"
   inkscape:pagecheckerboard="0"
   inkscape:deskcolor="#d1d1d1"
   inkscape:zoom="0.13151515"
   inkscape:cx="87.442397"
   inkscape:cy="623.50231"
   inkscape:window-width="1920"
   inkscape:window-height="1112"
   inkscape:window-x="-8"
   inkscape:window-y="-8"
   inkscape:window-maximized="1"
   inkscape:current-layer="g1" />
    <g
   transform="matrix(-0.654603,-0.472867,0.485193,-0.671667,3402.7,4271.25)"
   id="g1">
        <path
   d="m 2505.3793,2725.1862 c 6.2297,0.9899 -29.6016,-7.5468 3.6597,-76.7344 40.1994,-83.6246 21.8773,-110.4052 147.0358,-148.4168 -102.9893,-122.9144 -171.3594,-153.6952 -214.4492,-179.7075 127.5973,-53.5933 102.7051,-109.395 240.1412,-122.9452 -84.7247,1.6559 -82.3238,-17.4571 -113.9019,-94.4055 -36.9065,-89.8658 -53.1638,-78.2849 -140.4125,-122.7308 134.3139,-79.4381 145.9237,-47.8738 180.0062,-33.6391 -90.7834,-34.706 -81.7489,-48.3758 -120.8456,-135.6554 -26.0021,-58.0756 -14.3802,-63.9179 -99.1236,-183.8986 23.9353,19.6576 54.4946,86.0497 173.2829,55.9068 158.6851,-40.2669 210.0206,16.1974 199.4472,4.5555 -81.225,-89.2946 -72.4746,-96.7893 -165.6388,-173.3083 -10.2247,-8.3873 4.0182,-34.4644 -176.7403,-106.1856 42.7811,18.4753 68.2453,36.341 106.9965,-6.1395 129.8151,-142.3651 204.4834,-56.054 244.0192,-18.0257 -56.7136,-211.7257 -205.1013,-274.8139 -247.7595,-374.6884 -4.0531,-9.48357 -41.3042,-69.05683 -16.5465,-54.23242 145.5853,87.06672 173.3557,-12.0951 320.136,57.92592 211.1301,100.7316 85.228,-110.22078 18.0151,-144.44612 -267.2958,-136.14048 -242.4748,-298.3339 -235.8703,-258.93363 3.487,20.84627 12.0143,-108.72129 51.8219,-76.0281 19.5141,16.02154 147.7438,85.50848 183.2751,78.51596 52.0531,-10.21263 51.1759,-2.40169 102.3114,10.34676 37.0729,9.24818 10.4429,-47.74719 -44.3185,-64.34353 -49.1299,-14.91456 -51.2712,-72.38528 -68.3688,-96.81798 -86.5511,-123.67769 -128.8673,-135.77043 -118.2627,-246.20639 1.5622,-16.20217 -0.5719,-60.41266 26.4034,-64.70755 9.0733,-1.43752 2.9892,-9.64596 3.4507,-9.02333 181.7604,245.22394 236.3376,180.32802 324.3628,246.05882 3.3229,2.47552 1.226,3.3137 34.9324,38.00114 32.2662,33.22622 37.3547,24.19073 82.076,37.76154 -68.8498,-52.81621 -26.5335,-75.89774 -60.6129,-131.94145 -29.5948,-48.68158 -69.5153,-58.96091 -101.959,-178.59577 -22.4371,-82.765109 -37.7331,-76.579339 -57.8957,-160.2108791 28.2279,47.9616201 63.3118,173.7819291 368.7798,274.0759291 15.5036,5.09632 67.1857,22.06218 173.2532,105.81749 -6.345,-24.11322 -1.5716,-25.46278 -16.497,-44.85012 -123.0494,-159.80293 -124.0202,-161.24655 -133.8102,-175.95379 -52.801,-79.294459 -38.0564,-86.813049 -98.9959,-160.9192591 75.402,85.0791301 75.4591,83.8980301 169.957,147.1989691 126.4283,84.69724 131.2925,77.36668 284.1125,96.24307 54.6297,-53.58204 52.6514,-53.60091 80.6193,-76.71354 -3.0786,-43.23615 -6.1796,-86.475829 -9.2712,-129.702809 130.4715,90.339679 317.1981,174.663319 490.541,193.709989 -39.9612,-155.743109 -29.4022,-158.013819 -1.8596,-268.056769 127.6733,183.735589 138.4184,174.488459 324.3252,304.792739 74.2752,52.05183 80.6352,44.03563 228.4771,75.3891 -7.5266,32.62221 -142.3594,67.13804 -97.057,399.40076 -175.7951,-149.72155 -177.0608,-145.2724 -365.7567,-277.51924 10.68,34.53928 82.6692,267.43622 59.9217,447.04291 -24.2046,191.13248 -7.4467,193.45068 98.1666,356.49858 -190.7937,3.7197 -164.6128,95.8188 -290.9758,134.427 -100.7775,30.8055 -110.7765,40.7649 -148.3717,38.227 -14.6846,-0.9933 -14.1393,-2.8274 -108.5456,-48.016 67.5942,1.0645 98.8133,-41.5664 101.9613,-43.3959 82.1992,-47.6793 139.2557,-56.8701 85.5082,-75.7659 -102.0511,-35.881 -162.9254,-131.2073 -194.6835,-190.1422 -111.7394,-207.29039 119.0682,-6.6906 185.9298,-22.9972 83.2559,-20.2877 9.633,-54.27378 -34.3948,-245.5381 0,0 -25.5888,-89.82804 -27.8098,-97.64292 -151.4986,-32.64646 -198.0667,-57.40884 -315.8371,-205.11053 -19.1517,259.27721 104.1019,281.8169 147.5571,340.44497 2.1097,2.84627 -37.4723,44.84825 -102.4887,-0.70813 -9.424,-6.61121 -44.7621,-52.46765 -55.0787,-60.57755 -98.9413,-77.8082 -94.8851,-81.43728 -171.3542,-180.75149 -54.0643,92.99913 -64.7718,94.77497 -42.7781,199.02632 5.9159,28.0314 10.2773,48.74557 149.9527,326.51803 -131.6287,-57.8508 -148.3801,-23.7811 -260.2199,-113.1025 -78.9949,-63.0772 -94.8389,-111.24898 -141.2652,-210.21097 l 2.0466,-4.57348 c -28.1025,117.74656 -44.7352,135.91489 43.5772,292.05715 54.7687,96.8595 76.2957,82.671 125.5668,183.1689 43.6365,89.0144 58.3606,79.4605 155.5891,103.9632 -234.4802,22.7576 -247.6784,50.1103 -447.1329,-70.9268 1.4721,2.5215 25.1001,84.9124 131.3852,136.0088 84.3668,40.5576 85.4907,37.1752 180.3783,42.8866 -180.9573,26.5738 -177.3574,38.6583 -337.9959,124.447 202.0496,45.8644 205.3854,31.1983 303.6716,70.9675 127.5991,51.6379 279.8955,157.958 317.5374,178.2531 -49.2885,-57.5573 -52.8495,-57.4094 -129.2619,-62.3403 75.0641,-33.3742 69.8362,-41.6053 146.9497,-67.1018 89.4948,-29.5915 92.6839,-18.4361 190.8074,24.4062 -48.7483,-101.9876 -43.4793,-103.3379 -104.3999,-197.5488 184.3644,63.3622 200.8211,188.9733 332.2996,265.8415 22.5518,13.1868 8.799,28.7089 98.1497,86.5644 12.1326,7.8563 58.9219,100.7229 78.8588,121.5712 11.6571,12.1938 14.1042,6.6615 189.3681,96.9087 -129.8849,10.0323 -128.8594,0.2799 -245.9522,-57.0725 60.0097,198.6925 109.9505,166.0083 243.6596,302.3148 -19.2886,7.063 -16.2748,11.4771 -123.0252,37.6506 28.9917,23.2138 28.6143,23.2668 360.418,292.4546 -119.7349,-18.8097 -128.6401,-8.4988 -135.6316,-0.4247 -9.5295,11.0211 -16.0843,18.6137 95.6291,154.1818 -32.6807,-12.9592 -291.4957,-115.6805 -438.7391,-44.5046 -182.1913,88.0838 -170.427,114.3956 -369.8975,159.2241 154.6096,-221.9317 253.6277,-186.7966 217.8593,-297.9609 -13.6398,-42.4141 -170.418,102.0135 -235.5524,63.927 -184.6833,-107.9611 -208.2268,-71.4107 -364.0172,-217.2711 26.1836,4.1133 295.8473,46.4646 328.2955,44.6013 83.7949,-4.8108 150.117,-120.7297 158.3046,-135.0603 -292.6699,-36.4225 -409.5783,-155.068 -496.1277,-218.9952 151.6556,1.1906 167.0913,-26.5965 275.8098,-82.2911 -344.9533,62.2454 -261.1859,-195.6494 -495.1672,-232.3953 -431.3333,-67.7599 -592.1439,417.4033 -611.3948,475.4316 127.6386,-53.5643 129.7609,-40.5556 265.8444,-70.3055 82.6586,-18.0688 86.1358,-1.0637 127.3303,72.2085 48.3316,85.9797 -8.6375,78.6918 -98.9314,120.777 156.2891,55.5724 149.8138,75.9876 314.5258,87.1106 66.3284,4.4694 69.9924,20.4149 132.7017,95.3829 -220.4852,-84.4962 -222.5205,-75.1158 -387.1228,-90.1061 -120.352,-10.9691 -209.2296,170.6997 -219.4195,183.3461 85.0544,-36.7335 145.249,-72.7692 262.9361,-33.2193 74.6231,25.083 -81.3719,134.9646 -227.2968,127.9606 -108.3711,-5.1912 -102.2191,44.1188 -196.8381,45.489 -240.6472,3.4888 289.6457,129.8616 375.6429,75.7958 4.0266,-2.5447 73.4664,-46.2107 59.8727,-3.6514 -11.805,36.9685 -90.0148,29.8804 -138.736,52.7528 -127.1041,59.666 -127.0384,58.0147 -260.9489,101.5111 239.8957,79.2038 289.0029,40.4159 297.6386,139.066 3.2468,37.0652 -37.4133,20.1131 -80.4398,47.0013 -35.5471,22.2027 -122.8341,136.7929 -132.5133,149.4857 83.3494,-34.2955 131.4417,-44.6589 146.7123,-50.3434 69.9233,-26.0422 69.6873,-2.8842 99.904,27.202 -20.4645,5.3963 -146.5912,38.6752 -215.3186,150.3317 -40.5822,65.9493 51.7678,55.1737 106.7844,59.64 63.6229,5.1559 53.1224,26.9933 110.3914,56.2884 -31.9376,93.7807 -15.9303,94.9256 -7.2815,193.5665 180.1208,-213.2648 226.8162,-175.4815 365.2567,-415.1322 55.9561,-96.8448 51.1793,-106.341 59.7216,-101.9903 44.0499,22.4358 -23.9891,93.1544 -17.9318,324.3387 73.8708,-259.6291 93.0391,-274.671 306.4348,-320.2534 -15.9759,246.4833 -57.9432,390.3888 -67.5675,423.3664 201.0896,-165.4332 189.7116,-175.8317 207.5406,-189.602 146.1498,-112.8316 196.4331,-81.9057 265.5488,-315.9881 -11.6912,138.737 11.2996,145.0207 -66.3718,277.6701 -0.4222,0.742 -63.3032,141.407 -65.5874,146.3024 115.2438,-89.8549 144.0054,-223.1484 398.5784,-280.2591 -57.8611,169.3079 -33.872,327.9421 -25.2091,379.6225 37.1957,221.986 84.8175,230.2081 73.6688,245.3084 -13.4092,18.1808 -173.7854,-125.1666 -235.4588,-186.129 -17.7358,170.5479 -5.7562,169.9262 68.065,360.4033 -145.815,-108.872 -159.7793,-85.8723 -302.4846,-195.3673 -85.3877,-65.5186 -82.443,-64.8651 -165.0085,-137.0695 -31.2539,86.1639 -36.0393,83.9638 -34.1685,175.3875 -112.6355,-99.0679 -140.3674,-142.8537 -242.5164,-251.2767 24.3211,96.657 62.1488,170.3658 36.6234,185.0489 -76.4568,44.0232 -293.6722,-170.0132 -293.6722,-170.0132 0,0 51.1879,217.0662 -175.2945,188.751 104.1336,71.0007 157.0896,20.434 366.036,66.1806 -72.071,55.535 -131.6592,100.5802 -273.3109,138.1564 50.9707,9.2871 150.1973,28.8831 264.9357,5.8842 93.1706,-18.6628 94.2734,-23.1712 184.7271,4.264 -161.4207,122.2098 -217.1566,153.7141 -194.7424,268.8656 20.5564,-13.1958 130.2752,-83.5754 291.468,-96.0992 -30.6286,80.1545 -36.597,77.7238 -46.8282,161.7338 -9.5372,78.281 -27.0137,76.198 -19.8889,153.9642 45.0568,-78.8648 110.0004,-216.0509 305.8107,-252.5402 125.9111,-23.4778 126.2036,-11.0372 253.5446,-4.8532 -9.3827,7.7659 -111.7838,43.5819 -173.2205,175.5146 -63.3661,136.0755 51.8621,-36.9181 205.4629,-54.7325 119.2123,-13.8308 112.0971,-32.4515 218.7102,-70.0532 11.7453,-4.1502 12.0529,7.9897 154.0427,-24.5261 -63.0813,108.513 -52.2527,122.0249 -167.7258,172.0328 298.9825,-97.4448 314.8325,-68.3244 567.0926,-255.2797 -86.9389,162.1465 -95.8995,154.1261 -190.6048,311.8977 19.9519,-8.8449 139.4135,-22.2324 512.3532,-413.0525 -72.7112,258.3293 -82.6618,253.2297 -128.0508,312.3724 98.2411,-62.7631 108.1506,-54.56 186.8122,-179.4756 132.6739,-210.7039 138.0341,-204.5964 207.8452,-287.3527 -57.8597,132.315 -68.7435,131.6044 -56.0466,276.3956 99.2782,-209.4497 125.883,-201.1275 307.7088,-343.3493 -2.8749,8.3279 -36.0205,104.1193 -36.0205,104.1193 -1.3777,8.26 1.9087,7.4739 26.0492,101.5316 116.9281,-218.0276 216.2196,-201.2619 274.6174,-235.2783 -59.7843,126.7472 -58.6739,125.6754 -120.3459,252.5527 103.3056,-95.3343 187.5521,-249.2814 277.7454,-297.445 12.7722,-6.8067 12.7227,-1.8409 163.0065,-78.7927 -29.7696,64.9309 -59.5616,129.8583 -89.3536,194.7858 119.7825,-156.9982 130.3227,-144.5981 278.5329,-275.8776 -5.7305,22.5979 -43.2092,170.15 -73.4695,282.0676 153.1185,-297.6116 173.7104,-282.1168 210.5579,-316.7792 78.6378,-73.9262 144.9967,-190.6253 94.5283,-96.5223 -53.3908,99.5829 9.4411,119.0638 -78.9681,348.0495 197.904,-365.9206 297.8506,-353.8122 346.6146,-584.4341 -6.4464,33.5441 -93.5771,420.9869 2.2768,310.1114 11.1663,-12.9084 -12.6391,-24.2263 92.2732,-190.8468 160.6171,-255.0507 141.9433,-264.103 147.7242,-331.792 33.7446,104.8736 22.9602,105.234 28.9892,213.3767 73.4472,-186.0238 90.7926,-182.5917 112.8155,-444.393 45.3651,41.021 47.3591,46.3078 109.0827,36.4804 41.1147,-6.5532 129.2517,53.9746 149.352,57.8844 256.5794,49.8614 231.1925,152.3728 493.7691,146.4012 42.8524,-0.9699 209.1206,70.7429 211.8748,-302.314 0.5296,-72.0168 -48.1096,-83.6995 -25.7595,-253.5899 55.4931,-421.6143 -293.5026,-435.5731 -428.1085,-543.4028 -77.2287,-61.8455 -130.1606,-117.2245 -140.6687,-128.2162 -3.005,-3.1441 -27.0828,-28.3477 -48.8629,-24.8871 -34.3449,5.4612 48.3763,34.0281 20.2259,-316.8266 -2.727,-34.0084 -24.9524,-121.8149 -24.9524,-121.8149 0,0 -50.1379,-62.1029 -87.0429,-65.9582 -5.5039,-0.5727 -10.7943,3.6933 -16.2981,3.1205 6.7053,-9.1295 26.3974,-103.0488 59.1051,-137.4072 29.0566,-30.5311 -66.5539,-215.8201 -77.4446,-235.2247 -108.5747,-193.41068 -189.3918,-224.22699 -158.5763,-354.61562 6.3283,-26.7703 2.172,-61.95758 10.9284,-95.32964 9.5994,-36.51794 9.1459,-36.70145 4.6775,-63.3154 -37.2562,127.74892 -78.1887,174.08568 -100.1602,219.79725 -12.3147,3.62281 -17.5493,0.30808 -17.6074,13.26617 -0.3697,69.44846 22.5607,310.68194 29.7121,343.78004 67.7757,314.0239 156.5123,258.3002 174.7215,242.58 4.5015,-3.8847 80.6859,-156.4486 29.0269,-282.2794 -2.67,-6.4932 -115.4051,-145.6348 -114.4237,33.3547 0.9224,168.2023 30.1708,222.6001 85.3968,248.9247 76.9209,299.754 70.8253,371.7833 -57.1627,531.3096 -78.5392,-257.2332 1.3464,-462.8922 -140.5003,-599.6575 -26.1401,-25.202 -111.6823,-107.6864 -55.9323,-444.76582 6.6385,-40.13787 56.5738,-19.85379 206.6697,-466.63095 12.4699,-37.08865 8.5822,-37.54221 45.6677,-471.838259 7.8285,-91.56158 101.0541,-557.646521 -14.317,-696.382611 -3.1318,-3.77029 -130.2778,-36.13886 -138.9206,-39.74196 -46.0236,-19.2093 -50.5943,17.4811 -192.2912,-4.7786 -90.9913,-14.2942 -88.4769,15.7064 -371.049,45.13371 -43.9545,4.56903 -34.1942,27.53472 -77.4376,36.99817 -90.7503,19.84012 -131.4486,112.40169 -137.3821,125.91877 94.9022,-59.29086 234.3686,-181.86212 234.3686,-181.86212 0,0 -114.2143,221.26067 36.1176,132.94346 53.0659,-31.17157 1.5127,-84.36925 25.6166,-123.40255 17.5545,-28.40854 13.4155,-21.14374 113.0959,-19.40594 76.4881,1.3389 76.3333,10.63301 152.1475,-4.9183 3.3973,-0.6901 -6.6555,-14.5741 0,0 29.1987,63.75335 142.7547,153.70354 196.9949,30.31801 25.9781,-59.07101 -495.2738,-25.02641 -523.9725,-15.53468 -25.8469,8.54755 -239.6755,79.24419 -269.2521,204.37109 -15.524,65.65321 258.3835,356.28337 258.3835,356.28337 0,0 108.0078,87.765041 554.3474,-22.47979 75.7987,-18.73103 113.71,-107.04874 192.8138,-157.32495 -108.0135,64.59607 -112.6908,122.12957 -216.2874,161.90048 -144.9726,55.635211 -170.4615,7.96912 -320.4448,47.930151 -233.3577,62.14992 -352.9433,-185.252261 -367.5693,-215.505211 -25.2902,-52.35022 -115.5429,-176.63187 -147.6796,-103.51779 -18.4767,41.99431 -32.0349,33.63339 -309.7671,484.857011 -65.2452,105.995009 -248.1338,261.398769 -323.6306,479.805009 -58.4182,168.98455 -182.1314,417.44929 -231.6475,617.5839 -66.1547,267.4428 -148.6428,274.3113 -175.2256,276.5123 -138.683,11.5467 -369.5997,375.2227 -573.8618,320.0291 -99.4179,-26.8675 -98.8267,-4.2532 -200.0491,17.3324 64.2884,-55.0062 84.3585,-48.0586 127.6664,-238.0986 46.9889,-206.1677 -29.1035,-205.2327 -25.2067,-416.991 6.3773,-346.83397 -175.941,-1018.22251 -137.2613,-1252.09021 3.8984,-23.5706 -7.4599,-24.19853 22.7263,-297.6061 16.8922,-152.84068 2.8163,-159.11611 107.6864,-312.94439 56.1864,-82.4267 134.3586,-240.393 303.3154,-178.946 55.9374,20.3512 67.793,10.3804 107.9212,54.8562 74.7426,82.7975 82.4818,67.8351 147.954,87.7196 -35.7997,2.6953 -122.1747,-34.1474 -120.516,72.4893 0.5921,38.83746 30.111,67.50055 52.994,75.61983 55.6273,19.71877 94.3076,14.16401 94.3076,14.16401 0,0 -64.7723,-9.83854 -129.6317,14.28223 16.6344,56.27836 16.0954,56.19369 16.181,93.00933 0.021,6.21183 0.6304,16.10877 12.7341,18.0102 14.1023,2.21539 29.2378,49.3777 162.7368,19.86167 -75.9887,59.51142 -126.7325,52.40435 -98.1167,176.72581 17.4136,75.66635 126.045,76.49743 139.9134,79.36093 -11.8211,7.04601 -75.0898,44.74314 -91.4167,143.389941 -3.3279,20.19108 182.0018,30.35408 184.161,43.2787699 5.4064,32.2962201 -53.5165,73.5277201 -61.0681,102.2614401 -14.8389,56.565889 -9.0649,56.619689 6.2272,112.934189 64.8004,2.00649 95.51,-22.35949 120.2821,56.94402 0,0 73.0952,23.31612 73.0952,23.31612 -42.6112,65.54073 -41.0473,65.00051 -64.5748,138.64748 54.6415,-22.72831 67.4149,-46.3979 97.9957,3.07851 9.9356,16.05493 43.1456,84.04233 46.7515,91.42361 l 44.2291,17.9394 c 15.7219,43.96491 6.0563,55.04322 -45.1515,151.73572 -5.5148,-87.64004 -68.3186,-50.73435 -157.1988,-184.21987 -15.7546,-23.6379 -9.4022,-26.52452 -169.4506,-311.22488 -36.8142,-65.48863 -124.6466,-274.681799 -137.8363,-371.84676 -6.4677,-47.54084 -36.4976,-129.60136 -83.4032,-363.29564 -62.7941,-312.87086 -186.1097,-375.43336 -149.1195,-360.46116 72.7061,29.4298 181.447,413.09733 252.64,709.59381 16.6154,69.20891 18.792,68.23729 45.0355,134.535271 21.1831,53.5013399 28.9593,205.198789 82.7511,282.751529 80.8641,116.62066 56.1312,132.64079 153.78,236.99996 103.1611,110.2436 183.9104,145.09101 163.8676,229.91739 -0.3729,1.55812 -58.7496,143.96359 -63.8733,156.48517 -62.065,151.40272 -188.4981,479.90427 -205.3078,523.79957 -41.1995,107.572 -65.7269,91.4253 -180.118,154.3234 -53.7571,29.5698 -51.388,54.5291 -173.3835,146.7589 -104.2467,78.8062 -284.9594,175.0149 -334.6069,77.4891 -5.3716,-10.5664 18.1635,-8.3399 29.7941,-144.4818 13.7281,-160.8037 22.0448,-159.4074 -3.1773,-318.8752 -17.1241,-108.2017 59.849,-218.1026 158.2922,-338.92263 42.4807,-52.14494 105.4867,-23.40811 105.4867,-23.40811 0,0 -96.8804,-41.16501 -123.5468,-257.85934 9.647,-2.18944 243.8517,-55.46045 85.6643,-87.22663 -81.1771,-16.31141 -84.6855,9.49849 -98.0176,-69.95013 -4.8961,-29.25212 112.6865,-41.93558 79.2622,-58.89613 -203.5491,-103.24556 9.9379,-170.76248 9.9379,-170.76248 0,0 -161.9056,-38.81705 -156.5257,-74.8976 5.3451,-35.94005 99.4571,-65.03083 114.5062,-84.55942 -31.0997,-1.48378 -50.7768,3.60956 -82.8567,-14.37477 -43.9031,-24.646859 -25.9738,-56.645279 -44.5335,-98.1481991 105.7751,6.7481001 96.5945,-21.3246399 136.6011,-47.5757499 -31.2486,1.36694 -92.471,24.53217 -126.3012,-38.24229 -4.1253,-7.65373 -20.2732,4.79761 -36.6106,-94.231521 8.0478,-0.59944 115.2507,-21.63847 115.2507,-21.63847 0,0 -44.8643,-38.68569 -69.2698,-52.36576 -35.4652,-19.8746 -21.3613,-45.38973 -75.9563,-79.08115 55.7473,-47.87156 110.1082,-51.83869 110.1082,-51.83869 -15.259,6.79785 -244.3517,-32.13277 -34.9495,-122.10551 10.4776,-4.49521 -86.2095,3.31999 -77.0469,-125.63132 l 113.3026,5.04528 c -55.4119,-67.47838 -125.543,-98.19898 -101.0905,-179.80658 -130.285,296.3485 39.7816,1186.82765 147.5817,1521.92519 2.6057,8.06616 -10.3679,7.80196 12.0424,105.14677 2.2966,10.00479 -60.7129,177.07804 -60.7129,177.07804 0,0 -110.0169,160.0816 -112.3529,218.3646 -7.3405,183.1273 -13.1884,-18.6766 3.2288,168.7442 2.692,30.6685 17.8314,203.5966 -105.4597,370.6644 -47.1727,63.9372 -107.9919,55.2024 -108.4715,55.3853 26.8485,9.7751 0,0 0,0 0,0 -148.2604,179.1549 -131.8892,276.8646 22.78,135.8554 85.5393,88.423 551.7234,347.7009 181.6706,101.0324 504.4398,-76.9907 531.8564,-137.3065 44.0292,-96.821 3.0209,-104.9809 60.4888,-294.5479 55.9936,-184.623 57.4063,-219.2835 216.1839,-261.7812 -3.2898,31.9405 -42.5206,411.7853 241.3177,325.0409 62.2174,-19.0121 133.3954,13.0406 227.7963,-96.1546 151.2322,-174.9045 -122.8015,-525.1588 -200.4477,-229.3992 -33.2845,126.7898 117.9844,43.3239 199.8802,126.0551 61.9402,62.5536 74.9532,-27.6883 124.544,-112.3749 32.1892,-54.9742 111.3016,-350.6831 -219.7162,-433.2216 -291.8312,-72.7674 -394.0295,358.4851 -414.1328,439.7767 99.2588,-287.1326 54.4322,-346.5936 343.8079,-459.4355 84.363,-32.9014 44.1515,-69.3517 274.5928,-450.21236 128.8678,-212.97469 99.1606,-226.1516 216.1885,-446.10578 7.6899,71.00646 50.1301,84.92624 -67.0208,558.45723 -72.8133,294.32961 -43.7771,299.02571 -85.4573,445.51361 -52.9873,186.2966 126.555,285.5013 152.1771,396.7894 21.7842,94.6531 139.9836,230.5664 47.23,426.199 -54.0116,113.9234 -136.4725,102.1705 -136.8159,102.2962 40.2112,-463.4331 26.1231,-518.7389 -68.9435,-632.3028 -119.8653,550.8181 -421.673,300.0956 -527.4808,443.5039 -55.8235,75.6352 -105.9839,330.232 -340.1265,259.2184 -48.3621,-14.6817 -303.9658,21.497 -371.981,113.663 -61.8718,83.8576 -295.3515,230.3258 -467.6419,176.0793 -198.3824,-62.4656 -199.6804,-18.4687 -274.8216,26.794 126.8361,-38.6125 131.5934,-35.0584 252.6234,18.4778 31.0002,13.7169 231.823,62.2627 155.9141,137.0329 -153.607,151.3028 -213.2386,117.3479 -242.2119,111.8532 -47.3249,-8.9725 -79.0846,16.8676 -79.7177,17.0039 164.7825,49.9796 254.6839,44.8146 277.106,43.5318 90.9351,-5.216 93.8326,-34.3665 176.2912,4.982 -165.3683,17.2232 -158.5707,39.2969 -232.9868,70.1457 -49.482,20.5076 -53.1355,8.8863 -182.4921,71.0276 283.9624,23.3898 314.5234,85.3138 367.2817,151.0057 -163.2834,18.9653 -160.2987,28.9884 -312.8465,87.1722 74.2617,11.6661 73.0809,10.7957 149.4662,12.1297 102.5171,1.7904 98.1123,31.9054 199.2154,26.4343 -3.26,11.0742 -39.8813,135.2628 -33.796,140.2605 56.1776,46.1326 46.7775,-46.2943 228.4947,-87.0744 -154.3636,183.1809 -144.847,188.6054 -296.1484,373.7493 20.2882,-0.3605 21.2233,20.8707 76.3893,-1.3373 331.8074,-133.6262 319.5523,-157.0399 469.6604,-330.6504 -52.0254,213.7743 -60.4698,231.747 -208.16,368.8677 168.8876,-14.0545 144.0218,-67.0902 350.8497,-306.2928 188.9525,-218.5351 217.2738,-559.3732 136.8907,-560.7739 -174.927,-3.0613 -130.189,133.1338 -304.9713,135.6751 -30.1955,0.4321 -131.5938,-84.2513 -203.7663,-138.1508 80.7683,43.091 87.123,33.0868 151.9404,95.5872 128.8791,124.2758 401.975,-265.3437 388.6362,-36.4767 -9.8866,169.5468 61.3778,138.461 229.3176,179.4498 69.9161,17.046 73.1076,-5.1762 181.1886,25.5895 19.8593,5.6459 344.0098,-43.6556 397.4944,-161.2881 88.5445,-194.6996 428.0983,-566.0762 535.0651,-1473.4589 68.9001,-584.3771 51.7091,-585.5396 51.2106,-594.2964 -42.979,463.3127 34.1003,472.5698 33.0217,796.839 -0.605,185.6562 53.0256,223.1592 3.1952,496.7254 -70.5505,387.3529 -70.3209,394.114 -45.4834,417.3712 227.7694,213.2581 400.8261,-619.1194 520.6928,-781.5719 -226.1288,485.5903 -283.0263,685.0818 -324.895,772.1828 -13.2772,27.6209 -26.7615,55.6584 -64.8718,376.1423 -19.9119,-24.4819 -21.4459,-22.9378 -251.9255,-303.6695 -51.6867,102.7922 -69.5673,93.8196 -96.8014,203.8773 -39.0691,157.9343 -99.8051,184.5665 -219.6505,278.1445 41.4906,-94.3569 40.3686,-93.3543 74.0582,-189.8574 -232.4324,151.6288 -272.9083,216.169 -452.679,308.2144 -94.3882,48.313 -47.4027,89.218 -126.1938,158.0118 -150.5224,131.3991 -373.4024,212.3162 -484.23,234.1668 204.3605,-219.6174 357.5392,-371.953 153.6894,-317.6408 -77.4616,20.6366 -265.7572,137.1314 -266.9432,164.7095 -18.8482,439.0921 -826.0955,812.8016 -1083.0024,574.982 -63.7681,-59.0236 -115.9136,-80.7102 -176.9986,-132.2056 -92.285,-77.7954 -261.7504,-428.9796 -72.0246,-599.813 142.4438,-128.2447 231.8681,-102.3859 352.9795,-118.0178 -158.1047,-44.6643 -388.028,106.6289 -449.9544,275.1634 -40.2076,109.4455 104.7994,460.5036 322.6163,562.0386 36.4065,16.9687 87.1996,82.2845 261.6336,81.3613 614.7005,-3.2649 844.7506,-643.5089 844.7506,-643.5089 -59.4858,356.8808 -769.2373,927.9526 -1238.9902,461.0315 -254.3315,103.2917 -194.7501,307.7773 -401.0507,308.8589 -263.0451,1.3511 -296.9125,108.402 -337.7134,167.8726 -52.4536,76.4341 -6.8968,135.7292 -7.8816,190.1603"
   style="clip-rule:evenodd;vector-effect:non-scaling-stroke;fill:none;fill-rule:evenodd;stroke:#000000;stroke-width:1.22251;stroke-linejoin:round;stroke-miterlimit:2;stroke-dasharray:none;stroke-opacity:1;-inkscape-stroke:hairline"
   id="path1" />
    </g>
</svg>
