<?xml version="1.0" encoding="UTF-8" standalone="no"?>
<!DOCTYPE svg PUBLIC "-//W3C//DTD SVG 1.1//EN" "http://www.w3.org/Graphics/SVG/1.1/DTD/svg11.dtd">
<svg width="100%" height="100%" viewBox="0 0 6615 6615" version="1.1" xmlns="http://www.w3.org/2000/svg" xmlns:xlink="http://www.w3.org/1999/xlink" xml:space="preserve" xmlns:serif="http://www.serif.com/" style="fill-rule:evenodd;clip-rule:evenodd;stroke-linejoin:round;stroke-miterlimit:2;">
    <g transform="matrix(1,0,0,1,-4.5112,-1.30411)">
        <path d="M3317.01,3269.51C3308.31,3180.23 3397.56,3171.14 3434.49,3216.94C3471.99,3263.44 3434.1,3345.7 3325.33,3320.89C3490.28,3421.56 3241.04,3589.8 3235.88,3344.88C3122.14,3509.49 2982.19,3337.18 3137.67,3257.45C2926.53,3239.54 2988.96,3070.03 3164.77,3108.73C2995.82,3008.2 3159.43,2830.46 3274.74,3001.15C3264.49,2845.05 3434.52,2790.3 3450.99,3007.95C3530.95,2876.78 3713.13,2938.73 3579.79,3118.81C3716.97,3056.46 3810.81,3194.44 3655.57,3292.02C3824.84,3348.25 3758.91,3504.98 3619.76,3455.43C3674.59,3476.86 3692.66,3706.02 3496.92,3604.93C3587.13,3755.86 3406.94,3873.11 3330.81,3665.2C3341.3,3825.07 3108.56,3876.57 3134.61,3664.47C2973.96,3847.03 2879.03,3689.19 2954.19,3574.76C2800.56,3659.2 2697.42,3488.18 2835.64,3402.04C2654.12,3418.62 2635.81,3217.8 2797.15,3202.06C2580.98,3145.71 2662.03,2984.15 2834.62,3023.28C2667.78,2871.99 2824.05,2763.49 2935.58,2846.02C2856.85,2638.95 3010.69,2631.1 3091.86,2729.49C3074.26,2524.56 3241.93,2526.43 3284.84,2685.05C3287.39,2511.98 3494.86,2494.7 3505.37,2691.17C3549.53,2577.11 3779.31,2570.51 3703.61,2779.81C3916.23,2657.51 3963.5,2828.18 3861.92,2917.95C4043.97,2895.98 4089.54,3055.57 3963.09,3118.45C4107.12,3108.83 4131.21,3277.04 3998.48,3309.73C4149.59,3330.93 4090.36,3545.03 3966.42,3514.96C4146.31,3634.24 3964.79,3754.34 3876.36,3687.91C3977.03,3757.64 3904.85,3957.86 3757.17,3824.31C3810.64,3960.67 3656.64,4063.78 3571.59,3944.75C3616.85,4104.28 3399.56,4158.31 3365.05,4006.99C3330.86,4196.76 3136.98,4149.47 3130.11,3998.89C3059.09,4173.73 2874.18,4105.19 2920.35,3937.29C2823.92,4042.83 2641.05,3984.43 2753.01,3810.15C2600.84,3920.87 2484.99,3763.3 2606.92,3653.67C2434.49,3717.84 2380.48,3513.35 2504.04,3463.24C2317.43,3460.97 2337.91,3285.8 2469.32,3256.14C2305.01,3267.09 2302.12,3080.42 2478.71,3071.05C2345.67,3062.28 2313.19,2811.76 2518.18,2862.14C2411.3,2809.9 2438.52,2590.91 2621.84,2710.97C2528.98,2518.55 2710.24,2466.55 2784.52,2551.52C2719.52,2471.78 2883.25,2261.97 3023.94,2407.18C2995.48,2279.67 3214.32,2134.94 3269.92,2361.28C3298.99,2185.26 3552.06,2173.25 3531.77,2370.36C3763.91,2188.42 3842.1,2379.87 3790.87,2463.26C4005.79,2301.79 4109.54,2448.95 4017.94,2605.11C4278.01,2536.41 4282.02,2759.45 4178.9,2827.59C4426.82,2845.86 4449.62,2992.31 4297.56,3090.59C4518.45,3120.39 4444.27,3345.42 4317.32,3355.69C4504.85,3436.89 4395.31,3636.67 4280.32,3603.59C4493.91,3746.6 4241.66,3927.43 4154.28,3860.13C4199.36,3880.85 4234.8,4146.66 3980.22,4052.07C4070.69,4274.86 3835.74,4314.88 3759,4217.04C3790.41,4347.3 3595.28,4470.68 3500.3,4320.18C3508.44,4507.66 3245.45,4550.76 3233.01,4373.85C3199.46,4503.99 2928.51,4531.43 2972.04,4312.82C2871.95,4457.16 2622.64,4384.42 2716.86,4214.04C2601.4,4306.86 2411.77,4200.63 2529.24,4069.47C2301.92,4131.18 2261.1,3915.33 2358.42,3875.59C2203.11,3968.96 2051.5,3754.76 2219.48,3652.82C2046.19,3697.45 1993.92,3437.91 2153.03,3380.38C1918.65,3327.82 1991.68,3150.28 2138.59,3156.68C2003.17,3115.49 1997.32,2909.65 2189.25,2891.33C2019.02,2822.24 2131.97,2586.19 2285.36,2642.88C2134.28,2524.9 2286.3,2294.37 2455.24,2410.94C2338.06,2276.01 2517.56,2074.22 2667.01,2219.9C2660.14,1912.55 2900.94,2055.99 2929.14,2089.17C2895.29,1930.8 3083.05,1812.23 3209,2026.39C3302.28,1775.58 3514.74,1903.11 3513.37,2019.86C3599.23,1835.79 3839.72,1905.82 3798.02,2087.43C3887.38,1962.78 4142.56,1978.23 4060.13,2207.78C4243.99,2076.76 4448.68,2247.11 4270.51,2390.07C4384.61,2333.61 4621.57,2332 4433.37,2580.86C4600.49,2521.57 4774.16,2669.64 4544.53,2809.42C4730,2775.76 4821.84,2959.82 4621.22,3047.55C4803.81,3011.05 4855.36,3236.1 4650.19,3286.01C4821.01,3319.16 4811.36,3525.3 4629.59,3536.47C4752.23,3539.91 4880.03,3799.18 4568.29,3753.77C4778.19,3821.49 4681.67,4056.99 4468.32,3977.31C4646.71,4096.09 4473.43,4270 4312.27,4182.73C4467.53,4363.18 4282.4,4452.81 4141.85,4351.33C4267.54,4492.1 4125.36,4661.98 3945.45,4490.2C4019.14,4699.45 3814.82,4785.31 3726.79,4585.17C3753.04,4807.13 3546.34,4858.82 3473.9,4644.85C3466.86,4903.83 3264.99,4883.08 3233.73,4672.56C3198.81,4931.57 2989.05,4857.96 3002.74,4647.77C2924.7,4847.39 2715.61,4810.6 2755.42,4572.59C2640.82,4781.44 2437.54,4636.39 2522.2,4446.07C2356.23,4612.14 2213.42,4444.27 2327.79,4277.03C2170.62,4441.12 1977.56,4304.8 2165.62,4120.62C1996.74,4223.98 1840.61,4076.5 2014.48,3909C1848.41,3989.16 1716.52,3799.22 1917.63,3683.14C1724.17,3724.31 1650.34,3500.84 1853.39,3428.69C1644.95,3441.56 1609.28,3198.14 1823.4,3174.45C1624.06,3150.71 1615.28,2908.91 1846.27,2882.53C1660.4,2821.68 1781.5,2615.84 1923.12,2641.14C1735.18,2548.91 1851.87,2296.71 2050.94,2373.74C1874.34,2222.19 2057.47,2047.37 2206.43,2166.42C2130.16,1987.93 2286.82,1850.26 2418.81,1990.65C2333.22,1818.72 2570.68,1666.43 2663.37,1833.2C2651.71,1613.76 2871.58,1581.45 2943.57,1726.91C2938.01,1543.14 3253.62,1484.35 3286.74,1677.53C3367.94,1498.15 3616.53,1513 3626.48,1704.24C3692.98,1515.27 3996.34,1616.37 3927.75,1791.08C4088.39,1628.63 4296.12,1790.13 4252.1,1948.07C4457.79,1864.78 4596.31,1956.76 4527.07,2161.57C4774.57,2095.61 4887.3,2262.17 4728.39,2428.94C4974.56,2416.52 5077.82,2585.07 4887.23,2717.79C5121.85,2712.23 5167.43,2956.23 4956.55,3043.65C5193.65,3116.1 5157.64,3302.31 4967.83,3362.33C5159.94,3493.89 5158.07,3585.88 4948.45,3635.48C5113.97,3780.82 5103.18,3872.34 4865.64,3894.64C4984.26,4067.19 4951.02,4148.84 4755.4,4133.27C4889.55,4290.71 4778.67,4409.04 4598.82,4361.48C4693.63,4579.58 4597.6,4656.02 4405.9,4566.19C4429.71,4766.06 4382.23,4859.6 4184.32,4728.74C4178.52,4964.87 4097.7,5015.48 3934.12,4861.41C3900.6,5107.27 3811.66,5132.12 3670.11,4947.17C3576.3,5149.63 3469.92,5175.75 3348.72,4993.99C3237.47,5215.41 3152.75,5175.77 3022.64,4986.4C2852.34,5173.2 2756,5130.65 2719.45,4902.63C2517.72,5089.14 2414.74,5059.98 2426.48,4780.24C2191.15,4930.7 2127.87,4872.49 2210.35,4637.48C1987.93,4739.73 1948.01,4643.48 2006.26,4440.47C1752.06,4508.36 1710.62,4413.36 1819.62,4203.16C1558.19,4227.97 1523.74,4129.78 1651.31,3943.79C1354.16,4049.81 1399.33,3720.35 1537.93,3698.85C1418.38,3729.99 1293.56,3442.42 1501.34,3392.18C1265.57,3253.04 1288.32,3168.46 1481.21,3119.78C1313.37,2920.44 1322.8,2835.88 1527.17,2877.55C1338.1,2717.45 1365.65,2644.22 1599.97,2653.93C1445.51,2451.21 1468.65,2358.13 1695.91,2391.05C1603.08,2201.87 1632.57,2120.47 1816.76,2175.4C1737.89,1935.97 1802,1842.16 2024.29,1909.46C1964.17,1711.44 2028.53,1633.25 2253.4,1709.58C2153.29,1569.78 2373.29,1379.56 2482,1571.79C2407.01,1423.51 2658.05,1262.26 2750.04,1447.09C2759.46,1272.75 2993.91,1205.78 3059.94,1369.14C3179.11,1146.84 3290.18,1183.77 3396.98,1357.24C3534.16,1167 3663.73,1160.52 3775.32,1410.99C3934.25,1255.24 4058.04,1214.81 4081.56,1503.34C4259.68,1324.55 4365.9,1323.91 4349.76,1626.41C4576.31,1471.12 4618.8,1514.13 4595.1,1800.3C4886.38,1712.23 4986.07,1851.15 4864.96,2041.33C5079.44,2020.48 5161.95,2084.54 5030.86,2286.03C5199.36,2314.32 5278.26,2385.83 5166.89,2549.14C5379.63,2596.39 5380.81,2705.36 5265.66,2848.27C5500.31,2929.07 5499.73,3013.86 5307.73,3101.89C5492.21,3224.5 5505.87,3321.78 5309.16,3387.87C5434.27,3523.01 5427.28,3607.31 5269.52,3633.59C5415.89,3771.01 5429.76,3880.43 5202.42,3938.86C5345.33,4144.43 5289.62,4220.2 5095.58,4198.06C5232.19,4448.93 5152.29,4482.42 4969.61,4412.72C5036.53,4664.59 4973.56,4751.91 4784.52,4679.53C4886.81,4948.61 4821.43,5014.09 4575.72,4860.6C4626.81,5133.16 4532.1,5165.41 4331.29,5022.79C4354.51,5294.81 4244.81,5301.66 4064.09,5166.81C4047.74,5357.43 3974.09,5415.83 3804.77,5253.54C3733.98,5516.65 3628.71,5457.76 3514.5,5315.4C3396.58,5530.78 3286.32,5517.2 3181.96,5327.2C3042.88,5517.04 2949.37,5496.09 2897.09,5284.41C2708.87,5481.91 2635.32,5407.71 2610.27,5218.61C2451.3,5346.43 2366.18,5335.89 2382.69,5134.95C2158.87,5272.63 2098.32,5196.55 2138.65,4988.38C1856.4,5085.69 1856.62,4967.87 1914.02,4806.51C1687.32,4880.75 1604.91,4834.04 1712.14,4628.38C1494.16,4662.92 1426.15,4598.29 1551.21,4405.98C1308.94,4427.41 1286.01,4322.66 1382.87,4148.99C1166.91,4142.75 1121.08,4059.93 1280.05,3884.94C1066.01,3839.38 1064.09,3748.43 1196.94,3628.65C1016.96,3553.98 1001.83,3476.6 1168.7,3396.23C972.717,3294.9 959.106,3199.21 1174.28,3110.57C1025.21,2982.39 988.31,2877.18 1213.7,2825.69C1064.26,2691.68 1075.02,2602.86 1277.1,2567.99C1119.39,2383.11 1189.32,2317.6 1367.93,2309.1C1139.22,2122.02 1440.88,1987.2 1509.86,2010.96C1418.56,1826.93 1494.02,1752.46 1698.26,1762.6C1652.93,1598.87 1702.45,1517.69 1901.97,1567.08C1875.1,1375.8 1947.6,1307.84 2143,1395.28C2128.03,1209.25 2213.36,1158.83 2392.87,1252.08C2393.72,1069.43 2486.13,1047.73 2641.99,1137.55C2674.83,937.844 2763.22,926.082 2897.71,1070.29C2987.68,847.364 3091.56,851.851 3205.87,1026.89C3300.33,849.959 3396.77,846.624 3495.34,1027.47C3622.57,834.436 3713.61,850.393 3759.5,1062.45C3938.62,904.289 4050.49,925.392 4087.43,1146.17C4272.24,987.379 4357.09,1029 4348.06,1258.8C4548.26,1109.29 4633.66,1162.91 4607.86,1413.29C4865.84,1300.66 4919.93,1398.31 4868.01,1605.3C5090.51,1560.9 5172.89,1625.79 5085.84,1822.78C5288.5,1780.42 5381.67,1833.34 5279.52,2056.23C5488.79,2044.75 5566.86,2174.66 5426.28,2331.45C5637.17,2348.87 5717.44,2471.02 5540.96,2608.25C5723.46,2634.09 5799.06,2763.94 5610.26,2891.2C5734.9,2964.61 5794.95,3101.75 5633.33,3209.09C5826.01,3302.3 5806.32,3432.75 5615.62,3503.24C5785.03,3607.3 5739.2,3733.98 5567.6,3776.38C5689.43,3867.86 5688.87,4007.46 5511.53,4043.47C5654.17,4254.4 5621.73,4373.64 5389.68,4371.3C5457.01,4567.12 5417.98,4626.28 5221.17,4630.55C5319.98,4838.68 5252.7,4938.96 5059.1,4845.73C5142.51,5094.8 5051.01,5121.68 4853.27,5056.28C4896.94,5280.26 4806.59,5323.83 4616.92,5242C4625.1,5450.97 4515.04,5502.77 4385.6,5377.52C4384.06,5568.78 4312.72,5648.35 4144.17,5492.8C4136.97,5685.96 4059.62,5790.34 3871.68,5586.79C3840.96,5809.96 3757.77,5859.88 3584.34,5641.9C3547.17,5840.41 3416.39,5923.52 3295.25,5665.47C3204.49,5857.87 3037.45,5864.98 2951.71,5643.2C2808.69,5796.61 2696.99,5830.67 2659.08,5583.38C2469.92,5721.68 2363.37,5712.84 2379.24,5485.9C2214.54,5622.8 2119.16,5621.15 2143.44,5380.29C1948.54,5467.08 1819.54,5472.91 1898.98,5222.67C1621.75,5324.55 1581.01,5224.21 1650.68,5029.46C1420.23,5079.68 1362.98,4988.33 1418.48,4804.84C1234.52,4826.44 1132.28,4779.17 1240.52,4554.51C1009.74,4568.86 971.735,4466.11 1080.87,4273.97C823.718,4239.39 821.317,4133.96 960.193,3989.23C732.28,3931.68 719.691,3827.79 882.002,3686.26C669.727,3624.97 650.309,3541.41 844.499,3433.2C608.25,3321.62 601.703,3229.48 846.623,3158.63C669.672,3032.2 638.598,2922.98 852.326,2842.63C695.968,2681.78 712.051,2577.22 927.925,2537.89C716.399,2318.64 823.375,2263.63 1023.48,2256.64C883.385,2054.36 916.931,1943.1 1165.07,1962.95C1039.02,1745.51 1073.72,1654.23 1322.76,1731.16C1190.2,1519.38 1243.67,1452.32 1495.01,1527.17C1393.16,1334.48 1404.99,1223.52 1700.35,1316.42C1635.15,1111.95 1636.86,977.979 1923.48,1144.17C1886.73,852.793 2004.45,853.3 2193.41,988.446C2203.81,779.306 2269.4,685.458 2461.51,855.892C2523.36,639.642 2619.8,583.479 2766.78,761.167C2845.22,516.204 2964.33,513.94 3115.03,700.17C3246.96,491.575 3366.39,452.773 3464.22,707.47C3558.27,380.674 3897.57,634.159 3839.3,749.101C3827.08,590.143 4252.25,524.593 4178.25,823.794C4378.47,699.029 4496.31,707.721 4474.31,942.954C4729.76,802.599 4784.76,864.92 4698.49,1070.08C4989.31,961.661 5058.69,1030.81 4939.77,1250.96C5205.47,1131.36 5339.41,1206.21 5169.59,1453.74C5405.83,1343.03 5508.35,1399.53 5418.72,1696.3C5657.23,1708.42 5705.55,1800.84 5584.94,1964.61C5812.31,1998.33 5877.69,2073.88 5728.49,2204.84C5960.81,2258.86 5982.45,2352.7 5835.92,2478.35C6049.14,2546.73 6106.82,2625.12 5888.73,2721.29C6148.35,2818.94 6185.89,2908.61 5943.35,2988.21C6162.03,3068.1 6209.04,3158.11 5974.26,3254.8C6181.88,3362.41 6173.55,3451.37 5966.95,3523.04C6158.87,3729.6 6114.44,3821.1 5915.85,3837.53C6111.02,4018.13 6090.69,4119.15 5834.88,4133.25C6009.44,4339.72 5980.36,4441.51 5719.48,4424.15C5870.64,4639.81 5847.22,4727.44 5555.35,4694.5C5719.16,4949.54 5650.54,5029.28 5377.04,4977.64C5456.06,5238.52 5394.72,5321.36 5173.65,5201.61C5254.54,5470.59 5161.05,5517.42 4951.53,5416.45C4968.3,5623.3 4923.93,5739.75 4695.45,5583.96C4683.28,5856.45 4574.3,5902.8 4371.44,5729.86C4401.97,6018.88 4244.63,6067.41 4050.04,5879.36C4059.59,6043.67 3894.01,6213.05 3681.55,5964.26C3553.6,6167.56 3433.72,6201.56 3325.35,5994.06C3188.38,6198.62 3072.42,6204.17 2980.6,5981.08C2827.77,6153.13 2731.22,6152.58 2706.36,5932.15C2531.24,6091 2431.32,6095.32 2449.02,5857.93C2248.06,6014.55 2168.96,5967.34 2188.05,5755.89C1973.32,5879.99 1869,5856.34 1908.68,5639.99C1724.65,5759.72 1629.4,5732.1 1663.64,5489.58C1459.53,5566.18 1393.73,5502.16 1451.17,5312.82C1255.29,5379.16 1163.51,5347.83 1271.27,5129.3C1023.71,5158.87 979.91,5076.93 1083.54,4914.29C869.059,4928.02 786.673,4863.64 914.301,4675.08C696.48,4672.56 637.772,4588.05 759.427,4410.61C566.568,4378.35 509.452,4294.04 650.702,4133.64C416.213,4094.4 405.889,3993.84 582.94,3842.02C331.955,3752.76 335.149,3635.76 517.236,3499.23C345.319,3389.63 289.893,3284.87 508.916,3191.53C339.568,3066.71 304.818,2952.43 531.316,2858.62C333.001,2617.4 435.723,2522.31 602.009,2458.09C420.865,2269.85 454.231,2154.56 725.596,2120.19C576.975,1889.31 674.642,1805.56 891.919,1793.26C756.728,1616.91 786.158,1520.49 1053.83,1539.72C931.539,1310.01 1018.07,1238.53 1254.49,1280.61C1173.41,992.404 1304.04,971.213 1507.64,1042.08C1472.99,831.18 1545.55,741.25 1786.1,840.876C1740.85,619.679 1823.34,572.426 2016.47,675.802C2016.25,448.175 2113.61,411.07 2294.9,537.843C2325.52,327.97 2413.93,351.386 2529.36,483.81C2590.07,290.454 2685.89,215.721 2858.72,401.202C2888.97,196.931 2977.75,165.353 3144.01,362.327C3290.84,156.045 3386.64,177.589 3446.46,359.744C3585.46,165.524 3686.96,173.844 3748.03,400.525C3936.78,211.974 4040.84,245.463 4078.98,451.763C4310.01,276.898 4398.94,362.438 4421.45,569.678C4631.78,410.822 4745.64,469.491 4719.08,688.285C4900.26,563.324 5012.82,573.316 4992.46,844.776C5170.52,781.314 5281.09,787.079 5194.44,995.143C5447.48,925.184 5471.7,1008.55 5384.04,1166.88C5638.45,1132.69 5689.2,1227.37 5598.7,1389.21C5844.2,1351.99 5926.28,1427.06 5797.95,1646.69C6021.64,1667.32 6079.34,1758.75 5959.23,1926.01C6214.41,1958.11 6241.32,2063.87 6089.34,2227.34C6312.5,2264.76 6408.12,2405.86 6195.91,2564.65C6444.27,2627.24 6420.98,2780.49 6275.92,2887.82C6475.24,2961.74 6418.8,3134.19 6291.34,3223.56C6480.08,3339.85 6423.51,3505.13 6296.26,3569.5C6459.89,3702.12 6423.49,3814 6252,3866.61C6423.42,4028.23 6328.61,4102.27 6186.49,4160.75C6297.15,4362.63 6235.33,4449.94 6087.18,4479.93C6202.08,4662.72 6120.68,4790.89 5925.37,4781.59C6015.58,4947.94 5972.77,5084.28 5745.96,5055.84C5867.05,5278.78 5730.68,5344.93 5556.17,5298.1C5632.39,5476.16 5523.91,5648.04 5302.71,5551.53C5370.43,5745.34 5215.42,5878.85 5014.41,5773.18C5068,5965.38 4907.13,6095.75 4736.61,5946.48C4785.12,6110.18 4577.72,6256.3 4442.26,6087.65C4444.77,6298.95 4247.45,6389.53 4129.74,6205.77C4124.3,6399.1 3909.09,6492.28 3820.31,6270.35C3793.8,6510.24 3565.26,6512.58 3503.66,6318.99C3485.41,6526.4 3244.62,6586.39 3235.62,6324.36C3154.43,6536.37 2923.66,6536.63 2913.53,6297.27C2803.92,6504.13 2594.55,6472.9 2597.01,6260.34C2423.7,6476.09 2269.45,6350.62 2284.91,6150.89C2121.2,6303.94 1939.02,6236.61 1964.77,6035.53C1822.66,6154.69 1588.92,6053.84 1656.99,5876.15C1439.74,5984.76 1337.15,5852.5 1403.98,5680.98C1244.75,5809.91 1054.89,5648.26 1146.4,5481.73C1001.78,5578.13 845.373,5424.14 960.055,5292.3C813.43,5360.7 668.474,5235.93 795.481,5077.56C594.206,5153.1 499.932,5015.82 644.255,4868.66C501.635,4950.19 352.402,4776.8 513.138,4655.84C352.134,4694.61 252.855,4529.05 421.198,4452.81C241.654,4431.15 263.233,4354.34 359.67,4260.25C184.346,4224.46 141.887,4142.49 267.605,4002.08C121.389,3943.87 75.807,3878.56 216.7,3778.3C82.601,3701.36 61.473,3629.89 183.187,3526.47C54.229,3462.53 22.584,3388.68 170.995,3308.64C54.933,3208.58 48.062,3145.31 165.542,3064.67C70.6,2975.71 77.318,2858.18 190.393,2807.84C102.828,2702.64 115.678,2633.56 222.662,2598.35C143.454,2461.37 185.064,2381.96 290.069,2332.75C233.724,2218.41 287.446,2151.69 372.173,2098.38C308.57,1963.19 372.517,1901.49 459.356,1876.14C435.552,1758.36 474.992,1678.87 586.32,1642.9C571.087,1501.42 634.685,1429.69 741.747,1396.42C747.915,1273.78 822.844,1200.61 932.195,1152.21C950.606,1044.06 1016.16,981.62 1119.26,955.592C1137.87,861.748 1202.13,806.378 1306.54,784.841C1329.59,703.947 1394.47,651.662 1499.48,626.835C1567.97,532.323 1635.36,501.648 1702.32,495.618C1768.1,418.342 1857.33,373.368 1962.83,350.814C2027.52,290.012 2107.36,257.845 2198.63,247.258C2293,185.215 2384.21,162.611 2474.43,152.289C2577.63,108.732 2672.66,91.426 2765.14,82.342C2876.17,50.359 2970.54,44.632 3059.98,46.687L3307.99,41.569" style="fill:none;"/>
    </g>
</svg>
