<?xml version="1.0" encoding="UTF-8" standalone="no"?>
<svg
   width="540mm"
   height="540mm"
   viewBox="0 0 540 540"
   version="1.1"
   xml:space="preserve"
   style="clip-rule:evenodd;fill-rule:evenodd;stroke-linejoin:round;stroke-miterlimit:2"
   id="svg1"
   sodipodi:docname="woman_with_sunglasses.svg"
   inkscape:version="1.4.2 (f4327f4, 2025-05-13)"
   xmlns:inkscape="http://www.inkscape.org/namespaces/inkscape"
   xmlns:sodipodi="http://sodipodi.sourceforge.net/DTD/sodipodi-0.dtd"
   xmlns="http://www.w3.org/2000/svg"
   xmlns:svg="http://www.w3.org/2000/svg"><defs
   id="defs1" /><sodipodi:namedview
   id="namedview1"
   pagecolor="#ffffff"
   bordercolor="#000000"
   borderopacity="0.25"
   inkscape:showpageshadow="2"
   inkscape:pageopacity="0.0"
   inkscape:pagecheckerboard="0"
   inkscape:deskcolor="#d1d1d1"
   inkscape:zoom="0.33488332"
   inkscape:cx="379.23656"
   inkscape:cy="1191.4598"
   inkscape:window-width="1920"
   inkscape:window-height="1112"
   inkscape:window-x="-8"
   inkscape:window-y="-8"
   inkscape:window-maximized="1"
   inkscape:current-layer="g1"
   inkscape:document-units="mm" />
    <g
   transform="matrix(-0.654603,-0.472867,0.485193,-0.671667,3402.7,4271.25)"
   id="g1">
        
    <path
   id="path2"
   style="vector-effect:non-scaling-stroke;fill:none;stroke:#000000;stroke-width:0.285186;-inkscape-stroke:hairline"
   transform="matrix(-0.81768467,0.57566638,-0.59546676,-0.80337995,0,0)"
   d="m -3668.7613,-4595.1065 c -17.634,11.8173 -28.2316,17.1851 -48.0595,25.5041 -39.6559,16.6379 -83.2552,25.8383 -129.0208,25.8383 -183.0625,0 -331.4639,-147.2066 -331.4639,-328.795 0,-181.5884 148.4014,-328.795 331.4639,-328.795 183.0625,0 331.464,147.2065 331.464,328.795 0,22.6986 -2.3188,44.8599 -8.1239,61.8623 -8.4516,-2.9213 -20.5741,-47.0631 -27.1411,-50.3201 -7.8264,-3.8823 -30.5565,-2.1765 -39.9346,0.614 -48.9078,14.5539 -90.8275,41.8698 -102.7746,44.833 l -6.1377,-0.8579 c -3.1225,-1.4578 6.0095,-4.6568 -11.4921,-14.4229 -8.844,-4.9344 -7.9801,-6.1674 -17.1492,-10.3658 -1.8517,-0.8477 -32.4658,-22.9304 -21.7032,-47.841 7.0671,-16.3575 3.0908,-16.944 -1.0719,-34.2874 -1.5619,-6.5059 -2.637,-19.0908 -22.7754,-40.3989 -6.7985,-7.1941 -26.7217,-13.4652 -37.5117,-26.8456 -6.2371,-7.7328 -6.0976,-7.6882 -11.2544,-16.2129 -5.579,-9.2242 -15.1343,-9.7448 -20.5721,-10.4716 -5.8115,9.9846 -16.6028,17.8041 -20.1937,20.1787 -14.2017,9.392 -51.2086,2.5353 -58.047,-4.8633 4.6167,7.4412 43.0961,13.2712 54.8537,6.5568 3.6463,-2.0819 20.0463,-13.5882 23.387,-21.8722 0.2256,-0.56 -3.4904,0.063 -10.6209,-1.1181 -0.9849,2.64 -1.5281,2.2445 -3.3018,4.4434 -3.8113,4.725 -10.5586,9.5129 -15.0513,11.4941 -13.6372,6.014 -46.7353,-2.8645 -46.765,-4.1901 2.024,0.5733 32.266,10.7153 46.765,4.1901 12.0383,-5.4181 19.1874,-15.4739 18.3533,-15.9374 l -5.5237,-8.4974 c -4.2705,1.8247 -4.5134,1.7241 -17.8768,4.9475 -18.9701,4.5766 -26.2207,-0.4532 -27.1983,-2.9286 9.6249,7.8366 16.3549,6.5049 36.4984,0.987 0.7389,-0.2022 6.4224,-1.1435 9.0726,-3.0516 1.4481,-1.043 9.3687,-1.7038 12.6583,-4.6559 6.5036,-5.8371 6.9606,-8.2544 3.4343,-16.0493 -1.7535,-3.8761 -2.3551,-15.1466 -7.0025,-14.3548 -3.5028,0.5977 -2.7405,0.3264 -6.3354,3.0008 -4.5236,3.3648 -5.1097,3.0517 -9.5287,6.4948 3.1175,1.286 4.9202,4.0205 17.7805,-1.3713 5.1915,-2.1764 1.1692,-6.2445 -1.0617,-8.1161 -0.488,-0.4094 2.399,-6.8943 -3.344,-8.0338 -0.3914,-0.077 -7.3028,4.9241 -8.2466,6.328 -2.7916,4.1546 -2.6287,6.1247 -5.1743,9.3401 3.0806,-5.3472 1.4993,-5.6948 5.1743,-9.3401 3.0621,-3.0375 2.5663,-3.635 8.471,-6.9411 -1.0371,-2.5545 -0.4119,-3.1075 -2.8694,-4.3265 -0.4559,-0.2259 -1.1735,-1.6498 -1.5557,-1.6976 -9.6761,-1.1995 -8.8902,3.93 -8.963,4.5999 1.3128,-2.1855 0.6827,-3.2794 6.6285,-4.7544 0.5729,-0.1413 4.1895,-4.3284 -1.244,-7.5621 -3.5859,-2.1348 -9.6558,-1.8807 -12.1851,-6.0618 -1.5219,-2.5159 -1.6785,-2.4336 -2.3068,-5.34 0.1609,0.2969 1.0822,2.6329 2.5271,3.2694 2.3416,1.0328 1.2083,2.885 3.4875,3.5803 12.5242,3.8211 13.6678,3.4053 17.27,3.3332 1.8037,-0.037 4.217,-3.3862 4.3453,-3.7653 3.3336,-9.9144 -8.4691,-25.1983 -13.3821,-26.1751 -3.1912,-0.6355 -9.6526,4.55 -10.9592,9.0878 -3.1052,10.7765 -6.8221,11.3916 -7.9361,11.5755 -5.3485,0.8845 -6.4727,-3.5498 -11.5147,-0.7714 -1.0944,0.6028 -9.1351,5.0339 -12.4473,9.4152 -2.5772,3.4096 0.8035,7.6669 8.7272,18.2837 6.5188,8.7363 11.029,2.9471 15.5463,1.3176 3.178,-1.1458 5.8814,-7.7198 6.2236,-11.1131 0.5104,-5.0603 0.4079,-5.0725 -0.4098,-10.1025 -0.7584,-4.6578 -5.0985,-3.9534 -9.0583,-6.6543 -2.1668,-1.4767 -7.023,-2.7814 -7.2669,-2.6786 -0.1546,0.066 -0.1377,0.087 -2.3775,1.4323 -1.0617,-0.306 -5.4438,-1.5696 -13.5265,2.8036 -3.432,1.8572 -3.3265,2.0443 -4.9436,4.7952 0.5789,-0.7076 3.5704,-4.3591 9.3381,-6.6473 5.5062,-2.1846 7.9053,-0.9048 8.7548,-0.7636 -1.0985,0.7758 -11.5527,8.1579 -12.2525,11.4872 -0.9593,4.5694 -0.6354,4.9995 -4.5122,7.5632 -7.4688,4.9393 -14.8393,12.2504 -16.027,13.4287 -0.3234,0.3214 -4.4383,5.1721 -4.4383,5.1721 2.2411,5.1876 2.5845,4.9986 5.0183,10.0823 0.1251,0.2632 -0.4745,4.2806 -0.5298,4.6506 -0.4222,2.8301 -2.4964,7.2602 -3.0242,7.7258 -3.4639,3.0537 -3.4618,2.9969 -7.4125,5.8331 0.1782,0.021 1.0792,-1.1721 4.3114,3.318 1.3096,1.8176 1.1632,1.8715 2.5087,3.6169 1.6613,-2.8411 2.7215,-3.7992 6.3384,-5.7923 -3.2927,-0.4362 -4.4087,-3.9554 -4.4609,-4.5755 -0.2213,-2.6379 0.5031,-2.5372 0.6805,-5.1753 0.2572,-3.8263 2.8961,-4.2359 2.5077,-7.796 0.7358,1.6083 5.9736,13.0628 6.9686,20.9573 1.7157,13.6118 -4.0429,16.3289 -5.0081,17.6352 -5.7438,7.7697 -6.0167,28.5001 -6.8683,32.6151 -6.5515,31.684 1.8468,34.4512 3.0754,41.5202 -2.2504,-5.0227 -2.0517,-5.0635 -5.4078,-9.3431 -1.9655,-2.5079 -2.0302,-4.3732 -4.3606,-8.9967 -4.5184,-8.9659 -5.7184,-7.9117 -5.9439,-8.0885 0.5411,12.3317 2.1828,13.3056 -7.312,26.2556 -6.467,8.8181 -20.5862,38.0505 -16.3969,55.3676 -3.1513,-9.3778 -3.7979,-9.1501 -5.7552,-18.8603 -0.9982,-4.9475 -3.8974,-9.1022 -4.3904,-9.8077 0.081,1.2789 0.3075,4.8795 -3.9824,15.5177 -2.5619,6.3515 -1.5802,6.7164 -5.0585,12.6308 1.065,-2.4022 7.5119,-15.6418 9.3965,-27.5619 5.5298,10.988 5.1517,11.8215 6.1272,16.6614 1.067,5.292 0.6561,5.3623 2.967,10.2325 -0.5461,-6.2487 -3.2713,-26.1254 12.3826,-48.1246 8.0162,-11.2645 11.9606,-14.0743 13.341,-32.6476 7.4483,10.2174 8.2097,10.2671 9.1607,13.0961 1.7944,5.3411 4.0552,10.3232 4.4539,11.2015 -8.1811,-29.7718 3.016,-76.7732 6.6233,-73.2275 3.7802,-5.1909 3.4003,-6.0078 2.6286,-15.967 -0.1793,-2.3015 -0.6405,-12.1438 -8.5786,-24.7156 -1.3312,-2.1093 -3.9342,-7.9148 -3.9997,-8.2381 -1.0885,-5.3979 -1.3571,-5.5971 0.1372,-7.9149 0.5191,-0.8053 -1.4419,-3.1858 2.7454,-9.6053 4.461,-6.8384 1.0822,-7.6211 2.0231,-20.2193 0.087,-1.1711 -0.1764,-1.1549 -0.6221,-14.6628 -0.018,-0.5357 -0.079,-0.4839 -0.9337,-6.6371 -0.7111,-5.1103 -2.7781,-10.6764 -3.1123,-11.5758 25.8999,1.4272 34.1537,-5.4287 46.2127,14.5086 0.1395,0.2295 0.1862,0.1883 1.8405,2.8138 0.33,0.5236 1.8375,1.2159 3.1082,0.8722 0.6067,-0.1647 0.6242,-0.043 2.3643,-0.5032 0.3341,-0.088 2.1335,-0.6251 2.3652,-0.1677 0.125,0.249 0.6363,-1.1884 -1.9369,0.9209 -2.6686,2.1886 -2.9105,5.146 -3.5786,6.9961 0.5041,-2.4102 2.4165,-9.5231 6.2236,-7.6843 -4.6966,-5.6947 -3.678,-6.4865 -5.1106,-11.1785 -1.5588,-5.1038 -0.095,-6.1415 -14.6118,-14.141 -11.8324,-6.5209 -14.3042,-4.184 -35.6314,-0.1542 -8.6402,1.6324 -9.082,2.9473 -9.336,3.7043 -1.5803,4.702 -4.7675,0.1682 -12.9146,5.5563 -7.2854,4.8176 -4.2652,8.3795 -11.6695,11.4039 -3.965,1.6194 -3.8789,1.7687 -6.6264,5.0391 -3.1492,3.749 -3.1021,3.8293 -3.5632,8.6285 -13.5337,8.3469 -12.2239,9.8554 -19.8505,22.9233 -2.0313,3.4805 -6.3518,20.7203 -0.2214,34.6197 9.3996,21.311 11.1408,25.7412 7.9514,39.6588 -1.7339,7.5703 -14.7981,24.066 -15.9028,30.0179 -2.2433,12.0786 -3.3654,12.5626 1.987,23.6643 2.1429,4.4444 9.2562,12.4842 4.1976,31.5518 -5.7922,21.8306 14.0471,24.6343 9.0562,54.3388 -1.2102,7.2005 -1.2778,7.3783 1.7669,14.0235 2.7792,6.0637 21.6345,8.7088 22.5314,27.3889 0.8373,17.4601 -5.8473,19.5073 -4.8593,29.7989 0.061,0.6455 2.5014,4.4027 -0.2255,5.7557 -0.6006,0.2978 -3.8984,1.9335 2.9811,7.7818 1.2216,1.0389 2.1049,6.1886 -1.2553,8.0937 -0.097,0.055 -5.4961,4.4677 -3.138,8.5603 2.4186,4.1974 3.6411,3.2175 6.1191,7.3142 -1.1058,0.9606 -5.4499,2.1276 -5.0205,14.4748 0.1107,3.1971 5.5339,9.7091 -10e-5,11.2064 -15.661,4.236 -1.4531,23.1155 -4.3933,32.8399 -0.8382,2.7691 -0.83,2.8371 -3.1379,4.669 -1.8918,1.5003 -7.3243,7.4513 -6.2769,9.1824 4.3267,7.1525 4.1187,7.6354 2.1971,12.2952 -4.6997,11.3957 9.007,19.6074 13.4936,32.2178 1.2586,3.5374 1.441,3.6383 0.9593,4.3559 -4.998,7.436 -4.9939,7.439 -5.0442,7.494 -0.173,0.1872 -0.5215,0.1362 -0.6947,0.3232 -1.3822,1.8273 -1.4052,1.911 -3.6074,2.5352 -7.6789,2.1755 -7.7936,1.4803 -14.7326,0.6711 -4.008,-0.4676 -11.4951,-2.3178 -14.5061,-2.088 -8.4423,0.6446 -15.3844,7.4391 -9.0203,6.934 4.26,-0.3375 4.2345,-1.2384 9.4714,-0.3731 0.588,0.098 0.5492,0.1127 7.2903,1.5665 3.6832,0.7938 3.7743,0.2063 7.3898,1.232 -7.1162,1.1019 -7.2023,0.1302 -11.9287,0.982 -1.7514,0.3162 -1.7596,0.6037 -2.8509,0.2095 -5.285,-1.9062 -12.7127,2.523 -15.949,3.2478 -1.8581,0.4168 -15.772,2.7661 -17.3357,2.9552 0.097,1.0876 -0.8169,4.9627 8.1471,5.9498 1.1017,0.1221 11.1857,-4.5449 24.8197,-5.1334 6.7177,-0.2898 6.7208,-0.6996 9.8229,0 3.1656,0.7146 3.2342,0.012 3.9075,-0.1048 -5.5125,0.6221 -19.547,1.5888 -30.2072,4.6101 -5.8055,1.6458 -5.4233,2.5201 -11.0935,4.4464 3.0435,1.4404 2.756,1.869 5.7071,3.5162 1.4839,0.8276 4.0972,4.174 8.2384,3.3526 7.8039,-1.5482 7.7075,-2.0717 12.8859,-2.3055 2.5753,-0.1158 3.2774,1.8928 14.7869,-5.1336 -13.2045,8.6071 -17.6614,7.4666 -21.4911,12.4366 9.5501,3.3474 9.2058,8.0174 16.6326,6.3178 4.1135,-0.9424 7.7763,-2.8911 23.1309,-3.3526 14.6865,-0.4422 15.5114,-1.7505 22.9116,-4.0124 4.2867,4.7707 4.6065,9.7315 10.3577,12.3939 3.1308,1.4486 2.6665,2.3594 6.0207,3.1432 8.6167,2.0107 9.3852,3.9513 11.195,1.2565 3.9456,-5.8707 -5.6109,-10.9453 -8.1317,-16.4479 -1.5311,-3.3415 -4.6282,-2.7629 -3.5911,-16.1348 0.1988,-2.5749 6.3364,-22.2117 4.4354,-24.7255 -0.9736,-1.288 -0.8076,-2.8231 -2.1121,-2.3046 -0.367,0.1453 -16.7904,0.8732 -19.54,0.3141 -3.5582,-0.7238 -11.8108,-1.0928 -10.9839,-3.1431 0.048,-0.1193 6.0894,2.0137 12.8849,2.9336 1.6192,0.2186 10.8445,1.777 16.3713,0.733 4.3646,-0.8245 6.8836,-7.676 12.8859,-10.0579 1.1079,-0.4391 0.9131,-0.7714 2.0876,-1.0621 2.4462,-0.6069 2.7147,-0.6689 6.8098,-5.7477 2.2647,-2.8066 -2.5907,-6.0689 4.3708,-10.384 8.4484,-5.2384 3.9537,-18.0541 3.4269,-19.5535 6.6582,-1.2443 11.3836,-9.1805 9.584,-15.1304 -1.778,-5.8797 0.7892,-5.8869 2.9474,-6.9572 0.334,-0.1658 6.4799,-4.9069 6.6069,-10.0822 0.332,-13.4958 -6.7709,-14.3466 -1.7863,-19.7619 5.6641,-6.1542 13.552,-8.6405 15.3824,-4.2826 0.2285,0.5448 1.1539,2.7477 5.3965,5.0857 1.7657,0.9729 1.9523,1.1631 9.7151,-0.937 3.5817,-0.9688 -2.1336,-3.3415 -3.3726,-6.2905 -0.2901,-0.6903 -1.9134,-4.5551 -1.4851,-9.2352 0.1312,-1.4293 3.0529,-2.4326 3.3737,-2.5435 6.0933,-2.0919 6.5751,-3.6349 10.2008,-10.453 -6.363,0.9067 -6.362,-0.4391 -11.6849,0.1474 -3.4688,0.3821 -2.5712,-6.2375 0.1344,-9.3695 0.2411,-0.2774 10.4836,-5.5901 7.1522,-6.6922 -3.3103,-1.0947 -0.3558,-15.0713 -0.085,-16.3522 1.1078,0.1922 5.1712,2.817 4.133,-1.7169 -1.3015,-5.6775 -0.1116,-6.2131 -4.1227,-11.2126 0.7338,-0.046 -1.863,-0.2907 -1.3742,-9.0179 0.376,-6.7184 10.7727,-6.2569 6.1129,-22.4364 0.7082,12.9866 0.022,12.9805 -4.5849,25.1649 -0.9726,2.5738 2.026,7.8702 3.3951,6.4704 1.0299,-1.0522 9.5389,-4.8633 15.0943,-0.9881 3.3567,2.3405 5.367,3.567 5.367,3.567 0,0 2.4134,-4.7615 3.6574,-5.7048 0.5085,-0.3854 6.2515,-10.1768 11.7198,-13.7926 0.6364,-0.4209 3.9281,-3.129 28.2827,-21.798 19.3236,-14.8133 21.902,-25.4902 25.8886,-33.8371 -3.5766,9.7569 -4.3933,9.3168 -10.2051,17.9646 -1.8088,2.6899 -1.1921,1.731 -4.0572,5.5208 -7.2618,9.6044 -39.5073,29.6804 -44.2389,36.5401 -0.6024,0.8726 -4.7275,4.6568 -11.0469,15.1073 -0.2119,0.3498 6.1375,16.4398 6.1375,16.4398 0,0 5.2933,-15.5036 20.2441,-25.3905 6.1898,-4.0938 29.5984,-13.9451 44.0809,-21.9587 13.4988,-7.4684 17.7969,-11.7695 19.1373,-13.0331 -11.16,8.8562 -18.8359,13.6776 -39.3013,22.9823 -10.2871,4.6771 -22.9249,6.0952 -40.5146,29.3589 -1.8952,2.5068 -3.9641,8.6998 -4.0029,9.385 -0.08,1.4292 1.5822,5.4903 2.1049,14.3028 1.1888,20.0525 -4.7807,23.4886 -5.6057,38.4959 -0.5799,10.5354 1.3887,10.3494 6.6687,42.7212 1.5865,9.7334 9.1423,30.1063 16.11,41.1654 12.4976,19.834 19.5718,22.8145 34.0247,32.5998 12.7352,8.6225 13.6872,6.568 30.286,10.2266 12.1357,2.6755 31.3089,0.6811 32.4781,0.7674 11.4296,0.8397 11.3815,-0.6393 22.8121,-0.6392 0.8169,10e-5 1.6818,-0.4097 2.4483,-0.128 1.2216,0.4514 0.8813,0.8304 1.8518,1.7139 0.01,0.01 0.022,0 0.034,6e-4"
   sodipodi:nodetypes="cssssscccccccccccccccccccccccccccccsccccsccccccccccscccccccccccccccccccccccccccccccccccscccccccccccccccccccccccsccccccsccccccccccccccsccccccccccccscccccccsccccccccccccccccccccccccccccccccccccccsccccccccccccscccsccccccccccccsccccccccccsccccccsccsccc" /></g>
</svg>
