<?xml version="1.0" encoding="UTF-8" standalone="no"?>
<!DOCTYPE svg PUBLIC "-//W3C//DTD SVG 1.1//EN" "http://www.w3.org/Graphics/SVG/1.1/DTD/svg11.dtd">
<svg width="100%" height="100%" viewBox="0 0 6615 6615" version="1.1" xmlns="http://www.w3.org/2000/svg" xmlns:xlink="http://www.w3.org/1999/xlink" xml:space="preserve" xmlns:serif="http://www.serif.com/" style="fill-rule:evenodd;clip-rule:evenodd;stroke-linejoin:round;stroke-miterlimit:2;">
    <path d="M6513.72,4013.04C6444.81,4027.6 6342.66,3594.72 6278.58,3562.68C6202.21,3524.49 5980.41,3541.27 5888.9,3568.72C5411.66,3711.89 5002.61,3980.6 4886.03,4009.75L4826.14,4001.31C4795.67,3986.97 4884.78,3955.5 4714,3859.43C4627.7,3810.89 4636.13,3798.76 4546.66,3757.46C4528.59,3749.12 4229.86,3531.89 4334.88,3286.84C4403.84,3125.93 4365.04,3120.16 4324.42,2949.55C4309.18,2885.55 4298.69,2761.75 4102.18,2552.14C4035.84,2481.37 3841.43,2419.68 3736.14,2288.06C3675.28,2211.99 3676.64,2212.43 3626.32,2128.57C3571.88,2037.83 3478.64,2032.71 3425.58,2025.56C3368.87,2123.78 3263.57,2200.7 3228.53,2224.06C3089.95,2316.45 2728.84,2249 2662.11,2176.22C2707.16,2249.42 3082.64,2306.77 3197.37,2240.72C3232.95,2220.24 3392.98,2107.05 3425.58,2025.56C3427.78,2020.05 3391.52,2026.18 3321.94,2014.56C3312.33,2040.53 3307.03,2036.64 3289.72,2058.27C3252.53,2104.75 3186.69,2151.85 3142.85,2171.34C3009.78,2230.5 2686.81,2143.16 2686.52,2130.12C2706.27,2135.76 3001.37,2235.53 3142.85,2171.34C3260.32,2118.04 3330.08,2019.12 3321.94,2014.56L3268.04,1930.97C3226.37,1948.92 3224,1947.93 3093.6,1979.64C2908.49,2024.66 2837.74,1975.18 2828.2,1950.83C2922.12,2027.92 2987.79,2014.82 3184.35,1960.54C3191.56,1958.55 3247.02,1949.29 3272.88,1930.52C3287.01,1920.26 3364.3,1913.76 3396.4,1884.72C3459.86,1827.3 3465.42,1803.02 3429.91,1726.84C3412.82,1690.17 3403.25,1672.71 3403.22,1670.02C3403.22,1670.02 3347.81,1551.8 3334.09,1511.95C3326.82,1490.82 3299.32,1454.78 3293,1436.7C3286.68,1418.62 3265.07,1388.8 3246.32,1377.38C3217.8,1360.02 3211.94,1333.9 3157.22,1294.85C3124.82,1271.72 3127.33,1265.93 3127.93,1270.04C3133.41,1307.43 3233.56,1459.68 3081.7,1550.21C2990.48,1604.6 2933.88,1544.78 2904.58,1506.77C2867.32,1458.43 2869.48,1457.13 2836.62,1397.6C2874.73,1469.2 2957.55,1635.12 3081.7,1550.21C3118.29,1525.19 3174.46,1454.46 3162.08,1409.4C3159.21,1398.93 3156.91,1356.98 3127.93,1270.04C3172.65,1324.01 3426.23,1435.88 3387.5,1242.19C3373.68,1173.11 3364.64,1173.76 3330.58,1112.62C3311.43,1078.26 3291.43,1050.58 3263.32,1055.19C3235.21,1059.8 3180.58,1099.04 3161.91,1140.26C3117.66,1237.98 3120.59,1243.59 3064.44,1254.45C2987.94,1269.24 2918.99,1240.99 2834.4,1363.06C2817.46,1387.5 2786.08,1395.25 2786.08,1395.25C2786.08,1395.25 2731.68,1471.56 2628.23,1575.01C2625.07,1578.17 2584.92,1625.89 2584.92,1625.89C2606.79,1676.92 2642.86,1742.83 2642.86,1742.83C2642.86,1742.83 2701.15,1871.33 2710.86,1948.99C2727.6,2082.89 2671.41,2109.62 2661.99,2122.47C2605.94,2198.9 2603.28,2402.83 2594.97,2443.31C2531.04,2754.99 2612.99,2782.21 2624.98,2851.75C2603.02,2802.34 2604.96,2801.94 2572.21,2759.84C2553.03,2735.17 2552.4,2716.82 2529.66,2671.34C2485.57,2583.14 2473.86,2593.51 2471.66,2591.77C2476.94,2713.08 2492.96,2722.66 2400.31,2850.05C2337.21,2936.8 2199.43,3224.36 2240.31,3394.71C2209.56,3302.46 2203.25,3304.7 2184.15,3209.18C2174.41,3160.51 2146.12,3119.64 2141.31,3112.7C2142.1,3125.28 2144.31,3160.7 2102.45,3265.35C2077.45,3327.83 2087.03,3331.42 2053.09,3389.6C2063.48,3365.97 2126.39,3235.73 2144.78,3118.47C2198.74,3226.56 2195.05,3234.76 2204.57,3282.37C2214.98,3334.43 2210.97,3335.12 2233.52,3383.03C2228.19,3321.56 2201.6,3126.03 2354.35,2909.62C2432.57,2798.81 2471.06,2771.17 2484.53,2588.46C2557.21,2688.97 2564.64,2689.46 2573.92,2717.29C2591.43,2769.83 2613.49,2818.84 2617.38,2827.48C2537.55,2534.61 2646.81,2072.25 2682.01,2107.13C2718.89,2056.06 2715.19,2048.03 2707.66,1950.06C2705.91,1927.42 2701.41,1830.6 2623.95,1706.93C2610.96,1686.18 2585.56,1629.07 2584.92,1625.89C2574.3,1572.79 2572.19,1516.69 2613.05,1453.54C2656.58,1386.27 2623.61,1378.57 2632.79,1254.64C2633.64,1243.12 2631.07,1243.28 2626.72,1110.4C2626.54,1105.13 2625.95,1105.64 2617.61,1045.11C2610.67,994.838 2590.5,940.083 2587.24,931.236C2839.97,945.276 2920.51,877.834 3038.18,1073.96C3039.54,1076.22 3040,1075.81 3056.14,1101.64C3059.36,1106.79 3074.07,1113.6 3086.47,1110.22C3092.39,1108.6 3106.18,1122.16 3123.17,1117.63C3126.43,1116.77 3103.64,1042.1 3089.66,995.944C3074.45,945.738 3088.73,935.53 2947.08,856.838C2831.62,792.69 2807.5,815.679 2599.39,855.32C2515.08,871.378 2510.77,884.313 2508.29,891.76C2492.87,938.014 2461.77,893.414 2382.27,946.419C2311.18,993.81 2340.65,1028.85 2268.4,1058.6C2229.71,1074.53 2230.55,1076 2203.74,1108.17C2173.01,1145.05 2173.47,1145.84 2168.97,1193.05C2036.91,1275.16 2049.69,1290 1975.27,1418.55C1955.45,1452.79 1913.29,1622.38 1973.11,1759.11C2064.83,1968.75 2081.82,2012.33 2050.7,2149.24C2033.78,2223.71 1906.3,2385.98 1895.52,2444.53C1873.63,2563.35 1862.68,2568.11 1914.91,2677.32C1935.82,2721.04 2005.23,2800.13 1955.87,2987.7C1899.35,3202.45 2092.94,3230.03 2044.24,3522.24C2032.43,3593.07 2031.77,3594.82 2061.48,3660.19C2088.6,3719.84 2272.59,3745.86 2281.34,3929.62C2289.51,4101.38 2224.28,4121.52 2233.92,4222.76C2234.52,4229.11 2258.33,4266.07 2231.72,4279.38C2225.86,4282.31 2193.68,4298.4 2260.81,4355.93C2272.73,4366.15 2281.35,4416.81 2248.56,4435.55C2247.62,4436.09 2194.93,4479.5 2217.94,4519.76C2241.54,4561.05 2253.47,4551.41 2277.65,4591.71C2266.86,4601.16 2224.47,4612.64 2228.66,4734.1C2229.74,4765.55 2282.66,4829.61 2228.66,4844.34C2075.84,4886.01 2214.48,5071.73 2185.79,5167.39C2177.61,5194.63 2177.69,5195.3 2155.17,5213.32C2136.71,5228.08 2083.7,5286.62 2093.92,5303.65C2136.14,5374.01 2134.11,5378.76 2115.36,5424.6C2069.5,5536.7 2203.25,5617.48 2247.03,5741.53C2259.31,5776.33 2261.09,5777.32 2256.39,5784.38C2207.62,5857.53 2207.66,5857.56 2207.17,5858.1C2205.48,5859.94 2202.08,5859.44 2200.39,5861.28C2186.91,5879.26 2186.68,5880.08 2165.19,5886.22C2090.26,5907.62 2089.14,5900.78 2021.43,5892.82C1982.32,5888.22 1909.26,5870.02 1879.88,5872.28C1797.5,5878.62 1729.76,5945.46 1791.86,5940.49C1833.43,5937.17 1833.18,5928.31 1884.28,5936.82C1890.02,5937.78 1889.64,5937.93 1955.42,5952.23C1991.36,5960.04 1992.25,5954.26 2027.53,5964.35C1958.09,5975.19 1957.25,5965.63 1911.13,5974.01C1894.04,5977.12 1893.96,5979.95 1883.31,5976.07C1831.74,5957.32 1759.26,6000.89 1727.68,6008.02C1709.55,6012.12 1569.79,6027.28 1554.53,6029.13C1555.48,6039.84 1564.16,6081.53 1651.63,6091.25C1662.38,6092.44 1747.17,6050.91 1880.21,6045.12C1945.76,6042.27 1945.79,6038.24 1976.06,6045.12C2006.95,6052.15 2007.62,6045.24 2014.19,6044.09C1960.4,6050.21 1823.45,6059.72 1719.43,6089.44C1662.78,6105.63 1693.69,6097.33 1638.36,6116.28C1668.06,6130.45 1685.67,6148.16 1714.48,6164.36C1728.95,6172.51 1751.88,6189.51 1792.3,6181.43C1868.44,6166.2 1822.47,6180.37 1873,6178.07C1898.13,6176.93 1904.98,6196.69 2017.29,6127.57C1888.44,6212.24 1877.47,6172.48 1840.09,6221.36C1933.29,6254.3 1949.22,6305.34 2021.69,6288.62C2061.83,6279.35 2045.76,6283.62 2195.59,6279.08C2338.9,6274.73 2346.95,6261.86 2419.16,6239.61C2460.99,6286.54 2464.11,6335.34 2520.23,6361.53C2550.78,6375.78 2546.25,6384.74 2578.98,6392.45C2663.06,6412.23 2670.56,6431.32 2688.22,6404.81C2726.72,6347.06 2633.47,6297.14 2608.87,6243.01C2593.93,6210.14 2563.71,6215.83 2573.83,6084.29C2575.77,6058.96 2635.66,5865.79 2617.11,5841.06C2607.61,5828.39 2609.23,5813.29 2596.5,5818.39C2592.92,5819.82 2432.66,5826.98 2405.83,5821.48C2371.11,5814.36 2290.58,5810.73 2298.65,5790.56C2299.12,5789.39 2358.07,5810.37 2424.38,5819.42C2440.18,5821.57 2530.2,5836.9 2584.13,5826.63C2626.72,5818.52 2651.3,5751.12 2709.87,5727.69C2720.68,5723.37 2718.78,5720.1 2730.24,5717.24C2754.11,5711.27 2756.73,5710.66 2796.69,5660.7C2818.79,5633.09 2771.41,5601 2839.34,5558.55C2921.78,5507.02 2877.92,5380.95 2872.78,5366.2C2937.75,5353.96 2983.86,5275.89 2966.3,5217.36C2948.95,5159.52 2974,5159.45 2995.06,5148.92C2998.32,5147.29 3058.29,5100.65 3059.53,5049.74C3062.77,4916.98 2973.65,4888.84 3045.39,4881.32C3177.13,4867.52 3153.59,4793.83 3158.89,4778.46C3171.97,4740.5 3282.01,4734.79 3246.44,4705.25C3206.61,4672.16 3298.08,4660.68 3301.2,4659.6C3360.66,4639.02 3362.64,4569.12 3310.7,4574.89C3276.85,4578.65 3285.61,4513.53 3312.01,4482.72C3314.36,4479.99 3414.31,4427.73 3381.8,4416.89C3349.5,4406.12 3378.33,4268.63 3380.97,4256.03C3391.78,4257.92 3431.43,4283.74 3421.3,4239.14C3408.6,4183.29 3420.21,4178.02 3381.07,4128.84C3388.23,4128.39 3362.89,4125.98 3367.66,4040.13C3371.33,3974.04 3472.78,3978.58 3427.31,3819.42C3434.22,3947.17 3427.52,3947.11 3382.57,4066.97C3373.08,4092.29 3402.34,4144.39 3415.7,4130.62C3425.75,4120.27 3508.78,4082.78 3562.99,4120.9C3595.74,4143.93 3615.36,4155.99 3615.36,4155.99C3615.36,4155.99 3638.91,4109.15 3651.05,4099.87C3656.01,4096.08 3712.05,3999.76 3765.41,3964.19C3771.62,3960.05 3803.74,3933.41 4041.39,3749.76C4229.95,3604.04 4255.11,3499.01 4294.01,3416.9C4259.11,3512.88 4251.14,3508.55 4194.43,3593.62C4176.78,3620.08 4182.8,3610.65 4154.84,3647.93C4083.98,3742.41 3769.33,3939.9 3723.16,4007.38C3717.29,4015.97 3677.03,4053.19 3615.36,4155.99C3613.29,4159.43 3675.25,4317.71 3675.25,4317.71C3675.25,4317.71 3726.9,4165.2 3872.79,4067.94C3933.19,4027.67 4161.61,3930.76 4302.93,3851.93C4434.65,3778.46 4476.59,3736.15 4489.67,3723.72C4380.77,3810.84 4305.87,3858.27 4106.17,3949.8C4005.79,3995.81 3882.47,4009.76 3710.83,4238.61C3692.34,4263.27 3672.15,4324.19 3671.77,4330.93C3670.99,4344.99 3687.21,4384.94 3692.31,4471.63C3703.91,4668.89 3645.66,4702.69 3637.61,4850.32C3631.95,4953.96 3651.16,4952.13 3702.68,5270.58C3718.16,5366.33 3791.89,5566.74 3859.88,5675.53C3981.83,5870.64 4050.86,5899.96 4191.89,5996.22C4316.16,6081.04 4325.45,6060.83 4487.42,6096.82C4605.84,6123.14 4792.93,6103.52 4804.34,6104.37C4915.87,6112.63 4915.4,6098.08 5026.94,6098.08" style="fill:none;"/>
</svg>
