<?xml version="1.0" encoding="UTF-8" standalone="no"?>
<!DOCTYPE svg PUBLIC "-//W3C//DTD SVG 1.1//EN" "http://www.w3.org/Graphics/SVG/1.1/DTD/svg11.dtd">
<svg width="100%" height="100%" viewBox="0 0 6615 6615" version="1.1" xmlns="http://www.w3.org/2000/svg" xmlns:xlink="http://www.w3.org/1999/xlink" xml:space="preserve" xmlns:serif="http://www.serif.com/" style="fill-rule:evenodd;clip-rule:evenodd;stroke-linejoin:round;stroke-miterlimit:2;">
    <path d="M3246.99,6037.76C3101.68,6076.07 2965.42,6087.72 3027.31,6048.82C3263,5900.66 3194,5809.08 3389.31,5667.66C3353.86,5679.12 3188.5,5733.33 2972.09,5910.63C2874.8,5990.34 2714.47,6067.88 2710.76,6088.92C2803.6,5713.34 2937.21,5881.28 3126.45,5784.11C3159.17,5767.31 3278.05,5685.52 3338.2,5678.3C3564.3,5651.17 3358.51,5481.38 3340.33,5439.81C3290.85,5326.72 3113.54,5325.88 3057.12,5269.46C2939.7,5152.04 2939.94,5119.28 2776.12,5146.67C2842.54,5269.01 2845.76,5267.7 2865.48,5405.74C2887.72,5561.43 3282.73,5649.62 3327.55,5665.53C3127.21,5651.22 3131.69,5680.22 3078.41,5693.21C3055,5698.92 2818.44,5689.96 2783.46,5728.1C2782.71,5728.91 2702.49,5775.32 2598.1,5795.4C2536.91,5807.16 2445.09,5818.36 2431.74,5819.99C2328.69,5832.56 2328.38,5828.51 2285.63,5817.82C2398.67,5831.95 2399.61,5845.68 2510.58,5820.71C2592.72,5802.23 2597.55,5816.29 2716,5757.06C2720.14,5754.99 2753.15,5738.49 2771.69,5741.15C2790.22,5743.81 2747.93,5806.02 2744.56,5810.98C2693.05,5886.76 2605.84,5927.77 2467.28,5950.86C2328.06,5974.07 2047.19,5851.77 1903,5833.75C1898.77,5833.22 1894.44,5833.15 1890.22,5833.75C1862.59,5837.69 2021.55,5814.99 2218.15,5714.5C2575.48,5531.86 2714.05,5723.47 2820.82,5711.23C2932.15,5698.46 2820.71,5704.29 3078.41,5693.21C3110.12,5691.85 3153.87,5652.32 3183.36,5663.67C3097.74,5611.55 2993.01,5572 2895.29,5584.61C2893.87,5584.79 2895.1,5584.81 2671.7,5554.8C2608.03,5546.24 2558.74,5519.21 2520.52,5518.6C2410.32,5516.85 2379.96,5527.48 2354.76,5539.35C2333.93,5549.15 2292.7,5575.52 2327.18,5609.91C2366.75,5649.37 2435.93,5612.4 2414.78,5566.42C2397.34,5528.49 2372.21,5528.01 2453.75,5523.22C2466.12,5522.49 2465.53,5521.73 2478.3,5520.11C2451.08,5517.14 2451.03,5518.58 2445.64,5514.98C2439.58,5510.95 2361.32,5502.83 2315.53,5506.85C1995.65,5534.91 1789.74,5696.26 1622.02,5675.29C1597.87,5672.27 1545.75,5648.98 1559.29,5662.51C1561.29,5664.52 1724.05,5589.14 1814.27,5535.98C2013.26,5418.71 2149.69,5520.99 2368.09,5506.27C2348.75,5496.98 1810.77,5366.05 1810.77,5366.05C1850.08,5296.17 1907.68,5257.63 1968.08,5237.53C2035.43,5215.11 2147.01,5185.45 2240.23,5190.16C2335.68,5194.98 2421.11,5192.33 2567.36,5295.01C2625.5,5335.83 2858.67,5464.79 2974.08,5569.7C2712.59,5320.11 2102.92,5313.39 2102.92,5313.39C2385.21,5318.81 2908.44,5446.28 2788.88,5433.65C2749.95,5429.53 2423.23,5088.82 2408.08,5070.86C2390.38,5049.88 2154.72,5058.88 2112.68,4924.38C2103.33,4894.46 2035.27,4653.31 2111.57,4526.13C2150.34,4461.52 2268.04,4608.88 2277.77,4620C2393.23,4751.95 2277.78,4901.56 2368.56,5016.94C2477.98,5156.01 2698.2,5397.95 2850.57,5452.59C2863.89,5457.36 2873.95,5257.55 2776.12,5146.67C2663.28,5018.8 2500.78,4980.59 2333.66,4886.59C2445.82,4935.94 2522.05,4927.91 2583.56,4949.46C2626.48,4964.5 2782.51,5145.62 2782.51,5145.62C2792.48,5147.28 2775.19,5128.59 2774.1,5127.41C2770.22,5123.21 2788.93,5069.09 2801.74,4995.44C2838.46,4784.27 2846.27,4632.21 2830.08,4737.43C2826.13,4763.12 2824.42,4928.67 2795.88,5025.73C2782.23,5072.12 2780.54,5070.91 2761.25,5115.09C2720.99,5074.43 2536.24,4914.95 2609.78,4743.35C2653.51,4641.32 2485.83,4136.96 2507.74,4049.33C2508.89,4044.72 2559.14,4178.09 2433.21,4341.05C2320.49,4486.93 2263.39,4569.78 2437.47,4705.18C2532.72,4779.25 2763.4,5220.46 2814.83,5140.97C2859.5,5071.93 3001.63,4978.93 2952.78,4675.36C2925.72,4507.22 2868.31,4289.76 2861.32,4195.64C2855.16,4231.81 2841.5,4397.32 2701.66,4589.61C2626.76,4692.59 2587.98,4779.7 2584.68,4895.87C2514,4756.11 2434.46,4781.22 2214.65,4552.66C2133.37,4468.15 2108.15,4551.03 2111.57,4526.13C2129.99,4392.11 2108.64,4118.15 2019.51,3913.16C1899.23,4239.64 1729.12,4236.52 1881.7,4551.86C1954.31,4701.91 2042.44,4720.4 2188.34,5103.37C2110.55,5007.28 2129.28,4991.91 2033.37,4912.33C2009.2,4865.9 1862.54,4901.19 1854.57,4908.01C1828.35,4930.45 1827.65,4934.89 1806.12,4964.67C1794.42,4980.85 1778.86,4968.57 1778.05,4986.91C1775.22,5051.53 1685.5,5059.74 1680.69,5009.28C1676.44,4964.66 1704.26,4939.78 1766.03,4970.52C1812.56,4993.68 1814.77,4930.44 1854.57,4908.01C1850.52,4908.89 1794.75,4917.37 1794.75,4917.37C1534.61,4932.98 1458.88,4689.83 1447.92,4664.49C1571.35,4726.21 1615.8,4872.74 1749.79,4839.24C1885.4,4805.34 1997.09,4853.2 2016.79,4861.64C1956.54,4845.79 1610.49,4634.52 1558.94,4572.66C1523.27,4529.85 1531.02,4386.85 1203.48,4316.67C893.184,4250.17 700.375,4061.13 665.468,4026.91C710.548,4153.19 694.57,4290.07 890.42,4350.91C1108.92,4418.78 1570.37,4517.67 1558.94,4572.66L1780.04,4731.56C1780.04,4731.56 1266.64,4423.9 797.55,4473.28C1087.26,4585.21 1028.91,4605.93 1300.52,4757.84C1363.39,4793 1445.36,4800.72 1556.39,4836.05C1518.45,4839.66 1391.18,4890.31 1390.81,4890.42C1383.01,4880.61 1412.26,4830.87 1209.43,4776.78C917.939,4699.05 867.877,4574.24 850.342,4545.55C852.952,4565.13 856.175,4684.78 995.931,4766.31C1179.81,4873.57 1177.7,4901.18 1390.81,4890.42C1289.37,4952.55 1257.98,4986.26 1137.37,4893.39C1012.49,4797.23 669.13,4945.55 669.13,4945.55C669.13,4945.55 1031.6,5056.35 1176.58,5001.68C1247.39,4974.98 1467.87,4831.78 1564.94,4928.86C1573.51,4937.43 1578.95,4981.74 1559.42,4993.39C1531.5,5010.06 1460.77,5045.07 1441.28,5009.49C1433.73,4995.7 1450.03,4975.31 1419.62,4950.69C1402.78,4937.06 1349.21,4950.71 1358.47,4990.57C1372.36,5050.33 1439.5,5002.44 1441.28,5009.49C1455.66,5066.51 1648.06,4951.93 1663.95,4912.94C1659.94,4922.19 1503.11,5061.97 1453.8,5083.62C1399.6,5107.41 1314.95,5243.89 1310.98,5245.54C1427.54,5135.74 1541.38,5117.58 1645.23,5100.64C1871.96,5063.65 2098.31,5125 2134.62,5139.98C1959.84,5091.51 1957.97,5124.91 1777.8,5124.91C1460.87,5124.91 1317.98,5474.46 1367.03,5459.13C1533.19,5407.2 1581.29,5313.31 2056,5165.99C2156.09,5134.92 2205.65,5127.47 2160.92,5033.94C2153.73,5018.91 2147.38,5043.26 2050.4,4876.58C2032.45,4845.74 1972.87,4743.32 1743.29,4553.12C1731.52,4471.88 1713.3,4311.87 1776.06,4165.44C1905.35,3863.75 1950.79,3876.16 1967.91,3852.46C1782.59,3984.83 1600.83,4049.76 1593.68,4329.96C1587.82,4303.04 1550.59,4151.08 1615.38,4017.7C1621.82,4004.43 1694.27,3908.04 1794.96,3832.83C1638.12,3868.78 1571.09,3926.43 1523.78,3973.05C1432.48,4063.02 1598.53,4341.54 1666.79,4461.43C1398.71,4139.79 1400.21,4064.5 1286.61,3907.24C1214.81,3807.83 982.819,3659.61 982.819,3659.61C982.819,3659.61 1266.94,3835.66 1358.63,4019.04C1501.34,4304.46 1564.04,4288.97 1743.29,4553.12C1566.12,4441.23 1347.78,4326.62 1237.14,4228.98C1212.6,4207.32 1126.14,4175.8 1100.09,4143.17C1091.75,4132.72 1116.69,4153.62 1116.69,4153.62C1116.69,4153.62 1111.66,4189.12 1101.33,4203.53C1087.06,4223.43 1063.43,4230.43 1025.47,4216.21C971.353,4195.93 981.144,4077.09 1100.09,4143.17C1126.53,4157.86 1109.44,4145.71 1115.06,4149.86C1193.72,4207.94 1447.91,4375.16 1447.91,4375.16L1314.94,4201.5C1314.94,4201.5 906.449,3819.32 801.81,3753.65C671.87,3672.11 632.465,3684.11 547.404,3551.2C577.095,3612.71 649.465,3837.82 828.684,3954.31C941.721,4027.79 1203.55,4136.35 1314.94,4201.5C1263.29,3973.05 1250.97,3866.04 1250.97,3866.04C1250.97,3866.04 1131.98,3884.84 913.825,3755.27C757.722,3662.56 569.913,3375.81 604.823,3402.05C799.467,3548.35 1028.97,3557.45 1157.43,3648.13C1012.86,3555.13 963.704,3487.18 900.348,3354.13C757.325,3053.78 828.251,3010.87 789.269,2861.44C747.818,2702.55 678.83,2606.73 664.751,2587.17C1027.71,2820.28 1024.89,2933.62 1033.72,2960.91C1097.05,3156.66 1053.3,3404.13 1114.29,3612.77C1002.05,3487.2 950.446,3490.09 801.81,3225.13C659.43,2971.33 355.345,2931.79 353.911,2931.31C353.615,2931.21 588.436,3200.05 636.983,3235.88C793.115,3351.12 905.833,3441.48 1114.29,3612.77C1183.92,3669.98 1226.7,3699.83 1306.71,3818.58C1255.5,3707.26 1244.11,3686.03 1235.38,3563.74C1220.67,3357.88 1185.94,3145.06 1239.17,2938.27C1265.78,2834.89 1432.42,2553.27 1375.75,2654.77C1223.09,2928.14 1325,3289.09 1318.36,3634.5C1285.57,3136.14 1339.87,3093.79 1410.95,2961.77C1512.08,2773.96 1454.68,2635.78 1599.07,2651.82C1648.38,2657.3 1701.08,2664.77 1777.42,2566.61C1822.22,2509.01 1793.19,2480.45 1825.24,2304.2C1826.35,2298.08 1847.15,2270.97 1849.33,2218.94C1840.54,2381.92 1635.71,2465.32 1614.49,2485.37C1506.73,2587.14 1544.3,2584.57 1516.65,2673.05C1527.03,2657.6 1539.7,2642.69 1599.07,2651.82C1635.82,2657.48 1525.72,2726.53 1489.78,2906.23C1437.01,3170.08 1369.96,3154.04 1342.87,3420.42C1341.2,3436.81 1299.8,3533.93 1417.71,3831.61C1471.4,3609.15 1472.12,3615.44 1531.88,3505.42C1615.47,3351.5 1678.64,3352.28 1820.14,3266.17C1946.93,3189.02 1993.47,3137.53 1993.47,3137.53C1896.84,3241.52 1692.89,3328.97 1648.07,3368.52C1427.54,3563.17 1337.36,3980.22 1399.09,4095.94C1420.2,3954.34 1451.29,3774.91 1892.89,3784.11C2071.92,3787.84 2288.92,3534.63 2321.66,3506.41C2182.93,3510.58 2186.44,3530.84 2046.97,3540.45C1750.62,3560.89 1560.32,3709.06 1502.46,3753.39C1486,3766 1412.19,3843.5 1417.71,3831.61C1442.14,3778.98 1549.18,3648.61 1557.86,3633.62C1633.68,3502.66 1997.66,3457.27 2088.17,3185.72C2112.97,3111.33 2083.77,3107.21 2113.26,2985.06C2122.91,2945.09 2126.73,2794.38 2127.15,2777.76C2045.5,3117.21 1861.11,3040.83 1672.53,3194.68C1338.83,3466.9 1344.01,3560.43 1318.36,3634.5C1351,3550.18 1384.96,3375.88 1436.03,3260.97C1526.92,3056.47 1525.7,2851.14 1636.69,2771.86C1716.25,2715.03 1623.69,2921.17 1618.78,3004.77C1617.68,3023.43 1609.56,3161.4 1619.83,3238.43C1698.52,3061.4 1671.66,2974.87 1815.85,2782.61C1931.78,2628.04 1921.54,2618.87 1921.62,2445.9C1986.28,2672.9 1959.19,2749.39 1918.27,2872.69C1880.88,2985.36 1833.74,3101.64 1676.11,3185.72C1485.18,3287.56 1369.03,3844.66 1401.35,3823.98C1401.35,3823.98 1259.78,3626.7 1233.45,3538.04C1212.16,3466.38 1203.01,3491.02 1172.46,3308.68C1171.25,3301.43 1109.01,3054.22 1158.9,2947.25C1209.93,2837.83 1174.74,2766.01 1141.89,2676.03C1115,2602.35 1101.83,2574.15 1050,2470.49C1034.17,2438.83 949.825,2267.4 779.24,2157.35C719.112,2118.56 437.53,2125.66 437.53,2125.66C437.53,2125.66 714.726,2162.59 807.71,2253.15C901.12,2344.12 956.67,2534.73 997.99,2671.49C1039.41,2808.59 1068.62,3162.52 1068.62,3162.52C1068.62,3162.52 1166.13,2923.93 1184.38,2892.52C1245.12,2787.99 1179.26,2742.03 1269.42,2549.7C1281.75,2523.39 1344.83,2379.81 1348.63,2381.85C1367.82,2392.11 1320.51,2298.68 1394.25,2261.81C1397,2260.43 1534.37,2119.31 1696.67,2107.71C1763.78,2102.92 1808.48,2152.83 2006.29,2077.47C2217.81,1996.9 2352.12,2072.83 2514.66,2184.04C2496.02,2177.43 2498.34,2165.55 2412.41,2169.64C2306.93,2174.66 2176.43,2331.61 1978.93,2250.29C1896.07,2216.17 1814.05,2056.64 1567.06,2159.56C1435.62,2214.32 1392.57,2244.57 1354.11,2369.56C1401.46,2297.02 1546.13,2230.34 1546.13,2230.34L1712.69,2163.94C1712.69,2163.94 1677.48,2212.54 1660.83,2231.48C1621.21,2276.53 1575.84,2265.19 1533.28,2338.09C1527.25,2348.42 1558.03,2438.82 1618.59,2382.79C1665.96,2338.96 1587.88,2284.39 1546.81,2321.15C1535.89,2330.92 1501.69,2409.89 1470.62,2448.3C1438.81,2487.62 1355.94,2557.05 1355.94,2557.05L1204.42,2665.82C1204.42,2665.82 1197.92,2462.01 1177.51,2323.24C1174.21,2300.82 1198.06,2282.88 1164.89,2254.68C1141.55,2234.84 1105.97,2240.52 1083.91,2275.64C1069.79,2298.13 1078.19,2326.22 1099.01,2336.84C1126.33,2350.77 1158.44,2337.66 1176.69,2310.88C1176.69,2310.88 1183.54,2402.8 1193.01,2466.9C1198.76,2505.79 1189.64,2592.83 1215.64,2758.84C1194.11,2558.18 1145.03,2574.42 1035.5,2362.66C1005.65,2304.96 1008.11,2200.78 960.984,2132.85C881.491,2018.26 745.178,1986.78 745.178,1986.78C810.239,1990.58 958.998,2005.17 1100.48,2141.72C1100.48,2141.72 1017.58,1988.41 996.052,1964.3C758.966,1698.77 996.356,1494.91 996.407,1494.82C932.305,1723.76 1008.32,1733.78 1094.39,1991.98C1109.71,2037.93 1100.48,2141.72 1100.48,2141.72C1146.45,2195.99 1192.18,2208.09 1215.1,2263.45C1243.26,2331.44 1271.8,2475.73 1269.42,2549.7C1268.09,2590.92 1271.84,2121.98 1250.16,1971.13C1233.9,1858.06 1147.05,1817.64 1139.3,1644.63C1132.57,1494.23 1098.23,1495.36 1124.04,1337.59C1148.06,1190.81 1129.44,1179.51 1112.6,1116.37C1156.12,1281.73 1203.9,1255.04 1291.86,1400.52C1396.7,1573.9 1302.05,1969.15 1302.05,1969.15C1302.05,1969.15 1268,2201.54 1269.51,2291.98C1269.51,2291.98 1435.06,2069.74 1617.97,1886.83C1779.02,1725.78 1862.27,1827.19 2195.5,1771.98C2250.03,1762.95 2466.24,1759.16 2595.77,1769.51C2718.89,1779.35 2942.09,1911.35 2865.72,1937.7C2839.09,1946.89 2495.26,1828.86 2327.92,1898.99C2317.05,1903.55 2099.57,1971.03 2000.13,1989.53C1888.46,2010.31 1826.6,1960.08 1715.36,1984.59C1661.57,1996.44 1570.89,2078.11 1389.12,2233.91C1377.67,2243.72 1374.66,2262.85 1375.78,2247.26C1384.9,2119.55 1440.85,2143.85 1574.11,1903.99C1708.16,1662.7 1770.75,1765.13 1917.67,1532.5C1985.73,1424.75 1993.88,1433.05 2017.5,1380.79C2036.63,1338.48 2077.14,1252.79 2083.92,1188.07C1896.16,1375.82 1837.64,1328.29 1772.25,1465.79C1672.75,1674.98 1672.79,1712.43 1574.11,1903.99C1583.82,1878.22 1608.05,1487.47 1560.43,1455.82C1505.4,1419.25 1475.72,1440.17 1475.55,1486.03C1475.27,1565.09 1534.02,1543.09 1551.84,1536.28C1575.77,1527.13 1576.24,1487.45 1576.24,1487.45C1602.1,1619.15 1574.35,1764.33 1586.54,1760.62L1397.16,2051.05C1397.16,2051.05 1351.4,2039.49 1320.86,2065.09C1253.48,2121.58 1341.99,2197.94 1390.2,2139.71C1418.17,2105.93 1410.35,2069.09 1396.89,2050.98C1384.9,2034.84 1529.02,1829.33 1586.54,1760.62C1597.96,1746.99 1682.12,1668.48 1729.41,1552.4C1740.98,1524 1754.5,1434.26 1727.18,1376.22C1694.18,1306.08 1679.26,974.985 1869.7,784.542C1895.29,758.961 1850.82,811.336 1909.75,939.015C1993.89,1121.32 1947.15,1107.05 1739.73,1418.07C1811.92,1154.81 1826.61,1162.71 1839.42,976.845C1845.66,1081.49 1739.73,1418.07 1739.73,1418.07C1739.73,1418.07 1920.99,1238.43 2021.35,1169.75C2191.44,1053.35 2155.47,791.919 2185.29,792.443C2373.29,1160.59 2128.39,1264.65 2017.5,1380.79C2017.5,1380.79 2475.07,1255.3 2604.62,1138.66C2703.61,1049.53 2519.45,1197.6 2489.19,1210.93C2169.76,1351.7 2201.45,1389.29 2100.46,1516.86C2030.84,1604.79 1824.49,1750.82 1746.81,1802.6C1943.5,1706.99 1964.02,1646.43 2325.49,1652.26C2689.33,1658.12 2715.94,1524.79 2878.54,1581.69C3023.53,1632.44 2713.46,1455.95 2388.59,1449.27C2211.09,1445.63 2180.35,1504.26 2061.92,1558.74C2283.91,1405.64 2415.6,1477.86 2598.2,1415.78C2758.26,1361.36 2746.24,1338.57 2920.5,1247.96C2968.78,1222.85 3173.85,1110.37 3177.81,1056.13C3143.2,1073.46 2649.01,1353.69 2506.76,1282.56C2450.75,1254.56 2627.16,1279.51 2706.91,1124C2759.53,1021.38 2838.01,1077.37 3093.51,1013.05C2988.52,990.097 2768.3,970.346 2768.3,970.346C2790.4,962.312 2838.47,878.197 2795.39,858.221C2770.3,846.587 2762,879.268 2730.72,887.299C2682.01,899.811 2637.85,853.202 2683.09,788.182C2709.89,749.657 2763.61,762.734 2779.17,790.489C2789.97,809.762 2778.62,852.471 2795.39,858.221C2828.72,869.652 2808.59,955.036 2768.3,970.346C2686.35,1001.48 2572.84,840.45 2572.84,840.45C2572.84,840.45 2535.39,775.158 2404.93,648.658C2295.16,542.21 2235.4,626.013 2090.35,598.15C1925.95,566.569 2215.53,690.643 2268.28,767.379C2348.67,884.31 2284.86,1061.22 2619.18,975.249C2676.45,960.523 2720.78,984.908 2768.3,970.346C2685.06,973.611 2375.22,1062.49 2368.51,1204.82C2517.55,1050.96 2792.54,1019.72 2792.54,1019.72C2792.54,1019.72 3092.14,1002.72 3160.03,1001.69C2888.68,835.61 2864.86,487.983 2864.86,487.983C2864.86,487.983 2932.67,638.048 2996.25,669.839C3112.51,727.971 3135.62,757.952 3168.2,864.78C3178.81,899.582 3214.05,978.812 3232.49,1058.78C3246.91,1121.33 3213.74,986.324 3235.28,925.74C3249.73,885.107 3300.21,815.751 3317.8,732.816C3338.13,636.998 3330.12,528.719 3326.34,517.99C3342.2,644.893 3404.82,742.115 3376.65,874.914C3355.07,976.637 3320.8,958.932 3254.32,1064.47C3246.11,1077.5 3250.36,1078.31 3255.93,1092.64C3257.61,1096.93 3236.98,1045.66 3250.08,1073.24C3181.5,1019.72 3208.85,1013.08 3160.03,1001.69C3091.84,985.799 3011.34,1080.08 2944.02,1090.75C3052.93,1136.96 3067.49,1011.1 3177.81,1056.13C3226.11,1075.84 3250.08,1073.24 3250.08,1073.24C3250.08,1073.24 3235.57,1074.01 3194.43,1111.72C3099.83,1198.43 3122.99,1191.15 3092.85,1258.78C3058.05,1336.85 2882.19,1427.03 2768.54,1397.35C2744.32,1391.02 2820.52,1473.94 3068.45,1434.5C3239.01,1407.36 3271.37,1084.76 3271.37,1084.76C3255.14,1106.2 3266.52,1214.07 3306.1,1271.82C3334.66,1313.48 3433.78,1338.98 3477.31,1381.61C3551.66,1454.41 3733.45,1443.27 3828.3,1427.81C3800.14,1419.52 3613.12,1376.77 3558.7,1347.92C3476.31,1304.24 3416.51,1254.12 3379.9,1179.28C3357.05,1132.57 3284,1072.9 3284,1072.9C3284,1072.9 3356.6,1101.99 3388.43,1122.11C3440.44,1155 3454.42,1199.69 3527.86,1237.44C3695.91,1323.82 3669.68,1278.93 3737.35,1305.34C3802.51,1330.78 3908.95,1389.25 3908.95,1389.25C3908.95,1389.25 3775.8,1243.16 3662.57,1206.63C3553.18,1171.35 3426.76,963.726 3284,1072.9C3282.52,1074.03 3290.18,1058 3338.42,1047.66C3425.06,1029.09 3743.32,1106.8 3810.18,1158.81C3825.99,1171.1 3929.18,1251.36 4051.39,1225.63C4118.28,1211.55 4008.73,1192.21 4004.13,1191.4C3937.27,1179.6 3944.81,1090.43 3893.3,1067.54C3570.02,923.855 3557.53,1001.38 3441.84,1017.01C3433.7,1018.11 3254.32,1064.47 3254.32,1064.47C3254.32,1064.47 3399.91,967.924 3417.39,919.222C3464.91,786.866 3415.06,739.086 3671.64,586.739C3745.22,543.055 3864.88,548.753 3881.95,549.566C3756.53,648.979 3752.97,654.455 3723.8,810.024C3711.21,877.162 3561.34,982.909 3543.97,989.775C3693.82,964.086 3750.63,963.984 3750.63,963.984C3750.63,963.984 3871.43,724.753 3932.12,715.17C4070.18,693.371 4054.94,697.849 4194.82,684.528C4299.93,674.517 4312.68,637.711 4346.39,534.584C4368.08,577.958 4305.93,811.606 4109.51,892.671C4035.26,923.313 3750.63,963.984 3750.63,963.984C3750.63,963.984 3934.64,822.99 4006.58,806.68C4095.66,786.481 4127.65,758.416 4176.67,749.346C4121.65,771.55 4049.57,756.726 3788.99,937.15C3691.47,1004.67 3934.3,952.498 4047.04,985.658C4076.57,994.344 4285.48,1109.46 4317.05,1196.29C4346.19,1276.43 4367,1334.16 4445.66,1403C4289.15,1382.4 4281.02,1311.42 4182.58,1271.52C4123.05,1247.38 4021.87,1241.59 3902.51,1324.11C4001.01,1341.36 4058.86,1419.33 4130.39,1407.67C4264.75,1385.78 4374.28,1461.76 4418.32,1494.35C4119.69,1307.45 3812,1702.4 3788.99,1794.44C3770.45,1868.62 3675.91,1948.27 3661.87,1962.31C3792.92,1909.89 3787.36,1887.96 3937.31,1880.82C4024.4,1876.67 4106.23,1814.14 4243.71,1660.79C4266.97,1634.85 4331.99,1444.23 4455.59,1505.96C4470.62,1513.47 4500.65,1482.28 4590.19,1544.57C4705.7,1624.92 4738.94,1667.66 4749.22,1680.88C4691.98,1546.36 4441.42,1046.49 4410.31,1075.49C4410.31,1075.49 4484.36,1110.08 4631.36,1435.01C4649.06,1474.12 4887.73,1851.23 4887.73,1851.23C4887.73,1851.23 4813.54,1622.82 4776.24,1418.65C4750.69,1278.73 4568.24,1138.81 4505.81,1072.34C4483.9,1049.03 4463.85,967.058 4429.22,927.472C4392.8,885.822 4349.95,921.46 4287.24,822.446C4412.48,1007 4250.22,1110.94 4465.75,1434.23C4509.55,1499.93 4672.9,1584.29 4731.89,1661.42C4746.53,1680.57 4854.65,1819.65 4988.33,1962.44C4908.08,1866 4839.24,1837.45 4757.85,1778.26C4703.32,1738.6 4611.05,1473.4 4258.03,1726.34C4131.23,1817.19 4147.66,1916.21 4012.58,1997.25C4215.82,1930.43 4210.53,1818.12 4420.8,1784.92C4501.94,1772.11 4765.68,1763.93 4840.32,1860.97C4704.98,1810.7 4667.23,1831.43 4519.3,1812.34C4461.88,1804.93 4344.43,1865.43 4321.32,1886.99C4227.04,1974.99 4171.94,2097.95 4022.73,2097.95C4033.19,2100.66 4330.68,2168.73 4524.17,2071.99C4682.59,1992.78 4669.72,1842.47 4833.3,1876.55C4906.41,1891.78 5016.55,1967.19 5061.53,2050.53C5097.96,2118.01 5133.92,2208.79 5231.7,2299.18C5245,2311.46 5369.04,2391.57 5450.82,2506.07C5376.6,2447.75 5322.21,2396.51 5231.7,2299.18C5022.01,2073.66 4977.09,2005.7 4697.31,2037.09C4598.48,2048.17 4381.68,2261.74 4381.68,2261.74C4381.68,2261.74 4691.87,2090.58 4840.65,2124.58C5018.84,2165.3 5364.83,2496.92 5450.82,2506.07C5368.05,2482.11 5268.98,2574.43 5304.73,2725.97C5283.79,2557.87 5194.72,2456.16 5134.36,2400.58C5062.12,2334.05 5010.8,2284.6 4930.33,2234.71C4835.42,2175.86 4707.81,2225.41 4572.93,2227.99C4607.35,2237.05 4739.94,2223.77 4773.3,2235.24C4816.95,2250.24 4828.66,2243.31 4946.29,2318.17C4988.72,2345.17 5171.76,2449.26 5203.55,2475.98C5094.53,2438.98 5018.23,2436.08 4910.32,2395.38C4860.1,2376.43 4762.57,2327.41 4652.37,2321.89C4499.86,2314.27 4496.18,2296.57 4353.78,2352.73C4146.9,2434.31 4127.5,2434.44 4134.7,2417.64C4156.07,2367.79 4434.66,2584.56 4748.11,2578.29C4978.57,2573.68 5164.53,2541.35 5304.73,2725.97C5358.4,2796.64 5347.21,2820.25 5387.46,2933.19C5411.78,3001.43 5440.61,3025.95 5454.84,3168.26C5502.76,3012.85 5463.91,2812.07 5457.27,2586.41C5450.99,2372.97 5374.37,2320.3 5303.11,2059.01C5237.51,1818.47 4859.8,1465.12 4809.78,1393.66C4740.82,1295.15 4721.61,1271.4 4685.88,1215.9C4630.87,1130.44 4602.96,894.952 4642.63,802.973C4724.78,612.556 4704.76,588.303 4692.94,600.125C4686.36,606.704 4710.22,680.919 4712.41,687.755C4741.42,778.007 4901.71,882.559 4864.95,1182.7C4861.38,1211.92 4807.3,1375.14 4959.68,1560.18C5013.77,1625.86 5083.3,1630.41 5083.3,1630.41C5105.17,1639.57 5204.92,1487.36 5062.7,1482.53C4975.76,1479.58 4988.87,1639.64 5083.3,1630.41C5113.85,1627.42 5166.08,1629.85 5171.66,1633.84C5129.78,1623.85 5046.77,1686.02 5135.65,1740.1C5171.65,1762.01 5268.3,1660.28 5171.66,1633.84C5216.24,1647.51 5211.74,1657.53 5214.1,1683.64C5218.25,1729.78 5215.96,1786.54 5228.92,1822.18C5232.8,1832.84 5251,1939.17 5303.11,2059.01C5285.88,1993.54 5222.4,1867.7 5228.46,1779.89C5241.26,1594.25 5206.94,1555.16 5296.61,1375.81C5340.75,1287.55 5416.63,1306.43 5449.16,1130.77C5484.95,1244.68 5475.6,1246.01 5514.07,1359.59C5559.57,1493.94 5555.73,1763.42 5543.28,1810.72C5495.08,1993.87 5377.93,2065.38 5369.64,2222.91C5365.03,2310.56 5346.26,1986.55 5339.88,1951.46C5305.2,1760.71 5355.13,1754.51 5425.85,1473.4C5424.58,1697.48 5251.65,1710.48 5356.64,2147.91C5362.84,2173.75 5364.55,2267.7 5449.17,2389.34C5437.09,2278.94 5440.02,2262.45 5484.3,2018.87C5492.5,1973.8 5555.31,1794.22 5585.16,1727.07C5592.62,1710.29 5620.86,1646.73 5733.35,1551.7C5713.19,1598.32 5702.13,1600.96 5740.85,1786.8C5749.54,1828.51 5774.67,2031.74 5652.83,2126.69C5411.51,2314.76 5457.27,2586.41 5457.27,2586.41C5457.27,2586.41 5623.94,2410 5662.7,2410.6C5706.07,2411.27 5731.99,2384.9 5733.23,2335.86C5734.41,2288.9 5680.16,2258.25 5634.78,2307.18C5577.61,2368.8 5662.7,2410.6 5662.7,2410.6L5620.97,2426.19L5457.27,2586.41C5450.14,2658.28 5461.01,2593.09 5461.36,2682.72C5461.54,2729.96 5543.84,3062.09 5541.74,3108.76C5558.42,3058.8 5567.51,2984.58 5581.66,2931.24C5623.37,2774.1 5614.84,2658.19 5614.84,2658.19C5614.84,2658.19 5680.64,2623.76 5659.17,2575.11C5628.92,2506.56 5530.58,2562.12 5532.33,2605.38C5535.22,2676.49 5614.84,2658.19 5614.84,2658.19C5649.43,2651.36 5539.51,3127.24 5541.74,3108.76C5550.25,3038.53 5606.58,2851.34 5672.29,2741.83C5729.44,2646.58 6070.18,2304.04 6041.41,2360.37C5999.27,2442.91 5997.3,2584.98 5908.3,2684.58C5859.91,2738.72 5816.75,2807.28 5739.12,2912.86C5649.33,3034.97 5732.15,3060.53 5673.91,3229.34C5687.16,3181.32 5709.48,3053.38 5887.63,2868.63C6045.1,2705.33 6126.94,2740.28 6296.51,2683.65C6128.87,2774.76 6169.35,3012.65 5948.7,3096.7C5928.06,3104.57 5833.15,3107.33 5740.67,3157.78C5656.9,3203.47 5676.44,3221.38 5673.91,3229.34C5665.15,3256.86 5582.55,3413 5582.55,3413L5541.74,3108.76L5480.04,3545.74C5480.04,3545.74 5478.85,3261.05 5454.84,3168.26C5407.83,2986.59 5422.62,2973.55 5318.51,2818.79C5311.09,2807.76 5311.33,2808.97 5221.14,2684.1C5315.18,2951.76 5189.24,3204.22 5180.57,3227.73C5112.43,3412.69 5242.4,3704.21 5239.41,3704.21C5186.16,3704.21 5071.2,3470.47 5063.73,3459.79C4930.68,3269.71 4871.66,3247.43 4717.68,3139.64C4681.95,3114.63 4613.73,2979.06 4538.34,2930.48C4420.4,2854.47 4314.36,2673.09 4314.36,2673.09C4314.36,2673.09 4425.96,2769.54 4573.57,2819.41C4772.45,2886.59 4784.99,2949.78 4843.52,3052.21C4912.01,3172.06 5132.9,3328.4 5157.23,3347.48C5134.07,3159.86 4930.15,2813.55 4679.85,2647.8C4784.58,2700.2 4998.49,2653.38 5115.23,2929.86C5147.85,3007.11 5146.35,3107.73 5162.8,3477.28C5146.97,3470.08 5042.01,3420.02 4972.64,3339.47C4915,3272.53 4790.71,3230.55 4664.53,3211.51C4355.82,3164.91 4331.72,3081.41 4323.74,3065.45C4428.04,3188.72 4536.4,3231.44 4692.94,3420.22C4773.78,3517.7 4804.38,3556.46 4982.59,3562.03C5061.63,3564.49 5154.46,3615.54 5268.8,3724.68C5155.72,3655.67 5043.86,3624.91 4911.94,3622.1C4974.39,3681.64 5090.82,3690.87 5138.38,3811.93C5166.96,3884.68 5227.31,4015.65 5214.6,3938.35C5204.94,3879.55 5248.25,3817.14 5321.59,3573.45C5379.51,3380.99 5358.94,3316.53 5368.75,3170.77C5359.54,3483.53 5354.79,3563.38 5224.82,3861.47C5236.39,3854.76 5263.49,3827.15 5295.03,3792.45C5507.12,3559.16 5520.28,3398.14 5788.51,3254.21C5972.12,3155.69 6155.94,3157.93 6155.94,3157.93C6155.94,3157.93 5975.3,3226.83 5921.23,3285.37C5793.85,3423.26 5765.14,3404.85 5631.7,3456.55C5449.53,3527.12 5290.66,3880.19 5278.86,3910.9C5369.85,3856.3 5450.83,3687.77 5557.06,3695.09C5676.62,3703.34 5943.71,3378.18 5961.13,3354.31C5946.06,3440.97 5849.34,3580.49 5805.34,3644.79C5771.75,3693.89 5714.3,3755.06 5709.28,3857.61C5704.37,3957.85 5548.3,4095.04 5302.1,4105.9C5214.6,4109.76 5116.85,4261.23 5064.77,4332.84C5052.47,4349.76 5298.13,3925.21 5466.64,3766.56C5541.74,3695.86 5702.58,3651.48 5581.44,3692.81C5456.6,3735.41 5321.09,3919.2 5157.3,4174.48C5265.9,4102.08 5408.52,3940.07 5564.4,3869.83C5354.81,3987.54 5379.77,3972.47 5157.3,4174.48C5222.88,4013.43 5079.74,3863.18 5010.37,3738.57C5095.7,3943.51 5084.16,4157.94 5064.01,4137.68C5064.01,4137.68 5005.95,3746.66 4823.26,3699.51C4820.04,3698.68 4703.76,3671.83 4651.28,3668.22C4869.54,3725.15 4975.52,4009.73 4977.74,4022.64C5009.61,4207.44 5036.44,4209.21 4976.44,4326.01C4911.95,4451.57 4881.66,4475.77 4793.93,4586.9C4937.13,4432.24 4892.93,4349.37 4899.27,4120.89C4903.27,3977.19 4760.35,3874.04 4572.52,3678.32C4601.09,3772.31 4595,3808.85 4625.73,3867.96C4661.71,3937.15 4782.46,4121.69 4635.1,4446.9C4603.62,4516.37 4547.25,4586.62 4500.99,4673.99C4696.43,4618.87 4696.82,4606.03 4793.93,4586.9C5115.34,4523.56 4945.79,4449.73 5206.54,4336.36C5479.66,4217.61 5427.89,4121.76 5633.72,4070.31C5855.86,4014.77 5851.25,3917.09 5896.02,3869.83C6020.95,3737.96 6174.59,3702.86 6283.6,3754.06C6028.46,3856.49 6103.98,3990.61 5875.41,4060.94C5611.2,4142.23 5529.37,4106.01 5557.76,4158.56C5389.08,4275.94 5400.34,4292.58 5214.04,4375.7C5432.08,4326.46 5439.3,4443.02 5654.33,4377.57C5847.27,4318.85 5986.3,4236.78 6182.68,4388.82C6022.3,4324.66 5729.09,4807.33 5360.18,4456.26C5276.42,4376.56 5269.32,4344.31 5165.32,4396.31C5152.02,4402.96 5142.95,4417.51 5072.66,4496.97C5117.66,4469.65 5112.26,4473.76 5165.19,4470.82C5177.71,4470.12 5262.11,4465.52 5298.82,4528.92C5307.91,4544.63 5304.36,4581.56 5264.27,4602.35C5232.24,4618.97 5167.39,4597.42 5170.61,4539.2C5172.72,4501 5252.59,4483.46 5237.22,4480.05C5155.94,4462.06 5103.44,4473.4 5072.66,4496.97C5062.07,4505.08 5044.53,4557.11 5000.37,4592.43C4930.24,4648.52 4808.13,4689.43 4808.13,4689.43C4808.13,4689.43 4990.56,4618.79 5180.71,4670.53C5203.2,4676.65 5309.39,4679.11 5363.92,4701.7C5456.16,4739.92 5721.91,4830.24 5869.79,5052.06C5870.28,5052.8 5887.52,5057.1 5881.03,5057.69C5827.26,5062.57 5829.01,5040.7 5776.11,5050.19C5266.38,5141.68 5176.87,4908.97 4942.37,4804.75C4904.36,4787.86 4822.18,4751.02 4810.26,4750.36C4949.7,4678.78 5006.72,4754.35 5121.81,4780.93C5277.49,4816.88 5429.64,4916.96 5602.37,4947.73C5361.6,4874.62 5456.86,4900.46 5284.41,4828C5194.2,4790.1 5139.58,4793.37 5064.01,4760.93C4890.79,4686.58 4915.14,4709.53 4775.62,4763.53C4742.93,4776.18 4663.36,4800.52 4648.21,4808.5C4589.81,4839.24 4422.56,4913.88 4412.8,4922.98C4436.72,4909.37 4627.46,4940.17 4681.98,4912.13C4815.85,4843.28 4880.01,4886.18 5039.61,4927.56C4925.36,4947.25 4902.74,4937.23 4702.89,4984.81C4544.5,5022.52 4524.29,5013.46 4411.74,5057.88C4360.57,5078.07 4197.73,5227.62 4193.77,5215.74C4176.25,5163.16 4282.67,5058.98 4289.78,5003.64C4303.72,4895.28 4261.51,4906.23 4307.74,4806.32C4354.28,4705.73 4404.14,4652.06 4502.02,4582.73C4473.24,4611.51 4441.68,4651.87 4409.04,4707.83C4372.65,4770.21 4395.11,4925.03 4367.47,4991.94C4425.22,4875.48 4542.39,4822.44 4555.91,4747.88C4566.26,4690.83 4626.75,4663.61 4657.67,4698.64C4699.73,4746.28 4664.57,4786.43 4617.17,4773.86C4575.07,4762.69 4555.91,4747.88 4555.91,4747.88C4555.91,4747.88 4554.03,4794.2 4463.21,4859.36C4410.79,4896.96 4422.24,4897.18 4313.36,5089.12C4236.49,5224.63 4209.81,5210.68 4200.81,5201.67C4164.12,5164.98 4198.93,5054.65 4194.21,4983.78C4190.24,4924.24 4016.57,5293.01 4014.8,5295.78C4055.97,5070.75 4212.97,4752.51 4346.95,4567.48C4456.46,4416.25 4463.2,4380.63 4490.03,4288.22C4506.86,4230.27 4461.34,4054.33 4452.23,4031.56C4465.7,4054.02 4603.07,4253.04 4615.45,4300.79C4631.72,4363.56 4626.86,4412.52 4581,4467.53C4516.65,4544.72 4227.07,4700.35 4232.14,4749.09C4266.5,4599.33 4280.75,4531.46 4266.94,4455.98C4217.09,4183.73 4124.77,4118.07 4101.62,4093.5C4107.61,4129.19 4137.27,4305.94 4002.43,4534.77C3918.85,4676.59 3908.45,4741.86 3902.53,4907.62C3896,5090.37 3826.36,5256.91 3818.04,5279.24C4026.55,5065.25 4047.57,4930.27 4074.18,4790.84C4109.27,4606.98 4114.9,4607.64 4106.54,4505.23C4095.97,4653.28 4073.76,4652.22 4091.06,4799.28C4108.16,4944.58 3893.65,5280.33 3784.35,5348C3814.71,5089.87 3712.13,5025.31 3660.53,4841.49C3588.41,4584.56 3698.58,4419.69 3619.73,4218.2C3748.22,4432.35 3811.43,4385.76 3891.28,4553.06C3937.58,4650.07 3872.75,4807.2 3858.98,5078.55C3858.85,4872.87 3857.54,4871.46 3787.16,4696.57C3806.98,4743.93 3931.37,5041.07 3802.64,5338.15C3750.73,5457.93 3585.82,5570.93 3687.26,5535.12C3759.22,5509.73 3991.94,5235.5 4254.72,5211.65C4433.28,5195.45 4488.65,5309.76 4616.03,5312.03C4697.67,5313.49 4839.81,5248.38 4935.62,5218.07C5023.59,5190.25 5316.52,5154.04 5316.52,5154.04C5316.52,5154.04 4973.48,5030.07 4672.14,5060.98C4472.84,5081.42 4294.85,5190.87 4294.85,5190.87C4328.18,5184.65 4303.99,5184.05 4357.57,5201.91C4470.29,5239.48 4651.73,5120.22 4761.12,5159.62C4640.46,5141.61 4572.03,5184.2 4439.83,5206.82C4332.86,5225.12 4332.18,5166.79 4276.78,5198.86C4215.64,5234.26 3916.6,5436.74 3898.85,5448.26C3937.5,5423.11 4090.14,5312.41 4132.61,5294.2C4220.87,5256.38 4312.09,5310.41 4327.51,5318.12C4447.73,5378.23 4584.3,5381.85 4573.17,5386.3C4538.57,5400.14 4172.44,5332.19 4014.39,5395.41C4004.95,5399.19 3912.12,5436.32 3898.85,5448.26C3897.56,5449.42 3778.47,5536.66 3857.53,5522.76C4130.09,5474.87 4470.19,5409.46 4722.53,5465.83C4892.87,5503.88 5129.13,5509.2 5223.51,5624.55C5278.58,5691.85 5013.26,5519.6 4853.64,5568.89C4546.69,5663.68 4539.13,5637.74 4355.57,5578.74C4318.65,5566.87 4310.53,5538.17 4169.85,5532.31C4047.82,5527.23 4003.39,5542.96 3989.76,5547.79C3912.4,5575.19 3751.52,5634.07 3670.02,5645.32C3781.83,5612.01 3949.2,5560.22 4272.56,5618.14C4464.66,5652.54 4504.04,5788.46 4736.86,5794.01C5029.18,5800.97 4596.83,5849.27 4424.52,5926.26C4162.06,6043.53 3899.32,5821.1 3836.47,5777.11C3769.23,5730.03 3561.95,5677.25 3609.94,5658.43C3648.41,5643.34 3834.89,5638.33 3924.34,5690.51C4114.06,5801.18 4315.8,5810.24 4372.69,5804.69C4414.36,5800.62 4266.08,5822.24 4100.08,5753.74C4046.79,5731.75 3792.06,5597.72 3609.94,5658.43C3503.07,5694.05 3412.71,5733.54 3397.6,5725.08C3417.03,5729.45 3499.08,5747.91 3617.76,5841.41C3643.86,5861.98 3677.54,5950.72 3734.1,6034.06C3804.95,6138.47 3813.02,6148.06 3802.9,6145.39C3746.08,6130.44 3738.51,6077.78 3655.29,6046.57C3600.55,6026.04 3373.99,5904.77 3356.31,5816.4C3325.91,5664.35 3605.03,5696.16 3611.5,5553.7C3614.56,5486.48 3783.38,5332.12 3674.05,5053.33C3655.45,5005.9 3655.26,5006.97 3639.03,4959.51C3691.25,5080.03 3643.52,5083.27 3627.77,5217.2C3625.37,5237.57 3609.9,5369.06 3505.18,5442.37C3465.06,5470.45 3459.76,5457.42 3424.33,5424.18C3531.31,5364.75 3485.78,5331.15 3532.7,5208.44C3535.95,5199.93 3570.29,5110.11 3528.94,5094.61C3501.14,5084.18 3550.63,5166.57 3465.14,5224.7C3428.23,5249.81 3361.71,5282.32 3367.57,5376.07C3371.74,5442.67 3588.68,5526.76 3366.32,5731.33C3340,5755.55 3284.61,5924.94 3299.85,5978.28" style="fill:none;"/>
</svg>
