<?xml version="1.0" encoding="UTF-8" standalone="no"?>
<svg
   width="100%"
   height="100%"
   viewBox="0 0 6615 6615"
   version="1.1"
   xml:space="preserve"
   style="fill-rule:evenodd;clip-rule:evenodd;stroke-linecap:round;stroke-linejoin:round;stroke-miterlimit:1.5"
   id="svg9"
   sodipodi:docname="you_look_funny.svg"
   inkscape:version="1.4.2 (f4327f4, 2025-05-13)"
   xmlns:inkscape="http://www.inkscape.org/namespaces/inkscape"
   xmlns:sodipodi="http://sodipodi.sourceforge.net/DTD/sodipodi-0.dtd"
   xmlns="http://www.w3.org/2000/svg"
   xmlns:svg="http://www.w3.org/2000/svg"
   xmlns:inkstitch="http://inkstitch.org/namespace"><sodipodi:namedview
   id="namedview9"
   pagecolor="#ffffff"
   bordercolor="#000000"
   borderopacity="0.25"
   inkscape:showpageshadow="2"
   inkscape:pageopacity="0.0"
   inkscape:pagecheckerboard="0"
   inkscape:deskcolor="#d1d1d1"
   inkscape:zoom="0.088615499"
   inkscape:cx="2302.0804"
   inkscape:cy="2646.2639"
   inkscape:window-width="1920"
   inkscape:window-height="1009"
   inkscape:window-x="3832"
   inkscape:window-y="704"
   inkscape:window-maximized="1"
   inkscape:current-layer="svg9" /><metadata
   id="metadata1"><inkstitch:min_stitch_len_mm>0.1</inkstitch:min_stitch_len_mm><inkstitch:collapse_len_mm>3</inkstitch:collapse_len_mm><inkstitch:inkstitch_svg_version>3</inkstitch:inkstitch_svg_version></metadata><defs
   id="defs9">
  
  
  
  
  
  
  
  
  
  
  
  
  
  
  
  
  
  
  
  
  
  
  
  
  
  
  
  
  
  
  
  
  
  
  
  
  
  
  
  
  
  
  
  
  
  
  
  
  
  
  
  
  
  
  
  
  
  
  
  
  
  
  
  
  
  
  
  
  
  
  
  
  
  
  
  
  
  
  
  
  
  
  
  
  
  
  
  
  
  
  
  
  
  
  
  
  
  
  
  
  
    
    
  
    
  
    
  
    
  
    
    
  
    
  
    
    
    
  
    
  
    
    
  
    
  
    
  
    
  
    
  
    
    
    
    
    
  
    
    
  
    
  
    
    
    
  
    
    
  
    
  
    
  
    
  
    
    
  
    
    
  
    
    
    
  
    
  
    
    
  
    
    
    
  
    
  
    
    
  
    
    
  
    
  
    
    
    
  
    
  
    
  
    
    
  
    
  
    
  
    
  
    
  
    
  
    
    
    
  
    
    
    
  
    
  
    
  
    
  
    
  
    
  
    
    
  
    
  
    
  
    
  
    
    
  
    
  
    
  
    
  
    
    
  
    
  
    
    
  
    
    
  
    
  
    
  
    
  
    
  
    
  
    
  
    
  
    
    
  
    
    
  
    
    
    
  
    
  
    
    
  
    
  
    
  
    
    
  
    
  
    
  
    
    
  
    
    
    
  
    
  
    
  
    
  
    
  
    
    
  
    
  
    
    
  
    
    
    
  
    
  
    
  
    
  
    
    
  
    
  
    
  
    
  
    
  
    
  
    
  
    
    
  
    
  
    
  
    
  
    
  
  
  
  
  
  
  
  
  
  
  
  
  
  
  
  
  
  
  
  
  
  
  
  
  
  
  
  
  
  
  
  
  
  
  
  
  
  
  
  
  
  
  
  
  
  
  
  
  
  
  
  
  
  
  
  
  
  
  
  
  
  
  
  
  
  
  
  
  
  
  
  
  
  
  
  
  
  
  
  
  
  
  
  
  
  
  
  
  
  
  
  
  
  
  
  
  
  
  
  
  
    
  
    
    
    
  
    
  
    
    
  
    
  
    
  
    
  
    
  
    
    
  
    
  
    
    
  
    
  
    
  
    
    
  
    
    
  
    
    
  
    
  
    
    
    
  
    
  
    
  
    
  
    
    
  
    
    
  
    
    
  
    
  
    
  
    
    
  
    
    
    
  
    
  
    
  
    
  
    
    
  
    
  
    
  
    
  
    
    
  
    
  
    
    
    
  
    
  
    
    
    
  
    
    
  
    
    
    
  
    
    
  
    
  
    
  
    
  
    
  
    
  
    
  
    
    
  
    
  
    
  
    
  
    
  
    
  
    
  
    
    
    
  
    
  
    
  
    
  
    
  
    
  
    
  
    
    
  
    
    
    
    
    
  
    
  
    
  
    
    
  
    
  
    
  
    
    
    
  
    
  
    
  
    
  
    
  
    
  
    
  
    
    
  
    
    
  
    
  
    
    
  
    
  
    
    
  
    
  
    
  
    
  
    
    
  
    
  
    
  
    
  
    
  
    
    
  
    
  
    
  
    
  
    
    
    
  
    
    
  
    
  
    
  
    
    
    
  
  
  
  
  
  
  
  
  
  
  
  
  
  
  
  
  
  
  
  
  
  
  
  
  
  
  
  
  
  
  
  
  
  
  
  
  
  
  
  
  
    
  
    
  
    
  
    
    
  
    
  
    
  
    
  
    
    
  
    
  
    
  
    
    
  
    
  
    
  
    
  
    
    
  
    
  
    
  
    
  
    
  
    
  
    
  
    
    
  
    
    
    
  
    
  
    
  
    
  
    
  
    
    
    
  
    
    
  
    
  
    
  
    
    
  
    
  
    
  
    
    
  
    
  
    
  
    
  
    
    
  
    
    
    
  </defs>
    
    
<path
   d="m 3081.1975,5897.8985 c 29.4718,-141.3539 79.0805,-281.0077 118.3059,-456.7791 22.4306,-100.5132 -222.6468,-6.9057 -210.6666,51.9927"
   id="path5298-1-1-1-1-1-1-1-1-1-1-1-1-1-1-1-1-1-1-1-1-1-1-1-1-1-1-1-1-1-1-1-1-1-1-1-1-1-1-1-1-1-1-1-1-1-1-1-1-1-1-1-0-3-5"
   sodipodi:nodetypes="ccc"
   inkstitch:ties="3"
   inkstitch:running_stitch_length_mm="2"
   style="clip-rule:evenodd;fill:none;fill-rule:evenodd;stroke:#000000;stroke-width:80;stroke-linecap:round;stroke-linejoin:round;stroke-miterlimit:4;stroke-dasharray:none;stroke-opacity:1"
   inkstitch:min_stitch_length_mm=".5"
   inkstitch:min_jump_stitch_length_mm="3" /><path
   d="m 2988.8368,5493.1121 c -11.9802,-58.8984 233.0972,-152.5059 210.6666,-51.9927 -39.2254,175.7714 -89.8531,306.3532 -119.3248,447.7071 -50.3905,241.684 157.6334,121.5689 244.0687,-27.414 111.5072,-192.1972 168.2538,-357.2183 214.7639,-503.8719 -68.6848,285.7284 -198.9772,679.2598 -257.5349,813.3889 -134.4364,307.9443 -336.5442,155.8334 -187.1522,37.9865 223.0421,-175.9533 294.8797,-181.438 476.3703,-380.1701"
   id="path4849-1-1-1-1-1-1-1-1-1-1-1-1-1-1-1-1-1-1-1-1-1-1-1-1-1-1-1-1-1-1-1-1-1-1-1-1-1-1-1-1-1-1-1-1-1-1-1-1-1-1-1-1-7-0-7"
   sodipodi:nodetypes="cssscssc"
   inkstitch:ties="3"
   inkstitch:bean_stitch_repeats="1"
   inkstitch:running_stitch_length_mm="2"
   style="clip-rule:evenodd;fill:none;fill-rule:evenodd;stroke:#000000;stroke-width:80;stroke-linecap:round;stroke-linejoin:round;stroke-miterlimit:4;stroke-dasharray:none;stroke-opacity:1"
   inkstitch:min_stitch_length_mm=".5"
   inkstitch:min_jump_stitch_length_mm="3" /><path
   d="m 3788.9527,5787.2059 c 5.7887,-83.0958 54.884,-188.4029 54.884,-188.4029"
   id="path1555-1-1-1-1-1-1-1-1-1-1-1-1-1-1-1-1-1-1-1-1-1-1-1-1-1-1-1-1-1-1-1-1-1-1-1-1-1-1-1-1-1-1-1-1-1-1-1-1-1-1-1-1-1-1-1-1-1-1-1-1-1-1-1-1-1-1-1-1-1-1-1-1-1-1-1-1-1-1-1-1-1-1-1-1-1-1-1-1-1-1-1-1-1-1-1-1-1-1-1-1-1-1-1-1-1-1-1-1-1-1-1-1-1-1-1-1-1-1-1-1-1-1-1-1-1-1-1-1-1-1-1-1-1-1-1-1-1-1-1-1-1-1-1-1-1-1-1-1-1-1-1-1-1-1-1-1-1-1-1-1-1-1-1-1-1-74-5-5"
   sodipodi:nodetypes="cc"
   inkstitch:ties="3"
   inkstitch:running_stitch_length_mm="2"
   style="clip-rule:evenodd;fill:none;fill-rule:evenodd;stroke:#000000;stroke-width:80;stroke-linecap:round;stroke-linejoin:round;stroke-miterlimit:4;stroke-dasharray:none;stroke-opacity:1"
   inkstitch:min_stitch_length_mm=".5"
   inkstitch:min_jump_stitch_length_mm="3" /><path
   d="m 3843.8367,5598.803 c 0,0 -47.8536,97.623 -54.2662,187.5365 -0.6131,137.0642 124.0182,154.658 174.2912,23.0984 24.5474,-71.2572 36.0323,-157.6187 0.096,-219.8751 -31.7623,-55.0242 -72.0205,-16.3663 -74.3303,35.9207 -4.0165,90.9013 9.6597,195.5774 141.0499,148.6358 39.4324,-14.0877 61.7014,-110.7018 61.7014,-110.7018"
   id="path1553-1-1-1-1-1-1-1-1-1-1-1-1-1-1-1-1-1-1-1-1-1-1-1-1-1-1-1-1-1-1-1-1-1-1-1-1-1-1-1-1-1-1-1-1-1-1-1-1-1-1-1-1-1-1-1-1-1-1-1-1-1-1-1-1-1-1-1-1-1-1-1-1-1-1-1-1-1-1-1-1-1-1-1-1-1-1-1-1-1-1-1-1-1-1-1-1-1-1-1-1-1-1-1-1-1-1-1-1-1-1-1-1-1-1-1-1-1-1-1-1-1-1-1-1-1-1-1-1-1-1-1-1-1-1-1-1-1-1-1-1-1-1-1-1-1-1-1-1-1-1-1-1-1-1-1-1-1-1-1-1-1-1-1-1-1-2-1-1"
   sodipodi:nodetypes="cccsssc"
   inkstitch:ties="3"
   inkstitch:bean_stitch_repeats="1"
   inkstitch:running_stitch_length_mm="2"
   style="clip-rule:evenodd;fill:none;fill-rule:evenodd;stroke:#000000;stroke-width:80;stroke-linecap:round;stroke-linejoin:round;stroke-miterlimit:4;stroke-dasharray:none;stroke-opacity:1"
   inkstitch:min_stitch_length_mm=".5"
   inkstitch:min_jump_stitch_length_mm="3" /><path
   d="m 4299.8247,5565.8181 c 16.3924,-62.0477 15.0096,-110.0896 15.3544,-169.9344 l 34.5315,208.7149 c 29.6425,74.9546 46.8416,169.3387 118.0959,-65.0746 31.0203,-102.049 18.1341,-182.5705 5.3114,-252.9169 14.335,76.4015 23.6941,168.7555 42.9752,234.3202 67.4489,168.2909 102.2907,-78.6979 113.0316,-160.7124"
   id="path2227-1-1-1-1-1-1-1-1-1-1-1-1-1-1-1-1-1-1-1-1-1-1-1-1-1-1-1-1-1-1-1-1-1-1-1-1-1-1-1-1-1-1-1-1-1-1-1-1-1-1-1-1-1-1-1-1-1-1-1-1-1-1-1-1-1-1-1-1-1-1-1-1-1-1-1-1-1-1-1-1-1-1-1-1-1-1-1-1-1-1-1-1-1-1-1-1-1-1-1-1-1-1-1-1-1-18-8-3"
   sodipodi:nodetypes="cccsccc"
   inkstitch:ties="3"
   inkstitch:bean_stitch_repeats="1"
   inkstitch:running_stitch_length_mm="2"
   style="clip-rule:evenodd;fill:none;fill-rule:evenodd;stroke:#000000;stroke-width:80;stroke-linecap:round;stroke-linejoin:round;stroke-miterlimit:4;stroke-dasharray:none;stroke-opacity:1"
   inkstitch:min_stitch_length_mm=".5"
   inkstitch:min_jump_stitch_length_mm="3" /><path
   d="m 5161.393,4862.9404 c -43.7827,-145.498 -69.0906,-300.2579 -141.5984,-437.1973 -99.284,-187.5112 -129.3605,-36.1514 -30.7638,106.4011 57.9211,83.7438 108.7114,215.7804 254.5017,361.7251 97.3402,97.4438 68.4776,-107.4782 41.6476,-212.0424"
   id="path5697-1-1-1-1-1-1-1-1-1-1-1-1-1-1-1-1-1-1-1-1-1-1-1-1-1-1-1-1-1-1-1-1-1-1-1-1-1-1-1-1-1-1-1-1-1-1-1-1-1-1-1-1-1-1-1-1-1-1-1-1-1-1-1-1-1-1-1-1-1-1-1-1-1-1-1-1-1-1-1-1-1-1-1-1-1-1-1-1-1-1-1-1-1-1-12-7-6"
   sodipodi:nodetypes="csssc"
   inkstitch:ties="3"
   inkstitch:bean_stitch_repeats="1"
   inkstitch:running_stitch_length_mm="2"
   style="clip-rule:evenodd;fill:none;fill-rule:evenodd;stroke:#000000;stroke-width:80;stroke-linecap:round;stroke-linejoin:round;stroke-miterlimit:4;stroke-dasharray:none;stroke-opacity:1"
   inkstitch:min_stitch_length_mm=".5"
   inkstitch:min_jump_stitch_length_mm="3" /><path
   d="m 5427.7916,4481.6163 c -54.5184,-62.9775 -94.0127,-172.2484 -94.0127,-172.2484"
   id="path1555-1-1-1-1-1-1-1-1-1-1-1-1-1-1-1-1-1-1-1-1-1-1-1-1-1-1-1-1-1-1-1-1-1-1-1-1-1-1-1-1-1-1-1-1-1-1-1-1-1-1-1-1-1-1-1-1-1-1-1-1-1-1-1-1-1-1-1-1-1-1-1-1-1-1-1-1-1-1-1-1-1-1-1-1-1-1-1-1-1-1-1-1-1-1-1-1-1-1-1-1-1-1-1-1-1-1-1-1-1-1-1-1-1-1-1-1-1-1-1-1-1-1-1-1-1-1-1-1-1-1-1-1-1-1-1-1-1-1-1-1-1-1-1-1-1-1-1-1-1-1-1-1-1-1-1-1-1-1-1-1-1-1-1-1-1-1-4-6-3"
   sodipodi:nodetypes="cc"
   inkstitch:ties="3"
   inkstitch:running_stitch_length_mm="2"
   style="clip-rule:evenodd;fill:none;fill-rule:evenodd;stroke:#000000;stroke-width:80;stroke-linecap:round;stroke-linejoin:round;stroke-miterlimit:4;stroke-dasharray:none;stroke-opacity:1"
   inkstitch:min_stitch_length_mm=".5"
   inkstitch:min_jump_stitch_length_mm="3" /><path
   d="m 5333.7789,4309.3679 c 0,0 34.9535,102.9488 93.8394,171.1985 96.2593,97.5762 197.003,22.1227 139.8232,-106.5853 -32.8715,-67.8205 -85.6567,-137.1311 -155.0457,-155.9034 -61.329,-16.591 -62.5901,39.2083 -27.3406,77.896 61.281,67.2593 144.8192,131.8 204.8257,5.8393 18.0093,-37.8027 -34.3655,-121.9876 -34.3655,-121.9876"
   id="path1553-1-1-1-1-1-1-1-1-1-1-1-1-1-1-1-1-1-1-1-1-1-1-1-1-1-1-1-1-1-1-1-1-1-1-1-1-1-1-1-1-1-1-1-1-1-1-1-1-1-1-1-1-1-1-1-1-1-1-1-1-1-1-1-1-1-1-1-1-1-1-1-1-1-1-1-1-1-1-1-1-1-1-1-1-1-1-1-1-1-1-1-1-1-1-1-1-1-1-1-1-1-1-1-1-1-1-1-1-1-1-1-1-1-1-1-1-1-1-1-1-1-1-1-1-1-1-1-1-1-1-1-1-1-1-1-1-1-1-1-1-1-1-1-1-1-1-1-1-1-1-1-1-1-1-1-1-1-1-1-1-1-1-1-1-1-1-6-7-4"
   sodipodi:nodetypes="cccsssc"
   inkstitch:ties="3"
   inkstitch:bean_stitch_repeats="1"
   inkstitch:running_stitch_length_mm="2"
   style="clip-rule:evenodd;fill:none;fill-rule:evenodd;stroke:#000000;stroke-width:80;stroke-linecap:round;stroke-linejoin:round;stroke-miterlimit:4;stroke-dasharray:none;stroke-opacity:1"
   inkstitch:min_stitch_length_mm=".5"
   inkstitch:min_jump_stitch_length_mm="3" /><path
   d="m 5643.2449,3969.4557 c -66.3872,-50.3107 -127.6713,-149.0235 -127.6713,-149.0235"
   id="path1555-1-1-1-1-1-1-1-1-1-1-1-1-1-1-1-1-1-1-1-1-1-1-1-1-1-1-1-1-1-1-1-1-1-1-1-1-1-1-1-1-1-1-1-1-1-1-1-1-1-1-1-1-1-1-1-1-1-1-1-1-1-1-1-1-1-1-1-1-1-1-1-1-1-1-1-1-1-1-1-1-1-1-1-1-1-1-1-1-1-1-1-1-1-1-1-1-1-1-1-1-1-1-1-1-1-1-1-1-1-1-1-1-1-1-1-1-1-1-1-1-1-1-1-1-1-1-1-1-1-1-1-1-1-1-1-1-1-1-1-1-1-1-1-1-1-1-1-1-1-1-1-1-1-1-1-1-1-1-1-1-1-1-1-1-1-1-1-15-9-2"
   sodipodi:nodetypes="cc"
   inkstitch:ties="3"
   inkstitch:running_stitch_length_mm="2"
   style="clip-rule:evenodd;fill:none;fill-rule:evenodd;stroke:#000000;stroke-width:80;stroke-linecap:round;stroke-linejoin:round;stroke-miterlimit:4;stroke-dasharray:none;stroke-opacity:1"
   inkstitch:min_stitch_length_mm=".5"
   inkstitch:min_jump_stitch_length_mm="3" /><path
   d="m 5515.5736,3820.4322 c 0,0 55.5315,93.4691 127.2841,148.0323 114.3927,75.507 197.3106,-19.1881 114.6966,-133.2505 -46.2141,-59.535 -112.2183,-116.4004 -183.9914,-120.3838 -63.436,-3.5198 -53.1048,51.3293 -10.6024,81.8712 73.8904,53.098 168.9913,98.9233 201.5886,-36.7392 9.7832,-40.7145 -58.9022,-112.2163 -58.9022,-112.2163"
   id="path1553-1-1-1-1-1-1-1-1-1-1-1-1-1-1-1-1-1-1-1-1-1-1-1-1-1-1-1-1-1-1-1-1-1-1-1-1-1-1-1-1-1-1-1-1-1-1-1-1-1-1-1-1-1-1-1-1-1-1-1-1-1-1-1-1-1-1-1-1-1-1-1-1-1-1-1-1-1-1-1-1-1-1-1-1-1-1-1-1-1-1-1-1-1-1-1-1-1-1-1-1-1-1-1-1-1-1-1-1-1-1-1-1-1-1-1-1-1-1-1-1-1-1-1-1-1-1-1-1-1-1-1-1-1-1-1-1-1-1-1-1-1-1-1-1-1-1-1-1-1-1-1-1-1-1-1-1-1-1-1-1-1-1-1-1-1-1-1-85-4-4"
   sodipodi:nodetypes="cccsssc"
   inkstitch:ties="3"
   inkstitch:bean_stitch_repeats="1"
   inkstitch:running_stitch_length_mm="2"
   style="clip-rule:evenodd;fill:none;fill-rule:evenodd;stroke:#000000;stroke-width:80;stroke-linecap:round;stroke-linejoin:round;stroke-miterlimit:4;stroke-dasharray:none;stroke-opacity:1"
   inkstitch:min_stitch_length_mm=".5"
   inkstitch:min_jump_stitch_length_mm="3" /><path
   d="m 5739.0955,3423.6056 c -126.5585,-111.5688 -226.7312,-225.3658 -390.8314,-321.8894 -135.4875,-79.6934 -115.3198,43.0233 -1.6939,94.2348 189.6307,85.4654 360.0645,153.756 540.0702,230.3067 l -158.1368,-68.9252 c -167.7862,-140.864 -128.754,-211.6085 -86.6469,-207.5797 102.1501,9.7748 119.3026,136.7883 117.0944,189.6628 85.6302,-32.7587 199.7192,-66.0482 85.93,-185.042 -33.0056,-30.7125 -56.1084,-52.546 -104.19,-86.0512"
   id="path5336-1-1-1-1-1-1-1-1-1-1-1-1-1-1-1-1-1-1-1-1-1-1-1-1-1-1-1-1-1-1-1-1-1-1-1-1-1-1-1-1-1-1-1-1-1-1-1-1-1-1-1-1-1-1-1-1-1-26-1-8"
   sodipodi:nodetypes="cssccsccc"
   inkstitch:bean_stitch_repeats="1"
   inkstitch:ties="3"
   inkstitch:running_stitch_length_mm="2"
   style="clip-rule:evenodd;fill:none;fill-rule:evenodd;stroke:#000000;stroke-width:80;stroke-linecap:round;stroke-linejoin:round;stroke-miterlimit:4;stroke-dasharray:none;stroke-opacity:1"
   inkstitch:min_stitch_length_mm=".5"
   inkstitch:min_jump_stitch_length_mm="3" /><path
   d="m 5558.0578,2251.259 c -185.2,-63.9064 -406.6462,-134.3799 -501.3034,-116.1359 -104.073,20.0595 -56.4767,110.9406 47.3887,101.5072 268.6269,-24.3963 664.1546,6.7663 800.7804,-10.4901 208.4228,-26.3281 123.6212,-224.6033 -88.2251,-97.147 -27.101,16.306 -86.0362,42.7811 -135.8572,99.1546 -35.5371,-147.4913 -133.8621,-140.5251 -207.0689,-169.6266"
   id="path3515-1-1-1-1-1-1-1-1-1-1-1-1-1-1-1-1-1-1-1-1-1-1-1-1-1-1-1-1-1-1-1-1-1-1-1-2-2"
   sodipodi:nodetypes="csssscc"
   inkstitch:bean_stitch_repeats="1"
   inkstitch:ties="3"
   inkstitch:running_stitch_length_mm="2"
   style="clip-rule:evenodd;fill:none;fill-rule:evenodd;stroke:#000000;stroke-width:80;stroke-linecap:round;stroke-linejoin:round;stroke-miterlimit:4;stroke-dasharray:none;stroke-opacity:1"
   inkstitch:min_stitch_length_mm=".5"
   inkstitch:min_jump_stitch_length_mm="3" /><path
   d="m 5368.9251,1853.0642 c -63.1208,-11.5922 -110.9157,-6.5341 -170.6112,-2.2946 l 205.4573,-50.4149 c 72.4641,-35.2959 165.2538,-59.6732 -73.9282,-112.7651 -104.1249,-23.1136 -183.4231,-4.0984 -252.5808,14.0743 75.0793,-20.1442 166.4452,-36.5489 230.3406,-60.7949 162.6309,-80.1396 -86.3009,-95.9629 -168.8971,-100.3911"
   id="path2227-1-1-1-1-1-1-1-1-1-1-1-1-1-1-1-1-1-1-1-1-1-1-1-1-1-1-1-1-1-1-1-1-1-1-1-1-1-1-1-1-1-1-1-1-1-1-1-1-1-1-1-1-1-1-1-1-1-1-1-1-1-1-1-1-1-1-1-1-1-1-1-1-1-1-1-1-1-1-1-1-1-1-1-1-1-1-1-1-1-1-1-1-1-1-1-1-1-1-1-1-1-1-1-1-1-1-0-7-1"
   sodipodi:nodetypes="cccsccc"
   inkstitch:ties="3"
   inkstitch:bean_stitch_repeats="1"
   inkstitch:running_stitch_length_mm="2"
   style="clip-rule:evenodd;fill:none;fill-rule:evenodd;stroke:#000000;stroke-width:80;stroke-linecap:round;stroke-linejoin:round;stroke-miterlimit:4;stroke-dasharray:none;stroke-opacity:1"
   inkstitch:min_stitch_length_mm=".5"
   inkstitch:min_jump_stitch_length_mm="3" /><path
   d="m 4996.3434,1384.3679 -133.3058,20.0804 c -93.462,16.9731 -122.5482,-10.2359 -43.3886,-74.7539 55.9225,-45.5776 137.9556,-75.0474 209.7084,-110.6972 l -149.8018,68.7222 c -350.3091,66.0038 -268.9036,-69.8184 -143.9069,-115.64 155.4764,-56.9954 136.5695,-130.4193 32.7012,-116.7015 l -150.0782,28.7359"
   id="path1192-1-1-1-1-1-1-1-1-1-1-1-1-1-1-1-1-1-1-1-1-1-1-1-1-1-1-1-1-1-1-1-1-1-1-1-1-1-1-1-1-1-1-1-1-1-1-1-1-1-1-1-1-1-1-1-1-1-1-1-1-1-1-1-1-1-1-1-1-1-1-1-1-1-1-1-1-1-1-1-1-1-1-1-1-1-1-1-66-8-6"
   sodipodi:nodetypes="ccsccscc"
   inkstitch:ties="3"
   inkstitch:bean_stitch_repeats="1"
   inkstitch:running_stitch_length_mm="2"
   style="clip-rule:evenodd;fill:none;fill-rule:evenodd;stroke:#000000;stroke-width:80;stroke-linecap:round;stroke-linejoin:round;stroke-miterlimit:4;stroke-dasharray:none;stroke-opacity:1"
   inkstitch:min_stitch_length_mm=".5"
   inkstitch:min_jump_stitch_length_mm="3" /><path
   d="m 4441.2102,975.56773 -122.3187,56.67267 c -84.9468,42.5121 -120.4983,24.5559 -62.6182,-59.57913 40.8899,-59.43625 111.3608,-110.73672 170.2305,-165.08503 L 4301.998,915.5652 c -317.7234,161.6317 -277.6919,8.42609 -170.5702,-70.62298 133.2425,-98.32509 94.4959,-163.49599 -1.3525,-121.18902 l -135.9892,69.6861"
   id="path1192-1-1-1-1-1-1-1-1-1-1-1-1-1-1-1-1-1-1-1-1-1-1-1-1-1-1-1-1-1-1-1-1-1-1-1-1-1-1-1-1-1-1-1-1-1-1-1-1-1-1-1-1-1-1-1-1-1-1-1-1-1-1-1-1-1-1-1-1-1-1-1-1-1-1-1-1-1-1-1-1-1-1-1-1-1-1-1-1-1-1-1-5-2-0"
   sodipodi:nodetypes="ccsccscc"
   inkstitch:ties="3"
   inkstitch:bean_stitch_repeats="1"
   inkstitch:running_stitch_length_mm="2"
   style="clip-rule:evenodd;fill:none;fill-rule:evenodd;stroke:#000000;stroke-width:80;stroke-linecap:round;stroke-linejoin:round;stroke-miterlimit:4;stroke-dasharray:none;stroke-opacity:1"
   inkstitch:min_stitch_length_mm=".5"
   inkstitch:min_jump_stitch_length_mm="3" /><path
   d="m 3793.866,742.75274 c 0,0 -69.6964,73.44693 -111.2324,104.86196 -24.1254,18.24701 -64.1301,43.99276 -69.5477,-8.72683 -7.537,-73.34022 78.3767,-129.12159 90.4054,-201.86116 15.6538,-94.65198 -47.1216,-44.66881 -116.5864,-8.16666 -109.6091,57.59732 -184.6656,197.99671 -178.8823,198.26556 0,0 153.9892,-310.41921 235.865,-463.0669 62.8313,-117.14979 194.6128,-156.5108 152.2607,10.54813 -33.7566,133.15208 -365.3059,181.58442 -479.815,317.71417"
   id="path1560-1-1-1-1-1-1-1-1-1-1-1-1-1-1-1-1-1-1-1-1-1-1-1-1-1-1-1-1-1-1-1-1-1-1-1-1-1-1-1-1-1-1-1-1-1-1-1-1-1-1-1-1-1-1-1-1-1-1-1-1-1-1-1-1-1-1-1-1-1-1-1-1-1-1-1-1-1-1-1-1-1-1-1-1-1-1-1-15-6-0"
   sodipodi:nodetypes="csssscssc"
   inkstitch:ties="3"
   inkstitch:bean_stitch_repeats="1"
   inkstitch:running_stitch_length_mm="2"
   style="clip-rule:evenodd;fill:none;fill-rule:evenodd;stroke:#000000;stroke-width:80;stroke-linecap:round;stroke-linejoin:round;stroke-miterlimit:4;stroke-dasharray:none;stroke-opacity:1"
   inkstitch:min_stitch_length_mm=".5"
   inkstitch:min_jump_stitch_length_mm="3" /><path
   d="m 2616.9296,795.96303 c -14.9645,34.08617 -20.5787,54.72866 -28.5372,89.07822 -5.6029,24.1821 -13.8497,46.59013 -17.2464,70.97708 -8.1134,58.26017 -3.0629,133.76817 -5.3303,196.45957 l 1.8599,-195.28036 87.926,-32.08102 -210.7643,76.26378 122.8383,-44.18276 c 0.1676,-49.56105 5.6282,-103.33672 0.5017,-148.68388 -31.4973,-278.59569 -143.1753,-59.9401 -183.8176,72.48578"
   id="path1864-1-1-1-1-1-1-1-1-1-1-1-1-1-1-1-1-1-1-1-1-1-1-1-1-1-1-1-1-1-1-1-1-1-1-1-1-1-1-1-1-1-1-1-1-1-1-1-1-1-1-1-1-1-1-1-1-1-1-1-1-1-1-1-1-1-1-1-1-1-1-1-1-1-1-1-1-1-1-1-1-1-1-1-1-1-1-1-1-1-1-1-1-1-1-1-1-1-1-1-1-1-1-1-1-1-1-1-1-1-1-1-1-1-1-1-1-1-1-1-1-1-1-1-1-1-1-1-1-1-1-1-1-1-1-1-1-1-1-1-1-1-1-1-1-1-1-1-1-1-1-1-0-5-7"
   sodipodi:nodetypes="csscccccsc"
   inkstitch:ties="3"
   inkstitch:bean_stitch_repeats="1"
   inkstitch:running_stitch_length_mm="2"
   style="clip-rule:evenodd;fill:none;fill-rule:evenodd;stroke:#000000;stroke-width:80;stroke-linecap:round;stroke-linejoin:round;stroke-miterlimit:4;stroke-dasharray:none;stroke-opacity:1"
   inkstitch:min_stitch_length_mm=".5"
   inkstitch:min_jump_stitch_length_mm="3" /><path
   d="m 2173.7648,984.21897 c -22.0136,100.70613 -21.3355,127.43053 -31.2965,190.86633"
   id="path5350-1-1-1-1-1-1-1-1-1-1-1-1-1-1-1-1-1-1-1-1-1-1-1-1-1-1-1-1-1-1-1-1-1-1-1-1-1-1-1-1-1-1-1-1-1-1-1-1-1-1-1-1-1-1-1-1-1-1-1-1-1-1-1-1-1-1-1-1-6-0-8"
   sodipodi:nodetypes="cc"
   inkstitch:bean_stitch_repeats="1"
   inkstitch:ties="3"
   inkstitch:running_stitch_length_mm="2"
   style="clip-rule:evenodd;fill:none;fill-rule:evenodd;stroke:#000000;stroke-width:80;stroke-linecap:round;stroke-linejoin:round;stroke-miterlimit:4;stroke-dasharray:none;stroke-opacity:1"
   inkstitch:min_stitch_length_mm=".5"
   inkstitch:min_jump_stitch_length_mm="3" /><path
   d="m 2146.11,1271.1898 7.8631,23.7114 16.5078,-10.2524 -16.8214,11.5906 6.839,22.0605 -9.0018,-21.8607 -15.9962,11.078 16.8214,-11.5905 z"
   id="path5352-1-1-1-1-1-1-1-1-1-1-1-1-1-1-1-1-1-1-1-1-1-1-1-1-1-1-1-1-1-1-1-1-1-1-1-1-1-1-1-1-1-1-1-1-1-1-1-1-1-1-1-1-1-1-1-1-1-1-1-1-1-1-1-1-1-1-1-3-7-1"
   inkstitch:ties="3"
   inkstitch:running_stitch_length_mm="2"
   style="clip-rule:evenodd;fill:none;fill-rule:evenodd;stroke:#000000;stroke-width:80;stroke-linecap:round;stroke-linejoin:round;stroke-miterlimit:4;stroke-dasharray:none;stroke-opacity:1"
   inkstitch:stroke_method="manual_stitch"
   inkstitch:min_stitch_length_mm=".5"
   inkstitch:min_jump_stitch_length_mm="3" /><path
   d="m 2142.2685,1172.9225 c -0.4268,-82.3675 -2.9205,-166.8375 -38.7354,-287.05353 -18.2823,-61.36217 -68.6647,20.41026 -74.7996,45.31165 -12.9863,52.71278 -23.3552,158.39808 -23.3552,158.39808"
   id="path5354-1-1-1-1-1-1-1-1-1-1-1-1-1-1-1-1-1-1-1-1-1-1-1-1-1-1-1-1-1-1-1-1-1-1-1-1-1-1-1-1-1-1-1-1-1-1-1-1-1-1-1-1-1-1-1-1-1-1-1-1-1-1-1-1-1-1-1-4-2-7"
   sodipodi:nodetypes="cssc"
   inkstitch:bean_stitch_repeats="1"
   inkstitch:ties="3"
   inkstitch:running_stitch_length_mm="2"
   style="clip-rule:evenodd;fill:none;fill-rule:evenodd;stroke:#000000;stroke-width:80;stroke-linecap:round;stroke-linejoin:round;stroke-miterlimit:4;stroke-dasharray:none;stroke-opacity:1"
   inkstitch:min_stitch_length_mm=".5"
   inkstitch:min_jump_stitch_length_mm="3" /><path
   d="m 1813.0247,1230.2375 c 18.0124,150.8712 16.2286,307.6765 64.0122,455.0756 65.4291,201.8335 121.1792,57.9366 48.6671,-99.4943 -42.5975,-92.4841 -69.8358,-231.3055 -188.2476,-400.2234 -79.0603,-112.7823 -86.0008,94.0457 -77.6214,201.6715"
   id="path5697-1-1-1-1-1-1-1-1-1-1-1-1-1-1-1-1-1-1-1-1-1-1-1-1-1-1-1-1-1-1-1-1-1-1-1-1-1-1-1-1-1-1-1-1-1-1-1-1-1-1-1-1-1-1-1-1-1-1-1-1-1-1-1-1-1-1-1-1-1-1-1-1-1-1-1-1-1-1-1-1-1-1-1-1-1-1-1-1-1-1-1-1-1-1-1-5-4-8"
   sodipodi:nodetypes="csssc"
   inkstitch:ties="3"
   inkstitch:bean_stitch_repeats="1"
   inkstitch:running_stitch_length_mm="2"
   style="clip-rule:evenodd;fill:none;fill-rule:evenodd;stroke:#000000;stroke-width:80;stroke-linecap:round;stroke-linejoin:round;stroke-miterlimit:4;stroke-dasharray:none;stroke-opacity:1"
   inkstitch:min_stitch_length_mm=".5"
   inkstitch:min_jump_stitch_length_mm="3" /><path
   d="m 1499.6161,1568.2578 c 7.6114,36.4399 15.028,56.5055 28.496,89.0914 9.4812,22.9406 15.7799,45.9723 27.1764,67.7985 27.2269,52.1418 75.1865,110.681 109.746,163.0355 l -111.8865,-160.0603 52.9519,-77.1768 -127.2989,184.4797 74.347,-107.3029 c -28.6441,-40.4455 -55.4265,-87.396 -85.9335,-121.3367 -187.4249,-208.5175 -151.3684,34.345 -107.5551,165.7558"
   id="path1864-1-1-1-1-1-1-1-1-1-1-1-1-1-1-1-1-1-1-1-1-1-1-1-1-1-1-1-1-1-1-1-1-1-1-1-1-1-1-1-1-1-1-1-1-1-1-1-1-1-1-1-1-1-1-1-1-1-1-1-1-1-1-1-1-1-1-1-1-1-1-1-1-1-1-1-1-1-1-1-1-1-1-1-1-1-1-1-1-1-1-1-1-1-1-1-1-1-1-1-1-1-1-1-1-1-1-1-1-1-1-1-1-1-1-1-1-1-1-1-1-1-1-1-1-1-1-1-1-1-1-1-1-1-1-1-1-1-1-1-1-1-1-1-1-1-1-1-1-1-1-1-1-2-0-1"
   sodipodi:nodetypes="csscccccsc"
   inkstitch:ties="3"
   inkstitch:bean_stitch_repeats="1"
   inkstitch:running_stitch_length_mm="2"
   style="clip-rule:evenodd;fill:none;fill-rule:evenodd;stroke:#000000;stroke-width:80;stroke-linecap:round;stroke-linejoin:round;stroke-miterlimit:4;stroke-dasharray:none;stroke-opacity:1"
   inkstitch:min_stitch_length_mm=".5"
   inkstitch:min_jump_stitch_length_mm="3" /><path
   d="m 1250.7322,1976.2447 c 41.2586,94.4673 57.4871,115.7107 86.639,172.9252"
   id="path5350-1-1-1-1-1-1-1-1-1-1-1-1-1-1-1-1-1-1-1-1-1-1-1-1-1-1-1-1-1-1-1-1-1-1-1-1-1-1-1-1-1-1-1-1-1-1-1-1-1-1-1-1-1-1-1-1-1-1-1-1-1-1-1-1-1-1-1-1-1-5-0-9"
   sodipodi:nodetypes="cc"
   inkstitch:bean_stitch_repeats="1"
   inkstitch:ties="3"
   inkstitch:running_stitch_length_mm="2"
   style="clip-rule:evenodd;fill:none;fill-rule:evenodd;stroke:#000000;stroke-width:80;stroke-linecap:round;stroke-linejoin:round;stroke-miterlimit:4;stroke-dasharray:none;stroke-opacity:1"
   inkstitch:min_stitch_length_mm=".5"
   inkstitch:min_jump_stitch_length_mm="3" /><path
   d="m 1396.7055,2224.8585 20.2792,14.5882 7.3529,-17.9877 -6.8217,19.2553 18.4813,13.8521 -20.1155,-12.4214 -6.4541,18.3561 6.8216,-19.2552 z"
   id="path5352-1-1-1-1-1-1-1-1-1-1-1-1-1-1-1-1-1-1-1-1-1-1-1-1-1-1-1-1-1-1-1-1-1-1-1-1-1-1-1-1-1-1-1-1-1-1-1-1-1-1-1-1-1-1-1-1-1-1-1-1-1-1-1-1-1-1-1-1-6-6-1"
   inkstitch:ties="3"
   inkstitch:running_stitch_length_mm="2"
   style="clip-rule:evenodd;fill:none;fill-rule:evenodd;stroke:#000000;stroke-width:80;stroke-linecap:round;stroke-linejoin:round;stroke-miterlimit:4;stroke-dasharray:none;stroke-opacity:1"
   inkstitch:stroke_method="manual_stitch"
   inkstitch:min_stitch_length_mm=".5"
   inkstitch:min_jump_stitch_length_mm="3" /><path
   d="m 1335.9405,2147.5357 c -48.6713,-66.4507 -100.25,-133.3913 -199.7845,-209.7291 -50.8067,-38.9646 -43.6297,56.8143 -33.9879,80.5788 20.4107,50.3058 74.0204,141.9732 74.0204,141.9732"
   id="path5354-1-1-1-1-1-1-1-1-1-1-1-1-1-1-1-1-1-1-1-1-1-1-1-1-1-1-1-1-1-1-1-1-1-1-1-1-1-1-1-1-1-1-1-1-1-1-1-1-1-1-1-1-1-1-1-1-1-1-1-1-1-1-1-1-1-1-1-1-2-6-0"
   sodipodi:nodetypes="cssc"
   inkstitch:bean_stitch_repeats="1"
   inkstitch:ties="3"
   inkstitch:running_stitch_length_mm="2"
   style="clip-rule:evenodd;fill:none;fill-rule:evenodd;stroke:#000000;stroke-width:80;stroke-linecap:round;stroke-linejoin:round;stroke-miterlimit:4;stroke-dasharray:none;stroke-opacity:1"
   inkstitch:min_stitch_length_mm=".5"
   inkstitch:min_jump_stitch_length_mm="3" /><path
   d="m 1108.1323,2369.2472 86.6806,103.2478 c 63.2421,70.8778 55.2051,109.8873 -41.1359,76.0166 -68.0593,-23.9286 -135.9995,-78.5364 -203.84843,-121.1497 l 136.78393,91.9426 c 239.0759,264.4155 80.733,265.8306 -23.5726,183.1013 -129.74031,-102.9019 -182.51457,-48.4647 -116.62037,32.9893 l 102.81547,113.0406"
   id="path1192-1-1-1-1-1-1-1-1-1-1-1-1-1-1-1-1-1-1-1-1-1-1-1-1-1-1-1-1-1-1-1-1-1-1-1-1-1-1-1-1-1-1-1-1-1-1-1-1-1-1-1-1-1-1-1-1-1-1-1-1-1-1-1-1-1-1-1-1-1-1-1-1-1-1-1-1-1-1-1-1-1-1-1-1-1-1-1-1-1-1-1-1-5-6-2"
   sodipodi:nodetypes="ccsccscc"
   inkstitch:ties="3"
   inkstitch:bean_stitch_repeats="1"
   inkstitch:running_stitch_length_mm="2"
   style="clip-rule:evenodd;fill:none;fill-rule:evenodd;stroke:#000000;stroke-width:80;stroke-linecap:round;stroke-linejoin:round;stroke-miterlimit:4;stroke-dasharray:none;stroke-opacity:1"
   inkstitch:min_stitch_length_mm=".5"
   inkstitch:min_jump_stitch_length_mm="3" /><path
   d="m 1065.1127,3065.812 c 44.9815,17.8041 89.1436,47.2286 126.5304,94.6154 34.8231,44.1358 64.9274,97.6202 29.4798,138.1113"
   id="path4231-1-1-1-1-1-1-1-1-1-1-1-1-1-1-1-1-1-1-1-1-1-1-1-1-21-1-2"
   sodipodi:nodetypes="csc"
   inkstitch:ties="3"
   inkstitch:running_stitch_length_mm="2"
   style="clip-rule:evenodd;fill:none;fill-rule:evenodd;stroke:#000000;stroke-width:80;stroke-linecap:round;stroke-linejoin:round;stroke-miterlimit:4;stroke-dasharray:none;stroke-opacity:1"
   inkstitch:min_stitch_length_mm=".5"
   inkstitch:min_jump_stitch_length_mm="3" /><path
   d="m 1221.1229,3298.5387 c 35.4476,-40.4911 5.3433,-93.9755 -29.4798,-138.1113 -40.5329,-51.3731 -93.4373,-84.2177 -141.5153,-101.0807 -61.45285,-21.5538 -114.83425,-17.2457 -122.408,5.1823 -33.77889,100.0369 70.43694,160.4432 159.8487,194.1397 -7.7531,0.8414 41.4723,16.4382 157.0547,50.2643 -171.9538,-49.1569 -415.35934,-119.9874 -575.26806,-170.3221 -56.56585,-17.8049 -161.61773,-142.1191 38.51943,-101.6658 84.58792,17.0988 150.20387,84.4952 264.95785,234.1347 79.17248,89.3481 105.43728,91.4072 138.25348,117.61"
   id="path3873-1-1-1-1-1-1-1-1-1-1-1-1-1-1-1-1-1-1-1-1-1-1-1-6-7-2"
   sodipodi:nodetypes="csssccsscc"
   inkstitch:bean_stitch_repeats="1"
   inkstitch:ties="3"
   inkstitch:running_stitch_length_mm="2"
   style="clip-rule:evenodd;fill:none;fill-rule:evenodd;stroke:#000000;stroke-width:80;stroke-linecap:round;stroke-linejoin:round;stroke-miterlimit:4;stroke-dasharray:none;stroke-opacity:1"
   inkstitch:min_stitch_length_mm=".5"
   inkstitch:min_jump_stitch_length_mm="3" /><path
   d="m 1370.6337,3994.9245 c 0,0 101.1683,-4.1233 152.8511,2.2826 30.0191,3.7206 76.6533,13.1262 43.807,54.7174 -45.6936,57.8592 -146.1863,38.0114 -205.496,81.8073 -77.1776,56.9882 2.6778,64.8735 77.9387,87.0899 118.755,35.055 270.4174,-13.3595 266.4564,-17.5818 0,0 -326.7435,115.3753 -491.8316,167.8242 -126.694,40.2552 -248.64733,-23.3297 -101.869,-113.6542 116.9879,-71.9917 388.5576,124.2748 565.5451,106.4116"
   id="path1560-1-1-1-1-1-1-1-1-1-1-1-1-1-1-1-1-1-1-1-1-1-1-1-1-1-1-1-1-1-1-1-1-1-1-1-1-1-1-1-1-1-1-1-1-1-1-1-1-1-1-1-1-1-1-1-1-1-1-1-1-1-1-1-1-1-1-1-1-1-1-1-1-1-1-1-1-1-1-1-1-1-1-1-1-1-1-1-1-1-1-1-9-5-8"
   sodipodi:nodetypes="csssscssc"
   inkstitch:ties="3"
   inkstitch:bean_stitch_repeats="1"
   inkstitch:running_stitch_length_mm="2"
   style="clip-rule:evenodd;fill:none;fill-rule:evenodd;stroke:#000000;stroke-width:80;stroke-linecap:round;stroke-linejoin:round;stroke-miterlimit:4;stroke-dasharray:none;stroke-opacity:1"
   inkstitch:min_stitch_length_mm=".5"
   inkstitch:min_jump_stitch_length_mm="3" /><path
   d="m 1822.0411,4500.9488 c 69.5263,-45.8749 183.002,-70.839 183.002,-70.839"
   id="path1555-1-1-1-1-1-1-1-1-1-1-1-1-1-1-1-1-1-1-1-1-1-1-1-1-1-1-1-1-1-1-1-1-1-1-1-1-1-1-1-1-1-1-1-1-1-1-1-1-1-1-1-1-1-1-1-1-1-1-1-1-1-1-1-1-1-1-1-1-1-1-1-1-1-1-1-1-1-1-1-1-1-1-1-1-1-1-1-1-1-1-1-1-1-1-1-1-1-1-1-1-1-1-1-1-1-1-1-1-1-1-1-1-1-1-1-1-1-1-1-1-1-1-1-1-1-1-1-1-1-1-1-1-1-1-1-1-1-1-1-1-1-1-1-1-1-1-1-1-1-1-1-1-1-1-1-1-1-1-1-1-1-1-1-1-1-1-1-1-5-8-5"
   sodipodi:nodetypes="cc"
   inkstitch:ties="3"
   inkstitch:running_stitch_length_mm="2"
   style="clip-rule:evenodd;fill:none;fill-rule:evenodd;stroke:#000000;stroke-width:80;stroke-linecap:round;stroke-linejoin:round;stroke-miterlimit:4;stroke-dasharray:none;stroke-opacity:1"
   inkstitch:min_stitch_length_mm=".5"
   inkstitch:min_jump_stitch_length_mm="3" /><path
   d="m 2005.0431,4430.1098 c 0,0 -106.6173,21.2831 -181.9385,70.8035 -109.2544,82.7674 -47.5281,192.4596 87.5175,152.485 71.5161,-23.7823 147.0967,-67.1159 174.7244,-133.4782 24.4177,-58.6539 -30.745,-67.1533 -73.6841,-37.2284 -74.6504,52.0239 -149.4967,126.4696 -32.399,202.3313 35.1428,22.7676 125.4183,-18.2267 125.4183,-18.2267"
   id="path1553-1-1-1-1-1-1-1-1-1-1-1-1-1-1-1-1-1-1-1-1-1-1-1-1-1-1-1-1-1-1-1-1-1-1-1-1-1-1-1-1-1-1-1-1-1-1-1-1-1-1-1-1-1-1-1-1-1-1-1-1-1-1-1-1-1-1-1-1-1-1-1-1-1-1-1-1-1-1-1-1-1-1-1-1-1-1-1-1-1-1-1-1-1-1-1-1-1-1-1-1-1-1-1-1-1-1-1-1-1-1-1-1-1-1-1-1-1-1-1-1-1-1-1-1-1-1-1-1-1-1-1-1-1-1-1-1-1-1-1-1-1-1-1-1-1-1-1-1-1-1-1-1-1-1-1-1-1-1-1-1-1-1-1-1-1-1-1-1-6-9-6"
   sodipodi:nodetypes="cccsssc"
   inkstitch:ties="3"
   inkstitch:bean_stitch_repeats="1"
   inkstitch:running_stitch_length_mm="2"
   style="clip-rule:evenodd;fill:none;fill-rule:evenodd;stroke:#000000;stroke-width:80;stroke-linecap:round;stroke-linejoin:round;stroke-miterlimit:4;stroke-dasharray:none;stroke-opacity:1"
   inkstitch:min_stitch_length_mm=".5"
   inkstitch:min_jump_stitch_length_mm="3" /><path
   d="m 2276.271,4747.9705 c 56.9881,-29.5123 91.6622,-62.7935 136.2432,-102.7193 l -131.4877,165.7267 c -35.6442,72.2935 -94.0417,148.4112 127.5175,43.8249 96.4535,-45.5298 147.4738,-109.1436 190.996,-165.8785 -46.9942,61.9212 -109.1513,130.8656 -144.7936,189.1761 -79.4291,162.9792 127.0013,22.9652 194.9917,-24.1416"
   id="path2227-1-1-1-1-1-1-1-1-1-1-1-1-1-1-1-1-1-1-1-1-1-1-1-1-1-1-1-1-1-1-1-1-1-1-1-1-1-1-1-1-1-1-1-1-1-1-1-1-1-1-1-1-1-1-1-1-1-1-1-1-1-1-1-1-1-1-1-1-1-1-1-1-1-1-1-1-1-1-1-1-1-1-1-1-1-1-1-1-1-1-1-1-1-1-1-1-1-1-1-1-1-1-1-1-1-1-1-0-8-6"
   sodipodi:nodetypes="cccsccc"
   inkstitch:ties="3"
   inkstitch:bean_stitch_repeats="1"
   inkstitch:running_stitch_length_mm="2"
   style="clip-rule:evenodd;fill:none;fill-rule:evenodd;stroke:#000000;stroke-width:80;stroke-linecap:round;stroke-linejoin:round;stroke-miterlimit:4;stroke-dasharray:none;stroke-opacity:1"
   inkstitch:min_stitch_length_mm=".5"
   inkstitch:min_jump_stitch_length_mm="3" /><path
   d="m 2852.0899,4877.4949 c 52.457,-49.1586 96.8193,-102.2865 138.2381,-167.8997 -4.4099,27.1748 -38.8081,65.6959 9.8324,72.7997 45.0086,-14.3034 50.8876,6.4995 28.3233,52.8209 -22.3474,47.5895 -55.428,101.2599 -82.6834,154.1439 -11.4024,61.0471 64.7037,49.5374 100.3169,1.7669 l 85.3304,-114.4493"
   id="path3391-1-1-1-1-1-1-1-1-1-1-1-1-1-1-1-1-1-1-1-1-1-1-1-1-1-1-1-1-1-1-1-1-1-1-1-1-1-1-1-1-1-1-1-1-1-1-1-1-1-1-1-1-1-1-1-1-1-1-1-5-2-7"
   sodipodi:nodetypes="cccccsc"
   inkstitch:ties="3"
   inkstitch:bean_stitch_repeats="1"
   inkstitch:running_stitch_length_mm="2"
   style="clip-rule:evenodd;fill:none;fill-rule:evenodd;stroke:#000000;stroke-width:80;stroke-linecap:round;stroke-linejoin:round;stroke-miterlimit:4;stroke-dasharray:none;stroke-opacity:1"
   inkstitch:min_stitch_length_mm=".5"
   inkstitch:min_jump_stitch_length_mm="3" /><path
   d="m 3767.961,4711.5482 c 22.7459,-171.0823 88.5578,-328.3157 70.6645,-526.8665 -6.2467,-69.3144 -94.2334,-105.2164 -84.1377,54.2262 14.875,234.9282 60.5476,406.244 94.1091,601.9131 l -24.382,-135.6779 c -19.8481,-110.4507 115.8045,-395.6332 152.5553,-152.4155 17.1803,113.7033 61.4238,283.7424 98.2815,88.9136 l 25.6322,-135.4991"
   id="path4594-1-1-1-1-1-1-1-1-1-1-1-1-1-1-1-1-1-1-1-1-1-1-1-1-1-1-1-1-1-1-1-1-1-1-2-9-7"
   sodipodi:nodetypes="csscsssc"
   inkstitch:bean_stitch_repeats="1"
   inkstitch:ties="3"
   inkstitch:running_stitch_length_mm="2"
   style="clip-rule:evenodd;fill:none;fill-rule:evenodd;stroke:#000000;stroke-width:80;stroke-linecap:round;stroke-linejoin:round;stroke-miterlimit:4;stroke-dasharray:none;stroke-opacity:1"
   inkstitch:min_stitch_length_mm=".5"
   inkstitch:min_jump_stitch_length_mm="3" /><path
   d="m 4251.3603,4367.7112 c 36.4622,-41.7894 67.6503,-81.0741 55.0213,-175.4121 -7.1223,-53.2083 -100.1094,-51.9053 -95.044,47.5682 2.2338,43.8491 65.8329,229.2706 125.6789,221.6175 148.0175,-18.9289 91.2843,-270.948 86.5239,-293.0153"
   id="path4636-1-1-1-1-1-1-1-1-1-1-1-1-1-1-1-1-1-1-1-1-1-1-1-1-1-1-1-1-1-1-1-1-1-1-1-1-1-1-1-1-1-1-1-1-1-1-1-1-1-1-1-1-1-1-1-1-1-1-1-1-1-1-1-1-1-1-1-1-1-1-1-1-1-1-0-1-5"
   sodipodi:nodetypes="csssc"
   inkstitch:bean_stitch_repeats="1"
   inkstitch:ties="3"
   inkstitch:running_stitch_length_mm="2"
   style="clip-rule:evenodd;fill:none;fill-rule:evenodd;stroke:#000000;stroke-width:80;stroke-linecap:round;stroke-linejoin:round;stroke-miterlimit:4;stroke-dasharray:none;stroke-opacity:1"
   inkstitch:min_stitch_length_mm=".5"
   inkstitch:min_jump_stitch_length_mm="3" /><path
   d="m 4538.8874,4012.316 c -94.1475,-128.4792 -93.503,-283.188 -27.584,-294.3471"
   id="path3928-1-1-1-1-1-1-1-1-1-1-1-1-1-1-1-1-1-1-1-1-1-1-1-1-1-1-1-1-1-0-2-3"
   sodipodi:nodetypes="cc"
   inkstitch:ties="3"
   inkstitch:running_stitch_length_mm="2"
   style="clip-rule:evenodd;fill:none;fill-rule:evenodd;stroke:#000000;stroke-width:80;stroke-linecap:round;stroke-linejoin:round;stroke-miterlimit:4;stroke-dasharray:none;stroke-opacity:1"
   inkstitch:min_stitch_length_mm=".5"
   inkstitch:min_jump_stitch_length_mm="3" /><path
   d="m 4511.3034,3717.9689 c -72.2707,13.824 -60.7955,185.5932 27.584,294.3471 40.5342,52.0477 57.046,53.2815 85.1351,53.7562 83.2492,1.4071 92.4798,-99.292 5.2598,-202.7358 l -117.9783,-145.3662 117.9783,145.3662 c 208.8003,150.5303 71.737,-166.0615 47.0901,-208.6555"
   id="path3930-1-1-1-1-1-1-1-1-1-1-1-1-1-1-1-1-1-1-1-1-1-1-1-1-1-1-1-1-0-9-7"
   sodipodi:nodetypes="ccscccc"
   inkstitch:bean_stitch_repeats="1"
   inkstitch:ties="3"
   inkstitch:running_stitch_length_mm="2"
   style="clip-rule:evenodd;fill:none;fill-rule:evenodd;stroke:#000000;stroke-width:80;stroke-linecap:round;stroke-linejoin:round;stroke-miterlimit:4;stroke-dasharray:none;stroke-opacity:1"
   inkstitch:min_stitch_length_mm=".5"
   inkstitch:min_jump_stitch_length_mm="3" /><path
   d="m 4712.9977,3477.2655 c 0,0 -45.5165,-42.5203 -83.5396,-89.5129 -22.8007,-28.1784 -66.8274,-132.097 -25.7531,-168.7609"
   id="path2796-1-1-1-1-1-1-1-1-1-1-1-1-1-1-1-1-1-2-9-8"
   sodipodi:nodetypes="csc"
   inkstitch:ties="3"
   inkstitch:running_stitch_length_mm="2"
   style="clip-rule:evenodd;fill:none;fill-rule:evenodd;stroke:#000000;stroke-width:80;stroke-linecap:round;stroke-linejoin:round;stroke-miterlimit:4;stroke-dasharray:none;stroke-opacity:1"
   inkstitch:min_stitch_length_mm=".5"
   inkstitch:min_jump_stitch_length_mm="3" /><path
   d="m 4603.704,3218.9916 c -41.0744,36.6639 2.805,140.7019 25.7531,168.761 49.3468,60.3373 64.4573,72.2509 95.8275,98.4856 30.2002,25.2566 81.8461,38.2008 115.9034,22.7104 48.8762,-22.2303 27.0505,-90.6806 -1.2722,-121.8079 -45.5017,-50.0087 -99.0824,-97.4031 -170.4364,-136.9523 l -327.9829,-169.7023 c 0,0 178.7297,90.1779 327.534,169.2778 27.2591,14.4907 55.7369,27.3148 79.4448,39.8929 10.9695,5.8208 37.9169,14.9186 49.3779,17.2656 47.9595,9.8207 59.3867,6.7241 71.0634,-1.5153 31.7966,-22.431 -59.3071,-116.9333 -131.7843,-191.0838"
   id="path2794-1-1-1-1-1-1-1-1-1-1-1-1-1-1-1-1-1-1-0-9-0"
   sodipodi:nodetypes="cssssccssssc"
   inkstitch:bean_stitch_repeats="1"
   inkstitch:ties="3"
   inkstitch:running_stitch_length_mm="2"
   style="clip-rule:evenodd;fill:none;fill-rule:evenodd;stroke:#000000;stroke-width:80;stroke-linecap:round;stroke-linejoin:round;stroke-miterlimit:4;stroke-dasharray:none;stroke-opacity:1"
   inkstitch:min_stitch_length_mm=".5"
   inkstitch:min_jump_stitch_length_mm="3" /><path
   d="m 4589.5637,2512.6324 c -151.0804,-16.1656 -303.5199,-52.9529 -457.8703,-39.3243 -211.3518,18.6606 -83.5564,105.1636 86.0992,69.6744 99.6656,-20.848 241.0631,-16.3682 432.1745,-94.0284 127.6003,-51.8513 -72.4438,-104.8458 -179.2196,-120.7345"
   id="path5697-1-1-1-1-1-1-1-1-1-1-1-1-1-1-1-1-1-1-1-1-1-1-1-1-1-1-1-1-1-1-1-1-1-1-1-1-1-1-1-1-1-1-1-1-1-1-1-1-1-1-1-1-1-1-1-1-1-1-1-1-1-1-1-1-1-1-1-1-1-1-1-1-1-1-1-1-1-1-1-1-1-1-1-1-1-1-1-1-1-1-1-1-1-1-1-1-10-6-8"
   sodipodi:nodetypes="csssc"
   inkstitch:ties="3"
   inkstitch:bean_stitch_repeats="1"
   inkstitch:running_stitch_length_mm="2"
   style="clip-rule:evenodd;fill:none;fill-rule:evenodd;stroke:#000000;stroke-width:80;stroke-linecap:round;stroke-linejoin:round;stroke-miterlimit:4;stroke-dasharray:none;stroke-opacity:1"
   inkstitch:min_stitch_length_mm=".5"
   inkstitch:min_jump_stitch_length_mm="3" /><path
   d="m 4346.5808,2161.3405 c -103.0023,4.1051 -128.6911,11.5035 -192.588,17.8685"
   id="path5350-1-1-1-1-1-1-1-1-1-1-1-1-1-1-1-1-1-1-1-1-1-1-1-1-1-1-1-1-1-1-1-1-1-1-1-1-1-1-1-1-1-1-1-1-1-1-1-1-1-1-1-1-1-1-1-1-1-1-1-1-1-1-1-1-1-1-1-1-1-1-9-2-6"
   sodipodi:nodetypes="cc"
   inkstitch:bean_stitch_repeats="1"
   inkstitch:ties="3"
   inkstitch:running_stitch_length_mm="2"
   style="clip-rule:evenodd;fill:none;fill-rule:evenodd;stroke:#000000;stroke-width:80;stroke-linecap:round;stroke-linejoin:round;stroke-miterlimit:4;stroke-dasharray:none;stroke-opacity:1"
   inkstitch:min_stitch_length_mm=".5"
   inkstitch:min_jump_stitch_length_mm="3" /><path
   d="m 4061.9158,2206.9786 -20.9607,13.5907 14.0854,13.3874 -15.4594,-13.3532 -19.6216,12.1833 18.8826,-14.2257 -14.7553,-12.684 15.4594,13.3531 z"
   id="path5352-1-1-1-1-1-1-1-1-1-1-1-1-1-1-1-1-1-1-1-1-1-1-1-1-1-1-1-1-1-1-1-1-1-1-1-1-1-1-1-1-1-1-1-1-1-1-1-1-1-1-1-1-1-1-1-1-1-1-1-1-1-1-1-1-1-1-1-1-1-4-5-8"
   inkstitch:ties="3"
   inkstitch:running_stitch_length_mm="2"
   style="clip-rule:evenodd;fill:none;fill-rule:evenodd;stroke:#000000;stroke-width:80;stroke-linecap:round;stroke-linejoin:round;stroke-miterlimit:4;stroke-dasharray:none;stroke-opacity:1"
   inkstitch:stroke_method="manual_stitch"
   inkstitch:min_stitch_length_mm=".5"
   inkstitch:min_jump_stitch_length_mm="3" /><path
   d="m 4156.0353,2178.47 c 79.5955,-21.193 160.704,-44.9165 267.9959,-109.9015 54.7649,-33.1717 -37.0731,-61.2945 -62.7167,-60.9486 -54.284,0.7323 -159.1666,17.3616 -159.1666,17.3616"
   id="path5354-1-1-1-1-1-1-1-1-1-1-1-1-1-1-1-1-1-1-1-1-1-1-1-1-1-1-1-1-1-1-1-1-1-1-1-1-1-1-1-1-1-1-1-1-1-1-1-1-1-1-1-1-1-1-1-1-1-1-1-1-1-1-1-1-1-1-1-1-1-0-3-1"
   sodipodi:nodetypes="cssc"
   inkstitch:bean_stitch_repeats="1"
   inkstitch:ties="3"
   inkstitch:running_stitch_length_mm="2"
   style="clip-rule:evenodd;fill:none;fill-rule:evenodd;stroke:#000000;stroke-width:80;stroke-linecap:round;stroke-linejoin:round;stroke-miterlimit:4;stroke-dasharray:none;stroke-opacity:1"
   inkstitch:min_stitch_length_mm=".5"
   inkstitch:min_jump_stitch_length_mm="3" /><path
   d="m 4052.8627,1907.4962 c -153.3466,70.3526 -298.0153,115.6878 -452.8568,226.4569 -127.8428,91.4555 -7.5091,122.8547 85.4287,39.8123 155.1026,-138.5904 286.7151,-266.6116 429.7627,-400.0261 l -127.1991,116.5259 c -196.8586,96.1331 -245.6593,31.7376 -224.8799,-5.1061 50.4111,-89.3807 173.4472,-53.4813 220.8698,-29.9935 4.8339,-91.5548 20.7385,-209.3324 -134.2083,-153.6639 -41.4687,17.6912 -70.8022,29.9381 -120.9446,60.2725"
   id="path5336-1-1-1-1-1-1-1-1-1-1-1-1-1-1-1-1-1-1-1-1-1-1-1-1-1-1-1-1-1-1-1-1-1-1-1-1-1-1-1-1-1-1-1-1-1-1-1-1-1-1-1-1-1-1-1-1-1-1-6-1-6"
   sodipodi:nodetypes="cssccsccc"
   inkstitch:bean_stitch_repeats="1"
   inkstitch:ties="3"
   inkstitch:running_stitch_length_mm="2"
   style="clip-rule:evenodd;fill:none;fill-rule:evenodd;stroke:#000000;stroke-width:80;stroke-linecap:round;stroke-linejoin:round;stroke-miterlimit:4;stroke-dasharray:none;stroke-opacity:1"
   inkstitch:min_stitch_length_mm=".5"
   inkstitch:min_jump_stitch_length_mm="3" /><path
   d="m 3552.2524,1721.8366 c -55.1959,-5.4094 -105.2896,-7.9804 -174.7488,57.0933 -39.1766,36.702 15.8927,111.6399 93.9253,49.7405 34.3973,-27.2867 148.3972,-186.7545 107.4077,-231.0261 -101.38,-109.4971 -273.5804,83.0628 -288.779,99.7551"
   id="path4636-1-1-1-1-1-1-1-1-1-1-1-1-1-1-1-1-1-1-1-1-1-1-1-1-1-1-1-1-1-1-1-1-1-1-1-1-1-1-1-1-1-1-1-1-1-1-1-1-1-1-1-1-1-1-1-1-1-1-1-1-1-1-1-1-1-1-1-1-1-1-1-1-1-1-1-4-7-2"
   sodipodi:nodetypes="csssc"
   inkstitch:bean_stitch_repeats="1"
   inkstitch:ties="3"
   inkstitch:running_stitch_length_mm="2"
   style="clip-rule:evenodd;fill:none;fill-rule:evenodd;stroke:#000000;stroke-width:80;stroke-linecap:round;stroke-linejoin:round;stroke-miterlimit:4;stroke-dasharray:none;stroke-opacity:1"
   inkstitch:min_stitch_length_mm=".5"
   inkstitch:min_jump_stitch_length_mm="3" /><path
   d="m 2703.3721,1839.5214 c -7.0752,36.5478 -7.9967,57.9203 -8.1805,93.1793 -0.1295,24.8224 -3.2292,48.4977 -1.1616,73.0331 4.9406,58.6146 26.5261,131.1476 38.1462,192.7943 l -41.2709,-190.8784 78.6812,-50.6898 -188.7443,120.8857 110.0631,-70.1959 c -10.7713,-48.3767 -17.3099,-102.032 -32.315,-145.1306 -92.1882,-264.781 -152.8718,-26.874 -163.2952,111.2555"
   id="path1864-1-1-1-1-1-1-1-1-1-1-1-1-1-1-1-1-1-1-1-1-1-1-1-1-1-1-1-1-1-1-1-1-1-1-1-1-1-1-1-1-1-1-1-1-1-1-1-1-1-1-1-1-1-1-1-1-1-1-1-1-1-1-1-1-1-1-1-1-1-1-1-1-1-1-1-1-1-1-1-1-1-1-1-1-1-1-1-1-1-1-1-1-1-1-1-1-1-1-1-1-1-1-1-1-1-1-1-1-1-1-1-1-1-1-1-1-1-1-1-1-1-1-1-1-1-1-1-1-1-1-1-1-1-1-1-1-1-1-1-1-1-1-1-1-1-1-1-1-1-1-1-1-1-2-9-0"
   sodipodi:nodetypes="csscccccsc"
   inkstitch:ties="3"
   inkstitch:bean_stitch_repeats="1"
   inkstitch:running_stitch_length_mm="2"
   style="clip-rule:evenodd;fill:none;fill-rule:evenodd;stroke:#000000;stroke-width:80;stroke-linecap:round;stroke-linejoin:round;stroke-miterlimit:4;stroke-dasharray:none;stroke-opacity:1"
   inkstitch:min_stitch_length_mm=".5"
   inkstitch:min_jump_stitch_length_mm="3" /><path
   d="m 2384.247,2071.1144 c 46.9475,166.0796 48.868,336.5198 144.0148,511.7045 33.216,61.1572 128.226,59.2326 55.743,-83.1405 -106.7984,-209.7775 -216.65,-348.9455 -325.0385,-515.2726 l 76.1764,114.8919 c 62.0122,93.5296 50.5438,409.1229 -79.6243,200.4084 -60.8526,-97.5734 -168.886,-236.1358 -125.4788,-42.6608 l 30.1901,134.5569"
   id="path4594-1-1-1-1-1-1-1-1-1-1-1-1-1-1-1-1-1-1-1-1-1-1-1-1-1-1-1-1-1-1-1-1-1-1-1-8-9-0"
   sodipodi:nodetypes="csscsssc"
   inkstitch:bean_stitch_repeats="1"
   inkstitch:ties="3"
   inkstitch:running_stitch_length_mm="2"
   style="clip-rule:evenodd;fill:none;fill-rule:evenodd;stroke:#000000;stroke-width:80;stroke-linecap:round;stroke-linejoin:round;stroke-miterlimit:4;stroke-dasharray:none;stroke-opacity:1"
   inkstitch:min_stitch_length_mm=".5"
   inkstitch:min_jump_stitch_length_mm="3" /><path
   d="m 2101.0531,2511.2126 c 121.3515,103.1719 156.5668,253.8209 95.0266,279.9482"
   id="path3928-1-1-1-1-1-1-1-1-1-1-1-1-1-1-1-1-1-1-1-1-1-1-1-1-1-1-1-1-1-1-1-1-1-7-1"
   sodipodi:nodetypes="cc"
   inkstitch:ties="3"
   inkstitch:running_stitch_length_mm="2"
   style="clip-rule:evenodd;fill:none;fill-rule:evenodd;stroke:#000000;stroke-width:80;stroke-linecap:round;stroke-linejoin:round;stroke-miterlimit:4;stroke-dasharray:none;stroke-opacity:1"
   inkstitch:min_stitch_length_mm=".5"
   inkstitch:min_jump_stitch_length_mm="3" /><path
   d="m 2196.0797,2791.1608 c 67.1017,-30.1913 16.144,-194.6286 -95.0266,-279.9482 -51.4896,-41.2408 -67.8381,-38.6157 -95.2729,-32.5699 -81.3102,17.918 -66.9602,118.0159 41.8523,198.4385 l 148.4464,114.0785 -148.4464,-114.0785 c -237.9938,-98.0607 -31.3127,178.1633 2.5316,213.8882"
   id="path3930-1-1-1-1-1-1-1-1-1-1-1-1-1-1-1-1-1-1-1-1-1-1-1-1-1-1-1-1-1-1-1-0-9-0"
   sodipodi:nodetypes="ccscccc"
   inkstitch:bean_stitch_repeats="1"
   inkstitch:ties="3"
   inkstitch:running_stitch_length_mm="2"
   style="clip-rule:evenodd;fill:none;fill-rule:evenodd;stroke:#000000;stroke-width:80;stroke-linecap:round;stroke-linejoin:round;stroke-miterlimit:4;stroke-dasharray:none;stroke-opacity:1"
   inkstitch:min_stitch_length_mm=".5"
   inkstitch:min_jump_stitch_length_mm="3" /><path
   d="m 2063.3297,3029.632 c 32.3566,18.4079 52.3082,26.126 85.651,37.5926 23.4733,8.0728 44.9088,18.5919 68.814,24.4913 57.1093,14.0926 132.7349,16.8748 194.8559,25.6108 l -194.0418,-22.0371 -22.8198,-90.7713 54.0675,217.5189 -31.2477,-126.7476 c -49.2782,-5.29 -102.2013,-16.2804 -147.8354,-15.8691 -280.3592,2.5288 -74.4197,136.2119 53.0953,190.3259"
   id="path1864-1-1-1-1-1-1-1-1-1-1-1-1-1-1-1-1-1-1-1-1-1-1-1-1-1-1-1-1-1-1-1-1-1-1-1-1-1-1-1-1-1-1-1-1-1-1-1-1-1-1-1-1-1-1-1-1-1-1-1-1-1-1-1-1-1-1-1-1-1-1-1-1-1-1-1-1-1-1-1-1-1-1-1-1-1-1-1-1-1-1-1-1-1-1-1-1-1-1-1-1-1-1-1-1-1-1-1-1-1-1-1-1-1-1-1-1-1-1-1-1-1-1-1-1-1-1-1-1-1-1-1-1-1-1-1-1-1-1-1-1-1-1-1-1-1-1-1-1-1-1-1-1-1-1-21-9-8"
   sodipodi:nodetypes="csscccccsc"
   inkstitch:ties="3"
   inkstitch:bean_stitch_repeats="1"
   inkstitch:running_stitch_length_mm="2"
   style="clip-rule:evenodd;fill:none;fill-rule:evenodd;stroke:#000000;stroke-width:80;stroke-linecap:round;stroke-linejoin:round;stroke-miterlimit:4;stroke-dasharray:none;stroke-opacity:1"
   inkstitch:min_stitch_length_mm=".5"
   inkstitch:min_jump_stitch_length_mm="3" /></svg>
