<?xml version="1.0" encoding="UTF-8" standalone="no"?>
<svg
   width="100%"
   height="100%"
   viewBox="0 0 6615 6615"
   version="1.1"
   xml:space="preserve"
   style="fill-rule:evenodd;clip-rule:evenodd;stroke-linejoin:round;stroke-miterlimit:2"
   id="svg1"
   sodipodi:docname="youre_hot.svg"
   inkscape:version="1.4.2 (f4327f4, 2025-05-13)"
   xmlns:inkscape="http://www.inkscape.org/namespaces/inkscape"
   xmlns:sodipodi="http://sodipodi.sourceforge.net/DTD/sodipodi-0.dtd"
   xmlns="http://www.w3.org/2000/svg"
   xmlns:svg="http://www.w3.org/2000/svg"
   xmlns:inkstitch="http://inkstitch.org/namespace"><sodipodi:namedview
   id="namedview1"
   pagecolor="#ffffff"
   bordercolor="#000000"
   borderopacity="0.25"
   inkscape:showpageshadow="2"
   inkscape:pageopacity="0.0"
   inkscape:pagecheckerboard="0"
   inkscape:deskcolor="#d1d1d1"
   inkscape:zoom="0.12532124"
   inkscape:cx="3367.3462"
   inkscape:cy="3004.2792"
   inkscape:window-width="1920"
   inkscape:window-height="1009"
   inkscape:window-x="3832"
   inkscape:window-y="704"
   inkscape:window-maximized="1"
   inkscape:current-layer="svg1" /><metadata
   id="metadata1"><inkstitch:min_stitch_len_mm>0.1</inkstitch:min_stitch_len_mm><inkstitch:collapse_len_mm>3</inkstitch:collapse_len_mm><inkstitch:inkstitch_svg_version>3</inkstitch:inkstitch_svg_version></metadata><defs
   id="defs1"><symbol
   id="inkstitch_trim"
   transform="scale(0.25, 0.25)"
   style="opacity:0.7">
      <title
   id="inkstitch_title9282">Trim the thread after sewing this object.</title>
      <path
   id="inkstitch_circle13405"
   d="m 9.2465284,-8.6e-6 c 1.8e-6,2.452339 -0.9741847,4.804237 -2.7082493,6.538304 C 4.8042146,8.2723614 2.4523174,9.2465504 -2.1625959e-5,9.2465514 -2.4523623,9.2465534 -4.8042621,8.2723654 -6.5383288,6.5382984 -8.2723956,4.8042314 -9.2465834,2.4523324 -9.2465816,-8.6e-6 c 6e-7,-2.452339 0.9741895,-4.804237 2.708256,-6.538301 1.7340665,-1.734065 4.0859648,-2.708252 6.538303974041,-2.70825 C 5.1067066,-9.2465576 9.2465271,-5.1067366 9.2465284,-8.6e-6 c 0,0 0,0 0,0"
   style="opacity:1;vector-effect:none;fill:#fafafa;fill-opacity:1;fill-rule:evenodd;stroke:#003399;stroke-width:1.06500006;stroke-linecap:round;stroke-linejoin:miter;stroke-miterlimit:4;stroke-dasharray:3.19500017, 3.19500017;stroke-dashoffset:0;stroke-opacity:1"
   inkscape:connector-curvature="0" />
      <path
   style="color:#000000;font-style:normal;font-variant:normal;font-weight:normal;font-stretch:normal;font-size:medium;line-height:normal;font-family:sans-serif;font-variant-ligatures:normal;font-variant-position:normal;font-variant-caps:normal;font-variant-numeric:normal;font-variant-alternates:normal;font-feature-settings:normal;text-indent:0;text-align:start;text-decoration-style:solid;text-decoration-color:#000000;text-decoration-line:none;letter-spacing:normal;word-spacing:normal;text-transform:none;writing-mode:lr-tb;direction:ltr;text-orientation:mixed;dominant-baseline:auto;baseline-shift:baseline;text-anchor:start;white-space:normal;shape-padding:0;clip-rule:nonzero;display:inline;overflow:visible;visibility:visible;opacity:1;isolation:auto;mix-blend-mode:normal;color-interpolation:sRGB;color-interpolation-filters:linearRGB;solid-color:#000000;solid-opacity:1;vector-effect:none;fill:#050505;fill-opacity:1;fill-rule:evenodd;stroke:none;stroke-width:1.41421342;stroke-linecap:butt;stroke-linejoin:miter;stroke-miterlimit:4;stroke-dasharray:none;stroke-dashoffset:0;stroke-opacity:1;color-rendering:auto;image-rendering:auto;shape-rendering:auto;text-rendering:auto;enable-background:accumulate"
   d="m -3.0000256,-5.9834096 c -1.30575,0 -2.375,1.06924 -2.375,2.375 0,1.30575 1.06925,2.375 2.375,2.375 0.58687,0 1.11944,-0.22369 1.53516,-0.58007 0,0 0.61717997,1.62109 0.61717997,1.62109 0,0 -2.29881997,6.01758 -2.29881997,6.01758 0.98655,-0.12511 1.23728,-0.26171 1.67382,-0.97461 0,0 1.33007997,-3.18945 1.33007997,-3.18945 0,0 1.23633003,3.25 1.23633003,3.25 0.23227,0.77906 0.84315,0.79218 1.57813,1.07226 0,0 -2.05469003,-6.14258 -2.05469003,-6.14258 0,0 0.73047003,-1.75 0.73047003,-1.75 0.42849,0.41682 1.01136,0.67578 1.65234,0.67578 1.30575,0 2.375,-1.06925 2.375,-2.375 0,-1.30576 -1.06925,-2.375 -2.375,-2.375 -1.06233,0 -1.95701,0.71265 -2.25781003,1.67969 0,0 -0.0117,-0.0156 -0.0117,-0.0156 0,0 -0.80274,2.10156 -0.80274,2.10156 0,0 -0.59179,-1.76562 -0.59179,-1.76562 -0.18242,-1.12808 -1.15864997,-2 -2.33593997,-2 0,0 -2e-5,-3e-5 -2e-5,-3e-5 m 0,1 c 0.76531,0 1.375,0.60968 1.375,1.375 0,0.76531 -0.60969,1.375 -1.375,1.375 -0.76531,0 -1.375,-0.60969 -1.375,-1.375 0,-0.76532 0.60969,-1.375 1.375,-1.375 0,0 0,0 0,0 m 6,0 c 0.76531,0 1.375,0.60968 1.375,1.375 0,0.76531 -0.60969,1.375 -1.375,1.375 -0.76531,0 -1.375,-0.60969 -1.375,-1.375 0,-0.76532 0.60969,-1.375 1.375,-1.375 0,0 0,0 0,0"
   id="inkstitch_path13416"
   inkscape:connector-curvature="0" />
    </symbol>
    
  
  
  
  
  
  
  
  
  
  
  
  
  
  
  
  
    
  
    
  
    
  
    
  
    
    
  
    
  
    
    
  
    
  
    
    
    
  
    
    
  
    
    
  
    
  
    
  
    
  
    
  
    
  
  
  
  
  
  
  
  
  
    
    
  
    
  
    
  
    
  
    
  
    
  
    
    
  
    
  </defs>
    
<path
   d="M 978.522,959.57216 C 433.00822,1490.498 603.38133,3048.0529 1492.6972,2226.7776 c 0,0 130.8386,-170.6941 211.5692,-246.3197 46.8909,-43.9262 125.6513,-107.2347 148.8563,2.9192 32.2816,153.2391 -136.7545,290.235 -145.9364,446.5702 -11.9511,203.4306 109.5023,83.8443 248.0936,-8.7577 218.6842,-146.1179 345.9092,-459.4349 333.633,-458.7127 0,0 -256.0303,690.0677 -394.9278,1030.7788 -106.5878,261.4784 -376.1762,374.0211 -323.9816,11.6855 41.6017,-288.7949 731.1468,-465.0643 942.6623,-778.1636"
   id="path1560-1"
   sodipodi:nodetypes="ccsscssssc"
   inkstitch:ties="3"
   inkstitch:bean_stitch_repeats="1"
   inkstitch:running_stitch_length_mm="2"
   style="fill:none;stroke:#000000;stroke-width:5.38997;stroke-miterlimit:4;stroke-dasharray:none;stroke-opacity:1"
   inkstitch:min_stitch_length_mm=".5"
   inkstitch:min_jump_stitch_length_mm="3" /><path
   d="m 2518.3954,2256.6919 c 71.1614,-161.9903 244.8374,-337.3348 244.8374,-337.3348"
   id="path1555-1-1-1-1-1-1-1-1-1-1-1-1-1-1-1-1-1-1-1-1-1-1-1-1-1-1-1-1-1-1-1-1-1-1-1-1-1-1-1-1-1-1-1-1-1-1-1-1-1-1-1-1-1-1-1-1-1-1-1-1-1-1-1-1-1-1-1-1-1-1-1-1-1-1-1-1-1-1-1-1-1-1-1-1-1-1-1-1-1-1-1-1-1-1-1-1-1-1-1-1-1-1-1-1-1-1-1-1"
   sodipodi:nodetypes="cc"
   inkstitch:ties="3"
   inkstitch:running_stitch_length_mm="2"
   style="fill:none;stroke:#000000;stroke-width:5.38997;stroke-miterlimit:4;stroke-dasharray:none;stroke-opacity:1"
   inkstitch:min_stitch_length_mm=".5"
   inkstitch:min_jump_stitch_length_mm="3" /><path
   d="m 2763.2328,1919.3571 c 0,0 -165.683,160.8714 -242.9809,336.0455 -99.5138,273.6059 137.0571,398.1553 331.9134,171.1662 100.178,-124.8684 185.0701,-289.3036 157.8637,-439.5481 -24.0479,-132.7917 -132.2614,-84.3682 -174.3743,18.5178 -73.2153,178.8674 -120.9338,397.9634 175.4286,398.3278 88.9432,0.1099 202.7493,-177.0909 202.7493,-177.0909"
   id="path1553-1-1-1-1-1-1-1-1-1-1-1-1-1-1-1-1-1-1-1-1-1-1-1-1-1-1-1-1-1-1-1-1-1-1-1-1-1-1-1-1-1-1-1-1-1-1-1-1-1-1-1-1-1-1-1-1-1-1-1-1-1-1-1-1-1-1-1-1-1-1-1-1-1-1-1-1-1-1-1-1-1-1-1-1-1-1-1-1-1-1-1-1-1-1-1-1-1-1-1-1-1-1-1-1-1-1-1-1"
   sodipodi:nodetypes="cccsssc"
   inkstitch:ties="3"
   inkstitch:bean_stitch_repeats="1"
   inkstitch:running_stitch_length_mm="2"
   style="fill:none;stroke:#000000;stroke-width:5.38997;stroke-miterlimit:4;stroke-dasharray:none;stroke-opacity:1"
   inkstitch:min_stitch_length_mm=".5"
   inkstitch:min_jump_stitch_length_mm="3" /><path
   d="m 3194.4287,2229.6881 c 99.0052,-93.7036 150.2471,-182 217.811,-289.6766 L 3241.129,2355.516 c -30.3171,168.5036 -104.8368,358.1725 286.0379,14.5939 170.1637,-149.5718 236.9649,-309.3845 292.4989,-450.7528 -59.5765,153.9938 -145.9821,331.2269 -184.5053,471.1851 -66.4541,379.3314 272.737,-27.685 383.8718,-163.7646"
   id="path2227-1-1-1-1-1-1-1-1-1-1-1-1-1-1-1-1-1-1-1-1-1-1-1-1-1-1-1-1-1-1-1-1-1-1-1-1-1-1-1-1-1-1-1-1-1-1-1-1"
   sodipodi:nodetypes="cccsccc"
   inkstitch:ties="3"
   inkstitch:bean_stitch_repeats="1"
   inkstitch:running_stitch_length_mm="2"
   style="fill:none;stroke:#000000;stroke-width:5.38997;stroke-miterlimit:4;stroke-dasharray:none;stroke-opacity:1"
   inkstitch:min_stitch_length_mm=".5"
   inkstitch:min_jump_stitch_length_mm="3" /><path
   d="m 4018.2022,2226.7776 c 111.7292,-104.0912 206.289,-216.6641 294.6742,-355.775 -9.5359,57.6943 -82.8404,139.3028 20.4323,154.6944 95.6915,-30.1019 108.0496,14.1217 59.8331,112.3724 -47.7638,100.9456 -118.3639,214.7409 -176.5855,326.9019 -24.5992,129.5987 137.1287,105.6241 213.0713,4.3767 l 181.9612,-242.5704"
   id="path3391-1-1-1-1-1-1-1-1-1-1-1-1-1-1-1-1-1-1-1-1-1-1-1-1-1-1-1-1-1-1-1-1-1-1-1-1-1-1-1-1-1-1-1-1-1"
   sodipodi:nodetypes="cccccsc"
   inkstitch:ties="3"
   inkstitch:bean_stitch_repeats="1"
   inkstitch:running_stitch_length_mm="2"
   style="fill:none;stroke:#000000;stroke-width:5.38997;stroke-miterlimit:4;stroke-dasharray:none;stroke-opacity:1"
   inkstitch:min_stitch_length_mm=".5"
   inkstitch:min_jump_stitch_length_mm="3" /><path
   d="m 4630.5417,2226.7776 c 117.802,0.5605 224.2535,-3.8765 358.3281,-155.1947 75.6213,-85.3448 -55.6181,-232.9784 -208.4506,-86.6837 -67.3693,64.49 -277.0378,424.2255 -181.621,509.7774 235.9959,211.5953 562.2317,-229.6 591.0853,-267.899 375.4969,287.0822 -39.5467,781.7278 -303.6051,944.2253 -771.6906,474.8865 -1820.0517,-466.7107 -2409.2851,-50.7812 -263.9378,186.309 -994.635,1063.2433 -812.4989,1427.5155 119.3489,238.6978 465.4299,38.1214 652.5375,-155.8355 235.6729,-292.9725 530.0647,-503.7269 719.2679,-882.5581 66.0509,-132.2506 -52.9188,-295.3167 -212.5785,4.1287 -235.2487,441.2126 -343.8538,801.8148 -501.5224,1192.92 l 107.3214,-272.433 c 87.3674,-221.7781 650.7574,-585.8622 445.7982,-105.2576 -95.8187,224.68 -205.5823,581.3799 78.4263,270.3676 l 197.5188,-216.304"
   id="path4636-1-1-1-1-1-1-1-1-1-1-1-1-1-1-1-1-1-1-1-1-1-1-1-1-1-1-1-1-1-1-1-1-1-1-1-1-1-1"
   sodipodi:nodetypes="cssscssscsscsssc"
   inkstitch:bean_stitch_repeats="1"
   inkstitch:ties="3"
   inkstitch:running_stitch_length_mm="2"
   style="fill:none;stroke:#000000;stroke-width:5.38997;stroke-miterlimit:4;stroke-dasharray:none;stroke-opacity:1"
   inkstitch:min_stitch_length_mm=".5"
   inkstitch:min_jump_stitch_length_mm="3" /><path
   d="m 3155.3568,4412.6818 c 71.1614,-161.9903 244.8374,-337.3348 244.8374,-337.3348"
   id="path1555-1-1-1-1-1-1-1-1-1-1-1-1-1-1-1-1-1-1-1-1-1-1-1-1-1-1-1-1-1-1-1-1-1-1-1-1-1-1-1-1-1-1-1-1-1-1-1-1-1-1-1-1-1-1-1-1-1-1-1-1-1-1-1-1-1-1-1-1-1-1-1-1-1-1-1-1-1-1-1-1-1-1-1-1-1-1-1-1-1-1-1-1-1-1-1-1-1-1-1-1-1-1-1-1-1-1-1-1-1"
   sodipodi:nodetypes="cc"
   inkstitch:ties="3"
   inkstitch:running_stitch_length_mm="2"
   style="fill:none;stroke:#000000;stroke-width:5.38997;stroke-miterlimit:4;stroke-dasharray:none;stroke-opacity:1"
   inkstitch:min_stitch_length_mm=".5"
   inkstitch:min_jump_stitch_length_mm="3" /><path
   d="m 3400.1942,4075.347 c 0,0 -165.683,160.8714 -242.9809,336.0455 -99.5138,273.6059 137.0571,398.1553 331.9134,171.1662 100.178,-124.8684 185.0701,-289.3036 157.8637,-439.5481 -24.0479,-132.7917 -132.2614,-84.3682 -174.3743,18.5178 -73.2153,178.8674 -120.9338,397.9634 175.4286,398.3278 88.9432,0.1099 202.7493,-177.0909 202.7493,-177.0909"
   id="path1553-1-1-1-1-1-1-1-1-1-1-1-1-1-1-1-1-1-1-1-1-1-1-1-1-1-1-1-1-1-1-1-1-1-1-1-1-1-1-1-1-1-1-1-1-1-1-1-1-1-1-1-1-1-1-1-1-1-1-1-1-1-1-1-1-1-1-1-1-1-1-1-1-1-1-1-1-1-1-1-1-1-1-1-1-1-1-1-1-1-1-1-1-1-1-1-1-1-1-1-1-1-1-1-1-1-1-1-1-1"
   sodipodi:nodetypes="cccsssc"
   inkstitch:ties="3"
   inkstitch:bean_stitch_repeats="1"
   inkstitch:running_stitch_length_mm="2"
   style="fill:none;stroke:#000000;stroke-width:5.38997;stroke-miterlimit:4;stroke-dasharray:none;stroke-opacity:1"
   inkstitch:min_stitch_length_mm=".5"
   inkstitch:min_jump_stitch_length_mm="3" /><path
   d="m 3835.8917,4382.7675 c 54.7162,-57.0842 80.9734,-94.1694 121.9053,-156.8893 28.8165,-44.1546 61.6132,-82.8417 86.1777,-129.0144 58.6819,-110.3069 103.6839,-264.624 153.9357,-388.0351 l -146.1524,388.214 -198.8069,-0.1358 476.0888,1.5954 -277.2819,-1.4596 c -36.4851,98.7487 -86.6039,202.0443 -109.4542,296.2481 -140.3791,578.754 225.5419,185.9667 419.5761,-10.5233 1051.0305,-780.1678 1500.8521,793.7944 980.9131,1536.5643"
   id="path1864-1-1-1-1-1-1-1-1-1-1-1-1-1-1-1-1-1-1-1-1-1-1-1-1-1-1-1-1-1-1-1-1-1-1-1-1-1-1-1-1-1-1-1-1-1-1-1-1-1-1-1-1-1-1-1-1-1"
   sodipodi:nodetypes="csscccccscc"
   inkstitch:ties="3"
   inkstitch:bean_stitch_repeats="1"
   inkstitch:running_stitch_length_mm="2"
   style="fill:none;stroke:#000000;stroke-width:5.38997;stroke-miterlimit:4;stroke-dasharray:none;stroke-opacity:1"
   inkstitch:min_stitch_length_mm=".5"
   inkstitch:min_jump_stitch_length_mm="3" /></svg>
